# Tiled2Unity generated file. Do not modify by hand.
# Wavefront file for 'TestCatacombs_mesh_0005.obj'

# Vertices (Count = 32)
v -46 -25 0
v -47 -25 0
v -47 -24 0
v -46 -24 0
v -45 -25 0
v -46 -25 0
v -46 -24 0
v -45 -24 0
v -46 -26 0
v -47 -26 0
v -47 -25 0
v -46 -25 0
v -45 -26 0
v -46 -26 0
v -46 -25 0
v -45 -25 0
v -46 -27 0
v -47 -27 0
v -47 -26 0
v -46 -26 0
v -45 -27 0
v -46 -27 0
v -46 -26 0
v -45 -26 0
v -46 -28 0
v -47 -28 0
v -47 -27 0
v -46 -27 0
v -45 -28 0
v -46 -28 0
v -46 -27 0
v -45 -27 0

# Texture cooridinates (Count = 12)
vt 0.9848485 0.8030303
vt 0.01515152 0.8030303
vt 0.01515152 0.9969697
vt 0.9848485 0.9969697
vt 0.9848485 0.6030303
vt 0.01515152 0.6030303
vt 0.01515152 0.7969697
vt 0.9848485 0.7969697
vt 0.9848485 0.4030303
vt 0.01515152 0.4030303
vt 0.01515152 0.5969697
vt 0.9848485 0.5969697

# Normal
vn 0 0 -1

# Mesh description
g TestCatacombs_mesh_0005

# Faces
f 1/1/1 2/2/1 3/3/1 4/4/1
f 5/2/1 6/1/1 7/4/1 8/3/1
f 9/5/1 10/6/1 11/7/1 12/8/1
f 13/6/1 14/5/1 15/8/1 16/7/1
f 17/5/1 18/6/1 19/7/1 20/8/1
f 21/6/1 22/5/1 23/8/1 24/7/1
f 25/9/1 26/10/1 27/11/1 28/12/1
f 29/10/1 30/9/1 31/12/1 32/11/1

