# Tiled2Unity generated file. Do not modify by hand.
# Wavefront file for 'TestCatacombs_mesh_0004.obj'

# Vertices (Count = 24)
v -46 -27 0
v -47 -27 0
v -47 -26 0
v -46 -26 0
v -45 -27 0
v -46 -27 0
v -46 -26 0
v -45 -26 0
v -47 -28 0
v -48 -28 0
v -48 -27 0
v -47 -27 0
v -46 -28 0
v -47 -28 0
v -47 -27 0
v -46 -27 0
v -45 -28 0
v -46 -28 0
v -46 -27 0
v -45 -27 0
v -44 -28 0
v -45 -28 0
v -45 -27 0
v -44 -27 0

# Texture cooridinates (Count = 12)
vt 0.007575758 0.5075758
vt 0.4924242 0.5075758
vt 0.4924242 0.9924242
vt 0.007575758 0.9924242
vt 0.5075758 0.00757575
vt 0.9924242 0.00757575
vt 0.9924242 0.4924242
vt 0.5075758 0.4924242
vt 0.007575758 0.00757575
vt 0.4924242 0.00757575
vt 0.4924242 0.4924242
vt 0.007575758 0.4924242

# Normal
vn 0 0 -1

# Mesh description
g TestCatacombs_mesh_0004

# Faces
f 1/1/1 2/2/1 3/3/1 4/4/1
f 5/2/1 6/1/1 7/4/1 8/3/1
f 9/5/1 10/6/1 11/7/1 12/8/1
f 13/9/1 14/10/1 15/11/1 16/12/1
f 17/10/1 18/9/1 19/12/1 20/11/1
f 21/6/1 22/5/1 23/8/1 24/7/1

