# Tiled2Unity generated file. Do not modify by hand.
# Wavefront file for 'TestCatacombs_mesh_0010.obj'

# Vertices (Count = 32)
v -6 -9 0
v -7 -9 0
v -7 -8 0
v -6 -8 0
v -5 -9 0
v -6 -9 0
v -6 -8 0
v -5 -8 0
v -6 -10 0
v -7 -10 0
v -7 -9 0
v -6 -9 0
v -5 -10 0
v -6 -10 0
v -6 -9 0
v -5 -9 0
v -27 -43 0
v -28 -43 0
v -28 -42 0
v -27 -42 0
v -26 -43 0
v -27 -43 0
v -27 -42 0
v -26 -42 0
v -27 -44 0
v -28 -44 0
v -28 -43 0
v -27 -43 0
v -26 -44 0
v -27 -44 0
v -27 -43 0
v -26 -43 0

# Texture cooridinates (Count = 8)
vt 0.9974747 0.8358586
vt 0.8358586 0.8358586
vt 0.8358586 0.9974747
vt 0.9974747 0.9974747
vt 0.9974747 0.669192
vt 0.8358586 0.669192
vt 0.8358586 0.8308081
vt 0.9974747 0.8308081

# Normal
vn 0 0 -1

# Mesh description
g TestCatacombs_mesh_0010

# Faces
f 1/1/1 2/2/1 3/3/1 4/4/1
f 5/2/1 6/1/1 7/4/1 8/3/1
f 9/5/1 10/6/1 11/7/1 12/8/1
f 13/6/1 14/5/1 15/8/1 16/7/1
f 17/1/1 18/2/1 19/3/1 20/4/1
f 21/2/1 22/1/1 23/4/1 24/3/1
f 25/5/1 26/6/1 27/7/1 28/8/1
f 29/6/1 30/5/1 31/8/1 32/7/1

