# Tiled2Unity generated file. Do not modify by hand.
# Wavefront file for 'TestCatacombs_mesh_0003.obj'

# Vertices (Count = 108)
v -31 -8 0
v -32 -8 0
v -32 -7 0
v -31 -7 0
v -25 -8 0
v -26 -8 0
v -26 -7 0
v -25 -7 0
v -6 -9 0
v -7 -9 0
v -7 -8 0
v -6 -8 0
v -5 -9 0
v -6 -9 0
v -6 -8 0
v -5 -8 0
v -6 -10 0
v -7 -10 0
v -7 -9 0
v -6 -9 0
v -5 -10 0
v -6 -10 0
v -6 -9 0
v -5 -9 0
v -6 -11 0
v -7 -11 0
v -7 -10 0
v -6 -10 0
v -5 -11 0
v -6 -11 0
v -6 -10 0
v -5 -10 0
v -6 -12 0
v -7 -12 0
v -7 -11 0
v -6 -11 0
v -5 -12 0
v -6 -12 0
v -6 -11 0
v -5 -11 0
v -29 -15 0
v -30 -15 0
v -30 -14 0
v -29 -14 0
v -18 -15 0
v -19 -15 0
v -19 -14 0
v -18 -14 0
v -14 -19 0
v -15 -19 0
v -15 -18 0
v -14 -18 0
v -23 -20 0
v -24 -20 0
v -24 -19 0
v -23 -19 0
v -27 -43 0
v -28 -43 0
v -28 -42 0
v -27 -42 0
v -26 -43 0
v -27 -43 0
v -27 -42 0
v -26 -42 0
v -27 -44 0
v -28 -44 0
v -28 -43 0
v -27 -43 0
v -26 -44 0
v -27 -44 0
v -27 -43 0
v -26 -43 0
v -27 -45 0
v -28 -45 0
v -28 -44 0
v -27 -44 0
v -26 -45 0
v -27 -45 0
v -27 -44 0
v -26 -44 0
v -27 -46 0
v -28 -46 0
v -28 -45 0
v -27 -45 0
v -26 -46 0
v -27 -46 0
v -27 -45 0
v -26 -45 0
v -45 -47 0
v -46 -47 0
v -46 -46 0
v -45 -46 0
v -32 -47 0
v -33 -47 0
v -33 -46 0
v -32 -46 0
v -11 -47 0
v -12 -47 0
v -12 -46 0
v -11 -46 0
v -24 -48 0
v -25 -48 0
v -25 -47 0
v -24 -47 0
v -4 -48 0
v -5 -48 0
v -5 -47 0
v -4 -47 0

# Texture cooridinates (Count = 28)
vt 0.7518939 0.00252527
vt 0.8731061 0.00252527
vt 0.8731061 0.1641414
vt 0.7518939 0.1641414
vt 0.9981061 0.5025252
vt 0.8768939 0.5025252
vt 0.8768939 0.6641414
vt 0.9981061 0.6641414
vt 0.9981061 0.3358586
vt 0.8768939 0.3358586
vt 0.8768939 0.4974747
vt 0.9981061 0.4974747
vt 0.9981061 0.1691919
vt 0.8768939 0.1691919
vt 0.8768939 0.3308081
vt 0.9981061 0.3308081
vt 0.9981061 0.00252527
vt 0.8768939 0.00252527
vt 0.8768939 0.1641414
vt 0.9981061 0.1641414
vt 0.7518939 0.1691919
vt 0.8731061 0.1691919
vt 0.8731061 0.3308081
vt 0.7518939 0.3308081
vt 0.7518939 0.3358586
vt 0.8731061 0.3358586
vt 0.8731061 0.4974747
vt 0.7518939 0.4974747

# Normal
vn 0 0 -1

# Mesh description
g TestCatacombs_mesh_0003

# Faces
f 1/1/1 2/2/1 3/3/1 4/4/1
f 5/1/1 6/2/1 7/3/1 8/4/1
f 9/5/1 10/6/1 11/7/1 12/8/1
f 13/6/1 14/5/1 15/8/1 16/7/1
f 17/9/1 18/10/1 19/11/1 20/12/1
f 21/10/1 22/9/1 23/12/1 24/11/1
f 25/13/1 26/14/1 27/15/1 28/16/1
f 29/14/1 30/13/1 31/16/1 32/15/1
f 33/17/1 34/18/1 35/19/1 36/20/1
f 37/18/1 38/17/1 39/20/1 40/19/1
f 41/21/1 42/22/1 43/23/1 44/24/1
f 45/25/1 46/26/1 47/27/1 48/28/1
f 49/1/1 50/2/1 51/3/1 52/4/1
f 53/21/1 54/22/1 55/23/1 56/24/1
f 57/5/1 58/6/1 59/7/1 60/8/1
f 61/6/1 62/5/1 63/8/1 64/7/1
f 65/9/1 66/10/1 67/11/1 68/12/1
f 69/10/1 70/9/1 71/12/1 72/11/1
f 73/13/1 74/14/1 75/15/1 76/16/1
f 77/14/1 78/13/1 79/16/1 80/15/1
f 81/17/1 82/18/1 83/19/1 84/20/1
f 85/18/1 86/17/1 87/20/1 88/19/1
f 89/1/1 90/2/1 91/3/1 92/4/1
f 93/21/1 94/22/1 95/23/1 96/24/1
f 97/1/1 98/2/1 99/3/1 100/4/1
f 101/25/1 102/26/1 103/27/1 104/28/1
f 105/1/1 106/2/1 107/3/1 108/4/1

