# Tiled2Unity generated file. Do not modify by hand.
# Wavefront file for 'harveysTavernUpstairs_mesh_0002.obj'

# Vertices (Count = 80)
v -22 -4 0
v -23 -4 0
v -23 -3 0
v -22 -3 0
v -21 -4 0
v -22 -4 0
v -22 -3 0
v -21 -3 0
v -20 -4 0
v -21 -4 0
v -21 -3 0
v -20 -3 0
v -22 -5 0
v -23 -5 0
v -23 -4 0
v -22 -4 0
v -21 -5 0
v -22 -5 0
v -22 -4 0
v -21 -4 0
v -20 -5 0
v -21 -5 0
v -21 -4 0
v -20 -4 0
v -14 -5 0
v -15 -5 0
v -15 -4 0
v -14 -4 0
v -9 -5 0
v -10 -5 0
v -10 -4 0
v -9 -4 0
v -4 -5 0
v -5 -5 0
v -5 -4 0
v -4 -4 0
v -22 -6 0
v -23 -6 0
v -23 -5 0
v -22 -5 0
v -21 -6 0
v -22 -6 0
v -22 -5 0
v -21 -5 0
v -20 -6 0
v -21 -6 0
v -21 -5 0
v -20 -5 0
v -18 -6 0
v -19 -6 0
v -19 -5 0
v -18 -5 0
v -14 -6 0
v -15 -6 0
v -15 -5 0
v -14 -5 0
v -9 -6 0
v -10 -6 0
v -10 -5 0
v -9 -5 0
v -4 -6 0
v -5 -6 0
v -5 -5 0
v -4 -5 0
v -18 -7 0
v -19 -7 0
v -19 -6 0
v -18 -6 0
v -18 -8 0
v -19 -8 0
v -19 -7 0
v -18 -7 0
v -18 -9 0
v -19 -9 0
v -19 -8 0
v -18 -8 0
v -18 -10 0
v -19 -10 0
v -19 -9 0
v -18 -9 0

# Texture cooridinates (Count = 20)
vt 0.8358586 0.5025252
vt 0.9974747 0.5025252
vt 0.9974747 0.6641414
vt 0.8358586 0.6641414
vt 0.5025253 0.669192
vt 0.6641414 0.669192
vt 0.6641414 0.8308081
vt 0.5025253 0.8308081
vt 0.6691919 0.3358586
vt 0.8308081 0.3358586
vt 0.8308081 0.4974747
vt 0.6691919 0.4974747
vt 0.5025253 0.5025252
vt 0.6641414 0.5025252
vt 0.6641414 0.6641414
vt 0.5025253 0.6641414
vt 0.6691919 0.1691919
vt 0.8308081 0.1691919
vt 0.8308081 0.3308081
vt 0.6691919 0.3308081

# Normal
vn 0 0 -1

# Mesh description
g harveysTavernUpstairs_mesh_0002

# Faces
f 1/1/1 2/2/1 3/3/1 4/4/1
f 5/1/1 6/2/1 7/3/1 8/4/1
f 9/1/1 10/2/1 11/3/1 12/4/1
f 13/1/1 14/2/1 15/3/1 16/4/1
f 17/1/1 18/2/1 19/3/1 20/4/1
f 21/1/1 22/2/1 23/3/1 24/4/1
f 25/5/1 26/6/1 27/7/1 28/8/1
f 29/5/1 30/6/1 31/7/1 32/8/1
f 33/5/1 34/6/1 35/7/1 36/8/1
f 37/1/1 38/2/1 39/3/1 40/4/1
f 41/1/1 42/2/1 43/3/1 44/4/1
f 45/1/1 46/2/1 47/3/1 48/4/1
f 49/9/1 50/10/1 51/11/1 52/12/1
f 53/13/1 54/14/1 55/15/1 56/16/1
f 57/13/1 58/14/1 59/15/1 60/16/1
f 61/13/1 62/14/1 63/15/1 64/16/1
f 65/17/1 66/18/1 67/19/1 68/20/1
f 69/17/1 70/18/1 71/19/1 72/20/1
f 73/17/1 74/18/1 75/19/1 76/20/1
f 77/17/1 78/18/1 79/19/1 80/20/1

