# Tiled2Unity generated file. Do not modify by hand.
# Wavefront file for 'Solomvale_mesh_0002.obj'

# Vertices (Count = 380)
v -29 -6 0
v -30 -6 0
v -30 -5 0
v -29 -5 0
v -28 -6 0
v -29 -6 0
v -29 -5 0
v -28 -5 0
v -27 -6 0
v -28 -6 0
v -28 -5 0
v -27 -5 0
v -26 -6 0
v -27 -6 0
v -27 -5 0
v -26 -5 0
v -25 -6 0
v -26 -6 0
v -26 -5 0
v -25 -5 0
v -24 -6 0
v -25 -6 0
v -25 -5 0
v -24 -5 0
v -23 -6 0
v -24 -6 0
v -24 -5 0
v -23 -5 0
v -22 -6 0
v -23 -6 0
v -23 -5 0
v -22 -5 0
v -21 -6 0
v -22 -6 0
v -22 -5 0
v -21 -5 0
v -20 -6 0
v -21 -6 0
v -21 -5 0
v -20 -5 0
v -19 -6 0
v -20 -6 0
v -20 -5 0
v -19 -5 0
v -18 -6 0
v -19 -6 0
v -19 -5 0
v -18 -5 0
v -17 -6 0
v -18 -6 0
v -18 -5 0
v -17 -5 0
v -16 -6 0
v -17 -6 0
v -17 -5 0
v -16 -5 0
v -15 -6 0
v -16 -6 0
v -16 -5 0
v -15 -5 0
v -14 -6 0
v -15 -6 0
v -15 -5 0
v -14 -5 0
v -13 -6 0
v -14 -6 0
v -14 -5 0
v -13 -5 0
v -12 -6 0
v -13 -6 0
v -13 -5 0
v -12 -5 0
v -11 -6 0
v -12 -6 0
v -12 -5 0
v -11 -5 0
v -10 -6 0
v -11 -6 0
v -11 -5 0
v -10 -5 0
v -9 -6 0
v -10 -6 0
v -10 -5 0
v -9 -5 0
v -8 -6 0
v -9 -6 0
v -9 -5 0
v -8 -5 0
v -7 -6 0
v -8 -6 0
v -8 -5 0
v -7 -5 0
v -6 -6 0
v -7 -6 0
v -7 -5 0
v -6 -5 0
v -29 -7 0
v -30 -7 0
v -30 -6 0
v -29 -6 0
v -6 -7 0
v -7 -7 0
v -7 -6 0
v -6 -6 0
v -29 -8 0
v -30 -8 0
v -30 -7 0
v -29 -7 0
v -6 -8 0
v -7 -8 0
v -7 -7 0
v -6 -7 0
v -33 -11 0
v -34 -11 0
v -34 -10 0
v -33 -10 0
v -32 -11 0
v -33 -11 0
v -33 -10 0
v -32 -10 0
v -3 -11 0
v -4 -11 0
v -4 -10 0
v -3 -10 0
v -2 -11 0
v -3 -11 0
v -3 -10 0
v -2 -10 0
v -33 -12 0
v -34 -12 0
v -34 -11 0
v -33 -11 0
v -2 -12 0
v -3 -12 0
v -3 -11 0
v -2 -11 0
v -33 -13 0
v -34 -13 0
v -34 -12 0
v -33 -12 0
v -2 -13 0
v -3 -13 0
v -3 -12 0
v -2 -12 0
v -33 -14 0
v -34 -14 0
v -34 -13 0
v -33 -13 0
v -2 -14 0
v -3 -14 0
v -3 -13 0
v -2 -13 0
v -33 -15 0
v -34 -15 0
v -34 -14 0
v -33 -14 0
v -2 -15 0
v -3 -15 0
v -3 -14 0
v -2 -14 0
v -33 -16 0
v -34 -16 0
v -34 -15 0
v -33 -15 0
v -2 -16 0
v -3 -16 0
v -3 -15 0
v -2 -15 0
v -33 -17 0
v -34 -17 0
v -34 -16 0
v -33 -16 0
v -2 -17 0
v -3 -17 0
v -3 -16 0
v -2 -16 0
v -33 -18 0
v -34 -18 0
v -34 -17 0
v -33 -17 0
v -2 -18 0
v -3 -18 0
v -3 -17 0
v -2 -17 0
v -33 -19 0
v -34 -19 0
v -34 -18 0
v -33 -18 0
v -2 -19 0
v -3 -19 0
v -3 -18 0
v -2 -18 0
v -33 -20 0
v -34 -20 0
v -34 -19 0
v -33 -19 0
v -2 -20 0
v -3 -20 0
v -3 -19 0
v -2 -19 0
v -33 -21 0
v -34 -21 0
v -34 -20 0
v -33 -20 0
v -2 -21 0
v -3 -21 0
v -3 -20 0
v -2 -20 0
v -33 -22 0
v -34 -22 0
v -34 -21 0
v -33 -21 0
v -2 -22 0
v -3 -22 0
v -3 -21 0
v -2 -21 0
v -33 -23 0
v -34 -23 0
v -34 -22 0
v -33 -22 0
v -2 -23 0
v -3 -23 0
v -3 -22 0
v -2 -22 0
v -33 -24 0
v -34 -24 0
v -34 -23 0
v -33 -23 0
v -2 -24 0
v -3 -24 0
v -3 -23 0
v -2 -23 0
v -33 -25 0
v -34 -25 0
v -34 -24 0
v -33 -24 0
v -2 -25 0
v -3 -25 0
v -3 -24 0
v -2 -24 0
v -33 -26 0
v -34 -26 0
v -34 -25 0
v -33 -25 0
v -2 -26 0
v -3 -26 0
v -3 -25 0
v -2 -25 0
v -33 -27 0
v -34 -27 0
v -34 -26 0
v -33 -26 0
v -2 -27 0
v -3 -27 0
v -3 -26 0
v -2 -26 0
v -33 -28 0
v -34 -28 0
v -34 -27 0
v -33 -27 0
v -2 -28 0
v -3 -28 0
v -3 -27 0
v -2 -27 0
v -33 -29 0
v -34 -29 0
v -34 -28 0
v -33 -28 0
v -2 -29 0
v -3 -29 0
v -3 -28 0
v -2 -28 0
v -33 -30 0
v -34 -30 0
v -34 -29 0
v -33 -29 0
v -2 -30 0
v -3 -30 0
v -3 -29 0
v -2 -29 0
v -33 -31 0
v -34 -31 0
v -34 -30 0
v -33 -30 0
v -2 -31 0
v -3 -31 0
v -3 -30 0
v -2 -30 0
v -33 -32 0
v -34 -32 0
v -34 -31 0
v -33 -31 0
v -2 -32 0
v -3 -32 0
v -3 -31 0
v -2 -31 0
v -33 -33 0
v -34 -33 0
v -34 -32 0
v -33 -32 0
v -2 -33 0
v -3 -33 0
v -3 -32 0
v -2 -32 0
v -33 -34 0
v -34 -34 0
v -34 -33 0
v -33 -33 0
v -2 -34 0
v -3 -34 0
v -3 -33 0
v -2 -33 0
v -33 -35 0
v -34 -35 0
v -34 -34 0
v -33 -34 0
v -2 -35 0
v -3 -35 0
v -3 -34 0
v -2 -34 0
v -33 -36 0
v -34 -36 0
v -34 -35 0
v -33 -35 0
v -2 -36 0
v -3 -36 0
v -3 -35 0
v -2 -35 0
v -33 -37 0
v -34 -37 0
v -34 -36 0
v -33 -36 0
v -2 -37 0
v -3 -37 0
v -3 -36 0
v -2 -36 0
v -33 -38 0
v -34 -38 0
v -34 -37 0
v -33 -37 0
v -2 -38 0
v -3 -38 0
v -3 -37 0
v -2 -37 0
v -33 -39 0
v -34 -39 0
v -34 -38 0
v -33 -38 0
v -2 -39 0
v -3 -39 0
v -3 -38 0
v -2 -38 0
v -33 -40 0
v -34 -40 0
v -34 -39 0
v -33 -39 0
v -2 -40 0
v -3 -40 0
v -3 -39 0
v -2 -39 0
v -33 -41 0
v -34 -41 0
v -34 -40 0
v -33 -40 0
v -29 -44 0
v -30 -44 0
v -30 -43 0
v -29 -43 0
v -6 -44 0
v -7 -44 0
v -7 -43 0
v -6 -43 0
v -29 -45 0
v -30 -45 0
v -30 -44 0
v -29 -44 0
v -6 -45 0
v -7 -45 0
v -7 -44 0
v -6 -44 0

# Texture cooridinates (Count = 16)
vt 0.8358586 0.5037879
vt 0.9974747 0.5037879
vt 0.9974747 0.7462121
vt 0.8358586 0.7462121
vt 0.6691919 0.5037879
vt 0.8308081 0.5037879
vt 0.8308081 0.7462121
vt 0.6691919 0.7462121
vt 0.8358586 0.2537879
vt 0.9974747 0.2537879
vt 0.9974747 0.4962121
vt 0.8358586 0.4962121
vt 0.8358586 0.003787875
vt 0.9974747 0.003787875
vt 0.9974747 0.2462121
vt 0.8358586 0.2462121

# Normal
vn 0 0 -1

# Mesh description
g Solomvale_mesh_0002

# Faces
f 1/1/1 2/2/1 3/3/1 4/4/1
f 5/5/1 6/6/1 7/7/1 8/8/1
f 9/5/1 10/6/1 11/7/1 12/8/1
f 13/5/1 14/6/1 15/7/1 16/8/1
f 17/5/1 18/6/1 19/7/1 20/8/1
f 21/5/1 22/6/1 23/7/1 24/8/1
f 25/5/1 26/6/1 27/7/1 28/8/1
f 29/5/1 30/6/1 31/7/1 32/8/1
f 33/5/1 34/6/1 35/7/1 36/8/1
f 37/5/1 38/6/1 39/7/1 40/8/1
f 41/5/1 42/6/1 43/7/1 44/8/1
f 45/5/1 46/6/1 47/7/1 48/8/1
f 49/5/1 50/6/1 51/7/1 52/8/1
f 53/5/1 54/6/1 55/7/1 56/8/1
f 57/5/1 58/6/1 59/7/1 60/8/1
f 61/5/1 62/6/1 63/7/1 64/8/1
f 65/5/1 66/6/1 67/7/1 68/8/1
f 69/5/1 70/6/1 71/7/1 72/8/1
f 73/5/1 74/6/1 75/7/1 76/8/1
f 77/5/1 78/6/1 79/7/1 80/8/1
f 81/5/1 82/6/1 83/7/1 84/8/1
f 85/5/1 86/6/1 87/7/1 88/8/1
f 89/5/1 90/6/1 91/7/1 92/8/1
f 93/2/1 94/1/1 95/4/1 96/3/1
f 97/9/1 98/10/1 99/11/1 100/12/1
f 101/10/1 102/9/1 103/12/1 104/11/1
f 105/13/1 106/14/1 107/15/1 108/16/1
f 109/14/1 110/13/1 111/16/1 112/15/1
f 113/1/1 114/2/1 115/3/1 116/4/1
f 117/5/1 118/6/1 119/7/1 120/8/1
f 121/5/1 122/6/1 123/7/1 124/8/1
f 125/2/1 126/1/1 127/4/1 128/3/1
f 129/9/1 130/10/1 131/11/1 132/12/1
f 133/10/1 134/9/1 135/12/1 136/11/1
f 137/9/1 138/10/1 139/11/1 140/12/1
f 141/10/1 142/9/1 143/12/1 144/11/1
f 145/9/1 146/10/1 147/11/1 148/12/1
f 149/10/1 150/9/1 151/12/1 152/11/1
f 153/9/1 154/10/1 155/11/1 156/12/1
f 157/10/1 158/9/1 159/12/1 160/11/1
f 161/9/1 162/10/1 163/11/1 164/12/1
f 165/10/1 166/9/1 167/12/1 168/11/1
f 169/9/1 170/10/1 171/11/1 172/12/1
f 173/10/1 174/9/1 175/12/1 176/11/1
f 177/9/1 178/10/1 179/11/1 180/12/1
f 181/10/1 182/9/1 183/12/1 184/11/1
f 185/9/1 186/10/1 187/11/1 188/12/1
f 189/10/1 190/9/1 191/12/1 192/11/1
f 193/9/1 194/10/1 195/11/1 196/12/1
f 197/10/1 198/9/1 199/12/1 200/11/1
f 201/9/1 202/10/1 203/11/1 204/12/1
f 205/10/1 206/9/1 207/12/1 208/11/1
f 209/9/1 210/10/1 211/11/1 212/12/1
f 213/10/1 214/9/1 215/12/1 216/11/1
f 217/9/1 218/10/1 219/11/1 220/12/1
f 221/10/1 222/9/1 223/12/1 224/11/1
f 225/9/1 226/10/1 227/11/1 228/12/1
f 229/10/1 230/9/1 231/12/1 232/11/1
f 233/9/1 234/10/1 235/11/1 236/12/1
f 237/10/1 238/9/1 239/12/1 240/11/1
f 241/9/1 242/10/1 243/11/1 244/12/1
f 245/10/1 246/9/1 247/12/1 248/11/1
f 249/9/1 250/10/1 251/11/1 252/12/1
f 253/10/1 254/9/1 255/12/1 256/11/1
f 257/9/1 258/10/1 259/11/1 260/12/1
f 261/10/1 262/9/1 263/12/1 264/11/1
f 265/9/1 266/10/1 267/11/1 268/12/1
f 269/10/1 270/9/1 271/12/1 272/11/1
f 273/9/1 274/10/1 275/11/1 276/12/1
f 277/10/1 278/9/1 279/12/1 280/11/1
f 281/9/1 282/10/1 283/11/1 284/12/1
f 285/10/1 286/9/1 287/12/1 288/11/1
f 289/9/1 290/10/1 291/11/1 292/12/1
f 293/10/1 294/9/1 295/12/1 296/11/1
f 297/9/1 298/10/1 299/11/1 300/12/1
f 301/10/1 302/9/1 303/12/1 304/11/1
f 305/9/1 306/10/1 307/11/1 308/12/1
f 309/10/1 310/9/1 311/12/1 312/11/1
f 313/9/1 314/10/1 315/11/1 316/12/1
f 317/10/1 318/9/1 319/12/1 320/11/1
f 321/9/1 322/10/1 323/11/1 324/12/1
f 325/10/1 326/9/1 327/12/1 328/11/1
f 329/9/1 330/10/1 331/11/1 332/12/1
f 333/10/1 334/9/1 335/12/1 336/11/1
f 337/9/1 338/10/1 339/11/1 340/12/1
f 341/10/1 342/9/1 343/12/1 344/11/1
f 345/9/1 346/10/1 347/11/1 348/12/1
f 349/10/1 350/9/1 351/12/1 352/11/1
f 353/9/1 354/10/1 355/11/1 356/12/1
f 357/10/1 358/9/1 359/12/1 360/11/1
f 361/9/1 362/10/1 363/11/1 364/12/1
f 365/9/1 366/10/1 367/11/1 368/12/1
f 369/10/1 370/9/1 371/12/1 372/11/1
f 373/9/1 374/10/1 375/11/1 376/12/1
f 377/10/1 378/9/1 379/12/1 380/11/1

