# Tiled2Unity generated file. Do not modify by hand.
# Wavefront file for 'Solomvale_mesh_0009.obj'

# Vertices (Count = 1136)
v -34 -1 0
v -35 -1 0
v -35 0 0
v -34 0 0
v -33 -1 0
v -34 -1 0
v -34 0 0
v -33 0 0
v -32 -1 0
v -33 -1 0
v -33 0 0
v -32 0 0
v -31 -1 0
v -32 -1 0
v -32 0 0
v -31 0 0
v -29 -1 0
v -30 -1 0
v -30 0 0
v -29 0 0
v -28 -1 0
v -29 -1 0
v -29 0 0
v -28 0 0
v -27 -1 0
v -28 -1 0
v -28 0 0
v -27 0 0
v -26 -1 0
v -27 -1 0
v -27 0 0
v -26 0 0
v -25 -1 0
v -26 -1 0
v -26 0 0
v -25 0 0
v -24 -1 0
v -25 -1 0
v -25 0 0
v -24 0 0
v -23 -1 0
v -24 -1 0
v -24 0 0
v -23 0 0
v -22 -1 0
v -23 -1 0
v -23 0 0
v -22 0 0
v -21 -1 0
v -22 -1 0
v -22 0 0
v -21 0 0
v -20 -1 0
v -21 -1 0
v -21 0 0
v -20 0 0
v -19 -1 0
v -20 -1 0
v -20 0 0
v -19 0 0
v -18 -1 0
v -19 -1 0
v -19 0 0
v -18 0 0
v -17 -1 0
v -18 -1 0
v -18 0 0
v -17 0 0
v -16 -1 0
v -17 -1 0
v -17 0 0
v -16 0 0
v -15 -1 0
v -16 -1 0
v -16 0 0
v -15 0 0
v -14 -1 0
v -15 -1 0
v -15 0 0
v -14 0 0
v -13 -1 0
v -14 -1 0
v -14 0 0
v -13 0 0
v -12 -1 0
v -13 -1 0
v -13 0 0
v -12 0 0
v -11 -1 0
v -12 -1 0
v -12 0 0
v -11 0 0
v -10 -1 0
v -11 -1 0
v -11 0 0
v -10 0 0
v -9 -1 0
v -10 -1 0
v -10 0 0
v -9 0 0
v -8 -1 0
v -9 -1 0
v -9 0 0
v -8 0 0
v -7 -1 0
v -8 -1 0
v -8 0 0
v -7 0 0
v -6 -1 0
v -7 -1 0
v -7 0 0
v -6 0 0
v -4 -1 0
v -5 -1 0
v -5 0 0
v -4 0 0
v -3 -1 0
v -4 -1 0
v -4 0 0
v -3 0 0
v -2 -1 0
v -3 -1 0
v -3 0 0
v -2 0 0
v -1 -1 0
v -2 -1 0
v -2 0 0
v -1 0 0
v -35 -2 0
v -36 -2 0
v -36 -1 0
v -35 -1 0
v -34 -2 0
v -35 -2 0
v -35 -1 0
v -34 -1 0
v -33 -2 0
v -34 -2 0
v -34 -1 0
v -33 -1 0
v -32 -2 0
v -33 -2 0
v -33 -1 0
v -32 -1 0
v -31 -2 0
v -32 -2 0
v -32 -1 0
v -31 -1 0
v -4 -2 0
v -5 -2 0
v -5 -1 0
v -4 -1 0
v -3 -2 0
v -4 -2 0
v -4 -1 0
v -3 -1 0
v -2 -2 0
v -3 -2 0
v -3 -1 0
v -2 -1 0
v -1 -2 0
v -2 -2 0
v -2 -1 0
v -1 -1 0
v 0 -2 0
v -1 -2 0
v -1 -1 0
v 0 -1 0
v -35 -3 0
v -36 -3 0
v -36 -2 0
v -35 -2 0
v -34 -3 0
v -35 -3 0
v -35 -2 0
v -34 -2 0
v -33 -3 0
v -34 -3 0
v -34 -2 0
v -33 -2 0
v -32 -3 0
v -33 -3 0
v -33 -2 0
v -32 -2 0
v -31 -3 0
v -32 -3 0
v -32 -2 0
v -31 -2 0
v -4 -3 0
v -5 -3 0
v -5 -2 0
v -4 -2 0
v -3 -3 0
v -4 -3 0
v -4 -2 0
v -3 -2 0
v -2 -3 0
v -3 -3 0
v -3 -2 0
v -2 -2 0
v -1 -3 0
v -2 -3 0
v -2 -2 0
v -1 -2 0
v 0 -3 0
v -1 -3 0
v -1 -2 0
v 0 -2 0
v -35 -4 0
v -36 -4 0
v -36 -3 0
v -35 -3 0
v -34 -4 0
v -35 -4 0
v -35 -3 0
v -34 -3 0
v -33 -4 0
v -34 -4 0
v -34 -3 0
v -33 -3 0
v -32 -4 0
v -33 -4 0
v -33 -3 0
v -32 -3 0
v -31 -4 0
v -32 -4 0
v -32 -3 0
v -31 -3 0
v -4 -4 0
v -5 -4 0
v -5 -3 0
v -4 -3 0
v -3 -4 0
v -4 -4 0
v -4 -3 0
v -3 -3 0
v -2 -4 0
v -3 -4 0
v -3 -3 0
v -2 -3 0
v -1 -4 0
v -2 -4 0
v -2 -3 0
v -1 -3 0
v 0 -4 0
v -1 -4 0
v -1 -3 0
v 0 -3 0
v -35 -5 0
v -36 -5 0
v -36 -4 0
v -35 -4 0
v -34 -5 0
v -35 -5 0
v -35 -4 0
v -34 -4 0
v -33 -5 0
v -34 -5 0
v -34 -4 0
v -33 -4 0
v -32 -5 0
v -33 -5 0
v -33 -4 0
v -32 -4 0
v -31 -5 0
v -32 -5 0
v -32 -4 0
v -31 -4 0
v -4 -5 0
v -5 -5 0
v -5 -4 0
v -4 -4 0
v -3 -5 0
v -4 -5 0
v -4 -4 0
v -3 -4 0
v -2 -5 0
v -3 -5 0
v -3 -4 0
v -2 -4 0
v -1 -5 0
v -2 -5 0
v -2 -4 0
v -1 -4 0
v 0 -5 0
v -1 -5 0
v -1 -4 0
v 0 -4 0
v -35 -6 0
v -36 -6 0
v -36 -5 0
v -35 -5 0
v -33 -6 0
v -34 -6 0
v -34 -5 0
v -33 -5 0
v -32 -6 0
v -33 -6 0
v -33 -5 0
v -32 -5 0
v -3 -6 0
v -4 -6 0
v -4 -5 0
v -3 -5 0
v -2 -6 0
v -3 -6 0
v -3 -5 0
v -2 -5 0
v 0 -6 0
v -1 -6 0
v -1 -5 0
v 0 -5 0
v -35 -7 0
v -36 -7 0
v -36 -6 0
v -35 -6 0
v 0 -7 0
v -1 -7 0
v -1 -6 0
v 0 -6 0
v -35 -8 0
v -36 -8 0
v -36 -7 0
v -35 -7 0
v 0 -8 0
v -1 -8 0
v -1 -7 0
v 0 -7 0
v -35 -9 0
v -36 -9 0
v -36 -8 0
v -35 -8 0
v 0 -9 0
v -1 -9 0
v -1 -8 0
v 0 -8 0
v -35 -10 0
v -36 -10 0
v -36 -9 0
v -35 -9 0
v 0 -10 0
v -1 -10 0
v -1 -9 0
v 0 -9 0
v -35 -11 0
v -36 -11 0
v -36 -10 0
v -35 -10 0
v 0 -11 0
v -1 -11 0
v -1 -10 0
v 0 -10 0
v -35 -12 0
v -36 -12 0
v -36 -11 0
v -35 -11 0
v 0 -12 0
v -1 -12 0
v -1 -11 0
v 0 -11 0
v -35 -13 0
v -36 -13 0
v -36 -12 0
v -35 -12 0
v 0 -13 0
v -1 -13 0
v -1 -12 0
v 0 -12 0
v -35 -14 0
v -36 -14 0
v -36 -13 0
v -35 -13 0
v 0 -14 0
v -1 -14 0
v -1 -13 0
v 0 -13 0
v -35 -15 0
v -36 -15 0
v -36 -14 0
v -35 -14 0
v 0 -15 0
v -1 -15 0
v -1 -14 0
v 0 -14 0
v -35 -16 0
v -36 -16 0
v -36 -15 0
v -35 -15 0
v 0 -16 0
v -1 -16 0
v -1 -15 0
v 0 -15 0
v -35 -17 0
v -36 -17 0
v -36 -16 0
v -35 -16 0
v 0 -17 0
v -1 -17 0
v -1 -16 0
v 0 -16 0
v -35 -18 0
v -36 -18 0
v -36 -17 0
v -35 -17 0
v 0 -18 0
v -1 -18 0
v -1 -17 0
v 0 -17 0
v -35 -19 0
v -36 -19 0
v -36 -18 0
v -35 -18 0
v 0 -19 0
v -1 -19 0
v -1 -18 0
v 0 -18 0
v -35 -20 0
v -36 -20 0
v -36 -19 0
v -35 -19 0
v 0 -20 0
v -1 -20 0
v -1 -19 0
v 0 -19 0
v -35 -21 0
v -36 -21 0
v -36 -20 0
v -35 -20 0
v 0 -21 0
v -1 -21 0
v -1 -20 0
v 0 -20 0
v -35 -22 0
v -36 -22 0
v -36 -21 0
v -35 -21 0
v 0 -22 0
v -1 -22 0
v -1 -21 0
v 0 -21 0
v -35 -23 0
v -36 -23 0
v -36 -22 0
v -35 -22 0
v 0 -23 0
v -1 -23 0
v -1 -22 0
v 0 -22 0
v -35 -24 0
v -36 -24 0
v -36 -23 0
v -35 -23 0
v 0 -24 0
v -1 -24 0
v -1 -23 0
v 0 -23 0
v -35 -25 0
v -36 -25 0
v -36 -24 0
v -35 -24 0
v 0 -25 0
v -1 -25 0
v -1 -24 0
v 0 -24 0
v -35 -26 0
v -36 -26 0
v -36 -25 0
v -35 -25 0
v 0 -26 0
v -1 -26 0
v -1 -25 0
v 0 -25 0
v -35 -27 0
v -36 -27 0
v -36 -26 0
v -35 -26 0
v 0 -27 0
v -1 -27 0
v -1 -26 0
v 0 -26 0
v -35 -28 0
v -36 -28 0
v -36 -27 0
v -35 -27 0
v 0 -28 0
v -1 -28 0
v -1 -27 0
v 0 -27 0
v -35 -29 0
v -36 -29 0
v -36 -28 0
v -35 -28 0
v 0 -29 0
v -1 -29 0
v -1 -28 0
v 0 -28 0
v -35 -30 0
v -36 -30 0
v -36 -29 0
v -35 -29 0
v 0 -30 0
v -1 -30 0
v -1 -29 0
v 0 -29 0
v -35 -31 0
v -36 -31 0
v -36 -30 0
v -35 -30 0
v 0 -31 0
v -1 -31 0
v -1 -30 0
v 0 -30 0
v -35 -32 0
v -36 -32 0
v -36 -31 0
v -35 -31 0
v 0 -32 0
v -1 -32 0
v -1 -31 0
v 0 -31 0
v -35 -33 0
v -36 -33 0
v -36 -32 0
v -35 -32 0
v 0 -33 0
v -1 -33 0
v -1 -32 0
v 0 -32 0
v -35 -34 0
v -36 -34 0
v -36 -33 0
v -35 -33 0
v 0 -34 0
v -1 -34 0
v -1 -33 0
v 0 -33 0
v -35 -35 0
v -36 -35 0
v -36 -34 0
v -35 -34 0
v 0 -35 0
v -1 -35 0
v -1 -34 0
v 0 -34 0
v -35 -36 0
v -36 -36 0
v -36 -35 0
v -35 -35 0
v 0 -36 0
v -1 -36 0
v -1 -35 0
v 0 -35 0
v -35 -37 0
v -36 -37 0
v -36 -36 0
v -35 -36 0
v 0 -37 0
v -1 -37 0
v -1 -36 0
v 0 -36 0
v -35 -38 0
v -36 -38 0
v -36 -37 0
v -35 -37 0
v 0 -38 0
v -1 -38 0
v -1 -37 0
v 0 -37 0
v -35 -39 0
v -36 -39 0
v -36 -38 0
v -35 -38 0
v 0 -39 0
v -1 -39 0
v -1 -38 0
v 0 -38 0
v -35 -40 0
v -36 -40 0
v -36 -39 0
v -35 -39 0
v 0 -40 0
v -1 -40 0
v -1 -39 0
v 0 -39 0
v -35 -41 0
v -36 -41 0
v -36 -40 0
v -35 -40 0
v -34 -41 0
v -35 -41 0
v -35 -40 0
v -34 -40 0
v -33 -41 0
v -34 -41 0
v -34 -40 0
v -33 -40 0
v -32 -41 0
v -33 -41 0
v -33 -40 0
v -32 -40 0
v -31 -41 0
v -32 -41 0
v -32 -40 0
v -31 -40 0
v -4 -41 0
v -5 -41 0
v -5 -40 0
v -4 -40 0
v -3 -41 0
v -4 -41 0
v -4 -40 0
v -3 -40 0
v -2 -41 0
v -3 -41 0
v -3 -40 0
v -2 -40 0
v -1 -41 0
v -2 -41 0
v -2 -40 0
v -1 -40 0
v 0 -41 0
v -1 -41 0
v -1 -40 0
v 0 -40 0
v -35 -42 0
v -36 -42 0
v -36 -41 0
v -35 -41 0
v -34 -42 0
v -35 -42 0
v -35 -41 0
v -34 -41 0
v -33 -42 0
v -34 -42 0
v -34 -41 0
v -33 -41 0
v -32 -42 0
v -33 -42 0
v -33 -41 0
v -32 -41 0
v -31 -42 0
v -32 -42 0
v -32 -41 0
v -31 -41 0
v -4 -42 0
v -5 -42 0
v -5 -41 0
v -4 -41 0
v -3 -42 0
v -4 -42 0
v -4 -41 0
v -3 -41 0
v -2 -42 0
v -3 -42 0
v -3 -41 0
v -2 -41 0
v -1 -42 0
v -2 -42 0
v -2 -41 0
v -1 -41 0
v 0 -42 0
v -1 -42 0
v -1 -41 0
v 0 -41 0
v -35 -43 0
v -36 -43 0
v -36 -42 0
v -35 -42 0
v -34 -43 0
v -35 -43 0
v -35 -42 0
v -34 -42 0
v -33 -43 0
v -34 -43 0
v -34 -42 0
v -33 -42 0
v -32 -43 0
v -33 -43 0
v -33 -42 0
v -32 -42 0
v -31 -43 0
v -32 -43 0
v -32 -42 0
v -31 -42 0
v -4 -43 0
v -5 -43 0
v -5 -42 0
v -4 -42 0
v -3 -43 0
v -4 -43 0
v -4 -42 0
v -3 -42 0
v -2 -43 0
v -3 -43 0
v -3 -42 0
v -2 -42 0
v -1 -43 0
v -2 -43 0
v -2 -42 0
v -1 -42 0
v 0 -43 0
v -1 -43 0
v -1 -42 0
v 0 -42 0
v -35 -44 0
v -36 -44 0
v -36 -43 0
v -35 -43 0
v -34 -44 0
v -35 -44 0
v -35 -43 0
v -34 -43 0
v -33 -44 0
v -34 -44 0
v -34 -43 0
v -33 -43 0
v -32 -44 0
v -33 -44 0
v -33 -43 0
v -32 -43 0
v -31 -44 0
v -32 -44 0
v -32 -43 0
v -31 -43 0
v -4 -44 0
v -5 -44 0
v -5 -43 0
v -4 -43 0
v -3 -44 0
v -4 -44 0
v -4 -43 0
v -3 -43 0
v -2 -44 0
v -3 -44 0
v -3 -43 0
v -2 -43 0
v -1 -44 0
v -2 -44 0
v -2 -43 0
v -1 -43 0
v 0 -44 0
v -1 -44 0
v -1 -43 0
v 0 -43 0
v -34 -45 0
v -35 -45 0
v -35 -44 0
v -34 -44 0
v -33 -45 0
v -34 -45 0
v -34 -44 0
v -33 -44 0
v -32 -45 0
v -33 -45 0
v -33 -44 0
v -32 -44 0
v -31 -45 0
v -32 -45 0
v -32 -44 0
v -31 -44 0
v -4 -45 0
v -5 -45 0
v -5 -44 0
v -4 -44 0
v -3 -45 0
v -4 -45 0
v -4 -44 0
v -3 -44 0
v -2 -45 0
v -3 -45 0
v -3 -44 0
v -2 -44 0
v -1 -45 0
v -2 -45 0
v -2 -44 0
v -1 -44 0
v -33 -46 0
v -34 -46 0
v -34 -45 0
v -33 -45 0
v -32 -46 0
v -33 -46 0
v -33 -45 0
v -32 -45 0
v -31 -46 0
v -32 -46 0
v -32 -45 0
v -31 -45 0
v -30 -46 0
v -31 -46 0
v -31 -45 0
v -30 -45 0
v -29 -46 0
v -30 -46 0
v -30 -45 0
v -29 -45 0
v -28 -46 0
v -29 -46 0
v -29 -45 0
v -28 -45 0
v -27 -46 0
v -28 -46 0
v -28 -45 0
v -27 -45 0
v -26 -46 0
v -27 -46 0
v -27 -45 0
v -26 -45 0
v -25 -46 0
v -26 -46 0
v -26 -45 0
v -25 -45 0
v -24 -46 0
v -25 -46 0
v -25 -45 0
v -24 -45 0
v -23 -46 0
v -24 -46 0
v -24 -45 0
v -23 -45 0
v -22 -46 0
v -23 -46 0
v -23 -45 0
v -22 -45 0
v -21 -46 0
v -22 -46 0
v -22 -45 0
v -21 -45 0
v -20 -46 0
v -21 -46 0
v -21 -45 0
v -20 -45 0
v -19 -46 0
v -20 -46 0
v -20 -45 0
v -19 -45 0
v -18 -46 0
v -19 -46 0
v -19 -45 0
v -18 -45 0
v -17 -46 0
v -18 -46 0
v -18 -45 0
v -17 -45 0
v -16 -46 0
v -17 -46 0
v -17 -45 0
v -16 -45 0
v -15 -46 0
v -16 -46 0
v -16 -45 0
v -15 -45 0
v -14 -46 0
v -15 -46 0
v -15 -45 0
v -14 -45 0
v -13 -46 0
v -14 -46 0
v -14 -45 0
v -13 -45 0
v -12 -46 0
v -13 -46 0
v -13 -45 0
v -12 -45 0
v -11 -46 0
v -12 -46 0
v -12 -45 0
v -11 -45 0
v -10 -46 0
v -11 -46 0
v -11 -45 0
v -10 -45 0
v -9 -46 0
v -10 -46 0
v -10 -45 0
v -9 -45 0
v -8 -46 0
v -9 -46 0
v -9 -45 0
v -8 -45 0
v -7 -46 0
v -8 -46 0
v -8 -45 0
v -7 -45 0
v -6 -46 0
v -7 -46 0
v -7 -45 0
v -6 -45 0
v -5 -46 0
v -6 -46 0
v -6 -45 0
v -5 -45 0
v -4 -46 0
v -5 -46 0
v -5 -45 0
v -4 -45 0
v -3 -46 0
v -4 -46 0
v -4 -45 0
v -3 -45 0
v -2 -46 0
v -3 -46 0
v -3 -45 0
v -2 -45 0
v -32 -47 0
v -33 -47 0
v -33 -46 0
v -32 -46 0
v -31 -47 0
v -32 -47 0
v -32 -46 0
v -31 -46 0
v -30 -47 0
v -31 -47 0
v -31 -46 0
v -30 -46 0
v -29 -47 0
v -30 -47 0
v -30 -46 0
v -29 -46 0
v -28 -47 0
v -29 -47 0
v -29 -46 0
v -28 -46 0
v -27 -47 0
v -28 -47 0
v -28 -46 0
v -27 -46 0
v -26 -47 0
v -27 -47 0
v -27 -46 0
v -26 -46 0
v -25 -47 0
v -26 -47 0
v -26 -46 0
v -25 -46 0
v -24 -47 0
v -25 -47 0
v -25 -46 0
v -24 -46 0
v -23 -47 0
v -24 -47 0
v -24 -46 0
v -23 -46 0
v -22 -47 0
v -23 -47 0
v -23 -46 0
v -22 -46 0
v -21 -47 0
v -22 -47 0
v -22 -46 0
v -21 -46 0
v -20 -47 0
v -21 -47 0
v -21 -46 0
v -20 -46 0
v -19 -47 0
v -20 -47 0
v -20 -46 0
v -19 -46 0
v -18 -47 0
v -19 -47 0
v -19 -46 0
v -18 -46 0
v -17 -47 0
v -18 -47 0
v -18 -46 0
v -17 -46 0
v -16 -47 0
v -17 -47 0
v -17 -46 0
v -16 -46 0
v -15 -47 0
v -16 -47 0
v -16 -46 0
v -15 -46 0
v -14 -47 0
v -15 -47 0
v -15 -46 0
v -14 -46 0
v -13 -47 0
v -14 -47 0
v -14 -46 0
v -13 -46 0
v -12 -47 0
v -13 -47 0
v -13 -46 0
v -12 -46 0
v -11 -47 0
v -12 -47 0
v -12 -46 0
v -11 -46 0
v -10 -47 0
v -11 -47 0
v -11 -46 0
v -10 -46 0
v -9 -47 0
v -10 -47 0
v -10 -46 0
v -9 -46 0
v -8 -47 0
v -9 -47 0
v -9 -46 0
v -8 -46 0
v -7 -47 0
v -8 -47 0
v -8 -46 0
v -7 -46 0
v -6 -47 0
v -7 -47 0
v -7 -46 0
v -6 -46 0
v -5 -47 0
v -6 -47 0
v -6 -46 0
v -5 -46 0
v -4 -47 0
v -5 -47 0
v -5 -46 0
v -4 -46 0
v -3 -47 0
v -4 -47 0
v -4 -46 0
v -3 -46 0
v -31 -48 0
v -32 -48 0
v -32 -47 0
v -31 -47 0
v -30 -48 0
v -31 -48 0
v -31 -47 0
v -30 -47 0
v -29 -48 0
v -30 -48 0
v -30 -47 0
v -29 -47 0
v -28 -48 0
v -29 -48 0
v -29 -47 0
v -28 -47 0
v -27 -48 0
v -28 -48 0
v -28 -47 0
v -27 -47 0
v -26 -48 0
v -27 -48 0
v -27 -47 0
v -26 -47 0
v -25 -48 0
v -26 -48 0
v -26 -47 0
v -25 -47 0
v -24 -48 0
v -25 -48 0
v -25 -47 0
v -24 -47 0
v -23 -48 0
v -24 -48 0
v -24 -47 0
v -23 -47 0
v -22 -48 0
v -23 -48 0
v -23 -47 0
v -22 -47 0
v -21 -48 0
v -22 -48 0
v -22 -47 0
v -21 -47 0
v -20 -48 0
v -21 -48 0
v -21 -47 0
v -20 -47 0
v -19 -48 0
v -20 -48 0
v -20 -47 0
v -19 -47 0
v -18 -48 0
v -19 -48 0
v -19 -47 0
v -18 -47 0
v -17 -48 0
v -18 -48 0
v -18 -47 0
v -17 -47 0
v -16 -48 0
v -17 -48 0
v -17 -47 0
v -16 -47 0
v -15 -48 0
v -16 -48 0
v -16 -47 0
v -15 -47 0
v -14 -48 0
v -15 -48 0
v -15 -47 0
v -14 -47 0
v -13 -48 0
v -14 -48 0
v -14 -47 0
v -13 -47 0
v -12 -48 0
v -13 -48 0
v -13 -47 0
v -12 -47 0
v -11 -48 0
v -12 -48 0
v -12 -47 0
v -11 -47 0
v -10 -48 0
v -11 -48 0
v -11 -47 0
v -10 -47 0
v -9 -48 0
v -10 -48 0
v -10 -47 0
v -9 -47 0
v -8 -48 0
v -9 -48 0
v -9 -47 0
v -8 -47 0
v -7 -48 0
v -8 -48 0
v -8 -47 0
v -7 -47 0
v -6 -48 0
v -7 -48 0
v -7 -47 0
v -6 -47 0
v -5 -48 0
v -6 -48 0
v -6 -47 0
v -5 -47 0
v -4 -48 0
v -5 -48 0
v -5 -47 0
v -4 -47 0

# Texture cooridinates (Count = 24)
vt 0.4030303 0.8905724
vt 0.5969697 0.8905724
vt 0.5969697 0.9983165
vt 0.4030303 0.9983165
vt 0.4030303 0.7794613
vt 0.5969697 0.7794613
vt 0.5969697 0.8872054
vt 0.4030303 0.8872054
vt 0.6030303 0.6683502
vt 0.7969697 0.6683502
vt 0.7969697 0.7760943
vt 0.6030303 0.7760943
vt 0.2030303 0.7794613
vt 0.3969697 0.7794613
vt 0.3969697 0.8872054
vt 0.2030303 0.8872054
vt 0.6030303 0.5572391
vt 0.7969697 0.5572391
vt 0.7969697 0.6649832
vt 0.6030303 0.6649832
vt 0.6030303 0.7794613
vt 0.7969697 0.7794613
vt 0.7969697 0.8872054
vt 0.6030303 0.8872054

# Normal
vn 0 0 -1

# Mesh description
g Solomvale_mesh_0009

# Faces
f 1/1/1 2/2/1 3/3/1 4/4/1
f 5/1/1 6/2/1 7/3/1 8/4/1
f 9/1/1 10/2/1 11/3/1 12/4/1
f 13/1/1 14/2/1 15/3/1 16/4/1
f 17/1/1 18/2/1 19/3/1 20/4/1
f 21/5/1 22/6/1 23/7/1 24/8/1
f 25/5/1 26/6/1 27/7/1 28/8/1
f 29/1/1 30/2/1 31/3/1 32/4/1
f 33/5/1 34/6/1 35/7/1 36/8/1
f 37/1/1 38/2/1 39/3/1 40/4/1
f 41/1/1 42/2/1 43/3/1 44/4/1
f 45/9/1 46/10/1 47/11/1 48/12/1
f 49/5/1 50/6/1 51/7/1 52/8/1
f 53/5/1 54/6/1 55/7/1 56/8/1
f 57/1/1 58/2/1 59/3/1 60/4/1
f 61/1/1 62/2/1 63/3/1 64/4/1
f 65/5/1 66/6/1 67/7/1 68/8/1
f 69/1/1 70/2/1 71/3/1 72/4/1
f 73/5/1 74/6/1 75/7/1 76/8/1
f 77/5/1 78/6/1 79/7/1 80/8/1
f 81/1/1 82/2/1 83/3/1 84/4/1
f 85/5/1 86/6/1 87/7/1 88/8/1
f 89/1/1 90/2/1 91/3/1 92/4/1
f 93/5/1 94/6/1 95/7/1 96/8/1
f 97/5/1 98/6/1 99/7/1 100/8/1
f 101/1/1 102/2/1 103/3/1 104/4/1
f 105/5/1 106/6/1 107/7/1 108/8/1
f 109/1/1 110/2/1 111/3/1 112/4/1
f 113/5/1 114/6/1 115/7/1 116/8/1
f 117/5/1 118/6/1 119/7/1 120/8/1
f 121/5/1 122/6/1 123/7/1 124/8/1
f 125/5/1 126/6/1 127/7/1 128/8/1
f 129/5/1 130/6/1 131/7/1 132/8/1
f 133/1/1 134/2/1 135/3/1 136/4/1
f 137/9/1 138/10/1 139/11/1 140/12/1
f 141/5/1 142/6/1 143/7/1 144/8/1
f 145/5/1 146/6/1 147/7/1 148/8/1
f 149/1/1 150/2/1 151/3/1 152/4/1
f 153/1/1 154/2/1 155/3/1 156/4/1
f 157/5/1 158/6/1 159/7/1 160/8/1
f 161/5/1 162/6/1 163/7/1 164/8/1
f 165/1/1 166/2/1 167/3/1 168/4/1
f 169/1/1 170/2/1 171/3/1 172/4/1
f 173/1/1 174/2/1 175/3/1 176/4/1
f 177/1/1 178/2/1 179/3/1 180/4/1
f 181/5/1 182/6/1 183/7/1 184/8/1
f 185/5/1 186/6/1 187/7/1 188/8/1
f 189/5/1 190/6/1 191/7/1 192/8/1
f 193/1/1 194/2/1 195/3/1 196/4/1
f 197/1/1 198/2/1 199/3/1 200/4/1
f 201/1/1 202/2/1 203/3/1 204/4/1
f 205/5/1 206/6/1 207/7/1 208/8/1
f 209/5/1 210/6/1 211/7/1 212/8/1
f 213/1/1 214/2/1 215/3/1 216/4/1
f 217/5/1 218/6/1 219/7/1 220/8/1
f 221/1/1 222/2/1 223/3/1 224/4/1
f 225/5/1 226/6/1 227/7/1 228/8/1
f 229/5/1 230/6/1 231/7/1 232/8/1
f 233/5/1 234/6/1 235/7/1 236/8/1
f 237/5/1 238/6/1 239/7/1 240/8/1
f 241/1/1 242/2/1 243/3/1 244/4/1
f 245/1/1 246/2/1 247/3/1 248/4/1
f 249/5/1 250/6/1 251/7/1 252/8/1
f 253/1/1 254/2/1 255/3/1 256/4/1
f 257/5/1 258/6/1 259/7/1 260/8/1
f 261/1/1 262/2/1 263/3/1 264/4/1
f 265/1/1 266/2/1 267/3/1 268/4/1
f 269/1/1 270/2/1 271/3/1 272/4/1
f 273/1/1 274/2/1 275/3/1 276/4/1
f 277/1/1 278/2/1 279/3/1 280/4/1
f 281/1/1 282/2/1 283/3/1 284/4/1
f 285/5/1 286/6/1 287/7/1 288/8/1
f 289/1/1 290/2/1 291/3/1 292/4/1
f 293/5/1 294/6/1 295/7/1 296/8/1
f 297/5/1 298/6/1 299/7/1 300/8/1
f 301/1/1 302/2/1 303/3/1 304/4/1
f 305/5/1 306/6/1 307/7/1 308/8/1
f 309/1/1 310/2/1 311/3/1 312/4/1
f 313/5/1 314/6/1 315/7/1 316/8/1
f 317/5/1 318/6/1 319/7/1 320/8/1
f 321/1/1 322/2/1 323/3/1 324/4/1
f 325/5/1 326/6/1 327/7/1 328/8/1
f 329/5/1 330/6/1 331/7/1 332/8/1
f 333/5/1 334/6/1 335/7/1 336/8/1
f 337/5/1 338/6/1 339/7/1 340/8/1
f 341/1/1 342/2/1 343/3/1 344/4/1
f 345/1/1 346/2/1 347/3/1 348/4/1
f 349/5/1 350/6/1 351/7/1 352/8/1
f 353/5/1 354/6/1 355/7/1 356/8/1
f 357/1/1 358/2/1 359/3/1 360/4/1
f 361/1/1 362/2/1 363/3/1 364/4/1
f 365/5/1 366/6/1 367/7/1 368/8/1
f 369/5/1 370/6/1 371/7/1 372/8/1
f 373/5/1 374/6/1 375/7/1 376/8/1
f 377/5/1 378/6/1 379/7/1 380/8/1
f 381/5/1 382/6/1 383/7/1 384/8/1
f 385/5/1 386/6/1 387/7/1 388/8/1
f 389/1/1 390/2/1 391/3/1 392/4/1
f 393/5/1 394/6/1 395/7/1 396/8/1
f 397/5/1 398/6/1 399/7/1 400/8/1
f 401/1/1 402/2/1 403/3/1 404/4/1
f 405/9/1 406/10/1 407/11/1 408/12/1
f 409/5/1 410/6/1 411/7/1 412/8/1
f 413/1/1 414/2/1 415/3/1 416/4/1
f 417/1/1 418/2/1 419/3/1 420/4/1
f 421/1/1 422/2/1 423/3/1 424/4/1
f 425/1/1 426/2/1 427/3/1 428/4/1
f 429/5/1 430/6/1 431/7/1 432/8/1
f 433/5/1 434/6/1 435/7/1 436/8/1
f 437/1/1 438/2/1 439/3/1 440/4/1
f 441/1/1 442/2/1 443/3/1 444/4/1
f 445/1/1 446/2/1 447/3/1 448/4/1
f 449/5/1 450/6/1 451/7/1 452/8/1
f 453/1/1 454/2/1 455/3/1 456/4/1
f 457/1/1 458/2/1 459/3/1 460/4/1
f 461/1/1 462/2/1 463/3/1 464/4/1
f 465/1/1 466/2/1 467/3/1 468/4/1
f 469/5/1 470/6/1 471/7/1 472/8/1
f 473/1/1 474/2/1 475/3/1 476/4/1
f 477/1/1 478/2/1 479/3/1 480/4/1
f 481/1/1 482/2/1 483/3/1 484/4/1
f 485/1/1 486/2/1 487/3/1 488/4/1
f 489/5/1 490/6/1 491/7/1 492/8/1
f 493/1/1 494/2/1 495/3/1 496/4/1
f 497/5/1 498/6/1 499/7/1 500/8/1
f 501/5/1 502/6/1 503/7/1 504/8/1
f 505/5/1 506/6/1 507/7/1 508/8/1
f 509/1/1 510/2/1 511/3/1 512/4/1
f 513/5/1 514/6/1 515/7/1 516/8/1
f 517/5/1 518/6/1 519/7/1 520/8/1
f 521/1/1 522/2/1 523/3/1 524/4/1
f 525/1/1 526/2/1 527/3/1 528/4/1
f 529/5/1 530/6/1 531/7/1 532/8/1
f 533/5/1 534/6/1 535/7/1 536/8/1
f 537/9/1 538/10/1 539/11/1 540/12/1
f 541/5/1 542/6/1 543/7/1 544/8/1
f 545/5/1 546/6/1 547/7/1 548/8/1
f 549/1/1 550/2/1 551/3/1 552/4/1
f 553/1/1 554/2/1 555/3/1 556/4/1
f 557/1/1 558/2/1 559/3/1 560/4/1
f 561/1/1 562/2/1 563/3/1 564/4/1
f 565/5/1 566/6/1 567/7/1 568/8/1
f 569/1/1 570/2/1 571/3/1 572/4/1
f 573/1/1 574/2/1 575/3/1 576/4/1
f 577/1/1 578/2/1 579/3/1 580/4/1
f 581/1/1 582/2/1 583/3/1 584/4/1
f 585/5/1 586/6/1 587/7/1 588/8/1
f 589/13/1 590/14/1 591/15/1 592/16/1
f 593/17/1 594/18/1 595/19/1 596/20/1
f 597/17/1 598/18/1 599/19/1 600/20/1
f 601/1/1 602/2/1 603/3/1 604/4/1
f 605/1/1 606/2/1 607/3/1 608/4/1
f 609/17/1 610/18/1 611/19/1 612/20/1
f 613/17/1 614/18/1 615/19/1 616/20/1
f 617/21/1 618/22/1 619/23/1 620/24/1
f 621/1/1 622/2/1 623/3/1 624/4/1
f 625/5/1 626/6/1 627/7/1 628/8/1
f 629/1/1 630/2/1 631/3/1 632/4/1
f 633/1/1 634/2/1 635/3/1 636/4/1
f 637/1/1 638/2/1 639/3/1 640/4/1
f 641/1/1 642/2/1 643/3/1 644/4/1
f 645/1/1 646/2/1 647/3/1 648/4/1
f 649/1/1 650/2/1 651/3/1 652/4/1
f 653/1/1 654/2/1 655/3/1 656/4/1
f 657/1/1 658/2/1 659/3/1 660/4/1
f 661/5/1 662/6/1 663/7/1 664/8/1
f 665/1/1 666/2/1 667/3/1 668/4/1
f 669/1/1 670/2/1 671/3/1 672/4/1
f 673/5/1 674/6/1 675/7/1 676/8/1
f 677/1/1 678/2/1 679/3/1 680/4/1
f 681/5/1 682/6/1 683/7/1 684/8/1
f 685/5/1 686/6/1 687/7/1 688/8/1
f 689/1/1 690/2/1 691/3/1 692/4/1
f 693/1/1 694/2/1 695/3/1 696/4/1
f 697/1/1 698/2/1 699/3/1 700/4/1
f 701/5/1 702/6/1 703/7/1 704/8/1
f 705/1/1 706/2/1 707/3/1 708/4/1
f 709/5/1 710/6/1 711/7/1 712/8/1
f 713/1/1 714/2/1 715/3/1 716/4/1
f 717/5/1 718/6/1 719/7/1 720/8/1
f 721/5/1 722/6/1 723/7/1 724/8/1
f 725/10/1 726/9/1 727/12/1 728/11/1
f 729/1/1 730/2/1 731/3/1 732/4/1
f 733/5/1 734/6/1 735/7/1 736/8/1
f 737/1/1 738/2/1 739/3/1 740/4/1
f 741/1/1 742/2/1 743/3/1 744/4/1
f 745/1/1 746/2/1 747/3/1 748/4/1
f 749/1/1 750/2/1 751/3/1 752/4/1
f 753/5/1 754/6/1 755/7/1 756/8/1
f 757/5/1 758/6/1 759/7/1 760/8/1
f 761/5/1 762/6/1 763/7/1 764/8/1
f 765/5/1 766/6/1 767/7/1 768/8/1
f 769/5/1 770/6/1 771/7/1 772/8/1
f 773/5/1 774/6/1 775/7/1 776/8/1
f 777/5/1 778/6/1 779/7/1 780/8/1
f 781/5/1 782/6/1 783/7/1 784/8/1
f 785/1/1 786/2/1 787/3/1 788/4/1
f 789/13/1 790/14/1 791/15/1 792/16/1
f 793/17/1 794/18/1 795/19/1 796/20/1
f 797/17/1 798/18/1 799/19/1 800/20/1
f 801/17/1 802/18/1 803/19/1 804/20/1
f 805/17/1 806/18/1 807/19/1 808/20/1
f 809/17/1 810/18/1 811/19/1 812/20/1
f 813/17/1 814/18/1 815/19/1 816/20/1
f 817/17/1 818/18/1 819/19/1 820/20/1
f 821/17/1 822/18/1 823/19/1 824/20/1
f 825/17/1 826/18/1 827/19/1 828/20/1
f 829/17/1 830/18/1 831/19/1 832/20/1
f 833/17/1 834/18/1 835/19/1 836/20/1
f 837/17/1 838/18/1 839/19/1 840/20/1
f 841/17/1 842/18/1 843/19/1 844/20/1
f 845/17/1 846/18/1 847/19/1 848/20/1
f 849/17/1 850/18/1 851/19/1 852/20/1
f 853/17/1 854/18/1 855/19/1 856/20/1
f 857/17/1 858/18/1 859/19/1 860/20/1
f 861/17/1 862/18/1 863/19/1 864/20/1
f 865/17/1 866/18/1 867/19/1 868/20/1
f 869/17/1 870/18/1 871/19/1 872/20/1
f 873/17/1 874/18/1 875/19/1 876/20/1
f 877/17/1 878/18/1 879/19/1 880/20/1
f 881/17/1 882/18/1 883/19/1 884/20/1
f 885/17/1 886/18/1 887/19/1 888/20/1
f 889/21/1 890/22/1 891/23/1 892/24/1
f 893/1/1 894/2/1 895/3/1 896/4/1
f 897/1/1 898/2/1 899/3/1 900/4/1
f 901/5/1 902/6/1 903/7/1 904/8/1
f 905/5/1 906/6/1 907/7/1 908/8/1
f 909/1/1 910/2/1 911/3/1 912/4/1
f 913/5/1 914/6/1 915/7/1 916/8/1
f 917/5/1 918/6/1 919/7/1 920/8/1
f 921/1/1 922/2/1 923/3/1 924/4/1
f 925/1/1 926/2/1 927/3/1 928/4/1
f 929/1/1 930/2/1 931/3/1 932/4/1
f 933/1/1 934/2/1 935/3/1 936/4/1
f 937/5/1 938/6/1 939/7/1 940/8/1
f 941/1/1 942/2/1 943/3/1 944/4/1
f 945/1/1 946/2/1 947/3/1 948/4/1
f 949/5/1 950/6/1 951/7/1 952/8/1
f 953/1/1 954/2/1 955/3/1 956/4/1
f 957/1/1 958/2/1 959/3/1 960/4/1
f 961/1/1 962/2/1 963/3/1 964/4/1
f 965/1/1 966/2/1 967/3/1 968/4/1
f 969/5/1 970/6/1 971/7/1 972/8/1
f 973/5/1 974/6/1 975/7/1 976/8/1
f 977/5/1 978/6/1 979/7/1 980/8/1
f 981/1/1 982/2/1 983/3/1 984/4/1
f 985/5/1 986/6/1 987/7/1 988/8/1
f 989/1/1 990/2/1 991/3/1 992/4/1
f 993/1/1 994/2/1 995/3/1 996/4/1
f 997/1/1 998/2/1 999/3/1 1000/4/1
f 1001/1/1 1002/2/1 1003/3/1 1004/4/1
f 1005/5/1 1006/6/1 1007/7/1 1008/8/1
f 1009/5/1 1010/6/1 1011/7/1 1012/8/1
f 1013/1/1 1014/2/1 1015/3/1 1016/4/1
f 1017/1/1 1018/2/1 1019/3/1 1020/4/1
f 1021/1/1 1022/2/1 1023/3/1 1024/4/1
f 1025/5/1 1026/6/1 1027/7/1 1028/8/1
f 1029/5/1 1030/6/1 1031/7/1 1032/8/1
f 1033/5/1 1034/6/1 1035/7/1 1036/8/1
f 1037/1/1 1038/2/1 1039/3/1 1040/4/1
f 1041/1/1 1042/2/1 1043/3/1 1044/4/1
f 1045/1/1 1046/2/1 1047/3/1 1048/4/1
f 1049/1/1 1050/2/1 1051/3/1 1052/4/1
f 1053/5/1 1054/6/1 1055/7/1 1056/8/1
f 1057/5/1 1058/6/1 1059/7/1 1060/8/1
f 1061/5/1 1062/6/1 1063/7/1 1064/8/1
f 1065/5/1 1066/6/1 1067/7/1 1068/8/1
f 1069/1/1 1070/2/1 1071/3/1 1072/4/1
f 1073/1/1 1074/2/1 1075/3/1 1076/4/1
f 1077/5/1 1078/6/1 1079/7/1 1080/8/1
f 1081/5/1 1082/6/1 1083/7/1 1084/8/1
f 1085/5/1 1086/6/1 1087/7/1 1088/8/1
f 1089/5/1 1090/6/1 1091/7/1 1092/8/1
f 1093/5/1 1094/6/1 1095/7/1 1096/8/1
f 1097/5/1 1098/6/1 1099/7/1 1100/8/1
f 1101/1/1 1102/2/1 1103/3/1 1104/4/1
f 1105/5/1 1106/6/1 1107/7/1 1108/8/1
f 1109/1/1 1110/2/1 1111/3/1 1112/4/1
f 1113/5/1 1114/6/1 1115/7/1 1116/8/1
f 1117/5/1 1118/6/1 1119/7/1 1120/8/1
f 1121/5/1 1122/6/1 1123/7/1 1124/8/1
f 1125/5/1 1126/6/1 1127/7/1 1128/8/1
f 1129/1/1 1130/2/1 1131/3/1 1132/4/1
f 1133/5/1 1134/6/1 1135/7/1 1136/8/1

