# Tiled2Unity generated file. Do not modify by hand.
# Wavefront file for 'Solomvale_mesh_0011.obj'

# Vertices (Count = 32)
v -19 -49 0
v -20 -49 0
v -20 -48 0
v -19 -48 0
v -18 -49 0
v -19 -49 0
v -19 -48 0
v -18 -48 0
v -17 -49 0
v -18 -49 0
v -18 -48 0
v -17 -48 0
v -16 -49 0
v -17 -49 0
v -17 -48 0
v -16 -48 0
v -19 -50 0
v -20 -50 0
v -20 -49 0
v -19 -49 0
v -18 -50 0
v -19 -50 0
v -19 -49 0
v -18 -49 0
v -17 -50 0
v -18 -50 0
v -18 -49 0
v -17 -49 0
v -16 -50 0
v -17 -50 0
v -17 -49 0
v -16 -49 0

# Texture cooridinates (Count = 32)
vt 0.7537879 0.7537879
vt 0.9962121 0.7537879
vt 0.9962121 0.9962121
vt 0.7537879 0.9962121
vt 0.5037879 0.7537879
vt 0.7462121 0.7537879
vt 0.7462121 0.9962121
vt 0.5037879 0.9962121
vt 0.2537879 0.7537879
vt 0.4962121 0.7537879
vt 0.4962121 0.9962121
vt 0.2537879 0.9962121
vt 0.003787879 0.7537879
vt 0.2462121 0.7537879
vt 0.2462121 0.9962121
vt 0.003787879 0.9962121
vt 0.7537879 0.5037879
vt 0.9962121 0.5037879
vt 0.9962121 0.7462121
vt 0.7537879 0.7462121
vt 0.5037879 0.5037879
vt 0.7462121 0.5037879
vt 0.7462121 0.7462121
vt 0.5037879 0.7462121
vt 0.2537879 0.5037879
vt 0.4962121 0.5037879
vt 0.4962121 0.7462121
vt 0.2537879 0.7462121
vt 0.003787879 0.5037879
vt 0.2462121 0.5037879
vt 0.2462121 0.7462121
vt 0.003787879 0.7462121

# Normal
vn 0 0 -1

# Mesh description
g Solomvale_mesh_0011

# Faces
f 1/1/1 2/2/1 3/3/1 4/4/1
f 5/5/1 6/6/1 7/7/1 8/8/1
f 9/9/1 10/10/1 11/11/1 12/12/1
f 13/13/1 14/14/1 15/15/1 16/16/1
f 17/17/1 18/18/1 19/19/1 20/20/1
f 21/21/1 22/22/1 23/23/1 24/24/1
f 25/25/1 26/26/1 27/27/1 28/28/1
f 29/29/1 30/30/1 31/31/1 32/32/1

