# Tiled2Unity generated file. Do not modify by hand.
# Wavefront file for 'Solomvale_mesh_0013.obj'

# Vertices (Count = 240)
v -23 -1 0
v -24 -1 0
v -24 0 0
v -23 0 0
v -22 -1 0
v -23 -1 0
v -23 0 0
v -22 0 0
v -21 -1 0
v -22 -1 0
v -22 0 0
v -21 0 0
v -14 -1 0
v -15 -1 0
v -15 0 0
v -14 0 0
v -13 -1 0
v -14 -1 0
v -14 0 0
v -13 0 0
v -12 -1 0
v -13 -1 0
v -13 0 0
v -12 0 0
v -23 -2 0
v -24 -2 0
v -24 -1 0
v -23 -1 0
v -22 -2 0
v -23 -2 0
v -23 -1 0
v -22 -1 0
v -21 -2 0
v -22 -2 0
v -22 -1 0
v -21 -1 0
v -14 -2 0
v -15 -2 0
v -15 -1 0
v -14 -1 0
v -13 -2 0
v -14 -2 0
v -14 -1 0
v -13 -1 0
v -12 -2 0
v -13 -2 0
v -13 -1 0
v -12 -1 0
v -23 -3 0
v -24 -3 0
v -24 -2 0
v -23 -2 0
v -22 -3 0
v -23 -3 0
v -23 -2 0
v -22 -2 0
v -21 -3 0
v -22 -3 0
v -22 -2 0
v -21 -2 0
v -14 -3 0
v -15 -3 0
v -15 -2 0
v -14 -2 0
v -13 -3 0
v -14 -3 0
v -14 -2 0
v -13 -2 0
v -12 -3 0
v -13 -3 0
v -13 -2 0
v -12 -2 0
v -23 -4 0
v -24 -4 0
v -24 -3 0
v -23 -3 0
v -22 -4 0
v -23 -4 0
v -23 -3 0
v -22 -3 0
v -19 -4 0
v -20 -4 0
v -20 -3 0
v -19 -3 0
v -18 -4 0
v -19 -4 0
v -19 -3 0
v -18 -3 0
v -17 -4 0
v -18 -4 0
v -18 -3 0
v -17 -3 0
v -16 -4 0
v -17 -4 0
v -17 -3 0
v -16 -3 0
v -13 -4 0
v -14 -4 0
v -14 -3 0
v -13 -3 0
v -12 -4 0
v -13 -4 0
v -13 -3 0
v -12 -3 0
v -23 -5 0
v -24 -5 0
v -24 -4 0
v -23 -4 0
v -22 -5 0
v -23 -5 0
v -23 -4 0
v -22 -4 0
v -21 -5 0
v -22 -5 0
v -22 -4 0
v -21 -4 0
v -14 -5 0
v -15 -5 0
v -15 -4 0
v -14 -4 0
v -13 -5 0
v -14 -5 0
v -14 -4 0
v -13 -4 0
v -12 -5 0
v -13 -5 0
v -13 -4 0
v -12 -4 0
v -22 -6 0
v -23 -6 0
v -23 -5 0
v -22 -5 0
v -13 -6 0
v -14 -6 0
v -14 -5 0
v -13 -5 0
v -18 -7 0
v -19 -7 0
v -19 -6 0
v -18 -6 0
v -17 -7 0
v -18 -7 0
v -18 -6 0
v -17 -6 0
v -19 -8 0
v -20 -8 0
v -20 -7 0
v -19 -7 0
v -18 -8 0
v -19 -8 0
v -19 -7 0
v -18 -7 0
v -17 -8 0
v -18 -8 0
v -18 -7 0
v -17 -7 0
v -16 -8 0
v -17 -8 0
v -17 -7 0
v -16 -7 0
v -7 -14 0
v -8 -14 0
v -8 -13 0
v -7 -13 0
v -8 -15 0
v -9 -15 0
v -9 -14 0
v -8 -14 0
v -7 -15 0
v -8 -15 0
v -8 -14 0
v -7 -14 0
v -6 -15 0
v -7 -15 0
v -7 -14 0
v -6 -14 0
v -24 -20 0
v -25 -20 0
v -25 -19 0
v -24 -19 0
v -23 -20 0
v -24 -20 0
v -24 -19 0
v -23 -19 0
v -22 -20 0
v -23 -20 0
v -23 -19 0
v -22 -19 0
v -24 -21 0
v -25 -21 0
v -25 -20 0
v -24 -20 0
v -23 -21 0
v -24 -21 0
v -24 -20 0
v -23 -20 0
v -22 -21 0
v -23 -21 0
v -23 -20 0
v -22 -20 0
v -24 -22 0
v -25 -22 0
v -25 -21 0
v -24 -21 0
v -23 -22 0
v -24 -22 0
v -24 -21 0
v -23 -21 0
v -22 -22 0
v -23 -22 0
v -23 -21 0
v -22 -21 0
v -24 -23 0
v -25 -23 0
v -25 -22 0
v -24 -22 0
v -23 -23 0
v -24 -23 0
v -24 -22 0
v -23 -22 0
v -22 -23 0
v -23 -23 0
v -23 -22 0
v -22 -22 0
v -24 -24 0
v -25 -24 0
v -25 -23 0
v -24 -23 0
v -23 -24 0
v -24 -24 0
v -24 -23 0
v -23 -23 0
v -22 -24 0
v -23 -24 0
v -23 -23 0
v -22 -23 0
v -23 -25 0
v -24 -25 0
v -24 -24 0
v -23 -24 0

# Texture cooridinates (Count = 112)
vt 0.6641414 0.669192
vt 0.5025253 0.669192
vt 0.5025253 0.8308081
vt 0.6641414 0.8308081
vt 0.8308081 0.669192
vt 0.6691919 0.669192
vt 0.6691919 0.8308081
vt 0.8308081 0.8308081
vt 0.6641414 0.5025252
vt 0.5025253 0.5025252
vt 0.5025253 0.6641414
vt 0.6641414 0.6641414
vt 0.8308081 0.5025252
vt 0.6691919 0.5025252
vt 0.6691919 0.6641414
vt 0.8308081 0.6641414
vt 0.8358586 0.3358586
vt 0.9974747 0.3358586
vt 0.9974747 0.4974747
vt 0.8358586 0.4974747
vt 0.6691919 0.3358586
vt 0.8308081 0.3358586
vt 0.8308081 0.4974747
vt 0.6691919 0.4974747
vt 0.5025253 0.3358586
vt 0.6641414 0.3358586
vt 0.6641414 0.4974747
vt 0.5025253 0.4974747
vt 0.3358586 0.1691919
vt 0.4974748 0.1691919
vt 0.4974748 0.3308081
vt 0.3358586 0.3308081
vt 0.8358586 0.1691919
vt 0.9974747 0.1691919
vt 0.9974747 0.3308081
vt 0.8358586 0.3308081
vt 0.002525253 0.1691919
vt 0.1641414 0.1691919
vt 0.1641414 0.3308081
vt 0.002525253 0.3308081
vt 0.8358586 0.00252527
vt 0.9974747 0.00252527
vt 0.9974747 0.1641414
vt 0.8358586 0.1641414
vt 0.002525253 0.00252527
vt 0.1641414 0.00252527
vt 0.1641414 0.1641414
vt 0.002525253 0.1641414
vt 0.3358586 0.00252527
vt 0.4974748 0.00252527
vt 0.4974748 0.1641414
vt 0.3358586 0.1641414
vt 0.8358586 0.8358586
vt 0.9974747 0.8358586
vt 0.9974747 0.9974747
vt 0.8358586 0.9974747
vt 0.5025253 0.8358586
vt 0.6641414 0.8358586
vt 0.6641414 0.9974747
vt 0.5025253 0.9974747
vt 0.5025253 0.1691919
vt 0.6641414 0.1691919
vt 0.6641414 0.3308081
vt 0.5025253 0.3308081
vt 0.5025253 0.00252527
vt 0.6641414 0.00252527
vt 0.6641414 0.1641414
vt 0.5025253 0.1641414
vt 0.3358586 0.8358586
vt 0.4974748 0.8358586
vt 0.4974748 0.9974747
vt 0.3358586 0.9974747
vt 0.1691919 0.8358586
vt 0.3308081 0.8358586
vt 0.3308081 0.9974747
vt 0.1691919 0.9974747
vt 0.002525253 0.8358586
vt 0.1641414 0.8358586
vt 0.1641414 0.9974747
vt 0.002525253 0.9974747
vt 0.3358586 0.669192
vt 0.4974748 0.669192
vt 0.4974748 0.8308081
vt 0.3358586 0.8308081
vt 0.1691919 0.669192
vt 0.3308081 0.669192
vt 0.3308081 0.8308081
vt 0.1691919 0.8308081
vt 0.002525253 0.669192
vt 0.1641414 0.669192
vt 0.1641414 0.8308081
vt 0.002525253 0.8308081
vt 0.3358586 0.5025252
vt 0.4974748 0.5025252
vt 0.4974748 0.6641414
vt 0.3358586 0.6641414
vt 0.1691919 0.5025252
vt 0.3308081 0.5025252
vt 0.3308081 0.6641414
vt 0.1691919 0.6641414
vt 0.002525253 0.5025252
vt 0.1641414 0.5025252
vt 0.1641414 0.6641414
vt 0.002525253 0.6641414
vt 0.3358586 0.3358586
vt 0.4974748 0.3358586
vt 0.4974748 0.4974747
vt 0.3358586 0.4974747
vt 0.002525253 0.3358586
vt 0.1641414 0.3358586
vt 0.1641414 0.4974747
vt 0.002525253 0.4974747

# Normal
vn 0 0 -1

# Mesh description
g Solomvale_mesh_0013

# Faces
f 1/1/1 2/2/1 3/3/1 4/4/1
f 5/5/1 6/6/1 7/7/1 8/8/1
f 9/2/1 10/1/1 11/4/1 12/3/1
f 13/1/1 14/2/1 15/3/1 16/4/1
f 17/5/1 18/6/1 19/7/1 20/8/1
f 21/2/1 22/1/1 23/4/1 24/3/1
f 25/9/1 26/10/1 27/11/1 28/12/1
f 29/13/1 30/14/1 31/15/1 32/16/1
f 33/10/1 34/9/1 35/12/1 36/11/1
f 37/9/1 38/10/1 39/11/1 40/12/1
f 41/14/1 42/13/1 43/16/1 44/15/1
f 45/10/1 46/9/1 47/12/1 48/11/1
f 49/17/1 50/18/1 51/19/1 52/20/1
f 53/21/1 54/22/1 55/23/1 56/24/1
f 57/25/1 58/26/1 59/27/1 60/28/1
f 61/17/1 62/18/1 63/19/1 64/20/1
f 65/21/1 66/22/1 67/23/1 68/24/1
f 69/25/1 70/26/1 71/27/1 72/28/1
f 73/29/1 74/30/1 75/31/1 76/32/1
f 77/33/1 78/34/1 79/35/1 80/36/1
f 81/1/1 82/2/1 83/3/1 84/4/1
f 85/6/1 86/5/1 87/8/1 88/7/1
f 89/5/1 90/6/1 91/7/1 92/8/1
f 93/2/1 94/1/1 95/4/1 96/3/1
f 97/33/1 98/34/1 99/35/1 100/36/1
f 101/37/1 102/38/1 103/39/1 104/40/1
f 105/29/1 106/30/1 107/31/1 108/32/1
f 109/41/1 110/42/1 111/43/1 112/44/1
f 113/45/1 114/46/1 115/47/1 116/48/1
f 117/49/1 118/50/1 119/51/1 120/52/1
f 121/41/1 122/42/1 123/43/1 124/44/1
f 125/37/1 126/38/1 127/39/1 128/40/1
f 129/53/1 130/54/1 131/55/1 132/56/1
f 133/57/1 134/58/1 135/59/1 136/60/1
f 137/33/1 138/34/1 139/35/1 140/36/1
f 141/33/1 142/34/1 143/35/1 144/36/1
f 145/49/1 146/50/1 147/51/1 148/52/1
f 149/41/1 150/42/1 151/43/1 152/44/1
f 153/41/1 154/42/1 155/43/1 156/44/1
f 157/45/1 158/46/1 159/47/1 160/48/1
f 161/61/1 162/62/1 163/63/1 164/64/1
f 165/49/1 166/50/1 167/51/1 168/52/1
f 169/65/1 170/66/1 171/67/1 172/68/1
f 173/45/1 174/46/1 175/47/1 176/48/1
f 177/69/1 178/70/1 179/71/1 180/72/1
f 181/73/1 182/74/1 183/75/1 184/76/1
f 185/77/1 186/78/1 187/79/1 188/80/1
f 189/81/1 190/82/1 191/83/1 192/84/1
f 193/85/1 194/86/1 195/87/1 196/88/1
f 197/89/1 198/90/1 199/91/1 200/92/1
f 201/93/1 202/94/1 203/95/1 204/96/1
f 205/97/1 206/98/1 207/99/1 208/100/1
f 209/101/1 210/102/1 211/103/1 212/104/1
f 213/105/1 214/106/1 215/107/1 216/108/1
f 217/33/1 218/34/1 219/35/1 220/36/1
f 221/109/1 222/110/1 223/111/1 224/112/1
f 225/49/1 226/50/1 227/51/1 228/52/1
f 229/41/1 230/42/1 231/43/1 232/44/1
f 233/37/1 234/38/1 235/39/1 236/40/1
f 237/57/1 238/58/1 239/59/1 240/60/1

