# Tiled2Unity generated file. Do not modify by hand.
# Wavefront file for 'SolomvaleHouse3_mesh_0006.obj'

# Vertices (Count = 16)
v -7 -15 0
v -8 -15 0
v -8 -14 0
v -7 -14 0
v -8 -15 0
v -9 -15 0
v -9 -14 0
v -8 -14 0
v -9 -15 0
v -10 -15 0
v -10 -14 0
v -9 -14 0
v -10 -15 0
v -11 -15 0
v -11 -14 0
v -10 -14 0

# Texture cooridinates (Count = 4)
vt 0.01515152 0.0151515
vt 0.9848485 0.0151515
vt 0.9848485 0.9848485
vt 0.01515152 0.9848485

# Normal
vn 0 0 -1

# Mesh description
g SolomvaleHouse3_mesh_0006

# Faces
f 1/1/1 2/2/1 3/3/1 4/4/1
f 5/1/1 6/2/1 7/3/1 8/4/1
f 9/1/1 10/2/1 11/3/1 12/4/1
f 13/1/1 14/2/1 15/3/1 16/4/1

