# Tiled2Unity generated file. Do not modify by hand.
# Wavefront file for 'SolomvaleHouse3_mesh_0007.obj'

# Vertices (Count = 220)
v -1 -1 0
v -2 -1 0
v -2 0 0
v -1 0 0
v -2 -1 0
v -3 -1 0
v -3 0 0
v -2 0 0
v -3 -1 0
v -4 -1 0
v -4 0 0
v -3 0 0
v -4 -1 0
v -5 -1 0
v -5 0 0
v -4 0 0
v -5 -1 0
v -6 -1 0
v -6 0 0
v -5 0 0
v -6 -1 0
v -7 -1 0
v -7 0 0
v -6 0 0
v -7 -1 0
v -8 -1 0
v -8 0 0
v -7 0 0
v -8 -1 0
v -9 -1 0
v -9 0 0
v -8 0 0
v -9 -1 0
v -10 -1 0
v -10 0 0
v -9 0 0
v -10 -1 0
v -11 -1 0
v -11 0 0
v -10 0 0
v -11 -1 0
v -12 -1 0
v -12 0 0
v -11 0 0
v -12 -1 0
v -13 -1 0
v -13 0 0
v -12 0 0
v -13 -1 0
v -14 -1 0
v -14 0 0
v -13 0 0
v -14 -1 0
v -15 -1 0
v -15 0 0
v -14 0 0
v -15 -1 0
v -16 -1 0
v -16 0 0
v -15 0 0
v -16 -1 0
v -17 -1 0
v -17 0 0
v -16 0 0
v 0 -2 0
v -1 -2 0
v -1 -1 0
v 0 -1 0
v -17 -2 0
v -18 -2 0
v -18 -1 0
v -17 -1 0
v 0 -3 0
v -1 -3 0
v -1 -2 0
v 0 -2 0
v -17 -3 0
v -18 -3 0
v -18 -2 0
v -17 -2 0
v 0 -4 0
v -1 -4 0
v -1 -3 0
v 0 -3 0
v -17 -4 0
v -18 -4 0
v -18 -3 0
v -17 -3 0
v 0 -5 0
v -1 -5 0
v -1 -4 0
v 0 -4 0
v -17 -5 0
v -18 -5 0
v -18 -4 0
v -17 -4 0
v 0 -6 0
v -1 -6 0
v -1 -5 0
v 0 -5 0
v -17 -6 0
v -18 -6 0
v -18 -5 0
v -17 -5 0
v 0 -7 0
v -1 -7 0
v -1 -6 0
v 0 -6 0
v -17 -7 0
v -18 -7 0
v -18 -6 0
v -17 -6 0
v 0 -8 0
v -1 -8 0
v -1 -7 0
v 0 -7 0
v -17 -8 0
v -18 -8 0
v -18 -7 0
v -17 -7 0
v 0 -9 0
v -1 -9 0
v -1 -8 0
v 0 -8 0
v -17 -9 0
v -18 -9 0
v -18 -8 0
v -17 -8 0
v 0 -10 0
v -1 -10 0
v -1 -9 0
v 0 -9 0
v -17 -10 0
v -18 -10 0
v -18 -9 0
v -17 -9 0
v 0 -11 0
v -1 -11 0
v -1 -10 0
v 0 -10 0
v -17 -11 0
v -18 -11 0
v -18 -10 0
v -17 -10 0
v -17 -12 0
v -18 -12 0
v -18 -11 0
v -17 -11 0
v 0 -13 0
v -1 -13 0
v -1 -12 0
v 0 -12 0
v -1 -13 0
v -2 -13 0
v -2 -12 0
v -1 -12 0
v -16 -13 0
v -17 -13 0
v -17 -12 0
v -16 -12 0
v -17 -13 0
v -18 -13 0
v -18 -12 0
v -17 -12 0
v -3 -14 0
v -4 -14 0
v -4 -13 0
v -3 -13 0
v -4 -14 0
v -5 -14 0
v -5 -13 0
v -4 -13 0
v -5 -14 0
v -6 -14 0
v -6 -13 0
v -5 -13 0
v -6 -14 0
v -7 -14 0
v -7 -13 0
v -6 -13 0
v -7 -14 0
v -8 -14 0
v -8 -13 0
v -7 -13 0
v -8 -14 0
v -9 -14 0
v -9 -13 0
v -8 -13 0
v -9 -14 0
v -10 -14 0
v -10 -13 0
v -9 -13 0
v -10 -14 0
v -11 -14 0
v -11 -13 0
v -10 -13 0
v -11 -14 0
v -12 -14 0
v -12 -13 0
v -11 -13 0
v -12 -14 0
v -13 -14 0
v -13 -13 0
v -12 -13 0
v -15 -14 0
v -16 -14 0
v -16 -13 0
v -15 -13 0
v -16 -14 0
v -17 -14 0
v -17 -13 0
v -16 -13 0
v -12 -15 0
v -13 -15 0
v -13 -14 0
v -12 -14 0
v -15 -15 0
v -16 -15 0
v -16 -14 0
v -15 -14 0

# Texture cooridinates (Count = 16)
vt 0.002525253 0.8358586
vt 0.1641414 0.8358586
vt 0.1641414 0.9974747
vt 0.002525253 0.9974747
vt 0.1691919 0.8358586
vt 0.3308081 0.8358586
vt 0.3308081 0.9974747
vt 0.1691919 0.9974747
vt 0.5025253 0.8358586
vt 0.6641414 0.8358586
vt 0.6641414 0.9974747
vt 0.5025253 0.9974747
vt 0.3358586 0.9974747
vt 0.4974748 0.9974747
vt 0.4974748 0.8358586
vt 0.3358586 0.8358586

# Normal
vn 0 0 -1

# Mesh description
g SolomvaleHouse3_mesh_0007

# Faces
f 1/1/1 2/2/1 3/3/1 4/4/1
f 5/5/1 6/6/1 7/7/1 8/8/1
f 9/5/1 10/6/1 11/7/1 12/8/1
f 13/5/1 14/6/1 15/7/1 16/8/1
f 17/5/1 18/6/1 19/7/1 20/8/1
f 21/5/1 22/6/1 23/7/1 24/8/1
f 25/5/1 26/6/1 27/7/1 28/8/1
f 29/5/1 30/6/1 31/7/1 32/8/1
f 33/5/1 34/6/1 35/7/1 36/8/1
f 37/5/1 38/6/1 39/7/1 40/8/1
f 41/5/1 42/6/1 43/7/1 44/8/1
f 45/5/1 46/6/1 47/7/1 48/8/1
f 49/5/1 50/6/1 51/7/1 52/8/1
f 53/5/1 54/6/1 55/7/1 56/8/1
f 57/5/1 58/6/1 59/7/1 60/8/1
f 61/2/1 62/1/1 63/4/1 64/3/1
f 65/3/1 66/2/1 67/1/1 68/4/1
f 69/2/1 70/3/1 71/4/1 72/1/1
f 73/8/1 74/5/1 75/6/1 76/7/1
f 77/6/1 78/7/1 79/8/1 80/5/1
f 81/8/1 82/5/1 83/6/1 84/7/1
f 85/6/1 86/7/1 87/8/1 88/5/1
f 89/8/1 90/5/1 91/6/1 92/7/1
f 93/6/1 94/7/1 95/8/1 96/5/1
f 97/8/1 98/5/1 99/6/1 100/7/1
f 101/6/1 102/7/1 103/8/1 104/5/1
f 105/8/1 106/5/1 107/6/1 108/7/1
f 109/6/1 110/7/1 111/8/1 112/5/1
f 113/8/1 114/5/1 115/6/1 116/7/1
f 117/6/1 118/7/1 119/8/1 120/5/1
f 121/8/1 122/5/1 123/6/1 124/7/1
f 125/6/1 126/7/1 127/8/1 128/5/1
f 129/8/1 130/5/1 131/6/1 132/7/1
f 133/6/1 134/7/1 135/8/1 136/5/1
f 137/8/1 138/5/1 139/6/1 140/7/1
f 141/6/1 142/7/1 143/8/1 144/5/1
f 145/6/1 146/7/1 147/8/1 148/5/1
f 149/4/1 150/1/1 151/2/1 152/3/1
f 153/9/1 154/10/1 155/11/1 156/12/1
f 157/10/1 158/9/1 159/12/1 160/11/1
f 161/1/1 162/4/1 163/3/1 164/2/1
f 165/8/1 166/7/1 167/6/1 168/5/1
f 169/8/1 170/7/1 171/6/1 172/5/1
f 173/7/1 174/8/1 175/5/1 176/6/1
f 177/7/1 178/8/1 179/5/1 180/6/1
f 181/8/1 182/7/1 183/6/1 184/5/1
f 185/8/1 186/7/1 187/6/1 188/5/1
f 189/8/1 190/7/1 191/6/1 192/5/1
f 193/8/1 194/7/1 195/6/1 196/5/1
f 197/8/1 198/7/1 199/6/1 200/5/1
f 201/13/1 202/14/1 203/15/1 204/16/1
f 205/14/1 206/13/1 207/16/1 208/15/1
f 209/3/1 210/4/1 211/1/1 212/2/1
f 213/7/1 214/6/1 215/5/1 216/8/1
f 217/6/1 218/7/1 219/8/1 220/5/1

