# Tiled2Unity generated file. Do not modify by hand.
# Wavefront file for 'SolomvaleHouse1_mesh_0004.obj'

# Vertices (Count = 16)
v -5 -3 0
v -6 -3 0
v -6 -2 0
v -5 -2 0
v -16 -3 0
v -17 -3 0
v -17 -2 0
v -16 -2 0
v -5 -4 0
v -6 -4 0
v -6 -3 0
v -5 -3 0
v -16 -4 0
v -17 -4 0
v -17 -3 0
v -16 -3 0

# Texture cooridinates (Count = 8)
vt 0.6691919 0.8358586
vt 0.8308081 0.8358586
vt 0.8308081 0.9974747
vt 0.6691919 0.9974747
vt 0.8358586 0.8358586
vt 0.9974747 0.8358586
vt 0.9974747 0.9974747
vt 0.8358586 0.9974747

# Normal
vn 0 0 -1

# Mesh description
g SolomvaleHouse1_mesh_0004

# Faces
f 1/1/1 2/2/1 3/3/1 4/4/1
f 5/1/1 6/2/1 7/3/1 8/4/1
f 9/5/1 10/6/1 11/7/1 12/8/1
f 13/5/1 14/6/1 15/7/1 16/8/1

