# Tiled2Unity generated file. Do not modify by hand.
# Wavefront file for 'SolomvaleHouse1_mesh_0003.obj'

# Vertices (Count = 240)
v -1 -2 0
v -2 -2 0
v -2 -1 0
v -1 -1 0
v -2 -2 0
v -3 -2 0
v -3 -1 0
v -2 -1 0
v -3 -2 0
v -4 -2 0
v -4 -1 0
v -3 -1 0
v -4 -2 0
v -5 -2 0
v -5 -1 0
v -4 -1 0
v -5 -2 0
v -6 -2 0
v -6 -1 0
v -5 -1 0
v -6 -2 0
v -7 -2 0
v -7 -1 0
v -6 -1 0
v -7 -2 0
v -8 -2 0
v -8 -1 0
v -7 -1 0
v -8 -2 0
v -9 -2 0
v -9 -1 0
v -8 -1 0
v -9 -2 0
v -10 -2 0
v -10 -1 0
v -9 -1 0
v -12 -2 0
v -13 -2 0
v -13 -1 0
v -12 -1 0
v -13 -2 0
v -14 -2 0
v -14 -1 0
v -13 -1 0
v -14 -2 0
v -15 -2 0
v -15 -1 0
v -14 -1 0
v -15 -2 0
v -16 -2 0
v -16 -1 0
v -15 -1 0
v -16 -2 0
v -17 -2 0
v -17 -1 0
v -16 -1 0
v -17 -2 0
v -18 -2 0
v -18 -1 0
v -17 -1 0
v -18 -2 0
v -19 -2 0
v -19 -1 0
v -18 -1 0
v -19 -2 0
v -20 -2 0
v -20 -1 0
v -19 -1 0
v -20 -2 0
v -21 -2 0
v -21 -1 0
v -20 -1 0
v -1 -3 0
v -2 -3 0
v -2 -2 0
v -1 -2 0
v -2 -3 0
v -3 -3 0
v -3 -2 0
v -2 -2 0
v -3 -3 0
v -4 -3 0
v -4 -2 0
v -3 -2 0
v -4 -3 0
v -5 -3 0
v -5 -2 0
v -4 -2 0
v -5 -3 0
v -6 -3 0
v -6 -2 0
v -5 -2 0
v -6 -3 0
v -7 -3 0
v -7 -2 0
v -6 -2 0
v -7 -3 0
v -8 -3 0
v -8 -2 0
v -7 -2 0
v -8 -3 0
v -9 -3 0
v -9 -2 0
v -8 -2 0
v -9 -3 0
v -10 -3 0
v -10 -2 0
v -9 -2 0
v -12 -3 0
v -13 -3 0
v -13 -2 0
v -12 -2 0
v -13 -3 0
v -14 -3 0
v -14 -2 0
v -13 -2 0
v -14 -3 0
v -15 -3 0
v -15 -2 0
v -14 -2 0
v -15 -3 0
v -16 -3 0
v -16 -2 0
v -15 -2 0
v -16 -3 0
v -17 -3 0
v -17 -2 0
v -16 -2 0
v -17 -3 0
v -18 -3 0
v -18 -2 0
v -17 -2 0
v -18 -3 0
v -19 -3 0
v -19 -2 0
v -18 -2 0
v -19 -3 0
v -20 -3 0
v -20 -2 0
v -19 -2 0
v -20 -3 0
v -21 -3 0
v -21 -2 0
v -20 -2 0
v -1 -4 0
v -2 -4 0
v -2 -3 0
v -1 -3 0
v -2 -4 0
v -3 -4 0
v -3 -3 0
v -2 -3 0
v -3 -4 0
v -4 -4 0
v -4 -3 0
v -3 -3 0
v -4 -4 0
v -5 -4 0
v -5 -3 0
v -4 -3 0
v -5 -4 0
v -6 -4 0
v -6 -3 0
v -5 -3 0
v -6 -4 0
v -7 -4 0
v -7 -3 0
v -6 -3 0
v -7 -4 0
v -8 -4 0
v -8 -3 0
v -7 -3 0
v -8 -4 0
v -9 -4 0
v -9 -3 0
v -8 -3 0
v -9 -4 0
v -10 -4 0
v -10 -3 0
v -9 -3 0
v -12 -4 0
v -13 -4 0
v -13 -3 0
v -12 -3 0
v -13 -4 0
v -14 -4 0
v -14 -3 0
v -13 -3 0
v -14 -4 0
v -15 -4 0
v -15 -3 0
v -14 -3 0
v -15 -4 0
v -16 -4 0
v -16 -3 0
v -15 -3 0
v -16 -4 0
v -17 -4 0
v -17 -3 0
v -16 -3 0
v -17 -4 0
v -18 -4 0
v -18 -3 0
v -17 -3 0
v -18 -4 0
v -19 -4 0
v -19 -3 0
v -18 -3 0
v -19 -4 0
v -20 -4 0
v -20 -3 0
v -19 -3 0
v -20 -4 0
v -21 -4 0
v -21 -3 0
v -20 -3 0
v -10 -9 0
v -11 -9 0
v -11 -8 0
v -10 -8 0
v -11 -9 0
v -12 -9 0
v -12 -8 0
v -11 -8 0
v -10 -10 0
v -11 -10 0
v -11 -9 0
v -10 -9 0
v -11 -10 0
v -12 -10 0
v -12 -9 0
v -11 -9 0
v -10 -11 0
v -11 -11 0
v -11 -10 0
v -10 -10 0
v -11 -11 0
v -12 -11 0
v -12 -10 0
v -11 -10 0

# Texture cooridinates (Count = 36)
vt 0.002525253 0.669192
vt 0.1641414 0.669192
vt 0.1641414 0.8308081
vt 0.002525253 0.8308081
vt 0.1691919 0.669192
vt 0.3308081 0.669192
vt 0.3308081 0.8308081
vt 0.1691919 0.8308081
vt 0.002525253 0.5025252
vt 0.1641414 0.5025252
vt 0.1641414 0.6641414
vt 0.002525253 0.6641414
vt 0.1691919 0.5025252
vt 0.3308081 0.5025252
vt 0.3308081 0.6641414
vt 0.1691919 0.6641414
vt 0.002525253 0.3358586
vt 0.1641414 0.3358586
vt 0.1641414 0.4974747
vt 0.002525253 0.4974747
vt 0.1691919 0.3358586
vt 0.3308081 0.3358586
vt 0.3308081 0.4974747
vt 0.1691919 0.4974747
vt 0.4974748 0.669192
vt 0.3358586 0.669192
vt 0.3358586 0.8308081
vt 0.4974748 0.8308081
vt 0.4974748 0.5025252
vt 0.3358586 0.5025252
vt 0.3358586 0.6641414
vt 0.4974748 0.6641414
vt 0.4974748 0.3358586
vt 0.3358586 0.3358586
vt 0.3358586 0.4974747
vt 0.4974748 0.4974747

# Normal
vn 0 0 -1

# Mesh description
g SolomvaleHouse1_mesh_0003

# Faces
f 1/1/1 2/2/1 3/3/1 4/4/1
f 5/5/1 6/6/1 7/7/1 8/8/1
f 9/5/1 10/6/1 11/7/1 12/8/1
f 13/5/1 14/6/1 15/7/1 16/8/1
f 17/5/1 18/6/1 19/7/1 20/8/1
f 21/5/1 22/6/1 23/7/1 24/8/1
f 25/5/1 26/6/1 27/7/1 28/8/1
f 29/5/1 30/6/1 31/7/1 32/8/1
f 33/2/1 34/1/1 35/4/1 36/3/1
f 37/1/1 38/2/1 39/3/1 40/4/1
f 41/5/1 42/6/1 43/7/1 44/8/1
f 45/5/1 46/6/1 47/7/1 48/8/1
f 49/5/1 50/6/1 51/7/1 52/8/1
f 53/5/1 54/6/1 55/7/1 56/8/1
f 57/5/1 58/6/1 59/7/1 60/8/1
f 61/5/1 62/6/1 63/7/1 64/8/1
f 65/5/1 66/6/1 67/7/1 68/8/1
f 69/2/1 70/1/1 71/4/1 72/3/1
f 73/9/1 74/10/1 75/11/1 76/12/1
f 77/13/1 78/14/1 79/15/1 80/16/1
f 81/13/1 82/14/1 83/15/1 84/16/1
f 85/13/1 86/14/1 87/15/1 88/16/1
f 89/13/1 90/14/1 91/15/1 92/16/1
f 93/13/1 94/14/1 95/15/1 96/16/1
f 97/13/1 98/14/1 99/15/1 100/16/1
f 101/13/1 102/14/1 103/15/1 104/16/1
f 105/10/1 106/9/1 107/12/1 108/11/1
f 109/9/1 110/10/1 111/11/1 112/12/1
f 113/13/1 114/14/1 115/15/1 116/16/1
f 117/13/1 118/14/1 119/15/1 120/16/1
f 121/13/1 122/14/1 123/15/1 124/16/1
f 125/13/1 126/14/1 127/15/1 128/16/1
f 129/13/1 130/14/1 131/15/1 132/16/1
f 133/13/1 134/14/1 135/15/1 136/16/1
f 137/13/1 138/14/1 139/15/1 140/16/1
f 141/10/1 142/9/1 143/12/1 144/11/1
f 145/17/1 146/18/1 147/19/1 148/20/1
f 149/21/1 150/22/1 151/23/1 152/24/1
f 153/21/1 154/22/1 155/23/1 156/24/1
f 157/21/1 158/22/1 159/23/1 160/24/1
f 161/21/1 162/22/1 163/23/1 164/24/1
f 165/21/1 166/22/1 167/23/1 168/24/1
f 169/21/1 170/22/1 171/23/1 172/24/1
f 173/21/1 174/22/1 175/23/1 176/24/1
f 177/18/1 178/17/1 179/20/1 180/19/1
f 181/17/1 182/18/1 183/19/1 184/20/1
f 185/21/1 186/22/1 187/23/1 188/24/1
f 189/21/1 190/22/1 191/23/1 192/24/1
f 193/21/1 194/22/1 195/23/1 196/24/1
f 197/21/1 198/22/1 199/23/1 200/24/1
f 201/21/1 202/22/1 203/23/1 204/24/1
f 205/21/1 206/22/1 207/23/1 208/24/1
f 209/21/1 210/22/1 211/23/1 212/24/1
f 213/18/1 214/17/1 215/20/1 216/19/1
f 217/25/1 218/26/1 219/27/1 220/28/1
f 221/26/1 222/25/1 223/28/1 224/27/1
f 225/29/1 226/30/1 227/31/1 228/32/1
f 229/30/1 230/29/1 231/32/1 232/31/1
f 233/33/1 234/34/1 235/35/1 236/36/1
f 237/34/1 238/33/1 239/36/1 240/35/1

