# Tiled2Unity generated file. Do not modify by hand.
# Wavefront file for 'AstralaProperNorth_mesh_0013.obj'

# Vertices (Count = 280)
v -74 -11 0
v -75 -11 0
v -75 -10 0
v -74 -10 0
v -72 -11 0
v -73 -11 0
v -73 -10 0
v -72 -10 0
v -70 -11 0
v -71 -11 0
v -71 -10 0
v -70 -10 0
v -74 -12 0
v -75 -12 0
v -75 -11 0
v -74 -11 0
v -72 -12 0
v -73 -12 0
v -73 -11 0
v -72 -11 0
v -70 -12 0
v -71 -12 0
v -71 -11 0
v -70 -11 0
v -67 -12 0
v -68 -12 0
v -68 -11 0
v -67 -11 0
v -66 -12 0
v -67 -12 0
v -67 -11 0
v -66 -11 0
v -67 -13 0
v -68 -13 0
v -68 -12 0
v -67 -12 0
v -66 -13 0
v -67 -13 0
v -67 -12 0
v -66 -12 0
v -75 -14 0
v -76 -14 0
v -76 -13 0
v -75 -13 0
v -74 -14 0
v -75 -14 0
v -75 -13 0
v -74 -13 0
v -72 -14 0
v -73 -14 0
v -73 -13 0
v -72 -13 0
v -70 -14 0
v -71 -14 0
v -71 -13 0
v -70 -13 0
v -75 -15 0
v -76 -15 0
v -76 -14 0
v -75 -14 0
v -74 -15 0
v -75 -15 0
v -75 -14 0
v -74 -14 0
v -72 -15 0
v -73 -15 0
v -73 -14 0
v -72 -14 0
v -70 -15 0
v -71 -15 0
v -71 -14 0
v -70 -14 0
v -67 -15 0
v -68 -15 0
v -68 -14 0
v -67 -14 0
v -66 -15 0
v -67 -15 0
v -67 -14 0
v -66 -14 0
v -67 -16 0
v -68 -16 0
v -68 -15 0
v -67 -15 0
v -66 -16 0
v -67 -16 0
v -67 -15 0
v -66 -15 0
v 0 -26 0
v -1 -26 0
v -1 -25 0
v 0 -25 0
v -70 -27 0
v -71 -27 0
v -71 -26 0
v -70 -26 0
v 0 -27 0
v -1 -27 0
v -1 -26 0
v 0 -26 0
v -70 -28 0
v -71 -28 0
v -71 -27 0
v -70 -27 0
v -2 -32 0
v -3 -32 0
v -3 -31 0
v -2 -31 0
v 0 -32 0
v -1 -32 0
v -1 -31 0
v 0 -31 0
v -2 -33 0
v -3 -33 0
v -3 -32 0
v -2 -32 0
v 0 -33 0
v -1 -33 0
v -1 -32 0
v 0 -32 0
v -71 -34 0
v -72 -34 0
v -72 -33 0
v -71 -33 0
v -70 -34 0
v -71 -34 0
v -71 -33 0
v -70 -33 0
v -68 -34 0
v -69 -34 0
v -69 -33 0
v -68 -33 0
v -71 -35 0
v -72 -35 0
v -72 -34 0
v -71 -34 0
v -68 -35 0
v -69 -35 0
v -69 -34 0
v -68 -34 0
v -69 -60 0
v -70 -60 0
v -70 -59 0
v -69 -59 0
v -69 -61 0
v -70 -61 0
v -70 -60 0
v -69 -60 0
v -3 -61 0
v -4 -61 0
v -4 -60 0
v -3 -60 0
v -1 -61 0
v -2 -61 0
v -2 -60 0
v -1 -60 0
v -3 -62 0
v -4 -62 0
v -4 -61 0
v -3 -61 0
v -1 -62 0
v -2 -62 0
v -2 -61 0
v -1 -61 0
v -109 -63 0
v -110 -63 0
v -110 -62 0
v -109 -62 0
v -108 -63 0
v -109 -63 0
v -109 -62 0
v -108 -62 0
v -109 -64 0
v -110 -64 0
v -110 -63 0
v -109 -63 0
v -108 -64 0
v -109 -64 0
v -109 -63 0
v -108 -63 0
v -4 -64 0
v -5 -64 0
v -5 -63 0
v -4 -63 0
v -3 -64 0
v -4 -64 0
v -4 -63 0
v -3 -63 0
v -1 -64 0
v -2 -64 0
v -2 -63 0
v -1 -63 0
v -4 -65 0
v -5 -65 0
v -5 -64 0
v -4 -64 0
v -3 -65 0
v -4 -65 0
v -4 -64 0
v -3 -64 0
v -1 -65 0
v -2 -65 0
v -2 -64 0
v -1 -64 0
v -77 -67 0
v -78 -67 0
v -78 -66 0
v -77 -66 0
v -75 -67 0
v -76 -67 0
v -76 -66 0
v -75 -66 0
v -74 -67 0
v -75 -67 0
v -75 -66 0
v -74 -66 0
v -73 -67 0
v -74 -67 0
v -74 -66 0
v -73 -66 0
v -72 -67 0
v -73 -67 0
v -73 -66 0
v -72 -66 0
v -70 -67 0
v -71 -67 0
v -71 -66 0
v -70 -66 0
v -23 -67 0
v -24 -67 0
v -24 -66 0
v -23 -66 0
v -20 -67 0
v -21 -67 0
v -21 -66 0
v -20 -66 0
v -17 -67 0
v -18 -67 0
v -18 -66 0
v -17 -66 0
v -77 -68 0
v -78 -68 0
v -78 -67 0
v -77 -67 0
v -75 -68 0
v -76 -68 0
v -76 -67 0
v -75 -67 0
v -74 -68 0
v -75 -68 0
v -75 -67 0
v -74 -67 0
v -73 -68 0
v -74 -68 0
v -74 -67 0
v -73 -67 0
v -72 -68 0
v -73 -68 0
v -73 -67 0
v -72 -67 0
v -70 -68 0
v -71 -68 0
v -71 -67 0
v -70 -67 0
v -111 -69 0
v -112 -69 0
v -112 -68 0
v -111 -68 0
v -109 -69 0
v -110 -69 0
v -110 -68 0
v -109 -68 0
v -108 -69 0
v -109 -69 0
v -109 -68 0
v -108 -68 0
v -106 -69 0
v -107 -69 0
v -107 -68 0
v -106 -68 0

# Texture cooridinates (Count = 20)
vt 0.8768939 0.3768939
vt 0.9981061 0.3768939
vt 0.9981061 0.4981061
vt 0.8768939 0.4981061
vt 0.7518939 0.3768939
vt 0.8731061 0.3768939
vt 0.8731061 0.4981061
vt 0.7518939 0.4981061
vt 0.6231061 0.001893938
vt 0.5018939 0.001893938
vt 0.5018939 0.1231061
vt 0.6231061 0.1231061
vt 0.7481061 0.001893938
vt 0.6268939 0.001893938
vt 0.6268939 0.1231061
vt 0.7481061 0.1231061
vt 0.3768939 0.2518939
vt 0.4981061 0.2518939
vt 0.4981061 0.3731061
vt 0.3768939 0.3731061

# Normal
vn 0 0 -1

# Mesh description
g AstralaProperNorth_mesh_0013

# Faces
f 1/1/1 2/2/1 3/3/1 4/4/1
f 5/1/1 6/2/1 7/3/1 8/4/1
f 9/1/1 10/2/1 11/3/1 12/4/1
f 13/5/1 14/6/1 15/7/1 16/8/1
f 17/5/1 18/6/1 19/7/1 20/8/1
f 21/5/1 22/6/1 23/7/1 24/8/1
f 25/1/1 26/2/1 27/3/1 28/4/1
f 29/1/1 30/2/1 31/3/1 32/4/1
f 33/5/1 34/6/1 35/7/1 36/8/1
f 37/5/1 38/6/1 39/7/1 40/8/1
f 41/9/1 42/10/1 43/11/1 44/12/1
f 45/10/1 46/9/1 47/12/1 48/11/1
f 49/1/1 50/2/1 51/3/1 52/4/1
f 53/1/1 54/2/1 55/3/1 56/4/1
f 57/13/1 58/14/1 59/15/1 60/16/1
f 61/14/1 62/13/1 63/16/1 64/15/1
f 65/5/1 66/6/1 67/7/1 68/8/1
f 69/5/1 70/6/1 71/7/1 72/8/1
f 73/1/1 74/2/1 75/3/1 76/4/1
f 77/1/1 78/2/1 79/3/1 80/4/1
f 81/5/1 82/6/1 83/7/1 84/8/1
f 85/5/1 86/6/1 87/7/1 88/8/1
f 89/1/1 90/2/1 91/3/1 92/4/1
f 93/1/1 94/2/1 95/3/1 96/4/1
f 97/5/1 98/6/1 99/7/1 100/8/1
f 101/5/1 102/6/1 103/7/1 104/8/1
f 105/1/1 106/2/1 107/3/1 108/4/1
f 109/9/1 110/10/1 111/11/1 112/12/1
f 113/5/1 114/6/1 115/7/1 116/8/1
f 117/13/1 118/14/1 119/15/1 120/16/1
f 121/1/1 122/2/1 123/3/1 124/4/1
f 125/17/1 126/18/1 127/19/1 128/20/1
f 129/1/1 130/2/1 131/3/1 132/4/1
f 133/5/1 134/6/1 135/7/1 136/8/1
f 137/5/1 138/6/1 139/7/1 140/8/1
f 141/1/1 142/2/1 143/3/1 144/4/1
f 145/5/1 146/6/1 147/7/1 148/8/1
f 149/1/1 150/2/1 151/3/1 152/4/1
f 153/1/1 154/2/1 155/3/1 156/4/1
f 157/5/1 158/6/1 159/7/1 160/8/1
f 161/5/1 162/6/1 163/7/1 164/8/1
f 165/1/1 166/2/1 167/3/1 168/4/1
f 169/1/1 170/2/1 171/3/1 172/4/1
f 173/5/1 174/6/1 175/7/1 176/8/1
f 177/5/1 178/6/1 179/7/1 180/8/1
f 181/9/1 182/10/1 183/11/1 184/12/1
f 185/10/1 186/9/1 187/12/1 188/11/1
f 189/1/1 190/2/1 191/3/1 192/4/1
f 193/13/1 194/14/1 195/15/1 196/16/1
f 197/14/1 198/13/1 199/16/1 200/15/1
f 201/5/1 202/6/1 203/7/1 204/8/1
f 205/1/1 206/2/1 207/3/1 208/4/1
f 209/1/1 210/2/1 211/3/1 212/4/1
f 213/9/1 214/10/1 215/11/1 216/12/1
f 217/10/1 218/9/1 219/12/1 220/11/1
f 221/1/1 222/2/1 223/3/1 224/4/1
f 225/1/1 226/2/1 227/3/1 228/4/1
f 229/1/1 230/2/1 231/3/1 232/4/1
f 233/1/1 234/2/1 235/3/1 236/4/1
f 237/1/1 238/2/1 239/3/1 240/4/1
f 241/5/1 242/6/1 243/7/1 244/8/1
f 245/5/1 246/6/1 247/7/1 248/8/1
f 249/13/1 250/14/1 251/15/1 252/16/1
f 253/14/1 254/13/1 255/16/1 256/15/1
f 257/5/1 258/6/1 259/7/1 260/8/1
f 261/5/1 262/6/1 263/7/1 264/8/1
f 265/1/1 266/2/1 267/3/1 268/4/1
f 269/9/1 270/10/1 271/11/1 272/12/1
f 273/10/1 274/9/1 275/12/1 276/11/1
f 277/1/1 278/2/1 279/3/1 280/4/1

