# Tiled2Unity generated file. Do not modify by hand.
# Wavefront file for 'AstralaProperNorth_mesh_0002.obj'

# Vertices (Count = 928)
v -29 -1 0
v -30 -1 0
v -30 0 0
v -29 0 0
v -17 -1 0
v -18 -1 0
v -18 0 0
v -17 0 0
v -12 -1 0
v -13 -1 0
v -13 0 0
v -12 0 0
v -115 -2 0
v -116 -2 0
v -116 -1 0
v -115 -1 0
v -114 -2 0
v -115 -2 0
v -115 -1 0
v -114 -1 0
v -113 -2 0
v -114 -2 0
v -114 -1 0
v -113 -1 0
v -112 -2 0
v -113 -2 0
v -113 -1 0
v -112 -1 0
v -109 -2 0
v -110 -2 0
v -110 -1 0
v -109 -1 0
v -108 -2 0
v -109 -2 0
v -109 -1 0
v -108 -1 0
v -107 -2 0
v -108 -2 0
v -108 -1 0
v -107 -1 0
v -106 -2 0
v -107 -2 0
v -107 -1 0
v -106 -1 0
v -29 -2 0
v -30 -2 0
v -30 -1 0
v -29 -1 0
v -17 -2 0
v -18 -2 0
v -18 -1 0
v -17 -1 0
v -12 -2 0
v -13 -2 0
v -13 -1 0
v -12 -1 0
v -29 -3 0
v -30 -3 0
v -30 -2 0
v -29 -2 0
v -23 -3 0
v -24 -3 0
v -24 -2 0
v -23 -2 0
v -17 -3 0
v -18 -3 0
v -18 -2 0
v -17 -2 0
v -28 -4 0
v -29 -4 0
v -29 -3 0
v -28 -3 0
v -27 -4 0
v -28 -4 0
v -28 -3 0
v -27 -3 0
v -26 -4 0
v -27 -4 0
v -27 -3 0
v -26 -3 0
v -25 -4 0
v -26 -4 0
v -26 -3 0
v -25 -3 0
v -21 -4 0
v -22 -4 0
v -22 -3 0
v -21 -3 0
v -20 -4 0
v -21 -4 0
v -21 -3 0
v -20 -3 0
v -19 -4 0
v -20 -4 0
v -20 -3 0
v -19 -3 0
v -18 -4 0
v -19 -4 0
v -19 -3 0
v -18 -3 0
v -5 -4 0
v -6 -4 0
v -6 -3 0
v -5 -3 0
v -4 -4 0
v -5 -4 0
v -5 -3 0
v -4 -3 0
v -9 -5 0
v -10 -5 0
v -10 -4 0
v -9 -4 0
v -8 -5 0
v -9 -5 0
v -9 -4 0
v -8 -4 0
v -7 -5 0
v -8 -5 0
v -8 -4 0
v -7 -4 0
v -2 -5 0
v -3 -5 0
v -3 -4 0
v -2 -4 0
v -1 -5 0
v -2 -5 0
v -2 -4 0
v -1 -4 0
v 0 -5 0
v -1 -5 0
v -1 -4 0
v 0 -4 0
v -77 -10 0
v -78 -10 0
v -78 -9 0
v -77 -9 0
v -77 -11 0
v -78 -11 0
v -78 -10 0
v -77 -10 0
v -77 -12 0
v -78 -12 0
v -78 -11 0
v -77 -11 0
v -77 -13 0
v -78 -13 0
v -78 -12 0
v -77 -12 0
v -64 -13 0
v -65 -13 0
v -65 -12 0
v -64 -12 0
v -77 -14 0
v -78 -14 0
v -78 -13 0
v -77 -13 0
v -64 -14 0
v -65 -14 0
v -65 -13 0
v -64 -13 0
v -77 -15 0
v -78 -15 0
v -78 -14 0
v -77 -14 0
v -64 -15 0
v -65 -15 0
v -65 -14 0
v -64 -14 0
v -76 -16 0
v -77 -16 0
v -77 -15 0
v -76 -15 0
v -73 -16 0
v -74 -16 0
v -74 -15 0
v -73 -15 0
v -72 -16 0
v -73 -16 0
v -73 -15 0
v -72 -15 0
v -71 -16 0
v -72 -16 0
v -72 -15 0
v -71 -15 0
v -70 -16 0
v -71 -16 0
v -71 -15 0
v -70 -15 0
v -69 -16 0
v -70 -16 0
v -70 -15 0
v -69 -15 0
v -64 -16 0
v -65 -16 0
v -65 -15 0
v -64 -15 0
v -68 -17 0
v -69 -17 0
v -69 -16 0
v -68 -16 0
v -67 -17 0
v -68 -17 0
v -68 -16 0
v -67 -16 0
v -66 -17 0
v -67 -17 0
v -67 -16 0
v -66 -16 0
v -65 -17 0
v -66 -17 0
v -66 -16 0
v -65 -16 0
v -25 -29 0
v -26 -29 0
v -26 -28 0
v -25 -28 0
v -25 -30 0
v -26 -30 0
v -26 -29 0
v -25 -29 0
v -10 -30 0
v -11 -30 0
v -11 -29 0
v -10 -29 0
v -4 -30 0
v -5 -30 0
v -5 -29 0
v -4 -29 0
v -25 -31 0
v -26 -31 0
v -26 -30 0
v -25 -30 0
v -10 -31 0
v -11 -31 0
v -11 -30 0
v -10 -30 0
v -4 -31 0
v -5 -31 0
v -5 -30 0
v -4 -30 0
v -10 -32 0
v -11 -32 0
v -11 -31 0
v -10 -31 0
v -4 -32 0
v -5 -32 0
v -5 -31 0
v -4 -31 0
v -4 -33 0
v -5 -33 0
v -5 -32 0
v -4 -32 0
v -75 -34 0
v -76 -34 0
v -76 -33 0
v -75 -33 0
v -65 -34 0
v -66 -34 0
v -66 -33 0
v -65 -33 0
v -64 -34 0
v -65 -34 0
v -65 -33 0
v -64 -33 0
v -11 -34 0
v -12 -34 0
v -12 -33 0
v -11 -33 0
v -3 -34 0
v -4 -34 0
v -4 -33 0
v -3 -33 0
v -2 -34 0
v -3 -34 0
v -3 -33 0
v -2 -33 0
v -1 -34 0
v -2 -34 0
v -2 -33 0
v -1 -33 0
v -75 -35 0
v -76 -35 0
v -76 -34 0
v -75 -34 0
v -65 -35 0
v -66 -35 0
v -66 -34 0
v -65 -34 0
v -11 -35 0
v -12 -35 0
v -12 -34 0
v -11 -34 0
v -74 -36 0
v -75 -36 0
v -75 -35 0
v -74 -35 0
v -73 -36 0
v -74 -36 0
v -74 -35 0
v -73 -35 0
v -72 -36 0
v -73 -36 0
v -73 -35 0
v -72 -35 0
v -71 -36 0
v -72 -36 0
v -72 -35 0
v -71 -35 0
v -70 -36 0
v -71 -36 0
v -71 -35 0
v -70 -35 0
v -69 -36 0
v -70 -36 0
v -70 -35 0
v -69 -35 0
v -68 -36 0
v -69 -36 0
v -69 -35 0
v -68 -35 0
v -67 -36 0
v -68 -36 0
v -68 -35 0
v -67 -35 0
v -66 -36 0
v -67 -36 0
v -67 -35 0
v -66 -35 0
v -11 -36 0
v -12 -36 0
v -12 -35 0
v -11 -35 0
v -14 -37 0
v -15 -37 0
v -15 -36 0
v -14 -36 0
v -13 -37 0
v -14 -37 0
v -14 -36 0
v -13 -36 0
v -12 -37 0
v -13 -37 0
v -13 -36 0
v -12 -36 0
v -29 -42 0
v -30 -42 0
v -30 -41 0
v -29 -41 0
v -14 -42 0
v -15 -42 0
v -15 -41 0
v -14 -41 0
v -29 -43 0
v -30 -43 0
v -30 -42 0
v -29 -42 0
v -14 -43 0
v -15 -43 0
v -15 -42 0
v -14 -42 0
v -29 -44 0
v -30 -44 0
v -30 -43 0
v -29 -43 0
v -14 -44 0
v -15 -44 0
v -15 -43 0
v -14 -43 0
v -79 -45 0
v -80 -45 0
v -80 -44 0
v -79 -44 0
v -66 -45 0
v -67 -45 0
v -67 -44 0
v -66 -44 0
v -29 -45 0
v -30 -45 0
v -30 -44 0
v -29 -44 0
v -14 -45 0
v -15 -45 0
v -15 -44 0
v -14 -44 0
v -79 -46 0
v -80 -46 0
v -80 -45 0
v -79 -45 0
v -66 -46 0
v -67 -46 0
v -67 -45 0
v -66 -45 0
v -29 -46 0
v -30 -46 0
v -30 -45 0
v -29 -45 0
v -14 -46 0
v -15 -46 0
v -15 -45 0
v -14 -45 0
v -29 -47 0
v -30 -47 0
v -30 -46 0
v -29 -46 0
v -14 -47 0
v -15 -47 0
v -15 -46 0
v -14 -46 0
v -78 -48 0
v -79 -48 0
v -79 -47 0
v -78 -47 0
v -67 -48 0
v -68 -48 0
v -68 -47 0
v -67 -47 0
v -78 -49 0
v -79 -49 0
v -79 -48 0
v -78 -48 0
v -67 -49 0
v -68 -49 0
v -68 -48 0
v -67 -48 0
v -78 -50 0
v -79 -50 0
v -79 -49 0
v -78 -49 0
v -67 -50 0
v -68 -50 0
v -68 -49 0
v -67 -49 0
v -26 -50 0
v -27 -50 0
v -27 -49 0
v -26 -49 0
v -25 -50 0
v -26 -50 0
v -26 -49 0
v -25 -49 0
v -24 -50 0
v -25 -50 0
v -25 -49 0
v -24 -49 0
v -19 -50 0
v -20 -50 0
v -20 -49 0
v -19 -49 0
v -18 -50 0
v -19 -50 0
v -19 -49 0
v -18 -49 0
v -17 -50 0
v -18 -50 0
v -18 -49 0
v -17 -49 0
v -77 -51 0
v -78 -51 0
v -78 -50 0
v -77 -50 0
v -76 -51 0
v -77 -51 0
v -77 -50 0
v -76 -50 0
v -75 -51 0
v -76 -51 0
v -76 -50 0
v -75 -50 0
v -74 -51 0
v -75 -51 0
v -75 -50 0
v -74 -50 0
v -71 -51 0
v -72 -51 0
v -72 -50 0
v -71 -50 0
v -70 -51 0
v -71 -51 0
v -71 -50 0
v -70 -50 0
v -69 -51 0
v -70 -51 0
v -70 -50 0
v -69 -50 0
v -68 -51 0
v -69 -51 0
v -69 -50 0
v -68 -50 0
v -6 -60 0
v -7 -60 0
v -7 -59 0
v -6 -59 0
v -6 -61 0
v -7 -61 0
v -7 -60 0
v -6 -60 0
v -6 -62 0
v -7 -62 0
v -7 -61 0
v -6 -61 0
v -121 -63 0
v -122 -63 0
v -122 -62 0
v -121 -62 0
v -100 -63 0
v -101 -63 0
v -101 -62 0
v -100 -62 0
v -85 -63 0
v -86 -63 0
v -86 -62 0
v -85 -62 0
v -60 -63 0
v -61 -63 0
v -61 -62 0
v -60 -62 0
v -57 -63 0
v -58 -63 0
v -58 -62 0
v -57 -62 0
v -56 -63 0
v -57 -63 0
v -57 -62 0
v -56 -62 0
v -55 -63 0
v -56 -63 0
v -56 -62 0
v -55 -62 0
v -54 -63 0
v -55 -63 0
v -55 -62 0
v -54 -62 0
v -53 -63 0
v -54 -63 0
v -54 -62 0
v -53 -62 0
v -52 -63 0
v -53 -63 0
v -53 -62 0
v -52 -62 0
v -51 -63 0
v -52 -63 0
v -52 -62 0
v -51 -62 0
v -50 -63 0
v -51 -63 0
v -51 -62 0
v -50 -62 0
v -49 -63 0
v -50 -63 0
v -50 -62 0
v -49 -62 0
v -48 -63 0
v -49 -63 0
v -49 -62 0
v -48 -62 0
v -47 -63 0
v -48 -63 0
v -48 -62 0
v -47 -62 0
v -46 -63 0
v -47 -63 0
v -47 -62 0
v -46 -62 0
v -45 -63 0
v -46 -63 0
v -46 -62 0
v -45 -62 0
v -44 -63 0
v -45 -63 0
v -45 -62 0
v -44 -62 0
v -43 -63 0
v -44 -63 0
v -44 -62 0
v -43 -62 0
v -42 -63 0
v -43 -63 0
v -43 -62 0
v -42 -62 0
v -41 -63 0
v -42 -63 0
v -42 -62 0
v -41 -62 0
v -40 -63 0
v -41 -63 0
v -41 -62 0
v -40 -62 0
v -39 -63 0
v -40 -63 0
v -40 -62 0
v -39 -62 0
v -38 -63 0
v -39 -63 0
v -39 -62 0
v -38 -62 0
v -37 -63 0
v -38 -63 0
v -38 -62 0
v -37 -62 0
v -36 -63 0
v -37 -63 0
v -37 -62 0
v -36 -62 0
v -33 -63 0
v -34 -63 0
v -34 -62 0
v -33 -62 0
v -6 -63 0
v -7 -63 0
v -7 -62 0
v -6 -62 0
v -121 -64 0
v -122 -64 0
v -122 -63 0
v -121 -63 0
v -100 -64 0
v -101 -64 0
v -101 -63 0
v -100 -63 0
v -85 -64 0
v -86 -64 0
v -86 -63 0
v -85 -63 0
v -60 -64 0
v -61 -64 0
v -61 -63 0
v -60 -63 0
v -57 -64 0
v -58 -64 0
v -58 -63 0
v -57 -63 0
v -36 -64 0
v -37 -64 0
v -37 -63 0
v -36 -63 0
v -33 -64 0
v -34 -64 0
v -34 -63 0
v -33 -63 0
v -6 -64 0
v -7 -64 0
v -7 -63 0
v -6 -63 0
v -121 -65 0
v -122 -65 0
v -122 -64 0
v -121 -64 0
v -100 -65 0
v -101 -65 0
v -101 -64 0
v -100 -64 0
v -85 -65 0
v -86 -65 0
v -86 -64 0
v -85 -64 0
v -80 -65 0
v -81 -65 0
v -81 -64 0
v -80 -64 0
v -67 -65 0
v -68 -65 0
v -68 -64 0
v -67 -64 0
v -60 -65 0
v -61 -65 0
v -61 -64 0
v -60 -64 0
v -57 -65 0
v -58 -65 0
v -58 -64 0
v -57 -64 0
v -36 -65 0
v -37 -65 0
v -37 -64 0
v -36 -64 0
v -33 -65 0
v -34 -65 0
v -34 -64 0
v -33 -64 0
v -27 -65 0
v -28 -65 0
v -28 -64 0
v -27 -64 0
v -14 -65 0
v -15 -65 0
v -15 -64 0
v -14 -64 0
v -6 -65 0
v -7 -65 0
v -7 -64 0
v -6 -64 0
v -121 -66 0
v -122 -66 0
v -122 -65 0
v -121 -65 0
v -100 -66 0
v -101 -66 0
v -101 -65 0
v -100 -65 0
v -80 -66 0
v -81 -66 0
v -81 -65 0
v -80 -65 0
v -67 -66 0
v -68 -66 0
v -68 -65 0
v -67 -65 0
v -60 -66 0
v -61 -66 0
v -61 -65 0
v -60 -65 0
v -57 -66 0
v -58 -66 0
v -58 -65 0
v -57 -65 0
v -36 -66 0
v -37 -66 0
v -37 -65 0
v -36 -65 0
v -33 -66 0
v -34 -66 0
v -34 -65 0
v -33 -65 0
v -27 -66 0
v -28 -66 0
v -28 -65 0
v -27 -65 0
v -14 -66 0
v -15 -66 0
v -15 -65 0
v -14 -65 0
v -5 -66 0
v -6 -66 0
v -6 -65 0
v -5 -65 0
v -2 -66 0
v -3 -66 0
v -3 -65 0
v -2 -65 0
v -1 -66 0
v -2 -66 0
v -2 -65 0
v -1 -65 0
v 0 -66 0
v -1 -66 0
v -1 -65 0
v 0 -65 0
v -121 -67 0
v -122 -67 0
v -122 -66 0
v -121 -66 0
v -113 -67 0
v -114 -67 0
v -114 -66 0
v -113 -66 0
v -104 -67 0
v -105 -67 0
v -105 -66 0
v -104 -66 0
v -100 -67 0
v -101 -67 0
v -101 -66 0
v -100 -66 0
v -86 -67 0
v -87 -67 0
v -87 -66 0
v -86 -66 0
v -80 -67 0
v -81 -67 0
v -81 -66 0
v -80 -66 0
v -67 -67 0
v -68 -67 0
v -68 -66 0
v -67 -66 0
v -60 -67 0
v -61 -67 0
v -61 -66 0
v -60 -66 0
v -57 -67 0
v -58 -67 0
v -58 -66 0
v -57 -66 0
v -36 -67 0
v -37 -67 0
v -37 -66 0
v -36 -66 0
v -33 -67 0
v -34 -67 0
v -34 -66 0
v -33 -66 0
v -27 -67 0
v -28 -67 0
v -28 -66 0
v -27 -66 0
v -14 -67 0
v -15 -67 0
v -15 -66 0
v -14 -66 0
v -123 -68 0
v -124 -68 0
v -124 -67 0
v -123 -67 0
v -122 -68 0
v -123 -68 0
v -123 -67 0
v -122 -67 0
v -113 -68 0
v -114 -68 0
v -114 -67 0
v -113 -67 0
v -104 -68 0
v -105 -68 0
v -105 -67 0
v -104 -67 0
v -100 -68 0
v -101 -68 0
v -101 -67 0
v -100 -67 0
v -86 -68 0
v -87 -68 0
v -87 -67 0
v -86 -67 0
v -80 -68 0
v -81 -68 0
v -81 -67 0
v -80 -67 0
v -67 -68 0
v -68 -68 0
v -68 -67 0
v -67 -67 0
v -60 -68 0
v -61 -68 0
v -61 -67 0
v -60 -67 0
v -57 -68 0
v -58 -68 0
v -58 -67 0
v -57 -67 0
v -36 -68 0
v -37 -68 0
v -37 -67 0
v -36 -67 0
v -33 -68 0
v -34 -68 0
v -34 -67 0
v -33 -67 0
v -27 -68 0
v -28 -68 0
v -28 -67 0
v -27 -67 0
v -14 -68 0
v -15 -68 0
v -15 -67 0
v -14 -67 0
v -113 -69 0
v -114 -69 0
v -114 -68 0
v -113 -68 0
v -104 -69 0
v -105 -69 0
v -105 -68 0
v -104 -68 0
v -100 -69 0
v -101 -69 0
v -101 -68 0
v -100 -68 0
v -86 -69 0
v -87 -69 0
v -87 -68 0
v -86 -68 0
v -79 -69 0
v -80 -69 0
v -80 -68 0
v -79 -68 0
v -78 -69 0
v -79 -69 0
v -79 -68 0
v -78 -68 0
v -77 -69 0
v -78 -69 0
v -78 -68 0
v -77 -68 0
v -76 -69 0
v -77 -69 0
v -77 -68 0
v -76 -68 0
v -75 -69 0
v -76 -69 0
v -76 -68 0
v -75 -68 0
v -72 -69 0
v -73 -69 0
v -73 -68 0
v -72 -68 0
v -71 -69 0
v -72 -69 0
v -72 -68 0
v -71 -68 0
v -70 -69 0
v -71 -69 0
v -71 -68 0
v -70 -68 0
v -69 -69 0
v -70 -69 0
v -70 -68 0
v -69 -68 0
v -68 -69 0
v -69 -69 0
v -69 -68 0
v -68 -68 0
v -57 -69 0
v -58 -69 0
v -58 -68 0
v -57 -68 0
v -36 -69 0
v -37 -69 0
v -37 -68 0
v -36 -68 0
v -27 -69 0
v -28 -69 0
v -28 -68 0
v -27 -68 0
v -14 -69 0
v -15 -69 0
v -15 -68 0
v -14 -68 0

# Texture cooridinates (Count = 16)
vt 0.4974748 0.2537879
vt 0.3358586 0.2537879
vt 0.3358586 0.4962121
vt 0.4974748 0.4962121
vt 0.1691919 0.5037879
vt 0.3308081 0.5037879
vt 0.3308081 0.7462121
vt 0.1691919 0.7462121
vt 0.4974748 0.003787875
vt 0.3358586 0.003787875
vt 0.3358586 0.2462121
vt 0.4974748 0.2462121
vt 0.4974748 0.5037879
vt 0.3358586 0.5037879
vt 0.3358586 0.7462121
vt 0.4974748 0.7462121

# Normal
vn 0 0 -1

# Mesh description
g AstralaProperNorth_mesh_0002

# Faces
f 1/1/1 2/2/1 3/3/1 4/4/1
f 5/2/1 6/1/1 7/4/1 8/3/1
f 9/1/1 10/2/1 11/3/1 12/4/1
f 13/5/1 14/6/1 15/7/1 16/8/1
f 17/5/1 18/6/1 19/7/1 20/8/1
f 21/5/1 22/6/1 23/7/1 24/8/1
f 25/5/1 26/6/1 27/7/1 28/8/1
f 29/5/1 30/6/1 31/7/1 32/8/1
f 33/5/1 34/6/1 35/7/1 36/8/1
f 37/5/1 38/6/1 39/7/1 40/8/1
f 41/5/1 42/6/1 43/7/1 44/8/1
f 45/1/1 46/2/1 47/3/1 48/4/1
f 49/2/1 50/1/1 51/4/1 52/3/1
f 53/9/1 54/10/1 55/11/1 56/12/1
f 57/9/1 58/10/1 59/11/1 60/12/1
f 61/5/1 62/6/1 63/7/1 64/8/1
f 65/10/1 66/9/1 67/12/1 68/11/1
f 69/5/1 70/6/1 71/7/1 72/8/1
f 73/5/1 74/6/1 75/7/1 76/8/1
f 77/5/1 78/6/1 79/7/1 80/8/1
f 81/5/1 82/6/1 83/7/1 84/8/1
f 85/5/1 86/6/1 87/7/1 88/8/1
f 89/5/1 90/6/1 91/7/1 92/8/1
f 93/5/1 94/6/1 95/7/1 96/8/1
f 97/5/1 98/6/1 99/7/1 100/8/1
f 101/5/1 102/6/1 103/7/1 104/8/1
f 105/5/1 106/6/1 107/7/1 108/8/1
f 109/5/1 110/6/1 111/7/1 112/8/1
f 113/5/1 114/6/1 115/7/1 116/8/1
f 117/5/1 118/6/1 119/7/1 120/8/1
f 121/5/1 122/6/1 123/7/1 124/8/1
f 125/5/1 126/6/1 127/7/1 128/8/1
f 129/5/1 130/6/1 131/7/1 132/8/1
f 133/1/1 134/2/1 135/3/1 136/4/1
f 137/1/1 138/2/1 139/3/1 140/4/1
f 141/1/1 142/2/1 143/3/1 144/4/1
f 145/1/1 146/2/1 147/3/1 148/4/1
f 149/2/1 150/1/1 151/4/1 152/3/1
f 153/1/1 154/2/1 155/3/1 156/4/1
f 157/2/1 158/1/1 159/4/1 160/3/1
f 161/9/1 162/10/1 163/11/1 164/12/1
f 165/2/1 166/1/1 167/4/1 168/3/1
f 169/5/1 170/6/1 171/7/1 172/8/1
f 173/5/1 174/6/1 175/7/1 176/8/1
f 177/5/1 178/6/1 179/7/1 180/8/1
f 181/5/1 182/6/1 183/7/1 184/8/1
f 185/5/1 186/6/1 187/7/1 188/8/1
f 189/13/1 190/14/1 191/15/1 192/16/1
f 193/10/1 194/9/1 195/12/1 196/11/1
f 197/5/1 198/6/1 199/7/1 200/8/1
f 201/5/1 202/6/1 203/7/1 204/8/1
f 205/5/1 206/6/1 207/7/1 208/8/1
f 209/5/1 210/6/1 211/7/1 212/8/1
f 213/1/1 214/2/1 215/3/1 216/4/1
f 217/1/1 218/2/1 219/3/1 220/4/1
f 221/2/1 222/1/1 223/4/1 224/3/1
f 225/1/1 226/2/1 227/3/1 228/4/1
f 229/9/1 230/10/1 231/11/1 232/12/1
f 233/2/1 234/1/1 235/4/1 236/3/1
f 237/1/1 238/2/1 239/3/1 240/4/1
f 241/2/1 242/1/1 243/4/1 244/3/1
f 245/1/1 246/2/1 247/3/1 248/4/1
f 249/9/1 250/10/1 251/11/1 252/12/1
f 253/13/1 254/14/1 255/15/1 256/16/1
f 257/14/1 258/13/1 259/16/1 260/15/1
f 261/5/1 262/6/1 263/7/1 264/8/1
f 265/2/1 266/1/1 267/4/1 268/3/1
f 269/5/1 270/6/1 271/7/1 272/8/1
f 273/5/1 274/6/1 275/7/1 276/8/1
f 277/5/1 278/6/1 279/7/1 280/8/1
f 281/9/1 282/10/1 283/11/1 284/12/1
f 285/10/1 286/9/1 287/12/1 288/11/1
f 289/2/1 290/1/1 291/4/1 292/3/1
f 293/5/1 294/6/1 295/7/1 296/8/1
f 297/5/1 298/6/1 299/7/1 300/8/1
f 301/5/1 302/6/1 303/7/1 304/8/1
f 305/5/1 306/6/1 307/7/1 308/8/1
f 309/5/1 310/6/1 311/7/1 312/8/1
f 313/5/1 314/6/1 315/7/1 316/8/1
f 317/5/1 318/6/1 319/7/1 320/8/1
f 321/5/1 322/6/1 323/7/1 324/8/1
f 325/5/1 326/6/1 327/7/1 328/8/1
f 329/10/1 330/9/1 331/12/1 332/11/1
f 333/5/1 334/6/1 335/7/1 336/8/1
f 337/5/1 338/6/1 339/7/1 340/8/1
f 341/5/1 342/6/1 343/7/1 344/8/1
f 345/1/1 346/2/1 347/3/1 348/4/1
f 349/2/1 350/1/1 351/4/1 352/3/1
f 353/1/1 354/2/1 355/3/1 356/4/1
f 357/2/1 358/1/1 359/4/1 360/3/1
f 361/1/1 362/2/1 363/3/1 364/4/1
f 365/2/1 366/1/1 367/4/1 368/3/1
f 369/1/1 370/2/1 371/3/1 372/4/1
f 373/2/1 374/1/1 375/4/1 376/3/1
f 377/1/1 378/2/1 379/3/1 380/4/1
f 381/2/1 382/1/1 383/4/1 384/3/1
f 385/9/1 386/10/1 387/11/1 388/12/1
f 389/10/1 390/9/1 391/12/1 392/11/1
f 393/1/1 394/2/1 395/3/1 396/4/1
f 397/2/1 398/1/1 399/4/1 400/3/1
f 401/9/1 402/10/1 403/11/1 404/12/1
f 405/10/1 406/9/1 407/12/1 408/11/1
f 409/1/1 410/2/1 411/3/1 412/4/1
f 413/2/1 414/1/1 415/4/1 416/3/1
f 417/1/1 418/2/1 419/3/1 420/4/1
f 421/2/1 422/1/1 423/4/1 424/3/1
f 425/9/1 426/10/1 427/11/1 428/12/1
f 429/10/1 430/9/1 431/12/1 432/11/1
f 433/5/1 434/6/1 435/7/1 436/8/1
f 437/5/1 438/6/1 439/7/1 440/8/1
f 441/5/1 442/6/1 443/7/1 444/8/1
f 445/5/1 446/6/1 447/7/1 448/8/1
f 449/5/1 450/6/1 451/7/1 452/8/1
f 453/5/1 454/6/1 455/7/1 456/8/1
f 457/5/1 458/6/1 459/7/1 460/8/1
f 461/5/1 462/6/1 463/7/1 464/8/1
f 465/5/1 466/6/1 467/7/1 468/8/1
f 469/5/1 470/6/1 471/7/1 472/8/1
f 473/5/1 474/6/1 475/7/1 476/8/1
f 477/5/1 478/6/1 479/7/1 480/8/1
f 481/5/1 482/6/1 483/7/1 484/8/1
f 485/5/1 486/6/1 487/7/1 488/8/1
f 489/1/1 490/2/1 491/3/1 492/4/1
f 493/1/1 494/2/1 495/3/1 496/4/1
f 497/1/1 498/2/1 499/3/1 500/4/1
f 501/2/1 502/1/1 503/4/1 504/3/1
f 505/1/1 506/2/1 507/3/1 508/4/1
f 509/2/1 510/1/1 511/4/1 512/3/1
f 513/1/1 514/2/1 515/3/1 516/4/1
f 517/14/1 518/13/1 519/16/1 520/15/1
f 521/5/1 522/6/1 523/7/1 524/8/1
f 525/5/1 526/6/1 527/7/1 528/8/1
f 529/5/1 530/6/1 531/7/1 532/8/1
f 533/5/1 534/6/1 535/7/1 536/8/1
f 537/5/1 538/6/1 539/7/1 540/8/1
f 541/5/1 542/6/1 543/7/1 544/8/1
f 545/5/1 546/6/1 547/7/1 548/8/1
f 549/5/1 550/6/1 551/7/1 552/8/1
f 553/5/1 554/6/1 555/7/1 556/8/1
f 557/5/1 558/6/1 559/7/1 560/8/1
f 561/5/1 562/6/1 563/7/1 564/8/1
f 565/5/1 566/6/1 567/7/1 568/8/1
f 569/5/1 570/6/1 571/7/1 572/8/1
f 573/5/1 574/6/1 575/7/1 576/8/1
f 577/5/1 578/6/1 579/7/1 580/8/1
f 581/5/1 582/6/1 583/7/1 584/8/1
f 585/5/1 586/6/1 587/7/1 588/8/1
f 589/5/1 590/6/1 591/7/1 592/8/1
f 593/5/1 594/6/1 595/7/1 596/8/1
f 597/5/1 598/6/1 599/7/1 600/8/1
f 601/13/1 602/14/1 603/15/1 604/16/1
f 605/2/1 606/1/1 607/4/1 608/3/1
f 609/1/1 610/2/1 611/3/1 612/4/1
f 613/2/1 614/1/1 615/4/1 616/3/1
f 617/1/1 618/2/1 619/3/1 620/4/1
f 621/2/1 622/1/1 623/4/1 624/3/1
f 625/1/1 626/2/1 627/3/1 628/4/1
f 629/2/1 630/1/1 631/4/1 632/3/1
f 633/1/1 634/2/1 635/3/1 636/4/1
f 637/2/1 638/1/1 639/4/1 640/3/1
f 641/1/1 642/2/1 643/3/1 644/4/1
f 645/2/1 646/1/1 647/4/1 648/3/1
f 649/1/1 650/2/1 651/3/1 652/4/1
f 653/10/1 654/9/1 655/12/1 656/11/1
f 657/1/1 658/2/1 659/3/1 660/4/1
f 661/2/1 662/1/1 663/4/1 664/3/1
f 665/1/1 666/2/1 667/3/1 668/4/1
f 669/2/1 670/1/1 671/4/1 672/3/1
f 673/1/1 674/2/1 675/3/1 676/4/1
f 677/2/1 678/1/1 679/4/1 680/3/1
f 681/1/1 682/2/1 683/3/1 684/4/1
f 685/2/1 686/1/1 687/4/1 688/3/1
f 689/9/1 690/10/1 691/11/1 692/12/1
f 693/2/1 694/1/1 695/4/1 696/3/1
f 697/1/1 698/2/1 699/3/1 700/4/1
f 701/1/1 702/2/1 703/3/1 704/4/1
f 705/2/1 706/1/1 707/4/1 708/3/1
f 709/1/1 710/2/1 711/3/1 712/4/1
f 713/2/1 714/1/1 715/4/1 716/3/1
f 717/1/1 718/2/1 719/3/1 720/4/1
f 721/2/1 722/1/1 723/4/1 724/3/1
f 725/1/1 726/2/1 727/3/1 728/4/1
f 729/2/1 730/1/1 731/4/1 732/3/1
f 733/5/1 734/6/1 735/7/1 736/8/1
f 737/5/1 738/6/1 739/7/1 740/8/1
f 741/5/1 742/6/1 743/7/1 744/8/1
f 745/5/1 746/6/1 747/7/1 748/8/1
f 749/10/1 750/9/1 751/12/1 752/11/1
f 753/1/1 754/2/1 755/3/1 756/4/1
f 757/2/1 758/1/1 759/4/1 760/3/1
f 761/1/1 762/2/1 763/3/1 764/4/1
f 765/2/1 766/1/1 767/4/1 768/3/1
f 769/1/1 770/2/1 771/3/1 772/4/1
f 773/2/1 774/1/1 775/4/1 776/3/1
f 777/1/1 778/2/1 779/3/1 780/4/1
f 781/2/1 782/1/1 783/4/1 784/3/1
f 785/1/1 786/2/1 787/3/1 788/4/1
f 789/2/1 790/1/1 791/4/1 792/3/1
f 793/1/1 794/2/1 795/3/1 796/4/1
f 797/2/1 798/1/1 799/4/1 800/3/1
f 801/5/1 802/6/1 803/7/1 804/8/1
f 805/5/1 806/6/1 807/7/1 808/8/1
f 809/1/1 810/2/1 811/3/1 812/4/1
f 813/2/1 814/1/1 815/4/1 816/3/1
f 817/1/1 818/2/1 819/3/1 820/4/1
f 821/2/1 822/1/1 823/4/1 824/3/1
f 825/9/1 826/10/1 827/11/1 828/12/1
f 829/10/1 830/9/1 831/12/1 832/11/1
f 833/1/1 834/2/1 835/3/1 836/4/1
f 837/2/1 838/1/1 839/4/1 840/3/1
f 841/1/1 842/2/1 843/3/1 844/4/1
f 845/2/1 846/1/1 847/4/1 848/3/1
f 849/1/1 850/2/1 851/3/1 852/4/1
f 853/2/1 854/1/1 855/4/1 856/3/1
f 857/1/1 858/2/1 859/3/1 860/4/1
f 861/2/1 862/1/1 863/4/1 864/3/1
f 865/9/1 866/10/1 867/11/1 868/12/1
f 869/10/1 870/9/1 871/12/1 872/11/1
f 873/5/1 874/6/1 875/7/1 876/8/1
f 877/5/1 878/6/1 879/7/1 880/8/1
f 881/5/1 882/6/1 883/7/1 884/8/1
f 885/5/1 886/6/1 887/7/1 888/8/1
f 889/5/1 890/6/1 891/7/1 892/8/1
f 893/5/1 894/6/1 895/7/1 896/8/1
f 897/5/1 898/6/1 899/7/1 900/8/1
f 901/5/1 902/6/1 903/7/1 904/8/1
f 905/5/1 906/6/1 907/7/1 908/8/1
f 909/5/1 910/6/1 911/7/1 912/8/1
f 913/2/1 914/1/1 915/4/1 916/3/1
f 917/1/1 918/2/1 919/3/1 920/4/1
f 921/1/1 922/2/1 923/3/1 924/4/1
f 925/2/1 926/1/1 927/4/1 928/3/1

