# Tiled2Unity generated file. Do not modify by hand.
# Wavefront file for 'AstralaProperNorth_mesh_0013.obj'

# Vertices (Count = 200)
v -11 -1 0
v -12 -1 0
v -12 0 0
v -11 0 0
v -10 -1 0
v -11 -1 0
v -11 0 0
v -10 0 0
v -6 -1 0
v -7 -1 0
v -7 0 0
v -6 0 0
v -3 -1 0
v -4 -1 0
v -4 0 0
v -3 0 0
v -11 -2 0
v -12 -2 0
v -12 -1 0
v -11 -1 0
v -10 -2 0
v -11 -2 0
v -11 -1 0
v -10 -1 0
v -6 -2 0
v -7 -2 0
v -7 -1 0
v -6 -1 0
v -3 -2 0
v -4 -2 0
v -4 -1 0
v -3 -1 0
v -11 -25 0
v -12 -25 0
v -12 -24 0
v -11 -24 0
v -11 -26 0
v -12 -26 0
v -12 -25 0
v -11 -25 0
v -11 -28 0
v -12 -28 0
v -12 -27 0
v -11 -27 0
v -11 -29 0
v -12 -29 0
v -12 -28 0
v -11 -28 0
v -11 -31 0
v -12 -31 0
v -12 -30 0
v -11 -30 0
v -11 -32 0
v -12 -32 0
v -12 -31 0
v -11 -31 0
v -28 -43 0
v -29 -43 0
v -29 -42 0
v -28 -42 0
v -15 -43 0
v -16 -43 0
v -16 -42 0
v -15 -42 0
v -78 -44 0
v -79 -44 0
v -79 -43 0
v -78 -43 0
v -67 -44 0
v -68 -44 0
v -68 -43 0
v -67 -43 0
v -28 -44 0
v -29 -44 0
v -29 -43 0
v -28 -43 0
v -27 -44 0
v -28 -44 0
v -28 -43 0
v -27 -43 0
v -23 -44 0
v -24 -44 0
v -24 -43 0
v -23 -43 0
v -20 -44 0
v -21 -44 0
v -21 -43 0
v -20 -43 0
v -16 -44 0
v -17 -44 0
v -17 -43 0
v -16 -43 0
v -15 -44 0
v -16 -44 0
v -16 -43 0
v -15 -43 0
v -78 -45 0
v -79 -45 0
v -79 -44 0
v -78 -44 0
v -67 -45 0
v -68 -45 0
v -68 -44 0
v -67 -44 0
v -28 -46 0
v -29 -46 0
v -29 -45 0
v -28 -45 0
v -27 -46 0
v -28 -46 0
v -28 -45 0
v -27 -45 0
v -22 -46 0
v -23 -46 0
v -23 -45 0
v -22 -45 0
v -21 -46 0
v -22 -46 0
v -22 -45 0
v -21 -45 0
v -16 -46 0
v -17 -46 0
v -17 -45 0
v -16 -45 0
v -15 -46 0
v -16 -46 0
v -16 -45 0
v -15 -45 0
v -3 -46 0
v -4 -46 0
v -4 -45 0
v -3 -45 0
v -28 -47 0
v -29 -47 0
v -29 -46 0
v -28 -46 0
v -27 -47 0
v -28 -47 0
v -28 -46 0
v -27 -46 0
v -23 -47 0
v -24 -47 0
v -24 -46 0
v -23 -46 0
v -20 -47 0
v -21 -47 0
v -21 -46 0
v -20 -46 0
v -16 -47 0
v -17 -47 0
v -17 -46 0
v -16 -46 0
v -15 -47 0
v -16 -47 0
v -16 -46 0
v -15 -46 0
v -3 -47 0
v -4 -47 0
v -4 -46 0
v -3 -46 0
v -23 -48 0
v -24 -48 0
v -24 -47 0
v -23 -47 0
v -20 -48 0
v -21 -48 0
v -21 -47 0
v -20 -47 0
v -3 -48 0
v -4 -48 0
v -4 -47 0
v -3 -47 0
v -3 -49 0
v -4 -49 0
v -4 -48 0
v -3 -48 0
v -86 -58 0
v -87 -58 0
v -87 -57 0
v -86 -57 0
v -86 -59 0
v -87 -59 0
v -87 -58 0
v -86 -58 0
v -86 -61 0
v -87 -61 0
v -87 -60 0
v -86 -60 0
v -86 -62 0
v -87 -62 0
v -87 -61 0
v -86 -61 0
v -86 -64 0
v -87 -64 0
v -87 -63 0
v -86 -63 0
v -86 -65 0
v -87 -65 0
v -87 -64 0
v -86 -64 0

# Texture cooridinates (Count = 28)
vt 0.5037879 0.5025252
vt 0.7462121 0.5025252
vt 0.7462121 0.6641414
vt 0.5037879 0.6641414
vt 0.2537879 0.5025252
vt 0.4962121 0.5025252
vt 0.4962121 0.6641414
vt 0.2537879 0.6641414
vt 0.5037879 0.3358586
vt 0.7462121 0.3358586
vt 0.7462121 0.4974747
vt 0.5037879 0.4974747
vt 0.2537879 0.3358586
vt 0.4962121 0.3358586
vt 0.4962121 0.4974747
vt 0.2537879 0.4974747
vt 0.5037879 0.8358586
vt 0.7462121 0.8358586
vt 0.7462121 0.9974747
vt 0.5037879 0.9974747
vt 0.2537879 0.8358586
vt 0.4962121 0.8358586
vt 0.4962121 0.9974747
vt 0.2537879 0.9974747
vt 0.5037879 0.1691919
vt 0.7462121 0.1691919
vt 0.7462121 0.3308081
vt 0.5037879 0.3308081

# Normal
vn 0 0 -1

# Mesh description
g AstralaProperNorth_mesh_0013

# Faces
f 1/1/1 2/2/1 3/3/1 4/4/1
f 5/1/1 6/2/1 7/3/1 8/4/1
f 9/5/1 10/6/1 11/7/1 12/8/1
f 13/1/1 14/2/1 15/3/1 16/4/1
f 17/9/1 18/10/1 19/11/1 20/12/1
f 21/9/1 22/10/1 23/11/1 24/12/1
f 25/13/1 26/14/1 27/15/1 28/16/1
f 29/9/1 30/10/1 31/11/1 32/12/1
f 33/5/1 34/6/1 35/7/1 36/8/1
f 37/13/1 38/14/1 39/15/1 40/16/1
f 41/5/1 42/6/1 43/7/1 44/8/1
f 45/13/1 46/14/1 47/15/1 48/16/1
f 49/5/1 50/6/1 51/7/1 52/8/1
f 53/13/1 54/14/1 55/15/1 56/16/1
f 57/1/1 58/2/1 59/3/1 60/4/1
f 61/5/1 62/6/1 63/7/1 64/8/1
f 65/1/1 66/2/1 67/3/1 68/4/1
f 69/5/1 70/6/1 71/7/1 72/8/1
f 73/9/1 74/10/1 75/11/1 76/12/1
f 77/17/1 78/18/1 79/19/1 80/20/1
f 81/21/1 82/22/1 83/23/1 84/24/1
f 85/17/1 86/18/1 87/19/1 88/20/1
f 89/21/1 90/22/1 91/23/1 92/24/1
f 93/13/1 94/14/1 95/15/1 96/16/1
f 97/9/1 98/10/1 99/11/1 100/12/1
f 101/13/1 102/14/1 103/15/1 104/16/1
f 105/1/1 106/2/1 107/3/1 108/4/1
f 109/1/1 110/2/1 111/3/1 112/4/1
f 113/25/1 114/26/1 115/27/1 116/28/1
f 117/26/1 118/25/1 119/28/1 120/27/1
f 121/5/1 122/6/1 123/7/1 124/8/1
f 125/5/1 126/6/1 127/7/1 128/8/1
f 129/1/1 130/2/1 131/3/1 132/4/1
f 133/9/1 134/10/1 135/11/1 136/12/1
f 137/9/1 138/10/1 139/11/1 140/12/1
f 141/5/1 142/6/1 143/7/1 144/8/1
f 145/1/1 146/2/1 147/3/1 148/4/1
f 149/13/1 150/14/1 151/15/1 152/16/1
f 153/13/1 154/14/1 155/15/1 156/16/1
f 157/9/1 158/10/1 159/11/1 160/12/1
f 161/13/1 162/14/1 163/15/1 164/16/1
f 165/9/1 166/10/1 167/11/1 168/12/1
f 169/1/1 170/2/1 171/3/1 172/4/1
f 173/9/1 174/10/1 175/11/1 176/12/1
f 177/5/1 178/6/1 179/7/1 180/8/1
f 181/13/1 182/14/1 183/15/1 184/16/1
f 185/5/1 186/6/1 187/7/1 188/8/1
f 189/13/1 190/14/1 191/15/1 192/16/1
f 193/5/1 194/6/1 195/7/1 196/8/1
f 197/13/1 198/14/1 199/15/1 200/16/1

