# Tiled2Unity generated file. Do not modify by hand.
# Wavefront file for 'AstralaProperNorth_mesh_0024.obj'

# Vertices (Count = 624)
v -60 -54 0
v -61 -54 0
v -61 -53 0
v -60 -53 0
v -59 -54 0
v -60 -54 0
v -60 -53 0
v -59 -53 0
v -58 -54 0
v -59 -54 0
v -59 -53 0
v -58 -53 0
v -57 -54 0
v -58 -54 0
v -58 -53 0
v -57 -53 0
v -48 -54 0
v -49 -54 0
v -49 -53 0
v -48 -53 0
v -47 -54 0
v -48 -54 0
v -48 -53 0
v -47 -53 0
v -46 -54 0
v -47 -54 0
v -47 -53 0
v -46 -53 0
v -45 -54 0
v -46 -54 0
v -46 -53 0
v -45 -53 0
v -36 -54 0
v -37 -54 0
v -37 -53 0
v -36 -53 0
v -35 -54 0
v -36 -54 0
v -36 -53 0
v -35 -53 0
v -34 -54 0
v -35 -54 0
v -35 -53 0
v -34 -53 0
v -33 -54 0
v -34 -54 0
v -34 -53 0
v -33 -53 0
v -60 -55 0
v -61 -55 0
v -61 -54 0
v -60 -54 0
v -59 -55 0
v -60 -55 0
v -60 -54 0
v -59 -54 0
v -58 -55 0
v -59 -55 0
v -59 -54 0
v -58 -54 0
v -57 -55 0
v -58 -55 0
v -58 -54 0
v -57 -54 0
v -48 -55 0
v -49 -55 0
v -49 -54 0
v -48 -54 0
v -47 -55 0
v -48 -55 0
v -48 -54 0
v -47 -54 0
v -46 -55 0
v -47 -55 0
v -47 -54 0
v -46 -54 0
v -45 -55 0
v -46 -55 0
v -46 -54 0
v -45 -54 0
v -36 -55 0
v -37 -55 0
v -37 -54 0
v -36 -54 0
v -35 -55 0
v -36 -55 0
v -36 -54 0
v -35 -54 0
v -34 -55 0
v -35 -55 0
v -35 -54 0
v -34 -54 0
v -33 -55 0
v -34 -55 0
v -34 -54 0
v -33 -54 0
v -60 -56 0
v -61 -56 0
v -61 -55 0
v -60 -55 0
v -59 -56 0
v -60 -56 0
v -60 -55 0
v -59 -55 0
v -58 -56 0
v -59 -56 0
v -59 -55 0
v -58 -55 0
v -57 -56 0
v -58 -56 0
v -58 -55 0
v -57 -55 0
v -56 -56 0
v -57 -56 0
v -57 -55 0
v -56 -55 0
v -55 -56 0
v -56 -56 0
v -56 -55 0
v -55 -55 0
v -54 -56 0
v -55 -56 0
v -55 -55 0
v -54 -55 0
v -53 -56 0
v -54 -56 0
v -54 -55 0
v -53 -55 0
v -52 -56 0
v -53 -56 0
v -53 -55 0
v -52 -55 0
v -51 -56 0
v -52 -56 0
v -52 -55 0
v -51 -55 0
v -50 -56 0
v -51 -56 0
v -51 -55 0
v -50 -55 0
v -49 -56 0
v -50 -56 0
v -50 -55 0
v -49 -55 0
v -48 -56 0
v -49 -56 0
v -49 -55 0
v -48 -55 0
v -47 -56 0
v -48 -56 0
v -48 -55 0
v -47 -55 0
v -46 -56 0
v -47 -56 0
v -47 -55 0
v -46 -55 0
v -45 -56 0
v -46 -56 0
v -46 -55 0
v -45 -55 0
v -44 -56 0
v -45 -56 0
v -45 -55 0
v -44 -55 0
v -43 -56 0
v -44 -56 0
v -44 -55 0
v -43 -55 0
v -42 -56 0
v -43 -56 0
v -43 -55 0
v -42 -55 0
v -41 -56 0
v -42 -56 0
v -42 -55 0
v -41 -55 0
v -40 -56 0
v -41 -56 0
v -41 -55 0
v -40 -55 0
v -39 -56 0
v -40 -56 0
v -40 -55 0
v -39 -55 0
v -38 -56 0
v -39 -56 0
v -39 -55 0
v -38 -55 0
v -37 -56 0
v -38 -56 0
v -38 -55 0
v -37 -55 0
v -36 -56 0
v -37 -56 0
v -37 -55 0
v -36 -55 0
v -35 -56 0
v -36 -56 0
v -36 -55 0
v -35 -55 0
v -34 -56 0
v -35 -56 0
v -35 -55 0
v -34 -55 0
v -33 -56 0
v -34 -56 0
v -34 -55 0
v -33 -55 0
v -60 -57 0
v -61 -57 0
v -61 -56 0
v -60 -56 0
v -59 -57 0
v -60 -57 0
v -60 -56 0
v -59 -56 0
v -58 -57 0
v -59 -57 0
v -59 -56 0
v -58 -56 0
v -57 -57 0
v -58 -57 0
v -58 -56 0
v -57 -56 0
v -56 -57 0
v -57 -57 0
v -57 -56 0
v -56 -56 0
v -55 -57 0
v -56 -57 0
v -56 -56 0
v -55 -56 0
v -54 -57 0
v -55 -57 0
v -55 -56 0
v -54 -56 0
v -53 -57 0
v -54 -57 0
v -54 -56 0
v -53 -56 0
v -52 -57 0
v -53 -57 0
v -53 -56 0
v -52 -56 0
v -51 -57 0
v -52 -57 0
v -52 -56 0
v -51 -56 0
v -50 -57 0
v -51 -57 0
v -51 -56 0
v -50 -56 0
v -49 -57 0
v -50 -57 0
v -50 -56 0
v -49 -56 0
v -48 -57 0
v -49 -57 0
v -49 -56 0
v -48 -56 0
v -47 -57 0
v -48 -57 0
v -48 -56 0
v -47 -56 0
v -46 -57 0
v -47 -57 0
v -47 -56 0
v -46 -56 0
v -45 -57 0
v -46 -57 0
v -46 -56 0
v -45 -56 0
v -44 -57 0
v -45 -57 0
v -45 -56 0
v -44 -56 0
v -43 -57 0
v -44 -57 0
v -44 -56 0
v -43 -56 0
v -42 -57 0
v -43 -57 0
v -43 -56 0
v -42 -56 0
v -41 -57 0
v -42 -57 0
v -42 -56 0
v -41 -56 0
v -40 -57 0
v -41 -57 0
v -41 -56 0
v -40 -56 0
v -39 -57 0
v -40 -57 0
v -40 -56 0
v -39 -56 0
v -38 -57 0
v -39 -57 0
v -39 -56 0
v -38 -56 0
v -37 -57 0
v -38 -57 0
v -38 -56 0
v -37 -56 0
v -36 -57 0
v -37 -57 0
v -37 -56 0
v -36 -56 0
v -35 -57 0
v -36 -57 0
v -36 -56 0
v -35 -56 0
v -34 -57 0
v -35 -57 0
v -35 -56 0
v -34 -56 0
v -33 -57 0
v -34 -57 0
v -34 -56 0
v -33 -56 0
v -60 -58 0
v -61 -58 0
v -61 -57 0
v -60 -57 0
v -59 -58 0
v -60 -58 0
v -60 -57 0
v -59 -57 0
v -58 -58 0
v -59 -58 0
v -59 -57 0
v -58 -57 0
v -57 -58 0
v -58 -58 0
v -58 -57 0
v -57 -57 0
v -56 -58 0
v -57 -58 0
v -57 -57 0
v -56 -57 0
v -55 -58 0
v -56 -58 0
v -56 -57 0
v -55 -57 0
v -54 -58 0
v -55 -58 0
v -55 -57 0
v -54 -57 0
v -53 -58 0
v -54 -58 0
v -54 -57 0
v -53 -57 0
v -52 -58 0
v -53 -58 0
v -53 -57 0
v -52 -57 0
v -51 -58 0
v -52 -58 0
v -52 -57 0
v -51 -57 0
v -50 -58 0
v -51 -58 0
v -51 -57 0
v -50 -57 0
v -49 -58 0
v -50 -58 0
v -50 -57 0
v -49 -57 0
v -48 -58 0
v -49 -58 0
v -49 -57 0
v -48 -57 0
v -47 -58 0
v -48 -58 0
v -48 -57 0
v -47 -57 0
v -46 -58 0
v -47 -58 0
v -47 -57 0
v -46 -57 0
v -45 -58 0
v -46 -58 0
v -46 -57 0
v -45 -57 0
v -44 -58 0
v -45 -58 0
v -45 -57 0
v -44 -57 0
v -43 -58 0
v -44 -58 0
v -44 -57 0
v -43 -57 0
v -42 -58 0
v -43 -58 0
v -43 -57 0
v -42 -57 0
v -41 -58 0
v -42 -58 0
v -42 -57 0
v -41 -57 0
v -40 -58 0
v -41 -58 0
v -41 -57 0
v -40 -57 0
v -39 -58 0
v -40 -58 0
v -40 -57 0
v -39 -57 0
v -38 -58 0
v -39 -58 0
v -39 -57 0
v -38 -57 0
v -37 -58 0
v -38 -58 0
v -38 -57 0
v -37 -57 0
v -36 -58 0
v -37 -58 0
v -37 -57 0
v -36 -57 0
v -35 -58 0
v -36 -58 0
v -36 -57 0
v -35 -57 0
v -34 -58 0
v -35 -58 0
v -35 -57 0
v -34 -57 0
v -33 -58 0
v -34 -58 0
v -34 -57 0
v -33 -57 0
v -59 -59 0
v -60 -59 0
v -60 -58 0
v -59 -58 0
v -58 -59 0
v -59 -59 0
v -59 -58 0
v -58 -58 0
v -35 -59 0
v -36 -59 0
v -36 -58 0
v -35 -58 0
v -34 -59 0
v -35 -59 0
v -35 -58 0
v -34 -58 0
v -59 -60 0
v -60 -60 0
v -60 -59 0
v -59 -59 0
v -58 -60 0
v -59 -60 0
v -59 -59 0
v -58 -59 0
v -35 -60 0
v -36 -60 0
v -36 -59 0
v -35 -59 0
v -34 -60 0
v -35 -60 0
v -35 -59 0
v -34 -59 0
v -59 -61 0
v -60 -61 0
v -60 -60 0
v -59 -60 0
v -58 -61 0
v -59 -61 0
v -59 -60 0
v -58 -60 0
v -35 -61 0
v -36 -61 0
v -36 -60 0
v -35 -60 0
v -34 -61 0
v -35 -61 0
v -35 -60 0
v -34 -60 0
v -59 -62 0
v -60 -62 0
v -60 -61 0
v -59 -61 0
v -58 -62 0
v -59 -62 0
v -59 -61 0
v -58 -61 0
v -35 -62 0
v -36 -62 0
v -36 -61 0
v -35 -61 0
v -34 -62 0
v -35 -62 0
v -35 -61 0
v -34 -61 0
v -59 -63 0
v -60 -63 0
v -60 -62 0
v -59 -62 0
v -58 -63 0
v -59 -63 0
v -59 -62 0
v -58 -62 0
v -35 -63 0
v -36 -63 0
v -36 -62 0
v -35 -62 0
v -34 -63 0
v -35 -63 0
v -35 -62 0
v -34 -62 0
v -59 -64 0
v -60 -64 0
v -60 -63 0
v -59 -63 0
v -58 -64 0
v -59 -64 0
v -59 -63 0
v -58 -63 0
v -35 -64 0
v -36 -64 0
v -36 -63 0
v -35 -63 0
v -34 -64 0
v -35 -64 0
v -35 -63 0
v -34 -63 0
v -59 -65 0
v -60 -65 0
v -60 -64 0
v -59 -64 0
v -58 -65 0
v -59 -65 0
v -59 -64 0
v -58 -64 0
v -35 -65 0
v -36 -65 0
v -36 -64 0
v -35 -64 0
v -34 -65 0
v -35 -65 0
v -35 -64 0
v -34 -64 0
v -59 -66 0
v -60 -66 0
v -60 -65 0
v -59 -65 0
v -58 -66 0
v -59 -66 0
v -59 -65 0
v -58 -65 0
v -35 -66 0
v -36 -66 0
v -36 -65 0
v -35 -65 0
v -34 -66 0
v -35 -66 0
v -35 -65 0
v -34 -65 0
v -59 -67 0
v -60 -67 0
v -60 -66 0
v -59 -66 0
v -58 -67 0
v -59 -67 0
v -59 -66 0
v -58 -66 0
v -35 -67 0
v -36 -67 0
v -36 -66 0
v -35 -66 0
v -34 -67 0
v -35 -67 0
v -35 -66 0
v -34 -66 0
v -60 -68 0
v -61 -68 0
v -61 -67 0
v -60 -67 0
v -59 -68 0
v -60 -68 0
v -60 -67 0
v -59 -67 0
v -58 -68 0
v -59 -68 0
v -59 -67 0
v -58 -67 0
v -35 -68 0
v -36 -68 0
v -36 -67 0
v -35 -67 0
v -34 -68 0
v -35 -68 0
v -35 -67 0
v -34 -67 0
v -33 -68 0
v -34 -68 0
v -34 -67 0
v -33 -67 0
v -60 -69 0
v -61 -69 0
v -61 -68 0
v -60 -68 0
v -59 -69 0
v -60 -69 0
v -60 -68 0
v -59 -68 0
v -58 -69 0
v -59 -69 0
v -59 -68 0
v -58 -68 0
v -35 -69 0
v -36 -69 0
v -36 -68 0
v -35 -68 0
v -34 -69 0
v -35 -69 0
v -35 -68 0
v -34 -68 0
v -33 -69 0
v -34 -69 0
v -34 -68 0
v -33 -68 0

# Texture cooridinates (Count = 80)
vt 0.8030303 0.8905724
vt 0.9969697 0.8905724
vt 0.9969697 0.9983165
vt 0.8030303 0.9983165
vt 0.4030303 0.446128
vt 0.5969697 0.446128
vt 0.5969697 0.553872
vt 0.4030303 0.553872
vt 0.003030303 0.8905724
vt 0.1969697 0.8905724
vt 0.1969697 0.9983165
vt 0.003030303 0.9983165
vt 0.8030303 0.7794613
vt 0.9969697 0.7794613
vt 0.9969697 0.8872054
vt 0.8030303 0.8872054
vt 0.6030303 0.5572391
vt 0.7969697 0.5572391
vt 0.7969697 0.6649832
vt 0.6030303 0.6649832
vt 0.003030303 0.7794613
vt 0.1969697 0.7794613
vt 0.1969697 0.8872054
vt 0.003030303 0.8872054
vt 0.8030303 0.6683502
vt 0.9969697 0.6683502
vt 0.9969697 0.7760943
vt 0.8030303 0.7760943
vt 0.4030303 0.8905724
vt 0.5969697 0.8905724
vt 0.5969697 0.9983165
vt 0.4030303 0.9983165
vt 0.2030303 0.8905724
vt 0.3969697 0.8905724
vt 0.3969697 0.9983165
vt 0.2030303 0.9983165
vt 0.6030303 0.8905724
vt 0.7969697 0.8905724
vt 0.7969697 0.9983165
vt 0.6030303 0.9983165
vt 0.4030303 0.7794613
vt 0.5969697 0.7794613
vt 0.5969697 0.8872054
vt 0.4030303 0.8872054
vt 0.003030303 0.6683502
vt 0.1969697 0.6683502
vt 0.1969697 0.7760943
vt 0.003030303 0.7760943
vt 0.8030303 0.5572391
vt 0.9969697 0.5572391
vt 0.9969697 0.6649832
vt 0.8030303 0.6649832
vt 0.2030303 0.7794613
vt 0.3969697 0.7794613
vt 0.3969697 0.8872054
vt 0.2030303 0.8872054
vt 0.6030303 0.7794613
vt 0.7969697 0.7794613
vt 0.7969697 0.8872054
vt 0.6030303 0.8872054
vt 0.003030303 0.5572391
vt 0.1969697 0.5572391
vt 0.1969697 0.6649832
vt 0.003030303 0.6649832
vt 0.8030303 0.446128
vt 0.9969697 0.446128
vt 0.9969697 0.553872
vt 0.8030303 0.553872
vt 0.4030303 0.6683502
vt 0.5969697 0.6683502
vt 0.5969697 0.7760943
vt 0.4030303 0.7760943
vt 0.2030303 0.6683502
vt 0.3969697 0.6683502
vt 0.3969697 0.7760943
vt 0.2030303 0.7760943
vt 0.003030303 0.446128
vt 0.1969697 0.446128
vt 0.1969697 0.553872
vt 0.003030303 0.553872

# Normal
vn 0 0 -1

# Mesh description
g AstralaProperNorth_mesh_0024

# Faces
f 1/1/1 2/2/1 3/3/1 4/4/1
f 5/5/1 6/6/1 7/7/1 8/8/1
f 9/5/1 10/6/1 11/7/1 12/8/1
f 13/9/1 14/10/1 15/11/1 16/12/1
f 17/1/1 18/2/1 19/3/1 20/4/1
f 21/5/1 22/6/1 23/7/1 24/8/1
f 25/5/1 26/6/1 27/7/1 28/8/1
f 29/9/1 30/10/1 31/11/1 32/12/1
f 33/1/1 34/2/1 35/3/1 36/4/1
f 37/5/1 38/6/1 39/7/1 40/8/1
f 41/5/1 42/6/1 43/7/1 44/8/1
f 45/9/1 46/10/1 47/11/1 48/12/1
f 49/13/1 50/14/1 51/15/1 52/16/1
f 53/17/1 54/18/1 55/19/1 56/20/1
f 57/17/1 58/18/1 59/19/1 60/20/1
f 61/21/1 62/22/1 63/23/1 64/24/1
f 65/13/1 66/14/1 67/15/1 68/16/1
f 69/17/1 70/18/1 71/19/1 72/20/1
f 73/17/1 74/18/1 75/19/1 76/20/1
f 77/21/1 78/22/1 79/23/1 80/24/1
f 81/13/1 82/14/1 83/15/1 84/16/1
f 85/17/1 86/18/1 87/19/1 88/20/1
f 89/17/1 90/18/1 91/19/1 92/20/1
f 93/21/1 94/22/1 95/23/1 96/24/1
f 97/25/1 98/26/1 99/27/1 100/28/1
f 101/29/1 102/30/1 103/31/1 104/32/1
f 105/29/1 106/30/1 107/31/1 108/32/1
f 109/33/1 110/34/1 111/35/1 112/36/1
f 113/5/1 114/6/1 115/7/1 116/8/1
f 117/5/1 118/6/1 119/7/1 120/8/1
f 121/5/1 122/6/1 123/7/1 124/8/1
f 125/5/1 126/6/1 127/7/1 128/8/1
f 129/5/1 130/6/1 131/7/1 132/8/1
f 133/5/1 134/6/1 135/7/1 136/8/1
f 137/5/1 138/6/1 139/7/1 140/8/1
f 141/5/1 142/6/1 143/7/1 144/8/1
f 145/37/1 146/38/1 147/39/1 148/40/1
f 149/29/1 150/30/1 151/31/1 152/32/1
f 153/29/1 154/30/1 155/31/1 156/32/1
f 157/33/1 158/34/1 159/35/1 160/36/1
f 161/5/1 162/6/1 163/7/1 164/8/1
f 165/5/1 166/6/1 167/7/1 168/8/1
f 169/5/1 170/6/1 171/7/1 172/8/1
f 173/5/1 174/6/1 175/7/1 176/8/1
f 177/5/1 178/6/1 179/7/1 180/8/1
f 181/5/1 182/6/1 183/7/1 184/8/1
f 185/5/1 186/6/1 187/7/1 188/8/1
f 189/5/1 190/6/1 191/7/1 192/8/1
f 193/37/1 194/38/1 195/39/1 196/40/1
f 197/41/1 198/42/1 199/43/1 200/44/1
f 201/29/1 202/30/1 203/31/1 204/32/1
f 205/45/1 206/46/1 207/47/1 208/48/1
f 209/49/1 210/50/1 211/51/1 212/52/1
f 213/41/1 214/42/1 215/43/1 216/44/1
f 217/41/1 218/42/1 219/43/1 220/44/1
f 221/53/1 222/54/1 223/55/1 224/56/1
f 225/17/1 226/18/1 227/19/1 228/20/1
f 229/17/1 230/18/1 231/19/1 232/20/1
f 233/17/1 234/18/1 235/19/1 236/20/1
f 237/17/1 238/18/1 239/19/1 240/20/1
f 241/17/1 242/18/1 243/19/1 244/20/1
f 245/17/1 246/18/1 247/19/1 248/20/1
f 249/17/1 250/18/1 251/19/1 252/20/1
f 253/17/1 254/18/1 255/19/1 256/20/1
f 257/57/1 258/58/1 259/59/1 260/60/1
f 261/41/1 262/42/1 263/43/1 264/44/1
f 265/29/1 266/30/1 267/31/1 268/32/1
f 269/53/1 270/54/1 271/55/1 272/56/1
f 273/17/1 274/18/1 275/19/1 276/20/1
f 277/17/1 278/18/1 279/19/1 280/20/1
f 281/17/1 282/18/1 283/19/1 284/20/1
f 285/17/1 286/18/1 287/19/1 288/20/1
f 289/17/1 290/18/1 291/19/1 292/20/1
f 293/17/1 294/18/1 295/19/1 296/20/1
f 297/17/1 298/18/1 299/19/1 300/20/1
f 301/17/1 302/18/1 303/19/1 304/20/1
f 305/57/1 306/58/1 307/59/1 308/60/1
f 309/41/1 310/42/1 311/43/1 312/44/1
f 313/29/1 314/30/1 315/31/1 316/32/1
f 317/61/1 318/62/1 319/63/1 320/64/1
f 321/65/1 322/66/1 323/67/1 324/68/1
f 325/25/1 326/26/1 327/27/1 328/28/1
f 329/69/1 330/70/1 331/71/1 332/72/1
f 333/41/1 334/42/1 335/43/1 336/44/1
f 337/41/1 338/42/1 339/43/1 340/44/1
f 341/29/1 342/30/1 343/31/1 344/32/1
f 345/41/1 346/42/1 347/43/1 348/44/1
f 349/29/1 350/30/1 351/31/1 352/32/1
f 353/29/1 354/30/1 355/31/1 356/32/1
f 357/29/1 358/30/1 359/31/1 360/32/1
f 361/41/1 362/42/1 363/43/1 364/44/1
f 365/41/1 366/42/1 367/43/1 368/44/1
f 369/41/1 370/42/1 371/43/1 372/44/1
f 373/29/1 374/30/1 375/31/1 376/32/1
f 377/41/1 378/42/1 379/43/1 380/44/1
f 381/29/1 382/30/1 383/31/1 384/32/1
f 385/41/1 386/42/1 387/43/1 388/44/1
f 389/29/1 390/30/1 391/31/1 392/32/1
f 393/41/1 394/42/1 395/43/1 396/44/1
f 397/29/1 398/30/1 399/31/1 400/32/1
f 401/29/1 402/30/1 403/31/1 404/32/1
f 405/29/1 406/30/1 407/31/1 408/32/1
f 409/41/1 410/42/1 411/43/1 412/44/1
f 413/29/1 414/30/1 415/31/1 416/32/1
f 417/41/1 418/42/1 419/43/1 420/44/1
f 421/73/1 422/74/1 423/75/1 424/76/1
f 425/45/1 426/46/1 427/47/1 428/48/1
f 429/77/1 430/78/1 431/79/1 432/80/1
f 433/25/1 434/26/1 435/27/1 436/28/1
f 437/45/1 438/46/1 439/47/1 440/48/1
f 441/25/1 442/26/1 443/27/1 444/28/1
f 445/45/1 446/46/1 447/47/1 448/48/1
f 449/25/1 450/26/1 451/27/1 452/28/1
f 453/45/1 454/46/1 455/47/1 456/48/1
f 457/25/1 458/26/1 459/27/1 460/28/1
f 461/45/1 462/46/1 463/47/1 464/48/1
f 465/25/1 466/26/1 467/27/1 468/28/1
f 469/45/1 470/46/1 471/47/1 472/48/1
f 473/25/1 474/26/1 475/27/1 476/28/1
f 477/45/1 478/46/1 479/47/1 480/48/1
f 481/25/1 482/26/1 483/27/1 484/28/1
f 485/45/1 486/46/1 487/47/1 488/48/1
f 489/25/1 490/26/1 491/27/1 492/28/1
f 493/45/1 494/46/1 495/47/1 496/48/1
f 497/25/1 498/26/1 499/27/1 500/28/1
f 501/45/1 502/46/1 503/47/1 504/48/1
f 505/25/1 506/26/1 507/27/1 508/28/1
f 509/45/1 510/46/1 511/47/1 512/48/1
f 513/25/1 514/26/1 515/27/1 516/28/1
f 517/45/1 518/46/1 519/47/1 520/48/1
f 521/25/1 522/26/1 523/27/1 524/28/1
f 525/45/1 526/46/1 527/47/1 528/48/1
f 529/25/1 530/26/1 531/27/1 532/28/1
f 533/45/1 534/46/1 535/47/1 536/48/1
f 537/25/1 538/26/1 539/27/1 540/28/1
f 541/45/1 542/46/1 543/47/1 544/48/1
f 545/25/1 546/26/1 547/27/1 548/28/1
f 549/45/1 550/46/1 551/47/1 552/48/1
f 553/25/1 554/26/1 555/27/1 556/28/1
f 557/45/1 558/46/1 559/47/1 560/48/1
f 561/25/1 562/26/1 563/27/1 564/28/1
f 565/45/1 566/46/1 567/47/1 568/48/1
f 569/25/1 570/26/1 571/27/1 572/28/1
f 573/45/1 574/46/1 575/47/1 576/48/1
f 577/1/1 578/2/1 579/3/1 580/4/1
f 581/37/1 582/38/1 583/39/1 584/40/1
f 585/45/1 586/46/1 587/47/1 588/48/1
f 589/25/1 590/26/1 591/27/1 592/28/1
f 593/33/1 594/34/1 595/35/1 596/36/1
f 597/9/1 598/10/1 599/11/1 600/12/1
f 601/13/1 602/14/1 603/15/1 604/16/1
f 605/57/1 606/58/1 607/59/1 608/60/1
f 609/45/1 610/46/1 611/47/1 612/48/1
f 613/25/1 614/26/1 615/27/1 616/28/1
f 617/53/1 618/54/1 619/55/1 620/56/1
f 621/21/1 622/22/1 623/23/1 624/24/1

