# Tiled2Unity generated file. Do not modify by hand.
# Wavefront file for 'AstralaProperNorth_mesh_0016.obj'

# Vertices (Count = 636)
v -116 -1 0
v -117 -1 0
v -117 0 0
v -116 0 0
v -115 -1 0
v -116 -1 0
v -116 0 0
v -115 0 0
v -114 -1 0
v -115 -1 0
v -115 0 0
v -114 0 0
v -113 -1 0
v -114 -1 0
v -114 0 0
v -113 0 0
v -112 -1 0
v -113 -1 0
v -113 0 0
v -112 0 0
v -109 -1 0
v -110 -1 0
v -110 0 0
v -109 0 0
v -108 -1 0
v -109 -1 0
v -109 0 0
v -108 0 0
v -107 -1 0
v -108 -1 0
v -108 0 0
v -107 0 0
v -106 -1 0
v -107 -1 0
v -107 0 0
v -106 0 0
v -105 -1 0
v -106 -1 0
v -106 0 0
v -105 0 0
v -24 -2 0
v -25 -2 0
v -25 -1 0
v -24 -1 0
v -23 -2 0
v -24 -2 0
v -24 -1 0
v -23 -1 0
v -22 -2 0
v -23 -2 0
v -23 -1 0
v -22 -1 0
v -11 -2 0
v -12 -2 0
v -12 -1 0
v -11 -1 0
v -28 -3 0
v -29 -3 0
v -29 -2 0
v -28 -2 0
v -27 -3 0
v -28 -3 0
v -28 -2 0
v -27 -2 0
v -26 -3 0
v -27 -3 0
v -27 -2 0
v -26 -2 0
v -25 -3 0
v -26 -3 0
v -26 -2 0
v -25 -2 0
v -24 -3 0
v -25 -3 0
v -25 -2 0
v -24 -2 0
v -22 -3 0
v -23 -3 0
v -23 -2 0
v -22 -2 0
v -21 -3 0
v -22 -3 0
v -22 -2 0
v -21 -2 0
v -20 -3 0
v -21 -3 0
v -21 -2 0
v -20 -2 0
v -19 -3 0
v -20 -3 0
v -20 -2 0
v -19 -2 0
v -18 -3 0
v -19 -3 0
v -19 -2 0
v -18 -2 0
v -11 -3 0
v -12 -3 0
v -12 -2 0
v -11 -2 0
v -10 -3 0
v -11 -3 0
v -11 -2 0
v -10 -2 0
v -6 -3 0
v -7 -3 0
v -7 -2 0
v -6 -2 0
v -5 -3 0
v -6 -3 0
v -6 -2 0
v -5 -2 0
v -4 -3 0
v -5 -3 0
v -5 -2 0
v -4 -2 0
v -3 -3 0
v -4 -3 0
v -4 -2 0
v -3 -2 0
v -10 -4 0
v -11 -4 0
v -11 -3 0
v -10 -3 0
v -9 -4 0
v -10 -4 0
v -10 -3 0
v -9 -3 0
v -8 -4 0
v -9 -4 0
v -9 -3 0
v -8 -3 0
v -7 -4 0
v -8 -4 0
v -8 -3 0
v -7 -3 0
v -6 -4 0
v -7 -4 0
v -7 -3 0
v -6 -3 0
v -3 -4 0
v -4 -4 0
v -4 -3 0
v -3 -3 0
v -2 -4 0
v -3 -4 0
v -3 -3 0
v -2 -3 0
v -1 -4 0
v -2 -4 0
v -2 -3 0
v -1 -3 0
v 0 -4 0
v -1 -4 0
v -1 -3 0
v 0 -3 0
v -76 -15 0
v -77 -15 0
v -77 -14 0
v -76 -14 0
v -73 -15 0
v -74 -15 0
v -74 -14 0
v -73 -14 0
v -72 -15 0
v -73 -15 0
v -73 -14 0
v -72 -14 0
v -71 -15 0
v -72 -15 0
v -72 -14 0
v -71 -14 0
v -70 -15 0
v -71 -15 0
v -71 -14 0
v -70 -14 0
v -69 -15 0
v -70 -15 0
v -70 -14 0
v -69 -14 0
v -68 -16 0
v -69 -16 0
v -69 -15 0
v -68 -15 0
v -67 -16 0
v -68 -16 0
v -68 -15 0
v -67 -15 0
v -66 -16 0
v -67 -16 0
v -67 -15 0
v -66 -15 0
v -65 -16 0
v -66 -16 0
v -66 -15 0
v -65 -15 0
v -11 -32 0
v -12 -32 0
v -12 -31 0
v -11 -31 0
v -75 -33 0
v -76 -33 0
v -76 -32 0
v -75 -32 0
v -65 -33 0
v -66 -33 0
v -66 -32 0
v -65 -32 0
v -64 -33 0
v -65 -33 0
v -65 -32 0
v -64 -32 0
v -11 -33 0
v -12 -33 0
v -12 -32 0
v -11 -32 0
v -3 -33 0
v -4 -33 0
v -4 -32 0
v -3 -32 0
v -2 -33 0
v -3 -33 0
v -3 -32 0
v -2 -32 0
v -1 -33 0
v -2 -33 0
v -2 -32 0
v -1 -32 0
v -74 -35 0
v -75 -35 0
v -75 -34 0
v -74 -34 0
v -73 -35 0
v -74 -35 0
v -74 -34 0
v -73 -34 0
v -72 -35 0
v -73 -35 0
v -73 -34 0
v -72 -34 0
v -71 -35 0
v -72 -35 0
v -72 -34 0
v -71 -34 0
v -70 -35 0
v -71 -35 0
v -71 -34 0
v -70 -34 0
v -69 -35 0
v -70 -35 0
v -70 -34 0
v -69 -34 0
v -68 -35 0
v -69 -35 0
v -69 -34 0
v -68 -34 0
v -67 -35 0
v -68 -35 0
v -68 -34 0
v -67 -34 0
v -66 -35 0
v -67 -35 0
v -67 -34 0
v -66 -34 0
v -14 -36 0
v -15 -36 0
v -15 -35 0
v -14 -35 0
v -13 -36 0
v -14 -36 0
v -14 -35 0
v -13 -35 0
v -12 -36 0
v -13 -36 0
v -13 -35 0
v -12 -35 0
v -78 -46 0
v -79 -46 0
v -79 -45 0
v -78 -45 0
v -67 -46 0
v -68 -46 0
v -68 -45 0
v -67 -45 0
v -78 -47 0
v -79 -47 0
v -79 -46 0
v -78 -46 0
v -67 -47 0
v -68 -47 0
v -68 -46 0
v -67 -46 0
v -28 -47 0
v -29 -47 0
v -29 -46 0
v -28 -46 0
v -15 -47 0
v -16 -47 0
v -16 -46 0
v -15 -46 0
v -28 -48 0
v -29 -48 0
v -29 -47 0
v -28 -47 0
v -27 -48 0
v -28 -48 0
v -28 -47 0
v -27 -47 0
v -23 -48 0
v -24 -48 0
v -24 -47 0
v -23 -47 0
v -20 -48 0
v -21 -48 0
v -21 -47 0
v -20 -47 0
v -16 -48 0
v -17 -48 0
v -17 -47 0
v -16 -47 0
v -15 -48 0
v -16 -48 0
v -16 -47 0
v -15 -47 0
v -27 -49 0
v -28 -49 0
v -28 -48 0
v -27 -48 0
v -26 -49 0
v -27 -49 0
v -27 -48 0
v -26 -48 0
v -25 -49 0
v -26 -49 0
v -26 -48 0
v -25 -48 0
v -24 -49 0
v -25 -49 0
v -25 -48 0
v -24 -48 0
v -23 -49 0
v -24 -49 0
v -24 -48 0
v -23 -48 0
v -20 -49 0
v -21 -49 0
v -21 -48 0
v -20 -48 0
v -19 -49 0
v -20 -49 0
v -20 -48 0
v -19 -48 0
v -18 -49 0
v -19 -49 0
v -19 -48 0
v -18 -48 0
v -17 -49 0
v -18 -49 0
v -18 -48 0
v -17 -48 0
v -16 -49 0
v -17 -49 0
v -17 -48 0
v -16 -48 0
v -77 -50 0
v -78 -50 0
v -78 -49 0
v -77 -49 0
v -76 -50 0
v -77 -50 0
v -77 -49 0
v -76 -49 0
v -75 -50 0
v -76 -50 0
v -76 -49 0
v -75 -49 0
v -74 -50 0
v -75 -50 0
v -75 -49 0
v -74 -49 0
v -71 -50 0
v -72 -50 0
v -72 -49 0
v -71 -49 0
v -70 -50 0
v -71 -50 0
v -71 -49 0
v -70 -49 0
v -69 -50 0
v -70 -50 0
v -70 -49 0
v -69 -49 0
v -68 -50 0
v -69 -50 0
v -69 -49 0
v -68 -49 0
v -3 -50 0
v -4 -50 0
v -4 -49 0
v -3 -49 0
v -3 -51 0
v -4 -51 0
v -4 -50 0
v -3 -50 0
v -2 -51 0
v -3 -51 0
v -3 -50 0
v -2 -50 0
v -1 -51 0
v -2 -51 0
v -2 -50 0
v -1 -50 0
v 0 -51 0
v -1 -51 0
v -1 -50 0
v 0 -50 0
v -60 -61 0
v -61 -61 0
v -61 -60 0
v -60 -60 0
v -33 -61 0
v -34 -61 0
v -34 -60 0
v -33 -60 0
v -60 -62 0
v -61 -62 0
v -61 -61 0
v -60 -61 0
v -57 -62 0
v -58 -62 0
v -58 -61 0
v -57 -61 0
v -56 -62 0
v -57 -62 0
v -57 -61 0
v -56 -61 0
v -55 -62 0
v -56 -62 0
v -56 -61 0
v -55 -61 0
v -54 -62 0
v -55 -62 0
v -55 -61 0
v -54 -61 0
v -53 -62 0
v -54 -62 0
v -54 -61 0
v -53 -61 0
v -52 -62 0
v -53 -62 0
v -53 -61 0
v -52 -61 0
v -51 -62 0
v -52 -62 0
v -52 -61 0
v -51 -61 0
v -50 -62 0
v -51 -62 0
v -51 -61 0
v -50 -61 0
v -49 -62 0
v -50 -62 0
v -50 -61 0
v -49 -61 0
v -48 -62 0
v -49 -62 0
v -49 -61 0
v -48 -61 0
v -47 -62 0
v -48 -62 0
v -48 -61 0
v -47 -61 0
v -46 -62 0
v -47 -62 0
v -47 -61 0
v -46 -61 0
v -45 -62 0
v -46 -62 0
v -46 -61 0
v -45 -61 0
v -44 -62 0
v -45 -62 0
v -45 -61 0
v -44 -61 0
v -43 -62 0
v -44 -62 0
v -44 -61 0
v -43 -61 0
v -42 -62 0
v -43 -62 0
v -43 -61 0
v -42 -61 0
v -41 -62 0
v -42 -62 0
v -42 -61 0
v -41 -61 0
v -40 -62 0
v -41 -62 0
v -41 -61 0
v -40 -61 0
v -39 -62 0
v -40 -62 0
v -40 -61 0
v -39 -61 0
v -38 -62 0
v -39 -62 0
v -39 -61 0
v -38 -61 0
v -37 -62 0
v -38 -62 0
v -38 -61 0
v -37 -61 0
v -36 -62 0
v -37 -62 0
v -37 -61 0
v -36 -61 0
v -33 -62 0
v -34 -62 0
v -34 -61 0
v -33 -61 0
v -86 -65 0
v -87 -65 0
v -87 -64 0
v -86 -64 0
v -5 -65 0
v -6 -65 0
v -6 -64 0
v -5 -64 0
v -2 -65 0
v -3 -65 0
v -3 -64 0
v -2 -64 0
v -1 -65 0
v -2 -65 0
v -2 -64 0
v -1 -64 0
v 0 -65 0
v -1 -65 0
v -1 -64 0
v 0 -64 0
v -86 -66 0
v -87 -66 0
v -87 -65 0
v -86 -65 0
v -123 -67 0
v -124 -67 0
v -124 -66 0
v -123 -66 0
v -122 -67 0
v -123 -67 0
v -123 -66 0
v -122 -66 0
v -79 -68 0
v -80 -68 0
v -80 -67 0
v -79 -67 0
v -78 -68 0
v -79 -68 0
v -79 -67 0
v -78 -67 0
v -77 -68 0
v -78 -68 0
v -78 -67 0
v -77 -67 0
v -76 -68 0
v -77 -68 0
v -77 -67 0
v -76 -67 0
v -75 -68 0
v -76 -68 0
v -76 -67 0
v -75 -67 0
v -72 -68 0
v -73 -68 0
v -73 -67 0
v -72 -67 0
v -71 -68 0
v -72 -68 0
v -72 -67 0
v -71 -67 0
v -70 -68 0
v -71 -68 0
v -71 -67 0
v -70 -67 0
v -69 -68 0
v -70 -68 0
v -70 -67 0
v -69 -67 0
v -68 -68 0
v -69 -68 0
v -69 -67 0
v -68 -67 0
v -99 -69 0
v -100 -69 0
v -100 -68 0
v -99 -68 0
v -98 -69 0
v -99 -69 0
v -99 -68 0
v -98 -68 0
v -97 -69 0
v -98 -69 0
v -98 -68 0
v -97 -68 0
v -96 -69 0
v -97 -69 0
v -97 -68 0
v -96 -68 0
v -95 -69 0
v -96 -69 0
v -96 -68 0
v -95 -68 0
v -92 -69 0
v -93 -69 0
v -93 -68 0
v -92 -68 0
v -91 -69 0
v -92 -69 0
v -92 -68 0
v -91 -68 0
v -90 -69 0
v -91 -69 0
v -91 -68 0
v -90 -68 0
v -89 -69 0
v -90 -69 0
v -90 -68 0
v -89 -68 0
v -88 -69 0
v -89 -69 0
v -89 -68 0
v -88 -68 0
v -87 -69 0
v -88 -69 0
v -88 -68 0
v -87 -68 0

# Texture cooridinates (Count = 16)
vt 0.002525253 0.5037879
vt 0.1641414 0.5037879
vt 0.1641414 0.7462121
vt 0.002525253 0.7462121
vt 0.1691919 0.7537879
vt 0.3308081 0.7537879
vt 0.3308081 0.9962121
vt 0.1691919 0.9962121
vt 0.4974748 0.7537879
vt 0.3358586 0.7537879
vt 0.3358586 0.9962121
vt 0.4974748 0.9962121
vt 0.1641414 0.7537879
vt 0.002525253 0.7537879
vt 0.002525253 0.9962121
vt 0.1641414 0.9962121

# Normal
vn 0 0 -1

# Mesh description
g AstralaProperNorth_mesh_0016

# Faces
f 1/1/1 2/2/1 3/3/1 4/4/1
f 5/5/1 6/6/1 7/7/1 8/8/1
f 9/5/1 10/6/1 11/7/1 12/8/1
f 13/5/1 14/6/1 15/7/1 16/8/1
f 17/9/1 18/10/1 19/11/1 20/12/1
f 21/10/1 22/9/1 23/12/1 24/11/1
f 25/5/1 26/6/1 27/7/1 28/8/1
f 29/5/1 30/6/1 31/7/1 32/8/1
f 33/5/1 34/6/1 35/7/1 36/8/1
f 37/2/1 38/1/1 39/4/1 40/3/1
f 41/13/1 42/14/1 43/15/1 44/16/1
f 45/5/1 46/6/1 47/7/1 48/8/1
f 49/14/1 50/13/1 51/16/1 52/15/1
f 53/14/1 54/13/1 55/16/1 56/15/1
f 57/5/1 58/6/1 59/7/1 60/8/1
f 61/5/1 62/6/1 63/7/1 64/8/1
f 65/5/1 66/6/1 67/7/1 68/8/1
f 69/5/1 70/6/1 71/7/1 72/8/1
f 73/2/1 74/1/1 75/4/1 76/3/1
f 77/1/1 78/2/1 79/3/1 80/4/1
f 81/5/1 82/6/1 83/7/1 84/8/1
f 85/5/1 86/6/1 87/7/1 88/8/1
f 89/5/1 90/6/1 91/7/1 92/8/1
f 93/5/1 94/6/1 95/7/1 96/8/1
f 97/1/1 98/2/1 99/3/1 100/4/1
f 101/14/1 102/13/1 103/16/1 104/15/1
f 105/13/1 106/14/1 107/15/1 108/16/1
f 109/5/1 110/6/1 111/7/1 112/8/1
f 113/5/1 114/6/1 115/7/1 116/8/1
f 117/14/1 118/13/1 119/16/1 120/15/1
f 121/1/1 122/2/1 123/3/1 124/4/1
f 125/5/1 126/6/1 127/7/1 128/8/1
f 129/5/1 130/6/1 131/7/1 132/8/1
f 133/5/1 134/6/1 135/7/1 136/8/1
f 137/2/1 138/1/1 139/4/1 140/3/1
f 141/1/1 142/2/1 143/3/1 144/4/1
f 145/5/1 146/6/1 147/7/1 148/8/1
f 149/5/1 150/6/1 151/7/1 152/8/1
f 153/5/1 154/6/1 155/7/1 156/8/1
f 157/9/1 158/10/1 159/11/1 160/12/1
f 161/10/1 162/9/1 163/12/1 164/11/1
f 165/5/1 166/6/1 167/7/1 168/8/1
f 169/5/1 170/6/1 171/7/1 172/8/1
f 173/5/1 174/6/1 175/7/1 176/8/1
f 177/9/1 178/10/1 179/11/1 180/12/1
f 181/5/1 182/6/1 183/7/1 184/8/1
f 185/5/1 186/6/1 187/7/1 188/8/1
f 189/5/1 190/6/1 191/7/1 192/8/1
f 193/5/1 194/6/1 195/7/1 196/8/1
f 197/13/1 198/14/1 199/15/1 200/16/1
f 201/9/1 202/10/1 203/11/1 204/12/1
f 205/10/1 206/9/1 207/12/1 208/11/1
f 209/5/1 210/6/1 211/7/1 212/8/1
f 213/2/1 214/1/1 215/4/1 216/3/1
f 217/5/1 218/6/1 219/7/1 220/8/1
f 221/5/1 222/6/1 223/7/1 224/8/1
f 225/9/1 226/10/1 227/11/1 228/12/1
f 229/5/1 230/6/1 231/7/1 232/8/1
f 233/5/1 234/6/1 235/7/1 236/8/1
f 237/5/1 238/6/1 239/7/1 240/8/1
f 241/5/1 242/6/1 243/7/1 244/8/1
f 245/5/1 246/6/1 247/7/1 248/8/1
f 249/5/1 250/6/1 251/7/1 252/8/1
f 253/5/1 254/6/1 255/7/1 256/8/1
f 257/5/1 258/6/1 259/7/1 260/8/1
f 261/5/1 262/6/1 263/7/1 264/8/1
f 265/5/1 266/6/1 267/7/1 268/8/1
f 269/5/1 270/6/1 271/7/1 272/8/1
f 273/5/1 274/6/1 275/7/1 276/8/1
f 277/14/1 278/13/1 279/16/1 280/15/1
f 281/13/1 282/14/1 283/15/1 284/16/1
f 285/1/1 286/2/1 287/3/1 288/4/1
f 289/2/1 290/1/1 291/4/1 292/3/1
f 293/14/1 294/13/1 295/16/1 296/15/1
f 297/13/1 298/14/1 299/15/1 300/16/1
f 301/1/1 302/2/1 303/3/1 304/4/1
f 305/14/1 306/13/1 307/16/1 308/15/1
f 309/13/1 310/14/1 311/15/1 312/16/1
f 313/14/1 314/13/1 315/16/1 316/15/1
f 317/13/1 318/14/1 319/15/1 320/16/1
f 321/2/1 322/1/1 323/4/1 324/3/1
f 325/1/1 326/2/1 327/3/1 328/4/1
f 329/5/1 330/6/1 331/7/1 332/8/1
f 333/5/1 334/6/1 335/7/1 336/8/1
f 337/5/1 338/6/1 339/7/1 340/8/1
f 341/2/1 342/1/1 343/4/1 344/3/1
f 345/1/1 346/2/1 347/3/1 348/4/1
f 349/5/1 350/6/1 351/7/1 352/8/1
f 353/5/1 354/6/1 355/7/1 356/8/1
f 357/5/1 358/6/1 359/7/1 360/8/1
f 361/2/1 362/1/1 363/4/1 364/3/1
f 365/5/1 366/6/1 367/7/1 368/8/1
f 369/5/1 370/6/1 371/7/1 372/8/1
f 373/5/1 374/6/1 375/7/1 376/8/1
f 377/9/1 378/10/1 379/11/1 380/12/1
f 381/10/1 382/9/1 383/12/1 384/11/1
f 385/5/1 386/6/1 387/7/1 388/8/1
f 389/5/1 390/6/1 391/7/1 392/8/1
f 393/5/1 394/6/1 395/7/1 396/8/1
f 397/14/1 398/13/1 399/16/1 400/15/1
f 401/1/1 402/2/1 403/3/1 404/4/1
f 405/5/1 406/6/1 407/7/1 408/8/1
f 409/5/1 410/6/1 411/7/1 412/8/1
f 413/5/1 414/6/1 415/7/1 416/8/1
f 417/14/1 418/13/1 419/16/1 420/15/1
f 421/13/1 422/14/1 423/15/1 424/16/1
f 425/1/1 426/2/1 427/3/1 428/4/1
f 429/10/1 430/9/1 431/12/1 432/11/1
f 433/5/1 434/6/1 435/7/1 436/8/1
f 437/5/1 438/6/1 439/7/1 440/8/1
f 441/5/1 442/6/1 443/7/1 444/8/1
f 445/5/1 446/6/1 447/7/1 448/8/1
f 449/5/1 450/6/1 451/7/1 452/8/1
f 453/5/1 454/6/1 455/7/1 456/8/1
f 457/5/1 458/6/1 459/7/1 460/8/1
f 461/5/1 462/6/1 463/7/1 464/8/1
f 465/5/1 466/6/1 467/7/1 468/8/1
f 469/5/1 470/6/1 471/7/1 472/8/1
f 473/5/1 474/6/1 475/7/1 476/8/1
f 477/5/1 478/6/1 479/7/1 480/8/1
f 481/5/1 482/6/1 483/7/1 484/8/1
f 485/5/1 486/6/1 487/7/1 488/8/1
f 489/5/1 490/6/1 491/7/1 492/8/1
f 493/5/1 494/6/1 495/7/1 496/8/1
f 497/5/1 498/6/1 499/7/1 500/8/1
f 501/5/1 502/6/1 503/7/1 504/8/1
f 505/5/1 506/6/1 507/7/1 508/8/1
f 509/5/1 510/6/1 511/7/1 512/8/1
f 513/9/1 514/10/1 515/11/1 516/12/1
f 517/2/1 518/1/1 519/4/1 520/3/1
f 521/13/1 522/14/1 523/15/1 524/16/1
f 525/9/1 526/10/1 527/11/1 528/12/1
f 529/10/1 530/9/1 531/12/1 532/11/1
f 533/5/1 534/6/1 535/7/1 536/8/1
f 537/5/1 538/6/1 539/7/1 540/8/1
f 541/2/1 542/1/1 543/4/1 544/3/1
f 545/5/1 546/6/1 547/7/1 548/8/1
f 549/5/1 550/6/1 551/7/1 552/8/1
f 553/5/1 554/6/1 555/7/1 556/8/1
f 557/5/1 558/6/1 559/7/1 560/8/1
f 561/5/1 562/6/1 563/7/1 564/8/1
f 565/5/1 566/6/1 567/7/1 568/8/1
f 569/9/1 570/10/1 571/11/1 572/12/1
f 573/10/1 574/9/1 575/12/1 576/11/1
f 577/5/1 578/6/1 579/7/1 580/8/1
f 581/5/1 582/6/1 583/7/1 584/8/1
f 585/5/1 586/6/1 587/7/1 588/8/1
f 589/5/1 590/6/1 591/7/1 592/8/1
f 593/5/1 594/6/1 595/7/1 596/8/1
f 597/5/1 598/6/1 599/7/1 600/8/1
f 601/5/1 602/6/1 603/7/1 604/8/1
f 605/5/1 606/6/1 607/7/1 608/8/1
f 609/9/1 610/10/1 611/11/1 612/12/1
f 613/10/1 614/9/1 615/12/1 616/11/1
f 617/5/1 618/6/1 619/7/1 620/8/1
f 621/5/1 622/6/1 623/7/1 624/8/1
f 625/5/1 626/6/1 627/7/1 628/8/1
f 629/5/1 630/6/1 631/7/1 632/8/1
f 633/5/1 634/6/1 635/7/1 636/8/1

