# Tiled2Unity generated file. Do not modify by hand.
# Wavefront file for 'AstralaProperNorth_mesh_0015.obj'

# Vertices (Count = 16)
v -104 -34 0
v -105 -34 0
v -105 -33 0
v -104 -33 0
v -104 -35 0
v -105 -35 0
v -105 -34 0
v -104 -34 0
v -104 -36 0
v -105 -36 0
v -105 -35 0
v -104 -35 0
v -104 -37 0
v -105 -37 0
v -105 -36 0
v -104 -36 0

# Texture cooridinates (Count = 4)
vt 0.01515152 0.6683502
vt 0.9848485 0.6683502
vt 0.9848485 0.7760943
vt 0.01515152 0.7760943

# Normal
vn 0 0 -1

# Mesh description
g AstralaProperNorth_mesh_0015

# Faces
f 1/1/1 2/2/1 3/3/1 4/4/1
f 5/1/1 6/2/1 7/3/1 8/4/1
f 9/1/1 10/2/1 11/3/1 12/4/1
f 13/1/1 14/2/1 15/3/1 16/4/1

