# Tiled2Unity generated file. Do not modify by hand.
# Wavefront file for 'AstralaProperNorth_mesh_0029.obj'

# Vertices (Count = 64)
v -100 -33 0
v -101 -33 0
v -101 -32 0
v -100 -32 0
v -101 -34 0
v -102 -34 0
v -102 -33 0
v -101 -33 0
v -100 -34 0
v -101 -34 0
v -101 -33 0
v -100 -33 0
v -99 -34 0
v -100 -34 0
v -100 -33 0
v -99 -33 0
v -102 -35 0
v -103 -35 0
v -103 -34 0
v -102 -34 0
v -101 -35 0
v -102 -35 0
v -102 -34 0
v -101 -34 0
v -99 -35 0
v -100 -35 0
v -100 -34 0
v -99 -34 0
v -98 -35 0
v -99 -35 0
v -99 -34 0
v -98 -34 0
v -103 -36 0
v -104 -36 0
v -104 -35 0
v -103 -35 0
v -102 -36 0
v -103 -36 0
v -103 -35 0
v -102 -35 0
v -98 -36 0
v -99 -36 0
v -99 -35 0
v -98 -35 0
v -97 -36 0
v -98 -36 0
v -98 -35 0
v -97 -35 0
v -104 -37 0
v -105 -37 0
v -105 -36 0
v -104 -36 0
v -103 -37 0
v -104 -37 0
v -104 -36 0
v -103 -36 0
v -97 -37 0
v -98 -37 0
v -98 -36 0
v -97 -36 0
v -96 -37 0
v -97 -37 0
v -97 -36 0
v -96 -36 0

# Texture cooridinates (Count = 32)
vt 0.5018939 0.8593073
vt 0.6231061 0.8593073
vt 0.6231061 0.9978355
vt 0.5018939 0.9978355
vt 0.3768939 0.8593073
vt 0.4981061 0.8593073
vt 0.4981061 0.9978355
vt 0.3768939 0.9978355
vt 0.5018939 0.7164502
vt 0.6231061 0.7164502
vt 0.6231061 0.8549783
vt 0.5018939 0.8549783
vt 0.2518939 0.8593073
vt 0.3731061 0.8593073
vt 0.3731061 0.9978355
vt 0.2518939 0.9978355
vt 0.3768939 0.7164502
vt 0.4981061 0.7164502
vt 0.4981061 0.8549783
vt 0.3768939 0.8549783
vt 0.2518939 0.7164502
vt 0.3731061 0.7164502
vt 0.3731061 0.8549783
vt 0.2518939 0.8549783
vt 0.6268939 0.4307359
vt 0.7481061 0.4307359
vt 0.7481061 0.5692641
vt 0.6268939 0.5692641
vt 0.5018939 0.4307359
vt 0.6231061 0.4307359
vt 0.6231061 0.5692641
vt 0.5018939 0.5692641

# Normal
vn 0 0 -1

# Mesh description
g AstralaProperNorth_mesh_0029

# Faces
f 1/1/1 2/2/1 3/3/1 4/4/1
f 5/5/1 6/6/1 7/7/1 8/8/1
f 9/9/1 10/10/1 11/11/1 12/12/1
f 13/13/1 14/14/1 15/15/1 16/16/1
f 17/5/1 18/6/1 19/7/1 20/8/1
f 21/17/1 22/18/1 23/19/1 24/20/1
f 25/21/1 26/22/1 27/23/1 28/24/1
f 29/13/1 30/14/1 31/15/1 32/16/1
f 33/5/1 34/6/1 35/7/1 36/8/1
f 37/17/1 38/18/1 39/19/1 40/20/1
f 41/21/1 42/22/1 43/23/1 44/24/1
f 45/13/1 46/14/1 47/15/1 48/16/1
f 49/25/1 50/26/1 51/27/1 52/28/1
f 53/17/1 54/18/1 55/19/1 56/20/1
f 57/21/1 58/22/1 59/23/1 60/24/1
f 61/29/1 62/30/1 63/31/1 64/32/1

