# Tiled2Unity generated file. Do not modify by hand.
# Wavefront file for 'AstralaProperNorth_mesh_0011.obj'

# Vertices (Count = 16)
v -104 -38 0
v -105 -38 0
v -105 -37 0
v -104 -37 0
v -104 -39 0
v -105 -39 0
v -105 -38 0
v -104 -38 0
v -104 -40 0
v -105 -40 0
v -105 -39 0
v -104 -39 0
v -104 -41 0
v -105 -41 0
v -105 -40 0
v -104 -40 0

# Texture cooridinates (Count = 16)
vt 0.01515152 0.5572391
vt 0.9848485 0.5572391
vt 0.9848485 0.6649832
vt 0.01515152 0.6649832
vt 0.01515152 0.446128
vt 0.9848485 0.446128
vt 0.9848485 0.553872
vt 0.01515152 0.553872
vt 0.01515152 0.2239057
vt 0.9848485 0.2239057
vt 0.9848485 0.3316498
vt 0.01515152 0.3316498
vt 0.01515152 0.1127946
vt 0.9848485 0.1127946
vt 0.9848485 0.2205387
vt 0.01515152 0.2205387

# Normal
vn 0 0 -1

# Mesh description
g AstralaProperNorth_mesh_0011

# Faces
f 1/1/1 2/2/1 3/3/1 4/4/1
f 5/5/1 6/6/1 7/7/1 8/8/1
f 9/9/1 10/10/1 11/11/1 12/12/1
f 13/13/1 14/14/1 15/15/1 16/16/1

