# Tiled2Unity generated file. Do not modify by hand.
# Wavefront file for 'AstralaProperNorth_mesh_0027.obj'

# Vertices (Count = 92)
v -57 -58 0
v -58 -58 0
v -58 -57 0
v -57 -57 0
v -56 -58 0
v -57 -58 0
v -57 -57 0
v -56 -57 0
v -55 -58 0
v -56 -58 0
v -56 -57 0
v -55 -57 0
v -54 -58 0
v -55 -58 0
v -55 -57 0
v -54 -57 0
v -53 -58 0
v -54 -58 0
v -54 -57 0
v -53 -57 0
v -52 -58 0
v -53 -58 0
v -53 -57 0
v -52 -57 0
v -51 -58 0
v -52 -58 0
v -52 -57 0
v -51 -57 0
v -50 -58 0
v -51 -58 0
v -51 -57 0
v -50 -57 0
v -49 -58 0
v -50 -58 0
v -50 -57 0
v -49 -57 0
v -48 -58 0
v -49 -58 0
v -49 -57 0
v -48 -57 0
v -47 -58 0
v -48 -58 0
v -48 -57 0
v -47 -57 0
v -46 -58 0
v -47 -58 0
v -47 -57 0
v -46 -57 0
v -45 -58 0
v -46 -58 0
v -46 -57 0
v -45 -57 0
v -44 -58 0
v -45 -58 0
v -45 -57 0
v -44 -57 0
v -43 -58 0
v -44 -58 0
v -44 -57 0
v -43 -57 0
v -42 -58 0
v -43 -58 0
v -43 -57 0
v -42 -57 0
v -41 -58 0
v -42 -58 0
v -42 -57 0
v -41 -57 0
v -40 -58 0
v -41 -58 0
v -41 -57 0
v -40 -57 0
v -39 -58 0
v -40 -58 0
v -40 -57 0
v -39 -57 0
v -38 -58 0
v -39 -58 0
v -39 -57 0
v -38 -57 0
v -37 -58 0
v -38 -58 0
v -38 -57 0
v -37 -57 0
v -36 -58 0
v -37 -58 0
v -37 -57 0
v -36 -57 0
v -60 -68 0
v -61 -68 0
v -61 -67 0
v -60 -67 0

# Texture cooridinates (Count = 8)
vt 0.4030303 0.446128
vt 0.5969697 0.446128
vt 0.5969697 0.553872
vt 0.4030303 0.553872
vt 0.8030303 0.8905724
vt 0.9969697 0.8905724
vt 0.9969697 0.9983165
vt 0.8030303 0.9983165

# Normal
vn 0 0 -1

# Mesh description
g AstralaProperNorth_mesh_0027

# Faces
f 1/1/1 2/2/1 3/3/1 4/4/1
f 5/1/1 6/2/1 7/3/1 8/4/1
f 9/1/1 10/2/1 11/3/1 12/4/1
f 13/1/1 14/2/1 15/3/1 16/4/1
f 17/1/1 18/2/1 19/3/1 20/4/1
f 21/1/1 22/2/1 23/3/1 24/4/1
f 25/1/1 26/2/1 27/3/1 28/4/1
f 29/1/1 30/2/1 31/3/1 32/4/1
f 33/1/1 34/2/1 35/3/1 36/4/1
f 37/1/1 38/2/1 39/3/1 40/4/1
f 41/1/1 42/2/1 43/3/1 44/4/1
f 45/1/1 46/2/1 47/3/1 48/4/1
f 49/1/1 50/2/1 51/3/1 52/4/1
f 53/1/1 54/2/1 55/3/1 56/4/1
f 57/1/1 58/2/1 59/3/1 60/4/1
f 61/1/1 62/2/1 63/3/1 64/4/1
f 65/1/1 66/2/1 67/3/1 68/4/1
f 69/1/1 70/2/1 71/3/1 72/4/1
f 73/1/1 74/2/1 75/3/1 76/4/1
f 77/1/1 78/2/1 79/3/1 80/4/1
f 81/1/1 82/2/1 83/3/1 84/4/1
f 85/1/1 86/2/1 87/3/1 88/4/1
f 89/5/1 90/6/1 91/7/1 92/8/1

