# Tiled2Unity generated file. Do not modify by hand.
# Wavefront file for 'AstralaProperNorth_mesh_0007.obj'

# Vertices (Count = 424)
v -116 -1 0
v -117 -1 0
v -117 0 0
v -116 0 0
v -105 -1 0
v -106 -1 0
v -106 0 0
v -105 0 0
v -24 -1 0
v -25 -1 0
v -25 0 0
v -24 0 0
v -22 -1 0
v -23 -1 0
v -23 0 0
v -22 0 0
v -11 -1 0
v -12 -1 0
v -12 0 0
v -11 0 0
v -10 -1 0
v -11 -1 0
v -11 0 0
v -10 0 0
v -6 -1 0
v -7 -1 0
v -7 0 0
v -6 0 0
v -3 -1 0
v -4 -1 0
v -4 0 0
v -3 0 0
v -24 -2 0
v -25 -2 0
v -25 -1 0
v -24 -1 0
v -22 -2 0
v -23 -2 0
v -23 -1 0
v -22 -1 0
v -11 -2 0
v -12 -2 0
v -12 -1 0
v -11 -1 0
v -10 -2 0
v -11 -2 0
v -11 -1 0
v -10 -1 0
v -6 -2 0
v -7 -2 0
v -7 -1 0
v -6 -1 0
v -3 -2 0
v -4 -2 0
v -4 -1 0
v -3 -1 0
v -24 -3 0
v -25 -3 0
v -25 -2 0
v -24 -2 0
v -22 -3 0
v -23 -3 0
v -23 -2 0
v -22 -2 0
v -11 -3 0
v -12 -3 0
v -12 -2 0
v -11 -2 0
v -10 -3 0
v -11 -3 0
v -11 -2 0
v -10 -2 0
v -6 -3 0
v -7 -3 0
v -7 -2 0
v -6 -2 0
v -3 -3 0
v -4 -3 0
v -4 -2 0
v -3 -2 0
v -10 -4 0
v -11 -4 0
v -11 -3 0
v -10 -3 0
v -6 -4 0
v -7 -4 0
v -7 -3 0
v -6 -3 0
v -3 -4 0
v -4 -4 0
v -4 -3 0
v -3 -3 0
v -11 -25 0
v -12 -25 0
v -12 -24 0
v -11 -24 0
v -11 -26 0
v -12 -26 0
v -12 -25 0
v -11 -25 0
v -11 -27 0
v -12 -27 0
v -12 -26 0
v -11 -26 0
v -11 -28 0
v -12 -28 0
v -12 -27 0
v -11 -27 0
v -11 -29 0
v -12 -29 0
v -12 -28 0
v -11 -28 0
v -11 -30 0
v -12 -30 0
v -12 -29 0
v -11 -29 0
v -11 -31 0
v -12 -31 0
v -12 -30 0
v -11 -30 0
v -11 -32 0
v -12 -32 0
v -12 -31 0
v -11 -31 0
v -11 -33 0
v -12 -33 0
v -12 -32 0
v -11 -32 0
v -28 -42 0
v -29 -42 0
v -29 -41 0
v -28 -41 0
v -15 -42 0
v -16 -42 0
v -16 -41 0
v -15 -41 0
v -28 -43 0
v -29 -43 0
v -29 -42 0
v -28 -42 0
v -15 -43 0
v -16 -43 0
v -16 -42 0
v -15 -42 0
v -78 -44 0
v -79 -44 0
v -79 -43 0
v -78 -43 0
v -67 -44 0
v -68 -44 0
v -68 -43 0
v -67 -43 0
v -28 -44 0
v -29 -44 0
v -29 -43 0
v -28 -43 0
v -26 -44 0
v -27 -44 0
v -27 -43 0
v -26 -43 0
v -24 -44 0
v -25 -44 0
v -25 -43 0
v -24 -43 0
v -22 -44 0
v -23 -44 0
v -23 -43 0
v -22 -43 0
v -21 -44 0
v -22 -44 0
v -22 -43 0
v -21 -43 0
v -19 -44 0
v -20 -44 0
v -20 -43 0
v -19 -43 0
v -17 -44 0
v -18 -44 0
v -18 -43 0
v -17 -43 0
v -15 -44 0
v -16 -44 0
v -16 -43 0
v -15 -43 0
v -78 -45 0
v -79 -45 0
v -79 -44 0
v -78 -44 0
v -67 -45 0
v -68 -45 0
v -68 -44 0
v -67 -44 0
v -28 -45 0
v -29 -45 0
v -29 -44 0
v -28 -44 0
v -27 -45 0
v -28 -45 0
v -28 -44 0
v -27 -44 0
v -26 -45 0
v -27 -45 0
v -27 -44 0
v -26 -44 0
v -24 -45 0
v -25 -45 0
v -25 -44 0
v -24 -44 0
v -23 -45 0
v -24 -45 0
v -24 -44 0
v -23 -44 0
v -22 -45 0
v -23 -45 0
v -23 -44 0
v -22 -44 0
v -21 -45 0
v -22 -45 0
v -22 -44 0
v -21 -44 0
v -20 -45 0
v -21 -45 0
v -21 -44 0
v -20 -44 0
v -19 -45 0
v -20 -45 0
v -20 -44 0
v -19 -44 0
v -17 -45 0
v -18 -45 0
v -18 -44 0
v -17 -44 0
v -16 -45 0
v -17 -45 0
v -17 -44 0
v -16 -44 0
v -15 -45 0
v -16 -45 0
v -16 -44 0
v -15 -44 0
v -3 -45 0
v -4 -45 0
v -4 -44 0
v -3 -44 0
v -78 -46 0
v -79 -46 0
v -79 -45 0
v -78 -45 0
v -67 -46 0
v -68 -46 0
v -68 -45 0
v -67 -45 0
v -28 -46 0
v -29 -46 0
v -29 -45 0
v -28 -45 0
v -27 -46 0
v -28 -46 0
v -28 -45 0
v -27 -45 0
v -23 -46 0
v -24 -46 0
v -24 -45 0
v -23 -45 0
v -20 -46 0
v -21 -46 0
v -21 -45 0
v -20 -45 0
v -16 -46 0
v -17 -46 0
v -17 -45 0
v -16 -45 0
v -15 -46 0
v -16 -46 0
v -16 -45 0
v -15 -45 0
v -3 -46 0
v -4 -46 0
v -4 -45 0
v -3 -45 0
v -78 -47 0
v -79 -47 0
v -79 -46 0
v -78 -46 0
v -67 -47 0
v -68 -47 0
v -68 -46 0
v -67 -46 0
v -28 -47 0
v -29 -47 0
v -29 -46 0
v -28 -46 0
v -27 -47 0
v -28 -47 0
v -28 -46 0
v -27 -46 0
v -23 -47 0
v -24 -47 0
v -24 -46 0
v -23 -46 0
v -20 -47 0
v -21 -47 0
v -21 -46 0
v -20 -46 0
v -16 -47 0
v -17 -47 0
v -17 -46 0
v -16 -46 0
v -15 -47 0
v -16 -47 0
v -16 -46 0
v -15 -46 0
v -3 -47 0
v -4 -47 0
v -4 -46 0
v -3 -46 0
v -73 -48 0
v -74 -48 0
v -74 -47 0
v -73 -47 0
v -72 -48 0
v -73 -48 0
v -73 -47 0
v -72 -47 0
v -28 -48 0
v -29 -48 0
v -29 -47 0
v -28 -47 0
v -27 -48 0
v -28 -48 0
v -28 -47 0
v -27 -47 0
v -23 -48 0
v -24 -48 0
v -24 -47 0
v -23 -47 0
v -20 -48 0
v -21 -48 0
v -21 -47 0
v -20 -47 0
v -16 -48 0
v -17 -48 0
v -17 -47 0
v -16 -47 0
v -15 -48 0
v -16 -48 0
v -16 -47 0
v -15 -47 0
v -3 -48 0
v -4 -48 0
v -4 -47 0
v -3 -47 0
v -27 -49 0
v -28 -49 0
v -28 -48 0
v -27 -48 0
v -23 -49 0
v -24 -49 0
v -24 -48 0
v -23 -48 0
v -20 -49 0
v -21 -49 0
v -21 -48 0
v -20 -48 0
v -16 -49 0
v -17 -49 0
v -17 -48 0
v -16 -48 0
v -3 -49 0
v -4 -49 0
v -4 -48 0
v -3 -48 0
v -3 -50 0
v -4 -50 0
v -4 -49 0
v -3 -49 0
v -3 -51 0
v -4 -51 0
v -4 -50 0
v -3 -50 0
v -86 -58 0
v -87 -58 0
v -87 -57 0
v -86 -57 0
v -86 -59 0
v -87 -59 0
v -87 -58 0
v -86 -58 0
v -86 -60 0
v -87 -60 0
v -87 -59 0
v -86 -59 0
v -86 -61 0
v -87 -61 0
v -87 -60 0
v -86 -60 0
v -86 -62 0
v -87 -62 0
v -87 -61 0
v -86 -61 0
v -86 -63 0
v -87 -63 0
v -87 -62 0
v -86 -62 0
v -86 -64 0
v -87 -64 0
v -87 -63 0
v -86 -63 0
v -86 -65 0
v -87 -65 0
v -87 -64 0
v -86 -64 0
v -86 -66 0
v -87 -66 0
v -87 -65 0
v -86 -65 0
v -94 -67 0
v -95 -67 0
v -95 -66 0
v -94 -66 0
v -93 -67 0
v -94 -67 0
v -94 -66 0
v -93 -66 0

# Texture cooridinates (Count = 56)
vt 0.7537879 0.00252527
vt 0.9962121 0.00252527
vt 0.9962121 0.1641414
vt 0.7537879 0.1641414
vt 0.003787879 0.00252527
vt 0.2462121 0.00252527
vt 0.2462121 0.1641414
vt 0.003787879 0.1641414
vt 0.003787879 0.3358586
vt 0.2462121 0.3358586
vt 0.2462121 0.4974747
vt 0.003787879 0.4974747
vt 0.7537879 0.3358586
vt 0.9962121 0.3358586
vt 0.9962121 0.4974747
vt 0.7537879 0.4974747
vt 0.7537879 0.5025252
vt 0.9962121 0.5025252
vt 0.9962121 0.6641414
vt 0.7537879 0.6641414
vt 0.003787879 0.5025252
vt 0.2462121 0.5025252
vt 0.2462121 0.6641414
vt 0.003787879 0.6641414
vt 0.003787879 0.1691919
vt 0.2462121 0.1691919
vt 0.2462121 0.3308081
vt 0.003787879 0.3308081
vt 0.7537879 0.1691919
vt 0.9962121 0.1691919
vt 0.9962121 0.3308081
vt 0.7537879 0.3308081
vt 0.7537879 0.669192
vt 0.9962121 0.669192
vt 0.9962121 0.8308081
vt 0.7537879 0.8308081
vt 0.003787879 0.669192
vt 0.2462121 0.669192
vt 0.2462121 0.8308081
vt 0.003787879 0.8308081
vt 0.5037879 0.669192
vt 0.7462121 0.669192
vt 0.7462121 0.8308081
vt 0.5037879 0.8308081
vt 0.2537879 0.669192
vt 0.4962121 0.669192
vt 0.4962121 0.8308081
vt 0.2537879 0.8308081
vt 0.4962121 0.1691919
vt 0.2537879 0.1691919
vt 0.2537879 0.3308081
vt 0.4962121 0.3308081
vt 0.5037879 0.1691919
vt 0.7462121 0.1691919
vt 0.7462121 0.3308081
vt 0.5037879 0.3308081

# Normal
vn 0 0 -1

# Mesh description
g AstralaProperNorth_mesh_0007

# Faces
f 1/1/1 2/2/1 3/3/1 4/4/1
f 5/5/1 6/6/1 7/7/1 8/8/1
f 9/9/1 10/10/1 11/11/1 12/12/1
f 13/13/1 14/14/1 15/15/1 16/16/1
f 17/13/1 18/14/1 19/15/1 20/16/1
f 21/17/1 22/18/1 23/19/1 24/20/1
f 25/21/1 26/22/1 27/23/1 28/24/1
f 29/17/1 30/18/1 31/19/1 32/20/1
f 33/25/1 34/26/1 35/27/1 36/28/1
f 37/29/1 38/30/1 39/31/1 40/32/1
f 41/29/1 42/30/1 43/31/1 44/32/1
f 45/13/1 46/14/1 47/15/1 48/16/1
f 49/9/1 50/10/1 51/11/1 52/12/1
f 53/13/1 54/14/1 55/15/1 56/16/1
f 57/5/1 58/6/1 59/7/1 60/8/1
f 61/1/1 62/2/1 63/3/1 64/4/1
f 65/1/1 66/2/1 67/3/1 68/4/1
f 69/29/1 70/30/1 71/31/1 72/32/1
f 73/25/1 74/26/1 75/27/1 76/28/1
f 77/29/1 78/30/1 79/31/1 80/32/1
f 81/1/1 82/2/1 83/3/1 84/4/1
f 85/5/1 86/6/1 87/7/1 88/8/1
f 89/1/1 90/2/1 91/3/1 92/4/1
f 93/21/1 94/22/1 95/23/1 96/24/1
f 97/21/1 98/22/1 99/23/1 100/24/1
f 101/21/1 102/22/1 103/23/1 104/24/1
f 105/9/1 106/10/1 107/11/1 108/12/1
f 109/9/1 110/10/1 111/11/1 112/12/1
f 113/9/1 114/10/1 115/11/1 116/12/1
f 117/9/1 118/10/1 119/11/1 120/12/1
f 121/25/1 122/26/1 123/27/1 124/28/1
f 125/5/1 126/6/1 127/7/1 128/8/1
f 129/33/1 130/34/1 131/35/1 132/36/1
f 133/37/1 134/38/1 135/39/1 136/40/1
f 137/17/1 138/18/1 139/19/1 140/20/1
f 141/21/1 142/22/1 143/23/1 144/24/1
f 145/17/1 146/18/1 147/19/1 148/20/1
f 149/21/1 150/22/1 151/23/1 152/24/1
f 153/13/1 154/14/1 155/15/1 156/16/1
f 157/41/1 158/42/1 159/43/1 160/44/1
f 161/45/1 162/46/1 163/47/1 164/48/1
f 165/49/1 166/50/1 167/51/1 168/52/1
f 169/50/1 170/49/1 171/52/1 172/51/1
f 173/41/1 174/42/1 175/43/1 176/44/1
f 177/45/1 178/46/1 179/47/1 180/48/1
f 181/9/1 182/10/1 183/11/1 184/12/1
f 185/13/1 186/14/1 187/15/1 188/16/1
f 189/9/1 190/10/1 191/11/1 192/12/1
f 193/13/1 194/14/1 195/15/1 196/16/1
f 197/33/1 198/34/1 199/35/1 200/36/1
f 201/41/1 202/42/1 203/43/1 204/44/1
f 205/45/1 206/46/1 207/47/1 208/48/1
f 209/37/1 210/38/1 211/39/1 212/40/1
f 213/52/1 214/51/1 215/50/1 216/49/1
f 217/51/1 218/52/1 219/49/1 220/50/1
f 221/33/1 222/34/1 223/35/1 224/36/1
f 225/41/1 226/42/1 227/43/1 228/44/1
f 229/45/1 230/46/1 231/47/1 232/48/1
f 233/37/1 234/38/1 235/39/1 236/40/1
f 237/9/1 238/10/1 239/11/1 240/12/1
f 241/33/1 242/34/1 243/35/1 244/36/1
f 245/29/1 246/30/1 247/31/1 248/32/1
f 249/25/1 250/26/1 251/27/1 252/28/1
f 253/13/1 254/14/1 255/15/1 256/16/1
f 257/17/1 258/18/1 259/19/1 260/20/1
f 261/21/1 262/22/1 263/23/1 264/24/1
f 265/17/1 266/18/1 267/19/1 268/20/1
f 269/21/1 270/22/1 271/23/1 272/24/1
f 273/9/1 274/10/1 275/11/1 276/12/1
f 277/17/1 278/18/1 279/19/1 280/20/1
f 281/1/1 282/2/1 283/3/1 284/4/1
f 285/5/1 286/6/1 287/7/1 288/8/1
f 289/29/1 290/30/1 291/31/1 292/32/1
f 293/13/1 294/14/1 295/15/1 296/16/1
f 297/9/1 298/10/1 299/11/1 300/12/1
f 301/13/1 302/14/1 303/15/1 304/16/1
f 305/9/1 306/10/1 307/11/1 308/12/1
f 309/25/1 310/26/1 311/27/1 312/28/1
f 313/13/1 314/14/1 315/15/1 316/16/1
f 317/53/1 318/54/1 319/55/1 320/56/1
f 321/54/1 322/53/1 323/56/1 324/55/1
f 325/1/1 326/2/1 327/3/1 328/4/1
f 329/29/1 330/30/1 331/31/1 332/32/1
f 333/25/1 334/26/1 335/27/1 336/28/1
f 337/29/1 338/30/1 339/31/1 340/32/1
f 341/25/1 342/26/1 343/27/1 344/28/1
f 345/5/1 346/6/1 347/7/1 348/8/1
f 349/13/1 350/14/1 351/15/1 352/16/1
f 353/1/1 354/2/1 355/3/1 356/4/1
f 357/5/1 358/6/1 359/7/1 360/8/1
f 361/1/1 362/2/1 363/3/1 364/4/1
f 365/5/1 366/6/1 367/7/1 368/8/1
f 369/13/1 370/14/1 371/15/1 372/16/1
f 373/29/1 374/30/1 375/31/1 376/32/1
f 377/1/1 378/2/1 379/3/1 380/4/1
f 381/21/1 382/22/1 383/23/1 384/24/1
f 385/21/1 386/22/1 387/23/1 388/24/1
f 389/21/1 390/22/1 391/23/1 392/24/1
f 393/9/1 394/10/1 395/11/1 396/12/1
f 397/9/1 398/10/1 399/11/1 400/12/1
f 401/9/1 402/10/1 403/11/1 404/12/1
f 405/9/1 406/10/1 407/11/1 408/12/1
f 409/25/1 410/26/1 411/27/1 412/28/1
f 413/5/1 414/6/1 415/7/1 416/8/1
f 417/49/1 418/50/1 419/51/1 420/52/1
f 421/50/1 422/49/1 423/52/1 424/51/1

