# Tiled2Unity generated file. Do not modify by hand.
# Wavefront file for 'AstralaProperNorth_mesh_0009.obj'

# Vertices (Count = 196)
v -104 -34 0
v -105 -34 0
v -105 -33 0
v -104 -33 0
v -96 -34 0
v -97 -34 0
v -97 -33 0
v -96 -33 0
v -104 -35 0
v -105 -35 0
v -105 -34 0
v -104 -34 0
v -100 -35 0
v -101 -35 0
v -101 -34 0
v -100 -34 0
v -96 -35 0
v -97 -35 0
v -97 -34 0
v -96 -34 0
v -104 -36 0
v -105 -36 0
v -105 -35 0
v -104 -35 0
v -101 -36 0
v -102 -36 0
v -102 -35 0
v -101 -35 0
v -100 -36 0
v -101 -36 0
v -101 -35 0
v -100 -35 0
v -99 -36 0
v -100 -36 0
v -100 -35 0
v -99 -35 0
v -96 -36 0
v -97 -36 0
v -97 -35 0
v -96 -35 0
v -104 -37 0
v -105 -37 0
v -105 -36 0
v -104 -36 0
v -102 -37 0
v -103 -37 0
v -103 -36 0
v -102 -36 0
v -101 -37 0
v -102 -37 0
v -102 -36 0
v -101 -36 0
v -100 -37 0
v -101 -37 0
v -101 -36 0
v -100 -36 0
v -99 -37 0
v -100 -37 0
v -100 -36 0
v -99 -36 0
v -98 -37 0
v -99 -37 0
v -99 -36 0
v -98 -36 0
v -96 -37 0
v -97 -37 0
v -97 -36 0
v -96 -36 0
v -103 -38 0
v -104 -38 0
v -104 -37 0
v -103 -37 0
v -102 -38 0
v -103 -38 0
v -103 -37 0
v -102 -37 0
v -101 -38 0
v -102 -38 0
v -102 -37 0
v -101 -37 0
v -100 -38 0
v -101 -38 0
v -101 -37 0
v -100 -37 0
v -99 -38 0
v -100 -38 0
v -100 -37 0
v -99 -37 0
v -98 -38 0
v -99 -38 0
v -99 -37 0
v -98 -37 0
v -97 -38 0
v -98 -38 0
v -98 -37 0
v -97 -37 0
v -96 -38 0
v -97 -38 0
v -97 -37 0
v -96 -37 0
v -103 -39 0
v -104 -39 0
v -104 -38 0
v -103 -38 0
v -102 -39 0
v -103 -39 0
v -103 -38 0
v -102 -38 0
v -101 -39 0
v -102 -39 0
v -102 -38 0
v -101 -38 0
v -100 -39 0
v -101 -39 0
v -101 -38 0
v -100 -38 0
v -99 -39 0
v -100 -39 0
v -100 -38 0
v -99 -38 0
v -98 -39 0
v -99 -39 0
v -99 -38 0
v -98 -38 0
v -97 -39 0
v -98 -39 0
v -98 -38 0
v -97 -38 0
v -96 -39 0
v -97 -39 0
v -97 -38 0
v -96 -38 0
v -103 -40 0
v -104 -40 0
v -104 -39 0
v -103 -39 0
v -102 -40 0
v -103 -40 0
v -103 -39 0
v -102 -39 0
v -101 -40 0
v -102 -40 0
v -102 -39 0
v -101 -39 0
v -100 -40 0
v -101 -40 0
v -101 -39 0
v -100 -39 0
v -99 -40 0
v -100 -40 0
v -100 -39 0
v -99 -39 0
v -98 -40 0
v -99 -40 0
v -99 -39 0
v -98 -39 0
v -97 -40 0
v -98 -40 0
v -98 -39 0
v -97 -39 0
v -96 -40 0
v -97 -40 0
v -97 -39 0
v -96 -39 0
v -103 -41 0
v -104 -41 0
v -104 -40 0
v -103 -40 0
v -102 -41 0
v -103 -41 0
v -103 -40 0
v -102 -40 0
v -101 -41 0
v -102 -41 0
v -102 -40 0
v -101 -40 0
v -100 -41 0
v -101 -41 0
v -101 -40 0
v -100 -40 0
v -99 -41 0
v -100 -41 0
v -100 -40 0
v -99 -40 0
v -98 -41 0
v -99 -41 0
v -99 -40 0
v -98 -40 0
v -97 -41 0
v -98 -41 0
v -98 -40 0
v -97 -40 0
v -96 -41 0
v -97 -41 0
v -97 -40 0
v -96 -40 0

# Texture cooridinates (Count = 100)
vt 0.6268939 0.1450216
vt 0.7481061 0.1450216
vt 0.7481061 0.2835498
vt 0.6268939 0.2835498
vt 0.5018939 0.1450216
vt 0.6231061 0.1450216
vt 0.6231061 0.2835498
vt 0.5018939 0.2835498
vt 0.6268939 0.2878788
vt 0.7481061 0.2878788
vt 0.7481061 0.4264069
vt 0.6268939 0.4264069
vt 0.6268939 0.5735931
vt 0.7481061 0.5735931
vt 0.7481061 0.7121212
vt 0.6268939 0.7121212
vt 0.5018939 0.2878788
vt 0.6231061 0.2878788
vt 0.6231061 0.4264069
vt 0.5018939 0.4264069
vt 0.2518939 0.5735931
vt 0.3731061 0.5735931
vt 0.3731061 0.7121212
vt 0.2518939 0.7121212
vt 0.1268939 0.5735931
vt 0.2481061 0.5735931
vt 0.2481061 0.7121212
vt 0.1268939 0.7121212
vt 0.001893939 0.5735931
vt 0.1231061 0.5735931
vt 0.1231061 0.7121212
vt 0.001893939 0.7121212
vt 0.2518939 0.4307359
vt 0.3731061 0.4307359
vt 0.3731061 0.5692641
vt 0.2518939 0.5692641
vt 0.1268939 0.4307359
vt 0.2481061 0.4307359
vt 0.2481061 0.5692641
vt 0.1268939 0.5692641
vt 0.001893939 0.4307359
vt 0.1231061 0.4307359
vt 0.1231061 0.5692641
vt 0.001893939 0.5692641
vt 0.5018939 0.002164483
vt 0.6231061 0.002164483
vt 0.6231061 0.1406927
vt 0.5018939 0.1406927
vt 0.7518939 0.8593073
vt 0.8731061 0.8593073
vt 0.8731061 0.9978355
vt 0.7518939 0.9978355
vt 0.1268939 0.1450216
vt 0.2481061 0.1450216
vt 0.2481061 0.2835498
vt 0.1268939 0.2835498
vt 0.6268939 0.8593073
vt 0.7481061 0.8593073
vt 0.7481061 0.9978355
vt 0.6268939 0.9978355
vt 0.7518939 0.7164502
vt 0.8731061 0.7164502
vt 0.8731061 0.8549783
vt 0.7518939 0.8549783
vt 0.1268939 0.2878788
vt 0.2481061 0.2878788
vt 0.2481061 0.4264069
vt 0.1268939 0.4264069
vt 0.6268939 0.7164502
vt 0.7481061 0.7164502
vt 0.7481061 0.8549783
vt 0.6268939 0.8549783
vt 0.2518939 0.1450216
vt 0.3731061 0.1450216
vt 0.3731061 0.2835498
vt 0.2518939 0.2835498
vt 0.3768939 0.1450216
vt 0.4981061 0.1450216
vt 0.4981061 0.2835498
vt 0.3768939 0.2835498
vt 0.001893939 0.1450216
vt 0.1231061 0.1450216
vt 0.1231061 0.2835498
vt 0.001893939 0.2835498
vt 0.2518939 0.002164483
vt 0.3731061 0.002164483
vt 0.3731061 0.1406927
vt 0.2518939 0.1406927
vt 0.1268939 0.002164483
vt 0.2481061 0.002164483
vt 0.2481061 0.1406927
vt 0.1268939 0.1406927
vt 0.3768939 0.002164483
vt 0.4981061 0.002164483
vt 0.4981061 0.1406927
vt 0.3768939 0.1406927
vt 0.001893939 0.002164483
vt 0.1231061 0.002164483
vt 0.1231061 0.1406927
vt 0.001893939 0.1406927

# Normal
vn 0 0 -1

# Mesh description
g AstralaProperNorth_mesh_0009

# Faces
f 1/1/1 2/2/1 3/3/1 4/4/1
f 5/5/1 6/6/1 7/7/1 8/8/1
f 9/9/1 10/10/1 11/11/1 12/12/1
f 13/13/1 14/14/1 15/15/1 16/16/1
f 17/17/1 18/18/1 19/19/1 20/20/1
f 21/1/1 22/2/1 23/3/1 24/4/1
f 25/21/1 26/22/1 27/23/1 28/24/1
f 29/25/1 30/26/1 31/27/1 32/28/1
f 33/29/1 34/30/1 35/31/1 36/32/1
f 37/5/1 38/6/1 39/7/1 40/8/1
f 41/1/1 42/2/1 43/3/1 44/4/1
f 45/13/1 46/14/1 47/15/1 48/16/1
f 49/33/1 50/34/1 51/35/1 52/36/1
f 53/37/1 54/38/1 55/39/1 56/40/1
f 57/41/1 58/42/1 59/43/1 60/44/1
f 61/13/1 62/14/1 63/15/1 64/16/1
f 65/45/1 66/46/1 67/47/1 68/48/1
f 69/21/1 70/22/1 71/23/1 72/24/1
f 73/25/1 74/26/1 75/27/1 76/28/1
f 77/49/1 78/50/1 79/51/1 80/52/1
f 81/53/1 82/54/1 83/55/1 84/56/1
f 85/57/1 86/58/1 87/59/1 88/60/1
f 89/25/1 90/26/1 91/27/1 92/28/1
f 93/29/1 94/30/1 95/31/1 96/32/1
f 97/5/1 98/6/1 99/7/1 100/8/1
f 101/33/1 102/34/1 103/35/1 104/36/1
f 105/37/1 106/38/1 107/39/1 108/40/1
f 109/61/1 110/62/1 111/63/1 112/64/1
f 113/65/1 114/66/1 115/67/1 116/68/1
f 117/69/1 118/70/1 119/71/1 120/72/1
f 121/37/1 122/38/1 123/39/1 124/40/1
f 125/41/1 126/42/1 127/43/1 128/44/1
f 129/17/1 130/18/1 131/19/1 132/20/1
f 133/73/1 134/74/1 135/75/1 136/76/1
f 137/53/1 138/54/1 139/55/1 140/56/1
f 141/77/1 142/78/1 143/79/1 144/80/1
f 145/53/1 146/54/1 147/55/1 148/56/1
f 149/77/1 150/78/1 151/79/1 152/80/1
f 153/53/1 154/54/1 155/55/1 156/56/1
f 157/81/1 158/82/1 159/83/1 160/84/1
f 161/5/1 162/6/1 163/7/1 164/8/1
f 165/85/1 166/86/1 167/87/1 168/88/1
f 169/89/1 170/90/1 171/91/1 172/92/1
f 173/93/1 174/94/1 175/95/1 176/96/1
f 177/89/1 178/90/1 179/91/1 180/92/1
f 181/93/1 182/94/1 183/95/1 184/96/1
f 185/89/1 186/90/1 187/91/1 188/92/1
f 189/97/1 190/98/1 191/99/1 192/100/1
f 193/45/1 194/46/1 195/47/1 196/48/1

