# Tiled2Unity generated file. Do not modify by hand.
# Wavefront file for 'AstralaProperNorth_mesh_0020.obj'

# Vertices (Count = 88)
v -11 -24 0
v -12 -24 0
v -12 -23 0
v -11 -23 0
v -14 -25 0
v -15 -25 0
v -15 -24 0
v -14 -24 0
v -11 -25 0
v -12 -25 0
v -12 -24 0
v -11 -24 0
v -11 -26 0
v -12 -26 0
v -12 -25 0
v -11 -25 0
v -28 -41 0
v -29 -41 0
v -29 -40 0
v -28 -40 0
v -27 -41 0
v -28 -41 0
v -28 -40 0
v -27 -40 0
v -16 -41 0
v -17 -41 0
v -17 -40 0
v -16 -40 0
v -15 -41 0
v -16 -41 0
v -16 -40 0
v -15 -40 0
v -78 -42 0
v -79 -42 0
v -79 -41 0
v -78 -41 0
v -77 -42 0
v -78 -42 0
v -78 -41 0
v -77 -41 0
v -68 -42 0
v -69 -42 0
v -69 -41 0
v -68 -41 0
v -67 -42 0
v -68 -42 0
v -68 -41 0
v -67 -41 0
v -27 -42 0
v -28 -42 0
v -28 -41 0
v -27 -41 0
v -16 -42 0
v -17 -42 0
v -17 -41 0
v -16 -41 0
v -78 -43 0
v -79 -43 0
v -79 -42 0
v -78 -42 0
v -77 -43 0
v -78 -43 0
v -78 -42 0
v -77 -42 0
v -68 -43 0
v -69 -43 0
v -69 -42 0
v -68 -42 0
v -67 -43 0
v -68 -43 0
v -68 -42 0
v -67 -42 0
v -3 -44 0
v -4 -44 0
v -4 -43 0
v -3 -43 0
v -2 -44 0
v -3 -44 0
v -3 -43 0
v -2 -43 0
v -2 -45 0
v -3 -45 0
v -3 -44 0
v -2 -44 0
v -89 -58 0
v -90 -58 0
v -90 -57 0
v -89 -57 0

# Texture cooridinates (Count = 36)
vt 0.003787879 0.669192
vt 0.2462121 0.669192
vt 0.2462121 0.8308081
vt 0.003787879 0.8308081
vt 0.7537879 0.5025252
vt 0.9962121 0.5025252
vt 0.9962121 0.6641414
vt 0.7537879 0.6641414
vt 0.003787879 0.5025252
vt 0.2462121 0.5025252
vt 0.2462121 0.6641414
vt 0.003787879 0.6641414
vt 0.003787879 0.3358586
vt 0.2462121 0.3358586
vt 0.2462121 0.4974747
vt 0.003787879 0.4974747
vt 0.7537879 0.8358586
vt 0.9962121 0.8358586
vt 0.9962121 0.9974747
vt 0.7537879 0.9974747
vt 0.5037879 0.669192
vt 0.7462121 0.669192
vt 0.7462121 0.8308081
vt 0.5037879 0.8308081
vt 0.2537879 0.669192
vt 0.4962121 0.669192
vt 0.4962121 0.8308081
vt 0.2537879 0.8308081
vt 0.003787879 0.8358586
vt 0.2462121 0.8358586
vt 0.2462121 0.9974747
vt 0.003787879 0.9974747
vt 0.7537879 0.669192
vt 0.9962121 0.669192
vt 0.9962121 0.8308081
vt 0.7537879 0.8308081

# Normal
vn 0 0 -1

# Mesh description
g AstralaProperNorth_mesh_0020

# Faces
f 1/1/1 2/2/1 3/3/1 4/4/1
f 5/5/1 6/6/1 7/7/1 8/8/1
f 9/9/1 10/10/1 11/11/1 12/12/1
f 13/13/1 14/14/1 15/15/1 16/16/1
f 17/17/1 18/18/1 19/19/1 20/20/1
f 21/21/1 22/22/1 23/23/1 24/24/1
f 25/25/1 26/26/1 27/27/1 28/28/1
f 29/29/1 30/30/1 31/31/1 32/32/1
f 33/17/1 34/18/1 35/19/1 36/20/1
f 37/21/1 38/22/1 39/23/1 40/24/1
f 41/25/1 42/26/1 43/27/1 44/28/1
f 45/29/1 46/30/1 47/31/1 48/32/1
f 49/21/1 50/22/1 51/23/1 52/24/1
f 53/25/1 54/26/1 55/27/1 56/28/1
f 57/33/1 58/34/1 59/35/1 60/36/1
f 61/21/1 62/22/1 63/23/1 64/24/1
f 65/25/1 66/26/1 67/27/1 68/28/1
f 69/1/1 70/2/1 71/3/1 72/4/1
f 73/17/1 74/18/1 75/19/1 76/20/1
f 77/21/1 78/22/1 79/23/1 80/24/1
f 81/21/1 82/22/1 83/23/1 84/24/1
f 85/5/1 86/6/1 87/7/1 88/8/1

