# Tiled2Unity generated file. Do not modify by hand.
# Wavefront file for 'AstralaProperNorth_mesh_0009.obj'

# Vertices (Count = 128)
v -88 -17 0
v -89 -17 0
v -89 -16 0
v -88 -16 0
v -87 -17 0
v -88 -17 0
v -88 -16 0
v -87 -16 0
v -86 -17 0
v -87 -17 0
v -87 -16 0
v -86 -16 0
v -85 -17 0
v -86 -17 0
v -86 -16 0
v -85 -16 0
v -88 -18 0
v -89 -18 0
v -89 -17 0
v -88 -17 0
v -87 -18 0
v -88 -18 0
v -88 -17 0
v -87 -17 0
v -86 -18 0
v -87 -18 0
v -87 -17 0
v -86 -17 0
v -85 -18 0
v -86 -18 0
v -86 -17 0
v -85 -17 0
v -30 -18 0
v -31 -18 0
v -31 -17 0
v -30 -17 0
v -29 -18 0
v -30 -18 0
v -30 -17 0
v -29 -17 0
v -28 -18 0
v -29 -18 0
v -29 -17 0
v -28 -17 0
v -27 -18 0
v -28 -18 0
v -28 -17 0
v -27 -17 0
v -6 -18 0
v -7 -18 0
v -7 -17 0
v -6 -17 0
v -5 -18 0
v -6 -18 0
v -6 -17 0
v -5 -17 0
v -4 -18 0
v -5 -18 0
v -5 -17 0
v -4 -17 0
v -3 -18 0
v -4 -18 0
v -4 -17 0
v -3 -17 0
v -30 -19 0
v -31 -19 0
v -31 -18 0
v -30 -18 0
v -29 -19 0
v -30 -19 0
v -30 -18 0
v -29 -18 0
v -28 -19 0
v -29 -19 0
v -29 -18 0
v -28 -18 0
v -27 -19 0
v -28 -19 0
v -28 -18 0
v -27 -18 0
v -6 -19 0
v -7 -19 0
v -7 -18 0
v -6 -18 0
v -5 -19 0
v -6 -19 0
v -6 -18 0
v -5 -18 0
v -4 -19 0
v -5 -19 0
v -5 -18 0
v -4 -18 0
v -3 -19 0
v -4 -19 0
v -4 -18 0
v -3 -18 0
v -115 -20 0
v -116 -20 0
v -116 -19 0
v -115 -19 0
v -114 -20 0
v -115 -20 0
v -115 -19 0
v -114 -19 0
v -113 -20 0
v -114 -20 0
v -114 -19 0
v -113 -19 0
v -112 -20 0
v -113 -20 0
v -113 -19 0
v -112 -19 0
v -115 -21 0
v -116 -21 0
v -116 -20 0
v -115 -20 0
v -114 -21 0
v -115 -21 0
v -115 -20 0
v -114 -20 0
v -113 -21 0
v -114 -21 0
v -114 -20 0
v -113 -20 0
v -112 -21 0
v -113 -21 0
v -113 -20 0
v -112 -20 0

# Texture cooridinates (Count = 16)
vt 0.6641414 0.2030303
vt 0.5025253 0.2030303
vt 0.5025253 0.3969697
vt 0.6641414 0.3969697
vt 0.8308081 0.0030303
vt 0.6691919 0.0030303
vt 0.6691919 0.1969697
vt 0.8308081 0.1969697
vt 0.6641414 0.0030303
vt 0.5025253 0.0030303
vt 0.5025253 0.1969697
vt 0.6641414 0.1969697
vt 0.4974748 0.0030303
vt 0.3358586 0.0030303
vt 0.3358586 0.1969697
vt 0.4974748 0.1969697

# Normal
vn 0 0 -1

# Mesh description
g AstralaProperNorth_mesh_0009

# Faces
f 1/1/1 2/2/1 3/3/1 4/4/1
f 5/5/1 6/6/1 7/7/1 8/8/1
f 9/6/1 10/5/1 11/8/1 12/7/1
f 13/2/1 14/1/1 15/4/1 16/3/1
f 17/9/1 18/10/1 19/11/1 20/12/1
f 21/13/1 22/14/1 23/15/1 24/16/1
f 25/14/1 26/13/1 27/16/1 28/15/1
f 29/10/1 30/9/1 31/12/1 32/11/1
f 33/1/1 34/2/1 35/3/1 36/4/1
f 37/5/1 38/6/1 39/7/1 40/8/1
f 41/6/1 42/5/1 43/8/1 44/7/1
f 45/2/1 46/1/1 47/4/1 48/3/1
f 49/1/1 50/2/1 51/3/1 52/4/1
f 53/5/1 54/6/1 55/7/1 56/8/1
f 57/6/1 58/5/1 59/8/1 60/7/1
f 61/2/1 62/1/1 63/4/1 64/3/1
f 65/9/1 66/10/1 67/11/1 68/12/1
f 69/13/1 70/14/1 71/15/1 72/16/1
f 73/14/1 74/13/1 75/16/1 76/15/1
f 77/10/1 78/9/1 79/12/1 80/11/1
f 81/9/1 82/10/1 83/11/1 84/12/1
f 85/13/1 86/14/1 87/15/1 88/16/1
f 89/14/1 90/13/1 91/16/1 92/15/1
f 93/10/1 94/9/1 95/12/1 96/11/1
f 97/1/1 98/2/1 99/3/1 100/4/1
f 101/5/1 102/6/1 103/7/1 104/8/1
f 105/6/1 106/5/1 107/8/1 108/7/1
f 109/2/1 110/1/1 111/4/1 112/3/1
f 113/9/1 114/10/1 115/11/1 116/12/1
f 117/13/1 118/14/1 119/15/1 120/16/1
f 121/14/1 122/13/1 123/16/1 124/15/1
f 125/10/1 126/9/1 127/12/1 128/11/1

