# Tiled2Unity generated file. Do not modify by hand.
# Wavefront file for 'woodsTavern_mesh_0003.obj'

# Vertices (Count = 192)
v -22 -40 0
v -23 -40 0
v -23 -39 0
v -22 -39 0
v -23 -40 0
v -24 -40 0
v -24 -39 0
v -23 -39 0
v -24 -40 0
v -25 -40 0
v -25 -39 0
v -24 -39 0
v -25 -40 0
v -26 -40 0
v -26 -39 0
v -25 -39 0
v -26 -40 0
v -27 -40 0
v -27 -39 0
v -26 -39 0
v -27 -40 0
v -28 -40 0
v -28 -39 0
v -27 -39 0
v -28 -40 0
v -29 -40 0
v -29 -39 0
v -28 -39 0
v -29 -40 0
v -30 -40 0
v -30 -39 0
v -29 -39 0
v -30 -40 0
v -31 -40 0
v -31 -39 0
v -30 -39 0
v -31 -40 0
v -32 -40 0
v -32 -39 0
v -31 -39 0
v -32 -40 0
v -33 -40 0
v -33 -39 0
v -32 -39 0
v -33 -40 0
v -34 -40 0
v -34 -39 0
v -33 -39 0
v -34 -40 0
v -35 -40 0
v -35 -39 0
v -34 -39 0
v -35 -40 0
v -36 -40 0
v -36 -39 0
v -35 -39 0
v -22 -41 0
v -23 -41 0
v -23 -40 0
v -22 -40 0
v -35 -41 0
v -36 -41 0
v -36 -40 0
v -35 -40 0
v -22 -42 0
v -23 -42 0
v -23 -41 0
v -22 -41 0
v -35 -42 0
v -36 -42 0
v -36 -41 0
v -35 -41 0
v -22 -43 0
v -23 -43 0
v -23 -42 0
v -22 -42 0
v -35 -43 0
v -36 -43 0
v -36 -42 0
v -35 -42 0
v -22 -44 0
v -23 -44 0
v -23 -43 0
v -22 -43 0
v -35 -44 0
v -36 -44 0
v -36 -43 0
v -35 -43 0
v -22 -45 0
v -23 -45 0
v -23 -44 0
v -22 -44 0
v -35 -45 0
v -36 -45 0
v -36 -44 0
v -35 -44 0
v -22 -46 0
v -23 -46 0
v -23 -45 0
v -22 -45 0
v -35 -46 0
v -36 -46 0
v -36 -45 0
v -35 -45 0
v -22 -47 0
v -23 -47 0
v -23 -46 0
v -22 -46 0
v -35 -47 0
v -36 -47 0
v -36 -46 0
v -35 -46 0
v -22 -48 0
v -23 -48 0
v -23 -47 0
v -22 -47 0
v -35 -48 0
v -36 -48 0
v -36 -47 0
v -35 -47 0
v -22 -49 0
v -23 -49 0
v -23 -48 0
v -22 -48 0
v -35 -49 0
v -36 -49 0
v -36 -48 0
v -35 -48 0
v -22 -50 0
v -23 -50 0
v -23 -49 0
v -22 -49 0
v -35 -50 0
v -36 -50 0
v -36 -49 0
v -35 -49 0
v -22 -51 0
v -23 -51 0
v -23 -50 0
v -22 -50 0
v -35 -51 0
v -36 -51 0
v -36 -50 0
v -35 -50 0
v -22 -52 0
v -23 -52 0
v -23 -51 0
v -22 -51 0
v -23 -52 0
v -24 -52 0
v -24 -51 0
v -23 -51 0
v -24 -52 0
v -25 -52 0
v -25 -51 0
v -24 -51 0
v -25 -52 0
v -26 -52 0
v -26 -51 0
v -25 -51 0
v -26 -52 0
v -27 -52 0
v -27 -51 0
v -26 -51 0
v -27 -52 0
v -28 -52 0
v -28 -51 0
v -27 -51 0
v -28 -52 0
v -29 -52 0
v -29 -51 0
v -28 -51 0
v -29 -52 0
v -30 -52 0
v -30 -51 0
v -29 -51 0
v -30 -52 0
v -31 -52 0
v -31 -51 0
v -30 -51 0
v -31 -52 0
v -32 -52 0
v -32 -51 0
v -31 -51 0
v -32 -52 0
v -33 -52 0
v -33 -51 0
v -32 -51 0
v -35 -52 0
v -36 -52 0
v -36 -51 0
v -35 -51 0

# Texture cooridinates (Count = 12)
vt 0.5025253 0.3358586
vt 0.6641414 0.3358586
vt 0.6641414 0.4974747
vt 0.5025253 0.4974747
vt 0.6641414 0.1691919
vt 0.6641414 0.3308081
vt 0.5025253 0.3308081
vt 0.5025253 0.1691919
vt 0.5025253 0.1641414
vt 0.5025253 0.00252527
vt 0.6641414 0.00252527
vt 0.6641414 0.1641414

# Normal
vn 0 0 -1

# Mesh description
g woodsTavern_mesh_0003

# Faces
f 1/1/1 2/2/1 3/3/1 4/4/1
f 5/5/1 6/6/1 7/7/1 8/8/1
f 9/5/1 10/6/1 11/7/1 12/8/1
f 13/5/1 14/6/1 15/7/1 16/8/1
f 17/5/1 18/6/1 19/7/1 20/8/1
f 21/5/1 22/6/1 23/7/1 24/8/1
f 25/5/1 26/6/1 27/7/1 28/8/1
f 29/5/1 30/6/1 31/7/1 32/8/1
f 33/5/1 34/6/1 35/7/1 36/8/1
f 37/5/1 38/6/1 39/7/1 40/8/1
f 41/5/1 42/6/1 43/7/1 44/8/1
f 45/5/1 46/6/1 47/7/1 48/8/1
f 49/5/1 50/6/1 51/7/1 52/8/1
f 53/2/1 54/3/1 55/4/1 56/1/1
f 57/8/1 58/5/1 59/6/1 60/7/1
f 61/5/1 62/8/1 63/7/1 64/6/1
f 65/8/1 66/5/1 67/6/1 68/7/1
f 69/5/1 70/8/1 71/7/1 72/6/1
f 73/8/1 74/5/1 75/6/1 76/7/1
f 77/5/1 78/8/1 79/7/1 80/6/1
f 81/8/1 82/5/1 83/6/1 84/7/1
f 85/5/1 86/8/1 87/7/1 88/6/1
f 89/8/1 90/5/1 91/6/1 92/7/1
f 93/6/1 94/7/1 95/8/1 96/5/1
f 97/8/1 98/5/1 99/6/1 100/7/1
f 101/6/1 102/7/1 103/8/1 104/5/1
f 105/8/1 106/5/1 107/6/1 108/7/1
f 109/6/1 110/7/1 111/8/1 112/5/1
f 113/8/1 114/5/1 115/6/1 116/7/1
f 117/6/1 118/7/1 119/8/1 120/5/1
f 121/8/1 122/5/1 123/6/1 124/7/1
f 125/6/1 126/7/1 127/8/1 128/5/1
f 129/8/1 130/5/1 131/6/1 132/7/1
f 133/6/1 134/7/1 135/8/1 136/5/1
f 137/8/1 138/5/1 139/6/1 140/7/1
f 141/6/1 142/7/1 143/8/1 144/5/1
f 145/4/1 146/1/1 147/2/1 148/3/1
f 149/7/1 150/8/1 151/5/1 152/6/1
f 153/7/1 154/8/1 155/5/1 156/6/1
f 157/7/1 158/8/1 159/5/1 160/6/1
f 161/7/1 162/8/1 163/5/1 164/6/1
f 165/7/1 166/8/1 167/5/1 168/6/1
f 169/7/1 170/8/1 171/5/1 172/6/1
f 173/7/1 174/8/1 175/5/1 176/6/1
f 177/7/1 178/8/1 179/5/1 180/6/1
f 181/7/1 182/8/1 183/5/1 184/6/1
f 185/9/1 186/10/1 187/11/1 188/12/1
f 189/6/1 190/7/1 191/8/1 192/5/1

