# Tiled2Unity generated file. Do not modify by hand.
# Wavefront file for 'woodsTavern_mesh_0005.obj'

# Vertices (Count = 16)
v -25 -41 0
v -26 -41 0
v -26 -40 0
v -25 -40 0
v -24 -42 0
v -25 -42 0
v -25 -41 0
v -24 -41 0
v -25 -42 0
v -26 -42 0
v -26 -41 0
v -25 -41 0
v -25 -43 0
v -26 -43 0
v -26 -42 0
v -25 -42 0

# Texture cooridinates (Count = 16)
vt 0.1691919 0.8358586
vt 0.3308081 0.8358586
vt 0.3308081 0.9974747
vt 0.1691919 0.9974747
vt 0.5025253 0.8358586
vt 0.6641414 0.8358586
vt 0.6641414 0.9974747
vt 0.5025253 0.9974747
vt 0.1691919 0.669192
vt 0.3308081 0.669192
vt 0.3308081 0.8308081
vt 0.1691919 0.8308081
vt 0.1691919 0.5025252
vt 0.3308081 0.5025252
vt 0.3308081 0.6641414
vt 0.1691919 0.6641414

# Normal
vn 0 0 -1

# Mesh description
g woodsTavern_mesh_0005

# Faces
f 1/1/1 2/2/1 3/3/1 4/4/1
f 5/5/1 6/6/1 7/7/1 8/8/1
f 9/9/1 10/10/1 11/11/1 12/12/1
f 13/13/1 14/14/1 15/15/1 16/16/1

