# Tiled2Unity generated file. Do not modify by hand.
# Wavefront file for 'woodsTavern_mesh_0001.obj'

# Vertices (Count = 400)
v -27 -42 0
v -28 -42 0
v -28 -41 0
v -27 -41 0
v -28 -42 0
v -29 -42 0
v -29 -41 0
v -28 -41 0
v -27 -43 0
v -28 -43 0
v -28 -42 0
v -27 -42 0
v -28 -43 0
v -29 -43 0
v -29 -42 0
v -28 -42 0
v -23 -44 0
v -24 -44 0
v -24 -43 0
v -23 -43 0
v -24 -44 0
v -25 -44 0
v -25 -43 0
v -24 -43 0
v -25 -44 0
v -26 -44 0
v -26 -43 0
v -25 -43 0
v -26 -44 0
v -27 -44 0
v -27 -43 0
v -26 -43 0
v -27 -44 0
v -28 -44 0
v -28 -43 0
v -27 -43 0
v -28 -44 0
v -29 -44 0
v -29 -43 0
v -28 -43 0
v -29 -44 0
v -30 -44 0
v -30 -43 0
v -29 -43 0
v -30 -44 0
v -31 -44 0
v -31 -43 0
v -30 -43 0
v -31 -44 0
v -32 -44 0
v -32 -43 0
v -31 -43 0
v -32 -44 0
v -33 -44 0
v -33 -43 0
v -32 -43 0
v -23 -45 0
v -24 -45 0
v -24 -44 0
v -23 -44 0
v -24 -45 0
v -25 -45 0
v -25 -44 0
v -24 -44 0
v -25 -45 0
v -26 -45 0
v -26 -44 0
v -25 -44 0
v -26 -45 0
v -27 -45 0
v -27 -44 0
v -26 -44 0
v -27 -45 0
v -28 -45 0
v -28 -44 0
v -27 -44 0
v -28 -45 0
v -29 -45 0
v -29 -44 0
v -28 -44 0
v -29 -45 0
v -30 -45 0
v -30 -44 0
v -29 -44 0
v -30 -45 0
v -31 -45 0
v -31 -44 0
v -30 -44 0
v -31 -45 0
v -32 -45 0
v -32 -44 0
v -31 -44 0
v -32 -45 0
v -33 -45 0
v -33 -44 0
v -32 -44 0
v -33 -45 0
v -34 -45 0
v -34 -44 0
v -33 -44 0
v -34 -45 0
v -35 -45 0
v -35 -44 0
v -34 -44 0
v -23 -46 0
v -24 -46 0
v -24 -45 0
v -23 -45 0
v -24 -46 0
v -25 -46 0
v -25 -45 0
v -24 -45 0
v -25 -46 0
v -26 -46 0
v -26 -45 0
v -25 -45 0
v -26 -46 0
v -27 -46 0
v -27 -45 0
v -26 -45 0
v -27 -46 0
v -28 -46 0
v -28 -45 0
v -27 -45 0
v -28 -46 0
v -29 -46 0
v -29 -45 0
v -28 -45 0
v -29 -46 0
v -30 -46 0
v -30 -45 0
v -29 -45 0
v -30 -46 0
v -31 -46 0
v -31 -45 0
v -30 -45 0
v -31 -46 0
v -32 -46 0
v -32 -45 0
v -31 -45 0
v -32 -46 0
v -33 -46 0
v -33 -45 0
v -32 -45 0
v -33 -46 0
v -34 -46 0
v -34 -45 0
v -33 -45 0
v -34 -46 0
v -35 -46 0
v -35 -45 0
v -34 -45 0
v -23 -47 0
v -24 -47 0
v -24 -46 0
v -23 -46 0
v -24 -47 0
v -25 -47 0
v -25 -46 0
v -24 -46 0
v -25 -47 0
v -26 -47 0
v -26 -46 0
v -25 -46 0
v -26 -47 0
v -27 -47 0
v -27 -46 0
v -26 -46 0
v -27 -47 0
v -28 -47 0
v -28 -46 0
v -27 -46 0
v -28 -47 0
v -29 -47 0
v -29 -46 0
v -28 -46 0
v -29 -47 0
v -30 -47 0
v -30 -46 0
v -29 -46 0
v -30 -47 0
v -31 -47 0
v -31 -46 0
v -30 -46 0
v -31 -47 0
v -32 -47 0
v -32 -46 0
v -31 -46 0
v -32 -47 0
v -33 -47 0
v -33 -46 0
v -32 -46 0
v -33 -47 0
v -34 -47 0
v -34 -46 0
v -33 -46 0
v -34 -47 0
v -35 -47 0
v -35 -46 0
v -34 -46 0
v -23 -48 0
v -24 -48 0
v -24 -47 0
v -23 -47 0
v -24 -48 0
v -25 -48 0
v -25 -47 0
v -24 -47 0
v -25 -48 0
v -26 -48 0
v -26 -47 0
v -25 -47 0
v -26 -48 0
v -27 -48 0
v -27 -47 0
v -26 -47 0
v -27 -48 0
v -28 -48 0
v -28 -47 0
v -27 -47 0
v -28 -48 0
v -29 -48 0
v -29 -47 0
v -28 -47 0
v -29 -48 0
v -30 -48 0
v -30 -47 0
v -29 -47 0
v -30 -48 0
v -31 -48 0
v -31 -47 0
v -30 -47 0
v -31 -48 0
v -32 -48 0
v -32 -47 0
v -31 -47 0
v -32 -48 0
v -33 -48 0
v -33 -47 0
v -32 -47 0
v -33 -48 0
v -34 -48 0
v -34 -47 0
v -33 -47 0
v -34 -48 0
v -35 -48 0
v -35 -47 0
v -34 -47 0
v -23 -49 0
v -24 -49 0
v -24 -48 0
v -23 -48 0
v -24 -49 0
v -25 -49 0
v -25 -48 0
v -24 -48 0
v -25 -49 0
v -26 -49 0
v -26 -48 0
v -25 -48 0
v -26 -49 0
v -27 -49 0
v -27 -48 0
v -26 -48 0
v -27 -49 0
v -28 -49 0
v -28 -48 0
v -27 -48 0
v -28 -49 0
v -29 -49 0
v -29 -48 0
v -28 -48 0
v -29 -49 0
v -30 -49 0
v -30 -48 0
v -29 -48 0
v -30 -49 0
v -31 -49 0
v -31 -48 0
v -30 -48 0
v -31 -49 0
v -32 -49 0
v -32 -48 0
v -31 -48 0
v -32 -49 0
v -33 -49 0
v -33 -48 0
v -32 -48 0
v -33 -49 0
v -34 -49 0
v -34 -48 0
v -33 -48 0
v -34 -49 0
v -35 -49 0
v -35 -48 0
v -34 -48 0
v -23 -50 0
v -24 -50 0
v -24 -49 0
v -23 -49 0
v -24 -50 0
v -25 -50 0
v -25 -49 0
v -24 -49 0
v -25 -50 0
v -26 -50 0
v -26 -49 0
v -25 -49 0
v -26 -50 0
v -27 -50 0
v -27 -49 0
v -26 -49 0
v -27 -50 0
v -28 -50 0
v -28 -49 0
v -27 -49 0
v -28 -50 0
v -29 -50 0
v -29 -49 0
v -28 -49 0
v -29 -50 0
v -30 -50 0
v -30 -49 0
v -29 -49 0
v -30 -50 0
v -31 -50 0
v -31 -49 0
v -30 -49 0
v -31 -50 0
v -32 -50 0
v -32 -49 0
v -31 -49 0
v -32 -50 0
v -33 -50 0
v -33 -49 0
v -32 -49 0
v -33 -50 0
v -34 -50 0
v -34 -49 0
v -33 -49 0
v -34 -50 0
v -35 -50 0
v -35 -49 0
v -34 -49 0
v -23 -51 0
v -24 -51 0
v -24 -50 0
v -23 -50 0
v -24 -51 0
v -25 -51 0
v -25 -50 0
v -24 -50 0
v -25 -51 0
v -26 -51 0
v -26 -50 0
v -25 -50 0
v -26 -51 0
v -27 -51 0
v -27 -50 0
v -26 -50 0
v -27 -51 0
v -28 -51 0
v -28 -50 0
v -27 -50 0
v -28 -51 0
v -29 -51 0
v -29 -50 0
v -28 -50 0
v -29 -51 0
v -30 -51 0
v -30 -50 0
v -29 -50 0
v -30 -51 0
v -31 -51 0
v -31 -50 0
v -30 -50 0
v -31 -51 0
v -32 -51 0
v -32 -50 0
v -31 -50 0
v -32 -51 0
v -33 -51 0
v -33 -50 0
v -32 -50 0
v -33 -51 0
v -34 -51 0
v -34 -50 0
v -33 -50 0
v -34 -51 0
v -35 -51 0
v -35 -50 0
v -34 -50 0
v -33 -52 0
v -34 -52 0
v -34 -51 0
v -33 -51 0
v -34 -52 0
v -35 -52 0
v -35 -51 0
v -34 -51 0

# Texture cooridinates (Count = 28)
vt 0.1691919 0.1691919
vt 0.3308081 0.1691919
vt 0.3308081 0.3308081
vt 0.1691919 0.3308081
vt 0.002525253 0.3358586
vt 0.1641414 0.3358586
vt 0.1641414 0.4974747
vt 0.002525253 0.4974747
vt 0.1691919 0.3358586
vt 0.3308081 0.3358586
vt 0.3308081 0.4974747
vt 0.1691919 0.4974747
vt 0.002525253 0.1691919
vt 0.1641414 0.1691919
vt 0.1641414 0.3308081
vt 0.002525253 0.3308081
vt 0.4974748 0.1691919
vt 0.3358586 0.1691919
vt 0.3358586 0.3308081
vt 0.4974748 0.3308081
vt 0.1641414 0.00252527
vt 0.002525253 0.00252527
vt 0.002525253 0.1641414
vt 0.1641414 0.1641414
vt 0.1691919 0.00252527
vt 0.3308081 0.00252527
vt 0.3308081 0.1641414
vt 0.1691919 0.1641414

# Normal
vn 0 0 -1

# Mesh description
g woodsTavern_mesh_0001

# Faces
f 1/1/1 2/2/1 3/3/1 4/4/1
f 5/1/1 6/2/1 7/3/1 8/4/1
f 9/5/1 10/6/1 11/7/1 12/8/1
f 13/6/1 14/5/1 15/8/1 16/7/1
f 17/5/1 18/6/1 19/7/1 20/8/1
f 21/9/1 22/10/1 23/11/1 24/12/1
f 25/9/1 26/10/1 27/11/1 28/12/1
f 29/9/1 30/10/1 31/11/1 32/12/1
f 33/1/1 34/2/1 35/3/1 36/4/1
f 37/1/1 38/2/1 39/3/1 40/4/1
f 41/9/1 42/10/1 43/11/1 44/12/1
f 45/9/1 46/10/1 47/11/1 48/12/1
f 49/9/1 50/10/1 51/11/1 52/12/1
f 53/6/1 54/5/1 55/8/1 56/7/1
f 57/13/1 58/14/1 59/15/1 60/16/1
f 61/1/1 62/2/1 63/3/1 64/4/1
f 65/1/1 66/2/1 67/3/1 68/4/1
f 69/17/1 70/18/1 71/19/1 72/20/1
f 73/1/1 74/2/1 75/3/1 76/4/1
f 77/1/1 78/2/1 79/3/1 80/4/1
f 81/1/1 82/2/1 83/3/1 84/4/1
f 85/1/1 86/2/1 87/3/1 88/4/1
f 89/1/1 90/2/1 91/3/1 92/4/1
f 93/21/1 94/22/1 95/23/1 96/24/1
f 97/9/1 98/10/1 99/11/1 100/12/1
f 101/14/1 102/13/1 103/16/1 104/15/1
f 105/13/1 106/14/1 107/15/1 108/16/1
f 109/1/1 110/2/1 111/3/1 112/4/1
f 113/1/1 114/2/1 115/3/1 116/4/1
f 117/13/1 118/14/1 119/15/1 120/16/1
f 121/1/1 122/2/1 123/3/1 124/4/1
f 125/1/1 126/2/1 127/3/1 128/4/1
f 129/1/1 130/2/1 131/3/1 132/4/1
f 133/1/1 134/2/1 135/3/1 136/4/1
f 137/1/1 138/2/1 139/3/1 140/4/1
f 141/1/1 142/2/1 143/3/1 144/4/1
f 145/1/1 146/2/1 147/3/1 148/4/1
f 149/14/1 150/13/1 151/16/1 152/15/1
f 153/13/1 154/14/1 155/15/1 156/16/1
f 157/1/1 158/2/1 159/3/1 160/4/1
f 161/1/1 162/2/1 163/3/1 164/4/1
f 165/13/1 166/14/1 167/15/1 168/16/1
f 169/1/1 170/2/1 171/3/1 172/4/1
f 173/1/1 174/2/1 175/3/1 176/4/1
f 177/1/1 178/2/1 179/3/1 180/4/1
f 181/1/1 182/2/1 183/3/1 184/4/1
f 185/1/1 186/2/1 187/3/1 188/4/1
f 189/1/1 190/2/1 191/3/1 192/4/1
f 193/1/1 194/2/1 195/3/1 196/4/1
f 197/14/1 198/13/1 199/16/1 200/15/1
f 201/13/1 202/14/1 203/15/1 204/16/1
f 205/1/1 206/2/1 207/3/1 208/4/1
f 209/1/1 210/2/1 211/3/1 212/4/1
f 213/13/1 214/14/1 215/15/1 216/16/1
f 217/1/1 218/2/1 219/3/1 220/4/1
f 221/1/1 222/2/1 223/3/1 224/4/1
f 225/1/1 226/2/1 227/3/1 228/4/1
f 229/1/1 230/2/1 231/3/1 232/4/1
f 233/1/1 234/2/1 235/3/1 236/4/1
f 237/1/1 238/2/1 239/3/1 240/4/1
f 241/1/1 242/2/1 243/3/1 244/4/1
f 245/14/1 246/13/1 247/16/1 248/15/1
f 249/12/1 250/11/1 251/10/1 252/9/1
f 253/12/1 254/11/1 255/10/1 256/9/1
f 257/12/1 258/11/1 259/10/1 260/9/1
f 261/13/1 262/14/1 263/15/1 264/16/1
f 265/1/1 266/2/1 267/3/1 268/4/1
f 269/1/1 270/2/1 271/3/1 272/4/1
f 273/1/1 274/2/1 275/3/1 276/4/1
f 277/1/1 278/2/1 279/3/1 280/4/1
f 281/1/1 282/2/1 283/3/1 284/4/1
f 285/1/1 286/2/1 287/3/1 288/4/1
f 289/1/1 290/2/1 291/3/1 292/4/1
f 293/14/1 294/13/1 295/16/1 296/15/1
f 297/5/1 298/6/1 299/7/1 300/8/1
f 301/9/1 302/10/1 303/11/1 304/12/1
f 305/9/1 306/10/1 307/11/1 308/12/1
f 309/22/1 310/21/1 311/24/1 312/23/1
f 313/1/1 314/2/1 315/3/1 316/4/1
f 317/1/1 318/2/1 319/3/1 320/4/1
f 321/1/1 322/2/1 323/3/1 324/4/1
f 325/1/1 326/2/1 327/3/1 328/4/1
f 329/1/1 330/2/1 331/3/1 332/4/1
f 333/1/1 334/2/1 335/3/1 336/4/1
f 337/1/1 338/2/1 339/3/1 340/4/1
f 341/14/1 342/13/1 343/16/1 344/15/1
f 345/13/1 346/14/1 347/15/1 348/16/1
f 349/1/1 350/2/1 351/3/1 352/4/1
f 353/1/1 354/2/1 355/3/1 356/4/1
f 357/1/1 358/2/1 359/3/1 360/4/1
f 361/1/1 362/2/1 363/3/1 364/4/1
f 365/1/1 366/2/1 367/3/1 368/4/1
f 369/1/1 370/2/1 371/3/1 372/4/1
f 373/1/1 374/2/1 375/3/1 376/4/1
f 377/1/1 378/2/1 379/3/1 380/4/1
f 381/1/1 382/2/1 383/3/1 384/4/1
f 385/1/1 386/2/1 387/3/1 388/4/1
f 389/14/1 390/13/1 391/16/1 392/15/1
f 393/25/1 394/26/1 395/27/1 396/28/1
f 397/26/1 398/25/1 399/28/1 400/27/1

