# Tiled2Unity generated file. Do not modify by hand.
# Wavefront file for 'woodsTavern_mesh_0006.obj'

# Vertices (Count = 16)
v -30 -42 0
v -31 -42 0
v -31 -41 0
v -30 -41 0
v -31 -42 0
v -32 -42 0
v -32 -41 0
v -31 -41 0
v -30 -43 0
v -31 -43 0
v -31 -42 0
v -30 -42 0
v -31 -43 0
v -32 -43 0
v -32 -42 0
v -31 -42 0

# Texture cooridinates (Count = 16)
vt 0.4015152 0.2878788
vt 0.4984848 0.2878788
vt 0.4984848 0.4264069
vt 0.4015152 0.4264069
vt 0.5015152 0.2878788
vt 0.5984849 0.2878788
vt 0.5984849 0.4264069
vt 0.5015152 0.4264069
vt 0.4015152 0.1450216
vt 0.4984848 0.1450216
vt 0.4984848 0.2835498
vt 0.4015152 0.2835498
vt 0.5015152 0.1450216
vt 0.5984849 0.1450216
vt 0.5984849 0.2835498
vt 0.5015152 0.2835498

# Normal
vn 0 0 -1

# Mesh description
g woodsTavern_mesh_0006

# Faces
f 1/1/1 2/2/1 3/3/1 4/4/1
f 5/5/1 6/6/1 7/7/1 8/8/1
f 9/9/1 10/10/1 11/11/1 12/12/1
f 13/13/1 14/14/1 15/15/1 16/16/1

