# Tiled2Unity generated file. Do not modify by hand.
# Wavefront file for 'SolomvaleShop_mesh_0005.obj'

# Vertices (Count = 52)
v -17 -12 0
v -18 -12 0
v -18 -11 0
v -17 -11 0
v -17 -13 0
v -18 -13 0
v -18 -12 0
v -17 -12 0
v -7 -14 0
v -8 -14 0
v -8 -13 0
v -7 -13 0
v -8 -14 0
v -9 -14 0
v -9 -13 0
v -8 -13 0
v -9 -14 0
v -10 -14 0
v -10 -13 0
v -9 -13 0
v -10 -14 0
v -11 -14 0
v -11 -13 0
v -10 -13 0
v -11 -14 0
v -12 -14 0
v -12 -13 0
v -11 -13 0
v -12 -14 0
v -13 -14 0
v -13 -13 0
v -12 -13 0
v -13 -14 0
v -14 -14 0
v -14 -13 0
v -13 -13 0
v -14 -14 0
v -15 -14 0
v -15 -13 0
v -14 -13 0
v -15 -14 0
v -16 -14 0
v -16 -13 0
v -15 -13 0
v -16 -14 0
v -17 -14 0
v -17 -13 0
v -16 -13 0
v -17 -14 0
v -18 -14 0
v -18 -13 0
v -17 -13 0

# Texture cooridinates (Count = 16)
vt 0.8308081 0.3358586
vt 0.6691919 0.3358586
vt 0.6691919 0.4974747
vt 0.8308081 0.4974747
vt 0.8308081 0.1691919
vt 0.6691919 0.1691919
vt 0.6691919 0.3308081
vt 0.8308081 0.3308081
vt 0.6691919 0.00252527
vt 0.8308081 0.00252527
vt 0.8308081 0.1641414
vt 0.6691919 0.1641414
vt 0.8358586 0.00252527
vt 0.9974747 0.00252527
vt 0.9974747 0.1641414
vt 0.8358586 0.1641414

# Normal
vn 0 0 -1

# Mesh description
g SolomvaleShop_mesh_0005

# Faces
f 1/1/1 2/2/1 3/3/1 4/4/1
f 5/5/1 6/6/1 7/7/1 8/8/1
f 9/9/1 10/10/1 11/11/1 12/12/1
f 13/13/1 14/14/1 15/15/1 16/16/1
f 17/13/1 18/14/1 19/15/1 20/16/1
f 21/13/1 22/14/1 23/15/1 24/16/1
f 25/13/1 26/14/1 27/15/1 28/16/1
f 29/13/1 30/14/1 31/15/1 32/16/1
f 33/13/1 34/14/1 35/15/1 36/16/1
f 37/13/1 38/14/1 39/15/1 40/16/1
f 41/13/1 42/14/1 43/15/1 44/16/1
f 45/13/1 46/14/1 47/15/1 48/16/1
f 49/10/1 50/9/1 51/12/1 52/11/1

