# Tiled2Unity generated file. Do not modify by hand.
# Wavefront file for 'SolomvaleJail_mesh_0003.obj'

# Vertices (Count = 292)
v -25 -10 0
v -26 -10 0
v -26 -9 0
v -25 -9 0
v 0 -10 0
v -1 -10 0
v -1 -9 0
v 0 -9 0
v -25 -11 0
v -26 -11 0
v -26 -10 0
v -25 -10 0
v -24 -11 0
v -25 -11 0
v -25 -10 0
v -24 -10 0
v -23 -11 0
v -24 -11 0
v -24 -10 0
v -23 -10 0
v -22 -11 0
v -23 -11 0
v -23 -10 0
v -22 -10 0
v -21 -11 0
v -22 -11 0
v -22 -10 0
v -21 -10 0
v -20 -11 0
v -21 -11 0
v -21 -10 0
v -20 -10 0
v -19 -11 0
v -20 -11 0
v -20 -10 0
v -19 -10 0
v -18 -11 0
v -19 -11 0
v -19 -10 0
v -18 -10 0
v -17 -11 0
v -18 -11 0
v -18 -10 0
v -17 -10 0
v -16 -11 0
v -17 -11 0
v -17 -10 0
v -16 -10 0
v -9 -11 0
v -10 -11 0
v -10 -10 0
v -9 -10 0
v -8 -11 0
v -9 -11 0
v -9 -10 0
v -8 -10 0
v -7 -11 0
v -8 -11 0
v -8 -10 0
v -7 -10 0
v -6 -11 0
v -7 -11 0
v -7 -10 0
v -6 -10 0
v -5 -11 0
v -6 -11 0
v -6 -10 0
v -5 -10 0
v -4 -11 0
v -5 -11 0
v -5 -10 0
v -4 -10 0
v -3 -11 0
v -4 -11 0
v -4 -10 0
v -3 -10 0
v -2 -11 0
v -3 -11 0
v -3 -10 0
v -2 -10 0
v -1 -11 0
v -2 -11 0
v -2 -10 0
v -1 -10 0
v 0 -11 0
v -1 -11 0
v -1 -10 0
v 0 -10 0
v -25 -12 0
v -26 -12 0
v -26 -11 0
v -25 -11 0
v -24 -12 0
v -25 -12 0
v -25 -11 0
v -24 -11 0
v -23 -12 0
v -24 -12 0
v -24 -11 0
v -23 -11 0
v -22 -12 0
v -23 -12 0
v -23 -11 0
v -22 -11 0
v -21 -12 0
v -22 -12 0
v -22 -11 0
v -21 -11 0
v -20 -12 0
v -21 -12 0
v -21 -11 0
v -20 -11 0
v -19 -12 0
v -20 -12 0
v -20 -11 0
v -19 -11 0
v -18 -12 0
v -19 -12 0
v -19 -11 0
v -18 -11 0
v -17 -12 0
v -18 -12 0
v -18 -11 0
v -17 -11 0
v -16 -12 0
v -17 -12 0
v -17 -11 0
v -16 -11 0
v -9 -12 0
v -10 -12 0
v -10 -11 0
v -9 -11 0
v -8 -12 0
v -9 -12 0
v -9 -11 0
v -8 -11 0
v -7 -12 0
v -8 -12 0
v -8 -11 0
v -7 -11 0
v -6 -12 0
v -7 -12 0
v -7 -11 0
v -6 -11 0
v -5 -12 0
v -6 -12 0
v -6 -11 0
v -5 -11 0
v -4 -12 0
v -5 -12 0
v -5 -11 0
v -4 -11 0
v -3 -12 0
v -4 -12 0
v -4 -11 0
v -3 -11 0
v -2 -12 0
v -3 -12 0
v -3 -11 0
v -2 -11 0
v -1 -12 0
v -2 -12 0
v -2 -11 0
v -1 -11 0
v 0 -12 0
v -1 -12 0
v -1 -11 0
v 0 -11 0
v -25 -13 0
v -26 -13 0
v -26 -12 0
v -25 -12 0
v -21 -13 0
v -22 -13 0
v -22 -12 0
v -21 -12 0
v -20 -13 0
v -21 -13 0
v -21 -12 0
v -20 -12 0
v -16 -13 0
v -17 -13 0
v -17 -12 0
v -16 -12 0
v -9 -13 0
v -10 -13 0
v -10 -12 0
v -9 -12 0
v -5 -13 0
v -6 -13 0
v -6 -12 0
v -5 -12 0
v -4 -13 0
v -5 -13 0
v -5 -12 0
v -4 -12 0
v 0 -13 0
v -1 -13 0
v -1 -12 0
v 0 -12 0
v -25 -26 0
v -26 -26 0
v -26 -25 0
v -25 -25 0
v 0 -26 0
v -1 -26 0
v -1 -25 0
v 0 -25 0
v -25 -27 0
v -26 -27 0
v -26 -26 0
v -25 -26 0
v -24 -27 0
v -25 -27 0
v -25 -26 0
v -24 -26 0
v -1 -27 0
v -2 -27 0
v -2 -26 0
v -1 -26 0
v 0 -27 0
v -1 -27 0
v -1 -26 0
v 0 -26 0
v -24 -28 0
v -25 -28 0
v -25 -27 0
v -24 -27 0
v -16 -28 0
v -17 -28 0
v -17 -27 0
v -16 -27 0
v -15 -28 0
v -16 -28 0
v -16 -27 0
v -15 -27 0
v -10 -28 0
v -11 -28 0
v -11 -27 0
v -10 -27 0
v -9 -28 0
v -10 -28 0
v -10 -27 0
v -9 -27 0
v -1 -28 0
v -2 -28 0
v -2 -27 0
v -1 -27 0
v -24 -29 0
v -25 -29 0
v -25 -28 0
v -24 -28 0
v -16 -29 0
v -17 -29 0
v -17 -28 0
v -16 -28 0
v -15 -29 0
v -16 -29 0
v -16 -28 0
v -15 -28 0
v -10 -29 0
v -11 -29 0
v -11 -28 0
v -10 -28 0
v -9 -29 0
v -10 -29 0
v -10 -28 0
v -9 -28 0
v -1 -29 0
v -2 -29 0
v -2 -28 0
v -1 -28 0
v -23 -30 0
v -24 -30 0
v -24 -29 0
v -23 -29 0
v -17 -30 0
v -18 -30 0
v -18 -29 0
v -17 -29 0
v -9 -30 0
v -10 -30 0
v -10 -29 0
v -9 -29 0
v -8 -30 0
v -9 -30 0
v -9 -29 0
v -8 -29 0
v -2 -30 0
v -3 -30 0
v -3 -29 0
v -2 -29 0

# Texture cooridinates (Count = 4)
vt 0.01515152 0.0151515
vt 0.9848485 0.0151515
vt 0.9848485 0.9848485
vt 0.01515152 0.9848485

# Normal
vn 0 0 -1

# Mesh description
g SolomvaleJail_mesh_0003

# Faces
f 1/1/1 2/2/1 3/3/1 4/4/1
f 5/2/1 6/1/1 7/4/1 8/3/1
f 9/1/1 10/2/1 11/3/1 12/4/1
f 13/1/1 14/2/1 15/3/1 16/4/1
f 17/1/1 18/2/1 19/3/1 20/4/1
f 21/1/1 22/2/1 23/3/1 24/4/1
f 25/1/1 26/2/1 27/3/1 28/4/1
f 29/1/1 30/2/1 31/3/1 32/4/1
f 33/1/1 34/2/1 35/3/1 36/4/1
f 37/1/1 38/2/1 39/3/1 40/4/1
f 41/1/1 42/2/1 43/3/1 44/4/1
f 45/1/1 46/2/1 47/3/1 48/4/1
f 49/2/1 50/1/1 51/4/1 52/3/1
f 53/2/1 54/1/1 55/4/1 56/3/1
f 57/2/1 58/1/1 59/4/1 60/3/1
f 61/2/1 62/1/1 63/4/1 64/3/1
f 65/2/1 66/1/1 67/4/1 68/3/1
f 69/2/1 70/1/1 71/4/1 72/3/1
f 73/2/1 74/1/1 75/4/1 76/3/1
f 77/2/1 78/1/1 79/4/1 80/3/1
f 81/2/1 82/1/1 83/4/1 84/3/1
f 85/2/1 86/1/1 87/4/1 88/3/1
f 89/1/1 90/2/1 91/3/1 92/4/1
f 93/1/1 94/2/1 95/3/1 96/4/1
f 97/1/1 98/2/1 99/3/1 100/4/1
f 101/1/1 102/2/1 103/3/1 104/4/1
f 105/1/1 106/2/1 107/3/1 108/4/1
f 109/1/1 110/2/1 111/3/1 112/4/1
f 113/1/1 114/2/1 115/3/1 116/4/1
f 117/1/1 118/2/1 119/3/1 120/4/1
f 121/1/1 122/2/1 123/3/1 124/4/1
f 125/1/1 126/2/1 127/3/1 128/4/1
f 129/2/1 130/1/1 131/4/1 132/3/1
f 133/2/1 134/1/1 135/4/1 136/3/1
f 137/2/1 138/1/1 139/4/1 140/3/1
f 141/2/1 142/1/1 143/4/1 144/3/1
f 145/2/1 146/1/1 147/4/1 148/3/1
f 149/2/1 150/1/1 151/4/1 152/3/1
f 153/2/1 154/1/1 155/4/1 156/3/1
f 157/2/1 158/1/1 159/4/1 160/3/1
f 161/2/1 162/1/1 163/4/1 164/3/1
f 165/2/1 166/1/1 167/4/1 168/3/1
f 169/1/1 170/2/1 171/3/1 172/4/1
f 173/1/1 174/2/1 175/3/1 176/4/1
f 177/1/1 178/2/1 179/3/1 180/4/1
f 181/1/1 182/2/1 183/3/1 184/4/1
f 185/2/1 186/1/1 187/4/1 188/3/1
f 189/2/1 190/1/1 191/4/1 192/3/1
f 193/2/1 194/1/1 195/4/1 196/3/1
f 197/2/1 198/1/1 199/4/1 200/3/1
f 201/1/1 202/2/1 203/3/1 204/4/1
f 205/2/1 206/1/1 207/4/1 208/3/1
f 209/1/1 210/2/1 211/3/1 212/4/1
f 213/1/1 214/2/1 215/3/1 216/4/1
f 217/2/1 218/1/1 219/4/1 220/3/1
f 221/2/1 222/1/1 223/4/1 224/3/1
f 225/1/1 226/2/1 227/3/1 228/4/1
f 229/1/1 230/2/1 231/3/1 232/4/1
f 233/1/1 234/2/1 235/3/1 236/4/1
f 237/2/1 238/1/1 239/4/1 240/3/1
f 241/2/1 242/1/1 243/4/1 244/3/1
f 245/2/1 246/1/1 247/4/1 248/3/1
f 249/1/1 250/2/1 251/3/1 252/4/1
f 253/1/1 254/2/1 255/3/1 256/4/1
f 257/1/1 258/2/1 259/3/1 260/4/1
f 261/2/1 262/1/1 263/4/1 264/3/1
f 265/2/1 266/1/1 267/4/1 268/3/1
f 269/2/1 270/1/1 271/4/1 272/3/1
f 273/1/1 274/2/1 275/3/1 276/4/1
f 277/1/1 278/2/1 279/3/1 280/4/1
f 281/2/1 282/1/1 283/4/1 284/3/1
f 285/2/1 286/1/1 287/4/1 288/3/1
f 289/2/1 290/1/1 291/4/1 292/3/1

