# Tiled2Unity generated file. Do not modify by hand.
# Wavefront file for 'AstralaProperHouse1_mesh_0005.obj'

# Vertices (Count = 296)
v 0 -1 0
v -1 -1 0
v -1 0 0
v 0 0 0
v -1 -1 0
v -2 -1 0
v -2 0 0
v -1 0 0
v -2 -1 0
v -3 -1 0
v -3 0 0
v -2 0 0
v -3 -1 0
v -4 -1 0
v -4 0 0
v -3 0 0
v -4 -1 0
v -5 -1 0
v -5 0 0
v -4 0 0
v -5 -1 0
v -6 -1 0
v -6 0 0
v -5 0 0
v -6 -1 0
v -7 -1 0
v -7 0 0
v -6 0 0
v -7 -1 0
v -8 -1 0
v -8 0 0
v -7 0 0
v -8 -1 0
v -9 -1 0
v -9 0 0
v -8 0 0
v -9 -1 0
v -10 -1 0
v -10 0 0
v -9 0 0
v -10 -1 0
v -11 -1 0
v -11 0 0
v -10 0 0
v -11 -1 0
v -12 -1 0
v -12 0 0
v -11 0 0
v -12 -1 0
v -13 -1 0
v -13 0 0
v -12 0 0
v -13 -1 0
v -14 -1 0
v -14 0 0
v -13 0 0
v -14 -1 0
v -15 -1 0
v -15 0 0
v -14 0 0
v -15 -1 0
v -16 -1 0
v -16 0 0
v -15 0 0
v -16 -1 0
v -17 -1 0
v -17 0 0
v -16 0 0
v -17 -1 0
v -18 -1 0
v -18 0 0
v -17 0 0
v -18 -1 0
v -19 -1 0
v -19 0 0
v -18 0 0
v -19 -1 0
v -20 -1 0
v -20 0 0
v -19 0 0
v -20 -1 0
v -21 -1 0
v -21 0 0
v -20 0 0
v -21 -1 0
v -22 -1 0
v -22 0 0
v -21 0 0
v -22 -1 0
v -23 -1 0
v -23 0 0
v -22 0 0
v -23 -1 0
v -24 -1 0
v -24 0 0
v -23 0 0
v -24 -1 0
v -25 -1 0
v -25 0 0
v -24 0 0
v -25 -1 0
v -26 -1 0
v -26 0 0
v -25 0 0
v 0 -2 0
v -1 -2 0
v -1 -1 0
v 0 -1 0
v -25 -2 0
v -26 -2 0
v -26 -1 0
v -25 -1 0
v 0 -3 0
v -1 -3 0
v -1 -2 0
v 0 -2 0
v -25 -3 0
v -26 -3 0
v -26 -2 0
v -25 -2 0
v 0 -4 0
v -1 -4 0
v -1 -3 0
v 0 -3 0
v -25 -4 0
v -26 -4 0
v -26 -3 0
v -25 -3 0
v 0 -5 0
v -1 -5 0
v -1 -4 0
v 0 -4 0
v -25 -5 0
v -26 -5 0
v -26 -4 0
v -25 -4 0
v 0 -6 0
v -1 -6 0
v -1 -5 0
v 0 -5 0
v -25 -6 0
v -26 -6 0
v -26 -5 0
v -25 -5 0
v 0 -7 0
v -1 -7 0
v -1 -6 0
v 0 -6 0
v -25 -7 0
v -26 -7 0
v -26 -6 0
v -25 -6 0
v 0 -8 0
v -1 -8 0
v -1 -7 0
v 0 -7 0
v -25 -8 0
v -26 -8 0
v -26 -7 0
v -25 -7 0
v 0 -9 0
v -1 -9 0
v -1 -8 0
v 0 -8 0
v -25 -9 0
v -26 -9 0
v -26 -8 0
v -25 -8 0
v 0 -10 0
v -1 -10 0
v -1 -9 0
v 0 -9 0
v -25 -10 0
v -26 -10 0
v -26 -9 0
v -25 -9 0
v 0 -11 0
v -1 -11 0
v -1 -10 0
v 0 -10 0
v -25 -11 0
v -26 -11 0
v -26 -10 0
v -25 -10 0
v 0 -12 0
v -1 -12 0
v -1 -11 0
v 0 -11 0
v -25 -12 0
v -26 -12 0
v -26 -11 0
v -25 -11 0
v -16 -13 0
v -17 -13 0
v -17 -12 0
v -16 -12 0
v -25 -13 0
v -26 -13 0
v -26 -12 0
v -25 -12 0
v -16 -14 0
v -17 -14 0
v -17 -13 0
v -16 -13 0
v -25 -14 0
v -26 -14 0
v -26 -13 0
v -25 -13 0
v -16 -15 0
v -17 -15 0
v -17 -14 0
v -16 -14 0
v -25 -15 0
v -26 -15 0
v -26 -14 0
v -25 -14 0
v -16 -16 0
v -17 -16 0
v -17 -15 0
v -16 -15 0
v -25 -16 0
v -26 -16 0
v -26 -15 0
v -25 -15 0
v -16 -17 0
v -17 -17 0
v -17 -16 0
v -16 -16 0
v -25 -17 0
v -26 -17 0
v -26 -16 0
v -25 -16 0
v -16 -18 0
v -17 -18 0
v -17 -17 0
v -16 -17 0
v -25 -18 0
v -26 -18 0
v -26 -17 0
v -25 -17 0
v -16 -19 0
v -17 -19 0
v -17 -18 0
v -16 -18 0
v -25 -19 0
v -26 -19 0
v -26 -18 0
v -25 -18 0
v -16 -20 0
v -17 -20 0
v -17 -19 0
v -16 -19 0
v -25 -20 0
v -26 -20 0
v -26 -19 0
v -25 -19 0
v -16 -21 0
v -17 -21 0
v -17 -20 0
v -16 -20 0
v -25 -21 0
v -26 -21 0
v -26 -20 0
v -25 -20 0
v -16 -22 0
v -17 -22 0
v -17 -21 0
v -16 -21 0
v -25 -22 0
v -26 -22 0
v -26 -21 0
v -25 -21 0
v -16 -23 0
v -17 -23 0
v -17 -22 0
v -16 -22 0
v -25 -23 0
v -26 -23 0
v -26 -22 0
v -25 -22 0
v -16 -24 0
v -17 -24 0
v -17 -23 0
v -16 -23 0
v -25 -24 0
v -26 -24 0
v -26 -23 0
v -25 -23 0
v -16 -25 0
v -17 -25 0
v -17 -24 0
v -16 -24 0
v -25 -25 0
v -26 -25 0
v -26 -24 0
v -25 -24 0

# Texture cooridinates (Count = 8)
vt 0.5025253 0.5025252
vt 0.6641414 0.5025252
vt 0.6641414 0.6641414
vt 0.5025253 0.6641414
vt 0.6641414 0.3358586
vt 0.6641414 0.4974747
vt 0.5025253 0.4974747
vt 0.5025253 0.3358586

# Normal
vn 0 0 -1

# Mesh description
g AstralaProperHouse1_mesh_0005

# Faces
f 1/1/1 2/2/1 3/3/1 4/4/1
f 5/5/1 6/6/1 7/7/1 8/8/1
f 9/5/1 10/6/1 11/7/1 12/8/1
f 13/5/1 14/6/1 15/7/1 16/8/1
f 17/5/1 18/6/1 19/7/1 20/8/1
f 21/5/1 22/6/1 23/7/1 24/8/1
f 25/5/1 26/6/1 27/7/1 28/8/1
f 29/5/1 30/6/1 31/7/1 32/8/1
f 33/5/1 34/6/1 35/7/1 36/8/1
f 37/5/1 38/6/1 39/7/1 40/8/1
f 41/5/1 42/6/1 43/7/1 44/8/1
f 45/5/1 46/6/1 47/7/1 48/8/1
f 49/5/1 50/6/1 51/7/1 52/8/1
f 53/5/1 54/6/1 55/7/1 56/8/1
f 57/5/1 58/6/1 59/7/1 60/8/1
f 61/5/1 62/6/1 63/7/1 64/8/1
f 65/5/1 66/6/1 67/7/1 68/8/1
f 69/5/1 70/6/1 71/7/1 72/8/1
f 73/5/1 74/6/1 75/7/1 76/8/1
f 77/5/1 78/6/1 79/7/1 80/8/1
f 81/5/1 82/6/1 83/7/1 84/8/1
f 85/5/1 86/6/1 87/7/1 88/8/1
f 89/5/1 90/6/1 91/7/1 92/8/1
f 93/5/1 94/6/1 95/7/1 96/8/1
f 97/5/1 98/6/1 99/7/1 100/8/1
f 101/2/1 102/3/1 103/4/1 104/1/1
f 105/8/1 106/5/1 107/6/1 108/7/1
f 109/5/1 110/8/1 111/7/1 112/6/1
f 113/8/1 114/5/1 115/6/1 116/7/1
f 117/5/1 118/8/1 119/7/1 120/6/1
f 121/8/1 122/5/1 123/6/1 124/7/1
f 125/5/1 126/8/1 127/7/1 128/6/1
f 129/8/1 130/5/1 131/6/1 132/7/1
f 133/5/1 134/8/1 135/7/1 136/6/1
f 137/8/1 138/5/1 139/6/1 140/7/1
f 141/5/1 142/8/1 143/7/1 144/6/1
f 145/8/1 146/5/1 147/6/1 148/7/1
f 149/5/1 150/8/1 151/7/1 152/6/1
f 153/8/1 154/5/1 155/6/1 156/7/1
f 157/5/1 158/8/1 159/7/1 160/6/1
f 161/8/1 162/5/1 163/6/1 164/7/1
f 165/5/1 166/8/1 167/7/1 168/6/1
f 169/8/1 170/5/1 171/6/1 172/7/1
f 173/5/1 174/8/1 175/7/1 176/6/1
f 177/8/1 178/5/1 179/6/1 180/7/1
f 181/5/1 182/8/1 183/7/1 184/6/1
f 185/4/1 186/1/1 187/2/1 188/3/1
f 189/5/1 190/8/1 191/7/1 192/6/1
f 193/8/1 194/5/1 195/6/1 196/7/1
f 197/5/1 198/8/1 199/7/1 200/6/1
f 201/8/1 202/5/1 203/6/1 204/7/1
f 205/5/1 206/8/1 207/7/1 208/6/1
f 209/8/1 210/5/1 211/6/1 212/7/1
f 213/5/1 214/8/1 215/7/1 216/6/1
f 217/8/1 218/5/1 219/6/1 220/7/1
f 221/5/1 222/8/1 223/7/1 224/6/1
f 225/8/1 226/5/1 227/6/1 228/7/1
f 229/5/1 230/8/1 231/7/1 232/6/1
f 233/8/1 234/5/1 235/6/1 236/7/1
f 237/5/1 238/8/1 239/7/1 240/6/1
f 241/8/1 242/5/1 243/6/1 244/7/1
f 245/5/1 246/8/1 247/7/1 248/6/1
f 249/8/1 250/5/1 251/6/1 252/7/1
f 253/5/1 254/8/1 255/7/1 256/6/1
f 257/8/1 258/5/1 259/6/1 260/7/1
f 261/5/1 262/8/1 263/7/1 264/6/1
f 265/8/1 266/5/1 267/6/1 268/7/1
f 269/5/1 270/8/1 271/7/1 272/6/1
f 273/8/1 274/5/1 275/6/1 276/7/1
f 277/5/1 278/8/1 279/7/1 280/6/1
f 281/8/1 282/5/1 283/6/1 284/7/1
f 285/5/1 286/8/1 287/7/1 288/6/1
f 289/4/1 290/1/1 291/2/1 292/3/1
f 293/3/1 294/4/1 295/1/1 296/2/1

