# Tiled2Unity generated file. Do not modify by hand.
# Wavefront file for 'AstralaProperHouse1_mesh_0004.obj'

# Vertices (Count = 16)
v -7 -3 0
v -8 -3 0
v -8 -2 0
v -7 -2 0
v -18 -3 0
v -19 -3 0
v -19 -2 0
v -18 -2 0
v -7 -4 0
v -8 -4 0
v -8 -3 0
v -7 -3 0
v -18 -4 0
v -19 -4 0
v -19 -3 0
v -18 -3 0

# Texture cooridinates (Count = 8)
vt 0.8358586 0.5025252
vt 0.9974747 0.5025252
vt 0.9974747 0.6641414
vt 0.8358586 0.6641414
vt 0.8358586 0.3358586
vt 0.9974747 0.3358586
vt 0.9974747 0.4974747
vt 0.8358586 0.4974747

# Normal
vn 0 0 -1

# Mesh description
g AstralaProperHouse1_mesh_0004

# Faces
f 1/1/1 2/2/1 3/3/1 4/4/1
f 5/1/1 6/2/1 7/3/1 8/4/1
f 9/5/1 10/6/1 11/7/1 12/8/1
f 13/5/1 14/6/1 15/7/1 16/8/1

