# Tiled2Unity generated file. Do not modify by hand.
# Wavefront file for 'ChurchInterior_mesh_0007.obj'

# Vertices (Count = 176)
v -30 -11 0
v -31 -11 0
v -31 -10 0
v -30 -10 0
v -26 -11 0
v -27 -11 0
v -27 -10 0
v -26 -10 0
v -25 -11 0
v -26 -11 0
v -26 -10 0
v -25 -10 0
v -6 -11 0
v -7 -11 0
v -7 -10 0
v -6 -10 0
v -5 -11 0
v -6 -11 0
v -6 -10 0
v -5 -10 0
v -1 -11 0
v -2 -11 0
v -2 -10 0
v -1 -10 0
v -30 -12 0
v -31 -12 0
v -31 -11 0
v -30 -11 0
v -26 -12 0
v -27 -12 0
v -27 -11 0
v -26 -11 0
v -25 -12 0
v -26 -12 0
v -26 -11 0
v -25 -11 0
v -6 -12 0
v -7 -12 0
v -7 -11 0
v -6 -11 0
v -5 -12 0
v -6 -12 0
v -6 -11 0
v -5 -11 0
v -1 -12 0
v -2 -12 0
v -2 -11 0
v -1 -11 0
v -30 -13 0
v -31 -13 0
v -31 -12 0
v -30 -12 0
v -26 -13 0
v -27 -13 0
v -27 -12 0
v -26 -12 0
v -25 -13 0
v -26 -13 0
v -26 -12 0
v -25 -12 0
v -6 -13 0
v -7 -13 0
v -7 -12 0
v -6 -12 0
v -5 -13 0
v -6 -13 0
v -6 -12 0
v -5 -12 0
v -1 -13 0
v -2 -13 0
v -2 -12 0
v -1 -12 0
v -30 -14 0
v -31 -14 0
v -31 -13 0
v -30 -13 0
v -26 -14 0
v -27 -14 0
v -27 -13 0
v -26 -13 0
v -25 -14 0
v -26 -14 0
v -26 -13 0
v -25 -13 0
v -6 -14 0
v -7 -14 0
v -7 -13 0
v -6 -13 0
v -5 -14 0
v -6 -14 0
v -6 -13 0
v -5 -13 0
v -1 -14 0
v -2 -14 0
v -2 -13 0
v -1 -13 0
v -30 -19 0
v -31 -19 0
v -31 -18 0
v -30 -18 0
v -1 -19 0
v -2 -19 0
v -2 -18 0
v -1 -18 0
v -30 -20 0
v -31 -20 0
v -31 -19 0
v -30 -19 0
v -1 -20 0
v -2 -20 0
v -2 -19 0
v -1 -19 0
v -30 -21 0
v -31 -21 0
v -31 -20 0
v -30 -20 0
v -1 -21 0
v -2 -21 0
v -2 -20 0
v -1 -20 0
v -30 -22 0
v -31 -22 0
v -31 -21 0
v -30 -21 0
v -1 -22 0
v -2 -22 0
v -2 -21 0
v -1 -21 0
v -30 -23 0
v -31 -23 0
v -31 -22 0
v -30 -22 0
v -1 -23 0
v -2 -23 0
v -2 -22 0
v -1 -22 0
v -30 -28 0
v -31 -28 0
v -31 -27 0
v -30 -27 0
v -1 -28 0
v -2 -28 0
v -2 -27 0
v -1 -27 0
v -30 -29 0
v -31 -29 0
v -31 -28 0
v -30 -28 0
v -1 -29 0
v -2 -29 0
v -2 -28 0
v -1 -28 0
v -30 -30 0
v -31 -30 0
v -31 -29 0
v -30 -29 0
v -1 -30 0
v -2 -30 0
v -2 -29 0
v -1 -29 0
v -30 -31 0
v -31 -31 0
v -31 -30 0
v -30 -30 0
v -1 -31 0
v -2 -31 0
v -2 -30 0
v -1 -30 0
v -30 -32 0
v -31 -32 0
v -31 -31 0
v -30 -31 0
v -1 -32 0
v -2 -32 0
v -2 -31 0
v -1 -31 0

# Texture cooridinates (Count = 16)
vt 0.1641414 0.669192
vt 0.002525253 0.669192
vt 0.002525253 0.8308081
vt 0.1641414 0.8308081
vt 0.1641414 0.5025252
vt 0.002525253 0.5025252
vt 0.002525253 0.6641414
vt 0.1641414 0.6641414
vt 0.1641414 0.3358586
vt 0.002525253 0.3358586
vt 0.002525253 0.4974747
vt 0.1641414 0.4974747
vt 0.1641414 0.8358586
vt 0.002525253 0.8358586
vt 0.002525253 0.9974747
vt 0.1641414 0.9974747

# Normal
vn 0 0 -1

# Mesh description
g ChurchInterior_mesh_0007

# Faces
f 1/1/1 2/2/1 3/3/1 4/4/1
f 5/2/1 6/1/1 7/4/1 8/3/1
f 9/1/1 10/2/1 11/3/1 12/4/1
f 13/2/1 14/1/1 15/4/1 16/3/1
f 17/1/1 18/2/1 19/3/1 20/4/1
f 21/2/1 22/1/1 23/4/1 24/3/1
f 25/5/1 26/6/1 27/7/1 28/8/1
f 29/6/1 30/5/1 31/8/1 32/7/1
f 33/5/1 34/6/1 35/7/1 36/8/1
f 37/6/1 38/5/1 39/8/1 40/7/1
f 41/5/1 42/6/1 43/7/1 44/8/1
f 45/6/1 46/5/1 47/8/1 48/7/1
f 49/9/1 50/10/1 51/11/1 52/12/1
f 53/10/1 54/9/1 55/12/1 56/11/1
f 57/9/1 58/10/1 59/11/1 60/12/1
f 61/10/1 62/9/1 63/12/1 64/11/1
f 65/9/1 66/10/1 67/11/1 68/12/1
f 69/10/1 70/9/1 71/12/1 72/11/1
f 73/9/1 74/10/1 75/11/1 76/12/1
f 77/10/1 78/9/1 79/12/1 80/11/1
f 81/9/1 82/10/1 83/11/1 84/12/1
f 85/10/1 86/9/1 87/12/1 88/11/1
f 89/9/1 90/10/1 91/11/1 92/12/1
f 93/10/1 94/9/1 95/12/1 96/11/1
f 97/13/1 98/14/1 99/15/1 100/16/1
f 101/14/1 102/13/1 103/16/1 104/15/1
f 105/1/1 106/2/1 107/3/1 108/4/1
f 109/2/1 110/1/1 111/4/1 112/3/1
f 113/5/1 114/6/1 115/7/1 116/8/1
f 117/6/1 118/5/1 119/8/1 120/7/1
f 121/9/1 122/10/1 123/11/1 124/12/1
f 125/10/1 126/9/1 127/12/1 128/11/1
f 129/9/1 130/10/1 131/11/1 132/12/1
f 133/10/1 134/9/1 135/12/1 136/11/1
f 137/13/1 138/14/1 139/15/1 140/16/1
f 141/14/1 142/13/1 143/16/1 144/15/1
f 145/1/1 146/2/1 147/3/1 148/4/1
f 149/2/1 150/1/1 151/4/1 152/3/1
f 153/5/1 154/6/1 155/7/1 156/8/1
f 157/6/1 158/5/1 159/8/1 160/7/1
f 161/9/1 162/10/1 163/11/1 164/12/1
f 165/10/1 166/9/1 167/12/1 168/11/1
f 169/9/1 170/10/1 171/11/1 172/12/1
f 173/10/1 174/9/1 175/12/1 176/11/1

