# Tiled2Unity generated file. Do not modify by hand.
# Wavefront file for 'ChurchInterior_mesh_0006.obj'

# Vertices (Count = 120)
v -30 -15 0
v -31 -15 0
v -31 -14 0
v -30 -14 0
v -26 -15 0
v -27 -15 0
v -27 -14 0
v -26 -14 0
v -25 -15 0
v -26 -15 0
v -26 -14 0
v -25 -14 0
v -6 -15 0
v -7 -15 0
v -7 -14 0
v -6 -14 0
v -5 -15 0
v -6 -15 0
v -6 -14 0
v -5 -14 0
v -1 -15 0
v -2 -15 0
v -2 -14 0
v -1 -14 0
v -30 -16 0
v -31 -16 0
v -31 -15 0
v -30 -15 0
v -26 -16 0
v -27 -16 0
v -27 -15 0
v -26 -15 0
v -25 -16 0
v -26 -16 0
v -26 -15 0
v -25 -15 0
v -6 -16 0
v -7 -16 0
v -7 -15 0
v -6 -15 0
v -5 -16 0
v -6 -16 0
v -6 -15 0
v -5 -15 0
v -1 -16 0
v -2 -16 0
v -2 -15 0
v -1 -15 0
v -30 -17 0
v -31 -17 0
v -31 -16 0
v -30 -16 0
v -26 -17 0
v -27 -17 0
v -27 -16 0
v -26 -16 0
v -25 -17 0
v -26 -17 0
v -26 -16 0
v -25 -16 0
v -6 -17 0
v -7 -17 0
v -7 -16 0
v -6 -16 0
v -5 -17 0
v -6 -17 0
v -6 -16 0
v -5 -16 0
v -1 -17 0
v -2 -17 0
v -2 -16 0
v -1 -16 0
v -30 -24 0
v -31 -24 0
v -31 -23 0
v -30 -23 0
v -1 -24 0
v -2 -24 0
v -2 -23 0
v -1 -23 0
v -30 -25 0
v -31 -25 0
v -31 -24 0
v -30 -24 0
v -1 -25 0
v -2 -25 0
v -2 -24 0
v -1 -24 0
v -30 -26 0
v -31 -26 0
v -31 -25 0
v -30 -25 0
v -1 -26 0
v -2 -26 0
v -2 -25 0
v -1 -25 0
v -30 -33 0
v -31 -33 0
v -31 -32 0
v -30 -32 0
v -1 -33 0
v -2 -33 0
v -2 -32 0
v -1 -32 0
v -30 -34 0
v -31 -34 0
v -31 -33 0
v -30 -33 0
v -1 -34 0
v -2 -34 0
v -2 -33 0
v -1 -33 0
v -30 -35 0
v -31 -35 0
v -31 -34 0
v -30 -34 0
v -1 -35 0
v -2 -35 0
v -2 -34 0
v -1 -34 0

# Texture cooridinates (Count = 12)
vt 0.1641414 0.3358586
vt 0.002525253 0.3358586
vt 0.002525253 0.4974747
vt 0.1641414 0.4974747
vt 0.1641414 0.1691919
vt 0.002525253 0.1691919
vt 0.002525253 0.3308081
vt 0.1641414 0.3308081
vt 0.1641414 0.00252527
vt 0.002525253 0.00252527
vt 0.002525253 0.1641414
vt 0.1641414 0.1641414

# Normal
vn 0 0 -1

# Mesh description
g ChurchInterior_mesh_0006

# Faces
f 1/1/1 2/2/1 3/3/1 4/4/1
f 5/2/1 6/1/1 7/4/1 8/3/1
f 9/1/1 10/2/1 11/3/1 12/4/1
f 13/2/1 14/1/1 15/4/1 16/3/1
f 17/1/1 18/2/1 19/3/1 20/4/1
f 21/2/1 22/1/1 23/4/1 24/3/1
f 25/5/1 26/6/1 27/7/1 28/8/1
f 29/6/1 30/5/1 31/8/1 32/7/1
f 33/5/1 34/6/1 35/7/1 36/8/1
f 37/6/1 38/5/1 39/8/1 40/7/1
f 41/5/1 42/6/1 43/7/1 44/8/1
f 45/6/1 46/5/1 47/8/1 48/7/1
f 49/9/1 50/10/1 51/11/1 52/12/1
f 53/10/1 54/9/1 55/12/1 56/11/1
f 57/9/1 58/10/1 59/11/1 60/12/1
f 61/10/1 62/9/1 63/12/1 64/11/1
f 65/9/1 66/10/1 67/11/1 68/12/1
f 69/10/1 70/9/1 71/12/1 72/11/1
f 73/1/1 74/2/1 75/3/1 76/4/1
f 77/2/1 78/1/1 79/4/1 80/3/1
f 81/5/1 82/6/1 83/7/1 84/8/1
f 85/6/1 86/5/1 87/8/1 88/7/1
f 89/9/1 90/10/1 91/11/1 92/12/1
f 93/10/1 94/9/1 95/12/1 96/11/1
f 97/1/1 98/2/1 99/3/1 100/4/1
f 101/2/1 102/1/1 103/4/1 104/3/1
f 105/5/1 106/6/1 107/7/1 108/8/1
f 109/6/1 110/5/1 111/8/1 112/7/1
f 113/9/1 114/10/1 115/11/1 116/12/1
f 117/10/1 118/9/1 119/12/1 120/11/1

