# Tiled2Unity generated file. Do not modify by hand.
# Wavefront file for 'SolomvaleEleanorRigby_mesh_0001.obj'

# Vertices (Count = 72)
v -1 -11 0
v -2 -11 0
v -2 -10 0
v -1 -10 0
v -2 -11 0
v -3 -11 0
v -3 -10 0
v -2 -10 0
v -3 -11 0
v -4 -11 0
v -4 -10 0
v -3 -10 0
v -4 -20 0
v -5 -20 0
v -5 -19 0
v -4 -19 0
v -5 -20 0
v -6 -20 0
v -6 -19 0
v -5 -19 0
v -6 -20 0
v -7 -20 0
v -7 -19 0
v -6 -19 0
v -7 -20 0
v -8 -20 0
v -8 -19 0
v -7 -19 0
v -8 -20 0
v -9 -20 0
v -9 -19 0
v -8 -19 0
v -9 -20 0
v -10 -20 0
v -10 -19 0
v -9 -19 0
v -10 -20 0
v -11 -20 0
v -11 -19 0
v -10 -19 0
v -11 -20 0
v -12 -20 0
v -12 -19 0
v -11 -19 0
v -12 -20 0
v -13 -20 0
v -13 -19 0
v -12 -19 0
v -13 -20 0
v -14 -20 0
v -14 -19 0
v -13 -19 0
v -14 -20 0
v -15 -20 0
v -15 -19 0
v -14 -19 0
v -17 -20 0
v -18 -20 0
v -18 -19 0
v -17 -19 0
v -18 -20 0
v -19 -20 0
v -19 -19 0
v -18 -19 0
v -19 -20 0
v -20 -20 0
v -20 -19 0
v -19 -19 0
v -20 -20 0
v -21 -20 0
v -21 -19 0
v -20 -19 0

# Texture cooridinates (Count = 12)
vt 0.002525253 0.9974747
vt 0.1641414 0.9974747
vt 0.1641414 0.8358586
vt 0.002525253 0.8358586
vt 0.1691919 0.9974747
vt 0.3308081 0.9974747
vt 0.3308081 0.8358586
vt 0.1691919 0.8358586
vt 0.3358586 0.9974747
vt 0.3358586 0.8358586
vt 0.4974748 0.8358586
vt 0.4974748 0.9974747

# Normal
vn 0 0 -1

# Mesh description
g SolomvaleEleanorRigby_mesh_0001

# Faces
f 1/1/1 2/2/1 3/3/1 4/4/1
f 5/5/1 6/6/1 7/7/1 8/8/1
f 9/9/1 10/10/1 11/11/1 12/12/1
f 13/1/1 14/2/1 15/3/1 16/4/1
f 17/5/1 18/6/1 19/7/1 20/8/1
f 21/5/1 22/6/1 23/7/1 24/8/1
f 25/5/1 26/6/1 27/7/1 28/8/1
f 29/5/1 30/6/1 31/7/1 32/8/1
f 33/6/1 34/5/1 35/8/1 36/7/1
f 37/6/1 38/5/1 39/8/1 40/7/1
f 41/5/1 42/6/1 43/7/1 44/8/1
f 45/5/1 46/6/1 47/7/1 48/8/1
f 49/6/1 50/5/1 51/8/1 52/7/1
f 53/9/1 54/10/1 55/11/1 56/12/1
f 57/12/1 58/9/1 59/10/1 60/11/1
f 61/5/1 62/6/1 63/7/1 64/8/1
f 65/5/1 66/6/1 67/7/1 68/8/1
f 69/2/1 70/1/1 71/4/1 72/3/1

