# Tiled2Unity generated file. Do not modify by hand.
# Wavefront file for 'SolomvaleEleanorRigby_mesh_0002.obj'

# Vertices (Count = 240)
v -1 -2 0
v -2 -2 0
v -2 -1 0
v -1 -1 0
v -2 -2 0
v -3 -2 0
v -3 -1 0
v -2 -1 0
v -3 -2 0
v -4 -2 0
v -4 -1 0
v -3 -1 0
v -4 -2 0
v -5 -2 0
v -5 -1 0
v -4 -1 0
v -5 -2 0
v -6 -2 0
v -6 -1 0
v -5 -1 0
v -6 -2 0
v -7 -2 0
v -7 -1 0
v -6 -1 0
v -7 -2 0
v -8 -2 0
v -8 -1 0
v -7 -1 0
v -8 -2 0
v -9 -2 0
v -9 -1 0
v -8 -1 0
v -9 -2 0
v -10 -2 0
v -10 -1 0
v -9 -1 0
v -1 -3 0
v -2 -3 0
v -2 -2 0
v -1 -2 0
v -2 -3 0
v -3 -3 0
v -3 -2 0
v -2 -2 0
v -3 -3 0
v -4 -3 0
v -4 -2 0
v -3 -2 0
v -4 -3 0
v -5 -3 0
v -5 -2 0
v -4 -2 0
v -5 -3 0
v -6 -3 0
v -6 -2 0
v -5 -2 0
v -6 -3 0
v -7 -3 0
v -7 -2 0
v -6 -2 0
v -7 -3 0
v -8 -3 0
v -8 -2 0
v -7 -2 0
v -8 -3 0
v -9 -3 0
v -9 -2 0
v -8 -2 0
v -9 -3 0
v -10 -3 0
v -10 -2 0
v -9 -2 0
v -1 -4 0
v -2 -4 0
v -2 -3 0
v -1 -3 0
v -2 -4 0
v -3 -4 0
v -3 -3 0
v -2 -3 0
v -3 -4 0
v -4 -4 0
v -4 -3 0
v -3 -3 0
v -4 -4 0
v -5 -4 0
v -5 -3 0
v -4 -3 0
v -5 -4 0
v -6 -4 0
v -6 -3 0
v -5 -3 0
v -6 -4 0
v -7 -4 0
v -7 -3 0
v -6 -3 0
v -7 -4 0
v -8 -4 0
v -8 -3 0
v -7 -3 0
v -8 -4 0
v -9 -4 0
v -9 -3 0
v -8 -3 0
v -9 -4 0
v -10 -4 0
v -10 -3 0
v -9 -3 0
v -10 -5 0
v -11 -5 0
v -11 -4 0
v -10 -4 0
v -11 -5 0
v -12 -5 0
v -12 -4 0
v -11 -4 0
v -12 -5 0
v -13 -5 0
v -13 -4 0
v -12 -4 0
v -13 -5 0
v -14 -5 0
v -14 -4 0
v -13 -4 0
v -14 -5 0
v -15 -5 0
v -15 -4 0
v -14 -4 0
v -15 -5 0
v -16 -5 0
v -16 -4 0
v -15 -4 0
v -16 -5 0
v -17 -5 0
v -17 -4 0
v -16 -4 0
v -17 -5 0
v -18 -5 0
v -18 -4 0
v -17 -4 0
v -18 -5 0
v -19 -5 0
v -19 -4 0
v -18 -4 0
v -19 -5 0
v -20 -5 0
v -20 -4 0
v -19 -4 0
v -20 -5 0
v -21 -5 0
v -21 -4 0
v -20 -4 0
v -10 -6 0
v -11 -6 0
v -11 -5 0
v -10 -5 0
v -11 -6 0
v -12 -6 0
v -12 -5 0
v -11 -5 0
v -12 -6 0
v -13 -6 0
v -13 -5 0
v -12 -5 0
v -13 -6 0
v -14 -6 0
v -14 -5 0
v -13 -5 0
v -14 -6 0
v -15 -6 0
v -15 -5 0
v -14 -5 0
v -15 -6 0
v -16 -6 0
v -16 -5 0
v -15 -5 0
v -16 -6 0
v -17 -6 0
v -17 -5 0
v -16 -5 0
v -17 -6 0
v -18 -6 0
v -18 -5 0
v -17 -5 0
v -18 -6 0
v -19 -6 0
v -19 -5 0
v -18 -5 0
v -19 -6 0
v -20 -6 0
v -20 -5 0
v -19 -5 0
v -20 -6 0
v -21 -6 0
v -21 -5 0
v -20 -5 0
v -10 -7 0
v -11 -7 0
v -11 -6 0
v -10 -6 0
v -11 -7 0
v -12 -7 0
v -12 -6 0
v -11 -6 0
v -12 -7 0
v -13 -7 0
v -13 -6 0
v -12 -6 0
v -13 -7 0
v -14 -7 0
v -14 -6 0
v -13 -6 0
v -14 -7 0
v -15 -7 0
v -15 -6 0
v -14 -6 0
v -15 -7 0
v -16 -7 0
v -16 -6 0
v -15 -6 0
v -16 -7 0
v -17 -7 0
v -17 -6 0
v -16 -6 0
v -17 -7 0
v -18 -7 0
v -18 -6 0
v -17 -6 0
v -18 -7 0
v -19 -7 0
v -19 -6 0
v -18 -6 0
v -19 -7 0
v -20 -7 0
v -20 -6 0
v -19 -6 0
v -20 -7 0
v -21 -7 0
v -21 -6 0
v -20 -6 0

# Texture cooridinates (Count = 36)
vt 0.002525253 0.669192
vt 0.1641414 0.669192
vt 0.1641414 0.8308081
vt 0.002525253 0.8308081
vt 0.1691919 0.669192
vt 0.3308081 0.669192
vt 0.3308081 0.8308081
vt 0.1691919 0.8308081
vt 0.002525253 0.5025252
vt 0.1641414 0.5025252
vt 0.1641414 0.6641414
vt 0.002525253 0.6641414
vt 0.1691919 0.5025252
vt 0.3308081 0.5025252
vt 0.3308081 0.6641414
vt 0.1691919 0.6641414
vt 0.002525253 0.3358586
vt 0.1641414 0.3358586
vt 0.1641414 0.4974747
vt 0.002525253 0.4974747
vt 0.1691919 0.3358586
vt 0.3308081 0.3358586
vt 0.3308081 0.4974747
vt 0.1691919 0.4974747
vt 0.4974748 0.669192
vt 0.3358586 0.669192
vt 0.3358586 0.8308081
vt 0.4974748 0.8308081
vt 0.4974748 0.5025252
vt 0.3358586 0.5025252
vt 0.3358586 0.6641414
vt 0.4974748 0.6641414
vt 0.4974748 0.3358586
vt 0.3358586 0.3358586
vt 0.3358586 0.4974747
vt 0.4974748 0.4974747

# Normal
vn 0 0 -1

# Mesh description
g SolomvaleEleanorRigby_mesh_0002

# Faces
f 1/1/1 2/2/1 3/3/1 4/4/1
f 5/5/1 6/6/1 7/7/1 8/8/1
f 9/5/1 10/6/1 11/7/1 12/8/1
f 13/5/1 14/6/1 15/7/1 16/8/1
f 17/5/1 18/6/1 19/7/1 20/8/1
f 21/5/1 22/6/1 23/7/1 24/8/1
f 25/5/1 26/6/1 27/7/1 28/8/1
f 29/5/1 30/6/1 31/7/1 32/8/1
f 33/2/1 34/1/1 35/4/1 36/3/1
f 37/9/1 38/10/1 39/11/1 40/12/1
f 41/13/1 42/14/1 43/15/1 44/16/1
f 45/13/1 46/14/1 47/15/1 48/16/1
f 49/13/1 50/14/1 51/15/1 52/16/1
f 53/13/1 54/14/1 55/15/1 56/16/1
f 57/13/1 58/14/1 59/15/1 60/16/1
f 61/13/1 62/14/1 63/15/1 64/16/1
f 65/13/1 66/14/1 67/15/1 68/16/1
f 69/10/1 70/9/1 71/12/1 72/11/1
f 73/17/1 74/18/1 75/19/1 76/20/1
f 77/21/1 78/22/1 79/23/1 80/24/1
f 81/21/1 82/22/1 83/23/1 84/24/1
f 85/21/1 86/22/1 87/23/1 88/24/1
f 89/21/1 90/22/1 91/23/1 92/24/1
f 93/21/1 94/22/1 95/23/1 96/24/1
f 97/21/1 98/22/1 99/23/1 100/24/1
f 101/21/1 102/22/1 103/23/1 104/24/1
f 105/18/1 106/17/1 107/20/1 108/19/1
f 109/25/1 110/26/1 111/27/1 112/28/1
f 113/5/1 114/6/1 115/7/1 116/8/1
f 117/5/1 118/6/1 119/7/1 120/8/1
f 121/5/1 122/6/1 123/7/1 124/8/1
f 125/5/1 126/6/1 127/7/1 128/8/1
f 129/5/1 130/6/1 131/7/1 132/8/1
f 133/5/1 134/6/1 135/7/1 136/8/1
f 137/5/1 138/6/1 139/7/1 140/8/1
f 141/5/1 142/6/1 143/7/1 144/8/1
f 145/5/1 146/6/1 147/7/1 148/8/1
f 149/2/1 150/1/1 151/4/1 152/3/1
f 153/29/1 154/30/1 155/31/1 156/32/1
f 157/13/1 158/14/1 159/15/1 160/16/1
f 161/13/1 162/14/1 163/15/1 164/16/1
f 165/13/1 166/14/1 167/15/1 168/16/1
f 169/13/1 170/14/1 171/15/1 172/16/1
f 173/13/1 174/14/1 175/15/1 176/16/1
f 177/13/1 178/14/1 179/15/1 180/16/1
f 181/13/1 182/14/1 183/15/1 184/16/1
f 185/13/1 186/14/1 187/15/1 188/16/1
f 189/13/1 190/14/1 191/15/1 192/16/1
f 193/10/1 194/9/1 195/12/1 196/11/1
f 197/33/1 198/34/1 199/35/1 200/36/1
f 201/21/1 202/22/1 203/23/1 204/24/1
f 205/21/1 206/22/1 207/23/1 208/24/1
f 209/21/1 210/22/1 211/23/1 212/24/1
f 213/21/1 214/22/1 215/23/1 216/24/1
f 217/21/1 218/22/1 219/23/1 220/24/1
f 221/21/1 222/22/1 223/23/1 224/24/1
f 225/21/1 226/22/1 227/23/1 228/24/1
f 229/21/1 230/22/1 231/23/1 232/24/1
f 233/21/1 234/22/1 235/23/1 236/24/1
f 237/18/1 238/17/1 239/20/1 240/19/1

