# Tiled2Unity generated file. Do not modify by hand.
# Wavefront file for 'NewAstralaWoodsWest_mesh_0047.obj'

# Vertices (Count = 432)
v -231 -334 0
v -232 -334 0
v -232 -333 0
v -231 -333 0
v -230 -334 0
v -231 -334 0
v -231 -333 0
v -230 -333 0
v -229 -334 0
v -230 -334 0
v -230 -333 0
v -229 -333 0
v -228 -334 0
v -229 -334 0
v -229 -333 0
v -228 -333 0
v -227 -334 0
v -228 -334 0
v -228 -333 0
v -227 -333 0
v -226 -334 0
v -227 -334 0
v -227 -333 0
v -226 -333 0
v -231 -335 0
v -232 -335 0
v -232 -334 0
v -231 -334 0
v -230 -335 0
v -231 -335 0
v -231 -334 0
v -230 -334 0
v -229 -335 0
v -230 -335 0
v -230 -334 0
v -229 -334 0
v -228 -335 0
v -229 -335 0
v -229 -334 0
v -228 -334 0
v -227 -335 0
v -228 -335 0
v -228 -334 0
v -227 -334 0
v -226 -335 0
v -227 -335 0
v -227 -334 0
v -226 -334 0
v -217 -335 0
v -218 -335 0
v -218 -334 0
v -217 -334 0
v -216 -335 0
v -217 -335 0
v -217 -334 0
v -216 -334 0
v -215 -335 0
v -216 -335 0
v -216 -334 0
v -215 -334 0
v -214 -335 0
v -215 -335 0
v -215 -334 0
v -214 -334 0
v -213 -335 0
v -214 -335 0
v -214 -334 0
v -213 -334 0
v -212 -335 0
v -213 -335 0
v -213 -334 0
v -212 -334 0
v -231 -336 0
v -232 -336 0
v -232 -335 0
v -231 -335 0
v -230 -336 0
v -231 -336 0
v -231 -335 0
v -230 -335 0
v -229 -336 0
v -230 -336 0
v -230 -335 0
v -229 -335 0
v -228 -336 0
v -229 -336 0
v -229 -335 0
v -228 -335 0
v -227 -336 0
v -228 -336 0
v -228 -335 0
v -227 -335 0
v -226 -336 0
v -227 -336 0
v -227 -335 0
v -226 -335 0
v -217 -336 0
v -218 -336 0
v -218 -335 0
v -217 -335 0
v -216 -336 0
v -217 -336 0
v -217 -335 0
v -216 -335 0
v -215 -336 0
v -216 -336 0
v -216 -335 0
v -215 -335 0
v -214 -336 0
v -215 -336 0
v -215 -335 0
v -214 -335 0
v -213 -336 0
v -214 -336 0
v -214 -335 0
v -213 -335 0
v -212 -336 0
v -213 -336 0
v -213 -335 0
v -212 -335 0
v -217 -337 0
v -218 -337 0
v -218 -336 0
v -217 -336 0
v -216 -337 0
v -217 -337 0
v -217 -336 0
v -216 -336 0
v -215 -337 0
v -216 -337 0
v -216 -336 0
v -215 -336 0
v -214 -337 0
v -215 -337 0
v -215 -336 0
v -214 -336 0
v -213 -337 0
v -214 -337 0
v -214 -336 0
v -213 -336 0
v -212 -337 0
v -213 -337 0
v -213 -336 0
v -212 -336 0
v -234 -344 0
v -235 -344 0
v -235 -343 0
v -234 -343 0
v -233 -344 0
v -234 -344 0
v -234 -343 0
v -233 -343 0
v -232 -344 0
v -233 -344 0
v -233 -343 0
v -232 -343 0
v -231 -344 0
v -232 -344 0
v -232 -343 0
v -231 -343 0
v -230 -344 0
v -231 -344 0
v -231 -343 0
v -230 -343 0
v -229 -344 0
v -230 -344 0
v -230 -343 0
v -229 -343 0
v -234 -345 0
v -235 -345 0
v -235 -344 0
v -234 -344 0
v -233 -345 0
v -234 -345 0
v -234 -344 0
v -233 -344 0
v -232 -345 0
v -233 -345 0
v -233 -344 0
v -232 -344 0
v -231 -345 0
v -232 -345 0
v -232 -344 0
v -231 -344 0
v -230 -345 0
v -231 -345 0
v -231 -344 0
v -230 -344 0
v -229 -345 0
v -230 -345 0
v -230 -344 0
v -229 -344 0
v -214 -345 0
v -215 -345 0
v -215 -344 0
v -214 -344 0
v -213 -345 0
v -214 -345 0
v -214 -344 0
v -213 -344 0
v -212 -345 0
v -213 -345 0
v -213 -344 0
v -212 -344 0
v -211 -345 0
v -212 -345 0
v -212 -344 0
v -211 -344 0
v -210 -345 0
v -211 -345 0
v -211 -344 0
v -210 -344 0
v -209 -345 0
v -210 -345 0
v -210 -344 0
v -209 -344 0
v -234 -346 0
v -235 -346 0
v -235 -345 0
v -234 -345 0
v -233 -346 0
v -234 -346 0
v -234 -345 0
v -233 -345 0
v -232 -346 0
v -233 -346 0
v -233 -345 0
v -232 -345 0
v -231 -346 0
v -232 -346 0
v -232 -345 0
v -231 -345 0
v -230 -346 0
v -231 -346 0
v -231 -345 0
v -230 -345 0
v -229 -346 0
v -230 -346 0
v -230 -345 0
v -229 -345 0
v -214 -346 0
v -215 -346 0
v -215 -345 0
v -214 -345 0
v -213 -346 0
v -214 -346 0
v -214 -345 0
v -213 -345 0
v -212 -346 0
v -213 -346 0
v -213 -345 0
v -212 -345 0
v -211 -346 0
v -212 -346 0
v -212 -345 0
v -211 -345 0
v -210 -346 0
v -211 -346 0
v -211 -345 0
v -210 -345 0
v -209 -346 0
v -210 -346 0
v -210 -345 0
v -209 -345 0
v -214 -347 0
v -215 -347 0
v -215 -346 0
v -214 -346 0
v -213 -347 0
v -214 -347 0
v -214 -346 0
v -213 -346 0
v -212 -347 0
v -213 -347 0
v -213 -346 0
v -212 -346 0
v -211 -347 0
v -212 -347 0
v -212 -346 0
v -211 -346 0
v -210 -347 0
v -211 -347 0
v -211 -346 0
v -210 -346 0
v -209 -347 0
v -210 -347 0
v -210 -346 0
v -209 -346 0
v -232 -352 0
v -233 -352 0
v -233 -351 0
v -232 -351 0
v -231 -352 0
v -232 -352 0
v -232 -351 0
v -231 -351 0
v -230 -352 0
v -231 -352 0
v -231 -351 0
v -230 -351 0
v -229 -352 0
v -230 -352 0
v -230 -351 0
v -229 -351 0
v -228 -352 0
v -229 -352 0
v -229 -351 0
v -228 -351 0
v -227 -352 0
v -228 -352 0
v -228 -351 0
v -227 -351 0
v -218 -352 0
v -219 -352 0
v -219 -351 0
v -218 -351 0
v -217 -352 0
v -218 -352 0
v -218 -351 0
v -217 -351 0
v -216 -352 0
v -217 -352 0
v -217 -351 0
v -216 -351 0
v -215 -352 0
v -216 -352 0
v -216 -351 0
v -215 -351 0
v -214 -352 0
v -215 -352 0
v -215 -351 0
v -214 -351 0
v -213 -352 0
v -214 -352 0
v -214 -351 0
v -213 -351 0
v -232 -353 0
v -233 -353 0
v -233 -352 0
v -232 -352 0
v -231 -353 0
v -232 -353 0
v -232 -352 0
v -231 -352 0
v -230 -353 0
v -231 -353 0
v -231 -352 0
v -230 -352 0
v -229 -353 0
v -230 -353 0
v -230 -352 0
v -229 -352 0
v -228 -353 0
v -229 -353 0
v -229 -352 0
v -228 -352 0
v -227 -353 0
v -228 -353 0
v -228 -352 0
v -227 -352 0
v -218 -353 0
v -219 -353 0
v -219 -352 0
v -218 -352 0
v -217 -353 0
v -218 -353 0
v -218 -352 0
v -217 -352 0
v -216 -353 0
v -217 -353 0
v -217 -352 0
v -216 -352 0
v -215 -353 0
v -216 -353 0
v -216 -352 0
v -215 -352 0
v -214 -353 0
v -215 -353 0
v -215 -352 0
v -214 -352 0
v -213 -353 0
v -214 -353 0
v -214 -352 0
v -213 -352 0
v -232 -354 0
v -233 -354 0
v -233 -353 0
v -232 -353 0
v -231 -354 0
v -232 -354 0
v -232 -353 0
v -231 -353 0
v -230 -354 0
v -231 -354 0
v -231 -353 0
v -230 -353 0
v -229 -354 0
v -230 -354 0
v -230 -353 0
v -229 -353 0
v -228 -354 0
v -229 -354 0
v -229 -353 0
v -228 -353 0
v -227 -354 0
v -228 -354 0
v -228 -353 0
v -227 -353 0
v -218 -354 0
v -219 -354 0
v -219 -353 0
v -218 -353 0
v -217 -354 0
v -218 -354 0
v -218 -353 0
v -217 -353 0
v -216 -354 0
v -217 -354 0
v -217 -353 0
v -216 -353 0
v -215 -354 0
v -216 -354 0
v -216 -353 0
v -215 -353 0
v -214 -354 0
v -215 -354 0
v -215 -353 0
v -214 -353 0
v -213 -354 0
v -214 -354 0
v -214 -353 0
v -213 -353 0

# Texture cooridinates (Count = 36)
vt 0.3358586 0.3358586
vt 0.4974748 0.3358586
vt 0.4974748 0.4974747
vt 0.3358586 0.4974747
vt 0.1691919 0.3358586
vt 0.3308081 0.3358586
vt 0.3308081 0.4974747
vt 0.1691919 0.4974747
vt 0.002525253 0.3358586
vt 0.1641414 0.3358586
vt 0.1641414 0.4974747
vt 0.002525253 0.4974747
vt 0.3358586 0.1691919
vt 0.4974748 0.1691919
vt 0.4974748 0.3308081
vt 0.3358586 0.3308081
vt 0.1691919 0.1691919
vt 0.3308081 0.1691919
vt 0.3308081 0.3308081
vt 0.1691919 0.3308081
vt 0.002525253 0.1691919
vt 0.1641414 0.1691919
vt 0.1641414 0.3308081
vt 0.002525253 0.3308081
vt 0.3358586 0.00252527
vt 0.4974748 0.00252527
vt 0.4974748 0.1641414
vt 0.3358586 0.1641414
vt 0.1691919 0.00252527
vt 0.3308081 0.00252527
vt 0.3308081 0.1641414
vt 0.1691919 0.1641414
vt 0.002525253 0.00252527
vt 0.1641414 0.00252527
vt 0.1641414 0.1641414
vt 0.002525253 0.1641414

# Normal
vn 0 0 -1

# Mesh description
g NewAstralaWoodsWest_mesh_0047

# Faces
f 1/1/1 2/2/1 3/3/1 4/4/1
f 5/5/1 6/6/1 7/7/1 8/8/1
f 9/5/1 10/6/1 11/7/1 12/8/1
f 13/5/1 14/6/1 15/7/1 16/8/1
f 17/5/1 18/6/1 19/7/1 20/8/1
f 21/9/1 22/10/1 23/11/1 24/12/1
f 25/13/1 26/14/1 27/15/1 28/16/1
f 29/17/1 30/18/1 31/19/1 32/20/1
f 33/17/1 34/18/1 35/19/1 36/20/1
f 37/17/1 38/18/1 39/19/1 40/20/1
f 41/17/1 42/18/1 43/19/1 44/20/1
f 45/21/1 46/22/1 47/23/1 48/24/1
f 49/1/1 50/2/1 51/3/1 52/4/1
f 53/5/1 54/6/1 55/7/1 56/8/1
f 57/5/1 58/6/1 59/7/1 60/8/1
f 61/5/1 62/6/1 63/7/1 64/8/1
f 65/5/1 66/6/1 67/7/1 68/8/1
f 69/9/1 70/10/1 71/11/1 72/12/1
f 73/25/1 74/26/1 75/27/1 76/28/1
f 77/29/1 78/30/1 79/31/1 80/32/1
f 81/29/1 82/30/1 83/31/1 84/32/1
f 85/29/1 86/30/1 87/31/1 88/32/1
f 89/29/1 90/30/1 91/31/1 92/32/1
f 93/33/1 94/34/1 95/35/1 96/36/1
f 97/13/1 98/14/1 99/15/1 100/16/1
f 101/17/1 102/18/1 103/19/1 104/20/1
f 105/17/1 106/18/1 107/19/1 108/20/1
f 109/17/1 110/18/1 111/19/1 112/20/1
f 113/17/1 114/18/1 115/19/1 116/20/1
f 117/21/1 118/22/1 119/23/1 120/24/1
f 121/25/1 122/26/1 123/27/1 124/28/1
f 125/29/1 126/30/1 127/31/1 128/32/1
f 129/29/1 130/30/1 131/31/1 132/32/1
f 133/29/1 134/30/1 135/31/1 136/32/1
f 137/29/1 138/30/1 139/31/1 140/32/1
f 141/33/1 142/34/1 143/35/1 144/36/1
f 145/1/1 146/2/1 147/3/1 148/4/1
f 149/5/1 150/6/1 151/7/1 152/8/1
f 153/5/1 154/6/1 155/7/1 156/8/1
f 157/5/1 158/6/1 159/7/1 160/8/1
f 161/5/1 162/6/1 163/7/1 164/8/1
f 165/9/1 166/10/1 167/11/1 168/12/1
f 169/13/1 170/14/1 171/15/1 172/16/1
f 173/17/1 174/18/1 175/19/1 176/20/1
f 177/17/1 178/18/1 179/19/1 180/20/1
f 181/17/1 182/18/1 183/19/1 184/20/1
f 185/17/1 186/18/1 187/19/1 188/20/1
f 189/21/1 190/22/1 191/23/1 192/24/1
f 193/1/1 194/2/1 195/3/1 196/4/1
f 197/5/1 198/6/1 199/7/1 200/8/1
f 201/5/1 202/6/1 203/7/1 204/8/1
f 205/5/1 206/6/1 207/7/1 208/8/1
f 209/5/1 210/6/1 211/7/1 212/8/1
f 213/9/1 214/10/1 215/11/1 216/12/1
f 217/25/1 218/26/1 219/27/1 220/28/1
f 221/29/1 222/30/1 223/31/1 224/32/1
f 225/29/1 226/30/1 227/31/1 228/32/1
f 229/29/1 230/30/1 231/31/1 232/32/1
f 233/29/1 234/30/1 235/31/1 236/32/1
f 237/33/1 238/34/1 239/35/1 240/36/1
f 241/13/1 242/14/1 243/15/1 244/16/1
f 245/17/1 246/18/1 247/19/1 248/20/1
f 249/17/1 250/18/1 251/19/1 252/20/1
f 253/17/1 254/18/1 255/19/1 256/20/1
f 257/17/1 258/18/1 259/19/1 260/20/1
f 261/21/1 262/22/1 263/23/1 264/24/1
f 265/25/1 266/26/1 267/27/1 268/28/1
f 269/29/1 270/30/1 271/31/1 272/32/1
f 273/29/1 274/30/1 275/31/1 276/32/1
f 277/29/1 278/30/1 279/31/1 280/32/1
f 281/29/1 282/30/1 283/31/1 284/32/1
f 285/33/1 286/34/1 287/35/1 288/36/1
f 289/1/1 290/2/1 291/3/1 292/4/1
f 293/5/1 294/6/1 295/7/1 296/8/1
f 297/5/1 298/6/1 299/7/1 300/8/1
f 301/5/1 302/6/1 303/7/1 304/8/1
f 305/5/1 306/6/1 307/7/1 308/8/1
f 309/9/1 310/10/1 311/11/1 312/12/1
f 313/1/1 314/2/1 315/3/1 316/4/1
f 317/5/1 318/6/1 319/7/1 320/8/1
f 321/5/1 322/6/1 323/7/1 324/8/1
f 325/5/1 326/6/1 327/7/1 328/8/1
f 329/5/1 330/6/1 331/7/1 332/8/1
f 333/9/1 334/10/1 335/11/1 336/12/1
f 337/13/1 338/14/1 339/15/1 340/16/1
f 341/17/1 342/18/1 343/19/1 344/20/1
f 345/17/1 346/18/1 347/19/1 348/20/1
f 349/17/1 350/18/1 351/19/1 352/20/1
f 353/17/1 354/18/1 355/19/1 356/20/1
f 357/21/1 358/22/1 359/23/1 360/24/1
f 361/13/1 362/14/1 363/15/1 364/16/1
f 365/17/1 366/18/1 367/19/1 368/20/1
f 369/17/1 370/18/1 371/19/1 372/20/1
f 373/17/1 374/18/1 375/19/1 376/20/1
f 377/17/1 378/18/1 379/19/1 380/20/1
f 381/21/1 382/22/1 383/23/1 384/24/1
f 385/25/1 386/26/1 387/27/1 388/28/1
f 389/29/1 390/30/1 391/31/1 392/32/1
f 393/29/1 394/30/1 395/31/1 396/32/1
f 397/29/1 398/30/1 399/31/1 400/32/1
f 401/29/1 402/30/1 403/31/1 404/32/1
f 405/33/1 406/34/1 407/35/1 408/36/1
f 409/25/1 410/26/1 411/27/1 412/28/1
f 413/29/1 414/30/1 415/31/1 416/32/1
f 417/29/1 418/30/1 419/31/1 420/32/1
f 421/29/1 422/30/1 423/31/1 424/32/1
f 425/29/1 426/30/1 427/31/1 428/32/1
f 429/33/1 430/34/1 431/35/1 432/36/1

