# Tiled2Unity generated file. Do not modify by hand.
# Wavefront file for 'NewAstralaWoodsWest_mesh_0064.obj'

# Vertices (Count = 116)
v -144 -31 0
v -145 -31 0
v -145 -30 0
v -144 -30 0
v -143 -31 0
v -144 -31 0
v -144 -30 0
v -143 -30 0
v -142 -31 0
v -143 -31 0
v -143 -30 0
v -142 -30 0
v -141 -31 0
v -142 -31 0
v -142 -30 0
v -141 -30 0
v -140 -31 0
v -141 -31 0
v -141 -30 0
v -140 -30 0
v -144 -32 0
v -145 -32 0
v -145 -31 0
v -144 -31 0
v -143 -32 0
v -144 -32 0
v -144 -31 0
v -143 -31 0
v -142 -32 0
v -143 -32 0
v -143 -31 0
v -142 -31 0
v -141 -32 0
v -142 -32 0
v -142 -31 0
v -141 -31 0
v -140 -32 0
v -141 -32 0
v -141 -31 0
v -140 -31 0
v -144 -33 0
v -145 -33 0
v -145 -32 0
v -144 -32 0
v -143 -33 0
v -144 -33 0
v -144 -32 0
v -143 -32 0
v -142 -33 0
v -143 -33 0
v -143 -32 0
v -142 -32 0
v -141 -33 0
v -142 -33 0
v -142 -32 0
v -141 -32 0
v -140 -33 0
v -141 -33 0
v -141 -32 0
v -140 -32 0
v -143 -34 0
v -144 -34 0
v -144 -33 0
v -143 -33 0
v -142 -34 0
v -143 -34 0
v -143 -33 0
v -142 -33 0
v -141 -34 0
v -142 -34 0
v -142 -33 0
v -141 -33 0
v -143 -35 0
v -144 -35 0
v -144 -34 0
v -143 -34 0
v -142 -35 0
v -143 -35 0
v -143 -34 0
v -142 -34 0
v -141 -35 0
v -142 -35 0
v -142 -34 0
v -141 -34 0
v -145 -36 0
v -146 -36 0
v -146 -35 0
v -145 -35 0
v -139 -36 0
v -140 -36 0
v -140 -35 0
v -139 -35 0
v -146 -42 0
v -147 -42 0
v -147 -41 0
v -146 -41 0
v -145 -42 0
v -146 -42 0
v -146 -41 0
v -145 -41 0
v -144 -42 0
v -145 -42 0
v -145 -41 0
v -144 -41 0
v -140 -42 0
v -141 -42 0
v -141 -41 0
v -140 -41 0
v -139 -42 0
v -140 -42 0
v -140 -41 0
v -139 -41 0
v -138 -42 0
v -139 -42 0
v -139 -41 0
v -138 -41 0

# Texture cooridinates (Count = 44)
vt 0.8030303 0.8905724
vt 0.9969697 0.8905724
vt 0.9969697 0.9983165
vt 0.8030303 0.9983165
vt 0.4030303 0.446128
vt 0.5969697 0.446128
vt 0.5969697 0.553872
vt 0.4030303 0.553872
vt 0.003030303 0.8905724
vt 0.1969697 0.8905724
vt 0.1969697 0.9983165
vt 0.003030303 0.9983165
vt 0.8030303 0.7794613
vt 0.9969697 0.7794613
vt 0.9969697 0.8872054
vt 0.8030303 0.8872054
vt 0.6030303 0.5572391
vt 0.7969697 0.5572391
vt 0.7969697 0.6649832
vt 0.6030303 0.6649832
vt 0.003030303 0.7794613
vt 0.1969697 0.7794613
vt 0.1969697 0.8872054
vt 0.003030303 0.8872054
vt 0.8030303 0.6683502
vt 0.9969697 0.6683502
vt 0.9969697 0.7760943
vt 0.8030303 0.7760943
vt 0.4030303 0.8905724
vt 0.5969697 0.8905724
vt 0.5969697 0.9983165
vt 0.4030303 0.9983165
vt 0.4030303 0.7794613
vt 0.5969697 0.7794613
vt 0.5969697 0.8872054
vt 0.4030303 0.8872054
vt 0.003030303 0.6683502
vt 0.1969697 0.6683502
vt 0.1969697 0.7760943
vt 0.003030303 0.7760943
vt 0.6030303 0.6683502
vt 0.7969697 0.6683502
vt 0.7969697 0.7760943
vt 0.6030303 0.7760943

# Normal
vn 0 0 -1

# Mesh description
g NewAstralaWoodsWest_mesh_0064

# Faces
f 1/1/1 2/2/1 3/3/1 4/4/1
f 5/5/1 6/6/1 7/7/1 8/8/1
f 9/5/1 10/6/1 11/7/1 12/8/1
f 13/5/1 14/6/1 15/7/1 16/8/1
f 17/9/1 18/10/1 19/11/1 20/12/1
f 21/13/1 22/14/1 23/15/1 24/16/1
f 25/17/1 26/18/1 27/19/1 28/20/1
f 29/17/1 30/18/1 31/19/1 32/20/1
f 33/17/1 34/18/1 35/19/1 36/20/1
f 37/21/1 38/22/1 39/23/1 40/24/1
f 41/25/1 42/26/1 43/27/1 44/28/1
f 45/29/1 46/30/1 47/31/1 48/32/1
f 49/33/1 50/34/1 51/35/1 52/36/1
f 53/29/1 54/30/1 55/31/1 56/32/1
f 57/37/1 58/38/1 59/39/1 60/40/1
f 61/41/1 62/42/1 63/43/1 64/44/1
f 65/33/1 66/34/1 67/35/1 68/36/1
f 69/33/1 70/34/1 71/35/1 72/36/1
f 73/33/1 74/34/1 75/35/1 76/36/1
f 77/33/1 78/34/1 79/35/1 80/36/1
f 81/33/1 82/34/1 83/35/1 84/36/1
f 85/33/1 86/34/1 87/35/1 88/36/1
f 89/33/1 90/34/1 91/35/1 92/36/1
f 93/33/1 94/34/1 95/35/1 96/36/1
f 97/33/1 98/34/1 99/35/1 100/36/1
f 101/33/1 102/34/1 103/35/1 104/36/1
f 105/33/1 106/34/1 107/35/1 108/36/1
f 109/33/1 110/34/1 111/35/1 112/36/1
f 113/33/1 114/34/1 115/35/1 116/36/1

