# Tiled2Unity generated file. Do not modify by hand.
# Wavefront file for 'NewAstralaWoodsWest_mesh_0053.obj'

# Vertices (Count = 16)
v -431 -21 0
v -432 -21 0
v -432 -20 0
v -431 -20 0
v -430 -21 0
v -431 -21 0
v -431 -20 0
v -430 -20 0
v -428 -21 0
v -429 -21 0
v -429 -20 0
v -428 -20 0
v -427 -21 0
v -428 -21 0
v -428 -20 0
v -427 -20 0

# Texture cooridinates (Count = 8)
vt 0.6717172 0.00252527
vt 0.9949495 0.00252527
vt 0.9949495 0.1641414
vt 0.6717172 0.1641414
vt 0.6717172 0.5025252
vt 0.9949495 0.5025252
vt 0.9949495 0.6641414
vt 0.6717172 0.6641414

# Normal
vn 0 0 -1

# Mesh description
g NewAstralaWoodsWest_mesh_0053

# Faces
f 1/1/1 2/2/1 3/3/1 4/4/1
f 5/5/1 6/6/1 7/7/1 8/8/1
f 9/1/1 10/2/1 11/3/1 12/4/1
f 13/5/1 14/6/1 15/7/1 16/8/1

