# Tiled2Unity generated file. Do not modify by hand.
# Wavefront file for 'NewAstralaWoodsWest_mesh_0043.obj'

# Vertices (Count = 228)
v -144 -34 0
v -145 -34 0
v -145 -33 0
v -144 -33 0
v -143 -34 0
v -144 -34 0
v -144 -33 0
v -143 -33 0
v -142 -34 0
v -143 -34 0
v -143 -33 0
v -142 -33 0
v -141 -34 0
v -142 -34 0
v -142 -33 0
v -141 -33 0
v -140 -34 0
v -141 -34 0
v -141 -33 0
v -140 -33 0
v -145 -35 0
v -146 -35 0
v -146 -34 0
v -145 -34 0
v -144 -35 0
v -145 -35 0
v -145 -34 0
v -144 -34 0
v -143 -35 0
v -144 -35 0
v -144 -34 0
v -143 -34 0
v -142 -35 0
v -143 -35 0
v -143 -34 0
v -142 -34 0
v -141 -35 0
v -142 -35 0
v -142 -34 0
v -141 -34 0
v -140 -35 0
v -141 -35 0
v -141 -34 0
v -140 -34 0
v -139 -35 0
v -140 -35 0
v -140 -34 0
v -139 -34 0
v -145 -36 0
v -146 -36 0
v -146 -35 0
v -145 -35 0
v -144 -36 0
v -145 -36 0
v -145 -35 0
v -144 -35 0
v -143 -36 0
v -144 -36 0
v -144 -35 0
v -143 -35 0
v -142 -36 0
v -143 -36 0
v -143 -35 0
v -142 -35 0
v -141 -36 0
v -142 -36 0
v -142 -35 0
v -141 -35 0
v -140 -36 0
v -141 -36 0
v -141 -35 0
v -140 -35 0
v -139 -36 0
v -140 -36 0
v -140 -35 0
v -139 -35 0
v -145 -37 0
v -146 -37 0
v -146 -36 0
v -145 -36 0
v -144 -37 0
v -145 -37 0
v -145 -36 0
v -144 -36 0
v -143 -37 0
v -144 -37 0
v -144 -36 0
v -143 -36 0
v -142 -37 0
v -143 -37 0
v -143 -36 0
v -142 -36 0
v -141 -37 0
v -142 -37 0
v -142 -36 0
v -141 -36 0
v -140 -37 0
v -141 -37 0
v -141 -36 0
v -140 -36 0
v -139 -37 0
v -140 -37 0
v -140 -36 0
v -139 -36 0
v -144 -38 0
v -145 -38 0
v -145 -37 0
v -144 -37 0
v -143 -38 0
v -144 -38 0
v -144 -37 0
v -143 -37 0
v -142 -38 0
v -143 -38 0
v -143 -37 0
v -142 -37 0
v -141 -38 0
v -142 -38 0
v -142 -37 0
v -141 -37 0
v -140 -38 0
v -141 -38 0
v -141 -37 0
v -140 -37 0
v -147 -40 0
v -148 -40 0
v -148 -39 0
v -147 -39 0
v -137 -40 0
v -138 -40 0
v -138 -39 0
v -137 -39 0
v -147 -41 0
v -148 -41 0
v -148 -40 0
v -147 -40 0
v -146 -41 0
v -147 -41 0
v -147 -40 0
v -146 -40 0
v -145 -41 0
v -146 -41 0
v -146 -40 0
v -145 -40 0
v -144 -41 0
v -145 -41 0
v -145 -40 0
v -144 -40 0
v -140 -41 0
v -141 -41 0
v -141 -40 0
v -140 -40 0
v -139 -41 0
v -140 -41 0
v -140 -40 0
v -139 -40 0
v -138 -41 0
v -139 -41 0
v -139 -40 0
v -138 -40 0
v -137 -41 0
v -138 -41 0
v -138 -40 0
v -137 -40 0
v -147 -42 0
v -148 -42 0
v -148 -41 0
v -147 -41 0
v -146 -42 0
v -147 -42 0
v -147 -41 0
v -146 -41 0
v -145 -42 0
v -146 -42 0
v -146 -41 0
v -145 -41 0
v -144 -42 0
v -145 -42 0
v -145 -41 0
v -144 -41 0
v -140 -42 0
v -141 -42 0
v -141 -41 0
v -140 -41 0
v -139 -42 0
v -140 -42 0
v -140 -41 0
v -139 -41 0
v -138 -42 0
v -139 -42 0
v -139 -41 0
v -138 -41 0
v -137 -42 0
v -138 -42 0
v -138 -41 0
v -137 -41 0
v -147 -43 0
v -148 -43 0
v -148 -42 0
v -147 -42 0
v -146 -43 0
v -147 -43 0
v -147 -42 0
v -146 -42 0
v -145 -43 0
v -146 -43 0
v -146 -42 0
v -145 -42 0
v -144 -43 0
v -145 -43 0
v -145 -42 0
v -144 -42 0
v -140 -43 0
v -141 -43 0
v -141 -42 0
v -140 -42 0
v -139 -43 0
v -140 -43 0
v -140 -42 0
v -139 -42 0
v -138 -43 0
v -139 -43 0
v -139 -42 0
v -138 -42 0
v -137 -43 0
v -138 -43 0
v -138 -42 0
v -137 -42 0

# Texture cooridinates (Count = 56)
vt 0.8030303 0.3350168
vt 0.9969697 0.3350168
vt 0.9969697 0.4427609
vt 0.8030303 0.4427609
vt 0.2030303 0.2239057
vt 0.3969697 0.2239057
vt 0.3969697 0.3316498
vt 0.2030303 0.3316498
vt 0.003030303 0.3350168
vt 0.1969697 0.3350168
vt 0.1969697 0.4427609
vt 0.003030303 0.4427609
vt 0.2030303 0.3350168
vt 0.3969697 0.3350168
vt 0.3969697 0.4427609
vt 0.2030303 0.4427609
vt 0.6030303 0.1127946
vt 0.7969697 0.1127946
vt 0.7969697 0.2205387
vt 0.6030303 0.2205387
vt 0.8030303 0.001683474
vt 0.9969697 0.001683474
vt 0.9969697 0.1094276
vt 0.8030303 0.1094276
vt 0.4030303 0.1127946
vt 0.5969697 0.1127946
vt 0.5969697 0.2205387
vt 0.4030303 0.2205387
vt 0.8030303 0.1127946
vt 0.9969697 0.1127946
vt 0.9969697 0.2205387
vt 0.8030303 0.2205387
vt 0.003030303 0.1127946
vt 0.1969697 0.1127946
vt 0.1969697 0.2205387
vt 0.003030303 0.2205387
vt 0.8030303 0.2239057
vt 0.9969697 0.2239057
vt 0.9969697 0.3316498
vt 0.8030303 0.3316498
vt 0.2030303 0.1127946
vt 0.3969697 0.1127946
vt 0.3969697 0.2205387
vt 0.2030303 0.2205387
vt 0.003030303 0.2239057
vt 0.1969697 0.2239057
vt 0.1969697 0.3316498
vt 0.003030303 0.3316498
vt 0.8030303 0.446128
vt 0.9969697 0.446128
vt 0.9969697 0.553872
vt 0.8030303 0.553872
vt 0.003030303 0.446128
vt 0.1969697 0.446128
vt 0.1969697 0.553872
vt 0.003030303 0.553872

# Normal
vn 0 0 -1

# Mesh description
g NewAstralaWoodsWest_mesh_0043

# Faces
f 1/1/1 2/2/1 3/3/1 4/4/1
f 5/5/1 6/6/1 7/7/1 8/8/1
f 9/5/1 10/6/1 11/7/1 12/8/1
f 13/5/1 14/6/1 15/7/1 16/8/1
f 17/9/1 18/10/1 19/11/1 20/12/1
f 21/5/1 22/6/1 23/7/1 24/8/1
f 25/1/1 26/2/1 27/3/1 28/4/1
f 29/13/1 30/14/1 31/15/1 32/16/1
f 33/17/1 34/18/1 35/19/1 36/20/1
f 37/21/1 38/22/1 39/23/1 40/24/1
f 41/9/1 42/10/1 43/11/1 44/12/1
f 45/5/1 46/6/1 47/7/1 48/8/1
f 49/5/1 50/6/1 51/7/1 52/8/1
f 53/1/1 54/2/1 55/3/1 56/4/1
f 57/5/1 58/6/1 59/7/1 60/8/1
f 61/5/1 62/6/1 63/7/1 64/8/1
f 65/5/1 66/6/1 67/7/1 68/8/1
f 69/9/1 70/10/1 71/11/1 72/12/1
f 73/25/1 74/26/1 75/27/1 76/28/1
f 77/5/1 78/6/1 79/7/1 80/8/1
f 81/29/1 82/30/1 83/31/1 84/32/1
f 85/13/1 86/14/1 87/15/1 88/16/1
f 89/33/1 90/34/1 91/35/1 92/36/1
f 93/13/1 94/14/1 95/15/1 96/16/1
f 97/9/1 98/10/1 99/11/1 100/12/1
f 101/5/1 102/6/1 103/7/1 104/8/1
f 105/37/1 106/38/1 107/39/1 108/40/1
f 109/5/1 110/6/1 111/7/1 112/8/1
f 113/41/1 114/42/1 115/43/1 116/44/1
f 117/5/1 118/6/1 119/7/1 120/8/1
f 121/45/1 122/46/1 123/47/1 124/48/1
f 125/49/1 126/50/1 127/51/1 128/52/1
f 129/53/1 130/54/1 131/55/1 132/56/1
f 133/1/1 134/2/1 135/3/1 136/4/1
f 137/5/1 138/6/1 139/7/1 140/8/1
f 141/5/1 142/6/1 143/7/1 144/8/1
f 145/5/1 146/6/1 147/7/1 148/8/1
f 149/5/1 150/6/1 151/7/1 152/8/1
f 153/5/1 154/6/1 155/7/1 156/8/1
f 157/5/1 158/6/1 159/7/1 160/8/1
f 161/9/1 162/10/1 163/11/1 164/12/1
f 165/1/1 166/2/1 167/3/1 168/4/1
f 169/5/1 170/6/1 171/7/1 172/8/1
f 173/5/1 174/6/1 175/7/1 176/8/1
f 177/5/1 178/6/1 179/7/1 180/8/1
f 181/5/1 182/6/1 183/7/1 184/8/1
f 185/5/1 186/6/1 187/7/1 188/8/1
f 189/5/1 190/6/1 191/7/1 192/8/1
f 193/9/1 194/10/1 195/11/1 196/12/1
f 197/37/1 198/38/1 199/39/1 200/40/1
f 201/5/1 202/6/1 203/7/1 204/8/1
f 205/5/1 206/6/1 207/7/1 208/8/1
f 209/5/1 210/6/1 211/7/1 212/8/1
f 213/5/1 214/6/1 215/7/1 216/8/1
f 217/5/1 218/6/1 219/7/1 220/8/1
f 221/5/1 222/6/1 223/7/1 224/8/1
f 225/45/1 226/46/1 227/47/1 228/48/1

