# Tiled2Unity generated file. Do not modify by hand.
# Wavefront file for 'NewAstralaWoodsWest_mesh_0071.obj'

# Vertices (Count = 72)
v -443 -126 0
v -444 -126 0
v -444 -125 0
v -443 -125 0
v -444 -127 0
v -445 -127 0
v -445 -126 0
v -444 -126 0
v -443 -127 0
v -444 -127 0
v -444 -126 0
v -443 -126 0
v -402 -130 0
v -403 -130 0
v -403 -129 0
v -402 -129 0
v -401 -130 0
v -402 -130 0
v -402 -129 0
v -401 -129 0
v -431 -135 0
v -432 -135 0
v -432 -134 0
v -431 -134 0
v -402 -143 0
v -403 -143 0
v -403 -142 0
v -402 -142 0
v -401 -143 0
v -402 -143 0
v -402 -142 0
v -401 -142 0
v -402 -151 0
v -403 -151 0
v -403 -150 0
v -402 -150 0
v -401 -151 0
v -402 -151 0
v -402 -150 0
v -401 -150 0
v -402 -157 0
v -403 -157 0
v -403 -156 0
v -402 -156 0
v -401 -157 0
v -402 -157 0
v -402 -156 0
v -401 -156 0
v -402 -165 0
v -403 -165 0
v -403 -164 0
v -402 -164 0
v -401 -165 0
v -402 -165 0
v -402 -164 0
v -401 -164 0
v -444 -176 0
v -445 -176 0
v -445 -175 0
v -444 -175 0
v -443 -176 0
v -444 -176 0
v -444 -175 0
v -443 -175 0
v -444 -177 0
v -445 -177 0
v -445 -176 0
v -444 -176 0
v -443 -177 0
v -444 -177 0
v -444 -176 0
v -443 -176 0

# Texture cooridinates (Count = 16)
vt 0.5025253 0.669192
vt 0.6641414 0.669192
vt 0.6641414 0.8308081
vt 0.5025253 0.8308081
vt 0.5025253 0.5025252
vt 0.6641414 0.5025252
vt 0.6641414 0.6641414
vt 0.5025253 0.6641414
vt 0.1691919 0.00252527
vt 0.3308081 0.00252527
vt 0.3308081 0.1641414
vt 0.1691919 0.1641414
vt 0.3358586 0.00252527
vt 0.4974748 0.00252527
vt 0.4974748 0.1641414
vt 0.3358586 0.1641414

# Normal
vn 0 0 -1

# Mesh description
g NewAstralaWoodsWest_mesh_0071

# Faces
f 1/1/1 2/2/1 3/3/1 4/4/1
f 5/5/1 6/6/1 7/7/1 8/8/1
f 9/5/1 10/6/1 11/7/1 12/8/1
f 13/9/1 14/10/1 15/11/1 16/12/1
f 17/9/1 18/10/1 19/11/1 20/12/1
f 21/13/1 22/14/1 23/15/1 24/16/1
f 25/9/1 26/10/1 27/11/1 28/12/1
f 29/9/1 30/10/1 31/11/1 32/12/1
f 33/9/1 34/10/1 35/11/1 36/12/1
f 37/9/1 38/10/1 39/11/1 40/12/1
f 41/9/1 42/10/1 43/11/1 44/12/1
f 45/9/1 46/10/1 47/11/1 48/12/1
f 49/9/1 50/10/1 51/11/1 52/12/1
f 53/9/1 54/10/1 55/11/1 56/12/1
f 57/1/1 58/2/1 59/3/1 60/4/1
f 61/1/1 62/2/1 63/3/1 64/4/1
f 65/5/1 66/6/1 67/7/1 68/8/1
f 69/5/1 70/6/1 71/7/1 72/8/1

