# Tiled2Unity generated file. Do not modify by hand.
# Wavefront file for 'NewAstralaWoodsWest_mesh_0037.obj'

# Vertices (Count = 268)
v -374 -54 0
v -375 -54 0
v -375 -53 0
v -374 -53 0
v -373 -54 0
v -374 -54 0
v -374 -53 0
v -373 -53 0
v -372 -54 0
v -373 -54 0
v -373 -53 0
v -372 -53 0
v -374 -55 0
v -375 -55 0
v -375 -54 0
v -374 -54 0
v -373 -55 0
v -374 -55 0
v -374 -54 0
v -373 -54 0
v -372 -55 0
v -373 -55 0
v -373 -54 0
v -372 -54 0
v -374 -56 0
v -375 -56 0
v -375 -55 0
v -374 -55 0
v -373 -56 0
v -374 -56 0
v -374 -55 0
v -373 -55 0
v -372 -56 0
v -373 -56 0
v -373 -55 0
v -372 -55 0
v -311 -76 0
v -312 -76 0
v -312 -75 0
v -311 -75 0
v -309 -80 0
v -310 -80 0
v -310 -79 0
v -309 -79 0
v -312 -88 0
v -313 -88 0
v -313 -87 0
v -312 -87 0
v -311 -88 0
v -312 -88 0
v -312 -87 0
v -311 -87 0
v -312 -89 0
v -313 -89 0
v -313 -88 0
v -312 -88 0
v -311 -89 0
v -312 -89 0
v -312 -88 0
v -311 -88 0
v -312 -90 0
v -313 -90 0
v -313 -89 0
v -312 -89 0
v -311 -90 0
v -312 -90 0
v -312 -89 0
v -311 -89 0
v -312 -91 0
v -313 -91 0
v -313 -90 0
v -312 -90 0
v -311 -91 0
v -312 -91 0
v -312 -90 0
v -311 -90 0
v -312 -92 0
v -313 -92 0
v -313 -91 0
v -312 -91 0
v -311 -92 0
v -312 -92 0
v -312 -91 0
v -311 -91 0
v -312 -93 0
v -313 -93 0
v -313 -92 0
v -312 -92 0
v -311 -93 0
v -312 -93 0
v -312 -92 0
v -311 -92 0
v -312 -94 0
v -313 -94 0
v -313 -93 0
v -312 -93 0
v -311 -94 0
v -312 -94 0
v -312 -93 0
v -311 -93 0
v -312 -95 0
v -313 -95 0
v -313 -94 0
v -312 -94 0
v -311 -95 0
v -312 -95 0
v -312 -94 0
v -311 -94 0
v -381 -96 0
v -382 -96 0
v -382 -95 0
v -381 -95 0
v -380 -96 0
v -381 -96 0
v -381 -95 0
v -380 -95 0
v -379 -96 0
v -380 -96 0
v -380 -95 0
v -379 -95 0
v -312 -96 0
v -313 -96 0
v -313 -95 0
v -312 -95 0
v -311 -96 0
v -312 -96 0
v -312 -95 0
v -311 -95 0
v -381 -97 0
v -382 -97 0
v -382 -96 0
v -381 -96 0
v -380 -97 0
v -381 -97 0
v -381 -96 0
v -380 -96 0
v -379 -97 0
v -380 -97 0
v -380 -96 0
v -379 -96 0
v -365 -97 0
v -366 -97 0
v -366 -96 0
v -365 -96 0
v -312 -97 0
v -313 -97 0
v -313 -96 0
v -312 -96 0
v -311 -97 0
v -312 -97 0
v -312 -96 0
v -311 -96 0
v -381 -98 0
v -382 -98 0
v -382 -97 0
v -381 -97 0
v -380 -98 0
v -381 -98 0
v -381 -97 0
v -380 -97 0
v -379 -98 0
v -380 -98 0
v -380 -97 0
v -379 -97 0
v -312 -98 0
v -313 -98 0
v -313 -97 0
v -312 -97 0
v -311 -98 0
v -312 -98 0
v -312 -97 0
v -311 -97 0
v -355 -99 0
v -356 -99 0
v -356 -98 0
v -355 -98 0
v -312 -99 0
v -313 -99 0
v -313 -98 0
v -312 -98 0
v -311 -99 0
v -312 -99 0
v -312 -98 0
v -311 -98 0
v -312 -100 0
v -313 -100 0
v -313 -99 0
v -312 -99 0
v -311 -100 0
v -312 -100 0
v -312 -99 0
v -311 -99 0
v -360 -101 0
v -361 -101 0
v -361 -100 0
v -360 -100 0
v -312 -101 0
v -313 -101 0
v -313 -100 0
v -312 -100 0
v -311 -101 0
v -312 -101 0
v -312 -100 0
v -311 -100 0
v -312 -102 0
v -313 -102 0
v -313 -101 0
v -312 -101 0
v -311 -102 0
v -312 -102 0
v -312 -101 0
v -311 -101 0
v -326 -103 0
v -327 -103 0
v -327 -102 0
v -326 -102 0
v -325 -103 0
v -326 -103 0
v -326 -102 0
v -325 -102 0
v -324 -103 0
v -325 -103 0
v -325 -102 0
v -324 -102 0
v -323 -103 0
v -324 -103 0
v -324 -102 0
v -323 -102 0
v -322 -103 0
v -323 -103 0
v -323 -102 0
v -322 -102 0
v -312 -103 0
v -313 -103 0
v -313 -102 0
v -312 -102 0
v -311 -103 0
v -312 -103 0
v -312 -102 0
v -311 -102 0
v -326 -104 0
v -327 -104 0
v -327 -103 0
v -326 -103 0
v -325 -104 0
v -326 -104 0
v -326 -103 0
v -325 -103 0
v -324 -104 0
v -325 -104 0
v -325 -103 0
v -324 -103 0
v -323 -104 0
v -324 -104 0
v -324 -103 0
v -323 -103 0
v -322 -104 0
v -323 -104 0
v -323 -103 0
v -322 -103 0
v -312 -104 0
v -313 -104 0
v -313 -103 0
v -312 -103 0
v -311 -104 0
v -312 -104 0
v -312 -103 0
v -311 -103 0

# Texture cooridinates (Count = 44)
vt 0.6717172 0.5025252
vt 0.9949495 0.5025252
vt 0.9949495 0.6641414
vt 0.6717172 0.6641414
vt 0.3383838 0.5025252
vt 0.6616161 0.5025252
vt 0.6616161 0.6641414
vt 0.3383838 0.6641414
vt 0.005050505 0.5025252
vt 0.3282828 0.5025252
vt 0.3282828 0.6641414
vt 0.005050505 0.6641414
vt 0.6717172 0.3358586
vt 0.9949495 0.3358586
vt 0.9949495 0.4974747
vt 0.6717172 0.4974747
vt 0.3383838 0.3358586
vt 0.6616161 0.3358586
vt 0.6616161 0.4974747
vt 0.3383838 0.4974747
vt 0.005050505 0.3358586
vt 0.3282828 0.3358586
vt 0.3282828 0.4974747
vt 0.005050505 0.4974747
vt 0.6717172 0.1691919
vt 0.9949495 0.1691919
vt 0.9949495 0.3308081
vt 0.6717172 0.3308081
vt 0.3383838 0.1691919
vt 0.6616161 0.1691919
vt 0.6616161 0.3308081
vt 0.3383838 0.3308081
vt 0.005050505 0.1691919
vt 0.3282828 0.1691919
vt 0.3282828 0.3308081
vt 0.005050505 0.3308081
vt 0.005050505 0.8358586
vt 0.3282828 0.8358586
vt 0.3282828 0.9974747
vt 0.005050505 0.9974747
vt 0.005050505 0.669192
vt 0.3282828 0.669192
vt 0.3282828 0.8308081
vt 0.005050505 0.8308081

# Normal
vn 0 0 -1

# Mesh description
g NewAstralaWoodsWest_mesh_0037

# Faces
f 1/1/1 2/2/1 3/3/1 4/4/1
f 5/5/1 6/6/1 7/7/1 8/8/1
f 9/9/1 10/10/1 11/11/1 12/12/1
f 13/13/1 14/14/1 15/15/1 16/16/1
f 17/17/1 18/18/1 19/19/1 20/20/1
f 21/21/1 22/22/1 23/23/1 24/24/1
f 25/25/1 26/26/1 27/27/1 28/28/1
f 29/29/1 30/30/1 31/31/1 32/32/1
f 33/33/1 34/34/1 35/35/1 36/36/1
f 37/37/1 38/38/1 39/39/1 40/40/1
f 41/41/1 42/42/1 43/43/1 44/44/1
f 45/1/1 46/2/1 47/3/1 48/4/1
f 49/9/1 50/10/1 51/11/1 52/12/1
f 53/13/1 54/14/1 55/15/1 56/16/1
f 57/21/1 58/22/1 59/23/1 60/24/1
f 61/13/1 62/14/1 63/15/1 64/16/1
f 65/21/1 66/22/1 67/23/1 68/24/1
f 69/13/1 70/14/1 71/15/1 72/16/1
f 73/21/1 74/22/1 75/23/1 76/24/1
f 77/13/1 78/14/1 79/15/1 80/16/1
f 81/21/1 82/22/1 83/23/1 84/24/1
f 85/13/1 86/14/1 87/15/1 88/16/1
f 89/21/1 90/22/1 91/23/1 92/24/1
f 93/13/1 94/14/1 95/15/1 96/16/1
f 97/21/1 98/22/1 99/23/1 100/24/1
f 101/13/1 102/14/1 103/15/1 104/16/1
f 105/21/1 106/22/1 107/23/1 108/24/1
f 109/1/1 110/2/1 111/3/1 112/4/1
f 113/5/1 114/6/1 115/7/1 116/8/1
f 117/9/1 118/10/1 119/11/1 120/12/1
f 121/13/1 122/14/1 123/15/1 124/16/1
f 125/21/1 126/22/1 127/23/1 128/24/1
f 129/13/1 130/14/1 131/15/1 132/16/1
f 133/17/1 134/18/1 135/19/1 136/20/1
f 137/21/1 138/22/1 139/23/1 140/24/1
f 141/41/1 142/42/1 143/43/1 144/44/1
f 145/13/1 146/14/1 147/15/1 148/16/1
f 149/21/1 150/22/1 151/23/1 152/24/1
f 153/25/1 154/26/1 155/27/1 156/28/1
f 157/29/1 158/30/1 159/31/1 160/32/1
f 161/33/1 162/34/1 163/35/1 164/36/1
f 165/13/1 166/14/1 167/15/1 168/16/1
f 169/21/1 170/22/1 171/23/1 172/24/1
f 173/41/1 174/42/1 175/43/1 176/44/1
f 177/13/1 178/14/1 179/15/1 180/16/1
f 181/21/1 182/22/1 183/23/1 184/24/1
f 185/13/1 186/14/1 187/15/1 188/16/1
f 189/21/1 190/22/1 191/23/1 192/24/1
f 193/37/1 194/38/1 195/39/1 196/40/1
f 197/13/1 198/14/1 199/15/1 200/16/1
f 201/21/1 202/22/1 203/23/1 204/24/1
f 205/13/1 206/14/1 207/15/1 208/16/1
f 209/21/1 210/22/1 211/23/1 212/24/1
f 213/1/1 214/2/1 215/3/1 216/4/1
f 217/5/1 218/6/1 219/7/1 220/8/1
f 221/5/1 222/6/1 223/7/1 224/8/1
f 225/5/1 226/6/1 227/7/1 228/8/1
f 229/9/1 230/10/1 231/11/1 232/12/1
f 233/13/1 234/14/1 235/15/1 236/16/1
f 237/21/1 238/22/1 239/23/1 240/24/1
f 241/25/1 242/26/1 243/27/1 244/28/1
f 245/29/1 246/30/1 247/31/1 248/32/1
f 249/29/1 250/30/1 251/31/1 252/32/1
f 253/29/1 254/30/1 255/31/1 256/32/1
f 257/33/1 258/34/1 259/35/1 260/36/1
f 261/25/1 262/26/1 263/27/1 264/28/1
f 265/33/1 266/34/1 267/35/1 268/36/1

