# Tiled2Unity generated file. Do not modify by hand.
# Wavefront file for 'NewAstralaWoodsWest_mesh_0046.obj'

# Vertices (Count = 160)
v -137 -170 0
v -138 -170 0
v -138 -169 0
v -137 -169 0
v -136 -170 0
v -137 -170 0
v -137 -169 0
v -136 -169 0
v -135 -170 0
v -136 -170 0
v -136 -169 0
v -135 -169 0
v -134 -170 0
v -135 -170 0
v -135 -169 0
v -134 -169 0
v -133 -170 0
v -134 -170 0
v -134 -169 0
v -133 -169 0
v -132 -170 0
v -133 -170 0
v -133 -169 0
v -132 -169 0
v -131 -170 0
v -132 -170 0
v -132 -169 0
v -131 -169 0
v -130 -170 0
v -131 -170 0
v -131 -169 0
v -130 -169 0
v -137 -171 0
v -138 -171 0
v -138 -170 0
v -137 -170 0
v -136 -171 0
v -137 -171 0
v -137 -170 0
v -136 -170 0
v -135 -171 0
v -136 -171 0
v -136 -170 0
v -135 -170 0
v -134 -171 0
v -135 -171 0
v -135 -170 0
v -134 -170 0
v -133 -171 0
v -134 -171 0
v -134 -170 0
v -133 -170 0
v -132 -171 0
v -133 -171 0
v -133 -170 0
v -132 -170 0
v -131 -171 0
v -132 -171 0
v -132 -170 0
v -131 -170 0
v -130 -171 0
v -131 -171 0
v -131 -170 0
v -130 -170 0
v -137 -172 0
v -138 -172 0
v -138 -171 0
v -137 -171 0
v -136 -172 0
v -137 -172 0
v -137 -171 0
v -136 -171 0
v -135 -172 0
v -136 -172 0
v -136 -171 0
v -135 -171 0
v -134 -172 0
v -135 -172 0
v -135 -171 0
v -134 -171 0
v -133 -172 0
v -134 -172 0
v -134 -171 0
v -133 -171 0
v -132 -172 0
v -133 -172 0
v -133 -171 0
v -132 -171 0
v -131 -172 0
v -132 -172 0
v -132 -171 0
v -131 -171 0
v -130 -172 0
v -131 -172 0
v -131 -171 0
v -130 -171 0
v -137 -173 0
v -138 -173 0
v -138 -172 0
v -137 -172 0
v -136 -173 0
v -137 -173 0
v -137 -172 0
v -136 -172 0
v -135 -173 0
v -136 -173 0
v -136 -172 0
v -135 -172 0
v -134 -173 0
v -135 -173 0
v -135 -172 0
v -134 -172 0
v -133 -173 0
v -134 -173 0
v -134 -172 0
v -133 -172 0
v -132 -173 0
v -133 -173 0
v -133 -172 0
v -132 -172 0
v -131 -173 0
v -132 -173 0
v -132 -172 0
v -131 -172 0
v -130 -173 0
v -131 -173 0
v -131 -172 0
v -130 -172 0
v -137 -174 0
v -138 -174 0
v -138 -173 0
v -137 -173 0
v -136 -174 0
v -137 -174 0
v -137 -173 0
v -136 -173 0
v -135 -174 0
v -136 -174 0
v -136 -173 0
v -135 -173 0
v -134 -174 0
v -135 -174 0
v -135 -173 0
v -134 -173 0
v -133 -174 0
v -134 -174 0
v -134 -173 0
v -133 -173 0
v -132 -174 0
v -133 -174 0
v -133 -173 0
v -132 -173 0
v -131 -174 0
v -132 -174 0
v -132 -173 0
v -131 -173 0
v -130 -174 0
v -131 -174 0
v -131 -173 0
v -130 -173 0

# Texture cooridinates (Count = 80)
vt 0.6268939 0.2518939
vt 0.7481061 0.2518939
vt 0.7481061 0.3731061
vt 0.6268939 0.3731061
vt 0.5018939 0.2518939
vt 0.6231061 0.2518939
vt 0.6231061 0.3731061
vt 0.5018939 0.3731061
vt 0.8768939 0.1268939
vt 0.9981061 0.1268939
vt 0.9981061 0.2481061
vt 0.8768939 0.2481061
vt 0.7518939 0.1268939
vt 0.8731061 0.1268939
vt 0.8731061 0.2481061
vt 0.7518939 0.2481061
vt 0.1268939 0.2518939
vt 0.2481061 0.2518939
vt 0.2481061 0.3731061
vt 0.1268939 0.3731061
vt 0.001893939 0.2518939
vt 0.1231061 0.2518939
vt 0.1231061 0.3731061
vt 0.001893939 0.3731061
vt 0.3768939 0.5018939
vt 0.4981061 0.5018939
vt 0.4981061 0.6231061
vt 0.3768939 0.6231061
vt 0.2518939 0.5018939
vt 0.3731061 0.5018939
vt 0.3731061 0.6231061
vt 0.2518939 0.6231061
vt 0.1268939 0.5018939
vt 0.2481061 0.5018939
vt 0.2481061 0.6231061
vt 0.1268939 0.6231061
vt 0.6268939 0.3768939
vt 0.7481061 0.3768939
vt 0.7481061 0.4981061
vt 0.6268939 0.4981061
vt 0.5018939 0.3768939
vt 0.6231061 0.3768939
vt 0.6231061 0.4981061
vt 0.5018939 0.4981061
vt 0.3768939 0.3768939
vt 0.4981061 0.3768939
vt 0.4981061 0.4981061
vt 0.3768939 0.4981061
vt 0.2518939 0.3768939
vt 0.3731061 0.3768939
vt 0.3731061 0.4981061
vt 0.2518939 0.4981061
vt 0.1268939 0.3768939
vt 0.2481061 0.3768939
vt 0.2481061 0.4981061
vt 0.1268939 0.4981061
vt 0.001893939 0.3768939
vt 0.1231061 0.3768939
vt 0.1231061 0.4981061
vt 0.001893939 0.4981061
vt 0.3768939 0.2518939
vt 0.4981061 0.2518939
vt 0.4981061 0.3731061
vt 0.3768939 0.3731061
vt 0.2518939 0.2518939
vt 0.3731061 0.2518939
vt 0.3731061 0.3731061
vt 0.2518939 0.3731061
vt 0.2518939 0.001893938
vt 0.3731061 0.001893938
vt 0.3731061 0.1231061
vt 0.2518939 0.1231061
vt 0.1268939 0.001893938
vt 0.2481061 0.001893938
vt 0.2481061 0.1231061
vt 0.1268939 0.1231061
vt 0.001893939 0.001893938
vt 0.1231061 0.001893938
vt 0.1231061 0.1231061
vt 0.001893939 0.1231061

# Normal
vn 0 0 -1

# Mesh description
g NewAstralaWoodsWest_mesh_0046

# Faces
f 1/1/1 2/2/1 3/3/1 4/4/1
f 5/5/1 6/6/1 7/7/1 8/8/1
f 9/9/1 10/10/1 11/11/1 12/12/1
f 13/13/1 14/14/1 15/15/1 16/16/1
f 17/9/1 18/10/1 19/11/1 20/12/1
f 21/13/1 22/14/1 23/15/1 24/16/1
f 25/17/1 26/18/1 27/19/1 28/20/1
f 29/21/1 30/22/1 31/23/1 32/24/1
f 33/25/1 34/26/1 35/27/1 36/28/1
f 37/29/1 38/30/1 39/31/1 40/32/1
f 41/29/1 42/30/1 43/31/1 44/32/1
f 45/29/1 46/30/1 47/31/1 48/32/1
f 49/29/1 50/30/1 51/31/1 52/32/1
f 53/29/1 54/30/1 55/31/1 56/32/1
f 57/29/1 58/30/1 59/31/1 60/32/1
f 61/33/1 62/34/1 63/35/1 64/36/1
f 65/37/1 66/38/1 67/39/1 68/40/1
f 69/41/1 70/42/1 71/43/1 72/44/1
f 73/45/1 74/46/1 75/47/1 76/48/1
f 77/49/1 78/50/1 79/51/1 80/52/1
f 81/45/1 82/46/1 83/47/1 84/48/1
f 85/49/1 86/50/1 87/51/1 88/52/1
f 89/53/1 90/54/1 91/55/1 92/56/1
f 93/57/1 94/58/1 95/59/1 96/60/1
f 97/1/1 98/2/1 99/3/1 100/4/1
f 101/5/1 102/6/1 103/7/1 104/8/1
f 105/61/1 106/62/1 107/63/1 108/64/1
f 109/65/1 110/66/1 111/67/1 112/68/1
f 113/61/1 114/62/1 115/63/1 116/64/1
f 117/65/1 118/66/1 119/67/1 120/68/1
f 121/17/1 122/18/1 123/19/1 124/20/1
f 125/21/1 126/22/1 127/23/1 128/24/1
f 129/69/1 130/70/1 131/71/1 132/72/1
f 133/73/1 134/74/1 135/75/1 136/76/1
f 137/73/1 138/74/1 139/75/1 140/76/1
f 141/73/1 142/74/1 143/75/1 144/76/1
f 145/73/1 146/74/1 147/75/1 148/76/1
f 149/73/1 150/74/1 151/75/1 152/76/1
f 153/73/1 154/74/1 155/75/1 156/76/1
f 157/77/1 158/78/1 159/79/1 160/80/1

