# Tiled2Unity generated file. Do not modify by hand.
# Wavefront file for 'NewAstralaWoodsWest_mesh_0031.obj'

# Vertices (Count = 104)
v -145 -38 0
v -146 -38 0
v -146 -37 0
v -145 -37 0
v -144 -38 0
v -145 -38 0
v -145 -37 0
v -144 -37 0
v -143 -38 0
v -144 -38 0
v -144 -37 0
v -143 -37 0
v -140 -38 0
v -141 -38 0
v -141 -37 0
v -140 -37 0
v -139 -38 0
v -140 -38 0
v -140 -37 0
v -139 -37 0
v -145 -39 0
v -146 -39 0
v -146 -38 0
v -145 -38 0
v -144 -39 0
v -145 -39 0
v -145 -38 0
v -144 -38 0
v -143 -39 0
v -144 -39 0
v -144 -38 0
v -143 -38 0
v -142 -39 0
v -143 -39 0
v -143 -38 0
v -142 -38 0
v -141 -39 0
v -142 -39 0
v -142 -38 0
v -141 -38 0
v -140 -39 0
v -141 -39 0
v -141 -38 0
v -140 -38 0
v -139 -39 0
v -140 -39 0
v -140 -38 0
v -139 -38 0
v -145 -40 0
v -146 -40 0
v -146 -39 0
v -145 -39 0
v -144 -40 0
v -145 -40 0
v -145 -39 0
v -144 -39 0
v -143 -40 0
v -144 -40 0
v -144 -39 0
v -143 -39 0
v -142 -40 0
v -143 -40 0
v -143 -39 0
v -142 -39 0
v -141 -40 0
v -142 -40 0
v -142 -39 0
v -141 -39 0
v -145 -41 0
v -146 -41 0
v -146 -40 0
v -145 -40 0
v -144 -41 0
v -145 -41 0
v -145 -40 0
v -144 -40 0
v -143 -41 0
v -144 -41 0
v -144 -40 0
v -143 -40 0
v -142 -41 0
v -143 -41 0
v -143 -40 0
v -142 -40 0
v -141 -41 0
v -142 -41 0
v -142 -40 0
v -141 -40 0
v -143 -42 0
v -144 -42 0
v -144 -41 0
v -143 -41 0
v -142 -42 0
v -143 -42 0
v -143 -41 0
v -142 -41 0
v -141 -42 0
v -142 -42 0
v -142 -41 0
v -141 -41 0
v -142 -43 0
v -143 -43 0
v -143 -42 0
v -142 -42 0

# Texture cooridinates (Count = 12)
vt 0.3383838 0.3358586
vt 0.6616161 0.3358586
vt 0.6616161 0.4974747
vt 0.3383838 0.4974747
vt 0.005050505 0.8358586
vt 0.3282828 0.8358586
vt 0.3282828 0.9974747
vt 0.005050505 0.9974747
vt 0.005050505 0.00252527
vt 0.3282828 0.00252527
vt 0.3282828 0.1641414
vt 0.005050505 0.1641414

# Normal
vn 0 0 -1

# Mesh description
g NewAstralaWoodsWest_mesh_0031

# Faces
f 1/1/1 2/2/1 3/3/1 4/4/1
f 5/1/1 6/2/1 7/3/1 8/4/1
f 9/1/1 10/2/1 11/3/1 12/4/1
f 13/1/1 14/2/1 15/3/1 16/4/1
f 17/1/1 18/2/1 19/3/1 20/4/1
f 21/1/1 22/2/1 23/3/1 24/4/1
f 25/1/1 26/2/1 27/3/1 28/4/1
f 29/1/1 30/2/1 31/3/1 32/4/1
f 33/1/1 34/2/1 35/3/1 36/4/1
f 37/5/1 38/6/1 39/7/1 40/8/1
f 41/1/1 42/2/1 43/3/1 44/4/1
f 45/1/1 46/2/1 47/3/1 48/4/1
f 49/9/1 50/10/1 51/11/1 52/12/1
f 53/1/1 54/2/1 55/3/1 56/4/1
f 57/1/1 58/2/1 59/3/1 60/4/1
f 61/1/1 62/2/1 63/3/1 64/4/1
f 65/1/1 66/2/1 67/3/1 68/4/1
f 69/1/1 70/2/1 71/3/1 72/4/1
f 73/1/1 74/2/1 75/3/1 76/4/1
f 77/5/1 78/6/1 79/7/1 80/8/1
f 81/1/1 82/2/1 83/3/1 84/4/1
f 85/1/1 86/2/1 87/3/1 88/4/1
f 89/1/1 90/2/1 91/3/1 92/4/1
f 93/1/1 94/2/1 95/3/1 96/4/1
f 97/1/1 98/2/1 99/3/1 100/4/1
f 101/1/1 102/2/1 103/3/1 104/4/1

