# Tiled2Unity generated file. Do not modify by hand.
# Wavefront file for 'NewAstralaWoodsWest_mesh_0066.obj'

# Vertices (Count = 476)
v -424 -18 0
v -425 -18 0
v -425 -17 0
v -424 -17 0
v -423 -18 0
v -424 -18 0
v -424 -17 0
v -423 -17 0
v -421 -18 0
v -422 -18 0
v -422 -17 0
v -421 -17 0
v -420 -18 0
v -421 -18 0
v -421 -17 0
v -420 -17 0
v -419 -18 0
v -420 -18 0
v -420 -17 0
v -419 -17 0
v -418 -18 0
v -419 -18 0
v -419 -17 0
v -418 -17 0
v -424 -19 0
v -425 -19 0
v -425 -18 0
v -424 -18 0
v -423 -19 0
v -424 -19 0
v -424 -18 0
v -423 -18 0
v -421 -19 0
v -422 -19 0
v -422 -18 0
v -421 -18 0
v -420 -19 0
v -421 -19 0
v -421 -18 0
v -420 -18 0
v -419 -19 0
v -420 -19 0
v -420 -18 0
v -419 -18 0
v -418 -19 0
v -419 -19 0
v -419 -18 0
v -418 -18 0
v -425 -20 0
v -426 -20 0
v -426 -19 0
v -425 -19 0
v -424 -20 0
v -425 -20 0
v -425 -19 0
v -424 -19 0
v -423 -20 0
v -424 -20 0
v -424 -19 0
v -423 -19 0
v -422 -20 0
v -423 -20 0
v -423 -19 0
v -422 -19 0
v -420 -20 0
v -421 -20 0
v -421 -19 0
v -420 -19 0
v -418 -20 0
v -419 -20 0
v -419 -19 0
v -418 -19 0
v -422 -21 0
v -423 -21 0
v -423 -20 0
v -422 -20 0
v -421 -21 0
v -422 -21 0
v -422 -20 0
v -421 -20 0
v -420 -21 0
v -421 -21 0
v -421 -20 0
v -420 -20 0
v -418 -21 0
v -419 -21 0
v -419 -20 0
v -418 -20 0
v -418 -22 0
v -419 -22 0
v -419 -21 0
v -418 -21 0
v -408 -25 0
v -409 -25 0
v -409 -24 0
v -408 -24 0
v -404 -25 0
v -405 -25 0
v -405 -24 0
v -404 -24 0
v -403 -25 0
v -404 -25 0
v -404 -24 0
v -403 -24 0
v -408 -26 0
v -409 -26 0
v -409 -25 0
v -408 -25 0
v -404 -26 0
v -405 -26 0
v -405 -25 0
v -404 -25 0
v -403 -26 0
v -404 -26 0
v -404 -25 0
v -403 -25 0
v -408 -27 0
v -409 -27 0
v -409 -26 0
v -408 -26 0
v -404 -27 0
v -405 -27 0
v -405 -26 0
v -404 -26 0
v -408 -28 0
v -409 -28 0
v -409 -27 0
v -408 -27 0
v -404 -28 0
v -405 -28 0
v -405 -27 0
v -404 -27 0
v -408 -29 0
v -409 -29 0
v -409 -28 0
v -408 -28 0
v -404 -29 0
v -405 -29 0
v -405 -28 0
v -404 -28 0
v -449 -153 0
v -450 -153 0
v -450 -152 0
v -449 -152 0
v -448 -153 0
v -449 -153 0
v -449 -152 0
v -448 -152 0
v -447 -153 0
v -448 -153 0
v -448 -152 0
v -447 -152 0
v -446 -153 0
v -447 -153 0
v -447 -152 0
v -446 -152 0
v -445 -153 0
v -446 -153 0
v -446 -152 0
v -445 -152 0
v -444 -153 0
v -445 -153 0
v -445 -152 0
v -444 -152 0
v -443 -153 0
v -444 -153 0
v -444 -152 0
v -443 -152 0
v -442 -153 0
v -443 -153 0
v -443 -152 0
v -442 -152 0
v -441 -153 0
v -442 -153 0
v -442 -152 0
v -441 -152 0
v -440 -153 0
v -441 -153 0
v -441 -152 0
v -440 -152 0
v -439 -153 0
v -440 -153 0
v -440 -152 0
v -439 -152 0
v -438 -153 0
v -439 -153 0
v -439 -152 0
v -438 -152 0
v -437 -153 0
v -438 -153 0
v -438 -152 0
v -437 -152 0
v -436 -153 0
v -437 -153 0
v -437 -152 0
v -436 -152 0
v -435 -153 0
v -436 -153 0
v -436 -152 0
v -435 -152 0
v -434 -153 0
v -435 -153 0
v -435 -152 0
v -434 -152 0
v -433 -153 0
v -434 -153 0
v -434 -152 0
v -433 -152 0
v -432 -153 0
v -433 -153 0
v -433 -152 0
v -432 -152 0
v -431 -153 0
v -432 -153 0
v -432 -152 0
v -431 -152 0
v -430 -153 0
v -431 -153 0
v -431 -152 0
v -430 -152 0
v -429 -153 0
v -430 -153 0
v -430 -152 0
v -429 -152 0
v -449 -154 0
v -450 -154 0
v -450 -153 0
v -449 -153 0
v -448 -154 0
v -449 -154 0
v -449 -153 0
v -448 -153 0
v -447 -154 0
v -448 -154 0
v -448 -153 0
v -447 -153 0
v -446 -154 0
v -447 -154 0
v -447 -153 0
v -446 -153 0
v -445 -154 0
v -446 -154 0
v -446 -153 0
v -445 -153 0
v -444 -154 0
v -445 -154 0
v -445 -153 0
v -444 -153 0
v -443 -154 0
v -444 -154 0
v -444 -153 0
v -443 -153 0
v -442 -154 0
v -443 -154 0
v -443 -153 0
v -442 -153 0
v -441 -154 0
v -442 -154 0
v -442 -153 0
v -441 -153 0
v -440 -154 0
v -441 -154 0
v -441 -153 0
v -440 -153 0
v -439 -154 0
v -440 -154 0
v -440 -153 0
v -439 -153 0
v -438 -154 0
v -439 -154 0
v -439 -153 0
v -438 -153 0
v -437 -154 0
v -438 -154 0
v -438 -153 0
v -437 -153 0
v -436 -154 0
v -437 -154 0
v -437 -153 0
v -436 -153 0
v -435 -154 0
v -436 -154 0
v -436 -153 0
v -435 -153 0
v -434 -154 0
v -435 -154 0
v -435 -153 0
v -434 -153 0
v -433 -154 0
v -434 -154 0
v -434 -153 0
v -433 -153 0
v -432 -154 0
v -433 -154 0
v -433 -153 0
v -432 -153 0
v -431 -154 0
v -432 -154 0
v -432 -153 0
v -431 -153 0
v -430 -154 0
v -431 -154 0
v -431 -153 0
v -430 -153 0
v -429 -154 0
v -430 -154 0
v -430 -153 0
v -429 -153 0
v -449 -167 0
v -450 -167 0
v -450 -166 0
v -449 -166 0
v -448 -167 0
v -449 -167 0
v -449 -166 0
v -448 -166 0
v -447 -167 0
v -448 -167 0
v -448 -166 0
v -447 -166 0
v -446 -167 0
v -447 -167 0
v -447 -166 0
v -446 -166 0
v -445 -167 0
v -446 -167 0
v -446 -166 0
v -445 -166 0
v -444 -167 0
v -445 -167 0
v -445 -166 0
v -444 -166 0
v -443 -167 0
v -444 -167 0
v -444 -166 0
v -443 -166 0
v -442 -167 0
v -443 -167 0
v -443 -166 0
v -442 -166 0
v -441 -167 0
v -442 -167 0
v -442 -166 0
v -441 -166 0
v -440 -167 0
v -441 -167 0
v -441 -166 0
v -440 -166 0
v -439 -167 0
v -440 -167 0
v -440 -166 0
v -439 -166 0
v -438 -167 0
v -439 -167 0
v -439 -166 0
v -438 -166 0
v -437 -167 0
v -438 -167 0
v -438 -166 0
v -437 -166 0
v -436 -167 0
v -437 -167 0
v -437 -166 0
v -436 -166 0
v -435 -167 0
v -436 -167 0
v -436 -166 0
v -435 -166 0
v -434 -167 0
v -435 -167 0
v -435 -166 0
v -434 -166 0
v -433 -167 0
v -434 -167 0
v -434 -166 0
v -433 -166 0
v -432 -167 0
v -433 -167 0
v -433 -166 0
v -432 -166 0
v -431 -167 0
v -432 -167 0
v -432 -166 0
v -431 -166 0
v -430 -167 0
v -431 -167 0
v -431 -166 0
v -430 -166 0
v -429 -167 0
v -430 -167 0
v -430 -166 0
v -429 -166 0
v -449 -168 0
v -450 -168 0
v -450 -167 0
v -449 -167 0
v -448 -168 0
v -449 -168 0
v -449 -167 0
v -448 -167 0
v -447 -168 0
v -448 -168 0
v -448 -167 0
v -447 -167 0
v -446 -168 0
v -447 -168 0
v -447 -167 0
v -446 -167 0
v -445 -168 0
v -446 -168 0
v -446 -167 0
v -445 -167 0
v -444 -168 0
v -445 -168 0
v -445 -167 0
v -444 -167 0
v -443 -168 0
v -444 -168 0
v -444 -167 0
v -443 -167 0
v -442 -168 0
v -443 -168 0
v -443 -167 0
v -442 -167 0
v -441 -168 0
v -442 -168 0
v -442 -167 0
v -441 -167 0
v -440 -168 0
v -441 -168 0
v -441 -167 0
v -440 -167 0
v -439 -168 0
v -440 -168 0
v -440 -167 0
v -439 -167 0
v -438 -168 0
v -439 -168 0
v -439 -167 0
v -438 -167 0
v -437 -168 0
v -438 -168 0
v -438 -167 0
v -437 -167 0
v -436 -168 0
v -437 -168 0
v -437 -167 0
v -436 -167 0
v -435 -168 0
v -436 -168 0
v -436 -167 0
v -435 -167 0
v -434 -168 0
v -435 -168 0
v -435 -167 0
v -434 -167 0
v -433 -168 0
v -434 -168 0
v -434 -167 0
v -433 -167 0
v -432 -168 0
v -433 -168 0
v -433 -167 0
v -432 -167 0
v -431 -168 0
v -432 -168 0
v -432 -167 0
v -431 -167 0
v -430 -168 0
v -431 -168 0
v -431 -167 0
v -430 -167 0
v -429 -168 0
v -430 -168 0
v -430 -167 0
v -429 -167 0

# Texture cooridinates (Count = 84)
vt 0.1127946 0.8358586
vt 0.2205387 0.8358586
vt 0.2205387 0.9974747
vt 0.1127946 0.9974747
vt 0.001683502 0.8358586
vt 0.1094276 0.8358586
vt 0.1094276 0.9974747
vt 0.001683502 0.9974747
vt 0.1127946 0.669192
vt 0.2205387 0.669192
vt 0.2205387 0.8308081
vt 0.1127946 0.8308081
vt 0.001683502 0.669192
vt 0.1094276 0.669192
vt 0.1094276 0.8308081
vt 0.001683502 0.8308081
vt 0.3350168 0.1691919
vt 0.4427609 0.1691919
vt 0.4427609 0.3308081
vt 0.3350168 0.3308081
vt 0.5572391 0.1691919
vt 0.6649832 0.1691919
vt 0.6649832 0.3308081
vt 0.5572391 0.3308081
vt 0.446128 0.1691919
vt 0.553872 0.1691919
vt 0.553872 0.3308081
vt 0.446128 0.3308081
vt 0.1127946 0.5025252
vt 0.2205387 0.5025252
vt 0.2205387 0.6641414
vt 0.1127946 0.6641414
vt 0.001683502 0.3358586
vt 0.1094276 0.3358586
vt 0.1094276 0.4974747
vt 0.001683502 0.4974747
vt 0.3350168 0.5025252
vt 0.4427609 0.5025252
vt 0.4427609 0.6641414
vt 0.3350168 0.6641414
vt 0.446128 0.5025252
vt 0.553872 0.5025252
vt 0.553872 0.6641414
vt 0.446128 0.6641414
vt 0.446128 0.669192
vt 0.553872 0.669192
vt 0.553872 0.8308081
vt 0.446128 0.8308081
vt 0.7794613 0.5025252
vt 0.8872054 0.5025252
vt 0.8872054 0.6641414
vt 0.7794613 0.6641414
vt 0.7794613 0.1691919
vt 0.8872054 0.1691919
vt 0.8872054 0.3308081
vt 0.7794613 0.3308081
vt 0.2239057 0.8358586
vt 0.3316498 0.8358586
vt 0.3316498 0.9974747
vt 0.2239057 0.9974747
vt 0.1127946 0.1691919
vt 0.2205387 0.1691919
vt 0.2205387 0.3308081
vt 0.1127946 0.3308081
vt 0.2239057 0.669192
vt 0.3316498 0.669192
vt 0.3316498 0.8308081
vt 0.2239057 0.8308081
vt 0.1127946 0.00252527
vt 0.2205387 0.00252527
vt 0.2205387 0.1641414
vt 0.1127946 0.1641414
vt 0.2239057 0.3358586
vt 0.3316498 0.3358586
vt 0.3316498 0.4974747
vt 0.2239057 0.4974747
vt 0.7794613 0.669192
vt 0.8872054 0.669192
vt 0.8872054 0.8308081
vt 0.7794613 0.8308081
vt 0.8905724 0.669192
vt 0.9983165 0.669192
vt 0.9983165 0.8308081
vt 0.8905724 0.8308081

# Normal
vn 0 0 -1

# Mesh description
g NewAstralaWoodsWest_mesh_0066

# Faces
f 1/1/1 2/2/1 3/3/1 4/4/1
f 5/1/1 6/2/1 7/3/1 8/4/1
f 9/1/1 10/2/1 11/3/1 12/4/1
f 13/1/1 14/2/1 15/3/1 16/4/1
f 17/1/1 18/2/1 19/3/1 20/4/1
f 21/5/1 22/6/1 23/7/1 24/8/1
f 25/9/1 26/10/1 27/11/1 28/12/1
f 29/9/1 30/10/1 31/11/1 32/12/1
f 33/9/1 34/10/1 35/11/1 36/12/1
f 37/9/1 38/10/1 39/11/1 40/12/1
f 41/9/1 42/10/1 43/11/1 44/12/1
f 45/13/1 46/14/1 47/15/1 48/16/1
f 49/17/1 50/18/1 51/19/1 52/20/1
f 53/21/1 54/22/1 55/23/1 56/24/1
f 57/25/1 58/26/1 59/27/1 60/28/1
f 61/17/1 62/18/1 63/19/1 64/20/1
f 65/29/1 66/30/1 67/31/1 68/32/1
f 69/33/1 70/34/1 71/35/1 72/36/1
f 73/37/1 74/38/1 75/39/1 76/40/1
f 77/41/1 78/42/1 79/43/1 80/44/1
f 81/45/1 82/46/1 83/47/1 84/48/1
f 85/49/1 86/50/1 87/51/1 88/52/1
f 89/53/1 90/54/1 91/55/1 92/56/1
f 93/5/1 94/6/1 95/7/1 96/8/1
f 97/57/1 98/58/1 99/59/1 100/60/1
f 101/61/1 102/62/1 103/63/1 104/64/1
f 105/13/1 106/14/1 107/15/1 108/16/1
f 109/65/1 110/66/1 111/67/1 112/68/1
f 113/69/1 114/70/1 115/71/1 116/72/1
f 117/33/1 118/34/1 119/35/1 120/36/1
f 121/73/1 122/74/1 123/75/1 124/76/1
f 125/77/1 126/78/1 127/79/1 128/80/1
f 129/81/1 130/82/1 131/83/1 132/84/1
f 133/77/1 134/78/1 135/79/1 136/80/1
f 137/81/1 138/82/1 139/83/1 140/84/1
f 141/1/1 142/2/1 143/3/1 144/4/1
f 145/1/1 146/2/1 147/3/1 148/4/1
f 149/1/1 150/2/1 151/3/1 152/4/1
f 153/1/1 154/2/1 155/3/1 156/4/1
f 157/1/1 158/2/1 159/3/1 160/4/1
f 161/1/1 162/2/1 163/3/1 164/4/1
f 165/1/1 166/2/1 167/3/1 168/4/1
f 169/1/1 170/2/1 171/3/1 172/4/1
f 173/1/1 174/2/1 175/3/1 176/4/1
f 177/1/1 178/2/1 179/3/1 180/4/1
f 181/1/1 182/2/1 183/3/1 184/4/1
f 185/1/1 186/2/1 187/3/1 188/4/1
f 189/1/1 190/2/1 191/3/1 192/4/1
f 193/1/1 194/2/1 195/3/1 196/4/1
f 197/1/1 198/2/1 199/3/1 200/4/1
f 201/1/1 202/2/1 203/3/1 204/4/1
f 205/1/1 206/2/1 207/3/1 208/4/1
f 209/1/1 210/2/1 211/3/1 212/4/1
f 213/1/1 214/2/1 215/3/1 216/4/1
f 217/1/1 218/2/1 219/3/1 220/4/1
f 221/5/1 222/6/1 223/7/1 224/8/1
f 225/9/1 226/10/1 227/11/1 228/12/1
f 229/9/1 230/10/1 231/11/1 232/12/1
f 233/9/1 234/10/1 235/11/1 236/12/1
f 237/9/1 238/10/1 239/11/1 240/12/1
f 241/9/1 242/10/1 243/11/1 244/12/1
f 245/9/1 246/10/1 247/11/1 248/12/1
f 249/9/1 250/10/1 251/11/1 252/12/1
f 253/9/1 254/10/1 255/11/1 256/12/1
f 257/9/1 258/10/1 259/11/1 260/12/1
f 261/9/1 262/10/1 263/11/1 264/12/1
f 265/9/1 266/10/1 267/11/1 268/12/1
f 269/9/1 270/10/1 271/11/1 272/12/1
f 273/9/1 274/10/1 275/11/1 276/12/1
f 277/9/1 278/10/1 279/11/1 280/12/1
f 281/9/1 282/10/1 283/11/1 284/12/1
f 285/9/1 286/10/1 287/11/1 288/12/1
f 289/9/1 290/10/1 291/11/1 292/12/1
f 293/9/1 294/10/1 295/11/1 296/12/1
f 297/9/1 298/10/1 299/11/1 300/12/1
f 301/9/1 302/10/1 303/11/1 304/12/1
f 305/13/1 306/14/1 307/15/1 308/16/1
f 309/1/1 310/2/1 311/3/1 312/4/1
f 313/1/1 314/2/1 315/3/1 316/4/1
f 317/1/1 318/2/1 319/3/1 320/4/1
f 321/1/1 322/2/1 323/3/1 324/4/1
f 325/1/1 326/2/1 327/3/1 328/4/1
f 329/1/1 330/2/1 331/3/1 332/4/1
f 333/1/1 334/2/1 335/3/1 336/4/1
f 337/1/1 338/2/1 339/3/1 340/4/1
f 341/1/1 342/2/1 343/3/1 344/4/1
f 345/1/1 346/2/1 347/3/1 348/4/1
f 349/1/1 350/2/1 351/3/1 352/4/1
f 353/1/1 354/2/1 355/3/1 356/4/1
f 357/1/1 358/2/1 359/3/1 360/4/1
f 361/1/1 362/2/1 363/3/1 364/4/1
f 365/1/1 366/2/1 367/3/1 368/4/1
f 369/1/1 370/2/1 371/3/1 372/4/1
f 373/1/1 374/2/1 375/3/1 376/4/1
f 377/1/1 378/2/1 379/3/1 380/4/1
f 381/1/1 382/2/1 383/3/1 384/4/1
f 385/1/1 386/2/1 387/3/1 388/4/1
f 389/5/1 390/6/1 391/7/1 392/8/1
f 393/9/1 394/10/1 395/11/1 396/12/1
f 397/9/1 398/10/1 399/11/1 400/12/1
f 401/9/1 402/10/1 403/11/1 404/12/1
f 405/9/1 406/10/1 407/11/1 408/12/1
f 409/9/1 410/10/1 411/11/1 412/12/1
f 413/9/1 414/10/1 415/11/1 416/12/1
f 417/9/1 418/10/1 419/11/1 420/12/1
f 421/9/1 422/10/1 423/11/1 424/12/1
f 425/9/1 426/10/1 427/11/1 428/12/1
f 429/9/1 430/10/1 431/11/1 432/12/1
f 433/9/1 434/10/1 435/11/1 436/12/1
f 437/9/1 438/10/1 439/11/1 440/12/1
f 441/9/1 442/10/1 443/11/1 444/12/1
f 445/9/1 446/10/1 447/11/1 448/12/1
f 449/9/1 450/10/1 451/11/1 452/12/1
f 453/9/1 454/10/1 455/11/1 456/12/1
f 457/9/1 458/10/1 459/11/1 460/12/1
f 461/9/1 462/10/1 463/11/1 464/12/1
f 465/9/1 466/10/1 467/11/1 468/12/1
f 469/9/1 470/10/1 471/11/1 472/12/1
f 473/13/1 474/14/1 475/15/1 476/16/1

