# Tiled2Unity generated file. Do not modify by hand.
# Wavefront file for 'NewAstralaWoodsWest_mesh_0033.obj'

# Vertices (Count = 852)
v -440 -18 0
v -441 -18 0
v -441 -17 0
v -440 -17 0
v -435 -18 0
v -436 -18 0
v -436 -17 0
v -435 -17 0
v -433 -18 0
v -434 -18 0
v -434 -17 0
v -433 -17 0
v -422 -18 0
v -423 -18 0
v -423 -17 0
v -422 -17 0
v -418 -18 0
v -419 -18 0
v -419 -17 0
v -418 -17 0
v -440 -19 0
v -441 -19 0
v -441 -18 0
v -440 -18 0
v -439 -19 0
v -440 -19 0
v -440 -18 0
v -439 -18 0
v -435 -19 0
v -436 -19 0
v -436 -18 0
v -435 -18 0
v -434 -19 0
v -435 -19 0
v -435 -18 0
v -434 -18 0
v -423 -19 0
v -424 -19 0
v -424 -18 0
v -423 -18 0
v -418 -19 0
v -419 -19 0
v -419 -18 0
v -418 -18 0
v -417 -19 0
v -418 -19 0
v -418 -18 0
v -417 -18 0
v -439 -20 0
v -440 -20 0
v -440 -19 0
v -439 -19 0
v -438 -20 0
v -439 -20 0
v -439 -19 0
v -438 -19 0
v -437 -20 0
v -438 -20 0
v -438 -19 0
v -437 -19 0
v -436 -20 0
v -437 -20 0
v -437 -19 0
v -436 -19 0
v -435 -20 0
v -436 -20 0
v -436 -19 0
v -435 -19 0
v -433 -20 0
v -434 -20 0
v -434 -19 0
v -433 -19 0
v -423 -20 0
v -424 -20 0
v -424 -19 0
v -423 -19 0
v -422 -20 0
v -423 -20 0
v -423 -19 0
v -422 -19 0
v -421 -20 0
v -422 -20 0
v -422 -19 0
v -421 -19 0
v -417 -20 0
v -418 -20 0
v -418 -19 0
v -417 -19 0
v -407 -29 0
v -408 -29 0
v -408 -28 0
v -407 -28 0
v -406 -29 0
v -407 -29 0
v -407 -28 0
v -406 -28 0
v -405 -29 0
v -406 -29 0
v -406 -28 0
v -405 -28 0
v -405 -30 0
v -406 -30 0
v -406 -29 0
v -405 -29 0
v -405 -32 0
v -406 -32 0
v -406 -31 0
v -405 -31 0
v -407 -33 0
v -408 -33 0
v -408 -32 0
v -407 -32 0
v -406 -33 0
v -407 -33 0
v -407 -32 0
v -406 -32 0
v -407 -35 0
v -408 -35 0
v -408 -34 0
v -407 -34 0
v -407 -36 0
v -408 -36 0
v -408 -35 0
v -407 -35 0
v -406 -36 0
v -407 -36 0
v -407 -35 0
v -406 -35 0
v -405 -36 0
v -406 -36 0
v -406 -35 0
v -405 -35 0
v -407 -37 0
v -408 -37 0
v -408 -36 0
v -407 -36 0
v -406 -37 0
v -407 -37 0
v -407 -36 0
v -406 -36 0
v -407 -38 0
v -408 -38 0
v -408 -37 0
v -407 -37 0
v -406 -38 0
v -407 -38 0
v -407 -37 0
v -406 -37 0
v -405 -38 0
v -406 -38 0
v -406 -37 0
v -405 -37 0
v -406 -39 0
v -407 -39 0
v -407 -38 0
v -406 -38 0
v -406 -40 0
v -407 -40 0
v -407 -39 0
v -406 -39 0
v -407 -41 0
v -408 -41 0
v -408 -40 0
v -407 -40 0
v -406 -41 0
v -407 -41 0
v -407 -40 0
v -406 -40 0
v -406 -42 0
v -407 -42 0
v -407 -41 0
v -406 -41 0
v -405 -42 0
v -406 -42 0
v -406 -41 0
v -405 -41 0
v -143 -46 0
v -144 -46 0
v -144 -45 0
v -143 -45 0
v -142 -46 0
v -143 -46 0
v -143 -45 0
v -142 -45 0
v -142 -47 0
v -143 -47 0
v -143 -46 0
v -142 -46 0
v -141 -47 0
v -142 -47 0
v -142 -46 0
v -141 -46 0
v -152 -75 0
v -153 -75 0
v -153 -74 0
v -152 -74 0
v -151 -75 0
v -152 -75 0
v -152 -74 0
v -151 -74 0
v -152 -76 0
v -153 -76 0
v -153 -75 0
v -152 -75 0
v -151 -76 0
v -152 -76 0
v -152 -75 0
v -151 -75 0
v -152 -88 0
v -153 -88 0
v -153 -87 0
v -152 -87 0
v -152 -99 0
v -153 -99 0
v -153 -98 0
v -152 -98 0
v -150 -100 0
v -151 -100 0
v -151 -99 0
v -150 -99 0
v -150 -114 0
v -151 -114 0
v -151 -113 0
v -150 -113 0
v -151 -119 0
v -152 -119 0
v -152 -118 0
v -151 -118 0
v -150 -119 0
v -151 -119 0
v -151 -118 0
v -150 -118 0
v -149 -119 0
v -150 -119 0
v -150 -118 0
v -149 -118 0
v -150 -120 0
v -151 -120 0
v -151 -119 0
v -150 -119 0
v -149 -120 0
v -150 -120 0
v -150 -119 0
v -149 -119 0
v -147 -128 0
v -148 -128 0
v -148 -127 0
v -147 -127 0
v -149 -134 0
v -150 -134 0
v -150 -133 0
v -149 -133 0
v -148 -143 0
v -149 -143 0
v -149 -142 0
v -148 -142 0
v -147 -143 0
v -148 -143 0
v -148 -142 0
v -147 -142 0
v -149 -144 0
v -150 -144 0
v -150 -143 0
v -149 -143 0
v -147 -144 0
v -148 -144 0
v -148 -143 0
v -147 -143 0
v -149 -145 0
v -150 -145 0
v -150 -144 0
v -149 -144 0
v -148 -145 0
v -149 -145 0
v -149 -144 0
v -148 -144 0
v -146 -147 0
v -147 -147 0
v -147 -146 0
v -146 -146 0
v -145 -147 0
v -146 -147 0
v -146 -146 0
v -145 -146 0
v -149 -148 0
v -150 -148 0
v -150 -147 0
v -149 -147 0
v -148 -148 0
v -149 -148 0
v -149 -147 0
v -148 -147 0
v -147 -148 0
v -148 -148 0
v -148 -147 0
v -147 -147 0
v -146 -148 0
v -147 -148 0
v -147 -147 0
v -146 -147 0
v -148 -149 0
v -149 -149 0
v -149 -148 0
v -148 -148 0
v -146 -149 0
v -147 -149 0
v -147 -148 0
v -146 -148 0
v -145 -149 0
v -146 -149 0
v -146 -148 0
v -145 -148 0
v -367 -150 0
v -368 -150 0
v -368 -149 0
v -367 -149 0
v -147 -150 0
v -148 -150 0
v -148 -149 0
v -147 -149 0
v -369 -151 0
v -370 -151 0
v -370 -150 0
v -369 -150 0
v -368 -151 0
v -369 -151 0
v -369 -150 0
v -368 -150 0
v -367 -151 0
v -368 -151 0
v -368 -150 0
v -367 -150 0
v -366 -151 0
v -367 -151 0
v -367 -150 0
v -366 -150 0
v -365 -151 0
v -366 -151 0
v -366 -150 0
v -365 -150 0
v -363 -151 0
v -364 -151 0
v -364 -150 0
v -363 -150 0
v -149 -151 0
v -150 -151 0
v -150 -150 0
v -149 -150 0
v -148 -151 0
v -149 -151 0
v -149 -150 0
v -148 -150 0
v -370 -152 0
v -371 -152 0
v -371 -151 0
v -370 -151 0
v -369 -152 0
v -370 -152 0
v -370 -151 0
v -369 -151 0
v -367 -152 0
v -368 -152 0
v -368 -151 0
v -367 -151 0
v -363 -152 0
v -364 -152 0
v -364 -151 0
v -363 -151 0
v -371 -153 0
v -372 -153 0
v -372 -152 0
v -371 -152 0
v -368 -153 0
v -369 -153 0
v -369 -152 0
v -368 -152 0
v -367 -153 0
v -368 -153 0
v -368 -152 0
v -367 -152 0
v -362 -153 0
v -363 -153 0
v -363 -152 0
v -362 -152 0
v -361 -153 0
v -362 -153 0
v -362 -152 0
v -361 -152 0
v -357 -153 0
v -358 -153 0
v -358 -152 0
v -357 -152 0
v -356 -153 0
v -357 -153 0
v -357 -152 0
v -356 -152 0
v -379 -154 0
v -380 -154 0
v -380 -153 0
v -379 -153 0
v -370 -154 0
v -371 -154 0
v -371 -153 0
v -370 -153 0
v -369 -154 0
v -370 -154 0
v -370 -153 0
v -369 -153 0
v -368 -154 0
v -369 -154 0
v -369 -153 0
v -368 -153 0
v -367 -154 0
v -368 -154 0
v -368 -153 0
v -367 -153 0
v -362 -154 0
v -363 -154 0
v -363 -153 0
v -362 -153 0
v -361 -154 0
v -362 -154 0
v -362 -153 0
v -361 -153 0
v -359 -154 0
v -360 -154 0
v -360 -153 0
v -359 -153 0
v -358 -154 0
v -359 -154 0
v -359 -153 0
v -358 -153 0
v -355 -154 0
v -356 -154 0
v -356 -153 0
v -355 -153 0
v -367 -155 0
v -368 -155 0
v -368 -154 0
v -367 -154 0
v -366 -155 0
v -367 -155 0
v -367 -154 0
v -366 -154 0
v -360 -155 0
v -361 -155 0
v -361 -154 0
v -360 -154 0
v -358 -155 0
v -359 -155 0
v -359 -154 0
v -358 -154 0
v -354 -155 0
v -355 -155 0
v -355 -154 0
v -354 -154 0
v -366 -156 0
v -367 -156 0
v -367 -155 0
v -366 -155 0
v -364 -156 0
v -365 -156 0
v -365 -155 0
v -364 -155 0
v -363 -156 0
v -364 -156 0
v -364 -155 0
v -363 -155 0
v -360 -156 0
v -361 -156 0
v -361 -155 0
v -360 -155 0
v -358 -156 0
v -359 -156 0
v -359 -155 0
v -358 -155 0
v -354 -156 0
v -355 -156 0
v -355 -155 0
v -354 -155 0
v -362 -157 0
v -363 -157 0
v -363 -156 0
v -362 -156 0
v -360 -157 0
v -361 -157 0
v -361 -156 0
v -360 -156 0
v -359 -157 0
v -360 -157 0
v -360 -156 0
v -359 -156 0
v -358 -157 0
v -359 -157 0
v -359 -156 0
v -358 -156 0
v -354 -157 0
v -355 -157 0
v -355 -156 0
v -354 -156 0
v -359 -158 0
v -360 -158 0
v -360 -157 0
v -359 -157 0
v -355 -158 0
v -356 -158 0
v -356 -157 0
v -355 -157 0
v -359 -159 0
v -360 -159 0
v -360 -158 0
v -359 -158 0
v -354 -159 0
v -355 -159 0
v -355 -158 0
v -354 -158 0
v -358 -160 0
v -359 -160 0
v -359 -159 0
v -358 -159 0
v -357 -160 0
v -358 -160 0
v -358 -159 0
v -357 -159 0
v -354 -160 0
v -355 -160 0
v -355 -159 0
v -354 -159 0
v -359 -161 0
v -360 -161 0
v -360 -160 0
v -359 -160 0
v -354 -161 0
v -355 -161 0
v -355 -160 0
v -354 -160 0
v -359 -162 0
v -360 -162 0
v -360 -161 0
v -359 -161 0
v -354 -162 0
v -355 -162 0
v -355 -161 0
v -354 -161 0
v -367 -163 0
v -368 -163 0
v -368 -162 0
v -367 -162 0
v -365 -163 0
v -366 -163 0
v -366 -162 0
v -365 -162 0
v -363 -163 0
v -364 -163 0
v -364 -162 0
v -363 -162 0
v -362 -163 0
v -363 -163 0
v -363 -162 0
v -362 -162 0
v -361 -163 0
v -362 -163 0
v -362 -162 0
v -361 -162 0
v -360 -163 0
v -361 -163 0
v -361 -162 0
v -360 -162 0
v -359 -163 0
v -360 -163 0
v -360 -162 0
v -359 -162 0
v -358 -163 0
v -359 -163 0
v -359 -162 0
v -358 -162 0
v -356 -163 0
v -357 -163 0
v -357 -162 0
v -356 -162 0
v -355 -163 0
v -356 -163 0
v -356 -162 0
v -355 -162 0
v -368 -164 0
v -369 -164 0
v -369 -163 0
v -368 -163 0
v -367 -164 0
v -368 -164 0
v -368 -163 0
v -367 -163 0
v -365 -164 0
v -366 -164 0
v -366 -163 0
v -365 -163 0
v -364 -164 0
v -365 -164 0
v -365 -163 0
v -364 -163 0
v -363 -164 0
v -364 -164 0
v -364 -163 0
v -363 -163 0
v -359 -164 0
v -360 -164 0
v -360 -163 0
v -359 -163 0
v -358 -164 0
v -359 -164 0
v -359 -163 0
v -358 -163 0
v -357 -164 0
v -358 -164 0
v -358 -163 0
v -357 -163 0
v -372 -165 0
v -373 -165 0
v -373 -164 0
v -372 -164 0
v -371 -165 0
v -372 -165 0
v -372 -164 0
v -371 -164 0
v -370 -165 0
v -371 -165 0
v -371 -164 0
v -370 -164 0
v -369 -165 0
v -370 -165 0
v -370 -164 0
v -369 -164 0
v -365 -165 0
v -366 -165 0
v -366 -164 0
v -365 -164 0
v -364 -165 0
v -365 -165 0
v -365 -164 0
v -364 -164 0
v -363 -165 0
v -364 -165 0
v -364 -164 0
v -363 -164 0
v -359 -165 0
v -360 -165 0
v -360 -164 0
v -359 -164 0
v -377 -166 0
v -378 -166 0
v -378 -165 0
v -377 -165 0
v -373 -166 0
v -374 -166 0
v -374 -165 0
v -373 -165 0
v -372 -166 0
v -373 -166 0
v -373 -165 0
v -372 -165 0
v -369 -166 0
v -370 -166 0
v -370 -165 0
v -369 -165 0
v -364 -166 0
v -365 -166 0
v -365 -165 0
v -364 -165 0
v -362 -166 0
v -363 -166 0
v -363 -165 0
v -362 -165 0
v -360 -166 0
v -361 -166 0
v -361 -165 0
v -360 -165 0
v -359 -166 0
v -360 -166 0
v -360 -165 0
v -359 -165 0
v -378 -167 0
v -379 -167 0
v -379 -166 0
v -378 -166 0
v -372 -167 0
v -373 -167 0
v -373 -166 0
v -372 -166 0
v -371 -167 0
v -372 -167 0
v -372 -166 0
v -371 -166 0
v -370 -167 0
v -371 -167 0
v -371 -166 0
v -370 -166 0
v -369 -167 0
v -370 -167 0
v -370 -166 0
v -369 -166 0
v -368 -167 0
v -369 -167 0
v -369 -166 0
v -368 -166 0
v -367 -167 0
v -368 -167 0
v -368 -166 0
v -367 -166 0
v -366 -167 0
v -367 -167 0
v -367 -166 0
v -366 -166 0
v -364 -167 0
v -365 -167 0
v -365 -166 0
v -364 -166 0
v -363 -167 0
v -364 -167 0
v -364 -166 0
v -363 -166 0
v -361 -167 0
v -362 -167 0
v -362 -166 0
v -361 -166 0
v -360 -167 0
v -361 -167 0
v -361 -166 0
v -360 -166 0
v -382 -168 0
v -383 -168 0
v -383 -167 0
v -382 -167 0
v -371 -168 0
v -372 -168 0
v -372 -167 0
v -371 -167 0
v -370 -168 0
v -371 -168 0
v -371 -167 0
v -370 -167 0
v -369 -168 0
v -370 -168 0
v -370 -167 0
v -369 -167 0
v -368 -168 0
v -369 -168 0
v -369 -167 0
v -368 -167 0
v -366 -168 0
v -367 -168 0
v -367 -167 0
v -366 -167 0
v -364 -168 0
v -365 -168 0
v -365 -167 0
v -364 -167 0
v -368 -169 0
v -369 -169 0
v -369 -168 0
v -368 -168 0
v -140 -173 0
v -141 -173 0
v -141 -172 0
v -140 -172 0
v -150 -176 0
v -151 -176 0
v -151 -175 0
v -150 -175 0
v -149 -177 0
v -150 -177 0
v -150 -176 0
v -149 -176 0
v -149 -178 0
v -150 -178 0
v -150 -177 0
v -149 -177 0
v -149 -179 0
v -150 -179 0
v -150 -178 0
v -149 -178 0
v -149 -180 0
v -150 -180 0
v -150 -179 0
v -149 -179 0
v -149 -181 0
v -150 -181 0
v -150 -180 0
v -149 -180 0
v -149 -182 0
v -150 -182 0
v -150 -181 0
v -149 -181 0
v -145 -182 0
v -146 -182 0
v -146 -181 0
v -145 -181 0
v -144 -182 0
v -145 -182 0
v -145 -181 0
v -144 -181 0
v -150 -183 0
v -151 -183 0
v -151 -182 0
v -150 -182 0
v -148 -183 0
v -149 -183 0
v -149 -182 0
v -148 -182 0
v -145 -183 0
v -146 -183 0
v -146 -182 0
v -145 -182 0
v -144 -183 0
v -145 -183 0
v -145 -182 0
v -144 -182 0
v -143 -183 0
v -144 -183 0
v -144 -182 0
v -143 -182 0
v -146 -184 0
v -147 -184 0
v -147 -183 0
v -146 -183 0
v -144 -184 0
v -145 -184 0
v -145 -183 0
v -144 -183 0
v -143 -184 0
v -144 -184 0
v -144 -183 0
v -143 -183 0
v -133 -184 0
v -134 -184 0
v -134 -183 0
v -133 -183 0
v -137 -185 0
v -138 -185 0
v -138 -184 0
v -137 -184 0
v -136 -185 0
v -137 -185 0
v -137 -184 0
v -136 -184 0
v -138 -186 0
v -139 -186 0
v -139 -185 0
v -138 -185 0
v -135 -186 0
v -136 -186 0
v -136 -185 0
v -135 -185 0

# Texture cooridinates (Count = 84)
vt 0.3383838 0.5735931
vt 0.6616161 0.5735931
vt 0.6616161 0.7121212
vt 0.3383838 0.7121212
vt 0.005050505 0.5735931
vt 0.3282828 0.5735931
vt 0.3282828 0.7121212
vt 0.005050505 0.7121212
vt 0.005050505 0.002164483
vt 0.3282828 0.002164483
vt 0.3282828 0.1406927
vt 0.005050505 0.1406927
vt 0.6717172 0.1450216
vt 0.9949495 0.1450216
vt 0.9949495 0.2835498
vt 0.6717172 0.2835498
vt 0.6717172 0.4307359
vt 0.9949495 0.4307359
vt 0.9949495 0.5692641
vt 0.6717172 0.5692641
vt 0.3383838 0.1450216
vt 0.6616161 0.1450216
vt 0.6616161 0.2835498
vt 0.3383838 0.2835498
vt 0.3383838 0.002164483
vt 0.6616161 0.002164483
vt 0.6616161 0.1406927
vt 0.3383838 0.1406927
vt 0.6717172 0.2878788
vt 0.9949495 0.2878788
vt 0.9949495 0.4264069
vt 0.6717172 0.4264069
vt 0.005050505 0.1450216
vt 0.3282828 0.1450216
vt 0.3282828 0.2835498
vt 0.005050505 0.2835498
vt 0.6717172 0.5735931
vt 0.9949495 0.5735931
vt 0.9949495 0.7121212
vt 0.6717172 0.7121212
vt 0.005050505 0.2878788
vt 0.3282828 0.2878788
vt 0.3282828 0.4264069
vt 0.005050505 0.4264069
vt 0.6717172 0.002164483
vt 0.9949495 0.002164483
vt 0.9949495 0.1406927
vt 0.6717172 0.1406927
vt 0.3383838 0.4307359
vt 0.6616161 0.4307359
vt 0.6616161 0.5692641
vt 0.3383838 0.5692641
vt 0.6717172 0.8593073
vt 0.9949495 0.8593073
vt 0.9949495 0.9978355
vt 0.6717172 0.9978355
vt 0.005050505 0.8593073
vt 0.3282828 0.8593073
vt 0.3282828 0.9978355
vt 0.005050505 0.9978355
vt 0.005050505 0.7164502
vt 0.3282828 0.7164502
vt 0.3282828 0.8549783
vt 0.005050505 0.8549783
vt 0.6717172 0.7164502
vt 0.9949495 0.7164502
vt 0.9949495 0.8549783
vt 0.6717172 0.8549783
vt 0.3383838 0.8593073
vt 0.6616161 0.8593073
vt 0.6616161 0.9978355
vt 0.3383838 0.9978355
vt 0.3383838 0.7164502
vt 0.6616161 0.7164502
vt 0.6616161 0.8549783
vt 0.3383838 0.8549783
vt 0.005050505 0.4307359
vt 0.3282828 0.4307359
vt 0.3282828 0.5692641
vt 0.005050505 0.5692641
vt 0.3383838 0.2878788
vt 0.6616161 0.2878788
vt 0.6616161 0.4264069
vt 0.3383838 0.4264069

# Normal
vn 0 0 -1

# Mesh description
g NewAstralaWoodsWest_mesh_0033

# Faces
f 1/1/1 2/2/1 3/3/1 4/4/1
f 5/5/1 6/6/1 7/7/1 8/8/1
f 9/9/1 10/10/1 11/11/1 12/12/1
f 13/1/1 14/2/1 15/3/1 16/4/1
f 17/5/1 18/6/1 19/7/1 20/8/1
f 21/13/1 22/14/1 23/15/1 24/16/1
f 25/17/1 26/18/1 27/19/1 28/20/1
f 29/21/1 30/22/1 31/23/1 32/24/1
f 33/25/1 34/26/1 35/27/1 36/28/1
f 37/29/1 38/30/1 39/31/1 40/32/1
f 41/17/1 42/18/1 43/19/1 44/20/1
f 45/33/1 46/34/1 47/35/1 48/36/1
f 49/13/1 50/14/1 51/15/1 52/16/1
f 53/37/1 54/38/1 55/39/1 56/40/1
f 57/17/1 58/18/1 59/19/1 60/20/1
f 61/41/1 62/42/1 63/43/1 64/44/1
f 65/25/1 66/26/1 67/27/1 68/28/1
f 69/45/1 70/46/1 71/47/1 72/48/1
f 73/49/1 74/50/1 75/51/1 76/52/1
f 77/21/1 78/22/1 79/23/1 80/24/1
f 81/13/1 82/14/1 83/15/1 84/16/1
f 85/41/1 86/42/1 87/43/1 88/44/1
f 89/53/1 90/54/1 91/55/1 92/56/1
f 93/33/1 94/34/1 95/35/1 96/36/1
f 97/9/1 98/10/1 99/11/1 100/12/1
f 101/57/1 102/58/1 103/59/1 104/60/1
f 105/61/1 106/62/1 107/63/1 108/64/1
f 109/65/1 110/66/1 111/67/1 112/68/1
f 113/21/1 114/22/1 115/23/1 116/24/1
f 117/25/1 118/26/1 119/27/1 120/28/1
f 121/53/1 122/54/1 123/55/1 124/56/1
f 125/33/1 126/34/1 127/35/1 128/36/1
f 129/45/1 130/46/1 131/47/1 132/48/1
f 133/65/1 134/66/1 135/67/1 136/68/1
f 137/21/1 138/22/1 139/23/1 140/24/1
f 141/53/1 142/54/1 143/55/1 144/56/1
f 145/69/1 146/70/1 147/71/1 148/72/1
f 149/57/1 150/58/1 151/59/1 152/60/1
f 153/17/1 154/18/1 155/19/1 156/20/1
f 157/37/1 158/38/1 159/39/1 160/40/1
f 161/65/1 162/66/1 163/67/1 164/68/1
f 165/17/1 166/18/1 167/19/1 168/20/1
f 169/13/1 170/14/1 171/15/1 172/16/1
f 173/61/1 174/62/1 175/63/1 176/64/1
f 177/65/1 178/66/1 179/67/1 180/68/1
f 181/17/1 182/18/1 183/19/1 184/20/1
f 185/13/1 186/14/1 187/15/1 188/16/1
f 189/61/1 190/62/1 191/63/1 192/64/1
f 193/53/1 194/54/1 195/55/1 196/56/1
f 197/33/1 198/34/1 199/35/1 200/36/1
f 201/65/1 202/66/1 203/67/1 204/68/1
f 205/21/1 206/22/1 207/23/1 208/24/1
f 209/45/1 210/46/1 211/47/1 212/48/1
f 213/9/1 214/10/1 215/11/1 216/12/1
f 217/45/1 218/46/1 219/47/1 220/48/1
f 221/9/1 222/10/1 223/11/1 224/12/1
f 225/45/1 226/46/1 227/47/1 228/48/1
f 229/29/1 230/30/1 231/31/1 232/32/1
f 233/33/1 234/34/1 235/35/1 236/36/1
f 237/13/1 238/14/1 239/15/1 240/16/1
f 241/21/1 242/22/1 243/23/1 244/24/1
f 245/9/1 246/10/1 247/11/1 248/12/1
f 249/25/1 250/26/1 251/27/1 252/28/1
f 253/29/1 254/30/1 255/31/1 256/32/1
f 257/33/1 258/34/1 259/35/1 260/36/1
f 261/29/1 262/30/1 263/31/1 264/32/1
f 265/21/1 266/22/1 267/23/1 268/24/1
f 269/13/1 270/14/1 271/15/1 272/16/1
f 273/21/1 274/22/1 275/23/1 276/24/1
f 277/29/1 278/30/1 279/31/1 280/32/1
f 281/57/1 282/58/1 283/59/1 284/60/1
f 285/53/1 286/54/1 287/55/1 288/56/1
f 289/33/1 290/34/1 291/35/1 292/36/1
f 293/29/1 294/30/1 295/31/1 296/32/1
f 297/37/1 298/38/1 299/39/1 300/40/1
f 301/17/1 302/18/1 303/19/1 304/20/1
f 305/73/1 306/74/1 307/75/1 308/76/1
f 309/61/1 310/62/1 311/63/1 312/64/1
f 313/5/1 314/6/1 315/7/1 316/8/1
f 317/21/1 318/22/1 319/23/1 320/24/1
f 321/21/1 322/22/1 323/23/1 324/24/1
f 325/13/1 326/14/1 327/15/1 328/16/1
f 329/37/1 330/38/1 331/39/1 332/40/1
f 333/33/1 334/34/1 335/35/1 336/36/1
f 337/1/1 338/2/1 339/3/1 340/4/1
f 341/5/1 342/6/1 343/7/1 344/8/1
f 345/65/1 346/66/1 347/67/1 348/68/1
f 349/21/1 350/22/1 351/23/1 352/24/1
f 353/21/1 354/22/1 355/23/1 356/24/1
f 357/45/1 358/46/1 359/47/1 360/48/1
f 361/13/1 362/14/1 363/15/1 364/16/1
f 365/77/1 366/78/1 367/79/1 368/80/1
f 369/77/1 370/78/1 371/79/1 372/80/1
f 373/45/1 374/46/1 375/47/1 376/48/1
f 377/29/1 378/30/1 379/31/1 380/32/1
f 381/33/1 382/34/1 383/35/1 384/36/1
f 385/45/1 386/46/1 387/47/1 388/48/1
f 389/29/1 390/30/1 391/31/1 392/32/1
f 393/33/1 394/34/1 395/35/1 396/36/1
f 397/17/1 398/18/1 399/19/1 400/20/1
f 401/33/1 402/34/1 403/35/1 404/36/1
f 405/29/1 406/30/1 407/31/1 408/32/1
f 409/69/1 410/70/1 411/71/1 412/72/1
f 413/17/1 414/18/1 415/19/1 416/20/1
f 417/17/1 418/18/1 419/19/1 420/20/1
f 421/33/1 422/34/1 423/35/1 424/36/1
f 425/25/1 426/26/1 427/27/1 428/28/1
f 429/29/1 430/30/1 431/31/1 432/32/1
f 433/33/1 434/34/1 435/35/1 436/36/1
f 437/41/1 438/42/1 439/43/1 440/44/1
f 441/49/1 442/50/1 443/51/1 444/52/1
f 445/33/1 446/34/1 447/35/1 448/36/1
f 449/49/1 450/50/1 451/51/1 452/52/1
f 453/33/1 454/34/1 455/35/1 456/36/1
f 457/81/1 458/82/1 459/83/1 460/84/1
f 461/41/1 462/42/1 463/43/1 464/44/1
f 465/13/1 466/14/1 467/15/1 468/16/1
f 469/77/1 470/78/1 471/79/1 472/80/1
f 473/13/1 474/14/1 475/15/1 476/16/1
f 477/77/1 478/78/1 479/79/1 480/80/1
f 481/81/1 482/82/1 483/83/1 484/84/1
f 485/41/1 486/42/1 487/43/1 488/44/1
f 489/25/1 490/26/1 491/27/1 492/28/1
f 493/29/1 494/30/1 495/31/1 496/32/1
f 497/21/1 498/22/1 499/23/1 500/24/1
f 501/53/1 502/54/1 503/55/1 504/56/1
f 505/77/1 506/78/1 507/79/1 508/80/1
f 509/65/1 510/66/1 511/67/1 512/68/1
f 513/33/1 514/34/1 515/35/1 516/36/1
f 517/49/1 518/50/1 519/51/1 520/52/1
f 521/17/1 522/18/1 523/19/1 524/20/1
f 525/77/1 526/78/1 527/79/1 528/80/1
f 529/53/1 530/54/1 531/55/1 532/56/1
f 533/77/1 534/78/1 535/79/1 536/80/1
f 537/65/1 538/66/1 539/67/1 540/68/1
f 541/21/1 542/22/1 543/23/1 544/24/1
f 545/1/1 546/2/1 547/3/1 548/4/1
f 549/5/1 550/6/1 551/7/1 552/8/1
f 553/1/1 554/2/1 555/3/1 556/4/1
f 557/5/1 558/6/1 559/7/1 560/8/1
f 561/1/1 562/2/1 563/3/1 564/4/1
f 565/5/1 566/6/1 567/7/1 568/8/1
f 569/9/1 570/10/1 571/11/1 572/12/1
f 573/13/1 574/14/1 575/15/1 576/16/1
f 577/73/1 578/74/1 579/75/1 580/76/1
f 581/21/1 582/22/1 583/23/1 584/24/1
f 585/5/1 586/6/1 587/7/1 588/8/1
f 589/49/1 590/50/1 591/51/1 592/52/1
f 593/77/1 594/78/1 595/79/1 596/80/1
f 597/25/1 598/26/1 599/27/1 600/28/1
f 601/49/1 602/50/1 603/51/1 604/52/1
f 605/33/1 606/34/1 607/35/1 608/36/1
f 609/29/1 610/30/1 611/31/1 612/32/1
f 613/21/1 614/22/1 615/23/1 616/24/1
f 617/17/1 618/18/1 619/19/1 620/20/1
f 621/21/1 622/22/1 623/23/1 624/24/1
f 625/13/1 626/14/1 627/15/1 628/16/1
f 629/17/1 630/18/1 631/19/1 632/20/1
f 633/37/1 634/38/1 635/39/1 636/40/1
f 637/33/1 638/34/1 639/35/1 640/36/1
f 641/13/1 642/14/1 643/15/1 644/16/1
f 645/77/1 646/78/1 647/79/1 648/80/1
f 649/37/1 650/38/1 651/39/1 652/40/1
f 653/37/1 654/38/1 655/39/1 656/40/1
f 657/21/1 658/22/1 659/23/1 660/24/1
f 661/49/1 662/50/1 663/51/1 664/52/1
f 665/77/1 666/78/1 667/79/1 668/80/1
f 669/13/1 670/14/1 671/15/1 672/16/1
f 673/17/1 674/18/1 675/19/1 676/20/1
f 677/21/1 678/22/1 679/23/1 680/24/1
f 681/17/1 682/18/1 683/19/1 684/20/1
f 685/33/1 686/34/1 687/35/1 688/36/1
f 689/45/1 690/46/1 691/47/1 692/48/1
f 693/25/1 694/26/1 695/27/1 696/28/1
f 697/49/1 698/50/1 699/51/1 700/52/1
f 701/21/1 702/22/1 703/23/1 704/24/1
f 705/13/1 706/14/1 707/15/1 708/16/1
f 709/37/1 710/38/1 711/39/1 712/40/1
f 713/77/1 714/78/1 715/79/1 716/80/1
f 717/9/1 718/10/1 719/11/1 720/12/1
f 721/13/1 722/14/1 723/15/1 724/16/1
f 725/21/1 726/22/1 727/23/1 728/24/1
f 729/37/1 730/38/1 731/39/1 732/40/1
f 733/33/1 734/34/1 735/35/1 736/36/1
f 737/29/1 738/30/1 739/31/1 740/32/1
f 741/37/1 742/38/1 743/39/1 744/40/1
f 745/33/1 746/34/1 747/35/1 748/36/1
f 749/81/1 750/82/1 751/83/1 752/84/1
f 753/41/1 754/42/1 755/43/1 756/44/1
f 757/41/1 758/42/1 759/43/1 760/44/1
f 761/17/1 762/18/1 763/19/1 764/20/1
f 765/65/1 766/66/1 767/67/1 768/68/1
f 769/49/1 770/50/1 771/51/1 772/52/1
f 773/49/1 774/50/1 775/51/1 776/52/1
f 777/13/1 778/14/1 779/15/1 780/16/1
f 781/29/1 782/30/1 783/31/1 784/32/1
f 785/49/1 786/50/1 787/51/1 788/52/1
f 789/49/1 790/50/1 791/51/1 792/52/1
f 793/21/1 794/22/1 795/23/1 796/24/1
f 797/13/1 798/14/1 799/15/1 800/16/1
f 801/53/1 802/54/1 803/55/1 804/56/1
f 805/17/1 806/18/1 807/19/1 808/20/1
f 809/33/1 810/34/1 811/35/1 812/36/1
f 813/9/1 814/10/1 815/11/1 816/12/1
f 817/13/1 818/14/1 819/15/1 820/16/1
f 821/37/1 822/38/1 823/39/1 824/40/1
f 825/33/1 826/34/1 827/35/1 828/36/1
f 829/29/1 830/30/1 831/31/1 832/32/1
f 833/37/1 834/38/1 835/39/1 836/40/1
f 837/21/1 838/22/1 839/23/1 840/24/1
f 841/13/1 842/14/1 843/15/1 844/16/1
f 845/41/1 846/42/1 847/43/1 848/44/1
f 849/81/1 850/82/1 851/83/1 852/84/1

