# Tiled2Unity generated file. Do not modify by hand.
# Wavefront file for 'NewAstralaWoodsWest_mesh_0029.obj'

# Vertices (Count = 120)
v -431 -18 0
v -432 -18 0
v -432 -17 0
v -431 -17 0
v -428 -18 0
v -429 -18 0
v -429 -17 0
v -428 -17 0
v -431 -19 0
v -432 -19 0
v -432 -18 0
v -431 -18 0
v -428 -19 0
v -429 -19 0
v -429 -18 0
v -428 -18 0
v -436 -20 0
v -437 -20 0
v -437 -19 0
v -436 -19 0
v -435 -20 0
v -436 -20 0
v -436 -19 0
v -435 -19 0
v -434 -20 0
v -435 -20 0
v -435 -19 0
v -434 -19 0
v -431 -20 0
v -432 -20 0
v -432 -19 0
v -431 -19 0
v -428 -20 0
v -429 -20 0
v -429 -19 0
v -428 -19 0
v -425 -20 0
v -426 -20 0
v -426 -19 0
v -425 -19 0
v -424 -20 0
v -425 -20 0
v -425 -19 0
v -424 -19 0
v -423 -20 0
v -424 -20 0
v -424 -19 0
v -423 -19 0
v -422 -20 0
v -423 -20 0
v -423 -19 0
v -422 -19 0
v -434 -21 0
v -435 -21 0
v -435 -20 0
v -434 -20 0
v -431 -21 0
v -432 -21 0
v -432 -20 0
v -431 -20 0
v -428 -21 0
v -429 -21 0
v -429 -20 0
v -428 -20 0
v -425 -21 0
v -426 -21 0
v -426 -20 0
v -425 -20 0
v -422 -21 0
v -423 -21 0
v -423 -20 0
v -422 -20 0
v -408 -27 0
v -409 -27 0
v -409 -26 0
v -408 -26 0
v -408 -28 0
v -409 -28 0
v -409 -27 0
v -408 -27 0
v -408 -29 0
v -409 -29 0
v -409 -28 0
v -408 -28 0
v -408 -30 0
v -409 -30 0
v -409 -29 0
v -408 -29 0
v -408 -31 0
v -409 -31 0
v -409 -30 0
v -408 -30 0
v -408 -32 0
v -409 -32 0
v -409 -31 0
v -408 -31 0
v -408 -33 0
v -409 -33 0
v -409 -32 0
v -408 -32 0
v -408 -34 0
v -409 -34 0
v -409 -33 0
v -408 -33 0
v -408 -35 0
v -409 -35 0
v -409 -34 0
v -408 -34 0
v -408 -36 0
v -409 -36 0
v -409 -35 0
v -408 -35 0
v -408 -37 0
v -409 -37 0
v -409 -36 0
v -408 -36 0
v -408 -38 0
v -409 -38 0
v -409 -37 0
v -408 -37 0

# Texture cooridinates (Count = 16)
vt 0.01515152 0.6683502
vt 0.9848485 0.6683502
vt 0.9848485 0.7760943
vt 0.01515152 0.7760943
vt 0.01515152 0.5572391
vt 0.9848485 0.5572391
vt 0.9848485 0.6649832
vt 0.01515152 0.6649832
vt 0.01515152 0.446128
vt 0.9848485 0.446128
vt 0.9848485 0.553872
vt 0.01515152 0.553872
vt 0.01515152 0.7794613
vt 0.9848485 0.7794613
vt 0.9848485 0.8872054
vt 0.01515152 0.8872054

# Normal
vn 0 0 -1

# Mesh description
g NewAstralaWoodsWest_mesh_0029

# Faces
f 1/1/1 2/2/1 3/3/1 4/4/1
f 5/1/1 6/2/1 7/3/1 8/4/1
f 9/1/1 10/2/1 11/3/1 12/4/1
f 13/1/1 14/2/1 15/3/1 16/4/1
f 17/1/1 18/2/1 19/3/1 20/4/1
f 21/1/1 22/2/1 23/3/1 24/4/1
f 25/1/1 26/2/1 27/3/1 28/4/1
f 29/5/1 30/6/1 31/7/1 32/8/1
f 33/5/1 34/6/1 35/7/1 36/8/1
f 37/5/1 38/6/1 39/7/1 40/8/1
f 41/1/1 42/2/1 43/3/1 44/4/1
f 45/1/1 46/2/1 47/3/1 48/4/1
f 49/1/1 50/2/1 51/3/1 52/4/1
f 53/9/1 54/10/1 55/11/1 56/12/1
f 57/9/1 58/10/1 59/11/1 60/12/1
f 61/9/1 62/10/1 63/11/1 64/12/1
f 65/9/1 66/10/1 67/11/1 68/12/1
f 69/9/1 70/10/1 71/11/1 72/12/1
f 73/13/1 74/14/1 75/15/1 76/16/1
f 77/1/1 78/2/1 79/3/1 80/4/1
f 81/1/1 82/2/1 83/3/1 84/4/1
f 85/1/1 86/2/1 87/3/1 88/4/1
f 89/1/1 90/2/1 91/3/1 92/4/1
f 93/1/1 94/2/1 95/3/1 96/4/1
f 97/1/1 98/2/1 99/3/1 100/4/1
f 101/1/1 102/2/1 103/3/1 104/4/1
f 105/1/1 106/2/1 107/3/1 108/4/1
f 109/1/1 110/2/1 111/3/1 112/4/1
f 113/1/1 114/2/1 115/3/1 116/4/1
f 117/1/1 118/2/1 119/3/1 120/4/1

