# Tiled2Unity generated file. Do not modify by hand.
# Wavefront file for 'NewAstralaWoodsWest_mesh_0071.obj'

# Vertices (Count = 20)
v -208 -347 0
v -209 -347 0
v -209 -346 0
v -208 -346 0
v -208 -348 0
v -209 -348 0
v -209 -347 0
v -208 -347 0
v -208 -349 0
v -209 -349 0
v -209 -348 0
v -208 -348 0
v -208 -350 0
v -209 -350 0
v -209 -349 0
v -208 -349 0
v -208 -351 0
v -209 -351 0
v -209 -350 0
v -208 -350 0

# Texture cooridinates (Count = 8)
vt 0.01515152 0.8905724
vt 0.9848485 0.8905724
vt 0.9848485 0.9983165
vt 0.01515152 0.9983165
vt 0.01515152 0.3350168
vt 0.9848485 0.3350168
vt 0.9848485 0.4427609
vt 0.01515152 0.4427609

# Normal
vn 0 0 -1

# Mesh description
g NewAstralaWoodsWest_mesh_0071

# Faces
f 1/1/1 2/2/1 3/3/1 4/4/1
f 5/5/1 6/6/1 7/7/1 8/8/1
f 9/5/1 10/6/1 11/7/1 12/8/1
f 13/5/1 14/6/1 15/7/1 16/8/1
f 17/5/1 18/6/1 19/7/1 20/8/1

