# Tiled2Unity generated file. Do not modify by hand.
# Wavefront file for 'NewAstralaWoodsWest_mesh_0077.obj'

# Vertices (Count = 248)
v -236 -326 0
v -237 -326 0
v -237 -325 0
v -236 -325 0
v -233 -326 0
v -234 -326 0
v -234 -325 0
v -233 -325 0
v -232 -326 0
v -233 -326 0
v -233 -325 0
v -232 -325 0
v -231 -326 0
v -232 -326 0
v -232 -325 0
v -231 -325 0
v -230 -326 0
v -231 -326 0
v -231 -325 0
v -230 -325 0
v -229 -326 0
v -230 -326 0
v -230 -325 0
v -229 -325 0
v -228 -326 0
v -229 -326 0
v -229 -325 0
v -228 -325 0
v -227 -326 0
v -228 -326 0
v -228 -325 0
v -227 -325 0
v -226 -326 0
v -227 -326 0
v -227 -325 0
v -226 -325 0
v -225 -326 0
v -226 -326 0
v -226 -325 0
v -225 -325 0
v -224 -326 0
v -225 -326 0
v -225 -325 0
v -224 -325 0
v -223 -326 0
v -224 -326 0
v -224 -325 0
v -223 -325 0
v -222 -326 0
v -223 -326 0
v -223 -325 0
v -222 -325 0
v -221 -326 0
v -222 -326 0
v -222 -325 0
v -221 -325 0
v -220 -326 0
v -221 -326 0
v -221 -325 0
v -220 -325 0
v -219 -326 0
v -220 -326 0
v -220 -325 0
v -219 -325 0
v -218 -326 0
v -219 -326 0
v -219 -325 0
v -218 -325 0
v -217 -326 0
v -218 -326 0
v -218 -325 0
v -217 -325 0
v -216 -326 0
v -217 -326 0
v -217 -325 0
v -216 -325 0
v -215 -326 0
v -216 -326 0
v -216 -325 0
v -215 -325 0
v -214 -326 0
v -215 -326 0
v -215 -325 0
v -214 -325 0
v -213 -326 0
v -214 -326 0
v -214 -325 0
v -213 -325 0
v -212 -326 0
v -213 -326 0
v -213 -325 0
v -212 -325 0
v -211 -326 0
v -212 -326 0
v -212 -325 0
v -211 -325 0
v -210 -326 0
v -211 -326 0
v -211 -325 0
v -210 -325 0
v -209 -326 0
v -210 -326 0
v -210 -325 0
v -209 -325 0
v -207 -326 0
v -208 -326 0
v -208 -325 0
v -207 -325 0
v -209 -327 0
v -210 -327 0
v -210 -326 0
v -209 -326 0
v -206 -327 0
v -207 -327 0
v -207 -326 0
v -206 -326 0
v -235 -328 0
v -236 -328 0
v -236 -327 0
v -235 -327 0
v -208 -328 0
v -209 -328 0
v -209 -327 0
v -208 -327 0
v -237 -353 0
v -238 -353 0
v -238 -352 0
v -237 -352 0
v -236 -354 0
v -237 -354 0
v -237 -353 0
v -236 -353 0
v -207 -354 0
v -208 -354 0
v -208 -353 0
v -207 -353 0
v -235 -355 0
v -236 -355 0
v -236 -354 0
v -235 -354 0
v -208 -355 0
v -209 -355 0
v -209 -354 0
v -208 -354 0
v -234 -356 0
v -235 -356 0
v -235 -355 0
v -234 -355 0
v -233 -356 0
v -234 -356 0
v -234 -355 0
v -233 -355 0
v -232 -356 0
v -233 -356 0
v -233 -355 0
v -232 -355 0
v -231 -356 0
v -232 -356 0
v -232 -355 0
v -231 -355 0
v -230 -356 0
v -231 -356 0
v -231 -355 0
v -230 -355 0
v -229 -356 0
v -230 -356 0
v -230 -355 0
v -229 -355 0
v -228 -356 0
v -229 -356 0
v -229 -355 0
v -228 -355 0
v -227 -356 0
v -228 -356 0
v -228 -355 0
v -227 -355 0
v -226 -356 0
v -227 -356 0
v -227 -355 0
v -226 -355 0
v -225 -356 0
v -226 -356 0
v -226 -355 0
v -225 -355 0
v -224 -356 0
v -225 -356 0
v -225 -355 0
v -224 -355 0
v -223 -356 0
v -224 -356 0
v -224 -355 0
v -223 -355 0
v -222 -356 0
v -223 -356 0
v -223 -355 0
v -222 -355 0
v -221 -356 0
v -222 -356 0
v -222 -355 0
v -221 -355 0
v -220 -356 0
v -221 -356 0
v -221 -355 0
v -220 -355 0
v -219 -356 0
v -220 -356 0
v -220 -355 0
v -219 -355 0
v -218 -356 0
v -219 -356 0
v -219 -355 0
v -218 -355 0
v -217 -356 0
v -218 -356 0
v -218 -355 0
v -217 -355 0
v -216 -356 0
v -217 -356 0
v -217 -355 0
v -216 -355 0
v -215 -356 0
v -216 -356 0
v -216 -355 0
v -215 -355 0
v -214 -356 0
v -215 -356 0
v -215 -355 0
v -214 -355 0
v -213 -356 0
v -214 -356 0
v -214 -355 0
v -213 -355 0
v -212 -356 0
v -213 -356 0
v -213 -355 0
v -212 -355 0
v -211 -356 0
v -212 -356 0
v -212 -355 0
v -211 -355 0
v -210 -356 0
v -211 -356 0
v -211 -355 0
v -210 -355 0
v -209 -356 0
v -210 -356 0
v -210 -355 0
v -209 -355 0

# Texture cooridinates (Count = 40)
vt 0.003030303 0.2239057
vt 0.1969697 0.2239057
vt 0.1969697 0.3316498
vt 0.003030303 0.3316498
vt 0.4030303 0.446128
vt 0.5969697 0.446128
vt 0.5969697 0.553872
vt 0.4030303 0.553872
vt 0.2030303 0.6683502
vt 0.3969697 0.6683502
vt 0.3969697 0.7760943
vt 0.2030303 0.7760943
vt 0.8030303 0.2239057
vt 0.9969697 0.2239057
vt 0.9969697 0.3316498
vt 0.8030303 0.3316498
vt 0.8030303 0.5572391
vt 0.9969697 0.5572391
vt 0.9969697 0.6649832
vt 0.8030303 0.6649832
vt 0.003030303 0.7794613
vt 0.1969697 0.7794613
vt 0.1969697 0.8872054
vt 0.003030303 0.8872054
vt 0.2030303 0.446128
vt 0.3969697 0.446128
vt 0.3969697 0.553872
vt 0.2030303 0.553872
vt 0.6030303 0.446128
vt 0.7969697 0.446128
vt 0.7969697 0.553872
vt 0.6030303 0.553872
vt 0.2030303 0.5572391
vt 0.3969697 0.5572391
vt 0.3969697 0.6649832
vt 0.2030303 0.6649832
vt 0.4030303 0.5572391
vt 0.5969697 0.5572391
vt 0.5969697 0.6649832
vt 0.4030303 0.6649832

# Normal
vn 0 0 -1

# Mesh description
g NewAstralaWoodsWest_mesh_0077

# Faces
f 1/1/1 2/2/1 3/3/1 4/4/1
f 5/5/1 6/6/1 7/7/1 8/8/1
f 9/5/1 10/6/1 11/7/1 12/8/1
f 13/5/1 14/6/1 15/7/1 16/8/1
f 17/5/1 18/6/1 19/7/1 20/8/1
f 21/5/1 22/6/1 23/7/1 24/8/1
f 25/5/1 26/6/1 27/7/1 28/8/1
f 29/5/1 30/6/1 31/7/1 32/8/1
f 33/5/1 34/6/1 35/7/1 36/8/1
f 37/5/1 38/6/1 39/7/1 40/8/1
f 41/5/1 42/6/1 43/7/1 44/8/1
f 45/5/1 46/6/1 47/7/1 48/8/1
f 49/5/1 50/6/1 51/7/1 52/8/1
f 53/5/1 54/6/1 55/7/1 56/8/1
f 57/5/1 58/6/1 59/7/1 60/8/1
f 61/5/1 62/6/1 63/7/1 64/8/1
f 65/5/1 66/6/1 67/7/1 68/8/1
f 69/5/1 70/6/1 71/7/1 72/8/1
f 73/5/1 74/6/1 75/7/1 76/8/1
f 77/5/1 78/6/1 79/7/1 80/8/1
f 81/5/1 82/6/1 83/7/1 84/8/1
f 85/5/1 86/6/1 87/7/1 88/8/1
f 89/5/1 90/6/1 91/7/1 92/8/1
f 93/5/1 94/6/1 95/7/1 96/8/1
f 97/5/1 98/6/1 99/7/1 100/8/1
f 101/9/1 102/10/1 103/11/1 104/12/1
f 105/13/1 106/14/1 107/15/1 108/16/1
f 109/17/1 110/18/1 111/19/1 112/20/1
f 113/21/1 114/22/1 115/23/1 116/24/1
f 117/25/1 118/26/1 119/27/1 120/28/1
f 121/29/1 122/30/1 123/31/1 124/32/1
f 125/17/1 126/18/1 127/19/1 128/20/1
f 129/33/1 130/34/1 131/35/1 132/36/1
f 133/37/1 134/38/1 135/39/1 136/40/1
f 137/33/1 138/34/1 139/35/1 140/36/1
f 141/37/1 142/38/1 143/39/1 144/40/1
f 145/29/1 146/30/1 147/31/1 148/32/1
f 149/5/1 150/6/1 151/7/1 152/8/1
f 153/5/1 154/6/1 155/7/1 156/8/1
f 157/5/1 158/6/1 159/7/1 160/8/1
f 161/5/1 162/6/1 163/7/1 164/8/1
f 165/5/1 166/6/1 167/7/1 168/8/1
f 169/5/1 170/6/1 171/7/1 172/8/1
f 173/5/1 174/6/1 175/7/1 176/8/1
f 177/5/1 178/6/1 179/7/1 180/8/1
f 181/5/1 182/6/1 183/7/1 184/8/1
f 185/5/1 186/6/1 187/7/1 188/8/1
f 189/5/1 190/6/1 191/7/1 192/8/1
f 193/5/1 194/6/1 195/7/1 196/8/1
f 197/5/1 198/6/1 199/7/1 200/8/1
f 201/5/1 202/6/1 203/7/1 204/8/1
f 205/5/1 206/6/1 207/7/1 208/8/1
f 209/5/1 210/6/1 211/7/1 212/8/1
f 213/5/1 214/6/1 215/7/1 216/8/1
f 217/5/1 218/6/1 219/7/1 220/8/1
f 221/5/1 222/6/1 223/7/1 224/8/1
f 225/5/1 226/6/1 227/7/1 228/8/1
f 229/5/1 230/6/1 231/7/1 232/8/1
f 233/5/1 234/6/1 235/7/1 236/8/1
f 237/5/1 238/6/1 239/7/1 240/8/1
f 241/5/1 242/6/1 243/7/1 244/8/1
f 245/25/1 246/26/1 247/27/1 248/28/1

