# Tiled2Unity generated file. Do not modify by hand.
# Wavefront file for 'NewAstralaWoodsWest_mesh_0031.obj'

# Vertices (Count = 684)
v -145 -40 0
v -146 -40 0
v -146 -39 0
v -145 -39 0
v -144 -40 0
v -145 -40 0
v -145 -39 0
v -144 -39 0
v -143 -40 0
v -144 -40 0
v -144 -39 0
v -143 -39 0
v -140 -40 0
v -141 -40 0
v -141 -39 0
v -140 -39 0
v -139 -40 0
v -140 -40 0
v -140 -39 0
v -139 -39 0
v -145 -41 0
v -146 -41 0
v -146 -40 0
v -145 -40 0
v -144 -41 0
v -145 -41 0
v -145 -40 0
v -144 -40 0
v -143 -41 0
v -144 -41 0
v -144 -40 0
v -143 -40 0
v -142 -41 0
v -143 -41 0
v -143 -40 0
v -142 -40 0
v -141 -41 0
v -142 -41 0
v -142 -40 0
v -141 -40 0
v -140 -41 0
v -141 -41 0
v -141 -40 0
v -140 -40 0
v -139 -41 0
v -140 -41 0
v -140 -40 0
v -139 -40 0
v -145 -42 0
v -146 -42 0
v -146 -41 0
v -145 -41 0
v -144 -42 0
v -145 -42 0
v -145 -41 0
v -144 -41 0
v -143 -42 0
v -144 -42 0
v -144 -41 0
v -143 -41 0
v -142 -42 0
v -143 -42 0
v -143 -41 0
v -142 -41 0
v -141 -42 0
v -142 -42 0
v -142 -41 0
v -141 -41 0
v -145 -43 0
v -146 -43 0
v -146 -42 0
v -145 -42 0
v -144 -43 0
v -145 -43 0
v -145 -42 0
v -144 -42 0
v -143 -43 0
v -144 -43 0
v -144 -42 0
v -143 -42 0
v -142 -43 0
v -143 -43 0
v -143 -42 0
v -142 -42 0
v -141 -43 0
v -142 -43 0
v -142 -42 0
v -141 -42 0
v -143 -44 0
v -144 -44 0
v -144 -43 0
v -143 -43 0
v -142 -44 0
v -143 -44 0
v -143 -43 0
v -142 -43 0
v -141 -44 0
v -142 -44 0
v -142 -43 0
v -141 -43 0
v -142 -45 0
v -143 -45 0
v -143 -44 0
v -142 -44 0
v -223 -333 0
v -224 -333 0
v -224 -332 0
v -223 -332 0
v -222 -333 0
v -223 -333 0
v -223 -332 0
v -222 -332 0
v -221 -333 0
v -222 -333 0
v -222 -332 0
v -221 -332 0
v -220 -333 0
v -221 -333 0
v -221 -332 0
v -220 -332 0
v -222 -334 0
v -223 -334 0
v -223 -333 0
v -222 -333 0
v -221 -334 0
v -222 -334 0
v -222 -333 0
v -221 -333 0
v -220 -334 0
v -221 -334 0
v -221 -333 0
v -220 -333 0
v -222 -335 0
v -223 -335 0
v -223 -334 0
v -222 -334 0
v -221 -335 0
v -222 -335 0
v -222 -334 0
v -221 -334 0
v -220 -335 0
v -221 -335 0
v -221 -334 0
v -220 -334 0
v -222 -336 0
v -223 -336 0
v -223 -335 0
v -222 -335 0
v -221 -336 0
v -222 -336 0
v -222 -335 0
v -221 -335 0
v -220 -336 0
v -221 -336 0
v -221 -335 0
v -220 -335 0
v -219 -336 0
v -220 -336 0
v -220 -335 0
v -219 -335 0
v -222 -337 0
v -223 -337 0
v -223 -336 0
v -222 -336 0
v -221 -337 0
v -222 -337 0
v -222 -336 0
v -221 -336 0
v -220 -337 0
v -221 -337 0
v -221 -336 0
v -220 -336 0
v -219 -337 0
v -220 -337 0
v -220 -336 0
v -219 -336 0
v -222 -338 0
v -223 -338 0
v -223 -337 0
v -222 -337 0
v -221 -338 0
v -222 -338 0
v -222 -337 0
v -221 -337 0
v -220 -338 0
v -221 -338 0
v -221 -337 0
v -220 -337 0
v -219 -338 0
v -220 -338 0
v -220 -337 0
v -219 -337 0
v -222 -339 0
v -223 -339 0
v -223 -338 0
v -222 -338 0
v -221 -339 0
v -222 -339 0
v -222 -338 0
v -221 -338 0
v -220 -339 0
v -221 -339 0
v -221 -338 0
v -220 -338 0
v -219 -339 0
v -220 -339 0
v -220 -338 0
v -219 -338 0
v -222 -340 0
v -223 -340 0
v -223 -339 0
v -222 -339 0
v -221 -340 0
v -222 -340 0
v -222 -339 0
v -221 -339 0
v -220 -340 0
v -221 -340 0
v -221 -339 0
v -220 -339 0
v -219 -340 0
v -220 -340 0
v -220 -339 0
v -219 -339 0
v -222 -341 0
v -223 -341 0
v -223 -340 0
v -222 -340 0
v -221 -341 0
v -222 -341 0
v -222 -340 0
v -221 -340 0
v -220 -341 0
v -221 -341 0
v -221 -340 0
v -220 -340 0
v -219 -341 0
v -220 -341 0
v -220 -340 0
v -219 -340 0
v -222 -342 0
v -223 -342 0
v -223 -341 0
v -222 -341 0
v -221 -342 0
v -222 -342 0
v -222 -341 0
v -221 -341 0
v -220 -342 0
v -221 -342 0
v -221 -341 0
v -220 -341 0
v -219 -342 0
v -220 -342 0
v -220 -341 0
v -219 -341 0
v -222 -343 0
v -223 -343 0
v -223 -342 0
v -222 -342 0
v -221 -343 0
v -222 -343 0
v -222 -342 0
v -221 -342 0
v -220 -343 0
v -221 -343 0
v -221 -342 0
v -220 -342 0
v -219 -343 0
v -220 -343 0
v -220 -342 0
v -219 -342 0
v -222 -344 0
v -223 -344 0
v -223 -343 0
v -222 -343 0
v -221 -344 0
v -222 -344 0
v -222 -343 0
v -221 -343 0
v -220 -344 0
v -221 -344 0
v -221 -343 0
v -220 -343 0
v -219 -344 0
v -220 -344 0
v -220 -343 0
v -219 -343 0
v -222 -345 0
v -223 -345 0
v -223 -344 0
v -222 -344 0
v -221 -345 0
v -222 -345 0
v -222 -344 0
v -221 -344 0
v -220 -345 0
v -221 -345 0
v -221 -344 0
v -220 -344 0
v -219 -345 0
v -220 -345 0
v -220 -344 0
v -219 -344 0
v -218 -345 0
v -219 -345 0
v -219 -344 0
v -218 -344 0
v -217 -345 0
v -218 -345 0
v -218 -344 0
v -217 -344 0
v -216 -345 0
v -217 -345 0
v -217 -344 0
v -216 -344 0
v -215 -345 0
v -216 -345 0
v -216 -344 0
v -215 -344 0
v -214 -345 0
v -215 -345 0
v -215 -344 0
v -214 -344 0
v -213 -345 0
v -214 -345 0
v -214 -344 0
v -213 -344 0
v -212 -345 0
v -213 -345 0
v -213 -344 0
v -212 -344 0
v -211 -345 0
v -212 -345 0
v -212 -344 0
v -211 -344 0
v -210 -345 0
v -211 -345 0
v -211 -344 0
v -210 -344 0
v -209 -345 0
v -210 -345 0
v -210 -344 0
v -209 -344 0
v -208 -345 0
v -209 -345 0
v -209 -344 0
v -208 -344 0
v -228 -346 0
v -229 -346 0
v -229 -345 0
v -228 -345 0
v -227 -346 0
v -228 -346 0
v -228 -345 0
v -227 -345 0
v -226 -346 0
v -227 -346 0
v -227 -345 0
v -226 -345 0
v -225 -346 0
v -226 -346 0
v -226 -345 0
v -225 -345 0
v -224 -346 0
v -225 -346 0
v -225 -345 0
v -224 -345 0
v -223 -346 0
v -224 -346 0
v -224 -345 0
v -223 -345 0
v -222 -346 0
v -223 -346 0
v -223 -345 0
v -222 -345 0
v -221 -346 0
v -222 -346 0
v -222 -345 0
v -221 -345 0
v -220 -346 0
v -221 -346 0
v -221 -345 0
v -220 -345 0
v -219 -346 0
v -220 -346 0
v -220 -345 0
v -219 -345 0
v -218 -346 0
v -219 -346 0
v -219 -345 0
v -218 -345 0
v -217 -346 0
v -218 -346 0
v -218 -345 0
v -217 -345 0
v -216 -346 0
v -217 -346 0
v -217 -345 0
v -216 -345 0
v -215 -346 0
v -216 -346 0
v -216 -345 0
v -215 -345 0
v -214 -346 0
v -215 -346 0
v -215 -345 0
v -214 -345 0
v -213 -346 0
v -214 -346 0
v -214 -345 0
v -213 -345 0
v -212 -346 0
v -213 -346 0
v -213 -345 0
v -212 -345 0
v -211 -346 0
v -212 -346 0
v -212 -345 0
v -211 -345 0
v -210 -346 0
v -211 -346 0
v -211 -345 0
v -210 -345 0
v -209 -346 0
v -210 -346 0
v -210 -345 0
v -209 -345 0
v -208 -346 0
v -209 -346 0
v -209 -345 0
v -208 -345 0
v -228 -347 0
v -229 -347 0
v -229 -346 0
v -228 -346 0
v -227 -347 0
v -228 -347 0
v -228 -346 0
v -227 -346 0
v -226 -347 0
v -227 -347 0
v -227 -346 0
v -226 -346 0
v -225 -347 0
v -226 -347 0
v -226 -346 0
v -225 -346 0
v -224 -347 0
v -225 -347 0
v -225 -346 0
v -224 -346 0
v -223 -347 0
v -224 -347 0
v -224 -346 0
v -223 -346 0
v -222 -347 0
v -223 -347 0
v -223 -346 0
v -222 -346 0
v -221 -347 0
v -222 -347 0
v -222 -346 0
v -221 -346 0
v -220 -347 0
v -221 -347 0
v -221 -346 0
v -220 -346 0
v -219 -347 0
v -220 -347 0
v -220 -346 0
v -219 -346 0
v -218 -347 0
v -219 -347 0
v -219 -346 0
v -218 -346 0
v -217 -347 0
v -218 -347 0
v -218 -346 0
v -217 -346 0
v -216 -347 0
v -217 -347 0
v -217 -346 0
v -216 -346 0
v -215 -347 0
v -216 -347 0
v -216 -346 0
v -215 -346 0
v -214 -347 0
v -215 -347 0
v -215 -346 0
v -214 -346 0
v -213 -347 0
v -214 -347 0
v -214 -346 0
v -213 -346 0
v -212 -347 0
v -213 -347 0
v -213 -346 0
v -212 -346 0
v -211 -347 0
v -212 -347 0
v -212 -346 0
v -211 -346 0
v -210 -347 0
v -211 -347 0
v -211 -346 0
v -210 -346 0
v -209 -347 0
v -210 -347 0
v -210 -346 0
v -209 -346 0
v -208 -347 0
v -209 -347 0
v -209 -346 0
v -208 -346 0
v -234 -348 0
v -235 -348 0
v -235 -347 0
v -234 -347 0
v -233 -348 0
v -234 -348 0
v -234 -347 0
v -233 -347 0
v -232 -348 0
v -233 -348 0
v -233 -347 0
v -232 -347 0
v -231 -348 0
v -232 -348 0
v -232 -347 0
v -231 -347 0
v -230 -348 0
v -231 -348 0
v -231 -347 0
v -230 -347 0
v -229 -348 0
v -230 -348 0
v -230 -347 0
v -229 -347 0
v -228 -348 0
v -229 -348 0
v -229 -347 0
v -228 -347 0
v -227 -348 0
v -228 -348 0
v -228 -347 0
v -227 -347 0
v -226 -348 0
v -227 -348 0
v -227 -347 0
v -226 -347 0
v -225 -348 0
v -226 -348 0
v -226 -347 0
v -225 -347 0
v -224 -348 0
v -225 -348 0
v -225 -347 0
v -224 -347 0
v -223 -348 0
v -224 -348 0
v -224 -347 0
v -223 -347 0
v -222 -348 0
v -223 -348 0
v -223 -347 0
v -222 -347 0
v -221 -348 0
v -222 -348 0
v -222 -347 0
v -221 -347 0
v -220 -348 0
v -221 -348 0
v -221 -347 0
v -220 -347 0
v -219 -348 0
v -220 -348 0
v -220 -347 0
v -219 -347 0
v -218 -348 0
v -219 -348 0
v -219 -347 0
v -218 -347 0
v -217 -348 0
v -218 -348 0
v -218 -347 0
v -217 -347 0
v -216 -348 0
v -217 -348 0
v -217 -347 0
v -216 -347 0
v -215 -348 0
v -216 -348 0
v -216 -347 0
v -215 -347 0
v -214 -348 0
v -215 -348 0
v -215 -347 0
v -214 -347 0
v -208 -348 0
v -209 -348 0
v -209 -347 0
v -208 -347 0
v -234 -349 0
v -235 -349 0
v -235 -348 0
v -234 -348 0
v -233 -349 0
v -234 -349 0
v -234 -348 0
v -233 -348 0
v -232 -349 0
v -233 -349 0
v -233 -348 0
v -232 -348 0
v -231 -349 0
v -232 -349 0
v -232 -348 0
v -231 -348 0
v -230 -349 0
v -231 -349 0
v -231 -348 0
v -230 -348 0
v -229 -349 0
v -230 -349 0
v -230 -348 0
v -229 -348 0
v -224 -349 0
v -225 -349 0
v -225 -348 0
v -224 -348 0
v -223 -349 0
v -224 -349 0
v -224 -348 0
v -223 -348 0
v -222 -349 0
v -223 -349 0
v -223 -348 0
v -222 -348 0
v -221 -349 0
v -222 -349 0
v -222 -348 0
v -221 -348 0
v -220 -349 0
v -221 -349 0
v -221 -348 0
v -220 -348 0
v -219 -349 0
v -220 -349 0
v -220 -348 0
v -219 -348 0
v -234 -350 0
v -235 -350 0
v -235 -349 0
v -234 -349 0
v -233 -350 0
v -234 -350 0
v -234 -349 0
v -233 -349 0
v -232 -350 0
v -233 -350 0
v -233 -349 0
v -232 -349 0
v -231 -350 0
v -232 -350 0
v -232 -349 0
v -231 -349 0
v -234 -351 0
v -235 -351 0
v -235 -350 0
v -234 -350 0
v -233 -351 0
v -234 -351 0
v -234 -350 0
v -233 -350 0
v -232 -351 0
v -233 -351 0
v -233 -350 0
v -232 -350 0
v -231 -351 0
v -232 -351 0
v -232 -350 0
v -231 -350 0

# Texture cooridinates (Count = 72)
vt 0.3383838 0.3358586
vt 0.6616161 0.3358586
vt 0.6616161 0.4974747
vt 0.3383838 0.4974747
vt 0.005050505 0.8358586
vt 0.3282828 0.8358586
vt 0.3282828 0.9974747
vt 0.005050505 0.9974747
vt 0.005050505 0.00252527
vt 0.3282828 0.00252527
vt 0.3282828 0.1641414
vt 0.005050505 0.1641414
vt 0.6717172 0.5025252
vt 0.9949495 0.5025252
vt 0.9949495 0.6641414
vt 0.6717172 0.6641414
vt 0.3383838 0.5025252
vt 0.6616161 0.5025252
vt 0.6616161 0.6641414
vt 0.3383838 0.6641414
vt 0.005050505 0.5025252
vt 0.3282828 0.5025252
vt 0.3282828 0.6641414
vt 0.005050505 0.6641414
vt 0.3383838 0.00252527
vt 0.6616161 0.00252527
vt 0.6616161 0.1641414
vt 0.3383838 0.1641414
vt 0.005050505 0.669192
vt 0.3282828 0.669192
vt 0.3282828 0.8308081
vt 0.005050505 0.8308081
vt 0.005050505 0.3358586
vt 0.3282828 0.3358586
vt 0.3282828 0.4974747
vt 0.005050505 0.4974747
vt 0.3383838 0.8358586
vt 0.6616161 0.8358586
vt 0.6616161 0.9974747
vt 0.3383838 0.9974747
vt 0.6717172 0.669192
vt 0.9949495 0.669192
vt 0.9949495 0.8308081
vt 0.6717172 0.8308081
vt 0.6717172 0.3358586
vt 0.9949495 0.3358586
vt 0.9949495 0.4974747
vt 0.6717172 0.4974747
vt 0.6717172 0.00252527
vt 0.9949495 0.00252527
vt 0.9949495 0.1641414
vt 0.6717172 0.1641414
vt 0.3383838 0.669192
vt 0.6616161 0.669192
vt 0.6616161 0.8308081
vt 0.3383838 0.8308081
vt 0.6717172 0.8358586
vt 0.9949495 0.8358586
vt 0.9949495 0.9974747
vt 0.6717172 0.9974747
vt 0.3383838 0.1691919
vt 0.6616161 0.1691919
vt 0.6616161 0.3308081
vt 0.3383838 0.3308081
vt 0.005050505 0.1691919
vt 0.3282828 0.1691919
vt 0.3282828 0.3308081
vt 0.005050505 0.3308081
vt 0.6717172 0.1691919
vt 0.9949495 0.1691919
vt 0.9949495 0.3308081
vt 0.6717172 0.3308081

# Normal
vn 0 0 -1

# Mesh description
g NewAstralaWoodsWest_mesh_0031

# Faces
f 1/1/1 2/2/1 3/3/1 4/4/1
f 5/1/1 6/2/1 7/3/1 8/4/1
f 9/1/1 10/2/1 11/3/1 12/4/1
f 13/1/1 14/2/1 15/3/1 16/4/1
f 17/1/1 18/2/1 19/3/1 20/4/1
f 21/1/1 22/2/1 23/3/1 24/4/1
f 25/1/1 26/2/1 27/3/1 28/4/1
f 29/1/1 30/2/1 31/3/1 32/4/1
f 33/1/1 34/2/1 35/3/1 36/4/1
f 37/5/1 38/6/1 39/7/1 40/8/1
f 41/1/1 42/2/1 43/3/1 44/4/1
f 45/1/1 46/2/1 47/3/1 48/4/1
f 49/9/1 50/10/1 51/11/1 52/12/1
f 53/1/1 54/2/1 55/3/1 56/4/1
f 57/1/1 58/2/1 59/3/1 60/4/1
f 61/1/1 62/2/1 63/3/1 64/4/1
f 65/1/1 66/2/1 67/3/1 68/4/1
f 69/1/1 70/2/1 71/3/1 72/4/1
f 73/1/1 74/2/1 75/3/1 76/4/1
f 77/5/1 78/6/1 79/7/1 80/8/1
f 81/1/1 82/2/1 83/3/1 84/4/1
f 85/1/1 86/2/1 87/3/1 88/4/1
f 89/1/1 90/2/1 91/3/1 92/4/1
f 93/1/1 94/2/1 95/3/1 96/4/1
f 97/1/1 98/2/1 99/3/1 100/4/1
f 101/1/1 102/2/1 103/3/1 104/4/1
f 105/13/1 106/14/1 107/15/1 108/16/1
f 109/17/1 110/18/1 111/19/1 112/20/1
f 113/17/1 114/18/1 115/19/1 116/20/1
f 117/21/1 118/22/1 119/23/1 120/24/1
f 121/25/1 122/26/1 123/27/1 124/28/1
f 125/29/1 126/30/1 127/31/1 128/32/1
f 129/33/1 130/34/1 131/35/1 132/36/1
f 133/1/1 134/2/1 135/3/1 136/4/1
f 137/1/1 138/2/1 139/3/1 140/4/1
f 141/33/1 142/34/1 143/35/1 144/36/1
f 145/37/1 146/38/1 147/39/1 148/40/1
f 149/9/1 150/10/1 151/11/1 152/12/1
f 153/41/1 154/42/1 155/43/1 156/44/1
f 157/21/1 158/22/1 159/23/1 160/24/1
f 161/45/1 162/46/1 163/47/1 164/48/1
f 165/1/1 166/2/1 167/3/1 168/4/1
f 169/1/1 170/2/1 171/3/1 172/4/1
f 173/33/1 174/34/1 175/35/1 176/36/1
f 177/45/1 178/46/1 179/47/1 180/48/1
f 181/25/1 182/26/1 183/27/1 184/28/1
f 185/1/1 186/2/1 187/3/1 188/4/1
f 189/33/1 190/34/1 191/35/1 192/36/1
f 193/45/1 194/46/1 195/47/1 196/48/1
f 197/1/1 198/2/1 199/3/1 200/4/1
f 201/1/1 202/2/1 203/3/1 204/4/1
f 205/33/1 206/34/1 207/35/1 208/36/1
f 209/45/1 210/46/1 211/47/1 212/48/1
f 213/25/1 214/26/1 215/27/1 216/28/1
f 217/1/1 218/2/1 219/3/1 220/4/1
f 221/33/1 222/34/1 223/35/1 224/36/1
f 225/45/1 226/46/1 227/47/1 228/48/1
f 229/1/1 230/2/1 231/3/1 232/4/1
f 233/1/1 234/2/1 235/3/1 236/4/1
f 237/33/1 238/34/1 239/35/1 240/36/1
f 241/45/1 242/46/1 243/47/1 244/48/1
f 245/9/1 246/10/1 247/11/1 248/12/1
f 249/1/1 250/2/1 251/3/1 252/4/1
f 253/33/1 254/34/1 255/35/1 256/36/1
f 257/45/1 258/46/1 259/47/1 260/48/1
f 261/1/1 262/2/1 263/3/1 264/4/1
f 265/49/1 266/50/1 267/51/1 268/52/1
f 269/33/1 270/34/1 271/35/1 272/36/1
f 273/45/1 274/46/1 275/47/1 276/48/1
f 277/1/1 278/2/1 279/3/1 280/4/1
f 281/1/1 282/2/1 283/3/1 284/4/1
f 285/33/1 286/34/1 287/35/1 288/36/1
f 289/45/1 290/46/1 291/47/1 292/48/1
f 293/1/1 294/2/1 295/3/1 296/4/1
f 297/1/1 298/2/1 299/3/1 300/4/1
f 301/41/1 302/42/1 303/43/1 304/44/1
f 305/17/1 306/18/1 307/19/1 308/20/1
f 309/17/1 310/18/1 311/19/1 312/20/1
f 313/17/1 314/18/1 315/19/1 316/20/1
f 317/17/1 318/18/1 319/19/1 320/20/1
f 321/17/1 322/18/1 323/19/1 324/20/1
f 325/17/1 326/18/1 327/19/1 328/20/1
f 329/17/1 330/18/1 331/19/1 332/20/1
f 333/17/1 334/18/1 335/19/1 336/20/1
f 337/17/1 338/18/1 339/19/1 340/20/1
f 341/17/1 342/18/1 343/19/1 344/20/1
f 345/21/1 346/22/1 347/23/1 348/24/1
f 349/13/1 350/14/1 351/15/1 352/16/1
f 353/17/1 354/18/1 355/19/1 356/20/1
f 357/17/1 358/18/1 359/19/1 360/20/1
f 361/17/1 362/18/1 363/19/1 364/20/1
f 365/17/1 366/18/1 367/19/1 368/20/1
f 369/17/1 370/18/1 371/19/1 372/20/1
f 373/53/1 374/54/1 375/55/1 376/56/1
f 377/1/1 378/2/1 379/3/1 380/4/1
f 381/49/1 382/50/1 383/51/1 384/52/1
f 385/1/1 386/2/1 387/3/1 388/4/1
f 389/1/1 390/2/1 391/3/1 392/4/1
f 393/1/1 394/2/1 395/3/1 396/4/1
f 397/1/1 398/2/1 399/3/1 400/4/1
f 401/1/1 402/2/1 403/3/1 404/4/1
f 405/1/1 406/2/1 407/3/1 408/4/1
f 409/1/1 410/2/1 411/3/1 412/4/1
f 413/1/1 414/2/1 415/3/1 416/4/1
f 417/5/1 418/6/1 419/7/1 420/8/1
f 421/1/1 422/2/1 423/3/1 424/4/1
f 425/1/1 426/2/1 427/3/1 428/4/1
f 429/33/1 430/34/1 431/35/1 432/36/1
f 433/45/1 434/46/1 435/47/1 436/48/1
f 437/49/1 438/50/1 439/51/1 440/52/1
f 441/9/1 442/10/1 443/11/1 444/12/1
f 445/1/1 446/2/1 447/3/1 448/4/1
f 449/1/1 450/2/1 451/3/1 452/4/1
f 453/1/1 454/2/1 455/3/1 456/4/1
f 457/25/1 458/26/1 459/27/1 460/28/1
f 461/1/1 462/2/1 463/3/1 464/4/1
f 465/29/1 466/30/1 467/31/1 468/32/1
f 469/1/1 470/2/1 471/3/1 472/4/1
f 473/1/1 474/2/1 475/3/1 476/4/1
f 477/1/1 478/2/1 479/3/1 480/4/1
f 481/1/1 482/2/1 483/3/1 484/4/1
f 485/1/1 486/2/1 487/3/1 488/4/1
f 489/1/1 490/2/1 491/3/1 492/4/1
f 493/1/1 494/2/1 495/3/1 496/4/1
f 497/49/1 498/50/1 499/51/1 500/52/1
f 501/25/1 502/26/1 503/27/1 504/28/1
f 505/1/1 506/2/1 507/3/1 508/4/1
f 509/25/1 510/26/1 511/27/1 512/28/1
f 513/33/1 514/34/1 515/35/1 516/36/1
f 517/13/1 518/14/1 519/15/1 520/16/1
f 521/17/1 522/18/1 523/19/1 524/20/1
f 525/17/1 526/18/1 527/19/1 528/20/1
f 529/17/1 530/18/1 531/19/1 532/20/1
f 533/17/1 534/18/1 535/19/1 536/20/1
f 537/17/1 538/18/1 539/19/1 540/20/1
f 541/53/1 542/54/1 543/55/1 544/56/1
f 545/1/1 546/2/1 547/3/1 548/4/1
f 549/29/1 550/30/1 551/31/1 552/32/1
f 553/25/1 554/26/1 555/27/1 556/28/1
f 557/1/1 558/2/1 559/3/1 560/4/1
f 561/1/1 562/2/1 563/3/1 564/4/1
f 565/9/1 566/10/1 567/11/1 568/12/1
f 569/1/1 570/2/1 571/3/1 572/4/1
f 573/1/1 574/2/1 575/3/1 576/4/1
f 577/57/1 578/58/1 579/59/1 580/60/1
f 581/61/1 582/62/1 583/63/1 584/64/1
f 585/61/1 586/62/1 587/63/1 588/64/1
f 589/61/1 590/62/1 591/63/1 592/64/1
f 593/61/1 594/62/1 595/63/1 596/64/1
f 597/61/1 598/62/1 599/63/1 600/64/1
f 601/65/1 602/66/1 603/67/1 604/68/1
f 605/45/1 606/46/1 607/47/1 608/48/1
f 609/1/1 610/2/1 611/3/1 612/4/1
f 613/1/1 614/2/1 615/3/1 616/4/1
f 617/1/1 618/2/1 619/3/1 620/4/1
f 621/1/1 622/2/1 623/3/1 624/4/1
f 625/9/1 626/10/1 627/11/1 628/12/1
f 629/61/1 630/62/1 631/63/1 632/64/1
f 633/61/1 634/62/1 635/63/1 636/64/1
f 637/61/1 638/62/1 639/63/1 640/64/1
f 641/61/1 642/62/1 643/63/1 644/64/1
f 645/61/1 646/62/1 647/63/1 648/64/1
f 649/65/1 650/66/1 651/67/1 652/68/1
f 653/45/1 654/46/1 655/47/1 656/48/1
f 657/29/1 658/30/1 659/31/1 660/32/1
f 661/1/1 662/2/1 663/3/1 664/4/1
f 665/1/1 666/2/1 667/3/1 668/4/1
f 669/69/1 670/70/1 671/71/1 672/72/1
f 673/61/1 674/62/1 675/63/1 676/64/1
f 677/61/1 678/62/1 679/63/1 680/64/1
f 681/61/1 682/62/1 683/63/1 684/64/1

