# Tiled2Unity generated file. Do not modify by hand.
# Wavefront file for 'NewAstralaWoodsWest_mesh_0068.obj'

# Vertices (Count = 136)
v -144 -29 0
v -145 -29 0
v -145 -28 0
v -144 -28 0
v -143 -29 0
v -144 -29 0
v -144 -28 0
v -143 -28 0
v -142 -29 0
v -143 -29 0
v -143 -28 0
v -142 -28 0
v -141 -29 0
v -142 -29 0
v -142 -28 0
v -141 -28 0
v -140 -29 0
v -141 -29 0
v -141 -28 0
v -140 -28 0
v -144 -30 0
v -145 -30 0
v -145 -29 0
v -144 -29 0
v -143 -30 0
v -144 -30 0
v -144 -29 0
v -143 -29 0
v -142 -30 0
v -143 -30 0
v -143 -29 0
v -142 -29 0
v -141 -30 0
v -142 -30 0
v -142 -29 0
v -141 -29 0
v -140 -30 0
v -141 -30 0
v -141 -29 0
v -140 -29 0
v -144 -31 0
v -145 -31 0
v -145 -30 0
v -144 -30 0
v -143 -31 0
v -144 -31 0
v -144 -30 0
v -143 -30 0
v -142 -31 0
v -143 -31 0
v -143 -30 0
v -142 -30 0
v -141 -31 0
v -142 -31 0
v -142 -30 0
v -141 -30 0
v -140 -31 0
v -141 -31 0
v -141 -30 0
v -140 -30 0
v -143 -32 0
v -144 -32 0
v -144 -31 0
v -143 -31 0
v -142 -32 0
v -143 -32 0
v -143 -31 0
v -142 -31 0
v -141 -32 0
v -142 -32 0
v -142 -31 0
v -141 -31 0
v -143 -33 0
v -144 -33 0
v -144 -32 0
v -143 -32 0
v -142 -33 0
v -143 -33 0
v -143 -32 0
v -142 -32 0
v -141 -33 0
v -142 -33 0
v -142 -32 0
v -141 -32 0
v -145 -34 0
v -146 -34 0
v -146 -33 0
v -145 -33 0
v -144 -34 0
v -145 -34 0
v -145 -33 0
v -144 -33 0
v -143 -34 0
v -144 -34 0
v -144 -33 0
v -143 -33 0
v -142 -34 0
v -143 -34 0
v -143 -33 0
v -142 -33 0
v -141 -34 0
v -142 -34 0
v -142 -33 0
v -141 -33 0
v -140 -34 0
v -141 -34 0
v -141 -33 0
v -140 -33 0
v -139 -34 0
v -140 -34 0
v -140 -33 0
v -139 -33 0
v -146 -40 0
v -147 -40 0
v -147 -39 0
v -146 -39 0
v -145 -40 0
v -146 -40 0
v -146 -39 0
v -145 -39 0
v -144 -40 0
v -145 -40 0
v -145 -39 0
v -144 -39 0
v -140 -40 0
v -141 -40 0
v -141 -39 0
v -140 -39 0
v -139 -40 0
v -140 -40 0
v -140 -39 0
v -139 -39 0
v -138 -40 0
v -139 -40 0
v -139 -39 0
v -138 -39 0

# Texture cooridinates (Count = 56)
vt 0.8030303 0.8905724
vt 0.9969697 0.8905724
vt 0.9969697 0.9983165
vt 0.8030303 0.9983165
vt 0.4030303 0.446128
vt 0.5969697 0.446128
vt 0.5969697 0.553872
vt 0.4030303 0.553872
vt 0.003030303 0.8905724
vt 0.1969697 0.8905724
vt 0.1969697 0.9983165
vt 0.003030303 0.9983165
vt 0.8030303 0.7794613
vt 0.9969697 0.7794613
vt 0.9969697 0.8872054
vt 0.8030303 0.8872054
vt 0.6030303 0.5572391
vt 0.7969697 0.5572391
vt 0.7969697 0.6649832
vt 0.6030303 0.6649832
vt 0.003030303 0.7794613
vt 0.1969697 0.7794613
vt 0.1969697 0.8872054
vt 0.003030303 0.8872054
vt 0.8030303 0.6683502
vt 0.9969697 0.6683502
vt 0.9969697 0.7760943
vt 0.8030303 0.7760943
vt 0.4030303 0.8905724
vt 0.5969697 0.8905724
vt 0.5969697 0.9983165
vt 0.4030303 0.9983165
vt 0.4030303 0.7794613
vt 0.5969697 0.7794613
vt 0.5969697 0.8872054
vt 0.4030303 0.8872054
vt 0.003030303 0.6683502
vt 0.1969697 0.6683502
vt 0.1969697 0.7760943
vt 0.003030303 0.7760943
vt 0.6030303 0.6683502
vt 0.7969697 0.6683502
vt 0.7969697 0.7760943
vt 0.6030303 0.7760943
vt 0.8030303 0.3350168
vt 0.9969697 0.3350168
vt 0.9969697 0.4427609
vt 0.8030303 0.4427609
vt 0.2030303 0.2239057
vt 0.3969697 0.2239057
vt 0.3969697 0.3316498
vt 0.2030303 0.3316498
vt 0.003030303 0.3350168
vt 0.1969697 0.3350168
vt 0.1969697 0.4427609
vt 0.003030303 0.4427609

# Normal
vn 0 0 -1

# Mesh description
g NewAstralaWoodsWest_mesh_0068

# Faces
f 1/1/1 2/2/1 3/3/1 4/4/1
f 5/5/1 6/6/1 7/7/1 8/8/1
f 9/5/1 10/6/1 11/7/1 12/8/1
f 13/5/1 14/6/1 15/7/1 16/8/1
f 17/9/1 18/10/1 19/11/1 20/12/1
f 21/13/1 22/14/1 23/15/1 24/16/1
f 25/17/1 26/18/1 27/19/1 28/20/1
f 29/17/1 30/18/1 31/19/1 32/20/1
f 33/17/1 34/18/1 35/19/1 36/20/1
f 37/21/1 38/22/1 39/23/1 40/24/1
f 41/25/1 42/26/1 43/27/1 44/28/1
f 45/29/1 46/30/1 47/31/1 48/32/1
f 49/33/1 50/34/1 51/35/1 52/36/1
f 53/29/1 54/30/1 55/31/1 56/32/1
f 57/37/1 58/38/1 59/39/1 60/40/1
f 61/41/1 62/42/1 63/43/1 64/44/1
f 65/33/1 66/34/1 67/35/1 68/36/1
f 69/33/1 70/34/1 71/35/1 72/36/1
f 73/33/1 74/34/1 75/35/1 76/36/1
f 77/33/1 78/34/1 79/35/1 80/36/1
f 81/33/1 82/34/1 83/35/1 84/36/1
f 85/33/1 86/34/1 87/35/1 88/36/1
f 89/45/1 90/46/1 91/47/1 92/48/1
f 93/49/1 94/50/1 95/51/1 96/52/1
f 97/49/1 98/50/1 99/51/1 100/52/1
f 101/49/1 102/50/1 103/51/1 104/52/1
f 105/53/1 106/54/1 107/55/1 108/56/1
f 109/33/1 110/34/1 111/35/1 112/36/1
f 113/33/1 114/34/1 115/35/1 116/36/1
f 117/33/1 118/34/1 119/35/1 120/36/1
f 121/33/1 122/34/1 123/35/1 124/36/1
f 125/33/1 126/34/1 127/35/1 128/36/1
f 129/33/1 130/34/1 131/35/1 132/36/1
f 133/33/1 134/34/1 135/35/1 136/36/1

