# Tiled2Unity generated file. Do not modify by hand.
# Wavefront file for 'NewAstralaWoodsWest_mesh_0036.obj'

# Vertices (Count = 24)
v -399 -149 0
v -400 -149 0
v -400 -148 0
v -399 -148 0
v -399 -156 0
v -400 -156 0
v -400 -155 0
v -399 -155 0
v -352 -156 0
v -353 -156 0
v -353 -155 0
v -352 -155 0
v -352 -162 0
v -353 -162 0
v -353 -161 0
v -352 -161 0
v -399 -163 0
v -400 -163 0
v -400 -162 0
v -399 -162 0
v -399 -170 0
v -400 -170 0
v -400 -169 0
v -399 -169 0

# Texture cooridinates (Count = 16)
vt 0.005050505 0.5025252
vt 0.3282828 0.5025252
vt 0.3282828 0.6641414
vt 0.005050505 0.6641414
vt 0.005050505 0.1691919
vt 0.3282828 0.1691919
vt 0.3282828 0.3308081
vt 0.005050505 0.3308081
vt 0.3383838 0.5025252
vt 0.6616161 0.5025252
vt 0.6616161 0.6641414
vt 0.3383838 0.6641414
vt 0.3383838 0.1691919
vt 0.6616161 0.1691919
vt 0.6616161 0.3308081
vt 0.3383838 0.3308081

# Normal
vn 0 0 -1

# Mesh description
g NewAstralaWoodsWest_mesh_0036

# Faces
f 1/1/1 2/2/1 3/3/1 4/4/1
f 5/5/1 6/6/1 7/7/1 8/8/1
f 9/9/1 10/10/1 11/11/1 12/12/1
f 13/13/1 14/14/1 15/15/1 16/16/1
f 17/1/1 18/2/1 19/3/1 20/4/1
f 21/5/1 22/6/1 23/7/1 24/8/1

