# Tiled2Unity generated file. Do not modify by hand.
# Wavefront file for 'NewAstralaWoodsWest_mesh_0044.obj'

# Vertices (Count = 160)
v -137 -170 0
v -138 -170 0
v -138 -169 0
v -137 -169 0
v -136 -170 0
v -137 -170 0
v -137 -169 0
v -136 -169 0
v -135 -170 0
v -136 -170 0
v -136 -169 0
v -135 -169 0
v -134 -170 0
v -135 -170 0
v -135 -169 0
v -134 -169 0
v -133 -170 0
v -134 -170 0
v -134 -169 0
v -133 -169 0
v -132 -170 0
v -133 -170 0
v -133 -169 0
v -132 -169 0
v -131 -170 0
v -132 -170 0
v -132 -169 0
v -131 -169 0
v -130 -170 0
v -131 -170 0
v -131 -169 0
v -130 -169 0
v -137 -171 0
v -138 -171 0
v -138 -170 0
v -137 -170 0
v -136 -171 0
v -137 -171 0
v -137 -170 0
v -136 -170 0
v -135 -171 0
v -136 -171 0
v -136 -170 0
v -135 -170 0
v -134 -171 0
v -135 -171 0
v -135 -170 0
v -134 -170 0
v -133 -171 0
v -134 -171 0
v -134 -170 0
v -133 -170 0
v -132 -171 0
v -133 -171 0
v -133 -170 0
v -132 -170 0
v -131 -171 0
v -132 -171 0
v -132 -170 0
v -131 -170 0
v -130 -171 0
v -131 -171 0
v -131 -170 0
v -130 -170 0
v -137 -172 0
v -138 -172 0
v -138 -171 0
v -137 -171 0
v -136 -172 0
v -137 -172 0
v -137 -171 0
v -136 -171 0
v -135 -172 0
v -136 -172 0
v -136 -171 0
v -135 -171 0
v -134 -172 0
v -135 -172 0
v -135 -171 0
v -134 -171 0
v -133 -172 0
v -134 -172 0
v -134 -171 0
v -133 -171 0
v -132 -172 0
v -133 -172 0
v -133 -171 0
v -132 -171 0
v -131 -172 0
v -132 -172 0
v -132 -171 0
v -131 -171 0
v -130 -172 0
v -131 -172 0
v -131 -171 0
v -130 -171 0
v -137 -173 0
v -138 -173 0
v -138 -172 0
v -137 -172 0
v -136 -173 0
v -137 -173 0
v -137 -172 0
v -136 -172 0
v -135 -173 0
v -136 -173 0
v -136 -172 0
v -135 -172 0
v -134 -173 0
v -135 -173 0
v -135 -172 0
v -134 -172 0
v -133 -173 0
v -134 -173 0
v -134 -172 0
v -133 -172 0
v -132 -173 0
v -133 -173 0
v -133 -172 0
v -132 -172 0
v -131 -173 0
v -132 -173 0
v -132 -172 0
v -131 -172 0
v -130 -173 0
v -131 -173 0
v -131 -172 0
v -130 -172 0
v -137 -174 0
v -138 -174 0
v -138 -173 0
v -137 -173 0
v -136 -174 0
v -137 -174 0
v -137 -173 0
v -136 -173 0
v -135 -174 0
v -136 -174 0
v -136 -173 0
v -135 -173 0
v -134 -174 0
v -135 -174 0
v -135 -173 0
v -134 -173 0
v -133 -174 0
v -134 -174 0
v -134 -173 0
v -133 -173 0
v -132 -174 0
v -133 -174 0
v -133 -173 0
v -132 -173 0
v -131 -174 0
v -132 -174 0
v -132 -173 0
v -131 -173 0
v -130 -174 0
v -131 -174 0
v -131 -173 0
v -130 -173 0

# Texture cooridinates (Count = 64)
vt 0.3015152 0.4307359
vt 0.3984849 0.4307359
vt 0.3984849 0.5692641
vt 0.3015152 0.5692641
vt 0.1015152 0.4307359
vt 0.1984849 0.4307359
vt 0.1984849 0.5692641
vt 0.1015152 0.5692641
vt 0.2015152 0.4307359
vt 0.2984849 0.4307359
vt 0.2984849 0.5692641
vt 0.2015152 0.5692641
vt 0.001515151 0.4307359
vt 0.09848485 0.4307359
vt 0.09848485 0.5692641
vt 0.001515151 0.5692641
vt 0.3015152 0.5735931
vt 0.3984849 0.5735931
vt 0.3984849 0.7121212
vt 0.3015152 0.7121212
vt 0.2015152 0.5735931
vt 0.2984849 0.5735931
vt 0.2984849 0.7121212
vt 0.2015152 0.7121212
vt 0.1015152 0.5735931
vt 0.1984849 0.5735931
vt 0.1984849 0.7121212
vt 0.1015152 0.7121212
vt 0.001515151 0.5735931
vt 0.09848485 0.5735931
vt 0.09848485 0.7121212
vt 0.001515151 0.7121212
vt 0.3015152 0.2878788
vt 0.3984849 0.2878788
vt 0.3984849 0.4264069
vt 0.3015152 0.4264069
vt 0.2015152 0.2878788
vt 0.2984849 0.2878788
vt 0.2984849 0.4264069
vt 0.2015152 0.4264069
vt 0.1015152 0.2878788
vt 0.1984849 0.2878788
vt 0.1984849 0.4264069
vt 0.1015152 0.4264069
vt 0.001515151 0.2878788
vt 0.09848485 0.2878788
vt 0.09848485 0.4264069
vt 0.001515151 0.4264069
vt 0.3015152 0.1450216
vt 0.3984849 0.1450216
vt 0.3984849 0.2835498
vt 0.3015152 0.2835498
vt 0.2015152 0.1450216
vt 0.2984849 0.1450216
vt 0.2984849 0.2835498
vt 0.2015152 0.2835498
vt 0.1015152 0.1450216
vt 0.1984849 0.1450216
vt 0.1984849 0.2835498
vt 0.1015152 0.2835498
vt 0.001515151 0.1450216
vt 0.09848485 0.1450216
vt 0.09848485 0.2835498
vt 0.001515151 0.2835498

# Normal
vn 0 0 -1

# Mesh description
g NewAstralaWoodsWest_mesh_0044

# Faces
f 1/1/1 2/2/1 3/3/1 4/4/1
f 5/5/1 6/6/1 7/7/1 8/8/1
f 9/9/1 10/10/1 11/11/1 12/12/1
f 13/5/1 14/6/1 15/7/1 16/8/1
f 17/9/1 18/10/1 19/11/1 20/12/1
f 21/5/1 22/6/1 23/7/1 24/8/1
f 25/9/1 26/10/1 27/11/1 28/12/1
f 29/13/1 30/14/1 31/15/1 32/16/1
f 33/17/1 34/18/1 35/19/1 36/20/1
f 37/21/1 38/22/1 39/23/1 40/24/1
f 41/21/1 42/22/1 43/23/1 44/24/1
f 45/25/1 46/26/1 47/27/1 48/28/1
f 49/21/1 50/22/1 51/23/1 52/24/1
f 53/21/1 54/22/1 55/23/1 56/24/1
f 57/25/1 58/26/1 59/27/1 60/28/1
f 61/29/1 62/30/1 63/31/1 64/32/1
f 65/1/1 66/2/1 67/3/1 68/4/1
f 69/9/1 70/10/1 71/11/1 72/12/1
f 73/9/1 74/10/1 75/11/1 76/12/1
f 77/5/1 78/6/1 79/7/1 80/8/1
f 81/9/1 82/10/1 83/11/1 84/12/1
f 85/9/1 86/10/1 87/11/1 88/12/1
f 89/5/1 90/6/1 91/7/1 92/8/1
f 93/13/1 94/14/1 95/15/1 96/16/1
f 97/33/1 98/34/1 99/35/1 100/36/1
f 101/37/1 102/38/1 103/39/1 104/40/1
f 105/41/1 106/42/1 107/43/1 108/44/1
f 109/37/1 110/38/1 111/39/1 112/40/1
f 113/41/1 114/42/1 115/43/1 116/44/1
f 117/37/1 118/38/1 119/39/1 120/40/1
f 121/41/1 122/42/1 123/43/1 124/44/1
f 125/45/1 126/46/1 127/47/1 128/48/1
f 129/49/1 130/50/1 131/51/1 132/52/1
f 133/53/1 134/54/1 135/55/1 136/56/1
f 137/57/1 138/58/1 139/59/1 140/60/1
f 141/53/1 142/54/1 143/55/1 144/56/1
f 145/57/1 146/58/1 147/59/1 148/60/1
f 149/53/1 150/54/1 151/55/1 152/56/1
f 153/57/1 154/58/1 155/59/1 156/60/1
f 157/61/1 158/62/1 159/63/1 160/64/1

