# Tiled2Unity generated file. Do not modify by hand.
# Wavefront file for 'NewAstralaWoodsWest_mesh_0074.obj'

# Vertices (Count = 64)
v -223 -327 0
v -224 -327 0
v -224 -326 0
v -223 -326 0
v -222 -327 0
v -223 -327 0
v -223 -326 0
v -222 -326 0
v -221 -327 0
v -222 -327 0
v -222 -326 0
v -221 -326 0
v -220 -327 0
v -221 -327 0
v -221 -326 0
v -220 -326 0
v -223 -328 0
v -224 -328 0
v -224 -327 0
v -223 -327 0
v -222 -328 0
v -223 -328 0
v -223 -327 0
v -222 -327 0
v -221 -328 0
v -222 -328 0
v -222 -327 0
v -221 -327 0
v -220 -328 0
v -221 -328 0
v -221 -327 0
v -220 -327 0
v -223 -329 0
v -224 -329 0
v -224 -328 0
v -223 -328 0
v -222 -329 0
v -223 -329 0
v -223 -328 0
v -222 -328 0
v -221 -329 0
v -222 -329 0
v -222 -328 0
v -221 -328 0
v -220 -329 0
v -221 -329 0
v -221 -328 0
v -220 -328 0
v -223 -330 0
v -224 -330 0
v -224 -329 0
v -223 -329 0
v -222 -330 0
v -223 -330 0
v -223 -329 0
v -222 -329 0
v -221 -330 0
v -222 -330 0
v -222 -329 0
v -221 -329 0
v -220 -330 0
v -221 -330 0
v -221 -329 0
v -220 -329 0

# Texture cooridinates (Count = 64)
vt 0.7537879 0.7537879
vt 0.9962121 0.7537879
vt 0.9962121 0.9962121
vt 0.7537879 0.9962121
vt 0.5037879 0.7537879
vt 0.7462121 0.7537879
vt 0.7462121 0.9962121
vt 0.5037879 0.9962121
vt 0.2537879 0.7537879
vt 0.4962121 0.7537879
vt 0.4962121 0.9962121
vt 0.2537879 0.9962121
vt 0.003787879 0.7537879
vt 0.2462121 0.7537879
vt 0.2462121 0.9962121
vt 0.003787879 0.9962121
vt 0.7537879 0.5037879
vt 0.9962121 0.5037879
vt 0.9962121 0.7462121
vt 0.7537879 0.7462121
vt 0.5037879 0.5037879
vt 0.7462121 0.5037879
vt 0.7462121 0.7462121
vt 0.5037879 0.7462121
vt 0.2537879 0.5037879
vt 0.4962121 0.5037879
vt 0.4962121 0.7462121
vt 0.2537879 0.7462121
vt 0.003787879 0.5037879
vt 0.2462121 0.5037879
vt 0.2462121 0.7462121
vt 0.003787879 0.7462121
vt 0.7537879 0.2537879
vt 0.9962121 0.2537879
vt 0.9962121 0.4962121
vt 0.7537879 0.4962121
vt 0.5037879 0.2537879
vt 0.7462121 0.2537879
vt 0.7462121 0.4962121
vt 0.5037879 0.4962121
vt 0.2537879 0.2537879
vt 0.4962121 0.2537879
vt 0.4962121 0.4962121
vt 0.2537879 0.4962121
vt 0.003787879 0.2537879
vt 0.2462121 0.2537879
vt 0.2462121 0.4962121
vt 0.003787879 0.4962121
vt 0.7537879 0.003787875
vt 0.9962121 0.003787875
vt 0.9962121 0.2462121
vt 0.7537879 0.2462121
vt 0.5037879 0.003787875
vt 0.7462121 0.003787875
vt 0.7462121 0.2462121
vt 0.5037879 0.2462121
vt 0.2537879 0.003787875
vt 0.4962121 0.003787875
vt 0.4962121 0.2462121
vt 0.2537879 0.2462121
vt 0.003787879 0.003787875
vt 0.2462121 0.003787875
vt 0.2462121 0.2462121
vt 0.003787879 0.2462121

# Normal
vn 0 0 -1

# Mesh description
g NewAstralaWoodsWest_mesh_0074

# Faces
f 1/1/1 2/2/1 3/3/1 4/4/1
f 5/5/1 6/6/1 7/7/1 8/8/1
f 9/9/1 10/10/1 11/11/1 12/12/1
f 13/13/1 14/14/1 15/15/1 16/16/1
f 17/17/1 18/18/1 19/19/1 20/20/1
f 21/21/1 22/22/1 23/23/1 24/24/1
f 25/25/1 26/26/1 27/27/1 28/28/1
f 29/29/1 30/30/1 31/31/1 32/32/1
f 33/33/1 34/34/1 35/35/1 36/36/1
f 37/37/1 38/38/1 39/39/1 40/40/1
f 41/41/1 42/42/1 43/43/1 44/44/1
f 45/45/1 46/46/1 47/47/1 48/48/1
f 49/49/1 50/50/1 51/51/1 52/52/1
f 53/53/1 54/54/1 55/55/1 56/56/1
f 57/57/1 58/58/1 59/59/1 60/60/1
f 61/61/1 62/62/1 63/63/1 64/64/1

