# Tiled2Unity generated file. Do not modify by hand.
# Wavefront file for 'NewAstralaWoodsWest_mesh_0023.obj'

# Vertices (Count = 652)
v -37 -30 0
v -38 -30 0
v -38 -29 0
v -37 -29 0
v -36 -30 0
v -37 -30 0
v -37 -29 0
v -36 -29 0
v -35 -30 0
v -36 -30 0
v -36 -29 0
v -35 -29 0
v -34 -30 0
v -35 -30 0
v -35 -29 0
v -34 -29 0
v -33 -30 0
v -34 -30 0
v -34 -29 0
v -33 -29 0
v -32 -30 0
v -33 -30 0
v -33 -29 0
v -32 -29 0
v -31 -30 0
v -32 -30 0
v -32 -29 0
v -31 -29 0
v -30 -30 0
v -31 -30 0
v -31 -29 0
v -30 -29 0
v -29 -30 0
v -30 -30 0
v -30 -29 0
v -29 -29 0
v -37 -31 0
v -38 -31 0
v -38 -30 0
v -37 -30 0
v -36 -31 0
v -37 -31 0
v -37 -30 0
v -36 -30 0
v -35 -31 0
v -36 -31 0
v -36 -30 0
v -35 -30 0
v -34 -31 0
v -35 -31 0
v -35 -30 0
v -34 -30 0
v -33 -31 0
v -34 -31 0
v -34 -30 0
v -33 -30 0
v -32 -31 0
v -33 -31 0
v -33 -30 0
v -32 -30 0
v -31 -31 0
v -32 -31 0
v -32 -30 0
v -31 -30 0
v -30 -31 0
v -31 -31 0
v -31 -30 0
v -30 -30 0
v -29 -31 0
v -30 -31 0
v -30 -30 0
v -29 -30 0
v -38 -32 0
v -39 -32 0
v -39 -31 0
v -38 -31 0
v -37 -32 0
v -38 -32 0
v -38 -31 0
v -37 -31 0
v -36 -32 0
v -37 -32 0
v -37 -31 0
v -36 -31 0
v -34 -32 0
v -35 -32 0
v -35 -31 0
v -34 -31 0
v -33 -32 0
v -34 -32 0
v -34 -31 0
v -33 -31 0
v -32 -32 0
v -33 -32 0
v -33 -31 0
v -32 -31 0
v -31 -32 0
v -32 -32 0
v -32 -31 0
v -31 -31 0
v -30 -32 0
v -31 -32 0
v -31 -31 0
v -30 -31 0
v -29 -32 0
v -30 -32 0
v -30 -31 0
v -29 -31 0
v -28 -32 0
v -29 -32 0
v -29 -31 0
v -28 -31 0
v -27 -32 0
v -28 -32 0
v -28 -31 0
v -27 -31 0
v -38 -33 0
v -39 -33 0
v -39 -32 0
v -38 -32 0
v -37 -33 0
v -38 -33 0
v -38 -32 0
v -37 -32 0
v -36 -33 0
v -37 -33 0
v -37 -32 0
v -36 -32 0
v -34 -33 0
v -35 -33 0
v -35 -32 0
v -34 -32 0
v -33 -33 0
v -34 -33 0
v -34 -32 0
v -33 -32 0
v -32 -33 0
v -33 -33 0
v -33 -32 0
v -32 -32 0
v -31 -33 0
v -32 -33 0
v -32 -32 0
v -31 -32 0
v -30 -33 0
v -31 -33 0
v -31 -32 0
v -30 -32 0
v -29 -33 0
v -30 -33 0
v -30 -32 0
v -29 -32 0
v -28 -33 0
v -29 -33 0
v -29 -32 0
v -28 -32 0
v -27 -33 0
v -28 -33 0
v -28 -32 0
v -27 -32 0
v -38 -34 0
v -39 -34 0
v -39 -33 0
v -38 -33 0
v -37 -34 0
v -38 -34 0
v -38 -33 0
v -37 -33 0
v -36 -34 0
v -37 -34 0
v -37 -33 0
v -36 -33 0
v -35 -34 0
v -36 -34 0
v -36 -33 0
v -35 -33 0
v -34 -34 0
v -35 -34 0
v -35 -33 0
v -34 -33 0
v -33 -34 0
v -34 -34 0
v -34 -33 0
v -33 -33 0
v -32 -34 0
v -33 -34 0
v -33 -33 0
v -32 -33 0
v -31 -34 0
v -32 -34 0
v -32 -33 0
v -31 -33 0
v -30 -34 0
v -31 -34 0
v -31 -33 0
v -30 -33 0
v -29 -34 0
v -30 -34 0
v -30 -33 0
v -29 -33 0
v -28 -34 0
v -29 -34 0
v -29 -33 0
v -28 -33 0
v -27 -34 0
v -28 -34 0
v -28 -33 0
v -27 -33 0
v -38 -35 0
v -39 -35 0
v -39 -34 0
v -38 -34 0
v -37 -35 0
v -38 -35 0
v -38 -34 0
v -37 -34 0
v -36 -35 0
v -37 -35 0
v -37 -34 0
v -36 -34 0
v -35 -35 0
v -36 -35 0
v -36 -34 0
v -35 -34 0
v -34 -35 0
v -35 -35 0
v -35 -34 0
v -34 -34 0
v -33 -35 0
v -34 -35 0
v -34 -34 0
v -33 -34 0
v -32 -35 0
v -33 -35 0
v -33 -34 0
v -32 -34 0
v -31 -35 0
v -32 -35 0
v -32 -34 0
v -31 -34 0
v -30 -35 0
v -31 -35 0
v -31 -34 0
v -30 -34 0
v -29 -35 0
v -30 -35 0
v -30 -34 0
v -29 -34 0
v -28 -35 0
v -29 -35 0
v -29 -34 0
v -28 -34 0
v -27 -35 0
v -28 -35 0
v -28 -34 0
v -27 -34 0
v -34 -36 0
v -35 -36 0
v -35 -35 0
v -34 -35 0
v -33 -36 0
v -34 -36 0
v -34 -35 0
v -33 -35 0
v -32 -36 0
v -33 -36 0
v -33 -35 0
v -32 -35 0
v -31 -36 0
v -32 -36 0
v -32 -35 0
v -31 -35 0
v -30 -36 0
v -31 -36 0
v -31 -35 0
v -30 -35 0
v -29 -36 0
v -30 -36 0
v -30 -35 0
v -29 -35 0
v -28 -36 0
v -29 -36 0
v -29 -35 0
v -28 -35 0
v -27 -36 0
v -28 -36 0
v -28 -35 0
v -27 -35 0
v -34 -37 0
v -35 -37 0
v -35 -36 0
v -34 -36 0
v -33 -37 0
v -34 -37 0
v -34 -36 0
v -33 -36 0
v -32 -37 0
v -33 -37 0
v -33 -36 0
v -32 -36 0
v -31 -37 0
v -32 -37 0
v -32 -36 0
v -31 -36 0
v -30 -37 0
v -31 -37 0
v -31 -36 0
v -30 -36 0
v -29 -37 0
v -30 -37 0
v -30 -36 0
v -29 -36 0
v -28 -37 0
v -29 -37 0
v -29 -36 0
v -28 -36 0
v -27 -37 0
v -28 -37 0
v -28 -36 0
v -27 -36 0
v -26 -37 0
v -27 -37 0
v -27 -36 0
v -26 -36 0
v -37 -38 0
v -38 -38 0
v -38 -37 0
v -37 -37 0
v -36 -38 0
v -37 -38 0
v -37 -37 0
v -36 -37 0
v -28 -38 0
v -29 -38 0
v -29 -37 0
v -28 -37 0
v -27 -38 0
v -28 -38 0
v -28 -37 0
v -27 -37 0
v -26 -38 0
v -27 -38 0
v -27 -37 0
v -26 -37 0
v -39 -39 0
v -40 -39 0
v -40 -38 0
v -39 -38 0
v -38 -39 0
v -39 -39 0
v -39 -38 0
v -38 -38 0
v -37 -39 0
v -38 -39 0
v -38 -38 0
v -37 -38 0
v -36 -39 0
v -37 -39 0
v -37 -38 0
v -36 -38 0
v -28 -39 0
v -29 -39 0
v -29 -38 0
v -28 -38 0
v -27 -39 0
v -28 -39 0
v -28 -38 0
v -27 -38 0
v -39 -40 0
v -40 -40 0
v -40 -39 0
v -39 -39 0
v -38 -40 0
v -39 -40 0
v -39 -39 0
v -38 -39 0
v -37 -40 0
v -38 -40 0
v -38 -39 0
v -37 -39 0
v -36 -40 0
v -37 -40 0
v -37 -39 0
v -36 -39 0
v -39 -41 0
v -40 -41 0
v -40 -40 0
v -39 -40 0
v -38 -41 0
v -39 -41 0
v -39 -40 0
v -38 -40 0
v -37 -41 0
v -38 -41 0
v -38 -40 0
v -37 -40 0
v -36 -41 0
v -37 -41 0
v -37 -40 0
v -36 -40 0
v -49 -44 0
v -50 -44 0
v -50 -43 0
v -49 -43 0
v -48 -44 0
v -49 -44 0
v -49 -43 0
v -48 -43 0
v -47 -44 0
v -48 -44 0
v -48 -43 0
v -47 -43 0
v -46 -44 0
v -47 -44 0
v -47 -43 0
v -46 -43 0
v -45 -44 0
v -46 -44 0
v -46 -43 0
v -45 -43 0
v -44 -44 0
v -45 -44 0
v -45 -43 0
v -44 -43 0
v -50 -45 0
v -51 -45 0
v -51 -44 0
v -50 -44 0
v -49 -45 0
v -50 -45 0
v -50 -44 0
v -49 -44 0
v -48 -45 0
v -49 -45 0
v -49 -44 0
v -48 -44 0
v -47 -45 0
v -48 -45 0
v -48 -44 0
v -47 -44 0
v -46 -45 0
v -47 -45 0
v -47 -44 0
v -46 -44 0
v -45 -45 0
v -46 -45 0
v -46 -44 0
v -45 -44 0
v -44 -45 0
v -45 -45 0
v -45 -44 0
v -44 -44 0
v -50 -46 0
v -51 -46 0
v -51 -45 0
v -50 -45 0
v -49 -46 0
v -50 -46 0
v -50 -45 0
v -49 -45 0
v -48 -46 0
v -49 -46 0
v -49 -45 0
v -48 -45 0
v -47 -46 0
v -48 -46 0
v -48 -45 0
v -47 -45 0
v -45 -46 0
v -46 -46 0
v -46 -45 0
v -45 -45 0
v -44 -46 0
v -45 -46 0
v -45 -45 0
v -44 -45 0
v -50 -47 0
v -51 -47 0
v -51 -46 0
v -50 -46 0
v -49 -47 0
v -50 -47 0
v -50 -46 0
v -49 -46 0
v -48 -47 0
v -49 -47 0
v -49 -46 0
v -48 -46 0
v -47 -47 0
v -48 -47 0
v -48 -46 0
v -47 -46 0
v -46 -47 0
v -47 -47 0
v -47 -46 0
v -46 -46 0
v -45 -47 0
v -46 -47 0
v -46 -46 0
v -45 -46 0
v -44 -47 0
v -45 -47 0
v -45 -46 0
v -44 -46 0
v -50 -48 0
v -51 -48 0
v -51 -47 0
v -50 -47 0
v -49 -48 0
v -50 -48 0
v -50 -47 0
v -49 -47 0
v -48 -48 0
v -49 -48 0
v -49 -47 0
v -48 -47 0
v -47 -48 0
v -48 -48 0
v -48 -47 0
v -47 -47 0
v -46 -48 0
v -47 -48 0
v -47 -47 0
v -46 -47 0
v -45 -48 0
v -46 -48 0
v -46 -47 0
v -45 -47 0
v -44 -48 0
v -45 -48 0
v -45 -47 0
v -44 -47 0
v -50 -49 0
v -51 -49 0
v -51 -48 0
v -50 -48 0
v -49 -49 0
v -50 -49 0
v -50 -48 0
v -49 -48 0
v -48 -49 0
v -49 -49 0
v -49 -48 0
v -48 -48 0
v -47 -49 0
v -48 -49 0
v -48 -48 0
v -47 -48 0
v -46 -49 0
v -47 -49 0
v -47 -48 0
v -46 -48 0
v -53 -56 0
v -54 -56 0
v -54 -55 0
v -53 -55 0
v -52 -56 0
v -53 -56 0
v -53 -55 0
v -52 -55 0
v -51 -56 0
v -52 -56 0
v -52 -55 0
v -51 -55 0
v -54 -57 0
v -55 -57 0
v -55 -56 0
v -54 -56 0
v -53 -57 0
v -54 -57 0
v -54 -56 0
v -53 -56 0
v -52 -57 0
v -53 -57 0
v -53 -56 0
v -52 -56 0
v -51 -57 0
v -52 -57 0
v -52 -56 0
v -51 -56 0
v -55 -58 0
v -56 -58 0
v -56 -57 0
v -55 -57 0
v -54 -58 0
v -55 -58 0
v -55 -57 0
v -54 -57 0
v -53 -58 0
v -54 -58 0
v -54 -57 0
v -53 -57 0
v -52 -58 0
v -53 -58 0
v -53 -57 0
v -52 -57 0
v -51 -58 0
v -52 -58 0
v -52 -57 0
v -51 -57 0
v -55 -59 0
v -56 -59 0
v -56 -58 0
v -55 -58 0
v -54 -59 0
v -55 -59 0
v -55 -58 0
v -54 -58 0
v -53 -59 0
v -54 -59 0
v -54 -58 0
v -53 -58 0
v -52 -59 0
v -53 -59 0
v -53 -58 0
v -52 -58 0
v -55 -60 0
v -56 -60 0
v -56 -59 0
v -55 -59 0
v -54 -60 0
v -55 -60 0
v -55 -59 0
v -54 -59 0
v -53 -60 0
v -54 -60 0
v -54 -59 0
v -53 -59 0
v -52 -60 0
v -53 -60 0
v -53 -59 0
v -52 -59 0
v -51 -60 0
v -52 -60 0
v -52 -59 0
v -51 -59 0
v -54 -61 0
v -55 -61 0
v -55 -60 0
v -54 -60 0
v -53 -61 0
v -54 -61 0
v -54 -60 0
v -53 -60 0
v -52 -61 0
v -53 -61 0
v -53 -60 0
v -52 -60 0
v -51 -61 0
v -52 -61 0
v -52 -60 0
v -51 -60 0

# Texture cooridinates (Count = 108)
vt 0.4030303 0.8358586
vt 0.5969697 0.8358586
vt 0.5969697 0.9974747
vt 0.4030303 0.9974747
vt 0.2030303 0.8358586
vt 0.3969697 0.8358586
vt 0.3969697 0.9974747
vt 0.2030303 0.9974747
vt 0.003030303 0.8358586
vt 0.1969697 0.8358586
vt 0.1969697 0.9974747
vt 0.003030303 0.9974747
vt 0.4030303 0.669192
vt 0.5969697 0.669192
vt 0.5969697 0.8308081
vt 0.4030303 0.8308081
vt 0.8030303 0.5025252
vt 0.9969697 0.5025252
vt 0.9969697 0.6641414
vt 0.8030303 0.6641414
vt 0.2030303 0.5025252
vt 0.3969697 0.5025252
vt 0.3969697 0.6641414
vt 0.2030303 0.6641414
vt 0.6030303 0.5025252
vt 0.7969697 0.5025252
vt 0.7969697 0.6641414
vt 0.6030303 0.6641414
vt 0.2030303 0.669192
vt 0.3969697 0.669192
vt 0.3969697 0.8308081
vt 0.2030303 0.8308081
vt 0.003030303 0.669192
vt 0.1969697 0.669192
vt 0.1969697 0.8308081
vt 0.003030303 0.8308081
vt 0.6030303 0.3358586
vt 0.7969697 0.3358586
vt 0.7969697 0.4974747
vt 0.6030303 0.4974747
vt 0.8030303 0.3358586
vt 0.9969697 0.3358586
vt 0.9969697 0.4974747
vt 0.8030303 0.4974747
vt 0.8030303 0.8358586
vt 0.9969697 0.8358586
vt 0.9969697 0.9974747
vt 0.8030303 0.9974747
vt 0.6030303 0.8358586
vt 0.7969697 0.8358586
vt 0.7969697 0.9974747
vt 0.6030303 0.9974747
vt 0.8030303 0.669192
vt 0.9969697 0.669192
vt 0.9969697 0.8308081
vt 0.8030303 0.8308081
vt 0.6030303 0.669192
vt 0.7969697 0.669192
vt 0.7969697 0.8308081
vt 0.6030303 0.8308081
vt 0.4030303 0.5025252
vt 0.5969697 0.5025252
vt 0.5969697 0.6641414
vt 0.4030303 0.6641414
vt 0.003030303 0.5025252
vt 0.1969697 0.5025252
vt 0.1969697 0.6641414
vt 0.003030303 0.6641414
vt 0.4030303 0.3358586
vt 0.5969697 0.3358586
vt 0.5969697 0.4974747
vt 0.4030303 0.4974747
vt 0.003030303 0.3358586
vt 0.1969697 0.3358586
vt 0.1969697 0.4974747
vt 0.003030303 0.4974747
vt 0.2030303 0.3358586
vt 0.3969697 0.3358586
vt 0.3969697 0.4974747
vt 0.2030303 0.4974747
vt 0.6030303 0.00252527
vt 0.7969697 0.00252527
vt 0.7969697 0.1641414
vt 0.6030303 0.1641414
vt 0.003030303 0.1691919
vt 0.1969697 0.1691919
vt 0.1969697 0.3308081
vt 0.003030303 0.3308081
vt 0.4030303 0.1691919
vt 0.5969697 0.1691919
vt 0.5969697 0.3308081
vt 0.4030303 0.3308081
vt 0.2030303 0.1691919
vt 0.3969697 0.1691919
vt 0.3969697 0.3308081
vt 0.2030303 0.3308081
vt 0.4030303 0.00252527
vt 0.5969697 0.00252527
vt 0.5969697 0.1641414
vt 0.4030303 0.1641414
vt 0.2030303 0.00252527
vt 0.3969697 0.00252527
vt 0.3969697 0.1641414
vt 0.2030303 0.1641414
vt 0.003030303 0.00252527
vt 0.1969697 0.00252527
vt 0.1969697 0.1641414
vt 0.003030303 0.1641414

# Normal
vn 0 0 -1

# Mesh description
g NewAstralaWoodsWest_mesh_0023

# Faces
f 1/1/1 2/2/1 3/3/1 4/4/1
f 5/5/1 6/6/1 7/7/1 8/8/1
f 9/5/1 10/6/1 11/7/1 12/8/1
f 13/5/1 14/6/1 15/7/1 16/8/1
f 17/5/1 18/6/1 19/7/1 20/8/1
f 21/5/1 22/6/1 23/7/1 24/8/1
f 25/5/1 26/6/1 27/7/1 28/8/1
f 29/5/1 30/6/1 31/7/1 32/8/1
f 33/9/1 34/10/1 35/11/1 36/12/1
f 37/13/1 38/14/1 39/15/1 40/16/1
f 41/17/1 42/18/1 43/19/1 44/20/1
f 45/21/1 46/22/1 47/23/1 48/24/1
f 49/21/1 50/22/1 51/23/1 52/24/1
f 53/25/1 54/26/1 55/27/1 56/28/1
f 57/29/1 58/30/1 59/31/1 60/32/1
f 61/29/1 62/30/1 63/31/1 64/32/1
f 65/29/1 66/30/1 67/31/1 68/32/1
f 69/33/1 70/34/1 71/35/1 72/36/1
f 73/1/1 74/2/1 75/3/1 76/4/1
f 77/37/1 78/38/1 79/39/1 80/40/1
f 81/33/1 82/34/1 83/35/1 84/36/1
f 85/1/1 86/2/1 87/3/1 88/4/1
f 89/37/1 90/38/1 91/39/1 92/40/1
f 93/29/1 94/30/1 95/31/1 96/32/1
f 97/30/1 98/31/1 99/32/1 100/29/1
f 101/29/1 102/30/1 103/31/1 104/32/1
f 105/41/1 106/42/1 107/43/1 108/44/1
f 109/5/1 110/6/1 111/7/1 112/8/1
f 113/9/1 114/10/1 115/11/1 116/12/1
f 117/13/1 118/14/1 119/15/1 120/16/1
f 121/29/1 122/30/1 123/31/1 124/32/1
f 125/33/1 126/34/1 127/35/1 128/36/1
f 129/13/1 130/14/1 131/15/1 132/16/1
f 133/29/1 134/30/1 135/31/1 136/32/1
f 137/45/1 138/46/1 139/47/1 140/48/1
f 141/49/1 142/50/1 143/51/1 144/52/1
f 145/29/1 146/30/1 147/31/1 148/32/1
f 149/29/1 150/30/1 151/31/1 152/32/1
f 153/29/1 154/30/1 155/31/1 156/32/1
f 157/33/1 158/34/1 159/35/1 160/36/1
f 161/13/1 162/14/1 163/15/1 164/16/1
f 165/29/1 166/30/1 167/31/1 168/32/1
f 169/33/1 170/34/1 171/35/1 172/36/1
f 173/1/1 174/2/1 175/3/1 176/4/1
f 177/37/1 178/38/1 179/39/1 180/40/1
f 181/29/1 182/30/1 183/31/1 184/32/1
f 185/53/1 186/54/1 187/55/1 188/56/1
f 189/57/1 190/58/1 191/59/1 192/60/1
f 193/29/1 194/30/1 195/31/1 196/32/1
f 197/17/1 198/18/1 199/19/1 200/20/1
f 201/25/1 202/26/1 203/27/1 204/28/1
f 205/33/1 206/34/1 207/35/1 208/36/1
f 209/61/1 210/62/1 211/63/1 212/64/1
f 213/21/1 214/22/1 215/23/1 216/24/1
f 217/65/1 218/66/1 219/67/1 220/68/1
f 221/61/1 222/62/1 223/63/1 224/64/1
f 225/25/1 226/26/1 227/27/1 228/28/1
f 229/29/1 230/30/1 231/31/1 232/32/1
f 233/30/1 234/31/1 235/32/1 236/29/1
f 237/29/1 238/30/1 239/31/1 240/32/1
f 241/29/1 242/30/1 243/31/1 244/32/1
f 245/41/1 246/42/1 247/43/1 248/44/1
f 249/37/1 250/38/1 251/39/1 252/40/1
f 253/33/1 254/34/1 255/35/1 256/36/1
f 257/13/1 258/14/1 259/15/1 260/16/1
f 261/29/1 262/30/1 263/31/1 264/32/1
f 265/29/1 266/30/1 267/31/1 268/32/1
f 269/30/1 270/31/1 271/32/1 272/29/1
f 273/29/1 274/30/1 275/31/1 276/32/1
f 277/17/1 278/18/1 279/19/1 280/20/1
f 281/21/1 282/22/1 283/23/1 284/24/1
f 285/65/1 286/66/1 287/67/1 288/68/1
f 289/61/1 290/62/1 291/63/1 292/64/1
f 293/21/1 294/22/1 295/23/1 296/24/1
f 297/21/1 298/22/1 299/23/1 300/24/1
f 301/21/1 302/22/1 303/23/1 304/24/1
f 305/21/1 306/22/1 307/23/1 308/24/1
f 309/65/1 310/66/1 311/67/1 312/68/1
f 313/1/1 314/2/1 315/3/1 316/4/1
f 317/5/1 318/6/1 319/7/1 320/8/1
f 321/9/1 322/10/1 323/11/1 324/12/1
f 325/69/1 326/70/1 327/71/1 328/72/1
f 329/73/1 330/74/1 331/75/1 332/76/1
f 333/13/1 334/14/1 335/15/1 336/16/1
f 337/17/1 338/18/1 339/19/1 340/20/1
f 341/65/1 342/66/1 343/67/1 344/68/1
f 345/69/1 346/70/1 347/71/1 348/72/1
f 349/77/1 350/78/1 351/79/1 352/80/1
f 353/81/1 354/82/1 355/83/1 356/84/1
f 357/85/1 358/86/1 359/87/1 360/88/1
f 361/61/1 362/62/1 363/63/1 364/64/1
f 365/65/1 366/66/1 367/67/1 368/68/1
f 369/89/1 370/90/1 371/91/1 372/92/1
f 373/93/1 374/94/1 375/95/1 376/96/1
f 377/31/1 378/32/1 379/29/1 380/30/1
f 381/85/1 382/86/1 383/87/1 384/88/1
f 385/97/1 386/98/1 387/99/1 388/100/1
f 389/101/1 390/102/1 391/103/1 392/104/1
f 393/101/1 394/102/1 395/103/1 396/104/1
f 397/105/1 398/106/1 399/107/1 400/108/1
f 401/1/1 402/2/1 403/3/1 404/4/1
f 405/5/1 406/6/1 407/7/1 408/8/1
f 409/5/1 410/6/1 411/7/1 412/8/1
f 413/5/1 414/6/1 415/7/1 416/8/1
f 417/5/1 418/6/1 419/7/1 420/8/1
f 421/9/1 422/10/1 423/11/1 424/12/1
f 425/1/1 426/2/1 427/3/1 428/4/1
f 429/37/1 430/38/1 431/39/1 432/40/1
f 433/29/1 434/30/1 435/31/1 436/32/1
f 437/17/1 438/18/1 439/19/1 440/20/1
f 441/21/1 442/22/1 443/23/1 444/24/1
f 445/25/1 446/26/1 447/27/1 448/28/1
f 449/33/1 450/34/1 451/35/1 452/36/1
f 453/13/1 454/14/1 455/15/1 456/16/1
f 457/29/1 458/30/1 459/31/1 460/32/1
f 461/31/1 462/32/1 463/29/1 464/30/1
f 465/33/1 466/34/1 467/35/1 468/36/1
f 469/13/1 470/14/1 471/15/1 472/16/1
f 473/33/1 474/34/1 475/35/1 476/36/1
f 477/13/1 478/14/1 479/15/1 480/16/1
f 481/17/1 482/18/1 483/19/1 484/20/1
f 485/25/1 486/26/1 487/27/1 488/28/1
f 489/41/1 490/42/1 491/43/1 492/44/1
f 493/5/1 494/6/1 495/7/1 496/8/1
f 497/37/1 498/38/1 499/39/1 500/40/1
f 501/33/1 502/34/1 503/35/1 504/36/1
f 505/13/1 506/14/1 507/15/1 508/16/1
f 509/41/1 510/42/1 511/43/1 512/44/1
f 513/37/1 514/38/1 515/39/1 516/40/1
f 517/29/1 518/30/1 519/31/1 520/32/1
f 521/17/1 522/18/1 523/19/1 524/20/1
f 525/21/1 526/22/1 527/23/1 528/24/1
f 529/65/1 530/66/1 531/67/1 532/68/1
f 533/61/1 534/62/1 535/63/1 536/64/1
f 537/21/1 538/22/1 539/23/1 540/24/1
f 541/21/1 542/22/1 543/23/1 544/24/1
f 545/21/1 546/22/1 547/23/1 548/24/1
f 549/65/1 550/66/1 551/67/1 552/68/1
f 553/1/1 554/2/1 555/3/1 556/4/1
f 557/5/1 558/6/1 559/7/1 560/8/1
f 561/5/1 562/6/1 563/7/1 564/8/1
f 565/1/1 566/2/1 567/3/1 568/4/1
f 569/37/1 570/38/1 571/39/1 572/40/1
f 573/29/1 574/30/1 575/31/1 576/32/1
f 577/29/1 578/30/1 579/31/1 580/32/1
f 581/1/1 582/2/1 583/3/1 584/4/1
f 585/37/1 586/38/1 587/39/1 588/40/1
f 589/29/1 590/30/1 591/31/1 592/32/1
f 593/17/1 594/18/1 595/19/1 596/20/1
f 597/25/1 598/26/1 599/27/1 600/28/1
f 601/13/1 602/14/1 603/15/1 604/16/1
f 605/29/1 606/30/1 607/31/1 608/32/1
f 609/29/1 610/30/1 611/31/1 612/32/1
f 613/33/1 614/34/1 615/35/1 616/36/1
f 617/61/1 618/62/1 619/63/1 620/64/1
f 621/25/1 622/26/1 623/27/1 624/28/1
f 625/29/1 626/30/1 627/31/1 628/32/1
f 629/41/1 630/42/1 631/43/1 632/44/1
f 633/37/1 634/38/1 635/39/1 636/40/1
f 637/61/1 638/62/1 639/63/1 640/64/1
f 641/21/1 642/22/1 643/23/1 644/24/1
f 645/21/1 646/22/1 647/23/1 648/24/1
f 649/21/1 650/22/1 651/23/1 652/24/1

