# Tiled2Unity generated file. Do not modify by hand.
# Wavefront file for 'NewAstralaWoodsWest_mesh_0018.obj'

# Vertices (Count = 72)
v -147 -21 0
v -148 -21 0
v -148 -20 0
v -147 -20 0
v -146 -21 0
v -147 -21 0
v -147 -20 0
v -146 -20 0
v -145 -21 0
v -146 -21 0
v -146 -20 0
v -145 -20 0
v -144 -21 0
v -145 -21 0
v -145 -20 0
v -144 -20 0
v -143 -21 0
v -144 -21 0
v -144 -20 0
v -143 -20 0
v -142 -21 0
v -143 -21 0
v -143 -20 0
v -142 -20 0
v -141 -21 0
v -142 -21 0
v -142 -20 0
v -141 -20 0
v -140 -21 0
v -141 -21 0
v -141 -20 0
v -140 -20 0
v -139 -21 0
v -140 -21 0
v -140 -20 0
v -139 -20 0
v -138 -21 0
v -139 -21 0
v -139 -20 0
v -138 -20 0
v -137 -21 0
v -138 -21 0
v -138 -20 0
v -137 -20 0
v -136 -21 0
v -137 -21 0
v -137 -20 0
v -136 -20 0
v -135 -21 0
v -136 -21 0
v -136 -20 0
v -135 -20 0
v -113 -21 0
v -114 -21 0
v -114 -20 0
v -113 -20 0
v -112 -21 0
v -113 -21 0
v -113 -20 0
v -112 -20 0
v -111 -21 0
v -112 -21 0
v -112 -20 0
v -111 -20 0
v -109 -21 0
v -110 -21 0
v -110 -20 0
v -109 -20 0
v -108 -21 0
v -109 -21 0
v -109 -20 0
v -108 -20 0

# Texture cooridinates (Count = 4)
vt 0.1691919 0.3768939
vt 0.3308081 0.3768939
vt 0.3308081 0.4981061
vt 0.1691919 0.4981061

# Normal
vn 0 0 -1

# Mesh description
g NewAstralaWoodsWest_mesh_0018

# Faces
f 1/1/1 2/2/1 3/3/1 4/4/1
f 5/1/1 6/2/1 7/3/1 8/4/1
f 9/1/1 10/2/1 11/3/1 12/4/1
f 13/1/1 14/2/1 15/3/1 16/4/1
f 17/1/1 18/2/1 19/3/1 20/4/1
f 21/1/1 22/2/1 23/3/1 24/4/1
f 25/1/1 26/2/1 27/3/1 28/4/1
f 29/1/1 30/2/1 31/3/1 32/4/1
f 33/1/1 34/2/1 35/3/1 36/4/1
f 37/1/1 38/2/1 39/3/1 40/4/1
f 41/1/1 42/2/1 43/3/1 44/4/1
f 45/1/1 46/2/1 47/3/1 48/4/1
f 49/1/1 50/2/1 51/3/1 52/4/1
f 53/1/1 54/2/1 55/3/1 56/4/1
f 57/1/1 58/2/1 59/3/1 60/4/1
f 61/1/1 62/2/1 63/3/1 64/4/1
f 65/1/1 66/2/1 67/3/1 68/4/1
f 69/1/1 70/2/1 71/3/1 72/4/1

