# Tiled2Unity generated file. Do not modify by hand.
# Wavefront file for 'NewAstralaWoodsWest_mesh_0052.obj'

# Vertices (Count = 728)
v -429 -137 0
v -430 -137 0
v -430 -136 0
v -429 -136 0
v -429 -138 0
v -430 -138 0
v -430 -137 0
v -429 -137 0
v -429 -139 0
v -430 -139 0
v -430 -138 0
v -429 -138 0
v -429 -140 0
v -430 -140 0
v -430 -139 0
v -429 -139 0
v -429 -141 0
v -430 -141 0
v -430 -140 0
v -429 -140 0
v -429 -142 0
v -430 -142 0
v -430 -141 0
v -429 -141 0
v -429 -143 0
v -430 -143 0
v -430 -142 0
v -429 -142 0
v -429 -144 0
v -430 -144 0
v -430 -143 0
v -429 -143 0
v -429 -145 0
v -430 -145 0
v -430 -144 0
v -429 -144 0
v -449 -146 0
v -450 -146 0
v -450 -145 0
v -449 -145 0
v -448 -146 0
v -449 -146 0
v -449 -145 0
v -448 -145 0
v -447 -146 0
v -448 -146 0
v -448 -145 0
v -447 -145 0
v -446 -146 0
v -447 -146 0
v -447 -145 0
v -446 -145 0
v -445 -146 0
v -446 -146 0
v -446 -145 0
v -445 -145 0
v -444 -146 0
v -445 -146 0
v -445 -145 0
v -444 -145 0
v -443 -146 0
v -444 -146 0
v -444 -145 0
v -443 -145 0
v -442 -146 0
v -443 -146 0
v -443 -145 0
v -442 -145 0
v -441 -146 0
v -442 -146 0
v -442 -145 0
v -441 -145 0
v -440 -146 0
v -441 -146 0
v -441 -145 0
v -440 -145 0
v -439 -146 0
v -440 -146 0
v -440 -145 0
v -439 -145 0
v -438 -146 0
v -439 -146 0
v -439 -145 0
v -438 -145 0
v -437 -146 0
v -438 -146 0
v -438 -145 0
v -437 -145 0
v -436 -146 0
v -437 -146 0
v -437 -145 0
v -436 -145 0
v -435 -146 0
v -436 -146 0
v -436 -145 0
v -435 -145 0
v -434 -146 0
v -435 -146 0
v -435 -145 0
v -434 -145 0
v -433 -146 0
v -434 -146 0
v -434 -145 0
v -433 -145 0
v -432 -146 0
v -433 -146 0
v -433 -145 0
v -432 -145 0
v -431 -146 0
v -432 -146 0
v -432 -145 0
v -431 -145 0
v -430 -146 0
v -431 -146 0
v -431 -145 0
v -430 -145 0
v -429 -146 0
v -430 -146 0
v -430 -145 0
v -429 -145 0
v -449 -147 0
v -450 -147 0
v -450 -146 0
v -449 -146 0
v -448 -147 0
v -449 -147 0
v -449 -146 0
v -448 -146 0
v -447 -147 0
v -448 -147 0
v -448 -146 0
v -447 -146 0
v -446 -147 0
v -447 -147 0
v -447 -146 0
v -446 -146 0
v -445 -147 0
v -446 -147 0
v -446 -146 0
v -445 -146 0
v -444 -147 0
v -445 -147 0
v -445 -146 0
v -444 -146 0
v -443 -147 0
v -444 -147 0
v -444 -146 0
v -443 -146 0
v -442 -147 0
v -443 -147 0
v -443 -146 0
v -442 -146 0
v -441 -147 0
v -442 -147 0
v -442 -146 0
v -441 -146 0
v -440 -147 0
v -441 -147 0
v -441 -146 0
v -440 -146 0
v -439 -147 0
v -440 -147 0
v -440 -146 0
v -439 -146 0
v -438 -147 0
v -439 -147 0
v -439 -146 0
v -438 -146 0
v -437 -147 0
v -438 -147 0
v -438 -146 0
v -437 -146 0
v -436 -147 0
v -437 -147 0
v -437 -146 0
v -436 -146 0
v -435 -147 0
v -436 -147 0
v -436 -146 0
v -435 -146 0
v -434 -147 0
v -435 -147 0
v -435 -146 0
v -434 -146 0
v -433 -147 0
v -434 -147 0
v -434 -146 0
v -433 -146 0
v -432 -147 0
v -433 -147 0
v -433 -146 0
v -432 -146 0
v -431 -147 0
v -432 -147 0
v -432 -146 0
v -431 -146 0
v -430 -147 0
v -431 -147 0
v -431 -146 0
v -430 -146 0
v -429 -147 0
v -430 -147 0
v -430 -146 0
v -429 -146 0
v -449 -155 0
v -450 -155 0
v -450 -154 0
v -449 -154 0
v -448 -155 0
v -449 -155 0
v -449 -154 0
v -448 -154 0
v -447 -155 0
v -448 -155 0
v -448 -154 0
v -447 -154 0
v -446 -155 0
v -447 -155 0
v -447 -154 0
v -446 -154 0
v -445 -155 0
v -446 -155 0
v -446 -154 0
v -445 -154 0
v -444 -155 0
v -445 -155 0
v -445 -154 0
v -444 -154 0
v -443 -155 0
v -444 -155 0
v -444 -154 0
v -443 -154 0
v -442 -155 0
v -443 -155 0
v -443 -154 0
v -442 -154 0
v -441 -155 0
v -442 -155 0
v -442 -154 0
v -441 -154 0
v -440 -155 0
v -441 -155 0
v -441 -154 0
v -440 -154 0
v -439 -155 0
v -440 -155 0
v -440 -154 0
v -439 -154 0
v -438 -155 0
v -439 -155 0
v -439 -154 0
v -438 -154 0
v -437 -155 0
v -438 -155 0
v -438 -154 0
v -437 -154 0
v -436 -155 0
v -437 -155 0
v -437 -154 0
v -436 -154 0
v -435 -155 0
v -436 -155 0
v -436 -154 0
v -435 -154 0
v -434 -155 0
v -435 -155 0
v -435 -154 0
v -434 -154 0
v -433 -155 0
v -434 -155 0
v -434 -154 0
v -433 -154 0
v -432 -155 0
v -433 -155 0
v -433 -154 0
v -432 -154 0
v -431 -155 0
v -432 -155 0
v -432 -154 0
v -431 -154 0
v -430 -155 0
v -431 -155 0
v -431 -154 0
v -430 -154 0
v -429 -155 0
v -430 -155 0
v -430 -154 0
v -429 -154 0
v -449 -156 0
v -450 -156 0
v -450 -155 0
v -449 -155 0
v -446 -156 0
v -447 -156 0
v -447 -155 0
v -446 -155 0
v -445 -156 0
v -446 -156 0
v -446 -155 0
v -445 -155 0
v -442 -156 0
v -443 -156 0
v -443 -155 0
v -442 -155 0
v -441 -156 0
v -442 -156 0
v -442 -155 0
v -441 -155 0
v -438 -156 0
v -439 -156 0
v -439 -155 0
v -438 -155 0
v -437 -156 0
v -438 -156 0
v -438 -155 0
v -437 -155 0
v -434 -156 0
v -435 -156 0
v -435 -155 0
v -434 -155 0
v -433 -156 0
v -434 -156 0
v -434 -155 0
v -433 -155 0
v -430 -156 0
v -431 -156 0
v -431 -155 0
v -430 -155 0
v -429 -156 0
v -430 -156 0
v -430 -155 0
v -429 -155 0
v -449 -157 0
v -450 -157 0
v -450 -156 0
v -449 -156 0
v -446 -157 0
v -447 -157 0
v -447 -156 0
v -446 -156 0
v -445 -157 0
v -446 -157 0
v -446 -156 0
v -445 -156 0
v -442 -157 0
v -443 -157 0
v -443 -156 0
v -442 -156 0
v -441 -157 0
v -442 -157 0
v -442 -156 0
v -441 -156 0
v -438 -157 0
v -439 -157 0
v -439 -156 0
v -438 -156 0
v -437 -157 0
v -438 -157 0
v -438 -156 0
v -437 -156 0
v -434 -157 0
v -435 -157 0
v -435 -156 0
v -434 -156 0
v -433 -157 0
v -434 -157 0
v -434 -156 0
v -433 -156 0
v -430 -157 0
v -431 -157 0
v -431 -156 0
v -430 -156 0
v -429 -157 0
v -430 -157 0
v -430 -156 0
v -429 -156 0
v -429 -158 0
v -430 -158 0
v -430 -157 0
v -429 -157 0
v -429 -159 0
v -430 -159 0
v -430 -158 0
v -429 -158 0
v -449 -160 0
v -450 -160 0
v -450 -159 0
v -449 -159 0
v -448 -160 0
v -449 -160 0
v -449 -159 0
v -448 -159 0
v -447 -160 0
v -448 -160 0
v -448 -159 0
v -447 -159 0
v -446 -160 0
v -447 -160 0
v -447 -159 0
v -446 -159 0
v -445 -160 0
v -446 -160 0
v -446 -159 0
v -445 -159 0
v -444 -160 0
v -445 -160 0
v -445 -159 0
v -444 -159 0
v -443 -160 0
v -444 -160 0
v -444 -159 0
v -443 -159 0
v -442 -160 0
v -443 -160 0
v -443 -159 0
v -442 -159 0
v -441 -160 0
v -442 -160 0
v -442 -159 0
v -441 -159 0
v -440 -160 0
v -441 -160 0
v -441 -159 0
v -440 -159 0
v -439 -160 0
v -440 -160 0
v -440 -159 0
v -439 -159 0
v -438 -160 0
v -439 -160 0
v -439 -159 0
v -438 -159 0
v -437 -160 0
v -438 -160 0
v -438 -159 0
v -437 -159 0
v -436 -160 0
v -437 -160 0
v -437 -159 0
v -436 -159 0
v -435 -160 0
v -436 -160 0
v -436 -159 0
v -435 -159 0
v -434 -160 0
v -435 -160 0
v -435 -159 0
v -434 -159 0
v -433 -160 0
v -434 -160 0
v -434 -159 0
v -433 -159 0
v -432 -160 0
v -433 -160 0
v -433 -159 0
v -432 -159 0
v -431 -160 0
v -432 -160 0
v -432 -159 0
v -431 -159 0
v -430 -160 0
v -431 -160 0
v -431 -159 0
v -430 -159 0
v -429 -160 0
v -430 -160 0
v -430 -159 0
v -429 -159 0
v -449 -161 0
v -450 -161 0
v -450 -160 0
v -449 -160 0
v -448 -161 0
v -449 -161 0
v -449 -160 0
v -448 -160 0
v -447 -161 0
v -448 -161 0
v -448 -160 0
v -447 -160 0
v -446 -161 0
v -447 -161 0
v -447 -160 0
v -446 -160 0
v -445 -161 0
v -446 -161 0
v -446 -160 0
v -445 -160 0
v -444 -161 0
v -445 -161 0
v -445 -160 0
v -444 -160 0
v -443 -161 0
v -444 -161 0
v -444 -160 0
v -443 -160 0
v -442 -161 0
v -443 -161 0
v -443 -160 0
v -442 -160 0
v -441 -161 0
v -442 -161 0
v -442 -160 0
v -441 -160 0
v -440 -161 0
v -441 -161 0
v -441 -160 0
v -440 -160 0
v -439 -161 0
v -440 -161 0
v -440 -160 0
v -439 -160 0
v -438 -161 0
v -439 -161 0
v -439 -160 0
v -438 -160 0
v -437 -161 0
v -438 -161 0
v -438 -160 0
v -437 -160 0
v -436 -161 0
v -437 -161 0
v -437 -160 0
v -436 -160 0
v -435 -161 0
v -436 -161 0
v -436 -160 0
v -435 -160 0
v -434 -161 0
v -435 -161 0
v -435 -160 0
v -434 -160 0
v -433 -161 0
v -434 -161 0
v -434 -160 0
v -433 -160 0
v -432 -161 0
v -433 -161 0
v -433 -160 0
v -432 -160 0
v -431 -161 0
v -432 -161 0
v -432 -160 0
v -431 -160 0
v -430 -161 0
v -431 -161 0
v -431 -160 0
v -430 -160 0
v -429 -161 0
v -430 -161 0
v -430 -160 0
v -429 -160 0
v -449 -169 0
v -450 -169 0
v -450 -168 0
v -449 -168 0
v -448 -169 0
v -449 -169 0
v -449 -168 0
v -448 -168 0
v -447 -169 0
v -448 -169 0
v -448 -168 0
v -447 -168 0
v -446 -169 0
v -447 -169 0
v -447 -168 0
v -446 -168 0
v -445 -169 0
v -446 -169 0
v -446 -168 0
v -445 -168 0
v -444 -169 0
v -445 -169 0
v -445 -168 0
v -444 -168 0
v -443 -169 0
v -444 -169 0
v -444 -168 0
v -443 -168 0
v -442 -169 0
v -443 -169 0
v -443 -168 0
v -442 -168 0
v -441 -169 0
v -442 -169 0
v -442 -168 0
v -441 -168 0
v -440 -169 0
v -441 -169 0
v -441 -168 0
v -440 -168 0
v -439 -169 0
v -440 -169 0
v -440 -168 0
v -439 -168 0
v -438 -169 0
v -439 -169 0
v -439 -168 0
v -438 -168 0
v -437 -169 0
v -438 -169 0
v -438 -168 0
v -437 -168 0
v -436 -169 0
v -437 -169 0
v -437 -168 0
v -436 -168 0
v -435 -169 0
v -436 -169 0
v -436 -168 0
v -435 -168 0
v -434 -169 0
v -435 -169 0
v -435 -168 0
v -434 -168 0
v -433 -169 0
v -434 -169 0
v -434 -168 0
v -433 -168 0
v -432 -169 0
v -433 -169 0
v -433 -168 0
v -432 -168 0
v -431 -169 0
v -432 -169 0
v -432 -168 0
v -431 -168 0
v -430 -169 0
v -431 -169 0
v -431 -168 0
v -430 -168 0
v -429 -169 0
v -430 -169 0
v -430 -168 0
v -429 -168 0
v -449 -170 0
v -450 -170 0
v -450 -169 0
v -449 -169 0
v -446 -170 0
v -447 -170 0
v -447 -169 0
v -446 -169 0
v -445 -170 0
v -446 -170 0
v -446 -169 0
v -445 -169 0
v -442 -170 0
v -443 -170 0
v -443 -169 0
v -442 -169 0
v -441 -170 0
v -442 -170 0
v -442 -169 0
v -441 -169 0
v -438 -170 0
v -439 -170 0
v -439 -169 0
v -438 -169 0
v -437 -170 0
v -438 -170 0
v -438 -169 0
v -437 -169 0
v -434 -170 0
v -435 -170 0
v -435 -169 0
v -434 -169 0
v -433 -170 0
v -434 -170 0
v -434 -169 0
v -433 -169 0
v -430 -170 0
v -431 -170 0
v -431 -169 0
v -430 -169 0
v -429 -170 0
v -430 -170 0
v -430 -169 0
v -429 -169 0
v -449 -171 0
v -450 -171 0
v -450 -170 0
v -449 -170 0
v -446 -171 0
v -447 -171 0
v -447 -170 0
v -446 -170 0
v -445 -171 0
v -446 -171 0
v -446 -170 0
v -445 -170 0
v -442 -171 0
v -443 -171 0
v -443 -170 0
v -442 -170 0
v -441 -171 0
v -442 -171 0
v -442 -170 0
v -441 -170 0
v -438 -171 0
v -439 -171 0
v -439 -170 0
v -438 -170 0
v -437 -171 0
v -438 -171 0
v -438 -170 0
v -437 -170 0
v -434 -171 0
v -435 -171 0
v -435 -170 0
v -434 -170 0
v -433 -171 0
v -434 -171 0
v -434 -170 0
v -433 -170 0
v -430 -171 0
v -431 -171 0
v -431 -170 0
v -430 -170 0
v -429 -171 0
v -430 -171 0
v -430 -170 0
v -429 -170 0
v -429 -172 0
v -430 -172 0
v -430 -171 0
v -429 -171 0

# Texture cooridinates (Count = 60)
vt 0.7794613 0.669192
vt 0.8872054 0.669192
vt 0.8872054 0.8308081
vt 0.7794613 0.8308081
vt 0.1127946 0.1691919
vt 0.2205387 0.1691919
vt 0.2205387 0.3308081
vt 0.1127946 0.3308081
vt 0.001683502 0.1691919
vt 0.1094276 0.1691919
vt 0.1094276 0.3308081
vt 0.001683502 0.3308081
vt 0.1127946 0.00252527
vt 0.2205387 0.00252527
vt 0.2205387 0.1641414
vt 0.1127946 0.1641414
vt 0.001683502 0.00252527
vt 0.1094276 0.00252527
vt 0.1094276 0.1641414
vt 0.001683502 0.1641414
vt 0.6683502 0.8358586
vt 0.7760943 0.8358586
vt 0.7760943 0.9974747
vt 0.6683502 0.9974747
vt 0.5572391 0.8358586
vt 0.6649832 0.8358586
vt 0.6649832 0.9974747
vt 0.5572391 0.9974747
vt 0.446128 0.8358586
vt 0.553872 0.8358586
vt 0.553872 0.9974747
vt 0.446128 0.9974747
vt 0.3350168 0.8358586
vt 0.4427609 0.8358586
vt 0.4427609 0.9974747
vt 0.3350168 0.9974747
vt 0.001683502 0.5025252
vt 0.1094276 0.5025252
vt 0.1094276 0.6641414
vt 0.001683502 0.6641414
vt 0.6683502 0.669192
vt 0.7760943 0.669192
vt 0.7760943 0.8308081
vt 0.6683502 0.8308081
vt 0.3350168 0.669192
vt 0.4427609 0.669192
vt 0.4427609 0.8308081
vt 0.3350168 0.8308081
vt 0.6683502 0.5025252
vt 0.7760943 0.5025252
vt 0.7760943 0.6641414
vt 0.6683502 0.6641414
vt 0.3350168 0.5025252
vt 0.4427609 0.5025252
vt 0.4427609 0.6641414
vt 0.3350168 0.6641414
vt 0.001683502 0.3358586
vt 0.1094276 0.3358586
vt 0.1094276 0.4974747
vt 0.001683502 0.4974747

# Normal
vn 0 0 -1

# Mesh description
g NewAstralaWoodsWest_mesh_0052

# Faces
f 1/1/1 2/2/1 3/3/1 4/4/1
f 5/1/1 6/2/1 7/3/1 8/4/1
f 9/1/1 10/2/1 11/3/1 12/4/1
f 13/1/1 14/2/1 15/3/1 16/4/1
f 17/1/1 18/2/1 19/3/1 20/4/1
f 21/1/1 22/2/1 23/3/1 24/4/1
f 25/1/1 26/2/1 27/3/1 28/4/1
f 29/1/1 30/2/1 31/3/1 32/4/1
f 33/1/1 34/2/1 35/3/1 36/4/1
f 37/5/1 38/6/1 39/7/1 40/8/1
f 41/5/1 42/6/1 43/7/1 44/8/1
f 45/5/1 46/6/1 47/7/1 48/8/1
f 49/5/1 50/6/1 51/7/1 52/8/1
f 53/5/1 54/6/1 55/7/1 56/8/1
f 57/5/1 58/6/1 59/7/1 60/8/1
f 61/5/1 62/6/1 63/7/1 64/8/1
f 65/5/1 66/6/1 67/7/1 68/8/1
f 69/5/1 70/6/1 71/7/1 72/8/1
f 73/5/1 74/6/1 75/7/1 76/8/1
f 77/5/1 78/6/1 79/7/1 80/8/1
f 81/5/1 82/6/1 83/7/1 84/8/1
f 85/5/1 86/6/1 87/7/1 88/8/1
f 89/5/1 90/6/1 91/7/1 92/8/1
f 93/5/1 94/6/1 95/7/1 96/8/1
f 97/5/1 98/6/1 99/7/1 100/8/1
f 101/5/1 102/6/1 103/7/1 104/8/1
f 105/5/1 106/6/1 107/7/1 108/8/1
f 109/5/1 110/6/1 111/7/1 112/8/1
f 113/5/1 114/6/1 115/7/1 116/8/1
f 117/9/1 118/10/1 119/11/1 120/12/1
f 121/13/1 122/14/1 123/15/1 124/16/1
f 125/13/1 126/14/1 127/15/1 128/16/1
f 129/13/1 130/14/1 131/15/1 132/16/1
f 133/13/1 134/14/1 135/15/1 136/16/1
f 137/13/1 138/14/1 139/15/1 140/16/1
f 141/13/1 142/14/1 143/15/1 144/16/1
f 145/13/1 146/14/1 147/15/1 148/16/1
f 149/13/1 150/14/1 151/15/1 152/16/1
f 153/13/1 154/14/1 155/15/1 156/16/1
f 157/13/1 158/14/1 159/15/1 160/16/1
f 161/13/1 162/14/1 163/15/1 164/16/1
f 165/13/1 166/14/1 167/15/1 168/16/1
f 169/13/1 170/14/1 171/15/1 172/16/1
f 173/13/1 174/14/1 175/15/1 176/16/1
f 177/13/1 178/14/1 179/15/1 180/16/1
f 181/13/1 182/14/1 183/15/1 184/16/1
f 185/13/1 186/14/1 187/15/1 188/16/1
f 189/13/1 190/14/1 191/15/1 192/16/1
f 193/13/1 194/14/1 195/15/1 196/16/1
f 197/13/1 198/14/1 199/15/1 200/16/1
f 201/17/1 202/18/1 203/19/1 204/20/1
f 205/21/1 206/22/1 207/23/1 208/24/1
f 209/25/1 210/26/1 211/27/1 212/28/1
f 213/29/1 214/30/1 215/31/1 216/32/1
f 217/33/1 218/34/1 219/35/1 220/36/1
f 221/21/1 222/22/1 223/23/1 224/24/1
f 225/25/1 226/26/1 227/27/1 228/28/1
f 229/29/1 230/30/1 231/31/1 232/32/1
f 233/33/1 234/34/1 235/35/1 236/36/1
f 237/21/1 238/22/1 239/23/1 240/24/1
f 241/25/1 242/26/1 243/27/1 244/28/1
f 245/29/1 246/30/1 247/31/1 248/32/1
f 249/33/1 250/34/1 251/35/1 252/36/1
f 253/21/1 254/22/1 255/23/1 256/24/1
f 257/25/1 258/26/1 259/27/1 260/28/1
f 261/29/1 262/30/1 263/31/1 264/32/1
f 265/33/1 266/34/1 267/35/1 268/36/1
f 269/21/1 270/22/1 271/23/1 272/24/1
f 273/25/1 274/26/1 275/27/1 276/28/1
f 277/29/1 278/30/1 279/31/1 280/32/1
f 281/33/1 282/34/1 283/35/1 284/36/1
f 285/37/1 286/38/1 287/39/1 288/40/1
f 289/41/1 290/42/1 291/43/1 292/44/1
f 293/45/1 294/46/1 295/47/1 296/48/1
f 297/41/1 298/42/1 299/43/1 300/44/1
f 301/45/1 302/46/1 303/47/1 304/48/1
f 305/41/1 306/42/1 307/43/1 308/44/1
f 309/45/1 310/46/1 311/47/1 312/48/1
f 313/41/1 314/42/1 315/43/1 316/44/1
f 317/45/1 318/46/1 319/47/1 320/48/1
f 321/41/1 322/42/1 323/43/1 324/44/1
f 325/45/1 326/46/1 327/47/1 328/48/1
f 329/37/1 330/38/1 331/39/1 332/40/1
f 333/49/1 334/50/1 335/51/1 336/52/1
f 337/53/1 338/54/1 339/55/1 340/56/1
f 341/49/1 342/50/1 343/51/1 344/52/1
f 345/53/1 346/54/1 347/55/1 348/56/1
f 349/49/1 350/50/1 351/51/1 352/52/1
f 353/53/1 354/54/1 355/55/1 356/56/1
f 357/49/1 358/50/1 359/51/1 360/52/1
f 361/53/1 362/54/1 363/55/1 364/56/1
f 365/49/1 366/50/1 367/51/1 368/52/1
f 369/53/1 370/54/1 371/55/1 372/56/1
f 373/37/1 374/38/1 375/39/1 376/40/1
f 377/57/1 378/58/1 379/59/1 380/60/1
f 381/1/1 382/2/1 383/3/1 384/4/1
f 385/5/1 386/6/1 387/7/1 388/8/1
f 389/5/1 390/6/1 391/7/1 392/8/1
f 393/5/1 394/6/1 395/7/1 396/8/1
f 397/5/1 398/6/1 399/7/1 400/8/1
f 401/5/1 402/6/1 403/7/1 404/8/1
f 405/5/1 406/6/1 407/7/1 408/8/1
f 409/5/1 410/6/1 411/7/1 412/8/1
f 413/5/1 414/6/1 415/7/1 416/8/1
f 417/5/1 418/6/1 419/7/1 420/8/1
f 421/5/1 422/6/1 423/7/1 424/8/1
f 425/5/1 426/6/1 427/7/1 428/8/1
f 429/5/1 430/6/1 431/7/1 432/8/1
f 433/5/1 434/6/1 435/7/1 436/8/1
f 437/5/1 438/6/1 439/7/1 440/8/1
f 441/5/1 442/6/1 443/7/1 444/8/1
f 445/5/1 446/6/1 447/7/1 448/8/1
f 449/5/1 450/6/1 451/7/1 452/8/1
f 453/5/1 454/6/1 455/7/1 456/8/1
f 457/5/1 458/6/1 459/7/1 460/8/1
f 461/5/1 462/6/1 463/7/1 464/8/1
f 465/9/1 466/10/1 467/11/1 468/12/1
f 469/13/1 470/14/1 471/15/1 472/16/1
f 473/13/1 474/14/1 475/15/1 476/16/1
f 477/13/1 478/14/1 479/15/1 480/16/1
f 481/13/1 482/14/1 483/15/1 484/16/1
f 485/13/1 486/14/1 487/15/1 488/16/1
f 489/13/1 490/14/1 491/15/1 492/16/1
f 493/13/1 494/14/1 495/15/1 496/16/1
f 497/13/1 498/14/1 499/15/1 500/16/1
f 501/13/1 502/14/1 503/15/1 504/16/1
f 505/13/1 506/14/1 507/15/1 508/16/1
f 509/13/1 510/14/1 511/15/1 512/16/1
f 513/13/1 514/14/1 515/15/1 516/16/1
f 517/13/1 518/14/1 519/15/1 520/16/1
f 521/13/1 522/14/1 523/15/1 524/16/1
f 525/13/1 526/14/1 527/15/1 528/16/1
f 529/13/1 530/14/1 531/15/1 532/16/1
f 533/13/1 534/14/1 535/15/1 536/16/1
f 537/13/1 538/14/1 539/15/1 540/16/1
f 541/13/1 542/14/1 543/15/1 544/16/1
f 545/13/1 546/14/1 547/15/1 548/16/1
f 549/17/1 550/18/1 551/19/1 552/20/1
f 553/21/1 554/22/1 555/23/1 556/24/1
f 557/25/1 558/26/1 559/27/1 560/28/1
f 561/29/1 562/30/1 563/31/1 564/32/1
f 565/33/1 566/34/1 567/35/1 568/36/1
f 569/21/1 570/22/1 571/23/1 572/24/1
f 573/25/1 574/26/1 575/27/1 576/28/1
f 577/29/1 578/30/1 579/31/1 580/32/1
f 581/33/1 582/34/1 583/35/1 584/36/1
f 585/21/1 586/22/1 587/23/1 588/24/1
f 589/25/1 590/26/1 591/27/1 592/28/1
f 593/29/1 594/30/1 595/31/1 596/32/1
f 597/33/1 598/34/1 599/35/1 600/36/1
f 601/21/1 602/22/1 603/23/1 604/24/1
f 605/25/1 606/26/1 607/27/1 608/28/1
f 609/29/1 610/30/1 611/31/1 612/32/1
f 613/33/1 614/34/1 615/35/1 616/36/1
f 617/21/1 618/22/1 619/23/1 620/24/1
f 621/25/1 622/26/1 623/27/1 624/28/1
f 625/29/1 626/30/1 627/31/1 628/32/1
f 629/33/1 630/34/1 631/35/1 632/36/1
f 633/37/1 634/38/1 635/39/1 636/40/1
f 637/41/1 638/42/1 639/43/1 640/44/1
f 641/45/1 642/46/1 643/47/1 644/48/1
f 645/41/1 646/42/1 647/43/1 648/44/1
f 649/45/1 650/46/1 651/47/1 652/48/1
f 653/41/1 654/42/1 655/43/1 656/44/1
f 657/45/1 658/46/1 659/47/1 660/48/1
f 661/41/1 662/42/1 663/43/1 664/44/1
f 665/45/1 666/46/1 667/47/1 668/48/1
f 669/41/1 670/42/1 671/43/1 672/44/1
f 673/45/1 674/46/1 675/47/1 676/48/1
f 677/37/1 678/38/1 679/39/1 680/40/1
f 681/49/1 682/50/1 683/51/1 684/52/1
f 685/53/1 686/54/1 687/55/1 688/56/1
f 689/49/1 690/50/1 691/51/1 692/52/1
f 693/53/1 694/54/1 695/55/1 696/56/1
f 697/49/1 698/50/1 699/51/1 700/52/1
f 701/53/1 702/54/1 703/55/1 704/56/1
f 705/49/1 706/50/1 707/51/1 708/52/1
f 709/53/1 710/54/1 711/55/1 712/56/1
f 713/49/1 714/50/1 715/51/1 716/52/1
f 717/53/1 718/54/1 719/55/1 720/56/1
f 721/37/1 722/38/1 723/39/1 724/40/1
f 725/57/1 726/58/1 727/59/1 728/60/1

