# Tiled2Unity generated file. Do not modify by hand.
# Wavefront file for 'ArbitersGuildLobby_mesh_0002.obj'

# Vertices (Count = 776)
v -22 -1 0
v -23 -1 0
v -23 0 0
v -22 0 0
v -21 -1 0
v -22 -1 0
v -22 0 0
v -21 0 0
v -20 -1 0
v -21 -1 0
v -21 0 0
v -20 0 0
v -19 -1 0
v -20 -1 0
v -20 0 0
v -19 0 0
v -22 -2 0
v -23 -2 0
v -23 -1 0
v -22 -1 0
v -21 -2 0
v -22 -2 0
v -22 -1 0
v -21 -1 0
v -20 -2 0
v -21 -2 0
v -21 -1 0
v -20 -1 0
v -19 -2 0
v -20 -2 0
v -20 -1 0
v -19 -1 0
v -22 -3 0
v -23 -3 0
v -23 -2 0
v -22 -2 0
v -21 -3 0
v -22 -3 0
v -22 -2 0
v -21 -2 0
v -20 -3 0
v -21 -3 0
v -21 -2 0
v -20 -2 0
v -19 -3 0
v -20 -3 0
v -20 -2 0
v -19 -2 0
v -22 -4 0
v -23 -4 0
v -23 -3 0
v -22 -3 0
v -21 -4 0
v -22 -4 0
v -22 -3 0
v -21 -3 0
v -20 -4 0
v -21 -4 0
v -21 -3 0
v -20 -3 0
v -19 -4 0
v -20 -4 0
v -20 -3 0
v -19 -3 0
v -22 -5 0
v -23 -5 0
v -23 -4 0
v -22 -4 0
v -21 -5 0
v -22 -5 0
v -22 -4 0
v -21 -4 0
v -20 -5 0
v -21 -5 0
v -21 -4 0
v -20 -4 0
v -19 -5 0
v -20 -5 0
v -20 -4 0
v -19 -4 0
v -22 -6 0
v -23 -6 0
v -23 -5 0
v -22 -5 0
v -21 -6 0
v -22 -6 0
v -22 -5 0
v -21 -5 0
v -20 -6 0
v -21 -6 0
v -21 -5 0
v -20 -5 0
v -19 -6 0
v -20 -6 0
v -20 -5 0
v -19 -5 0
v -22 -7 0
v -23 -7 0
v -23 -6 0
v -22 -6 0
v -21 -7 0
v -22 -7 0
v -22 -6 0
v -21 -6 0
v -20 -7 0
v -21 -7 0
v -21 -6 0
v -20 -6 0
v -19 -7 0
v -20 -7 0
v -20 -6 0
v -19 -6 0
v -22 -8 0
v -23 -8 0
v -23 -7 0
v -22 -7 0
v -21 -8 0
v -22 -8 0
v -22 -7 0
v -21 -7 0
v -20 -8 0
v -21 -8 0
v -21 -7 0
v -20 -7 0
v -19 -8 0
v -20 -8 0
v -20 -7 0
v -19 -7 0
v -22 -9 0
v -23 -9 0
v -23 -8 0
v -22 -8 0
v -21 -9 0
v -22 -9 0
v -22 -8 0
v -21 -8 0
v -20 -9 0
v -21 -9 0
v -21 -8 0
v -20 -8 0
v -19 -9 0
v -20 -9 0
v -20 -8 0
v -19 -8 0
v -22 -10 0
v -23 -10 0
v -23 -9 0
v -22 -9 0
v -21 -10 0
v -22 -10 0
v -22 -9 0
v -21 -9 0
v -20 -10 0
v -21 -10 0
v -21 -9 0
v -20 -9 0
v -19 -10 0
v -20 -10 0
v -20 -9 0
v -19 -9 0
v -22 -11 0
v -23 -11 0
v -23 -10 0
v -22 -10 0
v -21 -11 0
v -22 -11 0
v -22 -10 0
v -21 -10 0
v -20 -11 0
v -21 -11 0
v -21 -10 0
v -20 -10 0
v -19 -11 0
v -20 -11 0
v -20 -10 0
v -19 -10 0
v -22 -12 0
v -23 -12 0
v -23 -11 0
v -22 -11 0
v -21 -12 0
v -22 -12 0
v -22 -11 0
v -21 -11 0
v -20 -12 0
v -21 -12 0
v -21 -11 0
v -20 -11 0
v -19 -12 0
v -20 -12 0
v -20 -11 0
v -19 -11 0
v -22 -13 0
v -23 -13 0
v -23 -12 0
v -22 -12 0
v -21 -13 0
v -22 -13 0
v -22 -12 0
v -21 -12 0
v -20 -13 0
v -21 -13 0
v -21 -12 0
v -20 -12 0
v -19 -13 0
v -20 -13 0
v -20 -12 0
v -19 -12 0
v -22 -14 0
v -23 -14 0
v -23 -13 0
v -22 -13 0
v -21 -14 0
v -22 -14 0
v -22 -13 0
v -21 -13 0
v -20 -14 0
v -21 -14 0
v -21 -13 0
v -20 -13 0
v -19 -14 0
v -20 -14 0
v -20 -13 0
v -19 -13 0
v -22 -15 0
v -23 -15 0
v -23 -14 0
v -22 -14 0
v -21 -15 0
v -22 -15 0
v -22 -14 0
v -21 -14 0
v -20 -15 0
v -21 -15 0
v -21 -14 0
v -20 -14 0
v -19 -15 0
v -20 -15 0
v -20 -14 0
v -19 -14 0
v -22 -16 0
v -23 -16 0
v -23 -15 0
v -22 -15 0
v -21 -16 0
v -22 -16 0
v -22 -15 0
v -21 -15 0
v -20 -16 0
v -21 -16 0
v -21 -15 0
v -20 -15 0
v -19 -16 0
v -20 -16 0
v -20 -15 0
v -19 -15 0
v -22 -17 0
v -23 -17 0
v -23 -16 0
v -22 -16 0
v -21 -17 0
v -22 -17 0
v -22 -16 0
v -21 -16 0
v -20 -17 0
v -21 -17 0
v -21 -16 0
v -20 -16 0
v -19 -17 0
v -20 -17 0
v -20 -16 0
v -19 -16 0
v -22 -18 0
v -23 -18 0
v -23 -17 0
v -22 -17 0
v -21 -18 0
v -22 -18 0
v -22 -17 0
v -21 -17 0
v -20 -18 0
v -21 -18 0
v -21 -17 0
v -20 -17 0
v -19 -18 0
v -20 -18 0
v -20 -17 0
v -19 -17 0
v -41 -19 0
v -42 -19 0
v -42 -18 0
v -41 -18 0
v -40 -19 0
v -41 -19 0
v -41 -18 0
v -40 -18 0
v -39 -19 0
v -40 -19 0
v -40 -18 0
v -39 -18 0
v -38 -19 0
v -39 -19 0
v -39 -18 0
v -38 -18 0
v -37 -19 0
v -38 -19 0
v -38 -18 0
v -37 -18 0
v -36 -19 0
v -37 -19 0
v -37 -18 0
v -36 -18 0
v -35 -19 0
v -36 -19 0
v -36 -18 0
v -35 -18 0
v -34 -19 0
v -35 -19 0
v -35 -18 0
v -34 -18 0
v -33 -19 0
v -34 -19 0
v -34 -18 0
v -33 -18 0
v -32 -19 0
v -33 -19 0
v -33 -18 0
v -32 -18 0
v -31 -19 0
v -32 -19 0
v -32 -18 0
v -31 -18 0
v -30 -19 0
v -31 -19 0
v -31 -18 0
v -30 -18 0
v -29 -19 0
v -30 -19 0
v -30 -18 0
v -29 -18 0
v -28 -19 0
v -29 -19 0
v -29 -18 0
v -28 -18 0
v -27 -19 0
v -28 -19 0
v -28 -18 0
v -27 -18 0
v -22 -19 0
v -23 -19 0
v -23 -18 0
v -22 -18 0
v -21 -19 0
v -22 -19 0
v -22 -18 0
v -21 -18 0
v -20 -19 0
v -21 -19 0
v -21 -18 0
v -20 -18 0
v -19 -19 0
v -20 -19 0
v -20 -18 0
v -19 -18 0
v -14 -19 0
v -15 -19 0
v -15 -18 0
v -14 -18 0
v -13 -19 0
v -14 -19 0
v -14 -18 0
v -13 -18 0
v -12 -19 0
v -13 -19 0
v -13 -18 0
v -12 -18 0
v -11 -19 0
v -12 -19 0
v -12 -18 0
v -11 -18 0
v -10 -19 0
v -11 -19 0
v -11 -18 0
v -10 -18 0
v -9 -19 0
v -10 -19 0
v -10 -18 0
v -9 -18 0
v -8 -19 0
v -9 -19 0
v -9 -18 0
v -8 -18 0
v -7 -19 0
v -8 -19 0
v -8 -18 0
v -7 -18 0
v -6 -19 0
v -7 -19 0
v -7 -18 0
v -6 -18 0
v -5 -19 0
v -6 -19 0
v -6 -18 0
v -5 -18 0
v -4 -19 0
v -5 -19 0
v -5 -18 0
v -4 -18 0
v -3 -19 0
v -4 -19 0
v -4 -18 0
v -3 -18 0
v -2 -19 0
v -3 -19 0
v -3 -18 0
v -2 -18 0
v -1 -19 0
v -2 -19 0
v -2 -18 0
v -1 -18 0
v 0 -19 0
v -1 -19 0
v -1 -18 0
v 0 -18 0
v -34 -20 0
v -35 -20 0
v -35 -19 0
v -34 -19 0
v -33 -20 0
v -34 -20 0
v -34 -19 0
v -33 -19 0
v -32 -20 0
v -33 -20 0
v -33 -19 0
v -32 -19 0
v -31 -20 0
v -32 -20 0
v -32 -19 0
v -31 -19 0
v -30 -20 0
v -31 -20 0
v -31 -19 0
v -30 -19 0
v -29 -20 0
v -30 -20 0
v -30 -19 0
v -29 -19 0
v -28 -20 0
v -29 -20 0
v -29 -19 0
v -28 -19 0
v -27 -20 0
v -28 -20 0
v -28 -19 0
v -27 -19 0
v -22 -20 0
v -23 -20 0
v -23 -19 0
v -22 -19 0
v -21 -20 0
v -22 -20 0
v -22 -19 0
v -21 -19 0
v -20 -20 0
v -21 -20 0
v -21 -19 0
v -20 -19 0
v -19 -20 0
v -20 -20 0
v -20 -19 0
v -19 -19 0
v -14 -20 0
v -15 -20 0
v -15 -19 0
v -14 -19 0
v -13 -20 0
v -14 -20 0
v -14 -19 0
v -13 -19 0
v -12 -20 0
v -13 -20 0
v -13 -19 0
v -12 -19 0
v -11 -20 0
v -12 -20 0
v -12 -19 0
v -11 -19 0
v -10 -20 0
v -11 -20 0
v -11 -19 0
v -10 -19 0
v -9 -20 0
v -10 -20 0
v -10 -19 0
v -9 -19 0
v -8 -20 0
v -9 -20 0
v -9 -19 0
v -8 -19 0
v -7 -20 0
v -8 -20 0
v -8 -19 0
v -7 -19 0
v -33 -21 0
v -34 -21 0
v -34 -20 0
v -33 -20 0
v -32 -21 0
v -33 -21 0
v -33 -20 0
v -32 -20 0
v -31 -21 0
v -32 -21 0
v -32 -20 0
v -31 -20 0
v -30 -21 0
v -31 -21 0
v -31 -20 0
v -30 -20 0
v -29 -21 0
v -30 -21 0
v -30 -20 0
v -29 -20 0
v -28 -21 0
v -29 -21 0
v -29 -20 0
v -28 -20 0
v -27 -21 0
v -28 -21 0
v -28 -20 0
v -27 -20 0
v -22 -21 0
v -23 -21 0
v -23 -20 0
v -22 -20 0
v -21 -21 0
v -22 -21 0
v -22 -20 0
v -21 -20 0
v -20 -21 0
v -21 -21 0
v -21 -20 0
v -20 -20 0
v -19 -21 0
v -20 -21 0
v -20 -20 0
v -19 -20 0
v -14 -21 0
v -15 -21 0
v -15 -20 0
v -14 -20 0
v -13 -21 0
v -14 -21 0
v -14 -20 0
v -13 -20 0
v -12 -21 0
v -13 -21 0
v -13 -20 0
v -12 -20 0
v -11 -21 0
v -12 -21 0
v -12 -20 0
v -11 -20 0
v -10 -21 0
v -11 -21 0
v -11 -20 0
v -10 -20 0
v -9 -21 0
v -10 -21 0
v -10 -20 0
v -9 -20 0
v -8 -21 0
v -9 -21 0
v -9 -20 0
v -8 -20 0
v -33 -22 0
v -34 -22 0
v -34 -21 0
v -33 -21 0
v -32 -22 0
v -33 -22 0
v -33 -21 0
v -32 -21 0
v -31 -22 0
v -32 -22 0
v -32 -21 0
v -31 -21 0
v -30 -22 0
v -31 -22 0
v -31 -21 0
v -30 -21 0
v -29 -22 0
v -30 -22 0
v -30 -21 0
v -29 -21 0
v -28 -22 0
v -29 -22 0
v -29 -21 0
v -28 -21 0
v -27 -22 0
v -28 -22 0
v -28 -21 0
v -27 -21 0
v -22 -22 0
v -23 -22 0
v -23 -21 0
v -22 -21 0
v -21 -22 0
v -22 -22 0
v -22 -21 0
v -21 -21 0
v -20 -22 0
v -21 -22 0
v -21 -21 0
v -20 -21 0
v -19 -22 0
v -20 -22 0
v -20 -21 0
v -19 -21 0
v -14 -22 0
v -15 -22 0
v -15 -21 0
v -14 -21 0
v -13 -22 0
v -14 -22 0
v -14 -21 0
v -13 -21 0
v -12 -22 0
v -13 -22 0
v -13 -21 0
v -12 -21 0
v -11 -22 0
v -12 -22 0
v -12 -21 0
v -11 -21 0
v -10 -22 0
v -11 -22 0
v -11 -21 0
v -10 -21 0
v -9 -22 0
v -10 -22 0
v -10 -21 0
v -9 -21 0
v -8 -22 0
v -9 -22 0
v -9 -21 0
v -8 -21 0
v -22 -23 0
v -23 -23 0
v -23 -22 0
v -22 -22 0
v -21 -23 0
v -22 -23 0
v -22 -22 0
v -21 -22 0
v -20 -23 0
v -21 -23 0
v -21 -22 0
v -20 -22 0
v -19 -23 0
v -20 -23 0
v -20 -22 0
v -19 -22 0
v -22 -24 0
v -23 -24 0
v -23 -23 0
v -22 -23 0
v -21 -24 0
v -22 -24 0
v -22 -23 0
v -21 -23 0
v -20 -24 0
v -21 -24 0
v -21 -23 0
v -20 -23 0
v -19 -24 0
v -20 -24 0
v -20 -23 0
v -19 -23 0
v -22 -25 0
v -23 -25 0
v -23 -24 0
v -22 -24 0
v -21 -25 0
v -22 -25 0
v -22 -24 0
v -21 -24 0
v -20 -25 0
v -21 -25 0
v -21 -24 0
v -20 -24 0
v -19 -25 0
v -20 -25 0
v -20 -24 0
v -19 -24 0
v -22 -26 0
v -23 -26 0
v -23 -25 0
v -22 -25 0
v -21 -26 0
v -22 -26 0
v -22 -25 0
v -21 -25 0
v -20 -26 0
v -21 -26 0
v -21 -25 0
v -20 -25 0
v -19 -26 0
v -20 -26 0
v -20 -25 0
v -19 -25 0
v -22 -27 0
v -23 -27 0
v -23 -26 0
v -22 -26 0
v -21 -27 0
v -22 -27 0
v -22 -26 0
v -21 -26 0
v -20 -27 0
v -21 -27 0
v -21 -26 0
v -20 -26 0
v -19 -27 0
v -20 -27 0
v -20 -26 0
v -19 -26 0
v -22 -28 0
v -23 -28 0
v -23 -27 0
v -22 -27 0
v -21 -28 0
v -22 -28 0
v -22 -27 0
v -21 -27 0
v -20 -28 0
v -21 -28 0
v -21 -27 0
v -20 -27 0
v -19 -28 0
v -20 -28 0
v -20 -27 0
v -19 -27 0
v -22 -29 0
v -23 -29 0
v -23 -28 0
v -22 -28 0
v -21 -29 0
v -22 -29 0
v -22 -28 0
v -21 -28 0
v -20 -29 0
v -21 -29 0
v -21 -28 0
v -20 -28 0
v -19 -29 0
v -20 -29 0
v -20 -28 0
v -19 -28 0
v -22 -30 0
v -23 -30 0
v -23 -29 0
v -22 -29 0
v -21 -30 0
v -22 -30 0
v -22 -29 0
v -21 -29 0
v -20 -30 0
v -21 -30 0
v -21 -29 0
v -20 -29 0
v -19 -30 0
v -20 -30 0
v -20 -29 0
v -19 -29 0

# Texture cooridinates (Count = 12)
vt 0.4924242 0.5037879
vt 0.007575758 0.5037879
vt 0.007575758 0.7462121
vt 0.4924242 0.7462121
vt 0.5075758 0.003787875
vt 0.9924242 0.003787875
vt 0.9924242 0.2462121
vt 0.5075758 0.2462121
vt 0.4924242 0.2537879
vt 0.4924242 0.4962121
vt 0.007575758 0.4962121
vt 0.007575758 0.2537879

# Normal
vn 0 0 -1

# Mesh description
g ArbitersGuildLobby_mesh_0002

# Faces
f 1/1/1 2/2/1 3/3/1 4/4/1
f 5/5/1 6/6/1 7/7/1 8/8/1
f 9/5/1 10/6/1 11/7/1 12/8/1
f 13/2/1 14/1/1 15/4/1 16/3/1
f 17/1/1 18/2/1 19/3/1 20/4/1
f 21/8/1 22/5/1 23/6/1 24/7/1
f 25/5/1 26/6/1 27/7/1 28/8/1
f 29/2/1 30/1/1 31/4/1 32/3/1
f 33/1/1 34/2/1 35/3/1 36/4/1
f 37/8/1 38/5/1 39/6/1 40/7/1
f 41/5/1 42/6/1 43/7/1 44/8/1
f 45/2/1 46/1/1 47/4/1 48/3/1
f 49/1/1 50/2/1 51/3/1 52/4/1
f 53/8/1 54/5/1 55/6/1 56/7/1
f 57/5/1 58/6/1 59/7/1 60/8/1
f 61/2/1 62/1/1 63/4/1 64/3/1
f 65/1/1 66/2/1 67/3/1 68/4/1
f 69/5/1 70/6/1 71/7/1 72/8/1
f 73/5/1 74/6/1 75/7/1 76/8/1
f 77/2/1 78/1/1 79/4/1 80/3/1
f 81/1/1 82/2/1 83/3/1 84/4/1
f 85/5/1 86/6/1 87/7/1 88/8/1
f 89/5/1 90/6/1 91/7/1 92/8/1
f 93/2/1 94/1/1 95/4/1 96/3/1
f 97/1/1 98/2/1 99/3/1 100/4/1
f 101/5/1 102/6/1 103/7/1 104/8/1
f 105/5/1 106/6/1 107/7/1 108/8/1
f 109/2/1 110/1/1 111/4/1 112/3/1
f 113/1/1 114/2/1 115/3/1 116/4/1
f 117/7/1 118/8/1 119/5/1 120/6/1
f 121/7/1 122/8/1 123/5/1 124/6/1
f 125/2/1 126/1/1 127/4/1 128/3/1
f 129/1/1 130/2/1 131/3/1 132/4/1
f 133/7/1 134/8/1 135/5/1 136/6/1
f 137/8/1 138/5/1 139/6/1 140/7/1
f 141/2/1 142/1/1 143/4/1 144/3/1
f 145/1/1 146/2/1 147/3/1 148/4/1
f 149/5/1 150/6/1 151/7/1 152/8/1
f 153/8/1 154/5/1 155/6/1 156/7/1
f 157/2/1 158/1/1 159/4/1 160/3/1
f 161/1/1 162/2/1 163/3/1 164/4/1
f 165/5/1 166/6/1 167/7/1 168/8/1
f 169/5/1 170/6/1 171/7/1 172/8/1
f 173/2/1 174/1/1 175/4/1 176/3/1
f 177/1/1 178/2/1 179/3/1 180/4/1
f 181/5/1 182/6/1 183/7/1 184/8/1
f 185/5/1 186/6/1 187/7/1 188/8/1
f 189/2/1 190/1/1 191/4/1 192/3/1
f 193/1/1 194/2/1 195/3/1 196/4/1
f 197/5/1 198/6/1 199/7/1 200/8/1
f 201/5/1 202/6/1 203/7/1 204/8/1
f 205/2/1 206/1/1 207/4/1 208/3/1
f 209/1/1 210/2/1 211/3/1 212/4/1
f 213/5/1 214/6/1 215/7/1 216/8/1
f 217/5/1 218/6/1 219/7/1 220/8/1
f 221/2/1 222/1/1 223/4/1 224/3/1
f 225/1/1 226/2/1 227/3/1 228/4/1
f 229/7/1 230/8/1 231/5/1 232/6/1
f 233/7/1 234/8/1 235/5/1 236/6/1
f 237/2/1 238/1/1 239/4/1 240/3/1
f 241/1/1 242/2/1 243/3/1 244/4/1
f 245/5/1 246/6/1 247/7/1 248/8/1
f 249/7/1 250/8/1 251/5/1 252/6/1
f 253/2/1 254/1/1 255/4/1 256/3/1
f 257/1/1 258/2/1 259/3/1 260/4/1
f 261/8/1 262/5/1 263/6/1 264/7/1
f 265/7/1 266/8/1 267/5/1 268/6/1
f 269/2/1 270/1/1 271/4/1 272/3/1
f 273/1/1 274/2/1 275/3/1 276/4/1
f 277/8/1 278/5/1 279/6/1 280/7/1
f 281/6/1 282/7/1 283/8/1 284/5/1
f 285/2/1 286/1/1 287/4/1 288/3/1
f 289/1/1 290/4/1 291/3/1 292/2/1
f 293/1/1 294/4/1 295/3/1 296/2/1
f 297/1/1 298/4/1 299/3/1 300/2/1
f 301/1/1 302/4/1 303/3/1 304/2/1
f 305/1/1 306/4/1 307/3/1 308/2/1
f 309/1/1 310/4/1 311/3/1 312/2/1
f 313/1/1 314/4/1 315/3/1 316/2/1
f 317/1/1 318/4/1 319/3/1 320/2/1
f 321/1/1 322/4/1 323/3/1 324/2/1
f 325/1/1 326/4/1 327/3/1 328/2/1
f 329/1/1 330/4/1 331/3/1 332/2/1
f 333/1/1 334/4/1 335/3/1 336/2/1
f 337/1/1 338/4/1 339/3/1 340/2/1
f 341/1/1 342/4/1 343/3/1 344/2/1
f 345/9/1 346/10/1 347/11/1 348/12/1
f 349/1/1 350/2/1 351/3/1 352/4/1
f 353/5/1 354/6/1 355/7/1 356/8/1
f 357/5/1 358/6/1 359/7/1 360/8/1
f 361/2/1 362/1/1 363/4/1 364/3/1
f 365/10/1 366/11/1 367/12/1 368/9/1
f 369/1/1 370/4/1 371/3/1 372/2/1
f 373/1/1 374/4/1 375/3/1 376/2/1
f 377/1/1 378/4/1 379/3/1 380/2/1
f 381/1/1 382/4/1 383/3/1 384/2/1
f 385/1/1 386/4/1 387/3/1 388/2/1
f 389/1/1 390/4/1 391/3/1 392/2/1
f 393/1/1 394/4/1 395/3/1 396/2/1
f 397/1/1 398/4/1 399/3/1 400/2/1
f 401/1/1 402/4/1 403/3/1 404/2/1
f 405/1/1 406/4/1 407/3/1 408/2/1
f 409/1/1 410/4/1 411/3/1 412/2/1
f 413/1/1 414/4/1 415/3/1 416/2/1
f 417/1/1 418/4/1 419/3/1 420/2/1
f 421/1/1 422/4/1 423/3/1 424/2/1
f 425/8/1 426/5/1 427/6/1 428/7/1
f 429/8/1 430/5/1 431/6/1 432/7/1
f 433/7/1 434/8/1 435/5/1 436/6/1
f 437/6/1 438/7/1 439/8/1 440/5/1
f 441/8/1 442/5/1 443/6/1 444/7/1
f 445/8/1 446/5/1 447/6/1 448/7/1
f 449/8/1 450/5/1 451/6/1 452/7/1
f 453/3/1 454/4/1 455/1/1 456/2/1
f 457/1/1 458/2/1 459/3/1 460/4/1
f 461/6/1 462/7/1 463/8/1 464/5/1
f 465/5/1 466/6/1 467/7/1 468/8/1
f 469/2/1 470/1/1 471/4/1 472/3/1
f 473/4/1 474/3/1 475/2/1 476/1/1
f 477/8/1 478/5/1 479/6/1 480/7/1
f 481/8/1 482/5/1 483/6/1 484/7/1
f 485/7/1 486/8/1 487/5/1 488/6/1
f 489/7/1 490/8/1 491/5/1 492/6/1
f 493/6/1 494/7/1 495/8/1 496/5/1
f 497/5/1 498/6/1 499/7/1 500/8/1
f 501/5/1 502/6/1 503/7/1 504/8/1
f 505/6/1 506/7/1 507/8/1 508/5/1
f 509/6/1 510/7/1 511/8/1 512/5/1
f 513/7/1 514/8/1 515/5/1 516/6/1
f 517/7/1 518/8/1 519/5/1 520/6/1
f 521/5/1 522/6/1 523/7/1 524/8/1
f 525/5/1 526/6/1 527/7/1 528/8/1
f 529/3/1 530/4/1 531/1/1 532/2/1
f 533/1/1 534/2/1 535/3/1 536/4/1
f 537/6/1 538/7/1 539/8/1 540/5/1
f 541/5/1 542/6/1 543/7/1 544/8/1
f 545/2/1 546/1/1 547/4/1 548/3/1
f 549/4/1 550/3/1 551/2/1 552/1/1
f 553/8/1 554/5/1 555/6/1 556/7/1
f 557/8/1 558/5/1 559/6/1 560/7/1
f 561/5/1 562/6/1 563/7/1 564/8/1
f 565/5/1 566/6/1 567/7/1 568/8/1
f 569/8/1 570/5/1 571/6/1 572/7/1
f 573/6/1 574/7/1 575/8/1 576/5/1
f 577/2/1 578/3/1 579/4/1 580/1/1
f 581/2/1 582/3/1 583/4/1 584/1/1
f 585/2/1 586/3/1 587/4/1 588/1/1
f 589/2/1 590/3/1 591/4/1 592/1/1
f 593/2/1 594/3/1 595/4/1 596/1/1
f 597/2/1 598/3/1 599/4/1 600/1/1
f 601/12/1 602/9/1 603/10/1 604/11/1
f 605/1/1 606/2/1 607/3/1 608/4/1
f 609/6/1 610/7/1 611/8/1 612/5/1
f 613/7/1 614/8/1 615/5/1 616/6/1
f 617/2/1 618/1/1 619/4/1 620/3/1
f 621/11/1 622/12/1 623/9/1 624/10/1
f 625/3/1 626/2/1 627/1/1 628/4/1
f 629/2/1 630/3/1 631/4/1 632/1/1
f 633/2/1 634/3/1 635/4/1 636/1/1
f 637/2/1 638/3/1 639/4/1 640/1/1
f 641/2/1 642/3/1 643/4/1 644/1/1
f 645/2/1 646/3/1 647/4/1 648/1/1
f 649/1/1 650/2/1 651/3/1 652/4/1
f 653/8/1 654/5/1 655/6/1 656/7/1
f 657/7/1 658/8/1 659/5/1 660/6/1
f 661/2/1 662/1/1 663/4/1 664/3/1
f 665/1/1 666/2/1 667/3/1 668/4/1
f 669/8/1 670/5/1 671/6/1 672/7/1
f 673/7/1 674/8/1 675/5/1 676/6/1
f 677/2/1 678/1/1 679/4/1 680/3/1
f 681/1/1 682/2/1 683/3/1 684/4/1
f 685/5/1 686/6/1 687/7/1 688/8/1
f 689/7/1 690/8/1 691/5/1 692/6/1
f 693/2/1 694/1/1 695/4/1 696/3/1
f 697/1/1 698/2/1 699/3/1 700/4/1
f 701/5/1 702/6/1 703/7/1 704/8/1
f 705/6/1 706/7/1 707/8/1 708/5/1
f 709/2/1 710/1/1 711/4/1 712/3/1
f 713/1/1 714/2/1 715/3/1 716/4/1
f 717/5/1 718/6/1 719/7/1 720/8/1
f 721/6/1 722/7/1 723/8/1 724/5/1
f 725/2/1 726/1/1 727/4/1 728/3/1
f 729/1/1 730/2/1 731/3/1 732/4/1
f 733/7/1 734/8/1 735/5/1 736/6/1
f 737/5/1 738/6/1 739/7/1 740/8/1
f 741/2/1 742/1/1 743/4/1 744/3/1
f 745/1/1 746/2/1 747/3/1 748/4/1
f 749/7/1 750/8/1 751/5/1 752/6/1
f 753/7/1 754/8/1 755/5/1 756/6/1
f 757/2/1 758/1/1 759/4/1 760/3/1
f 761/9/1 762/12/1 763/11/1 764/10/1
f 765/3/1 766/2/1 767/1/1 768/4/1
f 769/3/1 770/2/1 771/1/1 772/4/1
f 773/12/1 774/9/1 775/10/1 776/11/1

