# Tiled2Unity generated file. Do not modify by hand.
# Wavefront file for 'ArbitersGuildLobby_mesh_0004.obj'

# Vertices (Count = 592)
v -32 -13 0
v -33 -13 0
v -33 -12 0
v -32 -12 0
v -31 -13 0
v -32 -13 0
v -32 -12 0
v -31 -12 0
v -30 -13 0
v -31 -13 0
v -31 -12 0
v -30 -12 0
v -29 -13 0
v -30 -13 0
v -30 -12 0
v -29 -12 0
v -28 -13 0
v -29 -13 0
v -29 -12 0
v -28 -12 0
v -27 -13 0
v -28 -13 0
v -28 -12 0
v -27 -12 0
v -26 -13 0
v -27 -13 0
v -27 -12 0
v -26 -12 0
v -23 -13 0
v -24 -13 0
v -24 -12 0
v -23 -12 0
v -18 -13 0
v -19 -13 0
v -19 -12 0
v -18 -12 0
v -15 -13 0
v -16 -13 0
v -16 -12 0
v -15 -12 0
v -14 -13 0
v -15 -13 0
v -15 -12 0
v -14 -12 0
v -13 -13 0
v -14 -13 0
v -14 -12 0
v -13 -12 0
v -12 -13 0
v -13 -13 0
v -13 -12 0
v -12 -12 0
v -11 -13 0
v -12 -13 0
v -12 -12 0
v -11 -12 0
v -10 -13 0
v -11 -13 0
v -11 -12 0
v -10 -12 0
v -9 -13 0
v -10 -13 0
v -10 -12 0
v -9 -12 0
v -33 -14 0
v -34 -14 0
v -34 -13 0
v -33 -13 0
v -32 -14 0
v -33 -14 0
v -33 -13 0
v -32 -13 0
v -31 -14 0
v -32 -14 0
v -32 -13 0
v -31 -13 0
v -30 -14 0
v -31 -14 0
v -31 -13 0
v -30 -13 0
v -29 -14 0
v -30 -14 0
v -30 -13 0
v -29 -13 0
v -28 -14 0
v -29 -14 0
v -29 -13 0
v -28 -13 0
v -27 -14 0
v -28 -14 0
v -28 -13 0
v -27 -13 0
v -26 -14 0
v -27 -14 0
v -27 -13 0
v -26 -13 0
v -25 -14 0
v -26 -14 0
v -26 -13 0
v -25 -13 0
v -24 -14 0
v -25 -14 0
v -25 -13 0
v -24 -13 0
v -23 -14 0
v -24 -14 0
v -24 -13 0
v -23 -13 0
v -18 -14 0
v -19 -14 0
v -19 -13 0
v -18 -13 0
v -17 -14 0
v -18 -14 0
v -18 -13 0
v -17 -13 0
v -16 -14 0
v -17 -14 0
v -17 -13 0
v -16 -13 0
v -15 -14 0
v -16 -14 0
v -16 -13 0
v -15 -13 0
v -14 -14 0
v -15 -14 0
v -15 -13 0
v -14 -13 0
v -13 -14 0
v -14 -14 0
v -14 -13 0
v -13 -13 0
v -12 -14 0
v -13 -14 0
v -13 -13 0
v -12 -13 0
v -11 -14 0
v -12 -14 0
v -12 -13 0
v -11 -13 0
v -10 -14 0
v -11 -14 0
v -11 -13 0
v -10 -13 0
v -9 -14 0
v -10 -14 0
v -10 -13 0
v -9 -13 0
v -8 -14 0
v -9 -14 0
v -9 -13 0
v -8 -13 0
v -34 -15 0
v -35 -15 0
v -35 -14 0
v -34 -14 0
v -33 -15 0
v -34 -15 0
v -34 -14 0
v -33 -14 0
v -32 -15 0
v -33 -15 0
v -33 -14 0
v -32 -14 0
v -31 -15 0
v -32 -15 0
v -32 -14 0
v -31 -14 0
v -30 -15 0
v -31 -15 0
v -31 -14 0
v -30 -14 0
v -29 -15 0
v -30 -15 0
v -30 -14 0
v -29 -14 0
v -28 -15 0
v -29 -15 0
v -29 -14 0
v -28 -14 0
v -27 -15 0
v -28 -15 0
v -28 -14 0
v -27 -14 0
v -26 -15 0
v -27 -15 0
v -27 -14 0
v -26 -14 0
v -25 -15 0
v -26 -15 0
v -26 -14 0
v -25 -14 0
v -24 -15 0
v -25 -15 0
v -25 -14 0
v -24 -14 0
v -23 -15 0
v -24 -15 0
v -24 -14 0
v -23 -14 0
v -18 -15 0
v -19 -15 0
v -19 -14 0
v -18 -14 0
v -17 -15 0
v -18 -15 0
v -18 -14 0
v -17 -14 0
v -16 -15 0
v -17 -15 0
v -17 -14 0
v -16 -14 0
v -15 -15 0
v -16 -15 0
v -16 -14 0
v -15 -14 0
v -14 -15 0
v -15 -15 0
v -15 -14 0
v -14 -14 0
v -13 -15 0
v -14 -15 0
v -14 -14 0
v -13 -14 0
v -12 -15 0
v -13 -15 0
v -13 -14 0
v -12 -14 0
v -11 -15 0
v -12 -15 0
v -12 -14 0
v -11 -14 0
v -10 -15 0
v -11 -15 0
v -11 -14 0
v -10 -14 0
v -9 -15 0
v -10 -15 0
v -10 -14 0
v -9 -14 0
v -8 -15 0
v -9 -15 0
v -9 -14 0
v -8 -14 0
v -7 -15 0
v -8 -15 0
v -8 -14 0
v -7 -14 0
v -41 -16 0
v -42 -16 0
v -42 -15 0
v -41 -15 0
v -40 -16 0
v -41 -16 0
v -41 -15 0
v -40 -15 0
v -39 -16 0
v -40 -16 0
v -40 -15 0
v -39 -15 0
v -38 -16 0
v -39 -16 0
v -39 -15 0
v -38 -15 0
v -37 -16 0
v -38 -16 0
v -38 -15 0
v -37 -15 0
v -36 -16 0
v -37 -16 0
v -37 -15 0
v -36 -15 0
v -35 -16 0
v -36 -16 0
v -36 -15 0
v -35 -15 0
v -34 -16 0
v -35 -16 0
v -35 -15 0
v -34 -15 0
v -33 -16 0
v -34 -16 0
v -34 -15 0
v -33 -15 0
v -32 -16 0
v -33 -16 0
v -33 -15 0
v -32 -15 0
v -26 -16 0
v -27 -16 0
v -27 -15 0
v -26 -15 0
v -25 -16 0
v -26 -16 0
v -26 -15 0
v -25 -15 0
v -24 -16 0
v -25 -16 0
v -25 -15 0
v -24 -15 0
v -23 -16 0
v -24 -16 0
v -24 -15 0
v -23 -15 0
v -18 -16 0
v -19 -16 0
v -19 -15 0
v -18 -15 0
v -17 -16 0
v -18 -16 0
v -18 -15 0
v -17 -15 0
v -16 -16 0
v -17 -16 0
v -17 -15 0
v -16 -15 0
v -15 -16 0
v -16 -16 0
v -16 -15 0
v -15 -15 0
v -9 -16 0
v -10 -16 0
v -10 -15 0
v -9 -15 0
v -8 -16 0
v -9 -16 0
v -9 -15 0
v -8 -15 0
v -7 -16 0
v -8 -16 0
v -8 -15 0
v -7 -15 0
v -6 -16 0
v -7 -16 0
v -7 -15 0
v -6 -15 0
v -5 -16 0
v -6 -16 0
v -6 -15 0
v -5 -15 0
v -4 -16 0
v -5 -16 0
v -5 -15 0
v -4 -15 0
v -3 -16 0
v -4 -16 0
v -4 -15 0
v -3 -15 0
v -2 -16 0
v -3 -16 0
v -3 -15 0
v -2 -15 0
v -1 -16 0
v -2 -16 0
v -2 -15 0
v -1 -15 0
v 0 -16 0
v -1 -16 0
v -1 -15 0
v 0 -15 0
v -41 -17 0
v -42 -17 0
v -42 -16 0
v -41 -16 0
v -40 -17 0
v -41 -17 0
v -41 -16 0
v -40 -16 0
v -39 -17 0
v -40 -17 0
v -40 -16 0
v -39 -16 0
v -38 -17 0
v -39 -17 0
v -39 -16 0
v -38 -16 0
v -37 -17 0
v -38 -17 0
v -38 -16 0
v -37 -16 0
v -36 -17 0
v -37 -17 0
v -37 -16 0
v -36 -16 0
v -35 -17 0
v -36 -17 0
v -36 -16 0
v -35 -16 0
v -34 -17 0
v -35 -17 0
v -35 -16 0
v -34 -16 0
v -33 -17 0
v -34 -17 0
v -34 -16 0
v -33 -16 0
v -8 -17 0
v -9 -17 0
v -9 -16 0
v -8 -16 0
v -7 -17 0
v -8 -17 0
v -8 -16 0
v -7 -16 0
v -6 -17 0
v -7 -17 0
v -7 -16 0
v -6 -16 0
v -5 -17 0
v -6 -17 0
v -6 -16 0
v -5 -16 0
v -4 -17 0
v -5 -17 0
v -5 -16 0
v -4 -16 0
v -3 -17 0
v -4 -17 0
v -4 -16 0
v -3 -16 0
v -2 -17 0
v -3 -17 0
v -3 -16 0
v -2 -16 0
v -1 -17 0
v -2 -17 0
v -2 -16 0
v -1 -16 0
v 0 -17 0
v -1 -17 0
v -1 -16 0
v 0 -16 0
v -41 -18 0
v -42 -18 0
v -42 -17 0
v -41 -17 0
v -40 -18 0
v -41 -18 0
v -41 -17 0
v -40 -17 0
v -39 -18 0
v -40 -18 0
v -40 -17 0
v -39 -17 0
v -38 -18 0
v -39 -18 0
v -39 -17 0
v -38 -17 0
v -37 -18 0
v -38 -18 0
v -38 -17 0
v -37 -17 0
v -36 -18 0
v -37 -18 0
v -37 -17 0
v -36 -17 0
v -35 -18 0
v -36 -18 0
v -36 -17 0
v -35 -17 0
v -34 -18 0
v -35 -18 0
v -35 -17 0
v -34 -17 0
v -7 -18 0
v -8 -18 0
v -8 -17 0
v -7 -17 0
v -6 -18 0
v -7 -18 0
v -7 -17 0
v -6 -17 0
v -5 -18 0
v -6 -18 0
v -6 -17 0
v -5 -17 0
v -4 -18 0
v -5 -18 0
v -5 -17 0
v -4 -17 0
v -3 -18 0
v -4 -18 0
v -4 -17 0
v -3 -17 0
v -2 -18 0
v -3 -18 0
v -3 -17 0
v -2 -17 0
v -1 -18 0
v -2 -18 0
v -2 -17 0
v -1 -17 0
v 0 -18 0
v -1 -18 0
v -1 -17 0
v 0 -17 0
v -34 -25 0
v -35 -25 0
v -35 -24 0
v -34 -24 0
v -7 -25 0
v -8 -25 0
v -8 -24 0
v -7 -24 0
v -35 -26 0
v -36 -26 0
v -36 -25 0
v -35 -25 0
v -34 -26 0
v -35 -26 0
v -35 -25 0
v -34 -25 0
v -7 -26 0
v -8 -26 0
v -8 -25 0
v -7 -25 0
v -6 -26 0
v -7 -26 0
v -7 -25 0
v -6 -25 0
v -36 -27 0
v -37 -27 0
v -37 -26 0
v -36 -26 0
v -35 -27 0
v -36 -27 0
v -36 -26 0
v -35 -26 0
v -34 -27 0
v -35 -27 0
v -35 -26 0
v -34 -26 0
v -7 -27 0
v -8 -27 0
v -8 -26 0
v -7 -26 0
v -6 -27 0
v -7 -27 0
v -7 -26 0
v -6 -26 0
v -5 -27 0
v -6 -27 0
v -6 -26 0
v -5 -26 0
v -36 -28 0
v -37 -28 0
v -37 -27 0
v -36 -27 0
v -35 -28 0
v -36 -28 0
v -36 -27 0
v -35 -27 0
v -34 -28 0
v -35 -28 0
v -35 -27 0
v -34 -27 0
v -7 -28 0
v -8 -28 0
v -8 -27 0
v -7 -27 0
v -6 -28 0
v -7 -28 0
v -7 -27 0
v -6 -27 0
v -5 -28 0
v -6 -28 0
v -6 -27 0
v -5 -27 0
v -36 -29 0
v -37 -29 0
v -37 -28 0
v -36 -28 0
v -35 -29 0
v -36 -29 0
v -36 -28 0
v -35 -28 0
v -6 -29 0
v -7 -29 0
v -7 -28 0
v -6 -28 0
v -5 -29 0
v -6 -29 0
v -6 -28 0
v -5 -28 0
v -36 -30 0
v -37 -30 0
v -37 -29 0
v -36 -29 0
v -5 -30 0
v -6 -30 0
v -6 -29 0
v -5 -29 0

# Texture cooridinates (Count = 52)
vt 0.3308081 0.8030303
vt 0.1691919 0.8030303
vt 0.1691919 0.9969697
vt 0.3308081 0.9969697
vt 0.6691919 0.8030303
vt 0.8308081 0.8030303
vt 0.8308081 0.9969697
vt 0.6691919 0.9969697
vt 0.5025253 0.8030303
vt 0.6641414 0.8030303
vt 0.6641414 0.9969697
vt 0.5025253 0.9969697
vt 0.4974748 0.8030303
vt 0.3358586 0.8030303
vt 0.3358586 0.9969697
vt 0.4974748 0.9969697
vt 0.3308081 0.6030303
vt 0.1691919 0.6030303
vt 0.1691919 0.7969697
vt 0.3308081 0.7969697
vt 0.4974748 0.6030303
vt 0.3358586 0.6030303
vt 0.3358586 0.7969697
vt 0.4974748 0.7969697
vt 0.6691919 0.6030303
vt 0.8308081 0.6030303
vt 0.8308081 0.7969697
vt 0.6691919 0.7969697
vt 0.5025253 0.6030303
vt 0.6641414 0.6030303
vt 0.6641414 0.7969697
vt 0.5025253 0.7969697
vt 0.3308081 0.4030303
vt 0.1691919 0.4030303
vt 0.1691919 0.5969697
vt 0.3308081 0.5969697
vt 0.4974748 0.4030303
vt 0.3358586 0.4030303
vt 0.3358586 0.5969697
vt 0.4974748 0.5969697
vt 0.8358586 0.8030303
vt 0.9974747 0.8030303
vt 0.9974747 0.9969697
vt 0.8358586 0.9969697
vt 0.1641414 0.6030303
vt 0.002525253 0.6030303
vt 0.002525253 0.7969697
vt 0.1641414 0.7969697
vt 0.1641414 0.4030303
vt 0.002525253 0.4030303
vt 0.002525253 0.5969697
vt 0.1641414 0.5969697

# Normal
vn 0 0 -1

# Mesh description
g ArbitersGuildLobby_mesh_0004

# Faces
f 1/1/1 2/2/1 3/3/1 4/4/1
f 5/5/1 6/6/1 7/7/1 8/8/1
f 9/9/1 10/10/1 11/11/1 12/12/1
f 13/9/1 14/10/1 15/11/1 16/12/1
f 17/9/1 18/10/1 19/11/1 20/12/1
f 21/6/1 22/5/1 23/8/1 24/7/1
f 25/2/1 26/1/1 27/4/1 28/3/1
f 29/1/1 30/2/1 31/3/1 32/4/1
f 33/2/1 34/1/1 35/4/1 36/3/1
f 37/1/1 38/2/1 39/3/1 40/4/1
f 41/5/1 42/6/1 43/7/1 44/8/1
f 45/9/1 46/10/1 47/11/1 48/12/1
f 49/9/1 50/10/1 51/11/1 52/12/1
f 53/9/1 54/10/1 55/11/1 56/12/1
f 57/6/1 58/5/1 59/8/1 60/7/1
f 61/2/1 62/1/1 63/4/1 64/3/1
f 65/13/1 66/14/1 67/15/1 68/16/1
f 69/17/1 70/18/1 71/19/1 72/20/1
f 73/5/1 74/6/1 75/7/1 76/8/1
f 77/9/1 78/10/1 79/11/1 80/12/1
f 81/9/1 82/10/1 83/11/1 84/12/1
f 85/9/1 86/10/1 87/11/1 88/12/1
f 89/6/1 90/5/1 91/8/1 92/7/1
f 93/18/1 94/17/1 95/20/1 96/19/1
f 97/9/1 98/10/1 99/11/1 100/12/1
f 101/9/1 102/10/1 103/11/1 104/12/1
f 105/21/1 106/22/1 107/23/1 108/24/1
f 109/22/1 110/21/1 111/24/1 112/23/1
f 113/9/1 114/10/1 115/11/1 116/12/1
f 117/9/1 118/10/1 119/11/1 120/12/1
f 121/17/1 122/18/1 123/19/1 124/20/1
f 125/5/1 126/6/1 127/7/1 128/8/1
f 129/9/1 130/10/1 131/11/1 132/12/1
f 133/9/1 134/10/1 135/11/1 136/12/1
f 137/9/1 138/10/1 139/11/1 140/12/1
f 141/6/1 142/5/1 143/8/1 144/7/1
f 145/18/1 146/17/1 147/20/1 148/19/1
f 149/14/1 150/13/1 151/16/1 152/15/1
f 153/13/1 154/14/1 155/15/1 156/16/1
f 157/21/1 158/22/1 159/23/1 160/24/1
f 161/17/1 162/18/1 163/19/1 164/20/1
f 165/25/1 166/26/1 167/27/1 168/28/1
f 169/29/1 170/30/1 171/31/1 172/32/1
f 173/29/1 174/30/1 175/31/1 176/32/1
f 177/29/1 178/30/1 179/31/1 180/32/1
f 181/26/1 182/25/1 183/28/1 184/27/1
f 185/18/1 186/17/1 187/20/1 188/19/1
f 189/9/1 190/10/1 191/11/1 192/12/1
f 193/9/1 194/10/1 195/11/1 196/12/1
f 197/21/1 198/22/1 199/23/1 200/24/1
f 201/22/1 202/21/1 203/24/1 204/23/1
f 205/9/1 206/10/1 207/11/1 208/12/1
f 209/9/1 210/10/1 211/11/1 212/12/1
f 213/17/1 214/18/1 215/19/1 216/20/1
f 217/25/1 218/26/1 219/27/1 220/28/1
f 221/29/1 222/30/1 223/31/1 224/32/1
f 225/29/1 226/30/1 227/31/1 228/32/1
f 229/29/1 230/30/1 231/31/1 232/32/1
f 233/26/1 234/25/1 235/28/1 236/27/1
f 237/18/1 238/17/1 239/20/1 240/19/1
f 241/22/1 242/21/1 243/24/1 244/23/1
f 245/14/1 246/13/1 247/16/1 248/15/1
f 249/9/1 250/10/1 251/11/1 252/12/1
f 253/9/1 254/10/1 255/11/1 256/12/1
f 257/9/1 258/10/1 259/11/1 260/12/1
f 261/9/1 262/10/1 263/11/1 264/12/1
f 265/9/1 266/10/1 267/11/1 268/12/1
f 269/9/1 270/10/1 271/11/1 272/12/1
f 273/9/1 274/10/1 275/11/1 276/12/1
f 277/21/1 278/22/1 279/23/1 280/24/1
f 281/21/1 282/22/1 283/23/1 284/24/1
f 285/33/1 286/34/1 287/35/1 288/36/1
f 289/34/1 290/33/1 291/36/1 292/35/1
f 293/29/1 294/30/1 295/31/1 296/32/1
f 297/29/1 298/30/1 299/31/1 300/32/1
f 301/37/1 302/38/1 303/39/1 304/40/1
f 305/38/1 306/37/1 307/40/1 308/39/1
f 309/29/1 310/30/1 311/31/1 312/32/1
f 313/29/1 314/30/1 315/31/1 316/32/1
f 317/33/1 318/34/1 319/35/1 320/36/1
f 321/34/1 322/33/1 323/36/1 324/35/1
f 325/22/1 326/21/1 327/24/1 328/23/1
f 329/22/1 330/21/1 331/24/1 332/23/1
f 333/9/1 334/10/1 335/11/1 336/12/1
f 337/9/1 338/10/1 339/11/1 340/12/1
f 341/9/1 342/10/1 343/11/1 344/12/1
f 345/9/1 346/10/1 347/11/1 348/12/1
f 349/9/1 350/10/1 351/11/1 352/12/1
f 353/9/1 354/10/1 355/11/1 356/12/1
f 357/9/1 358/10/1 359/11/1 360/12/1
f 361/41/1 362/42/1 363/43/1 364/44/1
f 365/9/1 366/10/1 367/11/1 368/12/1
f 369/9/1 370/10/1 371/11/1 372/12/1
f 373/9/1 374/10/1 375/11/1 376/12/1
f 377/41/1 378/42/1 379/43/1 380/44/1
f 381/9/1 382/10/1 383/11/1 384/12/1
f 385/9/1 386/10/1 387/11/1 388/12/1
f 389/21/1 390/22/1 391/23/1 392/24/1
f 393/37/1 394/38/1 395/39/1 396/40/1
f 397/38/1 398/37/1 399/40/1 400/39/1
f 401/22/1 402/21/1 403/24/1 404/23/1
f 405/9/1 406/10/1 407/11/1 408/12/1
f 409/9/1 410/10/1 411/11/1 412/12/1
f 413/41/1 414/42/1 415/43/1 416/44/1
f 417/9/1 418/10/1 419/11/1 420/12/1
f 421/9/1 422/10/1 423/11/1 424/12/1
f 425/9/1 426/10/1 427/11/1 428/12/1
f 429/41/1 430/42/1 431/43/1 432/44/1
f 433/29/1 434/30/1 435/31/1 436/32/1
f 437/29/1 438/30/1 439/31/1 440/32/1
f 441/29/1 442/30/1 443/31/1 444/32/1
f 445/29/1 446/30/1 447/31/1 448/32/1
f 449/29/1 450/30/1 451/31/1 452/32/1
f 453/29/1 454/30/1 455/31/1 456/32/1
f 457/29/1 458/30/1 459/31/1 460/32/1
f 461/37/1 462/38/1 463/39/1 464/40/1
f 465/38/1 466/37/1 467/40/1 468/39/1
f 469/29/1 470/30/1 471/31/1 472/32/1
f 473/29/1 474/30/1 475/31/1 476/32/1
f 477/29/1 478/30/1 479/31/1 480/32/1
f 481/29/1 482/30/1 483/31/1 484/32/1
f 485/29/1 486/30/1 487/31/1 488/32/1
f 489/29/1 490/30/1 491/31/1 492/32/1
f 493/29/1 494/30/1 495/31/1 496/32/1
f 497/13/1 498/14/1 499/15/1 500/16/1
f 501/14/1 502/13/1 503/16/1 504/15/1
f 505/13/1 506/14/1 507/15/1 508/16/1
f 509/21/1 510/22/1 511/23/1 512/24/1
f 513/22/1 514/21/1 515/24/1 516/23/1
f 517/14/1 518/13/1 519/16/1 520/15/1
f 521/13/1 522/14/1 523/15/1 524/16/1
f 525/21/1 526/22/1 527/23/1 528/24/1
f 529/21/1 530/22/1 531/23/1 532/24/1
f 533/22/1 534/21/1 535/24/1 536/23/1
f 537/22/1 538/21/1 539/24/1 540/23/1
f 541/14/1 542/13/1 543/16/1 544/15/1
f 545/45/1 546/46/1 547/47/1 548/48/1
f 549/21/1 550/22/1 551/23/1 552/24/1
f 553/37/1 554/38/1 555/39/1 556/40/1
f 557/38/1 558/37/1 559/40/1 560/39/1
f 561/22/1 562/21/1 563/24/1 564/23/1
f 565/46/1 566/45/1 567/48/1 568/47/1
f 569/45/1 570/46/1 571/47/1 572/48/1
f 573/37/1 574/38/1 575/39/1 576/40/1
f 577/38/1 578/37/1 579/40/1 580/39/1
f 581/46/1 582/45/1 583/48/1 584/47/1
f 585/49/1 586/50/1 587/51/1 588/52/1
f 589/50/1 590/49/1 591/52/1 592/51/1

