# Tiled2Unity generated file. Do not modify by hand.
# Wavefront file for 'ArbitersGuildLobby_mesh_0005.obj'

# Vertices (Count = 744)
v -23 -1 0
v -24 -1 0
v -24 0 0
v -23 0 0
v -22 -1 0
v -23 -1 0
v -23 0 0
v -22 0 0
v -21 -1 0
v -22 -1 0
v -22 0 0
v -21 0 0
v -20 -1 0
v -21 -1 0
v -21 0 0
v -20 0 0
v -19 -1 0
v -20 -1 0
v -20 0 0
v -19 0 0
v -18 -1 0
v -19 -1 0
v -19 0 0
v -18 0 0
v -23 -2 0
v -24 -2 0
v -24 -1 0
v -23 -1 0
v -18 -2 0
v -19 -2 0
v -19 -1 0
v -18 -1 0
v -23 -3 0
v -24 -3 0
v -24 -2 0
v -23 -2 0
v -18 -3 0
v -19 -3 0
v -19 -2 0
v -18 -2 0
v -23 -4 0
v -24 -4 0
v -24 -3 0
v -23 -3 0
v -18 -4 0
v -19 -4 0
v -19 -3 0
v -18 -3 0
v -23 -5 0
v -24 -5 0
v -24 -4 0
v -23 -4 0
v -18 -5 0
v -19 -5 0
v -19 -4 0
v -18 -4 0
v -23 -6 0
v -24 -6 0
v -24 -5 0
v -23 -5 0
v -22 -6 0
v -23 -6 0
v -23 -5 0
v -22 -5 0
v -21 -6 0
v -22 -6 0
v -22 -5 0
v -21 -5 0
v -20 -6 0
v -21 -6 0
v -21 -5 0
v -20 -5 0
v -19 -6 0
v -20 -6 0
v -20 -5 0
v -19 -5 0
v -18 -6 0
v -19 -6 0
v -19 -5 0
v -18 -5 0
v -23 -7 0
v -24 -7 0
v -24 -6 0
v -23 -6 0
v -22 -7 0
v -23 -7 0
v -23 -6 0
v -22 -6 0
v -21 -7 0
v -22 -7 0
v -22 -6 0
v -21 -6 0
v -20 -7 0
v -21 -7 0
v -21 -6 0
v -20 -6 0
v -19 -7 0
v -20 -7 0
v -20 -6 0
v -19 -6 0
v -18 -7 0
v -19 -7 0
v -19 -6 0
v -18 -6 0
v -23 -8 0
v -24 -8 0
v -24 -7 0
v -23 -7 0
v -18 -8 0
v -19 -8 0
v -19 -7 0
v -18 -7 0
v -23 -9 0
v -24 -9 0
v -24 -8 0
v -23 -8 0
v -18 -9 0
v -19 -9 0
v -19 -8 0
v -18 -8 0
v -23 -10 0
v -24 -10 0
v -24 -9 0
v -23 -9 0
v -18 -10 0
v -19 -10 0
v -19 -9 0
v -18 -9 0
v -23 -11 0
v -24 -11 0
v -24 -10 0
v -23 -10 0
v -18 -11 0
v -19 -11 0
v -19 -10 0
v -18 -10 0
v -32 -12 0
v -33 -12 0
v -33 -11 0
v -32 -11 0
v -31 -12 0
v -32 -12 0
v -32 -11 0
v -31 -11 0
v -30 -12 0
v -31 -12 0
v -31 -11 0
v -30 -11 0
v -29 -12 0
v -30 -12 0
v -30 -11 0
v -29 -11 0
v -28 -12 0
v -29 -12 0
v -29 -11 0
v -28 -11 0
v -27 -12 0
v -28 -12 0
v -28 -11 0
v -27 -11 0
v -26 -12 0
v -27 -12 0
v -27 -11 0
v -26 -11 0
v -23 -12 0
v -24 -12 0
v -24 -11 0
v -23 -11 0
v -22 -12 0
v -23 -12 0
v -23 -11 0
v -22 -11 0
v -21 -12 0
v -22 -12 0
v -22 -11 0
v -21 -11 0
v -20 -12 0
v -21 -12 0
v -21 -11 0
v -20 -11 0
v -19 -12 0
v -20 -12 0
v -20 -11 0
v -19 -11 0
v -18 -12 0
v -19 -12 0
v -19 -11 0
v -18 -11 0
v -15 -12 0
v -16 -12 0
v -16 -11 0
v -15 -11 0
v -14 -12 0
v -15 -12 0
v -15 -11 0
v -14 -11 0
v -13 -12 0
v -14 -12 0
v -14 -11 0
v -13 -11 0
v -12 -12 0
v -13 -12 0
v -13 -11 0
v -12 -11 0
v -11 -12 0
v -12 -12 0
v -12 -11 0
v -11 -11 0
v -10 -12 0
v -11 -12 0
v -11 -11 0
v -10 -11 0
v -9 -12 0
v -10 -12 0
v -10 -11 0
v -9 -11 0
v -33 -13 0
v -34 -13 0
v -34 -12 0
v -33 -12 0
v -32 -13 0
v -33 -13 0
v -33 -12 0
v -32 -12 0
v -26 -13 0
v -27 -13 0
v -27 -12 0
v -26 -12 0
v -25 -13 0
v -26 -13 0
v -26 -12 0
v -25 -12 0
v -24 -13 0
v -25 -13 0
v -25 -12 0
v -24 -12 0
v -23 -13 0
v -24 -13 0
v -24 -12 0
v -23 -12 0
v -22 -13 0
v -23 -13 0
v -23 -12 0
v -22 -12 0
v -21 -13 0
v -22 -13 0
v -22 -12 0
v -21 -12 0
v -20 -13 0
v -21 -13 0
v -21 -12 0
v -20 -12 0
v -19 -13 0
v -20 -13 0
v -20 -12 0
v -19 -12 0
v -18 -13 0
v -19 -13 0
v -19 -12 0
v -18 -12 0
v -17 -13 0
v -18 -13 0
v -18 -12 0
v -17 -12 0
v -16 -13 0
v -17 -13 0
v -17 -12 0
v -16 -12 0
v -15 -13 0
v -16 -13 0
v -16 -12 0
v -15 -12 0
v -9 -13 0
v -10 -13 0
v -10 -12 0
v -9 -12 0
v -8 -13 0
v -9 -13 0
v -9 -12 0
v -8 -12 0
v -34 -14 0
v -35 -14 0
v -35 -13 0
v -34 -13 0
v -33 -14 0
v -34 -14 0
v -34 -13 0
v -33 -13 0
v -8 -14 0
v -9 -14 0
v -9 -13 0
v -8 -13 0
v -7 -14 0
v -8 -14 0
v -8 -13 0
v -7 -13 0
v -41 -15 0
v -42 -15 0
v -42 -14 0
v -41 -14 0
v -40 -15 0
v -41 -15 0
v -41 -14 0
v -40 -14 0
v -39 -15 0
v -40 -15 0
v -40 -14 0
v -39 -14 0
v -38 -15 0
v -39 -15 0
v -39 -14 0
v -38 -14 0
v -37 -15 0
v -38 -15 0
v -38 -14 0
v -37 -14 0
v -36 -15 0
v -37 -15 0
v -37 -14 0
v -36 -14 0
v -35 -15 0
v -36 -15 0
v -36 -14 0
v -35 -14 0
v -34 -15 0
v -35 -15 0
v -35 -14 0
v -34 -14 0
v -7 -15 0
v -8 -15 0
v -8 -14 0
v -7 -14 0
v -6 -15 0
v -7 -15 0
v -7 -14 0
v -6 -14 0
v -5 -15 0
v -6 -15 0
v -6 -14 0
v -5 -14 0
v -4 -15 0
v -5 -15 0
v -5 -14 0
v -4 -14 0
v -3 -15 0
v -4 -15 0
v -4 -14 0
v -3 -14 0
v -2 -15 0
v -3 -15 0
v -3 -14 0
v -2 -14 0
v -1 -15 0
v -2 -15 0
v -2 -14 0
v -1 -14 0
v 0 -15 0
v -1 -15 0
v -1 -14 0
v 0 -14 0
v -41 -20 0
v -42 -20 0
v -42 -19 0
v -41 -19 0
v -40 -20 0
v -41 -20 0
v -41 -19 0
v -40 -19 0
v -39 -20 0
v -40 -20 0
v -40 -19 0
v -39 -19 0
v -38 -20 0
v -39 -20 0
v -39 -19 0
v -38 -19 0
v -37 -20 0
v -38 -20 0
v -38 -19 0
v -37 -19 0
v -36 -20 0
v -37 -20 0
v -37 -19 0
v -36 -19 0
v -35 -20 0
v -36 -20 0
v -36 -19 0
v -35 -19 0
v -34 -20 0
v -35 -20 0
v -35 -19 0
v -34 -19 0
v -7 -20 0
v -8 -20 0
v -8 -19 0
v -7 -19 0
v -6 -20 0
v -7 -20 0
v -7 -19 0
v -6 -19 0
v -5 -20 0
v -6 -20 0
v -6 -19 0
v -5 -19 0
v -4 -20 0
v -5 -20 0
v -5 -19 0
v -4 -19 0
v -3 -20 0
v -4 -20 0
v -4 -19 0
v -3 -19 0
v -2 -20 0
v -3 -20 0
v -3 -19 0
v -2 -19 0
v -1 -20 0
v -2 -20 0
v -2 -19 0
v -1 -19 0
v 0 -20 0
v -1 -20 0
v -1 -19 0
v 0 -19 0
v -34 -21 0
v -35 -21 0
v -35 -20 0
v -34 -20 0
v -7 -21 0
v -8 -21 0
v -8 -20 0
v -7 -20 0
v -34 -22 0
v -35 -22 0
v -35 -21 0
v -34 -21 0
v -7 -22 0
v -8 -22 0
v -8 -21 0
v -7 -21 0
v -34 -23 0
v -35 -23 0
v -35 -22 0
v -34 -22 0
v -7 -23 0
v -8 -23 0
v -8 -22 0
v -7 -22 0
v -34 -24 0
v -35 -24 0
v -35 -23 0
v -34 -23 0
v -7 -24 0
v -8 -24 0
v -8 -23 0
v -7 -23 0
v -35 -25 0
v -36 -25 0
v -36 -24 0
v -35 -24 0
v -34 -25 0
v -35 -25 0
v -35 -24 0
v -34 -24 0
v -7 -25 0
v -8 -25 0
v -8 -24 0
v -7 -24 0
v -6 -25 0
v -7 -25 0
v -7 -24 0
v -6 -24 0
v -36 -26 0
v -37 -26 0
v -37 -25 0
v -36 -25 0
v -35 -26 0
v -36 -26 0
v -36 -25 0
v -35 -25 0
v -6 -26 0
v -7 -26 0
v -7 -25 0
v -6 -25 0
v -5 -26 0
v -6 -26 0
v -6 -25 0
v -5 -25 0
v -37 -27 0
v -38 -27 0
v -38 -26 0
v -37 -26 0
v -36 -27 0
v -37 -27 0
v -37 -26 0
v -36 -26 0
v -5 -27 0
v -6 -27 0
v -6 -26 0
v -5 -26 0
v -4 -27 0
v -5 -27 0
v -5 -26 0
v -4 -26 0
v -37 -28 0
v -38 -28 0
v -38 -27 0
v -37 -27 0
v -4 -28 0
v -5 -28 0
v -5 -27 0
v -4 -27 0
v -37 -29 0
v -38 -29 0
v -38 -28 0
v -37 -28 0
v -4 -29 0
v -5 -29 0
v -5 -28 0
v -4 -28 0
v -37 -30 0
v -38 -30 0
v -38 -29 0
v -37 -29 0
v -4 -30 0
v -5 -30 0
v -5 -29 0
v -4 -29 0
v -37 -31 0
v -38 -31 0
v -38 -30 0
v -37 -30 0
v -4 -31 0
v -5 -31 0
v -5 -30 0
v -4 -30 0
v -37 -32 0
v -38 -32 0
v -38 -31 0
v -37 -31 0
v -36 -32 0
v -37 -32 0
v -37 -31 0
v -36 -31 0
v -27 -32 0
v -28 -32 0
v -28 -31 0
v -27 -31 0
v -26 -32 0
v -27 -32 0
v -27 -31 0
v -26 -31 0
v -25 -32 0
v -26 -32 0
v -26 -31 0
v -25 -31 0
v -24 -32 0
v -25 -32 0
v -25 -31 0
v -24 -31 0
v -23 -32 0
v -24 -32 0
v -24 -31 0
v -23 -31 0
v -22 -32 0
v -23 -32 0
v -23 -31 0
v -22 -31 0
v -19 -32 0
v -20 -32 0
v -20 -31 0
v -19 -31 0
v -18 -32 0
v -19 -32 0
v -19 -31 0
v -18 -31 0
v -17 -32 0
v -18 -32 0
v -18 -31 0
v -17 -31 0
v -16 -32 0
v -17 -32 0
v -17 -31 0
v -16 -31 0
v -15 -32 0
v -16 -32 0
v -16 -31 0
v -15 -31 0
v -14 -32 0
v -15 -32 0
v -15 -31 0
v -14 -31 0
v -5 -32 0
v -6 -32 0
v -6 -31 0
v -5 -31 0
v -4 -32 0
v -5 -32 0
v -5 -31 0
v -4 -31 0
v -36 -33 0
v -37 -33 0
v -37 -32 0
v -36 -32 0
v -35 -33 0
v -36 -33 0
v -36 -32 0
v -35 -32 0
v -28 -33 0
v -29 -33 0
v -29 -32 0
v -28 -32 0
v -27 -33 0
v -28 -33 0
v -28 -32 0
v -27 -32 0
v -22 -33 0
v -23 -33 0
v -23 -32 0
v -22 -32 0
v -19 -33 0
v -20 -33 0
v -20 -32 0
v -19 -32 0
v -14 -33 0
v -15 -33 0
v -15 -32 0
v -14 -32 0
v -13 -33 0
v -14 -33 0
v -14 -32 0
v -13 -32 0
v -6 -33 0
v -7 -33 0
v -7 -32 0
v -6 -32 0
v -5 -33 0
v -6 -33 0
v -6 -32 0
v -5 -32 0
v -35 -34 0
v -36 -34 0
v -36 -33 0
v -35 -33 0
v -34 -34 0
v -35 -34 0
v -35 -33 0
v -34 -33 0
v -29 -34 0
v -30 -34 0
v -30 -33 0
v -29 -33 0
v -28 -34 0
v -29 -34 0
v -29 -33 0
v -28 -33 0
v -22 -34 0
v -23 -34 0
v -23 -33 0
v -22 -33 0
v -19 -34 0
v -20 -34 0
v -20 -33 0
v -19 -33 0
v -13 -34 0
v -14 -34 0
v -14 -33 0
v -13 -33 0
v -12 -34 0
v -13 -34 0
v -13 -33 0
v -12 -33 0
v -7 -34 0
v -8 -34 0
v -8 -33 0
v -7 -33 0
v -6 -34 0
v -7 -34 0
v -7 -33 0
v -6 -33 0
v -34 -35 0
v -35 -35 0
v -35 -34 0
v -34 -34 0
v -33 -35 0
v -34 -35 0
v -34 -34 0
v -33 -34 0
v -32 -35 0
v -33 -35 0
v -33 -34 0
v -32 -34 0
v -31 -35 0
v -32 -35 0
v -32 -34 0
v -31 -34 0
v -30 -35 0
v -31 -35 0
v -31 -34 0
v -30 -34 0
v -29 -35 0
v -30 -35 0
v -30 -34 0
v -29 -34 0
v -22 -35 0
v -23 -35 0
v -23 -34 0
v -22 -34 0
v -19 -35 0
v -20 -35 0
v -20 -34 0
v -19 -34 0
v -12 -35 0
v -13 -35 0
v -13 -34 0
v -12 -34 0
v -11 -35 0
v -12 -35 0
v -12 -34 0
v -11 -34 0
v -10 -35 0
v -11 -35 0
v -11 -34 0
v -10 -34 0
v -9 -35 0
v -10 -35 0
v -10 -34 0
v -9 -34 0
v -8 -35 0
v -9 -35 0
v -9 -34 0
v -8 -34 0
v -7 -35 0
v -8 -35 0
v -8 -34 0
v -7 -34 0
v -22 -36 0
v -23 -36 0
v -23 -35 0
v -22 -35 0
v -19 -36 0
v -20 -36 0
v -20 -35 0
v -19 -35 0

# Texture cooridinates (Count = 36)
vt 0.6641414 0.0030303
vt 0.6641414 0.1969697
vt 0.5025253 0.1969697
vt 0.5025253 0.0030303
vt 0.1641414 0.2030303
vt 0.002525253 0.2030303
vt 0.002525253 0.3969697
vt 0.1641414 0.3969697
vt 0.3308081 0.2030303
vt 0.1691919 0.2030303
vt 0.1691919 0.3969697
vt 0.3308081 0.3969697
vt 0.9974747 0.2030303
vt 0.8358586 0.2030303
vt 0.8358586 0.3969697
vt 0.9974747 0.3969697
vt 0.8358586 0.0030303
vt 0.9974747 0.0030303
vt 0.9974747 0.1969697
vt 0.8358586 0.1969697
vt 0.4974748 0.0030303
vt 0.3358586 0.0030303
vt 0.3358586 0.1969697
vt 0.4974748 0.1969697
vt 0.9974747 0.4030303
vt 0.8358586 0.4030303
vt 0.8358586 0.5969697
vt 0.9974747 0.5969697
vt 0.1641414 0.0030303
vt 0.002525253 0.0030303
vt 0.002525253 0.1969697
vt 0.1641414 0.1969697
vt 0.8308081 0.1969697
vt 0.6691919 0.1969697
vt 0.6691919 0.0030303
vt 0.8308081 0.0030303

# Normal
vn 0 0 -1

# Mesh description
g ArbitersGuildLobby_mesh_0005

# Faces
f 1/1/1 2/2/1 3/3/1 4/4/1
f 5/5/1 6/6/1 7/7/1 8/8/1
f 9/9/1 10/10/1 11/11/1 12/12/1
f 13/10/1 14/9/1 15/12/1 16/11/1
f 17/6/1 18/5/1 19/8/1 20/7/1
f 21/2/1 22/1/1 23/4/1 24/3/1
f 25/1/1 26/2/1 27/3/1 28/4/1
f 29/2/1 30/1/1 31/4/1 32/3/1
f 33/1/1 34/2/1 35/3/1 36/4/1
f 37/2/1 38/1/1 39/4/1 40/3/1
f 41/1/1 42/2/1 43/3/1 44/4/1
f 45/2/1 46/1/1 47/4/1 48/3/1
f 49/1/1 50/2/1 51/3/1 52/4/1
f 53/2/1 54/1/1 55/4/1 56/3/1
f 57/13/1 58/14/1 59/15/1 60/16/1
f 61/17/1 62/18/1 63/19/1 64/20/1
f 65/17/1 66/18/1 67/19/1 68/20/1
f 69/17/1 70/18/1 71/19/1 72/20/1
f 73/17/1 74/18/1 75/19/1 76/20/1
f 77/14/1 78/13/1 79/16/1 80/15/1
f 81/1/1 82/2/1 83/3/1 84/4/1
f 85/5/1 86/6/1 87/7/1 88/8/1
f 89/9/1 90/10/1 91/11/1 92/12/1
f 93/10/1 94/9/1 95/12/1 96/11/1
f 97/6/1 98/5/1 99/8/1 100/7/1
f 101/2/1 102/1/1 103/4/1 104/3/1
f 105/1/1 106/2/1 107/3/1 108/4/1
f 109/2/1 110/1/1 111/4/1 112/3/1
f 113/1/1 114/2/1 115/3/1 116/4/1
f 117/2/1 118/1/1 119/4/1 120/3/1
f 121/1/1 122/2/1 123/3/1 124/4/1
f 125/2/1 126/1/1 127/4/1 128/3/1
f 129/1/1 130/2/1 131/3/1 132/4/1
f 133/2/1 134/1/1 135/4/1 136/3/1
f 137/21/1 138/22/1 139/23/1 140/24/1
f 141/4/1 142/1/1 143/2/1 144/3/1
f 145/4/1 146/1/1 147/2/1 148/3/1
f 149/4/1 150/1/1 151/2/1 152/3/1
f 153/4/1 154/1/1 155/2/1 156/3/1
f 157/4/1 158/1/1 159/2/1 160/3/1
f 161/22/1 162/21/1 163/24/1 164/23/1
f 165/25/1 166/26/1 167/27/1 168/28/1
f 169/17/1 170/18/1 171/19/1 172/20/1
f 173/17/1 174/18/1 175/19/1 176/20/1
f 177/17/1 178/18/1 179/19/1 180/20/1
f 181/17/1 182/18/1 183/19/1 184/20/1
f 185/26/1 186/25/1 187/28/1 188/27/1
f 189/21/1 190/22/1 191/23/1 192/24/1
f 193/4/1 194/1/1 195/2/1 196/3/1
f 197/4/1 198/1/1 199/2/1 200/3/1
f 201/4/1 202/1/1 203/2/1 204/3/1
f 205/4/1 206/1/1 207/2/1 208/3/1
f 209/4/1 210/1/1 211/2/1 212/3/1
f 213/22/1 214/21/1 215/24/1 216/23/1
f 217/21/1 218/22/1 219/23/1 220/24/1
f 221/29/1 222/30/1 223/31/1 224/32/1
f 225/30/1 226/29/1 227/32/1 228/31/1
f 229/4/1 230/1/1 231/2/1 232/3/1
f 233/4/1 234/1/1 235/2/1 236/3/1
f 237/29/1 238/30/1 239/31/1 240/32/1
f 241/5/1 242/6/1 243/7/1 244/8/1
f 245/9/1 246/10/1 247/11/1 248/12/1
f 249/10/1 250/9/1 251/12/1 252/11/1
f 253/6/1 254/5/1 255/8/1 256/7/1
f 257/30/1 258/29/1 259/32/1 260/31/1
f 261/4/1 262/1/1 263/2/1 264/3/1
f 265/4/1 266/1/1 267/2/1 268/3/1
f 269/29/1 270/30/1 271/31/1 272/32/1
f 273/30/1 274/29/1 275/32/1 276/31/1
f 277/22/1 278/21/1 279/24/1 280/23/1
f 281/21/1 282/22/1 283/23/1 284/24/1
f 285/29/1 286/30/1 287/31/1 288/32/1
f 289/30/1 290/29/1 291/32/1 292/31/1
f 293/22/1 294/21/1 295/24/1 296/23/1
f 297/4/1 298/1/1 299/2/1 300/3/1
f 301/4/1 302/1/1 303/2/1 304/3/1
f 305/4/1 306/1/1 307/2/1 308/3/1
f 309/4/1 310/1/1 311/2/1 312/3/1
f 313/4/1 314/1/1 315/2/1 316/3/1
f 317/4/1 318/1/1 319/2/1 320/3/1
f 321/4/1 322/1/1 323/2/1 324/3/1
f 325/29/1 326/32/1 327/31/1 328/30/1
f 329/32/1 330/29/1 331/30/1 332/31/1
f 333/4/1 334/1/1 335/2/1 336/3/1
f 337/4/1 338/1/1 339/2/1 340/3/1
f 341/4/1 342/1/1 343/2/1 344/3/1
f 345/4/1 346/1/1 347/2/1 348/3/1
f 349/4/1 350/1/1 351/2/1 352/3/1
f 353/4/1 354/1/1 355/2/1 356/3/1
f 357/4/1 358/1/1 359/2/1 360/3/1
f 361/3/1 362/2/1 363/1/1 364/4/1
f 365/3/1 366/2/1 367/1/1 368/4/1
f 369/3/1 370/2/1 371/1/1 372/4/1
f 373/3/1 374/2/1 375/1/1 376/4/1
f 377/3/1 378/2/1 379/1/1 380/4/1
f 381/3/1 382/2/1 383/1/1 384/4/1
f 385/3/1 386/2/1 387/1/1 388/4/1
f 389/32/1 390/31/1 391/30/1 392/29/1
f 393/31/1 394/32/1 395/29/1 396/30/1
f 397/3/1 398/2/1 399/1/1 400/4/1
f 401/3/1 402/2/1 403/1/1 404/4/1
f 405/3/1 406/2/1 407/1/1 408/4/1
f 409/3/1 410/2/1 411/1/1 412/4/1
f 413/3/1 414/2/1 415/1/1 416/4/1
f 417/3/1 418/2/1 419/1/1 420/4/1
f 421/3/1 422/2/1 423/1/1 424/4/1
f 425/1/1 426/2/1 427/3/1 428/4/1
f 429/2/1 430/1/1 431/4/1 432/3/1
f 433/1/1 434/2/1 435/3/1 436/4/1
f 437/2/1 438/1/1 439/4/1 440/3/1
f 441/1/1 442/2/1 443/3/1 444/4/1
f 445/2/1 446/1/1 447/4/1 448/3/1
f 449/1/1 450/2/1 451/3/1 452/4/1
f 453/2/1 454/1/1 455/4/1 456/3/1
f 457/21/1 458/22/1 459/23/1 460/24/1
f 461/29/1 462/30/1 463/31/1 464/32/1
f 465/30/1 466/29/1 467/32/1 468/31/1
f 469/22/1 470/21/1 471/24/1 472/23/1
f 473/21/1 474/22/1 475/23/1 476/24/1
f 477/29/1 478/30/1 479/31/1 480/32/1
f 481/30/1 482/29/1 483/32/1 484/31/1
f 485/22/1 486/21/1 487/24/1 488/23/1
f 489/21/1 490/22/1 491/23/1 492/24/1
f 493/29/1 494/30/1 495/31/1 496/32/1
f 497/30/1 498/29/1 499/32/1 500/31/1
f 501/22/1 502/21/1 503/24/1 504/23/1
f 505/4/1 506/3/1 507/2/1 508/1/1
f 509/3/1 510/4/1 511/1/1 512/2/1
f 513/4/1 514/3/1 515/2/1 516/1/1
f 517/3/1 518/4/1 519/1/1 520/2/1
f 521/4/1 522/3/1 523/2/1 524/1/1
f 525/3/1 526/4/1 527/1/1 528/2/1
f 529/4/1 530/3/1 531/2/1 532/1/1
f 533/3/1 534/4/1 535/1/1 536/2/1
f 537/22/1 538/23/1 539/24/1 540/21/1
f 541/30/1 542/31/1 543/32/1 544/29/1
f 545/31/1 546/30/1 547/29/1 548/32/1
f 549/2/1 550/3/1 551/4/1 552/1/1
f 553/2/1 554/3/1 555/4/1 556/1/1
f 557/2/1 558/3/1 559/4/1 560/1/1
f 561/2/1 562/3/1 563/4/1 564/1/1
f 565/33/1 566/34/1 567/35/1 568/36/1
f 569/34/1 570/33/1 571/36/1 572/35/1
f 573/2/1 574/3/1 575/4/1 576/1/1
f 577/2/1 578/3/1 579/4/1 580/1/1
f 581/2/1 582/3/1 583/4/1 584/1/1
f 585/2/1 586/3/1 587/4/1 588/1/1
f 589/30/1 590/31/1 591/32/1 592/29/1
f 593/31/1 594/30/1 595/29/1 596/32/1
f 597/23/1 598/22/1 599/21/1 600/24/1
f 601/22/1 602/23/1 603/24/1 604/21/1
f 605/30/1 606/31/1 607/32/1 608/29/1
f 609/31/1 610/30/1 611/29/1 612/32/1
f 613/23/1 614/22/1 615/21/1 616/24/1
f 617/4/1 618/3/1 619/2/1 620/1/1
f 621/3/1 622/4/1 623/1/1 624/2/1
f 625/22/1 626/23/1 627/24/1 628/21/1
f 629/30/1 630/31/1 631/32/1 632/29/1
f 633/31/1 634/30/1 635/29/1 636/32/1
f 637/23/1 638/22/1 639/21/1 640/24/1
f 641/22/1 642/23/1 643/24/1 644/21/1
f 645/30/1 646/31/1 647/32/1 648/29/1
f 649/31/1 650/30/1 651/29/1 652/32/1
f 653/23/1 654/22/1 655/21/1 656/24/1
f 657/4/1 658/3/1 659/2/1 660/1/1
f 661/3/1 662/4/1 663/1/1 664/2/1
f 665/22/1 666/23/1 667/24/1 668/21/1
f 669/30/1 670/31/1 671/32/1 672/29/1
f 673/31/1 674/30/1 675/29/1 676/32/1
f 677/23/1 678/22/1 679/21/1 680/24/1
f 681/22/1 682/23/1 683/24/1 684/21/1
f 685/2/1 686/3/1 687/4/1 688/1/1
f 689/2/1 690/3/1 691/4/1 692/1/1
f 693/2/1 694/3/1 695/4/1 696/1/1
f 697/2/1 698/3/1 699/4/1 700/1/1
f 701/23/1 702/22/1 703/21/1 704/24/1
f 705/4/1 706/3/1 707/2/1 708/1/1
f 709/3/1 710/4/1 711/1/1 712/2/1
f 713/22/1 714/23/1 715/24/1 716/21/1
f 717/2/1 718/3/1 719/4/1 720/1/1
f 721/2/1 722/3/1 723/4/1 724/1/1
f 725/2/1 726/3/1 727/4/1 728/1/1
f 729/2/1 730/3/1 731/4/1 732/1/1
f 733/23/1 734/22/1 735/21/1 736/24/1
f 737/1/1 738/2/1 739/3/1 740/4/1
f 741/2/1 742/1/1 743/4/1 744/3/1

