# Tiled2Unity generated file. Do not modify by hand.
# Wavefront file for 'ArbitersGuildLobby_mesh_0003.obj'

# Vertices (Count = 16)
v -21 -22 0
v -22 -22 0
v -22 -21 0
v -21 -21 0
v -20 -22 0
v -21 -22 0
v -21 -21 0
v -20 -21 0
v -21 -23 0
v -22 -23 0
v -22 -22 0
v -21 -22 0
v -20 -23 0
v -21 -23 0
v -21 -22 0
v -20 -22 0

# Texture cooridinates (Count = 8)
vt 0.9924242 0.5037879
vt 0.5075758 0.5037879
vt 0.5075758 0.7462121
vt 0.9924242 0.7462121
vt 0.9924242 0.2537879
vt 0.5075758 0.2537879
vt 0.5075758 0.4962121
vt 0.9924242 0.4962121

# Normal
vn 0 0 -1

# Mesh description
g ArbitersGuildLobby_mesh_0003

# Faces
f 1/1/1 2/2/1 3/3/1 4/4/1
f 5/2/1 6/1/1 7/4/1 8/3/1
f 9/5/1 10/6/1 11/7/1 12/8/1
f 13/6/1 14/5/1 15/8/1 16/7/1

