# Tiled2Unity generated file. Do not modify by hand.
# Wavefront file for 'SolomvaleHouse4_mesh_0007.obj'

# Vertices (Count = 304)
v -1 -1 0
v -2 -1 0
v -2 0 0
v -1 0 0
v -2 -1 0
v -3 -1 0
v -3 0 0
v -2 0 0
v -3 -1 0
v -4 -1 0
v -4 0 0
v -3 0 0
v -4 -1 0
v -5 -1 0
v -5 0 0
v -4 0 0
v -5 -1 0
v -6 -1 0
v -6 0 0
v -5 0 0
v -6 -1 0
v -7 -1 0
v -7 0 0
v -6 0 0
v -7 -1 0
v -8 -1 0
v -8 0 0
v -7 0 0
v -8 -1 0
v -9 -1 0
v -9 0 0
v -8 0 0
v -9 -1 0
v -10 -1 0
v -10 0 0
v -9 0 0
v -10 -1 0
v -11 -1 0
v -11 0 0
v -10 0 0
v -11 -1 0
v -12 -1 0
v -12 0 0
v -11 0 0
v -12 -1 0
v -13 -1 0
v -13 0 0
v -12 0 0
v -13 -1 0
v -14 -1 0
v -14 0 0
v -13 0 0
v -14 -1 0
v -15 -1 0
v -15 0 0
v -14 0 0
v -15 -1 0
v -16 -1 0
v -16 0 0
v -15 0 0
v -16 -1 0
v -17 -1 0
v -17 0 0
v -16 0 0
v 0 -2 0
v -1 -2 0
v -1 -1 0
v 0 -1 0
v -17 -2 0
v -18 -2 0
v -18 -1 0
v -17 -1 0
v 0 -3 0
v -1 -3 0
v -1 -2 0
v 0 -2 0
v -17 -3 0
v -18 -3 0
v -18 -2 0
v -17 -2 0
v 0 -4 0
v -1 -4 0
v -1 -3 0
v 0 -3 0
v -17 -4 0
v -18 -4 0
v -18 -3 0
v -17 -3 0
v 0 -5 0
v -1 -5 0
v -1 -4 0
v 0 -4 0
v -17 -5 0
v -18 -5 0
v -18 -4 0
v -17 -4 0
v 0 -6 0
v -1 -6 0
v -1 -5 0
v 0 -5 0
v -1 -6 0
v -2 -6 0
v -2 -5 0
v -1 -5 0
v -17 -6 0
v -18 -6 0
v -18 -5 0
v -17 -5 0
v -1 -7 0
v -2 -7 0
v -2 -6 0
v -1 -6 0
v -2 -7 0
v -3 -7 0
v -3 -6 0
v -2 -6 0
v -3 -7 0
v -4 -7 0
v -4 -6 0
v -3 -6 0
v -4 -7 0
v -5 -7 0
v -5 -6 0
v -4 -6 0
v -5 -7 0
v -6 -7 0
v -6 -6 0
v -5 -6 0
v -6 -7 0
v -7 -7 0
v -7 -6 0
v -6 -6 0
v -7 -7 0
v -8 -7 0
v -8 -6 0
v -7 -6 0
v -17 -7 0
v -18 -7 0
v -18 -6 0
v -17 -6 0
v -1 -8 0
v -2 -8 0
v -2 -7 0
v -1 -7 0
v -2 -8 0
v -3 -8 0
v -3 -7 0
v -2 -7 0
v -3 -8 0
v -4 -8 0
v -4 -7 0
v -3 -7 0
v -4 -8 0
v -5 -8 0
v -5 -7 0
v -4 -7 0
v -5 -8 0
v -6 -8 0
v -6 -7 0
v -5 -7 0
v -6 -8 0
v -7 -8 0
v -7 -7 0
v -6 -7 0
v -7 -8 0
v -8 -8 0
v -8 -7 0
v -7 -7 0
v -10 -8 0
v -11 -8 0
v -11 -7 0
v -10 -7 0
v -11 -8 0
v -12 -8 0
v -12 -7 0
v -11 -7 0
v -17 -8 0
v -18 -8 0
v -18 -7 0
v -17 -7 0
v 0 -9 0
v -1 -9 0
v -1 -8 0
v 0 -8 0
v -1 -9 0
v -2 -9 0
v -2 -8 0
v -1 -8 0
v -10 -9 0
v -11 -9 0
v -11 -8 0
v -10 -8 0
v -11 -9 0
v -12 -9 0
v -12 -8 0
v -11 -8 0
v -17 -9 0
v -18 -9 0
v -18 -8 0
v -17 -8 0
v 0 -10 0
v -1 -10 0
v -1 -9 0
v 0 -9 0
v -10 -10 0
v -11 -10 0
v -11 -9 0
v -10 -9 0
v -11 -10 0
v -12 -10 0
v -12 -9 0
v -11 -9 0
v -17 -10 0
v -18 -10 0
v -18 -9 0
v -17 -9 0
v 0 -11 0
v -1 -11 0
v -1 -10 0
v 0 -10 0
v -10 -11 0
v -11 -11 0
v -11 -10 0
v -10 -10 0
v -11 -11 0
v -12 -11 0
v -12 -10 0
v -11 -10 0
v -17 -11 0
v -18 -11 0
v -18 -10 0
v -17 -10 0
v -10 -12 0
v -11 -12 0
v -11 -11 0
v -10 -11 0
v -11 -12 0
v -12 -12 0
v -12 -11 0
v -11 -11 0
v -12 -12 0
v -13 -12 0
v -13 -11 0
v -12 -11 0
v -16 -12 0
v -17 -12 0
v -17 -11 0
v -16 -11 0
v -17 -12 0
v -18 -12 0
v -18 -11 0
v -17 -11 0
v 0 -13 0
v -1 -13 0
v -1 -12 0
v 0 -12 0
v -1 -13 0
v -2 -13 0
v -2 -12 0
v -1 -12 0
v -10 -13 0
v -11 -13 0
v -11 -12 0
v -10 -12 0
v -12 -13 0
v -13 -13 0
v -13 -12 0
v -12 -12 0
v -13 -13 0
v -14 -13 0
v -14 -12 0
v -13 -12 0
v -14 -13 0
v -15 -13 0
v -15 -12 0
v -14 -12 0
v -3 -14 0
v -4 -14 0
v -4 -13 0
v -3 -13 0
v -4 -14 0
v -5 -14 0
v -5 -13 0
v -4 -13 0
v -5 -14 0
v -6 -14 0
v -6 -13 0
v -5 -13 0
v -6 -14 0
v -7 -14 0
v -7 -13 0
v -6 -13 0
v -7 -14 0
v -8 -14 0
v -8 -13 0
v -7 -13 0
v -10 -14 0
v -11 -14 0
v -11 -13 0
v -10 -13 0
v -7 -15 0
v -8 -15 0
v -8 -14 0
v -7 -14 0

# Texture cooridinates (Count = 16)
vt 0.002525253 0.8358586
vt 0.1641414 0.8358586
vt 0.1641414 0.9974747
vt 0.002525253 0.9974747
vt 0.1691919 0.8358586
vt 0.3308081 0.8358586
vt 0.3308081 0.9974747
vt 0.1691919 0.9974747
vt 0.5025253 0.8358586
vt 0.6641414 0.8358586
vt 0.6641414 0.9974747
vt 0.5025253 0.9974747
vt 0.3358586 0.9974747
vt 0.3358586 0.8358586
vt 0.4974748 0.8358586
vt 0.4974748 0.9974747

# Normal
vn 0 0 -1

# Mesh description
g SolomvaleHouse4_mesh_0007

# Faces
f 1/1/1 2/2/1 3/3/1 4/4/1
f 5/5/1 6/6/1 7/7/1 8/8/1
f 9/5/1 10/6/1 11/7/1 12/8/1
f 13/5/1 14/6/1 15/7/1 16/8/1
f 17/5/1 18/6/1 19/7/1 20/8/1
f 21/5/1 22/6/1 23/7/1 24/8/1
f 25/5/1 26/6/1 27/7/1 28/8/1
f 29/5/1 30/6/1 31/7/1 32/8/1
f 33/5/1 34/6/1 35/7/1 36/8/1
f 37/5/1 38/6/1 39/7/1 40/8/1
f 41/5/1 42/6/1 43/7/1 44/8/1
f 45/5/1 46/6/1 47/7/1 48/8/1
f 49/5/1 50/6/1 51/7/1 52/8/1
f 53/5/1 54/6/1 55/7/1 56/8/1
f 57/5/1 58/6/1 59/7/1 60/8/1
f 61/2/1 62/1/1 63/4/1 64/3/1
f 65/3/1 66/2/1 67/1/1 68/4/1
f 69/2/1 70/3/1 71/4/1 72/1/1
f 73/8/1 74/5/1 75/6/1 76/7/1
f 77/6/1 78/7/1 79/8/1 80/5/1
f 81/8/1 82/5/1 83/6/1 84/7/1
f 85/6/1 86/7/1 87/8/1 88/5/1
f 89/8/1 90/5/1 91/6/1 92/7/1
f 93/6/1 94/7/1 95/8/1 96/5/1
f 97/4/1 98/1/1 99/2/1 100/3/1
f 101/9/1 102/10/1 103/11/1 104/12/1
f 105/6/1 106/7/1 107/8/1 108/5/1
f 109/4/1 110/3/1 111/2/1 112/1/1
f 113/8/1 114/7/1 115/6/1 116/5/1
f 117/8/1 118/7/1 119/6/1 120/5/1
f 121/8/1 122/7/1 123/6/1 124/5/1
f 125/8/1 126/7/1 127/6/1 128/5/1
f 129/8/1 130/7/1 131/6/1 132/5/1
f 133/13/1 134/14/1 135/15/1 136/16/1
f 137/6/1 138/7/1 139/8/1 140/5/1
f 141/1/1 142/2/1 143/3/1 144/4/1
f 145/5/1 146/6/1 147/7/1 148/8/1
f 149/5/1 150/6/1 151/7/1 152/8/1
f 153/5/1 154/6/1 155/7/1 156/8/1
f 157/5/1 158/6/1 159/7/1 160/8/1
f 161/5/1 162/6/1 163/7/1 164/8/1
f 165/14/1 166/15/1 167/16/1 168/13/1
f 169/16/1 170/13/1 171/14/1 172/15/1
f 173/13/1 174/16/1 175/15/1 176/14/1
f 177/6/1 178/7/1 179/8/1 180/5/1
f 181/3/1 182/2/1 183/1/1 184/4/1
f 185/10/1 186/11/1 187/12/1 188/9/1
f 189/6/1 190/7/1 191/8/1 192/5/1
f 193/7/1 194/6/1 195/5/1 196/8/1
f 197/6/1 198/7/1 199/8/1 200/5/1
f 201/8/1 202/5/1 203/6/1 204/7/1
f 205/6/1 206/7/1 207/8/1 208/5/1
f 209/7/1 210/6/1 211/5/1 212/8/1
f 213/6/1 214/7/1 215/8/1 216/5/1
f 217/8/1 218/5/1 219/6/1 220/7/1
f 221/6/1 222/7/1 223/8/1 224/5/1
f 225/7/1 226/6/1 227/5/1 228/8/1
f 229/6/1 230/7/1 231/8/1 232/5/1
f 233/6/1 234/7/1 235/8/1 236/5/1
f 237/4/1 238/1/1 239/2/1 240/3/1
f 241/9/1 242/10/1 243/11/1 244/12/1
f 245/10/1 246/9/1 247/12/1 248/11/1
f 249/1/1 250/4/1 251/3/1 252/2/1
f 253/4/1 254/1/1 255/2/1 256/3/1
f 257/9/1 258/10/1 259/11/1 260/12/1
f 261/6/1 262/7/1 263/8/1 264/5/1
f 265/4/1 266/3/1 267/2/1 268/1/1
f 269/8/1 270/7/1 271/6/1 272/5/1
f 273/8/1 274/7/1 275/6/1 276/5/1
f 277/8/1 278/7/1 279/6/1 280/5/1
f 281/8/1 282/7/1 283/6/1 284/5/1
f 285/7/1 286/8/1 287/5/1 288/6/1
f 289/7/1 290/8/1 291/5/1 292/6/1
f 293/13/1 294/14/1 295/15/1 296/16/1
f 297/6/1 298/7/1 299/8/1 300/5/1
f 301/8/1 302/5/1 303/6/1 304/7/1

