# Tiled2Unity generated file. Do not modify by hand.
# Wavefront file for 'AstralaProper_mesh_0037.obj'

# Vertices (Count = 360)
v -121 -83 0
v -122 -83 0
v -122 -82 0
v -121 -82 0
v -120 -83 0
v -121 -83 0
v -121 -82 0
v -120 -82 0
v -115 -83 0
v -116 -83 0
v -116 -82 0
v -115 -82 0
v -114 -83 0
v -115 -83 0
v -115 -82 0
v -114 -82 0
v -126 -84 0
v -127 -84 0
v -127 -83 0
v -126 -83 0
v -125 -84 0
v -126 -84 0
v -126 -83 0
v -125 -83 0
v -124 -84 0
v -125 -84 0
v -125 -83 0
v -124 -83 0
v -123 -84 0
v -124 -84 0
v -124 -83 0
v -123 -83 0
v -122 -84 0
v -123 -84 0
v -123 -83 0
v -122 -83 0
v -121 -84 0
v -122 -84 0
v -122 -83 0
v -121 -83 0
v -120 -84 0
v -121 -84 0
v -121 -83 0
v -120 -83 0
v -119 -84 0
v -120 -84 0
v -120 -83 0
v -119 -83 0
v -118 -84 0
v -119 -84 0
v -119 -83 0
v -118 -83 0
v -117 -84 0
v -118 -84 0
v -118 -83 0
v -117 -83 0
v -116 -84 0
v -117 -84 0
v -117 -83 0
v -116 -83 0
v -115 -84 0
v -116 -84 0
v -116 -83 0
v -115 -83 0
v -114 -84 0
v -115 -84 0
v -115 -83 0
v -114 -83 0
v -113 -84 0
v -114 -84 0
v -114 -83 0
v -113 -83 0
v -112 -84 0
v -113 -84 0
v -113 -83 0
v -112 -83 0
v -111 -84 0
v -112 -84 0
v -112 -83 0
v -111 -83 0
v -110 -84 0
v -111 -84 0
v -111 -83 0
v -110 -83 0
v -109 -84 0
v -110 -84 0
v -110 -83 0
v -109 -83 0
v -126 -85 0
v -127 -85 0
v -127 -84 0
v -126 -84 0
v -125 -85 0
v -126 -85 0
v -126 -84 0
v -125 -84 0
v -124 -85 0
v -125 -85 0
v -125 -84 0
v -124 -84 0
v -123 -85 0
v -124 -85 0
v -124 -84 0
v -123 -84 0
v -122 -85 0
v -123 -85 0
v -123 -84 0
v -122 -84 0
v -121 -85 0
v -122 -85 0
v -122 -84 0
v -121 -84 0
v -120 -85 0
v -121 -85 0
v -121 -84 0
v -120 -84 0
v -119 -85 0
v -120 -85 0
v -120 -84 0
v -119 -84 0
v -118 -85 0
v -119 -85 0
v -119 -84 0
v -118 -84 0
v -117 -85 0
v -118 -85 0
v -118 -84 0
v -117 -84 0
v -116 -85 0
v -117 -85 0
v -117 -84 0
v -116 -84 0
v -115 -85 0
v -116 -85 0
v -116 -84 0
v -115 -84 0
v -114 -85 0
v -115 -85 0
v -115 -84 0
v -114 -84 0
v -113 -85 0
v -114 -85 0
v -114 -84 0
v -113 -84 0
v -112 -85 0
v -113 -85 0
v -113 -84 0
v -112 -84 0
v -111 -85 0
v -112 -85 0
v -112 -84 0
v -111 -84 0
v -110 -85 0
v -111 -85 0
v -111 -84 0
v -110 -84 0
v -109 -85 0
v -110 -85 0
v -110 -84 0
v -109 -84 0
v -126 -86 0
v -127 -86 0
v -127 -85 0
v -126 -85 0
v -125 -86 0
v -126 -86 0
v -126 -85 0
v -125 -85 0
v -124 -86 0
v -125 -86 0
v -125 -85 0
v -124 -85 0
v -123 -86 0
v -124 -86 0
v -124 -85 0
v -123 -85 0
v -122 -86 0
v -123 -86 0
v -123 -85 0
v -122 -85 0
v -121 -86 0
v -122 -86 0
v -122 -85 0
v -121 -85 0
v -120 -86 0
v -121 -86 0
v -121 -85 0
v -120 -85 0
v -119 -86 0
v -120 -86 0
v -120 -85 0
v -119 -85 0
v -118 -86 0
v -119 -86 0
v -119 -85 0
v -118 -85 0
v -117 -86 0
v -118 -86 0
v -118 -85 0
v -117 -85 0
v -116 -86 0
v -117 -86 0
v -117 -85 0
v -116 -85 0
v -115 -86 0
v -116 -86 0
v -116 -85 0
v -115 -85 0
v -114 -86 0
v -115 -86 0
v -115 -85 0
v -114 -85 0
v -113 -86 0
v -114 -86 0
v -114 -85 0
v -113 -85 0
v -112 -86 0
v -113 -86 0
v -113 -85 0
v -112 -85 0
v -111 -86 0
v -112 -86 0
v -112 -85 0
v -111 -85 0
v -110 -86 0
v -111 -86 0
v -111 -85 0
v -110 -85 0
v -109 -86 0
v -110 -86 0
v -110 -85 0
v -109 -85 0
v -126 -87 0
v -127 -87 0
v -127 -86 0
v -126 -86 0
v -125 -87 0
v -126 -87 0
v -126 -86 0
v -125 -86 0
v -124 -87 0
v -125 -87 0
v -125 -86 0
v -124 -86 0
v -123 -87 0
v -124 -87 0
v -124 -86 0
v -123 -86 0
v -122 -87 0
v -123 -87 0
v -123 -86 0
v -122 -86 0
v -121 -87 0
v -122 -87 0
v -122 -86 0
v -121 -86 0
v -120 -87 0
v -121 -87 0
v -121 -86 0
v -120 -86 0
v -119 -87 0
v -120 -87 0
v -120 -86 0
v -119 -86 0
v -118 -87 0
v -119 -87 0
v -119 -86 0
v -118 -86 0
v -117 -87 0
v -118 -87 0
v -118 -86 0
v -117 -86 0
v -116 -87 0
v -117 -87 0
v -117 -86 0
v -116 -86 0
v -115 -87 0
v -116 -87 0
v -116 -86 0
v -115 -86 0
v -114 -87 0
v -115 -87 0
v -115 -86 0
v -114 -86 0
v -113 -87 0
v -114 -87 0
v -114 -86 0
v -113 -86 0
v -112 -87 0
v -113 -87 0
v -113 -86 0
v -112 -86 0
v -111 -87 0
v -112 -87 0
v -112 -86 0
v -111 -86 0
v -110 -87 0
v -111 -87 0
v -111 -86 0
v -110 -86 0
v -109 -87 0
v -110 -87 0
v -110 -86 0
v -109 -86 0
v -126 -88 0
v -127 -88 0
v -127 -87 0
v -126 -87 0
v -125 -88 0
v -126 -88 0
v -126 -87 0
v -125 -87 0
v -124 -88 0
v -125 -88 0
v -125 -87 0
v -124 -87 0
v -123 -88 0
v -124 -88 0
v -124 -87 0
v -123 -87 0
v -122 -88 0
v -123 -88 0
v -123 -87 0
v -122 -87 0
v -119 -88 0
v -120 -88 0
v -120 -87 0
v -119 -87 0
v -118 -88 0
v -119 -88 0
v -119 -87 0
v -118 -87 0
v -117 -88 0
v -118 -88 0
v -118 -87 0
v -117 -87 0
v -116 -88 0
v -117 -88 0
v -117 -87 0
v -116 -87 0
v -113 -88 0
v -114 -88 0
v -114 -87 0
v -113 -87 0
v -112 -88 0
v -113 -88 0
v -113 -87 0
v -112 -87 0
v -111 -88 0
v -112 -88 0
v -112 -87 0
v -111 -87 0
v -110 -88 0
v -111 -88 0
v -111 -87 0
v -110 -87 0
v -109 -88 0
v -110 -88 0
v -110 -87 0
v -109 -87 0

# Texture cooridinates (Count = 36)
vt 0.2878788 0.8593073
vt 0.4264069 0.8593073
vt 0.4264069 0.9978355
vt 0.2878788 0.9978355
vt 0.4307359 0.8593073
vt 0.5692641 0.8593073
vt 0.5692641 0.9978355
vt 0.4307359 0.9978355
vt 0.1450216 0.8593073
vt 0.2835498 0.8593073
vt 0.2835498 0.9978355
vt 0.1450216 0.9978355
vt 0.2878788 0.7164502
vt 0.4264069 0.7164502
vt 0.4264069 0.8549783
vt 0.2878788 0.8549783
vt 0.4307359 0.7164502
vt 0.5692641 0.7164502
vt 0.5692641 0.8549783
vt 0.4307359 0.8549783
vt 0.1450216 0.7164502
vt 0.2835498 0.7164502
vt 0.2835498 0.8549783
vt 0.1450216 0.8549783
vt 0.2878788 0.5735931
vt 0.4264069 0.5735931
vt 0.4264069 0.7121212
vt 0.2878788 0.7121212
vt 0.4307359 0.5735931
vt 0.5692641 0.5735931
vt 0.5692641 0.7121212
vt 0.4307359 0.7121212
vt 0.1450216 0.5735931
vt 0.2835498 0.5735931
vt 0.2835498 0.7121212
vt 0.1450216 0.7121212

# Normal
vn 0 0 -1

# Mesh description
g AstralaProper_mesh_0037

# Faces
f 1/1/1 2/2/1 3/3/1 4/4/1
f 5/1/1 6/2/1 7/3/1 8/4/1
f 9/1/1 10/2/1 11/3/1 12/4/1
f 13/1/1 14/2/1 15/3/1 16/4/1
f 17/5/1 18/6/1 19/7/1 20/8/1
f 21/1/1 22/2/1 23/3/1 24/4/1
f 25/1/1 26/2/1 27/3/1 28/4/1
f 29/1/1 30/2/1 31/3/1 32/4/1
f 33/9/1 34/10/1 35/11/1 36/12/1
f 37/13/1 38/14/1 39/15/1 40/16/1
f 41/13/1 42/14/1 43/15/1 44/16/1
f 45/5/1 46/6/1 47/7/1 48/8/1
f 49/1/1 50/2/1 51/3/1 52/4/1
f 53/1/1 54/2/1 55/3/1 56/4/1
f 57/9/1 58/10/1 59/11/1 60/12/1
f 61/13/1 62/14/1 63/15/1 64/16/1
f 65/13/1 66/14/1 67/15/1 68/16/1
f 69/5/1 70/6/1 71/7/1 72/8/1
f 73/1/1 74/2/1 75/3/1 76/4/1
f 77/1/1 78/2/1 79/3/1 80/4/1
f 81/1/1 82/2/1 83/3/1 84/4/1
f 85/9/1 86/10/1 87/11/1 88/12/1
f 89/17/1 90/18/1 91/19/1 92/20/1
f 93/13/1 94/14/1 95/15/1 96/16/1
f 97/13/1 98/14/1 99/15/1 100/16/1
f 101/13/1 102/14/1 103/15/1 104/16/1
f 105/21/1 106/22/1 107/23/1 108/24/1
f 109/13/1 110/14/1 111/15/1 112/16/1
f 113/13/1 114/14/1 115/15/1 116/16/1
f 117/17/1 118/18/1 119/19/1 120/20/1
f 121/13/1 122/14/1 123/15/1 124/16/1
f 125/13/1 126/14/1 127/15/1 128/16/1
f 129/21/1 130/22/1 131/23/1 132/24/1
f 133/13/1 134/14/1 135/15/1 136/16/1
f 137/13/1 138/14/1 139/15/1 140/16/1
f 141/17/1 142/18/1 143/19/1 144/20/1
f 145/13/1 146/14/1 147/15/1 148/16/1
f 149/13/1 150/14/1 151/15/1 152/16/1
f 153/13/1 154/14/1 155/15/1 156/16/1
f 157/21/1 158/22/1 159/23/1 160/24/1
f 161/17/1 162/18/1 163/19/1 164/20/1
f 165/13/1 166/14/1 167/15/1 168/16/1
f 169/13/1 170/14/1 171/15/1 172/16/1
f 173/13/1 174/14/1 175/15/1 176/16/1
f 177/21/1 178/22/1 179/23/1 180/24/1
f 181/13/1 182/14/1 183/15/1 184/16/1
f 185/13/1 186/14/1 187/15/1 188/16/1
f 189/17/1 190/18/1 191/19/1 192/20/1
f 193/13/1 194/14/1 195/15/1 196/16/1
f 197/13/1 198/14/1 199/15/1 200/16/1
f 201/21/1 202/22/1 203/23/1 204/24/1
f 205/13/1 206/14/1 207/15/1 208/16/1
f 209/13/1 210/14/1 211/15/1 212/16/1
f 213/17/1 214/18/1 215/19/1 216/20/1
f 217/13/1 218/14/1 219/15/1 220/16/1
f 221/13/1 222/14/1 223/15/1 224/16/1
f 225/13/1 226/14/1 227/15/1 228/16/1
f 229/21/1 230/22/1 231/23/1 232/24/1
f 233/17/1 234/18/1 235/19/1 236/20/1
f 237/13/1 238/14/1 239/15/1 240/16/1
f 241/13/1 242/14/1 243/15/1 244/16/1
f 245/13/1 246/14/1 247/15/1 248/16/1
f 249/21/1 250/22/1 251/23/1 252/24/1
f 253/25/1 254/26/1 255/27/1 256/28/1
f 257/25/1 258/26/1 259/27/1 260/28/1
f 261/17/1 262/18/1 263/19/1 264/20/1
f 265/13/1 266/14/1 267/15/1 268/16/1
f 269/13/1 270/14/1 271/15/1 272/16/1
f 273/21/1 274/22/1 275/23/1 276/24/1
f 277/25/1 278/26/1 279/27/1 280/28/1
f 281/25/1 282/26/1 283/27/1 284/28/1
f 285/17/1 286/18/1 287/19/1 288/20/1
f 289/13/1 290/14/1 291/15/1 292/16/1
f 293/13/1 294/14/1 295/15/1 296/16/1
f 297/13/1 298/14/1 299/15/1 300/16/1
f 301/21/1 302/22/1 303/23/1 304/24/1
f 305/29/1 306/30/1 307/31/1 308/32/1
f 309/25/1 310/26/1 311/27/1 312/28/1
f 313/25/1 314/26/1 315/27/1 316/28/1
f 317/25/1 318/26/1 319/27/1 320/28/1
f 321/33/1 322/34/1 323/35/1 324/36/1
f 325/29/1 326/30/1 327/31/1 328/32/1
f 329/25/1 330/26/1 331/27/1 332/28/1
f 333/25/1 334/26/1 335/27/1 336/28/1
f 337/33/1 338/34/1 339/35/1 340/36/1
f 341/29/1 342/30/1 343/31/1 344/32/1
f 345/25/1 346/26/1 347/27/1 348/28/1
f 349/25/1 350/26/1 351/27/1 352/28/1
f 353/25/1 354/26/1 355/27/1 356/28/1
f 357/33/1 358/34/1 359/35/1 360/36/1

