# Tiled2Unity generated file. Do not modify by hand.
# Wavefront file for 'AstralaProper_mesh_0007.obj'

# Vertices (Count = 32)
v -117 -41 0
v -118 -41 0
v -118 -40 0
v -117 -40 0
v -119 -42 0
v -120 -42 0
v -120 -41 0
v -119 -41 0
v -118 -42 0
v -119 -42 0
v -119 -41 0
v -118 -41 0
v -117 -42 0
v -118 -42 0
v -118 -41 0
v -117 -41 0
v -119 -43 0
v -120 -43 0
v -120 -42 0
v -119 -42 0
v -118 -43 0
v -119 -43 0
v -119 -42 0
v -118 -42 0
v -116 -43 0
v -117 -43 0
v -117 -42 0
v -116 -42 0
v -117 -44 0
v -118 -44 0
v -118 -43 0
v -117 -43 0

# Texture cooridinates (Count = 32)
vt 0.005050505 0.002164483
vt 0.3282828 0.002164483
vt 0.3282828 0.1406927
vt 0.005050505 0.1406927
vt 0.3383838 0.002164483
vt 0.6616161 0.002164483
vt 0.6616161 0.1406927
vt 0.3383838 0.1406927
vt 0.6717172 0.2878788
vt 0.9949495 0.2878788
vt 0.9949495 0.4264069
vt 0.6717172 0.4264069
vt 0.005050505 0.1450216
vt 0.3282828 0.1450216
vt 0.3282828 0.2835498
vt 0.005050505 0.2835498
vt 0.6717172 0.8593073
vt 0.9949495 0.8593073
vt 0.9949495 0.9978355
vt 0.6717172 0.9978355
vt 0.6717172 0.4307359
vt 0.9949495 0.4307359
vt 0.9949495 0.5692641
vt 0.6717172 0.5692641
vt 0.005050505 0.8593073
vt 0.3282828 0.8593073
vt 0.3282828 0.9978355
vt 0.005050505 0.9978355
vt 0.6717172 0.5735931
vt 0.9949495 0.5735931
vt 0.9949495 0.7121212
vt 0.6717172 0.7121212

# Normal
vn 0 0 -1

# Mesh description
g AstralaProper_mesh_0007

# Faces
f 1/1/1 2/2/1 3/3/1 4/4/1
f 5/5/1 6/6/1 7/7/1 8/8/1
f 9/9/1 10/10/1 11/11/1 12/12/1
f 13/13/1 14/14/1 15/15/1 16/16/1
f 17/17/1 18/18/1 19/19/1 20/20/1
f 21/21/1 22/22/1 23/23/1 24/24/1
f 25/25/1 26/26/1 27/27/1 28/28/1
f 29/29/1 30/30/1 31/31/1 32/32/1

