# Tiled2Unity generated file. Do not modify by hand.
# Wavefront file for 'AstralaProper_mesh_0008.obj'

# Vertices (Count = 212)
v -100 -52 0
v -101 -52 0
v -101 -51 0
v -100 -51 0
v -80 -52 0
v -81 -52 0
v -81 -51 0
v -80 -51 0
v -100 -53 0
v -101 -53 0
v -101 -52 0
v -100 -52 0
v -80 -53 0
v -81 -53 0
v -81 -52 0
v -80 -52 0
v -100 -54 0
v -101 -54 0
v -101 -53 0
v -100 -53 0
v -80 -54 0
v -81 -54 0
v -81 -53 0
v -80 -53 0
v -100 -55 0
v -101 -55 0
v -101 -54 0
v -100 -54 0
v -80 -55 0
v -81 -55 0
v -81 -54 0
v -80 -54 0
v -100 -56 0
v -101 -56 0
v -101 -55 0
v -100 -55 0
v -80 -56 0
v -81 -56 0
v -81 -55 0
v -80 -55 0
v -100 -57 0
v -101 -57 0
v -101 -56 0
v -100 -56 0
v -80 -57 0
v -81 -57 0
v -81 -56 0
v -80 -56 0
v -100 -58 0
v -101 -58 0
v -101 -57 0
v -100 -57 0
v -80 -58 0
v -81 -58 0
v -81 -57 0
v -80 -57 0
v -100 -59 0
v -101 -59 0
v -101 -58 0
v -100 -58 0
v -80 -59 0
v -81 -59 0
v -81 -58 0
v -80 -58 0
v -100 -60 0
v -101 -60 0
v -101 -59 0
v -100 -59 0
v -80 -60 0
v -81 -60 0
v -81 -59 0
v -80 -59 0
v -100 -61 0
v -101 -61 0
v -101 -60 0
v -100 -60 0
v -80 -61 0
v -81 -61 0
v -81 -60 0
v -80 -60 0
v -100 -62 0
v -101 -62 0
v -101 -61 0
v -100 -61 0
v -80 -62 0
v -81 -62 0
v -81 -61 0
v -80 -61 0
v -100 -63 0
v -101 -63 0
v -101 -62 0
v -100 -62 0
v -80 -63 0
v -81 -63 0
v -81 -62 0
v -80 -62 0
v -100 -64 0
v -101 -64 0
v -101 -63 0
v -100 -63 0
v -80 -64 0
v -81 -64 0
v -81 -63 0
v -80 -63 0
v -100 -65 0
v -101 -65 0
v -101 -64 0
v -100 -64 0
v -80 -65 0
v -81 -65 0
v -81 -64 0
v -80 -64 0
v -100 -66 0
v -101 -66 0
v -101 -65 0
v -100 -65 0
v -80 -66 0
v -81 -66 0
v -81 -65 0
v -80 -65 0
v -100 -67 0
v -101 -67 0
v -101 -66 0
v -100 -66 0
v -80 -67 0
v -81 -67 0
v -81 -66 0
v -80 -66 0
v -100 -68 0
v -101 -68 0
v -101 -67 0
v -100 -67 0
v -80 -68 0
v -81 -68 0
v -81 -67 0
v -80 -67 0
v -100 -69 0
v -101 -69 0
v -101 -68 0
v -100 -68 0
v -80 -69 0
v -81 -69 0
v -81 -68 0
v -80 -68 0
v -100 -70 0
v -101 -70 0
v -101 -69 0
v -100 -69 0
v -80 -70 0
v -81 -70 0
v -81 -69 0
v -80 -69 0
v -100 -71 0
v -101 -71 0
v -101 -70 0
v -100 -70 0
v -99 -71 0
v -100 -71 0
v -100 -70 0
v -99 -70 0
v -92 -71 0
v -93 -71 0
v -93 -70 0
v -92 -70 0
v -91 -71 0
v -92 -71 0
v -92 -70 0
v -91 -70 0
v -90 -71 0
v -91 -71 0
v -91 -70 0
v -90 -70 0
v -89 -71 0
v -90 -71 0
v -90 -70 0
v -89 -70 0
v -88 -71 0
v -89 -71 0
v -89 -70 0
v -88 -70 0
v -87 -71 0
v -88 -71 0
v -88 -70 0
v -87 -70 0
v -86 -71 0
v -87 -71 0
v -87 -70 0
v -86 -70 0
v -85 -71 0
v -86 -71 0
v -86 -70 0
v -85 -70 0
v -84 -71 0
v -85 -71 0
v -85 -70 0
v -84 -70 0
v -83 -71 0
v -84 -71 0
v -84 -70 0
v -83 -70 0
v -82 -71 0
v -83 -71 0
v -83 -70 0
v -82 -70 0
v -81 -71 0
v -82 -71 0
v -82 -70 0
v -81 -70 0
v -80 -71 0
v -81 -71 0
v -81 -70 0
v -80 -70 0

# Texture cooridinates (Count = 28)
vt 0.6717172 0.5025252
vt 0.9949495 0.5025252
vt 0.9949495 0.6641414
vt 0.6717172 0.6641414
vt 0.005050505 0.5025252
vt 0.3282828 0.5025252
vt 0.3282828 0.6641414
vt 0.005050505 0.6641414
vt 0.6717172 0.3358586
vt 0.9949495 0.3358586
vt 0.9949495 0.4974747
vt 0.6717172 0.4974747
vt 0.005050505 0.3358586
vt 0.3282828 0.3358586
vt 0.3282828 0.4974747
vt 0.005050505 0.4974747
vt 0.6717172 0.1691919
vt 0.9949495 0.1691919
vt 0.9949495 0.3308081
vt 0.6717172 0.3308081
vt 0.3383838 0.1691919
vt 0.6616161 0.1691919
vt 0.6616161 0.3308081
vt 0.3383838 0.3308081
vt 0.005050505 0.1691919
vt 0.3282828 0.1691919
vt 0.3282828 0.3308081
vt 0.005050505 0.3308081

# Normal
vn 0 0 -1

# Mesh description
g AstralaProper_mesh_0008

# Faces
f 1/1/1 2/2/1 3/3/1 4/4/1
f 5/5/1 6/6/1 7/7/1 8/8/1
f 9/9/1 10/10/1 11/11/1 12/12/1
f 13/13/1 14/14/1 15/15/1 16/16/1
f 17/9/1 18/10/1 19/11/1 20/12/1
f 21/13/1 22/14/1 23/15/1 24/16/1
f 25/9/1 26/10/1 27/11/1 28/12/1
f 29/13/1 30/14/1 31/15/1 32/16/1
f 33/9/1 34/10/1 35/11/1 36/12/1
f 37/13/1 38/14/1 39/15/1 40/16/1
f 41/9/1 42/10/1 43/11/1 44/12/1
f 45/13/1 46/14/1 47/15/1 48/16/1
f 49/9/1 50/10/1 51/11/1 52/12/1
f 53/13/1 54/14/1 55/15/1 56/16/1
f 57/9/1 58/10/1 59/11/1 60/12/1
f 61/13/1 62/14/1 63/15/1 64/16/1
f 65/9/1 66/10/1 67/11/1 68/12/1
f 69/13/1 70/14/1 71/15/1 72/16/1
f 73/9/1 74/10/1 75/11/1 76/12/1
f 77/13/1 78/14/1 79/15/1 80/16/1
f 81/9/1 82/10/1 83/11/1 84/12/1
f 85/13/1 86/14/1 87/15/1 88/16/1
f 89/9/1 90/10/1 91/11/1 92/12/1
f 93/13/1 94/14/1 95/15/1 96/16/1
f 97/9/1 98/10/1 99/11/1 100/12/1
f 101/13/1 102/14/1 103/15/1 104/16/1
f 105/9/1 106/10/1 107/11/1 108/12/1
f 109/13/1 110/14/1 111/15/1 112/16/1
f 113/9/1 114/10/1 115/11/1 116/12/1
f 117/13/1 118/14/1 119/15/1 120/16/1
f 121/9/1 122/10/1 123/11/1 124/12/1
f 125/13/1 126/14/1 127/15/1 128/16/1
f 129/9/1 130/10/1 131/11/1 132/12/1
f 133/13/1 134/14/1 135/15/1 136/16/1
f 137/9/1 138/10/1 139/11/1 140/12/1
f 141/13/1 142/14/1 143/15/1 144/16/1
f 145/9/1 146/10/1 147/11/1 148/12/1
f 149/13/1 150/14/1 151/15/1 152/16/1
f 153/17/1 154/18/1 155/19/1 156/20/1
f 157/21/1 158/22/1 159/23/1 160/24/1
f 161/21/1 162/22/1 163/23/1 164/24/1
f 165/21/1 166/22/1 167/23/1 168/24/1
f 169/21/1 170/22/1 171/23/1 172/24/1
f 173/21/1 174/22/1 175/23/1 176/24/1
f 177/21/1 178/22/1 179/23/1 180/24/1
f 181/21/1 182/22/1 183/23/1 184/24/1
f 185/21/1 186/22/1 187/23/1 188/24/1
f 189/21/1 190/22/1 191/23/1 192/24/1
f 193/21/1 194/22/1 195/23/1 196/24/1
f 197/21/1 198/22/1 199/23/1 200/24/1
f 201/21/1 202/22/1 203/23/1 204/24/1
f 205/21/1 206/22/1 207/23/1 208/24/1
f 209/25/1 210/26/1 211/27/1 212/28/1

