# Tiled2Unity generated file. Do not modify by hand.
# Wavefront file for 'AstralaProper_mesh_0017.obj'

# Vertices (Count = 668)
v -39 -52 0
v -40 -52 0
v -40 -51 0
v -39 -51 0
v -38 -52 0
v -39 -52 0
v -39 -51 0
v -38 -51 0
v -37 -52 0
v -38 -52 0
v -38 -51 0
v -37 -51 0
v -36 -52 0
v -37 -52 0
v -37 -51 0
v -36 -51 0
v -34 -52 0
v -35 -52 0
v -35 -51 0
v -34 -51 0
v -33 -52 0
v -34 -52 0
v -34 -51 0
v -33 -51 0
v -32 -52 0
v -33 -52 0
v -33 -51 0
v -32 -51 0
v -31 -52 0
v -32 -52 0
v -32 -51 0
v -31 -51 0
v -30 -52 0
v -31 -52 0
v -31 -51 0
v -30 -51 0
v -29 -52 0
v -30 -52 0
v -30 -51 0
v -29 -51 0
v -28 -52 0
v -29 -52 0
v -29 -51 0
v -28 -51 0
v -27 -52 0
v -28 -52 0
v -28 -51 0
v -27 -51 0
v -26 -52 0
v -27 -52 0
v -27 -51 0
v -26 -51 0
v -25 -52 0
v -26 -52 0
v -26 -51 0
v -25 -51 0
v -24 -52 0
v -25 -52 0
v -25 -51 0
v -24 -51 0
v -23 -52 0
v -24 -52 0
v -24 -51 0
v -23 -51 0
v -22 -52 0
v -23 -52 0
v -23 -51 0
v -22 -51 0
v -21 -52 0
v -22 -52 0
v -22 -51 0
v -21 -51 0
v -20 -52 0
v -21 -52 0
v -21 -51 0
v -20 -51 0
v -19 -52 0
v -20 -52 0
v -20 -51 0
v -19 -51 0
v -18 -52 0
v -19 -52 0
v -19 -51 0
v -18 -51 0
v -17 -52 0
v -18 -52 0
v -18 -51 0
v -17 -51 0
v -16 -52 0
v -17 -52 0
v -17 -51 0
v -16 -51 0
v -15 -52 0
v -16 -52 0
v -16 -51 0
v -15 -51 0
v -14 -52 0
v -15 -52 0
v -15 -51 0
v -14 -51 0
v -13 -52 0
v -14 -52 0
v -14 -51 0
v -13 -51 0
v -12 -52 0
v -13 -52 0
v -13 -51 0
v -12 -51 0
v -11 -52 0
v -12 -52 0
v -12 -51 0
v -11 -51 0
v -10 -52 0
v -11 -52 0
v -11 -51 0
v -10 -51 0
v -9 -52 0
v -10 -52 0
v -10 -51 0
v -9 -51 0
v -8 -52 0
v -9 -52 0
v -9 -51 0
v -8 -51 0
v -7 -52 0
v -8 -52 0
v -8 -51 0
v -7 -51 0
v -6 -52 0
v -7 -52 0
v -7 -51 0
v -6 -51 0
v -5 -52 0
v -6 -52 0
v -6 -51 0
v -5 -51 0
v -4 -52 0
v -5 -52 0
v -5 -51 0
v -4 -51 0
v -3 -52 0
v -4 -52 0
v -4 -51 0
v -3 -51 0
v -39 -53 0
v -40 -53 0
v -40 -52 0
v -39 -52 0
v -38 -53 0
v -39 -53 0
v -39 -52 0
v -38 -52 0
v -37 -53 0
v -38 -53 0
v -38 -52 0
v -37 -52 0
v -36 -53 0
v -37 -53 0
v -37 -52 0
v -36 -52 0
v -34 -53 0
v -35 -53 0
v -35 -52 0
v -34 -52 0
v -33 -53 0
v -34 -53 0
v -34 -52 0
v -33 -52 0
v -32 -53 0
v -33 -53 0
v -33 -52 0
v -32 -52 0
v -31 -53 0
v -32 -53 0
v -32 -52 0
v -31 -52 0
v -30 -53 0
v -31 -53 0
v -31 -52 0
v -30 -52 0
v -29 -53 0
v -30 -53 0
v -30 -52 0
v -29 -52 0
v -28 -53 0
v -29 -53 0
v -29 -52 0
v -28 -52 0
v -27 -53 0
v -28 -53 0
v -28 -52 0
v -27 -52 0
v -26 -53 0
v -27 -53 0
v -27 -52 0
v -26 -52 0
v -25 -53 0
v -26 -53 0
v -26 -52 0
v -25 -52 0
v -24 -53 0
v -25 -53 0
v -25 -52 0
v -24 -52 0
v -23 -53 0
v -24 -53 0
v -24 -52 0
v -23 -52 0
v -22 -53 0
v -23 -53 0
v -23 -52 0
v -22 -52 0
v -21 -53 0
v -22 -53 0
v -22 -52 0
v -21 -52 0
v -20 -53 0
v -21 -53 0
v -21 -52 0
v -20 -52 0
v -19 -53 0
v -20 -53 0
v -20 -52 0
v -19 -52 0
v -18 -53 0
v -19 -53 0
v -19 -52 0
v -18 -52 0
v -17 -53 0
v -18 -53 0
v -18 -52 0
v -17 -52 0
v -16 -53 0
v -17 -53 0
v -17 -52 0
v -16 -52 0
v -15 -53 0
v -16 -53 0
v -16 -52 0
v -15 -52 0
v -14 -53 0
v -15 -53 0
v -15 -52 0
v -14 -52 0
v -13 -53 0
v -14 -53 0
v -14 -52 0
v -13 -52 0
v -12 -53 0
v -13 -53 0
v -13 -52 0
v -12 -52 0
v -11 -53 0
v -12 -53 0
v -12 -52 0
v -11 -52 0
v -10 -53 0
v -11 -53 0
v -11 -52 0
v -10 -52 0
v -9 -53 0
v -10 -53 0
v -10 -52 0
v -9 -52 0
v -8 -53 0
v -9 -53 0
v -9 -52 0
v -8 -52 0
v -7 -53 0
v -8 -53 0
v -8 -52 0
v -7 -52 0
v -6 -53 0
v -7 -53 0
v -7 -52 0
v -6 -52 0
v -5 -53 0
v -6 -53 0
v -6 -52 0
v -5 -52 0
v -4 -53 0
v -5 -53 0
v -5 -52 0
v -4 -52 0
v -3 -53 0
v -4 -53 0
v -4 -52 0
v -3 -52 0
v -36 -54 0
v -37 -54 0
v -37 -53 0
v -36 -53 0
v -31 -54 0
v -32 -54 0
v -32 -53 0
v -31 -53 0
v -27 -54 0
v -28 -54 0
v -28 -53 0
v -27 -53 0
v -23 -54 0
v -24 -54 0
v -24 -53 0
v -23 -53 0
v -19 -54 0
v -20 -54 0
v -20 -53 0
v -19 -53 0
v -15 -54 0
v -16 -54 0
v -16 -53 0
v -15 -53 0
v -11 -54 0
v -12 -54 0
v -12 -53 0
v -11 -53 0
v -7 -54 0
v -8 -54 0
v -8 -53 0
v -7 -53 0
v -3 -54 0
v -4 -54 0
v -4 -53 0
v -3 -53 0
v -39 -79 0
v -40 -79 0
v -40 -78 0
v -39 -78 0
v -38 -79 0
v -39 -79 0
v -39 -78 0
v -38 -78 0
v -37 -79 0
v -38 -79 0
v -38 -78 0
v -37 -78 0
v -36 -79 0
v -37 -79 0
v -37 -78 0
v -36 -78 0
v -34 -79 0
v -35 -79 0
v -35 -78 0
v -34 -78 0
v -33 -79 0
v -34 -79 0
v -34 -78 0
v -33 -78 0
v -32 -79 0
v -33 -79 0
v -33 -78 0
v -32 -78 0
v -31 -79 0
v -32 -79 0
v -32 -78 0
v -31 -78 0
v -30 -79 0
v -31 -79 0
v -31 -78 0
v -30 -78 0
v -29 -79 0
v -30 -79 0
v -30 -78 0
v -29 -78 0
v -28 -79 0
v -29 -79 0
v -29 -78 0
v -28 -78 0
v -27 -79 0
v -28 -79 0
v -28 -78 0
v -27 -78 0
v -26 -79 0
v -27 -79 0
v -27 -78 0
v -26 -78 0
v -25 -79 0
v -26 -79 0
v -26 -78 0
v -25 -78 0
v -24 -79 0
v -25 -79 0
v -25 -78 0
v -24 -78 0
v -23 -79 0
v -24 -79 0
v -24 -78 0
v -23 -78 0
v -22 -79 0
v -23 -79 0
v -23 -78 0
v -22 -78 0
v -21 -79 0
v -22 -79 0
v -22 -78 0
v -21 -78 0
v -20 -79 0
v -21 -79 0
v -21 -78 0
v -20 -78 0
v -19 -79 0
v -20 -79 0
v -20 -78 0
v -19 -78 0
v -18 -79 0
v -19 -79 0
v -19 -78 0
v -18 -78 0
v -17 -79 0
v -18 -79 0
v -18 -78 0
v -17 -78 0
v -16 -79 0
v -17 -79 0
v -17 -78 0
v -16 -78 0
v -15 -79 0
v -16 -79 0
v -16 -78 0
v -15 -78 0
v -14 -79 0
v -15 -79 0
v -15 -78 0
v -14 -78 0
v -13 -79 0
v -14 -79 0
v -14 -78 0
v -13 -78 0
v -12 -79 0
v -13 -79 0
v -13 -78 0
v -12 -78 0
v -11 -79 0
v -12 -79 0
v -12 -78 0
v -11 -78 0
v -10 -79 0
v -11 -79 0
v -11 -78 0
v -10 -78 0
v -9 -79 0
v -10 -79 0
v -10 -78 0
v -9 -78 0
v -8 -79 0
v -9 -79 0
v -9 -78 0
v -8 -78 0
v -7 -79 0
v -8 -79 0
v -8 -78 0
v -7 -78 0
v -6 -79 0
v -7 -79 0
v -7 -78 0
v -6 -78 0
v -5 -79 0
v -6 -79 0
v -6 -78 0
v -5 -78 0
v -4 -79 0
v -5 -79 0
v -5 -78 0
v -4 -78 0
v -3 -79 0
v -4 -79 0
v -4 -78 0
v -3 -78 0
v -39 -80 0
v -40 -80 0
v -40 -79 0
v -39 -79 0
v -38 -80 0
v -39 -80 0
v -39 -79 0
v -38 -79 0
v -37 -80 0
v -38 -80 0
v -38 -79 0
v -37 -79 0
v -36 -80 0
v -37 -80 0
v -37 -79 0
v -36 -79 0
v -34 -80 0
v -35 -80 0
v -35 -79 0
v -34 -79 0
v -33 -80 0
v -34 -80 0
v -34 -79 0
v -33 -79 0
v -32 -80 0
v -33 -80 0
v -33 -79 0
v -32 -79 0
v -31 -80 0
v -32 -80 0
v -32 -79 0
v -31 -79 0
v -30 -80 0
v -31 -80 0
v -31 -79 0
v -30 -79 0
v -29 -80 0
v -30 -80 0
v -30 -79 0
v -29 -79 0
v -28 -80 0
v -29 -80 0
v -29 -79 0
v -28 -79 0
v -27 -80 0
v -28 -80 0
v -28 -79 0
v -27 -79 0
v -26 -80 0
v -27 -80 0
v -27 -79 0
v -26 -79 0
v -25 -80 0
v -26 -80 0
v -26 -79 0
v -25 -79 0
v -24 -80 0
v -25 -80 0
v -25 -79 0
v -24 -79 0
v -23 -80 0
v -24 -80 0
v -24 -79 0
v -23 -79 0
v -22 -80 0
v -23 -80 0
v -23 -79 0
v -22 -79 0
v -21 -80 0
v -22 -80 0
v -22 -79 0
v -21 -79 0
v -20 -80 0
v -21 -80 0
v -21 -79 0
v -20 -79 0
v -19 -80 0
v -20 -80 0
v -20 -79 0
v -19 -79 0
v -18 -80 0
v -19 -80 0
v -19 -79 0
v -18 -79 0
v -17 -80 0
v -18 -80 0
v -18 -79 0
v -17 -79 0
v -16 -80 0
v -17 -80 0
v -17 -79 0
v -16 -79 0
v -15 -80 0
v -16 -80 0
v -16 -79 0
v -15 -79 0
v -14 -80 0
v -15 -80 0
v -15 -79 0
v -14 -79 0
v -13 -80 0
v -14 -80 0
v -14 -79 0
v -13 -79 0
v -12 -80 0
v -13 -80 0
v -13 -79 0
v -12 -79 0
v -11 -80 0
v -12 -80 0
v -12 -79 0
v -11 -79 0
v -10 -80 0
v -11 -80 0
v -11 -79 0
v -10 -79 0
v -9 -80 0
v -10 -80 0
v -10 -79 0
v -9 -79 0
v -8 -80 0
v -9 -80 0
v -9 -79 0
v -8 -79 0
v -7 -80 0
v -8 -80 0
v -8 -79 0
v -7 -79 0
v -6 -80 0
v -7 -80 0
v -7 -79 0
v -6 -79 0
v -5 -80 0
v -6 -80 0
v -6 -79 0
v -5 -79 0
v -4 -80 0
v -5 -80 0
v -5 -79 0
v -4 -79 0
v -3 -80 0
v -4 -80 0
v -4 -79 0
v -3 -79 0
v -36 -81 0
v -37 -81 0
v -37 -80 0
v -36 -80 0
v -31 -81 0
v -32 -81 0
v -32 -80 0
v -31 -80 0
v -27 -81 0
v -28 -81 0
v -28 -80 0
v -27 -80 0
v -23 -81 0
v -24 -81 0
v -24 -80 0
v -23 -80 0
v -19 -81 0
v -20 -81 0
v -20 -80 0
v -19 -80 0
v -15 -81 0
v -16 -81 0
v -16 -80 0
v -15 -80 0
v -11 -81 0
v -12 -81 0
v -12 -80 0
v -11 -80 0
v -7 -81 0
v -8 -81 0
v -8 -80 0
v -7 -80 0
v -3 -81 0
v -4 -81 0
v -4 -80 0
v -3 -80 0
v -127 -84 0
v -128 -84 0
v -128 -83 0
v -127 -83 0
v -127 -85 0
v -128 -85 0
v -128 -84 0
v -127 -84 0
v -127 -86 0
v -128 -86 0
v -128 -85 0
v -127 -85 0
v -127 -87 0
v -128 -87 0
v -128 -86 0
v -127 -86 0
v -127 -88 0
v -128 -88 0
v -128 -87 0
v -127 -87 0

# Texture cooridinates (Count = 16)
vt 0.01515152 0.6683502
vt 0.9848485 0.6683502
vt 0.9848485 0.7760943
vt 0.01515152 0.7760943
vt 0.01515152 0.446128
vt 0.9848485 0.446128
vt 0.9848485 0.553872
vt 0.01515152 0.553872
vt 0.01515152 0.5572391
vt 0.9848485 0.5572391
vt 0.9848485 0.6649832
vt 0.01515152 0.6649832
vt 0.01515152 0.1127946
vt 0.9848485 0.1127946
vt 0.9848485 0.2205387
vt 0.01515152 0.2205387

# Normal
vn 0 0 -1

# Mesh description
g AstralaProper_mesh_0017

# Faces
f 1/1/1 2/2/1 3/3/1 4/4/1
f 5/1/1 6/2/1 7/3/1 8/4/1
f 9/1/1 10/2/1 11/3/1 12/4/1
f 13/1/1 14/2/1 15/3/1 16/4/1
f 17/1/1 18/2/1 19/3/1 20/4/1
f 21/1/1 22/2/1 23/3/1 24/4/1
f 25/1/1 26/2/1 27/3/1 28/4/1
f 29/1/1 30/2/1 31/3/1 32/4/1
f 33/1/1 34/2/1 35/3/1 36/4/1
f 37/1/1 38/2/1 39/3/1 40/4/1
f 41/1/1 42/2/1 43/3/1 44/4/1
f 45/1/1 46/2/1 47/3/1 48/4/1
f 49/1/1 50/2/1 51/3/1 52/4/1
f 53/1/1 54/2/1 55/3/1 56/4/1
f 57/1/1 58/2/1 59/3/1 60/4/1
f 61/1/1 62/2/1 63/3/1 64/4/1
f 65/1/1 66/2/1 67/3/1 68/4/1
f 69/1/1 70/2/1 71/3/1 72/4/1
f 73/1/1 74/2/1 75/3/1 76/4/1
f 77/1/1 78/2/1 79/3/1 80/4/1
f 81/1/1 82/2/1 83/3/1 84/4/1
f 85/1/1 86/2/1 87/3/1 88/4/1
f 89/1/1 90/2/1 91/3/1 92/4/1
f 93/1/1 94/2/1 95/3/1 96/4/1
f 97/1/1 98/2/1 99/3/1 100/4/1
f 101/1/1 102/2/1 103/3/1 104/4/1
f 105/1/1 106/2/1 107/3/1 108/4/1
f 109/1/1 110/2/1 111/3/1 112/4/1
f 113/1/1 114/2/1 115/3/1 116/4/1
f 117/1/1 118/2/1 119/3/1 120/4/1
f 121/1/1 122/2/1 123/3/1 124/4/1
f 125/1/1 126/2/1 127/3/1 128/4/1
f 129/1/1 130/2/1 131/3/1 132/4/1
f 133/1/1 134/2/1 135/3/1 136/4/1
f 137/1/1 138/2/1 139/3/1 140/4/1
f 141/1/1 142/2/1 143/3/1 144/4/1
f 145/1/1 146/2/1 147/3/1 148/4/1
f 149/1/1 150/2/1 151/3/1 152/4/1
f 153/1/1 154/2/1 155/3/1 156/4/1
f 157/1/1 158/2/1 159/3/1 160/4/1
f 161/1/1 162/2/1 163/3/1 164/4/1
f 165/1/1 166/2/1 167/3/1 168/4/1
f 169/1/1 170/2/1 171/3/1 172/4/1
f 173/1/1 174/2/1 175/3/1 176/4/1
f 177/1/1 178/2/1 179/3/1 180/4/1
f 181/1/1 182/2/1 183/3/1 184/4/1
f 185/1/1 186/2/1 187/3/1 188/4/1
f 189/1/1 190/2/1 191/3/1 192/4/1
f 193/1/1 194/2/1 195/3/1 196/4/1
f 197/1/1 198/2/1 199/3/1 200/4/1
f 201/1/1 202/2/1 203/3/1 204/4/1
f 205/1/1 206/2/1 207/3/1 208/4/1
f 209/1/1 210/2/1 211/3/1 212/4/1
f 213/1/1 214/2/1 215/3/1 216/4/1
f 217/1/1 218/2/1 219/3/1 220/4/1
f 221/1/1 222/2/1 223/3/1 224/4/1
f 225/1/1 226/2/1 227/3/1 228/4/1
f 229/1/1 230/2/1 231/3/1 232/4/1
f 233/1/1 234/2/1 235/3/1 236/4/1
f 237/1/1 238/2/1 239/3/1 240/4/1
f 241/1/1 242/2/1 243/3/1 244/4/1
f 245/1/1 246/2/1 247/3/1 248/4/1
f 249/1/1 250/2/1 251/3/1 252/4/1
f 253/1/1 254/2/1 255/3/1 256/4/1
f 257/1/1 258/2/1 259/3/1 260/4/1
f 261/1/1 262/2/1 263/3/1 264/4/1
f 265/1/1 266/2/1 267/3/1 268/4/1
f 269/1/1 270/2/1 271/3/1 272/4/1
f 273/1/1 274/2/1 275/3/1 276/4/1
f 277/1/1 278/2/1 279/3/1 280/4/1
f 281/1/1 282/2/1 283/3/1 284/4/1
f 285/1/1 286/2/1 287/3/1 288/4/1
f 289/5/1 290/6/1 291/7/1 292/8/1
f 293/5/1 294/6/1 295/7/1 296/8/1
f 297/5/1 298/6/1 299/7/1 300/8/1
f 301/5/1 302/6/1 303/7/1 304/8/1
f 305/5/1 306/6/1 307/7/1 308/8/1
f 309/5/1 310/6/1 311/7/1 312/8/1
f 313/5/1 314/6/1 315/7/1 316/8/1
f 317/5/1 318/6/1 319/7/1 320/8/1
f 321/5/1 322/6/1 323/7/1 324/8/1
f 325/1/1 326/2/1 327/3/1 328/4/1
f 329/1/1 330/2/1 331/3/1 332/4/1
f 333/1/1 334/2/1 335/3/1 336/4/1
f 337/1/1 338/2/1 339/3/1 340/4/1
f 341/1/1 342/2/1 343/3/1 344/4/1
f 345/1/1 346/2/1 347/3/1 348/4/1
f 349/1/1 350/2/1 351/3/1 352/4/1
f 353/1/1 354/2/1 355/3/1 356/4/1
f 357/1/1 358/2/1 359/3/1 360/4/1
f 361/1/1 362/2/1 363/3/1 364/4/1
f 365/1/1 366/2/1 367/3/1 368/4/1
f 369/1/1 370/2/1 371/3/1 372/4/1
f 373/1/1 374/2/1 375/3/1 376/4/1
f 377/1/1 378/2/1 379/3/1 380/4/1
f 381/1/1 382/2/1 383/3/1 384/4/1
f 385/1/1 386/2/1 387/3/1 388/4/1
f 389/1/1 390/2/1 391/3/1 392/4/1
f 393/1/1 394/2/1 395/3/1 396/4/1
f 397/1/1 398/2/1 399/3/1 400/4/1
f 401/1/1 402/2/1 403/3/1 404/4/1
f 405/1/1 406/2/1 407/3/1 408/4/1
f 409/1/1 410/2/1 411/3/1 412/4/1
f 413/1/1 414/2/1 415/3/1 416/4/1
f 417/1/1 418/2/1 419/3/1 420/4/1
f 421/1/1 422/2/1 423/3/1 424/4/1
f 425/1/1 426/2/1 427/3/1 428/4/1
f 429/1/1 430/2/1 431/3/1 432/4/1
f 433/1/1 434/2/1 435/3/1 436/4/1
f 437/1/1 438/2/1 439/3/1 440/4/1
f 441/1/1 442/2/1 443/3/1 444/4/1
f 445/1/1 446/2/1 447/3/1 448/4/1
f 449/1/1 450/2/1 451/3/1 452/4/1
f 453/1/1 454/2/1 455/3/1 456/4/1
f 457/1/1 458/2/1 459/3/1 460/4/1
f 461/1/1 462/2/1 463/3/1 464/4/1
f 465/1/1 466/2/1 467/3/1 468/4/1
f 469/1/1 470/2/1 471/3/1 472/4/1
f 473/1/1 474/2/1 475/3/1 476/4/1
f 477/1/1 478/2/1 479/3/1 480/4/1
f 481/1/1 482/2/1 483/3/1 484/4/1
f 485/1/1 486/2/1 487/3/1 488/4/1
f 489/1/1 490/2/1 491/3/1 492/4/1
f 493/1/1 494/2/1 495/3/1 496/4/1
f 497/1/1 498/2/1 499/3/1 500/4/1
f 501/1/1 502/2/1 503/3/1 504/4/1
f 505/1/1 506/2/1 507/3/1 508/4/1
f 509/1/1 510/2/1 511/3/1 512/4/1
f 513/1/1 514/2/1 515/3/1 516/4/1
f 517/1/1 518/2/1 519/3/1 520/4/1
f 521/1/1 522/2/1 523/3/1 524/4/1
f 525/1/1 526/2/1 527/3/1 528/4/1
f 529/1/1 530/2/1 531/3/1 532/4/1
f 533/1/1 534/2/1 535/3/1 536/4/1
f 537/1/1 538/2/1 539/3/1 540/4/1
f 541/1/1 542/2/1 543/3/1 544/4/1
f 545/1/1 546/2/1 547/3/1 548/4/1
f 549/1/1 550/2/1 551/3/1 552/4/1
f 553/1/1 554/2/1 555/3/1 556/4/1
f 557/1/1 558/2/1 559/3/1 560/4/1
f 561/1/1 562/2/1 563/3/1 564/4/1
f 565/1/1 566/2/1 567/3/1 568/4/1
f 569/1/1 570/2/1 571/3/1 572/4/1
f 573/1/1 574/2/1 575/3/1 576/4/1
f 577/1/1 578/2/1 579/3/1 580/4/1
f 581/1/1 582/2/1 583/3/1 584/4/1
f 585/1/1 586/2/1 587/3/1 588/4/1
f 589/1/1 590/2/1 591/3/1 592/4/1
f 593/1/1 594/2/1 595/3/1 596/4/1
f 597/1/1 598/2/1 599/3/1 600/4/1
f 601/1/1 602/2/1 603/3/1 604/4/1
f 605/1/1 606/2/1 607/3/1 608/4/1
f 609/1/1 610/2/1 611/3/1 612/4/1
f 613/5/1 614/6/1 615/7/1 616/8/1
f 617/5/1 618/6/1 619/7/1 620/8/1
f 621/5/1 622/6/1 623/7/1 624/8/1
f 625/5/1 626/6/1 627/7/1 628/8/1
f 629/5/1 630/6/1 631/7/1 632/8/1
f 633/5/1 634/6/1 635/7/1 636/8/1
f 637/5/1 638/6/1 639/7/1 640/8/1
f 641/5/1 642/6/1 643/7/1 644/8/1
f 645/5/1 646/6/1 647/7/1 648/8/1
f 649/1/1 650/2/1 651/3/1 652/4/1
f 653/1/1 654/2/1 655/3/1 656/4/1
f 657/9/1 658/10/1 659/11/1 660/12/1
f 661/5/1 662/6/1 663/7/1 664/8/1
f 665/13/1 666/14/1 667/15/1 668/16/1

