# Tiled2Unity generated file. Do not modify by hand.
# Wavefront file for 'AstralaProper_mesh_0027.obj'

# Vertices (Count = 808)
v -132 -1 0
v -133 -1 0
v -133 0 0
v -132 0 0
v -131 -1 0
v -132 -1 0
v -132 0 0
v -131 0 0
v -127 -1 0
v -128 -1 0
v -128 0 0
v -127 0 0
v -126 -1 0
v -127 -1 0
v -127 0 0
v -126 0 0
v -107 -1 0
v -108 -1 0
v -108 0 0
v -107 0 0
v -132 -2 0
v -133 -2 0
v -133 -1 0
v -132 -1 0
v -131 -2 0
v -132 -2 0
v -132 -1 0
v -131 -1 0
v -127 -2 0
v -128 -2 0
v -128 -1 0
v -127 -1 0
v -126 -2 0
v -127 -2 0
v -127 -1 0
v -126 -1 0
v -107 -2 0
v -108 -2 0
v -108 -1 0
v -107 -1 0
v -131 -3 0
v -132 -3 0
v -132 -2 0
v -131 -2 0
v -127 -3 0
v -128 -3 0
v -128 -2 0
v -127 -2 0
v -126 -3 0
v -127 -3 0
v -127 -2 0
v -126 -2 0
v -107 -3 0
v -108 -3 0
v -108 -2 0
v -107 -2 0
v -131 -4 0
v -132 -4 0
v -132 -3 0
v -131 -3 0
v -127 -4 0
v -128 -4 0
v -128 -3 0
v -127 -3 0
v -107 -4 0
v -108 -4 0
v -108 -3 0
v -107 -3 0
v -131 -5 0
v -132 -5 0
v -132 -4 0
v -131 -4 0
v -115 -5 0
v -116 -5 0
v -116 -4 0
v -115 -4 0
v -107 -5 0
v -108 -5 0
v -108 -4 0
v -107 -4 0
v -131 -6 0
v -132 -6 0
v -132 -5 0
v -131 -5 0
v -115 -6 0
v -116 -6 0
v -116 -5 0
v -115 -5 0
v -131 -7 0
v -132 -7 0
v -132 -6 0
v -131 -6 0
v -128 -7 0
v -129 -7 0
v -129 -6 0
v -128 -6 0
v -115 -7 0
v -116 -7 0
v -116 -6 0
v -115 -6 0
v -131 -8 0
v -132 -8 0
v -132 -7 0
v -131 -7 0
v -128 -8 0
v -129 -8 0
v -129 -7 0
v -128 -7 0
v -115 -8 0
v -116 -8 0
v -116 -7 0
v -115 -7 0
v -107 -8 0
v -108 -8 0
v -108 -7 0
v -107 -7 0
v -128 -9 0
v -129 -9 0
v -129 -8 0
v -128 -8 0
v -115 -9 0
v -116 -9 0
v -116 -8 0
v -115 -8 0
v -107 -9 0
v -108 -9 0
v -108 -8 0
v -107 -8 0
v -128 -10 0
v -129 -10 0
v -129 -9 0
v -128 -9 0
v -115 -10 0
v -116 -10 0
v -116 -9 0
v -115 -9 0
v -107 -10 0
v -108 -10 0
v -108 -9 0
v -107 -9 0
v -132 -11 0
v -133 -11 0
v -133 -10 0
v -132 -10 0
v -128 -11 0
v -129 -11 0
v -129 -10 0
v -128 -10 0
v -115 -11 0
v -116 -11 0
v -116 -10 0
v -115 -10 0
v -107 -11 0
v -108 -11 0
v -108 -10 0
v -107 -10 0
v -132 -12 0
v -133 -12 0
v -133 -11 0
v -132 -11 0
v -131 -12 0
v -132 -12 0
v -132 -11 0
v -131 -11 0
v -128 -12 0
v -129 -12 0
v -129 -11 0
v -128 -11 0
v -115 -12 0
v -116 -12 0
v -116 -11 0
v -115 -11 0
v -107 -12 0
v -108 -12 0
v -108 -11 0
v -107 -11 0
v -132 -13 0
v -133 -13 0
v -133 -12 0
v -132 -12 0
v -131 -13 0
v -132 -13 0
v -132 -12 0
v -131 -12 0
v -128 -13 0
v -129 -13 0
v -129 -12 0
v -128 -12 0
v -115 -13 0
v -116 -13 0
v -116 -12 0
v -115 -12 0
v -107 -13 0
v -108 -13 0
v -108 -12 0
v -107 -12 0
v -132 -14 0
v -133 -14 0
v -133 -13 0
v -132 -13 0
v -131 -14 0
v -132 -14 0
v -132 -13 0
v -131 -13 0
v -128 -14 0
v -129 -14 0
v -129 -13 0
v -128 -13 0
v -115 -14 0
v -116 -14 0
v -116 -13 0
v -115 -13 0
v -107 -14 0
v -108 -14 0
v -108 -13 0
v -107 -13 0
v -132 -15 0
v -133 -15 0
v -133 -14 0
v -132 -14 0
v -131 -15 0
v -132 -15 0
v -132 -14 0
v -131 -14 0
v -128 -15 0
v -129 -15 0
v -129 -14 0
v -128 -14 0
v -115 -15 0
v -116 -15 0
v -116 -14 0
v -115 -14 0
v -107 -15 0
v -108 -15 0
v -108 -14 0
v -107 -14 0
v -131 -16 0
v -132 -16 0
v -132 -15 0
v -131 -15 0
v -128 -16 0
v -129 -16 0
v -129 -15 0
v -128 -15 0
v -115 -16 0
v -116 -16 0
v -116 -15 0
v -115 -15 0
v -107 -16 0
v -108 -16 0
v -108 -15 0
v -107 -15 0
v -131 -17 0
v -132 -17 0
v -132 -16 0
v -131 -16 0
v -128 -17 0
v -129 -17 0
v -129 -16 0
v -128 -16 0
v -115 -17 0
v -116 -17 0
v -116 -16 0
v -115 -16 0
v -107 -17 0
v -108 -17 0
v -108 -16 0
v -107 -16 0
v -131 -18 0
v -132 -18 0
v -132 -17 0
v -131 -17 0
v -107 -18 0
v -108 -18 0
v -108 -17 0
v -107 -17 0
v -131 -19 0
v -132 -19 0
v -132 -18 0
v -131 -18 0
v -107 -19 0
v -108 -19 0
v -108 -18 0
v -107 -18 0
v -131 -20 0
v -132 -20 0
v -132 -19 0
v -131 -19 0
v -107 -20 0
v -108 -20 0
v -108 -19 0
v -107 -19 0
v -131 -21 0
v -132 -21 0
v -132 -20 0
v -131 -20 0
v -107 -21 0
v -108 -21 0
v -108 -20 0
v -107 -20 0
v -131 -22 0
v -132 -22 0
v -132 -21 0
v -131 -21 0
v -107 -22 0
v -108 -22 0
v -108 -21 0
v -107 -21 0
v -107 -23 0
v -108 -23 0
v -108 -22 0
v -107 -22 0
v -107 -24 0
v -108 -24 0
v -108 -23 0
v -107 -23 0
v -132 -25 0
v -133 -25 0
v -133 -24 0
v -132 -24 0
v -107 -25 0
v -108 -25 0
v -108 -24 0
v -107 -24 0
v -132 -26 0
v -133 -26 0
v -133 -25 0
v -132 -25 0
v -131 -26 0
v -132 -26 0
v -132 -25 0
v -131 -25 0
v -107 -26 0
v -108 -26 0
v -108 -25 0
v -107 -25 0
v -132 -27 0
v -133 -27 0
v -133 -26 0
v -132 -26 0
v -131 -27 0
v -132 -27 0
v -132 -26 0
v -131 -26 0
v -107 -27 0
v -108 -27 0
v -108 -26 0
v -107 -26 0
v -132 -28 0
v -133 -28 0
v -133 -27 0
v -132 -27 0
v -131 -28 0
v -132 -28 0
v -132 -27 0
v -131 -27 0
v -107 -28 0
v -108 -28 0
v -108 -27 0
v -107 -27 0
v -132 -29 0
v -133 -29 0
v -133 -28 0
v -132 -28 0
v -131 -29 0
v -132 -29 0
v -132 -28 0
v -131 -28 0
v -107 -29 0
v -108 -29 0
v -108 -28 0
v -107 -28 0
v -131 -30 0
v -132 -30 0
v -132 -29 0
v -131 -29 0
v -107 -30 0
v -108 -30 0
v -108 -29 0
v -107 -29 0
v -131 -31 0
v -132 -31 0
v -132 -30 0
v -131 -30 0
v -107 -31 0
v -108 -31 0
v -108 -30 0
v -107 -30 0
v -131 -32 0
v -132 -32 0
v -132 -31 0
v -131 -31 0
v -107 -32 0
v -108 -32 0
v -108 -31 0
v -107 -31 0
v -131 -33 0
v -132 -33 0
v -132 -32 0
v -131 -32 0
v -107 -33 0
v -108 -33 0
v -108 -32 0
v -107 -32 0
v -76 -33 0
v -77 -33 0
v -77 -32 0
v -76 -32 0
v -131 -34 0
v -132 -34 0
v -132 -33 0
v -131 -33 0
v -107 -34 0
v -108 -34 0
v -108 -33 0
v -107 -33 0
v -76 -34 0
v -77 -34 0
v -77 -33 0
v -76 -33 0
v -131 -35 0
v -132 -35 0
v -132 -34 0
v -131 -34 0
v -107 -35 0
v -108 -35 0
v -108 -34 0
v -107 -34 0
v -76 -35 0
v -77 -35 0
v -77 -34 0
v -76 -34 0
v -131 -36 0
v -132 -36 0
v -132 -35 0
v -131 -35 0
v -107 -36 0
v -108 -36 0
v -108 -35 0
v -107 -35 0
v -76 -36 0
v -77 -36 0
v -77 -35 0
v -76 -35 0
v -107 -37 0
v -108 -37 0
v -108 -36 0
v -107 -36 0
v -76 -37 0
v -77 -37 0
v -77 -36 0
v -76 -36 0
v -76 -38 0
v -77 -38 0
v -77 -37 0
v -76 -37 0
v -76 -39 0
v -77 -39 0
v -77 -38 0
v -76 -38 0
v -76 -40 0
v -77 -40 0
v -77 -39 0
v -76 -39 0
v -76 -41 0
v -77 -41 0
v -77 -40 0
v -76 -40 0
v -76 -42 0
v -77 -42 0
v -77 -41 0
v -76 -41 0
v -76 -43 0
v -77 -43 0
v -77 -42 0
v -76 -42 0
v -76 -44 0
v -77 -44 0
v -77 -43 0
v -76 -43 0
v -144 -49 0
v -145 -49 0
v -145 -48 0
v -144 -48 0
v -149 -50 0
v -150 -50 0
v -150 -49 0
v -149 -49 0
v -148 -50 0
v -149 -50 0
v -149 -49 0
v -148 -49 0
v -147 -50 0
v -148 -50 0
v -148 -49 0
v -147 -49 0
v -144 -50 0
v -145 -50 0
v -145 -49 0
v -144 -49 0
v -86 -50 0
v -87 -50 0
v -87 -49 0
v -86 -49 0
v -149 -51 0
v -150 -51 0
v -150 -50 0
v -149 -50 0
v -148 -51 0
v -149 -51 0
v -149 -50 0
v -148 -50 0
v -144 -51 0
v -145 -51 0
v -145 -50 0
v -144 -50 0
v -86 -51 0
v -87 -51 0
v -87 -50 0
v -86 -50 0
v -149 -52 0
v -150 -52 0
v -150 -51 0
v -149 -51 0
v -144 -52 0
v -145 -52 0
v -145 -51 0
v -144 -51 0
v -100 -52 0
v -101 -52 0
v -101 -51 0
v -100 -51 0
v -86 -52 0
v -87 -52 0
v -87 -51 0
v -86 -51 0
v -149 -53 0
v -150 -53 0
v -150 -52 0
v -149 -52 0
v -144 -53 0
v -145 -53 0
v -145 -52 0
v -144 -52 0
v -100 -53 0
v -101 -53 0
v -101 -52 0
v -100 -52 0
v -86 -53 0
v -87 -53 0
v -87 -52 0
v -86 -52 0
v -149 -54 0
v -150 -54 0
v -150 -53 0
v -149 -53 0
v -144 -54 0
v -145 -54 0
v -145 -53 0
v -144 -53 0
v -100 -54 0
v -101 -54 0
v -101 -53 0
v -100 -53 0
v -86 -54 0
v -87 -54 0
v -87 -53 0
v -86 -53 0
v -100 -55 0
v -101 -55 0
v -101 -54 0
v -100 -54 0
v -86 -55 0
v -87 -55 0
v -87 -54 0
v -86 -54 0
v -154 -56 0
v -155 -56 0
v -155 -55 0
v -154 -55 0
v -100 -56 0
v -101 -56 0
v -101 -55 0
v -100 -55 0
v -86 -56 0
v -87 -56 0
v -87 -55 0
v -86 -55 0
v -154 -57 0
v -155 -57 0
v -155 -56 0
v -154 -56 0
v -100 -57 0
v -101 -57 0
v -101 -56 0
v -100 -56 0
v -154 -58 0
v -155 -58 0
v -155 -57 0
v -154 -57 0
v -100 -58 0
v -101 -58 0
v -101 -57 0
v -100 -57 0
v -154 -59 0
v -155 -59 0
v -155 -58 0
v -154 -58 0
v -100 -59 0
v -101 -59 0
v -101 -58 0
v -100 -58 0
v -154 -60 0
v -155 -60 0
v -155 -59 0
v -154 -59 0
v -100 -60 0
v -101 -60 0
v -101 -59 0
v -100 -59 0
v -154 -61 0
v -155 -61 0
v -155 -60 0
v -154 -60 0
v -149 -61 0
v -150 -61 0
v -150 -60 0
v -149 -60 0
v -100 -61 0
v -101 -61 0
v -101 -60 0
v -100 -60 0
v -154 -62 0
v -155 -62 0
v -155 -61 0
v -154 -61 0
v -149 -62 0
v -150 -62 0
v -150 -61 0
v -149 -61 0
v -100 -62 0
v -101 -62 0
v -101 -61 0
v -100 -61 0
v -154 -63 0
v -155 -63 0
v -155 -62 0
v -154 -62 0
v -149 -63 0
v -150 -63 0
v -150 -62 0
v -149 -62 0
v -100 -63 0
v -101 -63 0
v -101 -62 0
v -100 -62 0
v -149 -64 0
v -150 -64 0
v -150 -63 0
v -149 -63 0
v -100 -64 0
v -101 -64 0
v -101 -63 0
v -100 -63 0
v -149 -65 0
v -150 -65 0
v -150 -64 0
v -149 -64 0
v -100 -65 0
v -101 -65 0
v -101 -64 0
v -100 -64 0
v -149 -66 0
v -150 -66 0
v -150 -65 0
v -149 -65 0
v -100 -66 0
v -101 -66 0
v -101 -65 0
v -100 -65 0
v -149 -67 0
v -150 -67 0
v -150 -66 0
v -149 -66 0
v -100 -67 0
v -101 -67 0
v -101 -66 0
v -100 -66 0
v -149 -68 0
v -150 -68 0
v -150 -67 0
v -149 -67 0
v -100 -68 0
v -101 -68 0
v -101 -67 0
v -100 -67 0
v -99 -68 0
v -100 -68 0
v -100 -67 0
v -99 -67 0
v -149 -69 0
v -150 -69 0
v -150 -68 0
v -149 -68 0
v -100 -69 0
v -101 -69 0
v -101 -68 0
v -100 -68 0
v -99 -69 0
v -100 -69 0
v -100 -68 0
v -99 -68 0
v -99 -70 0
v -100 -70 0
v -100 -69 0
v -99 -69 0
v -99 -71 0
v -100 -71 0
v -100 -70 0
v -99 -70 0
v -128 -78 0
v -129 -78 0
v -129 -77 0
v -128 -77 0
v -128 -79 0
v -129 -79 0
v -129 -78 0
v -128 -78 0
v -128 -80 0
v -129 -80 0
v -129 -79 0
v -128 -79 0
v -128 -81 0
v -129 -81 0
v -129 -80 0
v -128 -80 0
v -114 -81 0
v -115 -81 0
v -115 -80 0
v -114 -80 0
v -128 -82 0
v -129 -82 0
v -129 -81 0
v -128 -81 0
v -114 -82 0
v -115 -82 0
v -115 -81 0
v -114 -81 0
v -128 -83 0
v -129 -83 0
v -129 -82 0
v -128 -82 0
v -120 -83 0
v -121 -83 0
v -121 -82 0
v -120 -82 0
v -114 -83 0
v -115 -83 0
v -115 -82 0
v -114 -82 0
v -128 -84 0
v -129 -84 0
v -129 -83 0
v -128 -83 0
v -120 -84 0
v -121 -84 0
v -121 -83 0
v -120 -83 0
v -114 -84 0
v -115 -84 0
v -115 -83 0
v -114 -83 0
v -128 -85 0
v -129 -85 0
v -129 -84 0
v -128 -84 0
v -120 -85 0
v -121 -85 0
v -121 -84 0
v -120 -84 0
v -114 -85 0
v -115 -85 0
v -115 -84 0
v -114 -84 0
v -120 -86 0
v -121 -86 0
v -121 -85 0
v -120 -85 0
v -114 -86 0
v -115 -86 0
v -115 -85 0
v -114 -85 0
v -120 -87 0
v -121 -87 0
v -121 -86 0
v -120 -86 0
v -114 -87 0
v -115 -87 0
v -115 -86 0
v -114 -86 0
v -120 -88 0
v -121 -88 0
v -121 -87 0
v -120 -87 0
v -114 -88 0
v -115 -88 0
v -115 -87 0
v -114 -87 0

# Texture cooridinates (Count = 36)
vt 0.01515152 0.2239057
vt 0.9848485 0.2239057
vt 0.9848485 0.3316498
vt 0.01515152 0.3316498
vt 0.01515152 0.3350168
vt 0.9848485 0.3350168
vt 0.9848485 0.4427609
vt 0.01515152 0.4427609
vt 0.01515152 0.7794613
vt 0.9848485 0.7794613
vt 0.9848485 0.8872054
vt 0.01515152 0.8872054
vt 0.01515152 0.6683502
vt 0.9848485 0.6683502
vt 0.9848485 0.7760943
vt 0.01515152 0.7760943
vt 0.01515152 0.1127946
vt 0.9848485 0.1127946
vt 0.9848485 0.2205387
vt 0.01515152 0.2205387
vt 0.01515152 0.8905724
vt 0.9848485 0.8905724
vt 0.9848485 0.9983165
vt 0.01515152 0.9983165
vt 0.01515152 0.5572391
vt 0.9848485 0.5572391
vt 0.9848485 0.6649832
vt 0.01515152 0.6649832
vt 0.01515152 0.446128
vt 0.9848485 0.446128
vt 0.9848485 0.553872
vt 0.01515152 0.553872
vt 0.01515152 0.001683474
vt 0.9848485 0.001683474
vt 0.9848485 0.1094276
vt 0.01515152 0.1094276

# Normal
vn 0 0 -1

# Mesh description
g AstralaProper_mesh_0027

# Faces
f 1/1/1 2/2/1 3/3/1 4/4/1
f 5/5/1 6/6/1 7/7/1 8/8/1
f 9/9/1 10/10/1 11/11/1 12/12/1
f 13/13/1 14/14/1 15/15/1 16/16/1
f 17/5/1 18/6/1 19/7/1 20/8/1
f 21/17/1 22/18/1 23/19/1 24/20/1
f 25/5/1 26/6/1 27/7/1 28/8/1
f 29/13/1 30/14/1 31/15/1 32/16/1
f 33/13/1 34/14/1 35/15/1 36/16/1
f 37/5/1 38/6/1 39/7/1 40/8/1
f 41/5/1 42/6/1 43/7/1 44/8/1
f 45/13/1 46/14/1 47/15/1 48/16/1
f 49/13/1 50/14/1 51/15/1 52/16/1
f 53/5/1 54/6/1 55/7/1 56/8/1
f 57/5/1 58/6/1 59/7/1 60/8/1
f 61/13/1 62/14/1 63/15/1 64/16/1
f 65/5/1 66/6/1 67/7/1 68/8/1
f 69/5/1 70/6/1 71/7/1 72/8/1
f 73/21/1 74/22/1 75/23/1 76/24/1
f 77/5/1 78/6/1 79/7/1 80/8/1
f 81/5/1 82/6/1 83/7/1 84/8/1
f 85/9/1 86/10/1 87/11/1 88/12/1
f 89/5/1 90/6/1 91/7/1 92/8/1
f 93/21/1 94/22/1 95/23/1 96/24/1
f 97/13/1 98/14/1 99/15/1 100/16/1
f 101/5/1 102/6/1 103/7/1 104/8/1
f 105/9/1 106/10/1 107/11/1 108/12/1
f 109/13/1 110/14/1 111/15/1 112/16/1
f 113/21/1 114/22/1 115/23/1 116/24/1
f 117/13/1 118/14/1 119/15/1 120/16/1
f 121/25/1 122/26/1 123/27/1 124/28/1
f 125/5/1 126/6/1 127/7/1 128/8/1
f 129/13/1 130/14/1 131/15/1 132/16/1
f 133/29/1 134/30/1 135/31/1 136/32/1
f 137/5/1 138/6/1 139/7/1 140/8/1
f 141/21/1 142/22/1 143/23/1 144/24/1
f 145/13/1 146/14/1 147/15/1 148/16/1
f 149/5/1 150/6/1 151/7/1 152/8/1
f 153/5/1 154/6/1 155/7/1 156/8/1
f 157/5/1 158/6/1 159/7/1 160/8/1
f 161/21/1 162/22/1 163/23/1 164/24/1
f 165/13/1 166/14/1 167/15/1 168/16/1
f 169/5/1 170/6/1 171/7/1 172/8/1
f 173/5/1 174/6/1 175/7/1 176/8/1
f 177/5/1 178/6/1 179/7/1 180/8/1
f 181/5/1 182/6/1 183/7/1 184/8/1
f 185/13/1 186/14/1 187/15/1 188/16/1
f 189/5/1 190/6/1 191/7/1 192/8/1
f 193/5/1 194/6/1 195/7/1 196/8/1
f 197/1/1 198/2/1 199/3/1 200/4/1
f 201/5/1 202/6/1 203/7/1 204/8/1
f 205/25/1 206/26/1 207/27/1 208/28/1
f 209/5/1 210/6/1 211/7/1 212/8/1
f 213/5/1 214/6/1 215/7/1 216/8/1
f 217/17/1 218/18/1 219/19/1 220/20/1
f 221/5/1 222/6/1 223/7/1 224/8/1
f 225/29/1 226/30/1 227/31/1 228/32/1
f 229/5/1 230/6/1 231/7/1 232/8/1
f 233/5/1 234/6/1 235/7/1 236/8/1
f 237/5/1 238/6/1 239/7/1 240/8/1
f 241/1/1 242/2/1 243/3/1 244/4/1
f 245/5/1 246/6/1 247/7/1 248/8/1
f 249/5/1 250/6/1 251/7/1 252/8/1
f 253/5/1 254/6/1 255/7/1 256/8/1
f 257/17/1 258/18/1 259/19/1 260/20/1
f 261/33/1 262/34/1 263/35/1 264/36/1
f 265/5/1 266/6/1 267/7/1 268/8/1
f 269/5/1 270/6/1 271/7/1 272/8/1
f 273/5/1 274/6/1 275/7/1 276/8/1
f 277/5/1 278/6/1 279/7/1 280/8/1
f 281/5/1 282/6/1 283/7/1 284/8/1
f 285/5/1 286/6/1 287/7/1 288/8/1
f 289/5/1 290/6/1 291/7/1 292/8/1
f 293/5/1 294/6/1 295/7/1 296/8/1
f 297/5/1 298/6/1 299/7/1 300/8/1
f 301/5/1 302/6/1 303/7/1 304/8/1
f 305/5/1 306/6/1 307/7/1 308/8/1
f 309/5/1 310/6/1 311/7/1 312/8/1
f 313/5/1 314/6/1 315/7/1 316/8/1
f 317/21/1 318/22/1 319/23/1 320/24/1
f 321/5/1 322/6/1 323/7/1 324/8/1
f 325/5/1 326/6/1 327/7/1 328/8/1
f 329/21/1 330/22/1 331/23/1 332/24/1
f 333/5/1 334/6/1 335/7/1 336/8/1
f 337/5/1 338/6/1 339/7/1 340/8/1
f 341/5/1 342/6/1 343/7/1 344/8/1
f 345/5/1 346/6/1 347/7/1 348/8/1
f 349/1/1 350/2/1 351/3/1 352/4/1
f 353/5/1 354/6/1 355/7/1 356/8/1
f 357/5/1 358/6/1 359/7/1 360/8/1
f 361/17/1 362/18/1 363/19/1 364/20/1
f 365/5/1 366/6/1 367/7/1 368/8/1
f 369/5/1 370/6/1 371/7/1 372/8/1
f 373/5/1 374/6/1 375/7/1 376/8/1
f 377/5/1 378/6/1 379/7/1 380/8/1
f 381/5/1 382/6/1 383/7/1 384/8/1
f 385/5/1 386/6/1 387/7/1 388/8/1
f 389/5/1 390/6/1 391/7/1 392/8/1
f 393/5/1 394/6/1 395/7/1 396/8/1
f 397/5/1 398/6/1 399/7/1 400/8/1
f 401/5/1 402/6/1 403/7/1 404/8/1
f 405/13/1 406/14/1 407/15/1 408/16/1
f 409/5/1 410/6/1 411/7/1 412/8/1
f 413/5/1 414/6/1 415/7/1 416/8/1
f 417/13/1 418/14/1 419/15/1 420/16/1
f 421/5/1 422/6/1 423/7/1 424/8/1
f 425/5/1 426/6/1 427/7/1 428/8/1
f 429/13/1 430/14/1 431/15/1 432/16/1
f 433/5/1 434/6/1 435/7/1 436/8/1
f 437/5/1 438/6/1 439/7/1 440/8/1
f 441/13/1 442/14/1 443/15/1 444/16/1
f 445/5/1 446/6/1 447/7/1 448/8/1
f 449/13/1 450/14/1 451/15/1 452/16/1
f 453/13/1 454/14/1 455/15/1 456/16/1
f 457/13/1 458/14/1 459/15/1 460/16/1
f 461/13/1 462/14/1 463/15/1 464/16/1
f 465/25/1 466/26/1 467/27/1 468/28/1
f 469/29/1 470/30/1 471/31/1 472/32/1
f 473/1/1 474/2/1 475/3/1 476/4/1
f 477/17/1 478/18/1 479/19/1 480/20/1
f 481/5/1 482/6/1 483/7/1 484/8/1
f 485/13/1 486/14/1 487/15/1 488/16/1
f 489/13/1 490/14/1 491/15/1 492/16/1
f 493/13/1 494/14/1 495/15/1 496/16/1
f 497/5/1 498/6/1 499/7/1 500/8/1
f 501/13/1 502/14/1 503/15/1 504/16/1
f 505/13/1 506/14/1 507/15/1 508/16/1
f 509/13/1 510/14/1 511/15/1 512/16/1
f 513/5/1 514/6/1 515/7/1 516/8/1
f 517/13/1 518/14/1 519/15/1 520/16/1
f 521/13/1 522/14/1 523/15/1 524/16/1
f 525/5/1 526/6/1 527/7/1 528/8/1
f 529/13/1 530/14/1 531/15/1 532/16/1
f 533/13/1 534/14/1 535/15/1 536/16/1
f 537/13/1 538/14/1 539/15/1 540/16/1
f 541/5/1 542/6/1 543/7/1 544/8/1
f 545/13/1 546/14/1 547/15/1 548/16/1
f 549/25/1 550/26/1 551/27/1 552/28/1
f 553/13/1 554/14/1 555/15/1 556/16/1
f 557/33/1 558/34/1 559/35/1 560/36/1
f 561/13/1 562/14/1 563/15/1 564/16/1
f 565/29/1 566/30/1 567/31/1 568/32/1
f 569/13/1 570/14/1 571/15/1 572/16/1
f 573/1/1 574/2/1 575/3/1 576/4/1
f 577/13/1 578/14/1 579/15/1 580/16/1
f 581/13/1 582/14/1 583/15/1 584/16/1
f 585/17/1 586/18/1 587/19/1 588/20/1
f 589/13/1 590/14/1 591/15/1 592/16/1
f 593/13/1 594/14/1 595/15/1 596/16/1
f 597/13/1 598/14/1 599/15/1 600/16/1
f 601/13/1 602/14/1 603/15/1 604/16/1
f 605/13/1 606/14/1 607/15/1 608/16/1
f 609/13/1 610/14/1 611/15/1 612/16/1
f 613/13/1 614/14/1 615/15/1 616/16/1
f 617/13/1 618/14/1 619/15/1 620/16/1
f 621/25/1 622/26/1 623/27/1 624/28/1
f 625/13/1 626/14/1 627/15/1 628/16/1
f 629/13/1 630/14/1 631/15/1 632/16/1
f 633/29/1 634/30/1 635/31/1 636/32/1
f 637/13/1 638/14/1 639/15/1 640/16/1
f 641/13/1 642/14/1 643/15/1 644/16/1
f 645/1/1 646/2/1 647/3/1 648/4/1
f 649/13/1 650/14/1 651/15/1 652/16/1
f 653/13/1 654/14/1 655/15/1 656/16/1
f 657/13/1 658/14/1 659/15/1 660/16/1
f 661/13/1 662/14/1 663/15/1 664/16/1
f 665/13/1 666/14/1 667/15/1 668/16/1
f 669/13/1 670/14/1 671/15/1 672/16/1
f 673/13/1 674/14/1 675/15/1 676/16/1
f 677/25/1 678/26/1 679/27/1 680/28/1
f 681/25/1 682/26/1 683/27/1 684/28/1
f 685/29/1 686/30/1 687/31/1 688/32/1
f 689/29/1 690/30/1 691/31/1 692/32/1
f 693/1/1 694/2/1 695/3/1 696/4/1
f 697/21/1 698/22/1 699/23/1 700/24/1
f 701/1/1 702/2/1 703/3/1 704/4/1
f 705/17/1 706/18/1 707/19/1 708/20/1
f 709/5/1 710/6/1 711/7/1 712/8/1
f 713/1/1 714/2/1 715/3/1 716/4/1
f 717/17/1 718/18/1 719/19/1 720/20/1
f 721/13/1 722/14/1 723/15/1 724/16/1
f 725/13/1 726/14/1 727/15/1 728/16/1
f 729/13/1 730/14/1 731/15/1 732/16/1
f 733/13/1 734/14/1 735/15/1 736/16/1
f 737/1/1 738/2/1 739/3/1 740/4/1
f 741/25/1 742/26/1 743/27/1 744/28/1
f 745/17/1 746/18/1 747/19/1 748/20/1
f 749/29/1 750/30/1 751/31/1 752/32/1
f 753/5/1 754/6/1 755/7/1 756/8/1
f 757/5/1 758/6/1 759/7/1 760/8/1
f 761/1/1 762/2/1 763/3/1 764/4/1
f 765/5/1 766/6/1 767/7/1 768/8/1
f 769/5/1 770/6/1 771/7/1 772/8/1
f 773/17/1 774/18/1 775/19/1 776/20/1
f 777/5/1 778/6/1 779/7/1 780/8/1
f 781/5/1 782/6/1 783/7/1 784/8/1
f 785/5/1 786/6/1 787/7/1 788/8/1
f 789/5/1 790/6/1 791/7/1 792/8/1
f 793/5/1 794/6/1 795/7/1 796/8/1
f 797/5/1 798/6/1 799/7/1 800/8/1
f 801/33/1 802/34/1 803/35/1 804/36/1
f 805/33/1 806/34/1 807/35/1 808/36/1

