# Tiled2Unity generated file. Do not modify by hand.
# Wavefront file for 'AstralaProper_mesh_0017.obj'

# Vertices (Count = 20)
v -127 -84 0
v -128 -84 0
v -128 -83 0
v -127 -83 0
v -127 -85 0
v -128 -85 0
v -128 -84 0
v -127 -84 0
v -127 -86 0
v -128 -86 0
v -128 -85 0
v -127 -85 0
v -127 -87 0
v -128 -87 0
v -128 -86 0
v -127 -86 0
v -127 -88 0
v -128 -88 0
v -128 -87 0
v -127 -87 0

# Texture cooridinates (Count = 16)
vt 0.01515152 0.6683502
vt 0.9848485 0.6683502
vt 0.9848485 0.7760943
vt 0.01515152 0.7760943
vt 0.01515152 0.5572391
vt 0.9848485 0.5572391
vt 0.9848485 0.6649832
vt 0.01515152 0.6649832
vt 0.01515152 0.446128
vt 0.9848485 0.446128
vt 0.9848485 0.553872
vt 0.01515152 0.553872
vt 0.01515152 0.1127946
vt 0.9848485 0.1127946
vt 0.9848485 0.2205387
vt 0.01515152 0.2205387

# Normal
vn 0 0 -1

# Mesh description
g AstralaProper_mesh_0017

# Faces
f 1/1/1 2/2/1 3/3/1 4/4/1
f 5/1/1 6/2/1 7/3/1 8/4/1
f 9/5/1 10/6/1 11/7/1 12/8/1
f 13/9/1 14/10/1 15/11/1 16/12/1
f 17/13/1 18/14/1 19/15/1 20/16/1

