# Tiled2Unity generated file. Do not modify by hand.
# Wavefront file for 'AstralaProper_mesh_0038.obj'

# Vertices (Count = 60)
v -139 -87 0
v -140 -87 0
v -140 -86 0
v -139 -86 0
v -138 -87 0
v -139 -87 0
v -139 -86 0
v -138 -86 0
v -137 -87 0
v -138 -87 0
v -138 -86 0
v -137 -86 0
v -136 -87 0
v -137 -87 0
v -137 -86 0
v -136 -86 0
v -135 -87 0
v -136 -87 0
v -136 -86 0
v -135 -86 0
v -139 -88 0
v -140 -88 0
v -140 -87 0
v -139 -87 0
v -138 -88 0
v -139 -88 0
v -139 -87 0
v -138 -87 0
v -137 -88 0
v -138 -88 0
v -138 -87 0
v -137 -87 0
v -136 -88 0
v -137 -88 0
v -137 -87 0
v -136 -87 0
v -135 -88 0
v -136 -88 0
v -136 -87 0
v -135 -87 0
v -139 -89 0
v -140 -89 0
v -140 -88 0
v -139 -88 0
v -138 -89 0
v -139 -89 0
v -139 -88 0
v -138 -88 0
v -137 -89 0
v -138 -89 0
v -138 -88 0
v -137 -88 0
v -136 -89 0
v -137 -89 0
v -137 -88 0
v -136 -88 0
v -135 -89 0
v -136 -89 0
v -136 -88 0
v -135 -88 0

# Texture cooridinates (Count = 60)
vt 0.8030303 0.2239057
vt 0.9969697 0.2239057
vt 0.9969697 0.3316498
vt 0.8030303 0.3316498
vt 0.6030303 0.2239057
vt 0.7969697 0.2239057
vt 0.7969697 0.3316498
vt 0.6030303 0.3316498
vt 0.4030303 0.2239057
vt 0.5969697 0.2239057
vt 0.5969697 0.3316498
vt 0.4030303 0.3316498
vt 0.2030303 0.2239057
vt 0.3969697 0.2239057
vt 0.3969697 0.3316498
vt 0.2030303 0.3316498
vt 0.003030303 0.2239057
vt 0.1969697 0.2239057
vt 0.1969697 0.3316498
vt 0.003030303 0.3316498
vt 0.8030303 0.1127946
vt 0.9969697 0.1127946
vt 0.9969697 0.2205387
vt 0.8030303 0.2205387
vt 0.6030303 0.1127946
vt 0.7969697 0.1127946
vt 0.7969697 0.2205387
vt 0.6030303 0.2205387
vt 0.4030303 0.1127946
vt 0.5969697 0.1127946
vt 0.5969697 0.2205387
vt 0.4030303 0.2205387
vt 0.2030303 0.1127946
vt 0.3969697 0.1127946
vt 0.3969697 0.2205387
vt 0.2030303 0.2205387
vt 0.003030303 0.1127946
vt 0.1969697 0.1127946
vt 0.1969697 0.2205387
vt 0.003030303 0.2205387
vt 0.8030303 0.001683474
vt 0.9969697 0.001683474
vt 0.9969697 0.1094276
vt 0.8030303 0.1094276
vt 0.6030303 0.001683474
vt 0.7969697 0.001683474
vt 0.7969697 0.1094276
vt 0.6030303 0.1094276
vt 0.4030303 0.001683474
vt 0.5969697 0.001683474
vt 0.5969697 0.1094276
vt 0.4030303 0.1094276
vt 0.2030303 0.001683474
vt 0.3969697 0.001683474
vt 0.3969697 0.1094276
vt 0.2030303 0.1094276
vt 0.003030303 0.001683474
vt 0.1969697 0.001683474
vt 0.1969697 0.1094276
vt 0.003030303 0.1094276

# Normal
vn 0 0 -1

# Mesh description
g AstralaProper_mesh_0038

# Faces
f 1/1/1 2/2/1 3/3/1 4/4/1
f 5/5/1 6/6/1 7/7/1 8/8/1
f 9/9/1 10/10/1 11/11/1 12/12/1
f 13/13/1 14/14/1 15/15/1 16/16/1
f 17/17/1 18/18/1 19/19/1 20/20/1
f 21/21/1 22/22/1 23/23/1 24/24/1
f 25/25/1 26/26/1 27/27/1 28/28/1
f 29/29/1 30/30/1 31/31/1 32/32/1
f 33/33/1 34/34/1 35/35/1 36/36/1
f 37/37/1 38/38/1 39/39/1 40/40/1
f 41/41/1 42/42/1 43/43/1 44/44/1
f 45/45/1 46/46/1 47/47/1 48/48/1
f 49/49/1 50/50/1 51/51/1 52/52/1
f 53/53/1 54/54/1 55/55/1 56/56/1
f 57/57/1 58/58/1 59/59/1 60/60/1

