# Tiled2Unity generated file. Do not modify by hand.
# Wavefront file for 'AstralaProper_mesh_0035.obj'

# Vertices (Count = 28)
v -149 -55 0
v -150 -55 0
v -150 -54 0
v -149 -54 0
v -149 -56 0
v -150 -56 0
v -150 -55 0
v -149 -55 0
v -149 -57 0
v -150 -57 0
v -150 -56 0
v -149 -56 0
v -149 -58 0
v -150 -58 0
v -150 -57 0
v -149 -57 0
v -149 -59 0
v -150 -59 0
v -150 -58 0
v -149 -58 0
v -149 -60 0
v -150 -60 0
v -150 -59 0
v -149 -59 0
v -128 -82 0
v -129 -82 0
v -129 -81 0
v -128 -81 0

# Texture cooridinates (Count = 20)
vt 0.01515152 0.8905724
vt 0.9848485 0.8905724
vt 0.9848485 0.9983165
vt 0.01515152 0.9983165
vt 0.01515152 0.3350168
vt 0.9848485 0.3350168
vt 0.9848485 0.4427609
vt 0.01515152 0.4427609
vt 0.01515152 0.7794613
vt 0.9848485 0.7794613
vt 0.9848485 0.8872054
vt 0.01515152 0.8872054
vt 0.01515152 0.6683502
vt 0.9848485 0.6683502
vt 0.9848485 0.7760943
vt 0.01515152 0.7760943
vt 0.01515152 0.001683474
vt 0.9848485 0.001683474
vt 0.9848485 0.1094276
vt 0.01515152 0.1094276

# Normal
vn 0 0 -1

# Mesh description
g AstralaProper_mesh_0035

# Faces
f 1/1/1 2/2/1 3/3/1 4/4/1
f 5/5/1 6/6/1 7/7/1 8/8/1
f 9/5/1 10/6/1 11/7/1 12/8/1
f 13/5/1 14/6/1 15/7/1 16/8/1
f 17/9/1 18/10/1 19/11/1 20/12/1
f 21/13/1 22/14/1 23/15/1 24/16/1
f 25/17/1 26/18/1 27/19/1 28/20/1

