# Tiled2Unity generated file. Do not modify by hand.
# Wavefront file for 'AstralaProper_mesh_0032.obj'

# Vertices (Count = 384)
v -128 -76 0
v -129 -76 0
v -129 -75 0
v -128 -75 0
v -127 -76 0
v -128 -76 0
v -128 -75 0
v -127 -75 0
v -126 -76 0
v -127 -76 0
v -127 -75 0
v -126 -75 0
v -125 -76 0
v -126 -76 0
v -126 -75 0
v -125 -75 0
v -124 -76 0
v -125 -76 0
v -125 -75 0
v -124 -75 0
v -123 -76 0
v -124 -76 0
v -124 -75 0
v -123 -75 0
v -122 -76 0
v -123 -76 0
v -123 -75 0
v -122 -75 0
v -121 -76 0
v -122 -76 0
v -122 -75 0
v -121 -75 0
v -114 -76 0
v -115 -76 0
v -115 -75 0
v -114 -75 0
v -113 -76 0
v -114 -76 0
v -114 -75 0
v -113 -75 0
v -112 -76 0
v -113 -76 0
v -113 -75 0
v -112 -75 0
v -111 -76 0
v -112 -76 0
v -112 -75 0
v -111 -75 0
v -110 -76 0
v -111 -76 0
v -111 -75 0
v -110 -75 0
v -109 -76 0
v -110 -76 0
v -110 -75 0
v -109 -75 0
v -108 -76 0
v -109 -76 0
v -109 -75 0
v -108 -75 0
v -107 -76 0
v -108 -76 0
v -108 -75 0
v -107 -75 0
v -128 -77 0
v -129 -77 0
v -129 -76 0
v -128 -76 0
v -127 -77 0
v -128 -77 0
v -128 -76 0
v -127 -76 0
v -126 -77 0
v -127 -77 0
v -127 -76 0
v -126 -76 0
v -125 -77 0
v -126 -77 0
v -126 -76 0
v -125 -76 0
v -124 -77 0
v -125 -77 0
v -125 -76 0
v -124 -76 0
v -123 -77 0
v -124 -77 0
v -124 -76 0
v -123 -76 0
v -122 -77 0
v -123 -77 0
v -123 -76 0
v -122 -76 0
v -121 -77 0
v -122 -77 0
v -122 -76 0
v -121 -76 0
v -114 -77 0
v -115 -77 0
v -115 -76 0
v -114 -76 0
v -113 -77 0
v -114 -77 0
v -114 -76 0
v -113 -76 0
v -112 -77 0
v -113 -77 0
v -113 -76 0
v -112 -76 0
v -111 -77 0
v -112 -77 0
v -112 -76 0
v -111 -76 0
v -110 -77 0
v -111 -77 0
v -111 -76 0
v -110 -76 0
v -109 -77 0
v -110 -77 0
v -110 -76 0
v -109 -76 0
v -108 -77 0
v -109 -77 0
v -109 -76 0
v -108 -76 0
v -107 -77 0
v -108 -77 0
v -108 -76 0
v -107 -76 0
v -128 -78 0
v -129 -78 0
v -129 -77 0
v -128 -77 0
v -127 -78 0
v -128 -78 0
v -128 -77 0
v -127 -77 0
v -126 -78 0
v -127 -78 0
v -127 -77 0
v -126 -77 0
v -125 -78 0
v -126 -78 0
v -126 -77 0
v -125 -77 0
v -124 -78 0
v -125 -78 0
v -125 -77 0
v -124 -77 0
v -123 -78 0
v -124 -78 0
v -124 -77 0
v -123 -77 0
v -122 -78 0
v -123 -78 0
v -123 -77 0
v -122 -77 0
v -121 -78 0
v -122 -78 0
v -122 -77 0
v -121 -77 0
v -114 -78 0
v -115 -78 0
v -115 -77 0
v -114 -77 0
v -113 -78 0
v -114 -78 0
v -114 -77 0
v -113 -77 0
v -112 -78 0
v -113 -78 0
v -113 -77 0
v -112 -77 0
v -111 -78 0
v -112 -78 0
v -112 -77 0
v -111 -77 0
v -110 -78 0
v -111 -78 0
v -111 -77 0
v -110 -77 0
v -109 -78 0
v -110 -78 0
v -110 -77 0
v -109 -77 0
v -108 -78 0
v -109 -78 0
v -109 -77 0
v -108 -77 0
v -107 -78 0
v -108 -78 0
v -108 -77 0
v -107 -77 0
v -128 -79 0
v -129 -79 0
v -129 -78 0
v -128 -78 0
v -127 -79 0
v -128 -79 0
v -128 -78 0
v -127 -78 0
v -126 -79 0
v -127 -79 0
v -127 -78 0
v -126 -78 0
v -125 -79 0
v -126 -79 0
v -126 -78 0
v -125 -78 0
v -124 -79 0
v -125 -79 0
v -125 -78 0
v -124 -78 0
v -123 -79 0
v -124 -79 0
v -124 -78 0
v -123 -78 0
v -122 -79 0
v -123 -79 0
v -123 -78 0
v -122 -78 0
v -121 -79 0
v -122 -79 0
v -122 -78 0
v -121 -78 0
v -114 -79 0
v -115 -79 0
v -115 -78 0
v -114 -78 0
v -113 -79 0
v -114 -79 0
v -114 -78 0
v -113 -78 0
v -112 -79 0
v -113 -79 0
v -113 -78 0
v -112 -78 0
v -111 -79 0
v -112 -79 0
v -112 -78 0
v -111 -78 0
v -110 -79 0
v -111 -79 0
v -111 -78 0
v -110 -78 0
v -109 -79 0
v -110 -79 0
v -110 -78 0
v -109 -78 0
v -108 -79 0
v -109 -79 0
v -109 -78 0
v -108 -78 0
v -107 -79 0
v -108 -79 0
v -108 -78 0
v -107 -78 0
v -128 -80 0
v -129 -80 0
v -129 -79 0
v -128 -79 0
v -127 -80 0
v -128 -80 0
v -128 -79 0
v -127 -79 0
v -126 -80 0
v -127 -80 0
v -127 -79 0
v -126 -79 0
v -125 -80 0
v -126 -80 0
v -126 -79 0
v -125 -79 0
v -124 -80 0
v -125 -80 0
v -125 -79 0
v -124 -79 0
v -123 -80 0
v -124 -80 0
v -124 -79 0
v -123 -79 0
v -122 -80 0
v -123 -80 0
v -123 -79 0
v -122 -79 0
v -121 -80 0
v -122 -80 0
v -122 -79 0
v -121 -79 0
v -114 -80 0
v -115 -80 0
v -115 -79 0
v -114 -79 0
v -113 -80 0
v -114 -80 0
v -114 -79 0
v -113 -79 0
v -112 -80 0
v -113 -80 0
v -113 -79 0
v -112 -79 0
v -111 -80 0
v -112 -80 0
v -112 -79 0
v -111 -79 0
v -110 -80 0
v -111 -80 0
v -111 -79 0
v -110 -79 0
v -109 -80 0
v -110 -80 0
v -110 -79 0
v -109 -79 0
v -108 -80 0
v -109 -80 0
v -109 -79 0
v -108 -79 0
v -107 -80 0
v -108 -80 0
v -108 -79 0
v -107 -79 0
v -128 -81 0
v -129 -81 0
v -129 -80 0
v -128 -80 0
v -121 -81 0
v -122 -81 0
v -122 -80 0
v -121 -80 0
v -114 -81 0
v -115 -81 0
v -115 -80 0
v -114 -80 0
v -107 -81 0
v -108 -81 0
v -108 -80 0
v -107 -80 0
v -128 -82 0
v -129 -82 0
v -129 -81 0
v -128 -81 0
v -126 -82 0
v -127 -82 0
v -127 -81 0
v -126 -81 0
v -125 -82 0
v -126 -82 0
v -126 -81 0
v -125 -81 0
v -124 -82 0
v -125 -82 0
v -125 -81 0
v -124 -81 0
v -123 -82 0
v -124 -82 0
v -124 -81 0
v -123 -81 0
v -112 -82 0
v -113 -82 0
v -113 -81 0
v -112 -81 0
v -111 -82 0
v -112 -82 0
v -112 -81 0
v -111 -81 0
v -110 -82 0
v -111 -82 0
v -111 -81 0
v -110 -81 0
v -109 -82 0
v -110 -82 0
v -110 -81 0
v -109 -81 0
v -128 -83 0
v -129 -83 0
v -129 -82 0
v -128 -82 0
v -120 -83 0
v -121 -83 0
v -121 -82 0
v -120 -82 0
v -114 -83 0
v -115 -83 0
v -115 -82 0
v -114 -82 0

# Texture cooridinates (Count = 84)
vt 0.2878788 0.4307359
vt 0.4264069 0.4307359
vt 0.4264069 0.5692641
vt 0.2878788 0.5692641
vt 0.1450216 0.4307359
vt 0.2835498 0.4307359
vt 0.2835498 0.5692641
vt 0.1450216 0.5692641
vt 0.002164502 0.4307359
vt 0.1406926 0.4307359
vt 0.1406926 0.5692641
vt 0.002164502 0.5692641
vt 0.2878788 0.2878788
vt 0.4264069 0.2878788
vt 0.4264069 0.4264069
vt 0.2878788 0.4264069
vt 0.7164502 0.4307359
vt 0.8549784 0.4307359
vt 0.8549784 0.5692641
vt 0.7164502 0.5692641
vt 0.5735931 0.4307359
vt 0.7121212 0.4307359
vt 0.7121212 0.5692641
vt 0.5735931 0.5692641
vt 0.4307359 0.4307359
vt 0.5692641 0.4307359
vt 0.5692641 0.5692641
vt 0.4307359 0.5692641
vt 0.002164502 0.2878788
vt 0.1406926 0.2878788
vt 0.1406926 0.4264069
vt 0.002164502 0.4264069
vt 0.7164502 0.2878788
vt 0.8549784 0.2878788
vt 0.8549784 0.4264069
vt 0.7164502 0.4264069
vt 0.5735931 0.2878788
vt 0.7121212 0.2878788
vt 0.7121212 0.4264069
vt 0.5735931 0.4264069
vt 0.4307359 0.2878788
vt 0.5692641 0.2878788
vt 0.5692641 0.4264069
vt 0.4307359 0.4264069
vt 0.5735931 0.5735931
vt 0.7121212 0.5735931
vt 0.7121212 0.7121212
vt 0.5735931 0.7121212
vt 0.7164502 0.1450216
vt 0.8549784 0.1450216
vt 0.8549784 0.2835498
vt 0.7164502 0.2835498
vt 0.5735931 0.1450216
vt 0.7121212 0.1450216
vt 0.7121212 0.2835498
vt 0.5735931 0.2835498
vt 0.4307359 0.1450216
vt 0.5692641 0.1450216
vt 0.5692641 0.2835498
vt 0.4307359 0.2835498
vt 0.2878788 0.1450216
vt 0.4264069 0.1450216
vt 0.4264069 0.2835498
vt 0.2878788 0.2835498
vt 0.002164502 0.1450216
vt 0.1406926 0.1450216
vt 0.1406926 0.2835498
vt 0.002164502 0.2835498
vt 0.5735931 0.002164483
vt 0.7121212 0.002164483
vt 0.7121212 0.1406927
vt 0.5735931 0.1406927
vt 0.4307359 0.002164483
vt 0.5692641 0.002164483
vt 0.5692641 0.1406927
vt 0.4307359 0.1406927
vt 0.2878788 0.002164483
vt 0.4264069 0.002164483
vt 0.4264069 0.1406927
vt 0.2878788 0.1406927
vt 0.1450216 0.002164483
vt 0.2835498 0.002164483
vt 0.2835498 0.1406927
vt 0.1450216 0.1406927

# Normal
vn 0 0 -1

# Mesh description
g AstralaProper_mesh_0032

# Faces
f 1/1/1 2/2/1 3/3/1 4/4/1
f 5/5/1 6/6/1 7/7/1 8/8/1
f 9/5/1 10/6/1 11/7/1 12/8/1
f 13/5/1 14/6/1 15/7/1 16/8/1
f 17/5/1 18/6/1 19/7/1 20/8/1
f 21/5/1 22/6/1 23/7/1 24/8/1
f 25/5/1 26/6/1 27/7/1 28/8/1
f 29/9/1 30/10/1 31/11/1 32/12/1
f 33/1/1 34/2/1 35/3/1 36/4/1
f 37/5/1 38/6/1 39/7/1 40/8/1
f 41/5/1 42/6/1 43/7/1 44/8/1
f 45/5/1 46/6/1 47/7/1 48/8/1
f 49/5/1 50/6/1 51/7/1 52/8/1
f 53/5/1 54/6/1 55/7/1 56/8/1
f 57/5/1 58/6/1 59/7/1 60/8/1
f 61/9/1 62/10/1 63/11/1 64/12/1
f 65/13/1 66/14/1 67/15/1 68/16/1
f 69/17/1 70/18/1 71/19/1 72/20/1
f 73/21/1 74/22/1 75/23/1 76/24/1
f 77/21/1 78/22/1 79/23/1 80/24/1
f 81/21/1 82/22/1 83/23/1 84/24/1
f 85/21/1 86/22/1 87/23/1 88/24/1
f 89/25/1 90/26/1 91/27/1 92/28/1
f 93/29/1 94/30/1 95/31/1 96/32/1
f 97/13/1 98/14/1 99/15/1 100/16/1
f 101/17/1 102/18/1 103/19/1 104/20/1
f 105/21/1 106/22/1 107/23/1 108/24/1
f 109/21/1 110/22/1 111/23/1 112/24/1
f 113/21/1 114/22/1 115/23/1 116/24/1
f 117/21/1 118/22/1 119/23/1 120/24/1
f 121/25/1 122/26/1 123/27/1 124/28/1
f 125/29/1 126/30/1 127/31/1 128/32/1
f 129/13/1 130/14/1 131/15/1 132/16/1
f 133/33/1 134/34/1 135/35/1 136/36/1
f 137/37/1 138/38/1 139/39/1 140/40/1
f 141/37/1 142/38/1 143/39/1 144/40/1
f 145/37/1 146/38/1 147/39/1 148/40/1
f 149/37/1 150/38/1 151/39/1 152/40/1
f 153/41/1 154/42/1 155/43/1 156/44/1
f 157/29/1 158/30/1 159/31/1 160/32/1
f 161/13/1 162/14/1 163/15/1 164/16/1
f 165/33/1 166/34/1 167/35/1 168/36/1
f 169/37/1 170/38/1 171/39/1 172/40/1
f 173/45/1 174/46/1 175/47/1 176/48/1
f 177/37/1 178/38/1 179/39/1 180/40/1
f 181/37/1 182/38/1 183/39/1 184/40/1
f 185/41/1 186/42/1 187/43/1 188/44/1
f 189/29/1 190/30/1 191/31/1 192/32/1
f 193/13/1 194/14/1 195/15/1 196/16/1
f 197/33/1 198/34/1 199/35/1 200/36/1
f 201/37/1 202/38/1 203/39/1 204/40/1
f 205/37/1 206/38/1 207/39/1 208/40/1
f 209/37/1 210/38/1 211/39/1 212/40/1
f 213/45/1 214/46/1 215/47/1 216/48/1
f 217/41/1 218/42/1 219/43/1 220/44/1
f 221/29/1 222/30/1 223/31/1 224/32/1
f 225/13/1 226/14/1 227/15/1 228/16/1
f 229/33/1 230/34/1 231/35/1 232/36/1
f 233/37/1 234/38/1 235/39/1 236/40/1
f 237/37/1 238/38/1 239/39/1 240/40/1
f 241/37/1 242/38/1 243/39/1 244/40/1
f 245/37/1 246/38/1 247/39/1 248/40/1
f 249/41/1 250/42/1 251/43/1 252/44/1
f 253/29/1 254/30/1 255/31/1 256/32/1
f 257/13/1 258/14/1 259/15/1 260/16/1
f 261/49/1 262/50/1 263/51/1 264/52/1
f 265/53/1 266/54/1 267/55/1 268/56/1
f 269/53/1 270/54/1 271/55/1 272/56/1
f 273/53/1 274/54/1 275/55/1 276/56/1
f 277/53/1 278/54/1 279/55/1 280/56/1
f 281/57/1 282/58/1 283/59/1 284/60/1
f 285/29/1 286/30/1 287/31/1 288/32/1
f 289/13/1 290/14/1 291/15/1 292/16/1
f 293/49/1 294/50/1 295/51/1 296/52/1
f 297/53/1 298/54/1 299/55/1 300/56/1
f 301/53/1 302/54/1 303/55/1 304/56/1
f 305/53/1 306/54/1 307/55/1 308/56/1
f 309/53/1 310/54/1 311/55/1 312/56/1
f 313/57/1 314/58/1 315/59/1 316/60/1
f 317/29/1 318/30/1 319/31/1 320/32/1
f 321/61/1 322/62/1 323/63/1 324/64/1
f 325/65/1 326/66/1 327/67/1 328/68/1
f 329/61/1 330/62/1 331/63/1 332/64/1
f 333/65/1 334/66/1 335/67/1 336/68/1
f 337/13/1 338/14/1 339/15/1 340/16/1
f 341/69/1 342/70/1 343/71/1 344/72/1
f 345/73/1 346/74/1 347/75/1 348/76/1
f 349/77/1 350/78/1 351/79/1 352/80/1
f 353/81/1 354/82/1 355/83/1 356/84/1
f 357/69/1 358/70/1 359/71/1 360/72/1
f 361/73/1 362/74/1 363/75/1 364/76/1
f 365/77/1 366/78/1 367/79/1 368/80/1
f 369/81/1 370/82/1 371/83/1 372/84/1
f 373/61/1 374/62/1 375/63/1 376/64/1
f 377/61/1 378/62/1 379/63/1 380/64/1
f 381/61/1 382/62/1 383/63/1 384/64/1

