# Tiled2Unity generated file. Do not modify by hand.
# Wavefront file for 'AstralaProper_mesh_0050.obj'

# Vertices (Count = 696)
v -130 -1 0
v -131 -1 0
v -131 0 0
v -130 0 0
v -129 -1 0
v -130 -1 0
v -130 0 0
v -129 0 0
v -106 -1 0
v -107 -1 0
v -107 0 0
v -106 0 0
v -105 -1 0
v -106 -1 0
v -106 0 0
v -105 0 0
v -130 -2 0
v -131 -2 0
v -131 -1 0
v -130 -1 0
v -129 -2 0
v -130 -2 0
v -130 -1 0
v -129 -1 0
v -106 -2 0
v -107 -2 0
v -107 -1 0
v -106 -1 0
v -105 -2 0
v -106 -2 0
v -106 -1 0
v -105 -1 0
v -130 -3 0
v -131 -3 0
v -131 -2 0
v -130 -2 0
v -129 -3 0
v -130 -3 0
v -130 -2 0
v -129 -2 0
v -106 -3 0
v -107 -3 0
v -107 -2 0
v -106 -2 0
v -105 -3 0
v -106 -3 0
v -106 -2 0
v -105 -2 0
v -130 -4 0
v -131 -4 0
v -131 -3 0
v -130 -3 0
v -129 -4 0
v -130 -4 0
v -130 -3 0
v -129 -3 0
v -106 -4 0
v -107 -4 0
v -107 -3 0
v -106 -3 0
v -105 -4 0
v -106 -4 0
v -106 -3 0
v -105 -3 0
v -130 -5 0
v -131 -5 0
v -131 -4 0
v -130 -4 0
v -129 -5 0
v -130 -5 0
v -130 -4 0
v -129 -4 0
v -106 -5 0
v -107 -5 0
v -107 -4 0
v -106 -4 0
v -105 -5 0
v -106 -5 0
v -106 -4 0
v -105 -4 0
v -130 -6 0
v -131 -6 0
v -131 -5 0
v -130 -5 0
v -129 -6 0
v -130 -6 0
v -130 -5 0
v -129 -5 0
v -106 -6 0
v -107 -6 0
v -107 -5 0
v -106 -5 0
v -105 -6 0
v -106 -6 0
v -106 -5 0
v -105 -5 0
v -130 -7 0
v -131 -7 0
v -131 -6 0
v -130 -6 0
v -129 -7 0
v -130 -7 0
v -130 -6 0
v -129 -6 0
v -106 -7 0
v -107 -7 0
v -107 -6 0
v -106 -6 0
v -105 -7 0
v -106 -7 0
v -106 -6 0
v -105 -6 0
v -130 -8 0
v -131 -8 0
v -131 -7 0
v -130 -7 0
v -129 -8 0
v -130 -8 0
v -130 -7 0
v -129 -7 0
v -106 -8 0
v -107 -8 0
v -107 -7 0
v -106 -7 0
v -105 -8 0
v -106 -8 0
v -106 -7 0
v -105 -7 0
v -104 -8 0
v -105 -8 0
v -105 -7 0
v -104 -7 0
v -131 -9 0
v -132 -9 0
v -132 -8 0
v -131 -8 0
v -130 -9 0
v -131 -9 0
v -131 -8 0
v -130 -8 0
v -129 -9 0
v -130 -9 0
v -130 -8 0
v -129 -8 0
v -106 -9 0
v -107 -9 0
v -107 -8 0
v -106 -8 0
v -105 -9 0
v -106 -9 0
v -106 -8 0
v -105 -8 0
v -104 -9 0
v -105 -9 0
v -105 -8 0
v -104 -8 0
v -131 -10 0
v -132 -10 0
v -132 -9 0
v -131 -9 0
v -130 -10 0
v -131 -10 0
v -131 -9 0
v -130 -9 0
v -129 -10 0
v -130 -10 0
v -130 -9 0
v -129 -9 0
v -106 -10 0
v -107 -10 0
v -107 -9 0
v -106 -9 0
v -105 -10 0
v -106 -10 0
v -106 -9 0
v -105 -9 0
v -104 -10 0
v -105 -10 0
v -105 -9 0
v -104 -9 0
v -131 -11 0
v -132 -11 0
v -132 -10 0
v -131 -10 0
v -130 -11 0
v -131 -11 0
v -131 -10 0
v -130 -10 0
v -129 -11 0
v -130 -11 0
v -130 -10 0
v -129 -10 0
v -106 -11 0
v -107 -11 0
v -107 -10 0
v -106 -10 0
v -105 -11 0
v -106 -11 0
v -106 -10 0
v -105 -10 0
v -104 -11 0
v -105 -11 0
v -105 -10 0
v -104 -10 0
v -130 -12 0
v -131 -12 0
v -131 -11 0
v -130 -11 0
v -129 -12 0
v -130 -12 0
v -130 -11 0
v -129 -11 0
v -106 -12 0
v -107 -12 0
v -107 -11 0
v -106 -11 0
v -105 -12 0
v -106 -12 0
v -106 -11 0
v -105 -11 0
v -104 -12 0
v -105 -12 0
v -105 -11 0
v -104 -11 0
v -130 -13 0
v -131 -13 0
v -131 -12 0
v -130 -12 0
v -129 -13 0
v -130 -13 0
v -130 -12 0
v -129 -12 0
v -106 -13 0
v -107 -13 0
v -107 -12 0
v -106 -12 0
v -105 -13 0
v -106 -13 0
v -106 -12 0
v -105 -12 0
v -104 -13 0
v -105 -13 0
v -105 -12 0
v -104 -12 0
v -130 -14 0
v -131 -14 0
v -131 -13 0
v -130 -13 0
v -129 -14 0
v -130 -14 0
v -130 -13 0
v -129 -13 0
v -106 -14 0
v -107 -14 0
v -107 -13 0
v -106 -13 0
v -105 -14 0
v -106 -14 0
v -106 -13 0
v -105 -13 0
v -130 -15 0
v -131 -15 0
v -131 -14 0
v -130 -14 0
v -129 -15 0
v -130 -15 0
v -130 -14 0
v -129 -14 0
v -106 -15 0
v -107 -15 0
v -107 -14 0
v -106 -14 0
v -105 -15 0
v -106 -15 0
v -106 -14 0
v -105 -14 0
v -130 -16 0
v -131 -16 0
v -131 -15 0
v -130 -15 0
v -129 -16 0
v -130 -16 0
v -130 -15 0
v -129 -15 0
v -106 -16 0
v -107 -16 0
v -107 -15 0
v -106 -15 0
v -105 -16 0
v -106 -16 0
v -106 -15 0
v -105 -15 0
v -130 -17 0
v -131 -17 0
v -131 -16 0
v -130 -16 0
v -129 -17 0
v -130 -17 0
v -130 -16 0
v -129 -16 0
v -106 -17 0
v -107 -17 0
v -107 -16 0
v -106 -16 0
v -105 -17 0
v -106 -17 0
v -106 -16 0
v -105 -16 0
v -130 -18 0
v -131 -18 0
v -131 -17 0
v -130 -17 0
v -129 -18 0
v -130 -18 0
v -130 -17 0
v -129 -17 0
v -106 -18 0
v -107 -18 0
v -107 -17 0
v -106 -17 0
v -105 -18 0
v -106 -18 0
v -106 -17 0
v -105 -17 0
v -130 -19 0
v -131 -19 0
v -131 -18 0
v -130 -18 0
v -129 -19 0
v -130 -19 0
v -130 -18 0
v -129 -18 0
v -106 -19 0
v -107 -19 0
v -107 -18 0
v -106 -18 0
v -105 -19 0
v -106 -19 0
v -106 -18 0
v -105 -18 0
v -130 -20 0
v -131 -20 0
v -131 -19 0
v -130 -19 0
v -129 -20 0
v -130 -20 0
v -130 -19 0
v -129 -19 0
v -106 -20 0
v -107 -20 0
v -107 -19 0
v -106 -19 0
v -105 -20 0
v -106 -20 0
v -106 -19 0
v -105 -19 0
v -130 -21 0
v -131 -21 0
v -131 -20 0
v -130 -20 0
v -129 -21 0
v -130 -21 0
v -130 -20 0
v -129 -20 0
v -106 -21 0
v -107 -21 0
v -107 -20 0
v -106 -20 0
v -105 -21 0
v -106 -21 0
v -106 -20 0
v -105 -20 0
v -130 -22 0
v -131 -22 0
v -131 -21 0
v -130 -21 0
v -129 -22 0
v -130 -22 0
v -130 -21 0
v -129 -21 0
v -106 -22 0
v -107 -22 0
v -107 -21 0
v -106 -21 0
v -105 -22 0
v -106 -22 0
v -106 -21 0
v -105 -21 0
v -104 -22 0
v -105 -22 0
v -105 -21 0
v -104 -21 0
v -131 -23 0
v -132 -23 0
v -132 -22 0
v -131 -22 0
v -130 -23 0
v -131 -23 0
v -131 -22 0
v -130 -22 0
v -129 -23 0
v -130 -23 0
v -130 -22 0
v -129 -22 0
v -106 -23 0
v -107 -23 0
v -107 -22 0
v -106 -22 0
v -105 -23 0
v -106 -23 0
v -106 -22 0
v -105 -22 0
v -104 -23 0
v -105 -23 0
v -105 -22 0
v -104 -22 0
v -131 -24 0
v -132 -24 0
v -132 -23 0
v -131 -23 0
v -130 -24 0
v -131 -24 0
v -131 -23 0
v -130 -23 0
v -129 -24 0
v -130 -24 0
v -130 -23 0
v -129 -23 0
v -106 -24 0
v -107 -24 0
v -107 -23 0
v -106 -23 0
v -105 -24 0
v -106 -24 0
v -106 -23 0
v -105 -23 0
v -104 -24 0
v -105 -24 0
v -105 -23 0
v -104 -23 0
v -131 -25 0
v -132 -25 0
v -132 -24 0
v -131 -24 0
v -130 -25 0
v -131 -25 0
v -131 -24 0
v -130 -24 0
v -129 -25 0
v -130 -25 0
v -130 -24 0
v -129 -24 0
v -106 -25 0
v -107 -25 0
v -107 -24 0
v -106 -24 0
v -105 -25 0
v -106 -25 0
v -106 -24 0
v -105 -24 0
v -104 -25 0
v -105 -25 0
v -105 -24 0
v -104 -24 0
v -130 -26 0
v -131 -26 0
v -131 -25 0
v -130 -25 0
v -129 -26 0
v -130 -26 0
v -130 -25 0
v -129 -25 0
v -106 -26 0
v -107 -26 0
v -107 -25 0
v -106 -25 0
v -105 -26 0
v -106 -26 0
v -106 -25 0
v -105 -25 0
v -104 -26 0
v -105 -26 0
v -105 -25 0
v -104 -25 0
v -104 -27 0
v -105 -27 0
v -105 -26 0
v -104 -26 0
v -130 -37 0
v -131 -37 0
v -131 -36 0
v -130 -36 0
v -105 -37 0
v -106 -37 0
v -106 -36 0
v -105 -36 0
v -130 -38 0
v -131 -38 0
v -131 -37 0
v -130 -37 0
v -129 -38 0
v -130 -38 0
v -130 -37 0
v -129 -37 0
v -128 -38 0
v -129 -38 0
v -129 -37 0
v -128 -37 0
v -127 -38 0
v -128 -38 0
v -128 -37 0
v -127 -37 0
v -126 -38 0
v -127 -38 0
v -127 -37 0
v -126 -37 0
v -125 -38 0
v -126 -38 0
v -126 -37 0
v -125 -37 0
v -124 -38 0
v -125 -38 0
v -125 -37 0
v -124 -37 0
v -123 -38 0
v -124 -38 0
v -124 -37 0
v -123 -37 0
v -122 -38 0
v -123 -38 0
v -123 -37 0
v -122 -37 0
v -121 -38 0
v -122 -38 0
v -122 -37 0
v -121 -37 0
v -114 -38 0
v -115 -38 0
v -115 -37 0
v -114 -37 0
v -113 -38 0
v -114 -38 0
v -114 -37 0
v -113 -37 0
v -112 -38 0
v -113 -38 0
v -113 -37 0
v -112 -37 0
v -111 -38 0
v -112 -38 0
v -112 -37 0
v -111 -37 0
v -110 -38 0
v -111 -38 0
v -111 -37 0
v -110 -37 0
v -109 -38 0
v -110 -38 0
v -110 -37 0
v -109 -37 0
v -108 -38 0
v -109 -38 0
v -109 -37 0
v -108 -37 0
v -107 -38 0
v -108 -38 0
v -108 -37 0
v -107 -37 0
v -106 -38 0
v -107 -38 0
v -107 -37 0
v -106 -37 0
v -105 -38 0
v -106 -38 0
v -106 -37 0
v -105 -37 0
v -130 -39 0
v -131 -39 0
v -131 -38 0
v -130 -38 0
v -129 -39 0
v -130 -39 0
v -130 -38 0
v -129 -38 0
v -128 -39 0
v -129 -39 0
v -129 -38 0
v -128 -38 0
v -127 -39 0
v -128 -39 0
v -128 -38 0
v -127 -38 0
v -126 -39 0
v -127 -39 0
v -127 -38 0
v -126 -38 0
v -125 -39 0
v -126 -39 0
v -126 -38 0
v -125 -38 0
v -124 -39 0
v -125 -39 0
v -125 -38 0
v -124 -38 0
v -123 -39 0
v -124 -39 0
v -124 -38 0
v -123 -38 0
v -122 -39 0
v -123 -39 0
v -123 -38 0
v -122 -38 0
v -121 -39 0
v -122 -39 0
v -122 -38 0
v -121 -38 0
v -114 -39 0
v -115 -39 0
v -115 -38 0
v -114 -38 0
v -113 -39 0
v -114 -39 0
v -114 -38 0
v -113 -38 0
v -112 -39 0
v -113 -39 0
v -113 -38 0
v -112 -38 0
v -111 -39 0
v -112 -39 0
v -112 -38 0
v -111 -38 0
v -110 -39 0
v -111 -39 0
v -111 -38 0
v -110 -38 0
v -109 -39 0
v -110 -39 0
v -110 -38 0
v -109 -38 0
v -108 -39 0
v -109 -39 0
v -109 -38 0
v -108 -38 0
v -107 -39 0
v -108 -39 0
v -108 -38 0
v -107 -38 0
v -106 -39 0
v -107 -39 0
v -107 -38 0
v -106 -38 0
v -105 -39 0
v -106 -39 0
v -106 -38 0
v -105 -38 0
v -130 -40 0
v -131 -40 0
v -131 -39 0
v -130 -39 0
v -129 -40 0
v -130 -40 0
v -130 -39 0
v -129 -39 0
v -122 -40 0
v -123 -40 0
v -123 -39 0
v -122 -39 0
v -121 -40 0
v -122 -40 0
v -122 -39 0
v -121 -39 0
v -120 -40 0
v -121 -40 0
v -121 -39 0
v -120 -39 0
v -115 -40 0
v -116 -40 0
v -116 -39 0
v -115 -39 0
v -114 -40 0
v -115 -40 0
v -115 -39 0
v -114 -39 0
v -113 -40 0
v -114 -40 0
v -114 -39 0
v -113 -39 0
v -106 -40 0
v -107 -40 0
v -107 -39 0
v -106 -39 0
v -105 -40 0
v -106 -40 0
v -106 -39 0
v -105 -39 0

# Texture cooridinates (Count = 72)
vt 0.8030303 0.6683502
vt 0.9969697 0.6683502
vt 0.9969697 0.7760943
vt 0.8030303 0.7760943
vt 0.003030303 0.6683502
vt 0.1969697 0.6683502
vt 0.1969697 0.7760943
vt 0.003030303 0.7760943
vt 0.2030303 0.8905724
vt 0.3969697 0.8905724
vt 0.3969697 0.9983165
vt 0.2030303 0.9983165
vt 0.6030303 0.8905724
vt 0.7969697 0.8905724
vt 0.7969697 0.9983165
vt 0.6030303 0.9983165
vt 0.2030303 0.7794613
vt 0.3969697 0.7794613
vt 0.3969697 0.8872054
vt 0.2030303 0.8872054
vt 0.6030303 0.7794613
vt 0.7969697 0.7794613
vt 0.7969697 0.8872054
vt 0.6030303 0.8872054
vt 0.4030303 0.6683502
vt 0.5969697 0.6683502
vt 0.5969697 0.7760943
vt 0.4030303 0.7760943
vt 0.2030303 0.6683502
vt 0.3969697 0.6683502
vt 0.3969697 0.7760943
vt 0.2030303 0.7760943
vt 0.003030303 0.8905724
vt 0.1969697 0.8905724
vt 0.1969697 0.9983165
vt 0.003030303 0.9983165
vt 0.8030303 0.7794613
vt 0.9969697 0.7794613
vt 0.9969697 0.8872054
vt 0.8030303 0.8872054
vt 0.003030303 0.7794613
vt 0.1969697 0.7794613
vt 0.1969697 0.8872054
vt 0.003030303 0.8872054
vt 0.4030303 0.7794613
vt 0.5969697 0.7794613
vt 0.5969697 0.8872054
vt 0.4030303 0.8872054
vt 0.8030303 0.5572391
vt 0.9969697 0.5572391
vt 0.9969697 0.6649832
vt 0.8030303 0.6649832
vt 0.003030303 0.5572391
vt 0.1969697 0.5572391
vt 0.1969697 0.6649832
vt 0.003030303 0.6649832
vt 0.003030303 0.446128
vt 0.1969697 0.446128
vt 0.1969697 0.553872
vt 0.003030303 0.553872
vt 0.003030303 0.3350168
vt 0.1969697 0.3350168
vt 0.1969697 0.4427609
vt 0.003030303 0.4427609
vt 0.4030303 0.8905724
vt 0.5969697 0.8905724
vt 0.5969697 0.9983165
vt 0.4030303 0.9983165
vt 0.6030303 0.5572391
vt 0.7969697 0.5572391
vt 0.7969697 0.6649832
vt 0.6030303 0.6649832

# Normal
vn 0 0 -1

# Mesh description
g AstralaProper_mesh_0050

# Faces
f 1/1/1 2/2/1 3/3/1 4/4/1
f 5/5/1 6/6/1 7/7/1 8/8/1
f 9/1/1 10/2/1 11/3/1 12/4/1
f 13/5/1 14/6/1 15/7/1 16/8/1
f 17/1/1 18/2/1 19/3/1 20/4/1
f 21/5/1 22/6/1 23/7/1 24/8/1
f 25/1/1 26/2/1 27/3/1 28/4/1
f 29/5/1 30/6/1 31/7/1 32/8/1
f 33/1/1 34/2/1 35/3/1 36/4/1
f 37/5/1 38/6/1 39/7/1 40/8/1
f 41/1/1 42/2/1 43/3/1 44/4/1
f 45/5/1 46/6/1 47/7/1 48/8/1
f 49/1/1 50/2/1 51/3/1 52/4/1
f 53/5/1 54/6/1 55/7/1 56/8/1
f 57/1/1 58/2/1 59/3/1 60/4/1
f 61/5/1 62/6/1 63/7/1 64/8/1
f 65/1/1 66/2/1 67/3/1 68/4/1
f 69/9/1 70/10/1 71/11/1 72/12/1
f 73/13/1 74/14/1 75/15/1 76/16/1
f 77/5/1 78/6/1 79/7/1 80/8/1
f 81/1/1 82/2/1 83/3/1 84/4/1
f 85/17/1 86/18/1 87/19/1 88/20/1
f 89/21/1 90/22/1 91/23/1 92/24/1
f 93/5/1 94/6/1 95/7/1 96/8/1
f 97/1/1 98/2/1 99/3/1 100/4/1
f 101/25/1 102/26/1 103/27/1 104/28/1
f 105/29/1 106/30/1 107/31/1 108/32/1
f 109/5/1 110/6/1 111/7/1 112/8/1
f 113/13/1 114/14/1 115/15/1 116/16/1
f 117/5/1 118/6/1 119/7/1 120/8/1
f 121/1/1 122/2/1 123/3/1 124/4/1
f 125/9/1 126/10/1 127/11/1 128/12/1
f 129/33/1 130/34/1 131/35/1 132/36/1
f 133/37/1 134/38/1 135/39/1 136/40/1
f 137/21/1 138/22/1 139/23/1 140/24/1
f 141/5/1 142/6/1 143/7/1 144/8/1
f 145/1/1 146/2/1 147/3/1 148/4/1
f 149/17/1 150/18/1 151/19/1 152/20/1
f 153/41/1 154/42/1 155/43/1 156/44/1
f 157/1/1 158/2/1 159/3/1 160/4/1
f 161/45/1 162/46/1 163/47/1 164/48/1
f 165/5/1 166/6/1 167/7/1 168/8/1
f 169/1/1 170/2/1 171/3/1 172/4/1
f 173/45/1 174/46/1 175/47/1 176/48/1
f 177/5/1 178/6/1 179/7/1 180/8/1
f 181/49/1 182/50/1 183/51/1 184/52/1
f 185/45/1 186/46/1 187/47/1 188/48/1
f 189/5/1 190/6/1 191/7/1 192/8/1
f 193/1/1 194/2/1 195/3/1 196/4/1
f 197/45/1 198/46/1 199/47/1 200/48/1
f 201/53/1 202/54/1 203/55/1 204/56/1
f 205/1/1 206/2/1 207/3/1 208/4/1
f 209/5/1 210/6/1 211/7/1 212/8/1
f 213/1/1 214/2/1 215/3/1 216/4/1
f 217/5/1 218/6/1 219/7/1 220/8/1
f 221/57/1 222/58/1 223/59/1 224/60/1
f 225/1/1 226/2/1 227/3/1 228/4/1
f 229/5/1 230/6/1 231/7/1 232/8/1
f 233/1/1 234/2/1 235/3/1 236/4/1
f 237/5/1 238/6/1 239/7/1 240/8/1
f 241/61/1 242/62/1 243/63/1 244/64/1
f 245/1/1 246/2/1 247/3/1 248/4/1
f 249/5/1 250/6/1 251/7/1 252/8/1
f 253/1/1 254/2/1 255/3/1 256/4/1
f 257/5/1 258/6/1 259/7/1 260/8/1
f 261/1/1 262/2/1 263/3/1 264/4/1
f 265/5/1 266/6/1 267/7/1 268/8/1
f 269/1/1 270/2/1 271/3/1 272/4/1
f 273/5/1 274/6/1 275/7/1 276/8/1
f 277/1/1 278/2/1 279/3/1 280/4/1
f 281/5/1 282/6/1 283/7/1 284/8/1
f 285/1/1 286/2/1 287/3/1 288/4/1
f 289/5/1 290/6/1 291/7/1 292/8/1
f 293/1/1 294/2/1 295/3/1 296/4/1
f 297/5/1 298/6/1 299/7/1 300/8/1
f 301/1/1 302/2/1 303/3/1 304/4/1
f 305/5/1 306/6/1 307/7/1 308/8/1
f 309/1/1 310/2/1 311/3/1 312/4/1
f 313/5/1 314/6/1 315/7/1 316/8/1
f 317/1/1 318/2/1 319/3/1 320/4/1
f 321/5/1 322/6/1 323/7/1 324/8/1
f 325/1/1 326/2/1 327/3/1 328/4/1
f 329/5/1 330/6/1 331/7/1 332/8/1
f 333/1/1 334/2/1 335/3/1 336/4/1
f 337/5/1 338/6/1 339/7/1 340/8/1
f 341/1/1 342/2/1 343/3/1 344/4/1
f 345/5/1 346/6/1 347/7/1 348/8/1
f 349/1/1 350/2/1 351/3/1 352/4/1
f 353/5/1 354/6/1 355/7/1 356/8/1
f 357/1/1 358/2/1 359/3/1 360/4/1
f 361/5/1 362/6/1 363/7/1 364/8/1
f 365/1/1 366/2/1 367/3/1 368/4/1
f 369/5/1 370/6/1 371/7/1 372/8/1
f 373/13/1 374/14/1 375/15/1 376/16/1
f 377/5/1 378/6/1 379/7/1 380/8/1
f 381/1/1 382/2/1 383/3/1 384/4/1
f 385/9/1 386/10/1 387/11/1 388/12/1
f 389/33/1 390/34/1 391/35/1 392/36/1
f 393/37/1 394/38/1 395/39/1 396/40/1
f 397/21/1 398/22/1 399/23/1 400/24/1
f 401/5/1 402/6/1 403/7/1 404/8/1
f 405/1/1 406/2/1 407/3/1 408/4/1
f 409/17/1 410/18/1 411/19/1 412/20/1
f 413/41/1 414/42/1 415/43/1 416/44/1
f 417/1/1 418/2/1 419/3/1 420/4/1
f 421/65/1 422/66/1 423/67/1 424/68/1
f 425/5/1 426/6/1 427/7/1 428/8/1
f 429/1/1 430/2/1 431/3/1 432/4/1
f 433/45/1 434/46/1 435/47/1 436/48/1
f 437/5/1 438/6/1 439/7/1 440/8/1
f 441/49/1 442/50/1 443/51/1 444/52/1
f 445/65/1 446/66/1 447/67/1 448/68/1
f 449/5/1 450/6/1 451/7/1 452/8/1
f 453/1/1 454/2/1 455/3/1 456/4/1
f 457/65/1 458/66/1 459/67/1 460/68/1
f 461/53/1 462/54/1 463/55/1 464/56/1
f 465/1/1 466/2/1 467/3/1 468/4/1
f 469/5/1 470/6/1 471/7/1 472/8/1
f 473/1/1 474/2/1 475/3/1 476/4/1
f 477/5/1 478/6/1 479/7/1 480/8/1
f 481/57/1 482/58/1 483/59/1 484/60/1
f 485/61/1 486/62/1 487/63/1 488/64/1
f 489/21/1 490/22/1 491/23/1 492/24/1
f 493/17/1 494/18/1 495/19/1 496/20/1
f 497/65/1 498/66/1 499/67/1 500/68/1
f 501/17/1 502/18/1 503/19/1 504/20/1
f 505/69/1 506/70/1 507/71/1 508/72/1
f 509/69/1 510/70/1 511/71/1 512/72/1
f 513/69/1 514/70/1 515/71/1 516/72/1
f 517/69/1 518/70/1 519/71/1 520/72/1
f 521/69/1 522/70/1 523/71/1 524/72/1
f 525/69/1 526/70/1 527/71/1 528/72/1
f 529/69/1 530/70/1 531/71/1 532/72/1
f 533/69/1 534/70/1 535/71/1 536/72/1
f 537/69/1 538/70/1 539/71/1 540/72/1
f 541/69/1 542/70/1 543/71/1 544/72/1
f 545/69/1 546/70/1 547/71/1 548/72/1
f 549/69/1 550/70/1 551/71/1 552/72/1
f 553/69/1 554/70/1 555/71/1 556/72/1
f 557/69/1 558/70/1 559/71/1 560/72/1
f 561/69/1 562/70/1 563/71/1 564/72/1
f 565/69/1 566/70/1 567/71/1 568/72/1
f 569/21/1 570/22/1 571/23/1 572/24/1
f 573/45/1 574/46/1 575/47/1 576/48/1
f 577/65/1 578/66/1 579/67/1 580/68/1
f 581/45/1 582/46/1 583/47/1 584/48/1
f 585/45/1 586/46/1 587/47/1 588/48/1
f 589/45/1 590/46/1 591/47/1 592/48/1
f 593/45/1 594/46/1 595/47/1 596/48/1
f 597/45/1 598/46/1 599/47/1 600/48/1
f 601/45/1 602/46/1 603/47/1 604/48/1
f 605/45/1 606/46/1 607/47/1 608/48/1
f 609/65/1 610/66/1 611/67/1 612/68/1
f 613/45/1 614/46/1 615/47/1 616/48/1
f 617/45/1 618/46/1 619/47/1 620/48/1
f 621/45/1 622/46/1 623/47/1 624/48/1
f 625/45/1 626/46/1 627/47/1 628/48/1
f 629/45/1 630/46/1 631/47/1 632/48/1
f 633/45/1 634/46/1 635/47/1 636/48/1
f 637/45/1 638/46/1 639/47/1 640/48/1
f 641/45/1 642/46/1 643/47/1 644/48/1
f 645/45/1 646/46/1 647/47/1 648/48/1
f 649/45/1 650/46/1 651/47/1 652/48/1
f 653/45/1 654/46/1 655/47/1 656/48/1
f 657/45/1 658/46/1 659/47/1 660/48/1
f 661/45/1 662/46/1 663/47/1 664/48/1
f 665/45/1 666/46/1 667/47/1 668/48/1
f 669/45/1 670/46/1 671/47/1 672/48/1
f 673/45/1 674/46/1 675/47/1 676/48/1
f 677/45/1 678/46/1 679/47/1 680/48/1
f 681/45/1 682/46/1 683/47/1 684/48/1
f 685/45/1 686/46/1 687/47/1 688/48/1
f 689/45/1 690/46/1 691/47/1 692/48/1
f 693/45/1 694/46/1 695/47/1 696/48/1

