# Tiled2Unity generated file. Do not modify by hand.
# Wavefront file for 'AstralaProper_mesh_0016.obj'

# Vertices (Count = 564)
v -33 -9 0
v -34 -9 0
v -34 -8 0
v -33 -8 0
v -33 -10 0
v -34 -10 0
v -34 -9 0
v -33 -9 0
v -33 -11 0
v -34 -11 0
v -34 -10 0
v -33 -10 0
v -33 -12 0
v -34 -12 0
v -34 -11 0
v -33 -11 0
v -33 -13 0
v -34 -13 0
v -34 -12 0
v -33 -12 0
v -33 -14 0
v -34 -14 0
v -34 -13 0
v -33 -13 0
v -33 -15 0
v -34 -15 0
v -34 -14 0
v -33 -14 0
v -33 -16 0
v -34 -16 0
v -34 -15 0
v -33 -15 0
v -33 -17 0
v -34 -17 0
v -34 -16 0
v -33 -16 0
v -33 -18 0
v -34 -18 0
v -34 -17 0
v -33 -17 0
v -33 -19 0
v -34 -19 0
v -34 -18 0
v -33 -18 0
v -33 -20 0
v -34 -20 0
v -34 -19 0
v -33 -19 0
v -33 -21 0
v -34 -21 0
v -34 -20 0
v -33 -20 0
v -33 -22 0
v -34 -22 0
v -34 -21 0
v -33 -21 0
v -33 -23 0
v -34 -23 0
v -34 -22 0
v -33 -22 0
v -33 -24 0
v -34 -24 0
v -34 -23 0
v -33 -23 0
v -33 -25 0
v -34 -25 0
v -34 -24 0
v -33 -24 0
v -33 -26 0
v -34 -26 0
v -34 -25 0
v -33 -25 0
v -33 -27 0
v -34 -27 0
v -34 -26 0
v -33 -26 0
v -33 -28 0
v -34 -28 0
v -34 -27 0
v -33 -27 0
v -4 -28 0
v -5 -28 0
v -5 -27 0
v -4 -27 0
v -33 -29 0
v -34 -29 0
v -34 -28 0
v -33 -28 0
v -4 -29 0
v -5 -29 0
v -5 -28 0
v -4 -28 0
v -33 -30 0
v -34 -30 0
v -34 -29 0
v -33 -29 0
v -4 -30 0
v -5 -30 0
v -5 -29 0
v -4 -29 0
v -33 -31 0
v -34 -31 0
v -34 -30 0
v -33 -30 0
v -4 -31 0
v -5 -31 0
v -5 -30 0
v -4 -30 0
v -33 -32 0
v -34 -32 0
v -34 -31 0
v -33 -31 0
v -4 -32 0
v -5 -32 0
v -5 -31 0
v -4 -31 0
v -33 -33 0
v -34 -33 0
v -34 -32 0
v -33 -32 0
v -4 -33 0
v -5 -33 0
v -5 -32 0
v -4 -32 0
v -33 -34 0
v -34 -34 0
v -34 -33 0
v -33 -33 0
v -4 -34 0
v -5 -34 0
v -5 -33 0
v -4 -33 0
v -33 -35 0
v -34 -35 0
v -34 -34 0
v -33 -34 0
v -4 -35 0
v -5 -35 0
v -5 -34 0
v -4 -34 0
v -33 -36 0
v -34 -36 0
v -34 -35 0
v -33 -35 0
v -4 -36 0
v -5 -36 0
v -5 -35 0
v -4 -35 0
v -33 -37 0
v -34 -37 0
v -34 -36 0
v -33 -36 0
v -4 -37 0
v -5 -37 0
v -5 -36 0
v -4 -36 0
v -33 -38 0
v -34 -38 0
v -34 -37 0
v -33 -37 0
v -4 -38 0
v -5 -38 0
v -5 -37 0
v -4 -37 0
v -33 -39 0
v -34 -39 0
v -34 -38 0
v -33 -38 0
v -4 -39 0
v -5 -39 0
v -5 -38 0
v -4 -38 0
v -33 -40 0
v -34 -40 0
v -34 -39 0
v -33 -39 0
v -4 -40 0
v -5 -40 0
v -5 -39 0
v -4 -39 0
v -33 -41 0
v -34 -41 0
v -34 -40 0
v -33 -40 0
v -4 -41 0
v -5 -41 0
v -5 -40 0
v -4 -40 0
v -33 -42 0
v -34 -42 0
v -34 -41 0
v -33 -41 0
v -4 -42 0
v -5 -42 0
v -5 -41 0
v -4 -41 0
v -33 -43 0
v -34 -43 0
v -34 -42 0
v -33 -42 0
v -4 -43 0
v -5 -43 0
v -5 -42 0
v -4 -42 0
v -33 -52 0
v -34 -52 0
v -34 -51 0
v -33 -51 0
v -4 -52 0
v -5 -52 0
v -5 -51 0
v -4 -51 0
v -33 -53 0
v -34 -53 0
v -34 -52 0
v -33 -52 0
v -4 -53 0
v -5 -53 0
v -5 -52 0
v -4 -52 0
v -33 -54 0
v -34 -54 0
v -34 -53 0
v -33 -53 0
v -4 -54 0
v -5 -54 0
v -5 -53 0
v -4 -53 0
v -33 -55 0
v -34 -55 0
v -34 -54 0
v -33 -54 0
v -4 -55 0
v -5 -55 0
v -5 -54 0
v -4 -54 0
v -33 -56 0
v -34 -56 0
v -34 -55 0
v -33 -55 0
v -4 -56 0
v -5 -56 0
v -5 -55 0
v -4 -55 0
v -33 -57 0
v -34 -57 0
v -34 -56 0
v -33 -56 0
v -4 -57 0
v -5 -57 0
v -5 -56 0
v -4 -56 0
v -33 -58 0
v -34 -58 0
v -34 -57 0
v -33 -57 0
v -4 -58 0
v -5 -58 0
v -5 -57 0
v -4 -57 0
v -33 -59 0
v -34 -59 0
v -34 -58 0
v -33 -58 0
v -4 -59 0
v -5 -59 0
v -5 -58 0
v -4 -58 0
v -33 -60 0
v -34 -60 0
v -34 -59 0
v -33 -59 0
v -4 -60 0
v -5 -60 0
v -5 -59 0
v -4 -59 0
v -33 -61 0
v -34 -61 0
v -34 -60 0
v -33 -60 0
v -4 -61 0
v -5 -61 0
v -5 -60 0
v -4 -60 0
v -33 -62 0
v -34 -62 0
v -34 -61 0
v -33 -61 0
v -4 -62 0
v -5 -62 0
v -5 -61 0
v -4 -61 0
v -33 -63 0
v -34 -63 0
v -34 -62 0
v -33 -62 0
v -4 -63 0
v -5 -63 0
v -5 -62 0
v -4 -62 0
v -33 -64 0
v -34 -64 0
v -34 -63 0
v -33 -63 0
v -4 -64 0
v -5 -64 0
v -5 -63 0
v -4 -63 0
v -33 -65 0
v -34 -65 0
v -34 -64 0
v -33 -64 0
v -4 -65 0
v -5 -65 0
v -5 -64 0
v -4 -64 0
v -33 -66 0
v -34 -66 0
v -34 -65 0
v -33 -65 0
v -4 -66 0
v -5 -66 0
v -5 -65 0
v -4 -65 0
v -33 -67 0
v -34 -67 0
v -34 -66 0
v -33 -66 0
v -4 -67 0
v -5 -67 0
v -5 -66 0
v -4 -66 0
v -33 -68 0
v -34 -68 0
v -34 -67 0
v -33 -67 0
v -4 -68 0
v -5 -68 0
v -5 -67 0
v -4 -67 0
v -33 -69 0
v -34 -69 0
v -34 -68 0
v -33 -68 0
v -4 -69 0
v -5 -69 0
v -5 -68 0
v -4 -68 0
v -33 -70 0
v -34 -70 0
v -34 -69 0
v -33 -69 0
v -4 -70 0
v -5 -70 0
v -5 -69 0
v -4 -69 0
v -33 -79 0
v -34 -79 0
v -34 -78 0
v -33 -78 0
v -4 -79 0
v -5 -79 0
v -5 -78 0
v -4 -78 0
v -33 -80 0
v -34 -80 0
v -34 -79 0
v -33 -79 0
v -4 -80 0
v -5 -80 0
v -5 -79 0
v -4 -79 0
v -33 -81 0
v -34 -81 0
v -34 -80 0
v -33 -80 0
v -4 -81 0
v -5 -81 0
v -5 -80 0
v -4 -80 0
v -33 -82 0
v -34 -82 0
v -34 -81 0
v -33 -81 0
v -4 -82 0
v -5 -82 0
v -5 -81 0
v -4 -81 0
v -33 -83 0
v -34 -83 0
v -34 -82 0
v -33 -82 0
v -4 -83 0
v -5 -83 0
v -5 -82 0
v -4 -82 0
v -33 -84 0
v -34 -84 0
v -34 -83 0
v -33 -83 0
v -4 -84 0
v -5 -84 0
v -5 -83 0
v -4 -83 0
v -33 -85 0
v -34 -85 0
v -34 -84 0
v -33 -84 0
v -4 -85 0
v -5 -85 0
v -5 -84 0
v -4 -84 0
v -33 -86 0
v -34 -86 0
v -34 -85 0
v -33 -85 0
v -4 -86 0
v -5 -86 0
v -5 -85 0
v -4 -85 0
v -33 -87 0
v -34 -87 0
v -34 -86 0
v -33 -86 0
v -4 -87 0
v -5 -87 0
v -5 -86 0
v -4 -86 0
v -33 -88 0
v -34 -88 0
v -34 -87 0
v -33 -87 0
v -4 -88 0
v -5 -88 0
v -5 -87 0
v -4 -87 0
v -33 -89 0
v -34 -89 0
v -34 -88 0
v -33 -88 0
v -4 -89 0
v -5 -89 0
v -5 -88 0
v -4 -88 0
v -33 -90 0
v -34 -90 0
v -34 -89 0
v -33 -89 0
v -4 -90 0
v -5 -90 0
v -5 -89 0
v -4 -89 0
v -33 -91 0
v -34 -91 0
v -34 -90 0
v -33 -90 0
v -4 -91 0
v -5 -91 0
v -5 -90 0
v -4 -90 0
v -33 -92 0
v -34 -92 0
v -34 -91 0
v -33 -91 0
v -4 -92 0
v -5 -92 0
v -5 -91 0
v -4 -91 0
v -33 -93 0
v -34 -93 0
v -34 -92 0
v -33 -92 0
v -4 -93 0
v -5 -93 0
v -5 -92 0
v -4 -92 0
v -33 -94 0
v -34 -94 0
v -34 -93 0
v -33 -93 0
v -4 -94 0
v -5 -94 0
v -5 -93 0
v -4 -93 0
v -33 -95 0
v -34 -95 0
v -34 -94 0
v -33 -94 0
v -33 -96 0
v -34 -96 0
v -34 -95 0
v -33 -95 0
v -33 -97 0
v -34 -97 0
v -34 -96 0
v -33 -96 0
v -33 -98 0
v -34 -98 0
v -34 -97 0
v -33 -97 0
v -33 -99 0
v -34 -99 0
v -34 -98 0
v -33 -98 0
v -33 -100 0
v -34 -100 0
v -34 -99 0
v -33 -99 0
v -33 -101 0
v -34 -101 0
v -34 -100 0
v -33 -100 0
v -33 -102 0
v -34 -102 0
v -34 -101 0
v -33 -101 0
v -33 -103 0
v -34 -103 0
v -34 -102 0
v -33 -102 0
v -33 -104 0
v -34 -104 0
v -34 -103 0
v -33 -103 0
v -33 -105 0
v -34 -105 0
v -34 -104 0
v -33 -104 0
v -33 -106 0
v -34 -106 0
v -34 -105 0
v -33 -105 0
v -33 -107 0
v -34 -107 0
v -34 -106 0
v -33 -106 0
v -33 -108 0
v -34 -108 0
v -34 -107 0
v -33 -107 0
v -33 -109 0
v -34 -109 0
v -34 -108 0
v -33 -108 0
v -33 -110 0
v -34 -110 0
v -34 -109 0
v -33 -109 0
v -33 -111 0
v -34 -111 0
v -34 -110 0
v -33 -110 0
v -33 -112 0
v -34 -112 0
v -34 -111 0
v -33 -111 0
v -33 -113 0
v -34 -113 0
v -34 -112 0
v -33 -112 0
v -33 -114 0
v -34 -114 0
v -34 -113 0
v -33 -113 0

# Texture cooridinates (Count = 4)
vt 0.7537879 0.5075758
vt 0.9962121 0.5075758
vt 0.9962121 0.9924242
vt 0.7537879 0.9924242

# Normal
vn 0 0 -1

# Mesh description
g AstralaProper_mesh_0016

# Faces
f 1/1/1 2/2/1 3/3/1 4/4/1
f 5/1/1 6/2/1 7/3/1 8/4/1
f 9/1/1 10/2/1 11/3/1 12/4/1
f 13/1/1 14/2/1 15/3/1 16/4/1
f 17/1/1 18/2/1 19/3/1 20/4/1
f 21/1/1 22/2/1 23/3/1 24/4/1
f 25/1/1 26/2/1 27/3/1 28/4/1
f 29/1/1 30/2/1 31/3/1 32/4/1
f 33/1/1 34/2/1 35/3/1 36/4/1
f 37/1/1 38/2/1 39/3/1 40/4/1
f 41/1/1 42/2/1 43/3/1 44/4/1
f 45/1/1 46/2/1 47/3/1 48/4/1
f 49/1/1 50/2/1 51/3/1 52/4/1
f 53/1/1 54/2/1 55/3/1 56/4/1
f 57/1/1 58/2/1 59/3/1 60/4/1
f 61/1/1 62/2/1 63/3/1 64/4/1
f 65/1/1 66/2/1 67/3/1 68/4/1
f 69/1/1 70/2/1 71/3/1 72/4/1
f 73/1/1 74/2/1 75/3/1 76/4/1
f 77/1/1 78/2/1 79/3/1 80/4/1
f 81/2/1 82/1/1 83/4/1 84/3/1
f 85/1/1 86/2/1 87/3/1 88/4/1
f 89/2/1 90/1/1 91/4/1 92/3/1
f 93/1/1 94/2/1 95/3/1 96/4/1
f 97/2/1 98/1/1 99/4/1 100/3/1
f 101/1/1 102/2/1 103/3/1 104/4/1
f 105/2/1 106/1/1 107/4/1 108/3/1
f 109/1/1 110/2/1 111/3/1 112/4/1
f 113/2/1 114/1/1 115/4/1 116/3/1
f 117/1/1 118/2/1 119/3/1 120/4/1
f 121/2/1 122/1/1 123/4/1 124/3/1
f 125/1/1 126/2/1 127/3/1 128/4/1
f 129/2/1 130/1/1 131/4/1 132/3/1
f 133/1/1 134/2/1 135/3/1 136/4/1
f 137/2/1 138/1/1 139/4/1 140/3/1
f 141/1/1 142/2/1 143/3/1 144/4/1
f 145/2/1 146/1/1 147/4/1 148/3/1
f 149/1/1 150/2/1 151/3/1 152/4/1
f 153/2/1 154/1/1 155/4/1 156/3/1
f 157/1/1 158/2/1 159/3/1 160/4/1
f 161/2/1 162/1/1 163/4/1 164/3/1
f 165/1/1 166/2/1 167/3/1 168/4/1
f 169/2/1 170/1/1 171/4/1 172/3/1
f 173/1/1 174/2/1 175/3/1 176/4/1
f 177/2/1 178/1/1 179/4/1 180/3/1
f 181/1/1 182/2/1 183/3/1 184/4/1
f 185/2/1 186/1/1 187/4/1 188/3/1
f 189/1/1 190/2/1 191/3/1 192/4/1
f 193/2/1 194/1/1 195/4/1 196/3/1
f 197/1/1 198/2/1 199/3/1 200/4/1
f 201/2/1 202/1/1 203/4/1 204/3/1
f 205/1/1 206/2/1 207/3/1 208/4/1
f 209/2/1 210/1/1 211/4/1 212/3/1
f 213/1/1 214/2/1 215/3/1 216/4/1
f 217/2/1 218/1/1 219/4/1 220/3/1
f 221/1/1 222/2/1 223/3/1 224/4/1
f 225/2/1 226/1/1 227/4/1 228/3/1
f 229/1/1 230/2/1 231/3/1 232/4/1
f 233/2/1 234/1/1 235/4/1 236/3/1
f 237/1/1 238/2/1 239/3/1 240/4/1
f 241/2/1 242/1/1 243/4/1 244/3/1
f 245/1/1 246/2/1 247/3/1 248/4/1
f 249/2/1 250/1/1 251/4/1 252/3/1
f 253/1/1 254/2/1 255/3/1 256/4/1
f 257/2/1 258/1/1 259/4/1 260/3/1
f 261/1/1 262/2/1 263/3/1 264/4/1
f 265/2/1 266/1/1 267/4/1 268/3/1
f 269/1/1 270/2/1 271/3/1 272/4/1
f 273/2/1 274/1/1 275/4/1 276/3/1
f 277/1/1 278/2/1 279/3/1 280/4/1
f 281/2/1 282/1/1 283/4/1 284/3/1
f 285/1/1 286/2/1 287/3/1 288/4/1
f 289/2/1 290/1/1 291/4/1 292/3/1
f 293/1/1 294/2/1 295/3/1 296/4/1
f 297/2/1 298/1/1 299/4/1 300/3/1
f 301/1/1 302/2/1 303/3/1 304/4/1
f 305/2/1 306/1/1 307/4/1 308/3/1
f 309/1/1 310/2/1 311/3/1 312/4/1
f 313/2/1 314/1/1 315/4/1 316/3/1
f 317/1/1 318/2/1 319/3/1 320/4/1
f 321/2/1 322/1/1 323/4/1 324/3/1
f 325/1/1 326/2/1 327/3/1 328/4/1
f 329/2/1 330/1/1 331/4/1 332/3/1
f 333/1/1 334/2/1 335/3/1 336/4/1
f 337/2/1 338/1/1 339/4/1 340/3/1
f 341/1/1 342/2/1 343/3/1 344/4/1
f 345/2/1 346/1/1 347/4/1 348/3/1
f 349/1/1 350/2/1 351/3/1 352/4/1
f 353/2/1 354/1/1 355/4/1 356/3/1
f 357/1/1 358/2/1 359/3/1 360/4/1
f 361/2/1 362/1/1 363/4/1 364/3/1
f 365/1/1 366/2/1 367/3/1 368/4/1
f 369/2/1 370/1/1 371/4/1 372/3/1
f 373/1/1 374/2/1 375/3/1 376/4/1
f 377/2/1 378/1/1 379/4/1 380/3/1
f 381/1/1 382/2/1 383/3/1 384/4/1
f 385/2/1 386/1/1 387/4/1 388/3/1
f 389/1/1 390/2/1 391/3/1 392/4/1
f 393/2/1 394/1/1 395/4/1 396/3/1
f 397/1/1 398/2/1 399/3/1 400/4/1
f 401/2/1 402/1/1 403/4/1 404/3/1
f 405/1/1 406/2/1 407/3/1 408/4/1
f 409/2/1 410/1/1 411/4/1 412/3/1
f 413/1/1 414/2/1 415/3/1 416/4/1
f 417/2/1 418/1/1 419/4/1 420/3/1
f 421/1/1 422/2/1 423/3/1 424/4/1
f 425/2/1 426/1/1 427/4/1 428/3/1
f 429/1/1 430/2/1 431/3/1 432/4/1
f 433/2/1 434/1/1 435/4/1 436/3/1
f 437/1/1 438/2/1 439/3/1 440/4/1
f 441/2/1 442/1/1 443/4/1 444/3/1
f 445/1/1 446/2/1 447/3/1 448/4/1
f 449/2/1 450/1/1 451/4/1 452/3/1
f 453/1/1 454/2/1 455/3/1 456/4/1
f 457/2/1 458/1/1 459/4/1 460/3/1
f 461/1/1 462/2/1 463/3/1 464/4/1
f 465/2/1 466/1/1 467/4/1 468/3/1
f 469/1/1 470/2/1 471/3/1 472/4/1
f 473/2/1 474/1/1 475/4/1 476/3/1
f 477/1/1 478/2/1 479/3/1 480/4/1
f 481/2/1 482/1/1 483/4/1 484/3/1
f 485/1/1 486/2/1 487/3/1 488/4/1
f 489/1/1 490/2/1 491/3/1 492/4/1
f 493/1/1 494/2/1 495/3/1 496/4/1
f 497/1/1 498/2/1 499/3/1 500/4/1
f 501/1/1 502/2/1 503/3/1 504/4/1
f 505/1/1 506/2/1 507/3/1 508/4/1
f 509/1/1 510/2/1 511/3/1 512/4/1
f 513/1/1 514/2/1 515/3/1 516/4/1
f 517/1/1 518/2/1 519/3/1 520/4/1
f 521/1/1 522/2/1 523/3/1 524/4/1
f 525/1/1 526/2/1 527/3/1 528/4/1
f 529/1/1 530/2/1 531/3/1 532/4/1
f 533/1/1 534/2/1 535/3/1 536/4/1
f 537/1/1 538/2/1 539/3/1 540/4/1
f 541/1/1 542/2/1 543/3/1 544/4/1
f 545/1/1 546/2/1 547/3/1 548/4/1
f 549/1/1 550/2/1 551/3/1 552/4/1
f 553/1/1 554/2/1 555/3/1 556/4/1
f 557/1/1 558/2/1 559/3/1 560/4/1
f 561/1/1 562/2/1 563/3/1 564/4/1

