# Tiled2Unity generated file. Do not modify by hand.
# Wavefront file for 'AstralaProper_mesh_0050.obj'

# Vertices (Count = 420)
v -142 -44 0
v -143 -44 0
v -143 -43 0
v -142 -43 0
v -143 -45 0
v -144 -45 0
v -144 -44 0
v -143 -44 0
v -142 -45 0
v -143 -45 0
v -143 -44 0
v -142 -44 0
v -141 -45 0
v -142 -45 0
v -142 -44 0
v -141 -44 0
v -144 -46 0
v -145 -46 0
v -145 -45 0
v -144 -45 0
v -143 -46 0
v -144 -46 0
v -144 -45 0
v -143 -45 0
v -142 -46 0
v -143 -46 0
v -143 -45 0
v -142 -45 0
v -141 -46 0
v -142 -46 0
v -142 -45 0
v -141 -45 0
v -140 -46 0
v -141 -46 0
v -141 -45 0
v -140 -45 0
v -144 -47 0
v -145 -47 0
v -145 -46 0
v -144 -46 0
v -143 -47 0
v -144 -47 0
v -144 -46 0
v -143 -46 0
v -142 -47 0
v -143 -47 0
v -143 -46 0
v -142 -46 0
v -141 -47 0
v -142 -47 0
v -142 -46 0
v -141 -46 0
v -140 -47 0
v -141 -47 0
v -141 -46 0
v -140 -46 0
v -143 -48 0
v -144 -48 0
v -144 -47 0
v -143 -47 0
v -142 -48 0
v -143 -48 0
v -143 -47 0
v -142 -47 0
v -141 -48 0
v -142 -48 0
v -142 -47 0
v -141 -47 0
v -144 -49 0
v -145 -49 0
v -145 -48 0
v -144 -48 0
v -143 -49 0
v -144 -49 0
v -144 -48 0
v -143 -48 0
v -142 -49 0
v -143 -49 0
v -143 -48 0
v -142 -48 0
v -141 -49 0
v -142 -49 0
v -142 -48 0
v -141 -48 0
v -140 -49 0
v -141 -49 0
v -141 -48 0
v -140 -48 0
v -148 -50 0
v -149 -50 0
v -149 -49 0
v -148 -49 0
v -147 -50 0
v -148 -50 0
v -148 -49 0
v -147 -49 0
v -144 -50 0
v -145 -50 0
v -145 -49 0
v -144 -49 0
v -140 -50 0
v -141 -50 0
v -141 -49 0
v -140 -49 0
v -148 -51 0
v -149 -51 0
v -149 -50 0
v -148 -50 0
v -144 -51 0
v -145 -51 0
v -145 -50 0
v -144 -50 0
v -140 -51 0
v -141 -51 0
v -141 -50 0
v -140 -50 0
v -144 -52 0
v -145 -52 0
v -145 -51 0
v -144 -51 0
v -140 -52 0
v -141 -52 0
v -141 -51 0
v -140 -51 0
v -148 -53 0
v -149 -53 0
v -149 -52 0
v -148 -52 0
v -144 -53 0
v -145 -53 0
v -145 -52 0
v -144 -52 0
v -140 -53 0
v -141 -53 0
v -141 -52 0
v -140 -52 0
v -136 -53 0
v -137 -53 0
v -137 -52 0
v -136 -52 0
v -149 -54 0
v -150 -54 0
v -150 -53 0
v -149 -53 0
v -148 -54 0
v -149 -54 0
v -149 -53 0
v -148 -53 0
v -144 -54 0
v -145 -54 0
v -145 -53 0
v -144 -53 0
v -140 -54 0
v -141 -54 0
v -141 -53 0
v -140 -53 0
v -136 -54 0
v -137 -54 0
v -137 -53 0
v -136 -53 0
v -148 -55 0
v -149 -55 0
v -149 -54 0
v -148 -54 0
v -136 -55 0
v -137 -55 0
v -137 -54 0
v -136 -54 0
v -153 -56 0
v -154 -56 0
v -154 -55 0
v -153 -55 0
v -151 -56 0
v -152 -56 0
v -152 -55 0
v -151 -55 0
v -148 -56 0
v -149 -56 0
v -149 -55 0
v -148 -55 0
v -142 -56 0
v -143 -56 0
v -143 -55 0
v -142 -55 0
v -136 -56 0
v -137 -56 0
v -137 -55 0
v -136 -55 0
v -153 -57 0
v -154 -57 0
v -154 -56 0
v -153 -56 0
v -152 -57 0
v -153 -57 0
v -153 -56 0
v -152 -56 0
v -151 -57 0
v -152 -57 0
v -152 -56 0
v -151 -56 0
v -150 -57 0
v -151 -57 0
v -151 -56 0
v -150 -56 0
v -148 -57 0
v -149 -57 0
v -149 -56 0
v -148 -56 0
v -143 -57 0
v -144 -57 0
v -144 -56 0
v -143 -56 0
v -142 -57 0
v -143 -57 0
v -143 -56 0
v -142 -56 0
v -141 -57 0
v -142 -57 0
v -142 -56 0
v -141 -56 0
v -136 -57 0
v -137 -57 0
v -137 -56 0
v -136 -56 0
v -153 -58 0
v -154 -58 0
v -154 -57 0
v -153 -57 0
v -152 -58 0
v -153 -58 0
v -153 -57 0
v -152 -57 0
v -150 -58 0
v -151 -58 0
v -151 -57 0
v -150 -57 0
v -149 -58 0
v -150 -58 0
v -150 -57 0
v -149 -57 0
v -148 -58 0
v -149 -58 0
v -149 -57 0
v -148 -57 0
v -144 -58 0
v -145 -58 0
v -145 -57 0
v -144 -57 0
v -143 -58 0
v -144 -58 0
v -144 -57 0
v -143 -57 0
v -141 -58 0
v -142 -58 0
v -142 -57 0
v -141 -57 0
v -140 -58 0
v -141 -58 0
v -141 -57 0
v -140 -57 0
v -136 -58 0
v -137 -58 0
v -137 -57 0
v -136 -57 0
v -154 -59 0
v -155 -59 0
v -155 -58 0
v -154 -58 0
v -153 -59 0
v -154 -59 0
v -154 -58 0
v -153 -58 0
v -149 -59 0
v -150 -59 0
v -150 -58 0
v -149 -58 0
v -148 -59 0
v -149 -59 0
v -149 -58 0
v -148 -58 0
v -145 -59 0
v -146 -59 0
v -146 -58 0
v -145 -58 0
v -144 -59 0
v -145 -59 0
v -145 -58 0
v -144 -58 0
v -140 -59 0
v -141 -59 0
v -141 -58 0
v -140 -58 0
v -139 -59 0
v -140 -59 0
v -140 -58 0
v -139 -58 0
v -136 -59 0
v -137 -59 0
v -137 -58 0
v -136 -58 0
v -154 -60 0
v -155 -60 0
v -155 -59 0
v -154 -59 0
v -148 -60 0
v -149 -60 0
v -149 -59 0
v -148 -59 0
v -146 -60 0
v -147 -60 0
v -147 -59 0
v -146 -59 0
v -145 -60 0
v -146 -60 0
v -146 -59 0
v -145 -59 0
v -139 -60 0
v -140 -60 0
v -140 -59 0
v -139 -59 0
v -138 -60 0
v -139 -60 0
v -139 -59 0
v -138 -59 0
v -136 -60 0
v -137 -60 0
v -137 -59 0
v -136 -59 0
v -154 -61 0
v -155 -61 0
v -155 -60 0
v -154 -60 0
v -148 -61 0
v -149 -61 0
v -149 -60 0
v -148 -60 0
v -147 -61 0
v -148 -61 0
v -148 -60 0
v -147 -60 0
v -146 -61 0
v -147 -61 0
v -147 -60 0
v -146 -60 0
v -138 -61 0
v -139 -61 0
v -139 -60 0
v -138 -60 0
v -137 -61 0
v -138 -61 0
v -138 -60 0
v -137 -60 0
v -136 -61 0
v -137 -61 0
v -137 -60 0
v -136 -60 0
v -154 -62 0
v -155 -62 0
v -155 -61 0
v -154 -61 0
v -149 -62 0
v -150 -62 0
v -150 -61 0
v -149 -61 0
v -148 -62 0
v -149 -62 0
v -149 -61 0
v -148 -61 0
v -147 -62 0
v -148 -62 0
v -148 -61 0
v -147 -61 0
v -137 -62 0
v -138 -62 0
v -138 -61 0
v -137 -61 0
v -136 -62 0
v -137 -62 0
v -137 -61 0
v -136 -61 0
v -135 -62 0
v -136 -62 0
v -136 -61 0
v -135 -61 0
v -154 -63 0
v -155 -63 0
v -155 -62 0
v -154 -62 0
v -149 -63 0
v -150 -63 0
v -150 -62 0
v -149 -62 0
v -135 -63 0
v -136 -63 0
v -136 -62 0
v -135 -62 0
v -149 -64 0
v -150 -64 0
v -150 -63 0
v -149 -63 0
v -149 -65 0
v -150 -65 0
v -150 -64 0
v -149 -64 0
v -149 -66 0
v -150 -66 0
v -150 -65 0
v -149 -65 0
v -149 -67 0
v -150 -67 0
v -150 -66 0
v -149 -66 0
v -149 -68 0
v -150 -68 0
v -150 -67 0
v -149 -67 0
v -149 -69 0
v -150 -69 0
v -150 -68 0
v -149 -68 0

# Texture cooridinates (Count = 96)
vt 0.5018939 0.8593073
vt 0.6231061 0.8593073
vt 0.6231061 0.9978355
vt 0.5018939 0.9978355
vt 0.3768939 0.8593073
vt 0.4981061 0.8593073
vt 0.4981061 0.9978355
vt 0.3768939 0.9978355
vt 0.5018939 0.7164502
vt 0.6231061 0.7164502
vt 0.6231061 0.8549783
vt 0.5018939 0.8549783
vt 0.2518939 0.8593073
vt 0.3731061 0.8593073
vt 0.3731061 0.9978355
vt 0.2518939 0.9978355
vt 0.6268939 0.4307359
vt 0.7481061 0.4307359
vt 0.7481061 0.5692641
vt 0.6268939 0.5692641
vt 0.3768939 0.7164502
vt 0.4981061 0.7164502
vt 0.4981061 0.8549783
vt 0.3768939 0.8549783
vt 0.6268939 0.5735931
vt 0.7481061 0.5735931
vt 0.7481061 0.7121212
vt 0.6268939 0.7121212
vt 0.2518939 0.7164502
vt 0.3731061 0.7164502
vt 0.3731061 0.8549783
vt 0.2518939 0.8549783
vt 0.5018939 0.4307359
vt 0.6231061 0.4307359
vt 0.6231061 0.5692641
vt 0.5018939 0.5692641
vt 0.6268939 0.1450216
vt 0.7481061 0.1450216
vt 0.7481061 0.2835498
vt 0.6268939 0.2835498
vt 0.2518939 0.5735931
vt 0.3731061 0.5735931
vt 0.3731061 0.7121212
vt 0.2518939 0.7121212
vt 0.1268939 0.5735931
vt 0.2481061 0.5735931
vt 0.2481061 0.7121212
vt 0.1268939 0.7121212
vt 0.001893939 0.5735931
vt 0.1231061 0.5735931
vt 0.1231061 0.7121212
vt 0.001893939 0.7121212
vt 0.5018939 0.1450216
vt 0.6231061 0.1450216
vt 0.6231061 0.2835498
vt 0.5018939 0.2835498
vt 0.2518939 0.4307359
vt 0.3731061 0.4307359
vt 0.3731061 0.5692641
vt 0.2518939 0.5692641
vt 0.1268939 0.4307359
vt 0.2481061 0.4307359
vt 0.2481061 0.5692641
vt 0.1268939 0.5692641
vt 0.001893939 0.4307359
vt 0.1231061 0.4307359
vt 0.1231061 0.5692641
vt 0.001893939 0.5692641
vt 0.2518939 0.1450216
vt 0.3731061 0.1450216
vt 0.3731061 0.2835498
vt 0.2518939 0.2835498
vt 0.1268939 0.1450216
vt 0.2481061 0.1450216
vt 0.2481061 0.2835498
vt 0.1268939 0.2835498
vt 0.001893939 0.1450216
vt 0.1231061 0.1450216
vt 0.1231061 0.2835498
vt 0.001893939 0.2835498
vt 0.6268939 0.2878788
vt 0.7481061 0.2878788
vt 0.7481061 0.4264069
vt 0.6268939 0.4264069
vt 0.5018939 0.2878788
vt 0.6231061 0.2878788
vt 0.6231061 0.4264069
vt 0.5018939 0.4264069
vt 0.1268939 0.7164502
vt 0.2481061 0.7164502
vt 0.2481061 0.8549783
vt 0.1268939 0.8549783
vt 0.001893939 0.7164502
vt 0.1231061 0.7164502
vt 0.1231061 0.8549783
vt 0.001893939 0.8549783

# Normal
vn 0 0 -1

# Mesh description
g AstralaProper_mesh_0050

# Faces
f 1/1/1 2/2/1 3/3/1 4/4/1
f 5/5/1 6/6/1 7/7/1 8/8/1
f 9/9/1 10/10/1 11/11/1 12/12/1
f 13/13/1 14/14/1 15/15/1 16/16/1
f 17/17/1 18/18/1 19/19/1 20/20/1
f 21/21/1 22/22/1 23/23/1 24/24/1
f 25/25/1 26/26/1 27/27/1 28/28/1
f 29/29/1 30/30/1 31/31/1 32/32/1
f 33/33/1 34/34/1 35/35/1 36/36/1
f 37/37/1 38/38/1 39/39/1 40/40/1
f 41/41/1 42/42/1 43/43/1 44/44/1
f 45/45/1 46/46/1 47/47/1 48/48/1
f 49/49/1 50/50/1 51/51/1 52/52/1
f 53/53/1 54/54/1 55/55/1 56/56/1
f 57/57/1 58/58/1 59/59/1 60/60/1
f 61/61/1 62/62/1 63/63/1 64/64/1
f 65/65/1 66/66/1 67/67/1 68/68/1
f 69/37/1 70/38/1 71/39/1 72/40/1
f 73/69/1 74/70/1 75/71/1 76/72/1
f 77/73/1 78/74/1 79/75/1 80/76/1
f 81/77/1 82/78/1 83/79/1 84/80/1
f 85/53/1 86/54/1 87/55/1 88/56/1
f 89/1/1 90/2/1 91/3/1 92/4/1
f 93/5/1 94/6/1 95/7/1 96/8/1
f 97/81/1 98/82/1 99/83/1 100/84/1
f 101/85/1 102/86/1 103/87/1 104/88/1
f 105/9/1 106/10/1 107/11/1 108/12/1
f 109/37/1 110/38/1 111/39/1 112/40/1
f 113/53/1 114/54/1 115/55/1 116/56/1
f 117/37/1 118/38/1 119/39/1 120/40/1
f 121/53/1 122/54/1 123/55/1 124/56/1
f 125/89/1 126/90/1 127/91/1 128/92/1
f 129/37/1 130/38/1 131/39/1 132/40/1
f 133/53/1 134/54/1 135/55/1 136/56/1
f 137/93/1 138/94/1 139/95/1 140/96/1
f 141/13/1 142/14/1 143/15/1 144/16/1
f 145/89/1 146/90/1 147/91/1 148/92/1
f 149/37/1 150/38/1 151/39/1 152/40/1
f 153/53/1 154/54/1 155/55/1 156/56/1
f 157/93/1 158/94/1 159/95/1 160/96/1
f 161/89/1 162/90/1 163/91/1 164/92/1
f 165/93/1 166/94/1 167/95/1 168/96/1
f 169/89/1 170/90/1 171/91/1 172/92/1
f 173/1/1 174/2/1 175/3/1 176/4/1
f 177/89/1 178/90/1 179/91/1 180/92/1
f 181/1/1 182/2/1 183/3/1 184/4/1
f 185/93/1 186/94/1 187/95/1 188/96/1
f 189/89/1 190/90/1 191/91/1 192/92/1
f 193/5/1 194/6/1 195/7/1 196/8/1
f 197/9/1 198/10/1 199/11/1 200/12/1
f 201/13/1 202/14/1 203/15/1 204/16/1
f 205/89/1 206/90/1 207/91/1 208/92/1
f 209/5/1 210/6/1 211/7/1 212/8/1
f 213/9/1 214/10/1 215/11/1 216/12/1
f 217/13/1 218/14/1 219/15/1 220/16/1
f 221/93/1 222/94/1 223/95/1 224/96/1
f 225/89/1 226/90/1 227/91/1 228/92/1
f 229/21/1 230/22/1 231/23/1 232/24/1
f 233/29/1 234/30/1 235/31/1 236/32/1
f 237/13/1 238/14/1 239/15/1 240/16/1
f 241/89/1 242/90/1 243/91/1 244/92/1
f 245/5/1 246/6/1 247/7/1 248/8/1
f 249/21/1 250/22/1 251/23/1 252/24/1
f 253/29/1 254/30/1 255/31/1 256/32/1
f 257/13/1 258/14/1 259/15/1 260/16/1
f 261/93/1 262/94/1 263/95/1 264/96/1
f 265/17/1 266/18/1 267/19/1 268/20/1
f 269/21/1 270/22/1 271/23/1 272/24/1
f 273/29/1 274/30/1 275/31/1 276/32/1
f 277/89/1 278/90/1 279/91/1 280/92/1
f 281/5/1 282/6/1 283/7/1 284/8/1
f 285/21/1 286/22/1 287/23/1 288/24/1
f 289/29/1 290/30/1 291/31/1 292/32/1
f 293/13/1 294/14/1 295/15/1 296/16/1
f 297/93/1 298/94/1 299/95/1 300/96/1
f 301/37/1 302/38/1 303/39/1 304/40/1
f 305/89/1 306/90/1 307/91/1 308/92/1
f 309/5/1 310/6/1 311/7/1 312/8/1
f 313/21/1 314/22/1 315/23/1 316/24/1
f 317/29/1 318/30/1 319/31/1 320/32/1
f 321/13/1 322/14/1 323/15/1 324/16/1
f 325/93/1 326/94/1 327/95/1 328/96/1
f 329/81/1 330/82/1 331/83/1 332/84/1
f 333/89/1 334/90/1 335/91/1 336/92/1
f 337/5/1 338/6/1 339/7/1 340/8/1
f 341/21/1 342/22/1 343/23/1 344/24/1
f 345/29/1 346/30/1 347/31/1 348/32/1
f 349/13/1 350/14/1 351/15/1 352/16/1
f 353/93/1 354/94/1 355/95/1 356/96/1
f 357/81/1 358/82/1 359/83/1 360/84/1
f 361/17/1 362/18/1 363/19/1 364/20/1
f 365/89/1 366/90/1 367/91/1 368/92/1
f 369/21/1 370/22/1 371/23/1 372/24/1
f 373/29/1 374/30/1 375/31/1 376/32/1
f 377/93/1 378/94/1 379/95/1 380/96/1
f 381/33/1 382/34/1 383/35/1 384/36/1
f 385/37/1 386/38/1 387/39/1 388/40/1
f 389/37/1 390/38/1 391/39/1 392/40/1
f 393/53/1 394/54/1 395/55/1 396/56/1
f 397/37/1 398/38/1 399/39/1 400/40/1
f 401/81/1 402/82/1 403/83/1 404/84/1
f 405/37/1 406/38/1 407/39/1 408/40/1
f 409/37/1 410/38/1 411/39/1 412/40/1
f 413/81/1 414/82/1 415/83/1 416/84/1
f 417/37/1 418/38/1 419/39/1 420/40/1

