# Tiled2Unity generated file. Do not modify by hand.
# Wavefront file for 'AstralaProper_mesh_0002.obj'

# Vertices (Count = 120)
v -128 -1 0
v -129 -1 0
v -129 0 0
v -128 0 0
v -126 -1 0
v -127 -1 0
v -127 0 0
v -126 0 0
v -109 -1 0
v -110 -1 0
v -110 0 0
v -109 0 0
v -107 -1 0
v -108 -1 0
v -108 0 0
v -107 0 0
v -128 -2 0
v -129 -2 0
v -129 -1 0
v -128 -1 0
v -126 -2 0
v -127 -2 0
v -127 -1 0
v -126 -1 0
v -109 -2 0
v -110 -2 0
v -110 -1 0
v -109 -1 0
v -107 -2 0
v -108 -2 0
v -108 -1 0
v -107 -1 0
v -128 -3 0
v -129 -3 0
v -129 -2 0
v -128 -2 0
v -126 -3 0
v -127 -3 0
v -127 -2 0
v -126 -2 0
v -109 -3 0
v -110 -3 0
v -110 -2 0
v -109 -2 0
v -107 -3 0
v -108 -3 0
v -108 -2 0
v -107 -2 0
v -128 -4 0
v -129 -4 0
v -129 -3 0
v -128 -3 0
v -107 -4 0
v -108 -4 0
v -108 -3 0
v -107 -3 0
v -128 -5 0
v -129 -5 0
v -129 -4 0
v -128 -4 0
v -107 -5 0
v -108 -5 0
v -108 -4 0
v -107 -4 0
v -82 -68 0
v -83 -68 0
v -83 -67 0
v -82 -67 0
v -81 -68 0
v -82 -68 0
v -82 -67 0
v -81 -67 0
v -82 -69 0
v -83 -69 0
v -83 -68 0
v -82 -68 0
v -99 -70 0
v -100 -70 0
v -100 -69 0
v -99 -69 0
v -92 -70 0
v -93 -70 0
v -93 -69 0
v -92 -69 0
v -91 -70 0
v -92 -70 0
v -92 -69 0
v -91 -69 0
v -90 -70 0
v -91 -70 0
v -91 -69 0
v -90 -69 0
v -89 -70 0
v -90 -70 0
v -90 -69 0
v -89 -69 0
v -88 -70 0
v -89 -70 0
v -89 -69 0
v -88 -69 0
v -87 -70 0
v -88 -70 0
v -88 -69 0
v -87 -69 0
v -86 -70 0
v -87 -70 0
v -87 -69 0
v -86 -69 0
v -85 -70 0
v -86 -70 0
v -86 -69 0
v -85 -69 0
v -84 -70 0
v -85 -70 0
v -85 -69 0
v -84 -69 0
v -83 -70 0
v -84 -70 0
v -84 -69 0
v -83 -69 0

# Texture cooridinates (Count = 20)
vt 0.6717172 0.1691919
vt 0.9949495 0.1691919
vt 0.9949495 0.3308081
vt 0.6717172 0.3308081
vt 0.005050505 0.1691919
vt 0.3282828 0.1691919
vt 0.3282828 0.3308081
vt 0.005050505 0.3308081
vt 0.6717172 0.3358586
vt 0.9949495 0.3358586
vt 0.9949495 0.4974747
vt 0.6717172 0.4974747
vt 0.3383838 0.3358586
vt 0.6616161 0.3358586
vt 0.6616161 0.4974747
vt 0.3383838 0.4974747
vt 0.005050505 0.3358586
vt 0.3282828 0.3358586
vt 0.3282828 0.4974747
vt 0.005050505 0.4974747

# Normal
vn 0 0 -1

# Mesh description
g AstralaProper_mesh_0002

# Faces
f 1/1/1 2/2/1 3/3/1 4/4/1
f 5/5/1 6/6/1 7/7/1 8/8/1
f 9/1/1 10/2/1 11/3/1 12/4/1
f 13/5/1 14/6/1 15/7/1 16/8/1
f 17/1/1 18/2/1 19/3/1 20/4/1
f 21/5/1 22/6/1 23/7/1 24/8/1
f 25/1/1 26/2/1 27/3/1 28/4/1
f 29/5/1 30/6/1 31/7/1 32/8/1
f 33/1/1 34/2/1 35/3/1 36/4/1
f 37/5/1 38/6/1 39/7/1 40/8/1
f 41/1/1 42/2/1 43/3/1 44/4/1
f 45/5/1 46/6/1 47/7/1 48/8/1
f 49/1/1 50/2/1 51/3/1 52/4/1
f 53/5/1 54/6/1 55/7/1 56/8/1
f 57/1/1 58/2/1 59/3/1 60/4/1
f 61/5/1 62/6/1 63/7/1 64/8/1
f 65/9/1 66/10/1 67/11/1 68/12/1
f 69/13/1 70/14/1 71/15/1 72/16/1
f 73/1/1 74/2/1 75/3/1 76/4/1
f 77/17/1 78/18/1 79/19/1 80/20/1
f 81/13/1 82/14/1 83/15/1 84/16/1
f 85/13/1 86/14/1 87/15/1 88/16/1
f 89/13/1 90/14/1 91/15/1 92/16/1
f 93/13/1 94/14/1 95/15/1 96/16/1
f 97/13/1 98/14/1 99/15/1 100/16/1
f 101/13/1 102/14/1 103/15/1 104/16/1
f 105/13/1 106/14/1 107/15/1 108/16/1
f 109/13/1 110/14/1 111/15/1 112/16/1
f 113/13/1 114/14/1 115/15/1 116/16/1
f 117/13/1 118/14/1 119/15/1 120/16/1

