# Tiled2Unity generated file. Do not modify by hand.
# Wavefront file for 'AstralaProper_mesh_0065.obj'

# Vertices (Count = 20)
v -94 -35 0
v -95 -35 0
v -95 -34 0
v -94 -34 0
v -94 -36 0
v -95 -36 0
v -95 -35 0
v -94 -35 0
v -94 -37 0
v -95 -37 0
v -95 -36 0
v -94 -36 0
v -94 -38 0
v -95 -38 0
v -95 -37 0
v -94 -37 0
v -94 -39 0
v -95 -39 0
v -95 -38 0
v -94 -38 0

# Texture cooridinates (Count = 8)
vt 0.01515152 0.7794613
vt 0.9848485 0.7794613
vt 0.9848485 0.8872054
vt 0.01515152 0.8872054
vt 0.01515152 0.6683502
vt 0.9848485 0.6683502
vt 0.9848485 0.7760943
vt 0.01515152 0.7760943

# Normal
vn 0 0 -1

# Mesh description
g AstralaProper_mesh_0065

# Faces
f 1/1/1 2/2/1 3/3/1 4/4/1
f 5/5/1 6/6/1 7/7/1 8/8/1
f 9/5/1 10/6/1 11/7/1 12/8/1
f 13/5/1 14/6/1 15/7/1 16/8/1
f 17/5/1 18/6/1 19/7/1 20/8/1

