# Tiled2Unity generated file. Do not modify by hand.
# Wavefront file for 'AstralaProper_mesh_0004.obj'

# Vertices (Count = 88)
v -96 -75 0
v -97 -75 0
v -97 -74 0
v -96 -74 0
v -96 -76 0
v -97 -76 0
v -97 -75 0
v -96 -75 0
v -97 -77 0
v -98 -77 0
v -98 -76 0
v -97 -76 0
v -96 -77 0
v -97 -77 0
v -97 -76 0
v -96 -76 0
v -97 -78 0
v -98 -78 0
v -98 -77 0
v -97 -77 0
v -96 -78 0
v -97 -78 0
v -97 -77 0
v -96 -77 0
v -97 -79 0
v -98 -79 0
v -98 -78 0
v -97 -78 0
v -96 -79 0
v -97 -79 0
v -97 -78 0
v -96 -78 0
v -97 -80 0
v -98 -80 0
v -98 -79 0
v -97 -79 0
v -96 -80 0
v -97 -80 0
v -97 -79 0
v -96 -79 0
v -97 -81 0
v -98 -81 0
v -98 -80 0
v -97 -80 0
v -96 -81 0
v -97 -81 0
v -97 -80 0
v -96 -80 0
v -97 -82 0
v -98 -82 0
v -98 -81 0
v -97 -81 0
v -96 -82 0
v -97 -82 0
v -97 -81 0
v -96 -81 0
v -97 -83 0
v -98 -83 0
v -98 -82 0
v -97 -82 0
v -96 -83 0
v -97 -83 0
v -97 -82 0
v -96 -82 0
v -97 -84 0
v -98 -84 0
v -98 -83 0
v -97 -83 0
v -96 -84 0
v -97 -84 0
v -97 -83 0
v -96 -83 0
v -96 -85 0
v -97 -85 0
v -97 -84 0
v -96 -84 0
v -96 -86 0
v -97 -86 0
v -97 -85 0
v -96 -85 0
v -96 -87 0
v -97 -87 0
v -97 -86 0
v -96 -86 0
v -96 -88 0
v -97 -88 0
v -97 -87 0
v -96 -87 0

# Texture cooridinates (Count = 32)
vt 0.01515152 0.8768939
vt 0.9848485 0.8768939
vt 0.9848485 0.9981061
vt 0.01515152 0.9981061
vt 0.01515152 0.7518939
vt 0.9848485 0.7518939
vt 0.9848485 0.8731061
vt 0.01515152 0.8731061
vt 0.01515152 0.6268939
vt 0.9848485 0.6268939
vt 0.9848485 0.7481061
vt 0.01515152 0.7481061
vt 0.01515152 0.2518939
vt 0.9848485 0.2518939
vt 0.9848485 0.3731061
vt 0.01515152 0.3731061
vt 0.01515152 0.5018939
vt 0.9848485 0.5018939
vt 0.9848485 0.6231061
vt 0.01515152 0.6231061
vt 0.01515152 0.3768939
vt 0.9848485 0.3768939
vt 0.9848485 0.4981061
vt 0.01515152 0.4981061
vt 0.01515152 0.1268939
vt 0.9848485 0.1268939
vt 0.9848485 0.2481061
vt 0.01515152 0.2481061
vt 0.01515152 0.001893938
vt 0.9848485 0.001893938
vt 0.9848485 0.1231061
vt 0.01515152 0.1231061

# Normal
vn 0 0 -1

# Mesh description
g AstralaProper_mesh_0004

# Faces
f 1/1/1 2/2/1 3/3/1 4/4/1
f 5/5/1 6/6/1 7/7/1 8/8/1
f 9/1/1 10/2/1 11/3/1 12/4/1
f 13/9/1 14/10/1 15/11/1 16/12/1
f 17/13/1 18/14/1 19/15/1 20/16/1
f 21/9/1 22/10/1 23/11/1 24/12/1
f 25/5/1 26/6/1 27/7/1 28/8/1
f 29/9/1 30/10/1 31/11/1 32/12/1
f 33/9/1 34/10/1 35/11/1 36/12/1
f 37/9/1 38/10/1 39/11/1 40/12/1
f 41/17/1 42/18/1 43/19/1 44/20/1
f 45/9/1 46/10/1 47/11/1 48/12/1
f 49/21/1 50/22/1 51/23/1 52/24/1
f 53/9/1 54/10/1 55/11/1 56/12/1
f 57/25/1 58/26/1 59/27/1 60/28/1
f 61/9/1 62/10/1 63/11/1 64/12/1
f 65/29/1 66/30/1 67/31/1 68/32/1
f 69/9/1 70/10/1 71/11/1 72/12/1
f 73/17/1 74/18/1 75/19/1 76/20/1
f 77/21/1 78/22/1 79/23/1 80/24/1
f 81/25/1 82/26/1 83/27/1 84/28/1
f 85/29/1 86/30/1 87/31/1 88/32/1

