# Tiled2Unity generated file. Do not modify by hand.
# Wavefront file for 'AstralaProper_mesh_0006.obj'

# Vertices (Count = 256)
v -144 -1 0
v -145 -1 0
v -145 0 0
v -144 0 0
v -143 -1 0
v -144 -1 0
v -144 0 0
v -143 0 0
v -142 -1 0
v -143 -1 0
v -143 0 0
v -142 0 0
v -141 -1 0
v -142 -1 0
v -142 0 0
v -141 0 0
v -145 -2 0
v -146 -2 0
v -146 -1 0
v -145 -1 0
v -143 -2 0
v -144 -2 0
v -144 -1 0
v -143 -1 0
v -142 -2 0
v -143 -2 0
v -143 -1 0
v -142 -1 0
v -143 -3 0
v -144 -3 0
v -144 -2 0
v -143 -2 0
v -142 -3 0
v -143 -3 0
v -143 -2 0
v -142 -2 0
v -142 -4 0
v -143 -4 0
v -143 -3 0
v -142 -3 0
v -145 -5 0
v -146 -5 0
v -146 -4 0
v -145 -4 0
v -100 -52 0
v -101 -52 0
v -101 -51 0
v -100 -51 0
v -80 -52 0
v -81 -52 0
v -81 -51 0
v -80 -51 0
v -100 -53 0
v -101 -53 0
v -101 -52 0
v -100 -52 0
v -80 -53 0
v -81 -53 0
v -81 -52 0
v -80 -52 0
v -100 -54 0
v -101 -54 0
v -101 -53 0
v -100 -53 0
v -80 -54 0
v -81 -54 0
v -81 -53 0
v -80 -53 0
v -100 -55 0
v -101 -55 0
v -101 -54 0
v -100 -54 0
v -80 -55 0
v -81 -55 0
v -81 -54 0
v -80 -54 0
v -100 -56 0
v -101 -56 0
v -101 -55 0
v -100 -55 0
v -80 -56 0
v -81 -56 0
v -81 -55 0
v -80 -55 0
v -100 -57 0
v -101 -57 0
v -101 -56 0
v -100 -56 0
v -80 -57 0
v -81 -57 0
v -81 -56 0
v -80 -56 0
v -100 -58 0
v -101 -58 0
v -101 -57 0
v -100 -57 0
v -80 -58 0
v -81 -58 0
v -81 -57 0
v -80 -57 0
v -100 -59 0
v -101 -59 0
v -101 -58 0
v -100 -58 0
v -80 -59 0
v -81 -59 0
v -81 -58 0
v -80 -58 0
v -100 -60 0
v -101 -60 0
v -101 -59 0
v -100 -59 0
v -80 -60 0
v -81 -60 0
v -81 -59 0
v -80 -59 0
v -100 -61 0
v -101 -61 0
v -101 -60 0
v -100 -60 0
v -80 -61 0
v -81 -61 0
v -81 -60 0
v -80 -60 0
v -100 -62 0
v -101 -62 0
v -101 -61 0
v -100 -61 0
v -80 -62 0
v -81 -62 0
v -81 -61 0
v -80 -61 0
v -100 -63 0
v -101 -63 0
v -101 -62 0
v -100 -62 0
v -80 -63 0
v -81 -63 0
v -81 -62 0
v -80 -62 0
v -100 -64 0
v -101 -64 0
v -101 -63 0
v -100 -63 0
v -80 -64 0
v -81 -64 0
v -81 -63 0
v -80 -63 0
v -100 -65 0
v -101 -65 0
v -101 -64 0
v -100 -64 0
v -80 -65 0
v -81 -65 0
v -81 -64 0
v -80 -64 0
v -100 -66 0
v -101 -66 0
v -101 -65 0
v -100 -65 0
v -80 -66 0
v -81 -66 0
v -81 -65 0
v -80 -65 0
v -100 -67 0
v -101 -67 0
v -101 -66 0
v -100 -66 0
v -80 -67 0
v -81 -67 0
v -81 -66 0
v -80 -66 0
v -100 -68 0
v -101 -68 0
v -101 -67 0
v -100 -67 0
v -80 -68 0
v -81 -68 0
v -81 -67 0
v -80 -67 0
v -100 -69 0
v -101 -69 0
v -101 -68 0
v -100 -68 0
v -80 -69 0
v -81 -69 0
v -81 -68 0
v -80 -68 0
v -100 -70 0
v -101 -70 0
v -101 -69 0
v -100 -69 0
v -80 -70 0
v -81 -70 0
v -81 -69 0
v -80 -69 0
v -100 -71 0
v -101 -71 0
v -101 -70 0
v -100 -70 0
v -99 -71 0
v -100 -71 0
v -100 -70 0
v -99 -70 0
v -92 -71 0
v -93 -71 0
v -93 -70 0
v -92 -70 0
v -91 -71 0
v -92 -71 0
v -92 -70 0
v -91 -70 0
v -90 -71 0
v -91 -71 0
v -91 -70 0
v -90 -70 0
v -89 -71 0
v -90 -71 0
v -90 -70 0
v -89 -70 0
v -88 -71 0
v -89 -71 0
v -89 -70 0
v -88 -70 0
v -87 -71 0
v -88 -71 0
v -88 -70 0
v -87 -70 0
v -86 -71 0
v -87 -71 0
v -87 -70 0
v -86 -70 0
v -85 -71 0
v -86 -71 0
v -86 -70 0
v -85 -70 0
v -84 -71 0
v -85 -71 0
v -85 -70 0
v -84 -70 0
v -83 -71 0
v -84 -71 0
v -84 -70 0
v -83 -70 0
v -82 -71 0
v -83 -71 0
v -83 -70 0
v -82 -70 0
v -81 -71 0
v -82 -71 0
v -82 -70 0
v -81 -70 0
v -80 -71 0
v -81 -71 0
v -81 -70 0
v -80 -70 0

# Texture cooridinates (Count = 36)
vt 0.6717172 0.1691919
vt 0.9949495 0.1691919
vt 0.9949495 0.3308081
vt 0.6717172 0.3308081
vt 0.3383838 0.1691919
vt 0.6616161 0.1691919
vt 0.6616161 0.3308081
vt 0.3383838 0.3308081
vt 0.005050505 0.1691919
vt 0.3282828 0.1691919
vt 0.3282828 0.3308081
vt 0.005050505 0.3308081
vt 0.005050505 0.669192
vt 0.3282828 0.669192
vt 0.3282828 0.8308081
vt 0.005050505 0.8308081
vt 0.6717172 0.5025252
vt 0.9949495 0.5025252
vt 0.9949495 0.6641414
vt 0.6717172 0.6641414
vt 0.005050505 0.5025252
vt 0.3282828 0.5025252
vt 0.3282828 0.6641414
vt 0.005050505 0.6641414
vt 0.005050505 0.8358586
vt 0.3282828 0.8358586
vt 0.3282828 0.9974747
vt 0.005050505 0.9974747
vt 0.6717172 0.3358586
vt 0.9949495 0.3358586
vt 0.9949495 0.4974747
vt 0.6717172 0.4974747
vt 0.005050505 0.3358586
vt 0.3282828 0.3358586
vt 0.3282828 0.4974747
vt 0.005050505 0.4974747

# Normal
vn 0 0 -1

# Mesh description
g AstralaProper_mesh_0006

# Faces
f 1/1/1 2/2/1 3/3/1 4/4/1
f 5/5/1 6/6/1 7/7/1 8/8/1
f 9/5/1 10/6/1 11/7/1 12/8/1
f 13/9/1 14/10/1 15/11/1 16/12/1
f 17/13/1 18/14/1 19/15/1 20/16/1
f 21/17/1 22/18/1 23/19/1 24/20/1
f 25/21/1 26/22/1 27/23/1 28/24/1
f 29/1/1 30/2/1 31/3/1 32/4/1
f 33/9/1 34/10/1 35/11/1 36/12/1
f 37/13/1 38/14/1 39/15/1 40/16/1
f 41/25/1 42/26/1 43/27/1 44/28/1
f 45/17/1 46/18/1 47/19/1 48/20/1
f 49/21/1 50/22/1 51/23/1 52/24/1
f 53/29/1 54/30/1 55/31/1 56/32/1
f 57/33/1 58/34/1 59/35/1 60/36/1
f 61/29/1 62/30/1 63/31/1 64/32/1
f 65/33/1 66/34/1 67/35/1 68/36/1
f 69/29/1 70/30/1 71/31/1 72/32/1
f 73/33/1 74/34/1 75/35/1 76/36/1
f 77/29/1 78/30/1 79/31/1 80/32/1
f 81/33/1 82/34/1 83/35/1 84/36/1
f 85/29/1 86/30/1 87/31/1 88/32/1
f 89/33/1 90/34/1 91/35/1 92/36/1
f 93/29/1 94/30/1 95/31/1 96/32/1
f 97/33/1 98/34/1 99/35/1 100/36/1
f 101/29/1 102/30/1 103/31/1 104/32/1
f 105/33/1 106/34/1 107/35/1 108/36/1
f 109/29/1 110/30/1 111/31/1 112/32/1
f 113/33/1 114/34/1 115/35/1 116/36/1
f 117/29/1 118/30/1 119/31/1 120/32/1
f 121/33/1 122/34/1 123/35/1 124/36/1
f 125/29/1 126/30/1 127/31/1 128/32/1
f 129/33/1 130/34/1 131/35/1 132/36/1
f 133/29/1 134/30/1 135/31/1 136/32/1
f 137/33/1 138/34/1 139/35/1 140/36/1
f 141/29/1 142/30/1 143/31/1 144/32/1
f 145/33/1 146/34/1 147/35/1 148/36/1
f 149/29/1 150/30/1 151/31/1 152/32/1
f 153/33/1 154/34/1 155/35/1 156/36/1
f 157/29/1 158/30/1 159/31/1 160/32/1
f 161/33/1 162/34/1 163/35/1 164/36/1
f 165/29/1 166/30/1 167/31/1 168/32/1
f 169/33/1 170/34/1 171/35/1 172/36/1
f 173/29/1 174/30/1 175/31/1 176/32/1
f 177/33/1 178/34/1 179/35/1 180/36/1
f 181/29/1 182/30/1 183/31/1 184/32/1
f 185/33/1 186/34/1 187/35/1 188/36/1
f 189/29/1 190/30/1 191/31/1 192/32/1
f 193/33/1 194/34/1 195/35/1 196/36/1
f 197/1/1 198/2/1 199/3/1 200/4/1
f 201/5/1 202/6/1 203/7/1 204/8/1
f 205/5/1 206/6/1 207/7/1 208/8/1
f 209/5/1 210/6/1 211/7/1 212/8/1
f 213/5/1 214/6/1 215/7/1 216/8/1
f 217/5/1 218/6/1 219/7/1 220/8/1
f 221/5/1 222/6/1 223/7/1 224/8/1
f 225/5/1 226/6/1 227/7/1 228/8/1
f 229/5/1 230/6/1 231/7/1 232/8/1
f 233/5/1 234/6/1 235/7/1 236/8/1
f 237/5/1 238/6/1 239/7/1 240/8/1
f 241/5/1 242/6/1 243/7/1 244/8/1
f 245/5/1 246/6/1 247/7/1 248/8/1
f 249/5/1 250/6/1 251/7/1 252/8/1
f 253/9/1 254/10/1 255/11/1 256/12/1

