# Tiled2Unity generated file. Do not modify by hand.
# Wavefront file for 'AstralaProper_mesh_0062.obj'

# Vertices (Count = 428)
v -83 -5 0
v -84 -5 0
v -84 -4 0
v -83 -4 0
v -80 -7 0
v -81 -7 0
v -81 -6 0
v -80 -6 0
v -136 -8 0
v -137 -8 0
v -137 -7 0
v -136 -7 0
v -81 -8 0
v -82 -8 0
v -82 -7 0
v -81 -7 0
v -135 -9 0
v -136 -9 0
v -136 -8 0
v -135 -8 0
v -82 -9 0
v -83 -9 0
v -83 -8 0
v -82 -8 0
v -74 -14 0
v -75 -14 0
v -75 -13 0
v -74 -13 0
v -62 -14 0
v -63 -14 0
v -63 -13 0
v -62 -13 0
v -161 -16 0
v -162 -16 0
v -162 -15 0
v -161 -15 0
v -153 -16 0
v -154 -16 0
v -154 -15 0
v -153 -15 0
v -160 -17 0
v -161 -17 0
v -161 -16 0
v -160 -16 0
v -154 -17 0
v -155 -17 0
v -155 -16 0
v -154 -16 0
v -166 -19 0
v -167 -19 0
v -167 -18 0
v -166 -18 0
v -55 -22 0
v -56 -22 0
v -56 -21 0
v -55 -21 0
v -50 -22 0
v -51 -22 0
v -51 -21 0
v -50 -21 0
v -54 -23 0
v -55 -23 0
v -55 -22 0
v -54 -22 0
v -51 -23 0
v -52 -23 0
v -52 -22 0
v -51 -22 0
v -99 -26 0
v -100 -26 0
v -100 -25 0
v -99 -25 0
v -96 -29 0
v -97 -29 0
v -97 -28 0
v -96 -28 0
v -95 -30 0
v -96 -30 0
v -96 -29 0
v -95 -29 0
v -212 -36 0
v -213 -36 0
v -213 -35 0
v -212 -35 0
v -208 -36 0
v -209 -36 0
v -209 -35 0
v -208 -35 0
v -213 -37 0
v -214 -37 0
v -214 -36 0
v -213 -36 0
v -207 -37 0
v -208 -37 0
v -208 -36 0
v -207 -36 0
v -175 -51 0
v -176 -51 0
v -176 -50 0
v -175 -50 0
v -164 -51 0
v -165 -51 0
v -165 -50 0
v -164 -50 0
v -174 -52 0
v -175 -52 0
v -175 -51 0
v -174 -51 0
v -165 -52 0
v -166 -52 0
v -166 -51 0
v -165 -51 0
v -213 -54 0
v -214 -54 0
v -214 -53 0
v -213 -53 0
v -194 -59 0
v -195 -59 0
v -195 -58 0
v -194 -58 0
v -215 -78 0
v -216 -78 0
v -216 -77 0
v -215 -77 0
v -141 -79 0
v -142 -79 0
v -142 -78 0
v -141 -78 0
v -63 -80 0
v -64 -80 0
v -64 -79 0
v -63 -79 0
v -217 -81 0
v -218 -81 0
v -218 -80 0
v -217 -80 0
v -216 -82 0
v -217 -82 0
v -217 -81 0
v -216 -81 0
v -215 -83 0
v -216 -83 0
v -216 -82 0
v -215 -82 0
v -169 -83 0
v -170 -83 0
v -170 -82 0
v -169 -82 0
v -161 -83 0
v -162 -83 0
v -162 -82 0
v -161 -82 0
v -167 -84 0
v -168 -84 0
v -168 -83 0
v -167 -83 0
v -163 -84 0
v -164 -84 0
v -164 -83 0
v -163 -83 0
v -146 -96 0
v -147 -96 0
v -147 -95 0
v -146 -95 0
v -137 -96 0
v -138 -96 0
v -138 -95 0
v -137 -95 0
v -95 -96 0
v -96 -96 0
v -96 -95 0
v -95 -95 0
v -85 -96 0
v -86 -96 0
v -86 -95 0
v -85 -95 0
v -94 -97 0
v -95 -97 0
v -95 -96 0
v -94 -96 0
v -86 -97 0
v -87 -97 0
v -87 -96 0
v -86 -96 0
v -169 -100 0
v -170 -100 0
v -170 -99 0
v -169 -99 0
v -168 -100 0
v -169 -100 0
v -169 -99 0
v -168 -99 0
v -167 -100 0
v -168 -100 0
v -168 -99 0
v -167 -99 0
v -144 -100 0
v -145 -100 0
v -145 -99 0
v -144 -99 0
v -139 -100 0
v -140 -100 0
v -140 -99 0
v -139 -99 0
v -170 -101 0
v -171 -101 0
v -171 -100 0
v -170 -100 0
v -145 -101 0
v -146 -101 0
v -146 -100 0
v -145 -100 0
v -138 -101 0
v -139 -101 0
v -139 -100 0
v -138 -100 0
v -173 -102 0
v -174 -102 0
v -174 -101 0
v -173 -101 0
v -172 -102 0
v -173 -102 0
v -173 -101 0
v -172 -101 0
v -146 -102 0
v -147 -102 0
v -147 -101 0
v -146 -101 0
v -137 -102 0
v -138 -102 0
v -138 -101 0
v -137 -101 0
v -174 -103 0
v -175 -103 0
v -175 -102 0
v -174 -102 0
v -116 -104 0
v -117 -104 0
v -117 -103 0
v -116 -103 0
v -117 -105 0
v -118 -105 0
v -118 -104 0
v -117 -104 0
v -175 -107 0
v -176 -107 0
v -176 -106 0
v -175 -106 0
v -147 -107 0
v -148 -107 0
v -148 -106 0
v -147 -106 0
v -189 -108 0
v -190 -108 0
v -190 -107 0
v -189 -107 0
v -190 -109 0
v -191 -109 0
v -191 -108 0
v -190 -108 0
v -152 -112 0
v -153 -112 0
v -153 -111 0
v -152 -111 0
v -148 -112 0
v -149 -112 0
v -149 -111 0
v -148 -111 0
v -153 -113 0
v -154 -113 0
v -154 -112 0
v -153 -112 0
v -147 -113 0
v -148 -113 0
v -148 -112 0
v -147 -112 0
v -79 -114 0
v -80 -114 0
v -80 -113 0
v -79 -113 0
v -78 -114 0
v -79 -114 0
v -79 -113 0
v -78 -113 0
v -76 -114 0
v -77 -114 0
v -77 -113 0
v -76 -113 0
v -75 -114 0
v -76 -114 0
v -76 -113 0
v -75 -113 0
v -79 -115 0
v -80 -115 0
v -80 -114 0
v -79 -114 0
v -78 -115 0
v -79 -115 0
v -79 -114 0
v -78 -114 0
v -76 -115 0
v -77 -115 0
v -77 -114 0
v -76 -114 0
v -75 -115 0
v -76 -115 0
v -76 -114 0
v -75 -114 0
v -86 -116 0
v -87 -116 0
v -87 -115 0
v -86 -115 0
v -79 -116 0
v -80 -116 0
v -80 -115 0
v -79 -115 0
v -77 -116 0
v -78 -116 0
v -78 -115 0
v -77 -115 0
v -75 -116 0
v -76 -116 0
v -76 -115 0
v -75 -115 0
v -78 -117 0
v -79 -117 0
v -79 -116 0
v -78 -116 0
v -77 -117 0
v -78 -117 0
v -78 -116 0
v -77 -116 0
v -76 -117 0
v -77 -117 0
v -77 -116 0
v -76 -116 0
v -66 -117 0
v -67 -117 0
v -67 -116 0
v -66 -116 0
v -181 -120 0
v -182 -120 0
v -182 -119 0
v -181 -119 0
v -77 -121 0
v -78 -121 0
v -78 -120 0
v -77 -120 0
v -76 -121 0
v -77 -121 0
v -77 -120 0
v -76 -120 0
v -79 -122 0
v -80 -122 0
v -80 -121 0
v -79 -121 0
v -78 -122 0
v -79 -122 0
v -79 -121 0
v -78 -121 0
v -77 -122 0
v -78 -122 0
v -78 -121 0
v -77 -121 0
v -76 -122 0
v -77 -122 0
v -77 -121 0
v -76 -121 0
v -75 -122 0
v -76 -122 0
v -76 -121 0
v -75 -121 0
v -83 -123 0
v -84 -123 0
v -84 -122 0
v -83 -122 0
v -71 -123 0
v -72 -123 0
v -72 -122 0
v -71 -122 0
v -84 -124 0
v -85 -124 0
v -85 -123 0
v -84 -123 0
v -70 -124 0
v -71 -124 0
v -71 -123 0
v -70 -123 0
v -85 -125 0
v -86 -125 0
v -86 -124 0
v -85 -124 0
v -69 -125 0
v -70 -125 0
v -70 -124 0
v -69 -124 0
v -147 -127 0
v -148 -127 0
v -148 -126 0
v -147 -126 0
v -66 -127 0
v -67 -127 0
v -67 -126 0
v -66 -126 0
v -59 -127 0
v -60 -127 0
v -60 -126 0
v -59 -126 0
v -58 -127 0
v -59 -127 0
v -59 -126 0
v -58 -126 0
v -57 -128 0
v -58 -128 0
v -58 -127 0
v -57 -127 0
v -120 -132 0
v -121 -132 0
v -121 -131 0
v -120 -131 0
v -119 -133 0
v -120 -133 0
v -120 -132 0
v -119 -132 0
v -118 -134 0
v -119 -134 0
v -119 -133 0
v -118 -133 0

# Texture cooridinates (Count = 72)
vt 0.2878788 0.3358586
vt 0.4264069 0.3358586
vt 0.4264069 0.4974747
vt 0.2878788 0.4974747
vt 0.7164502 0.00252527
vt 0.8549784 0.00252527
vt 0.8549784 0.1641414
vt 0.7164502 0.1641414
vt 0.5735931 0.00252527
vt 0.7121212 0.00252527
vt 0.7121212 0.1641414
vt 0.5735931 0.1641414
vt 0.4307359 0.3358586
vt 0.5692641 0.3358586
vt 0.5692641 0.4974747
vt 0.4307359 0.4974747
vt 0.002164502 0.3358586
vt 0.1406926 0.3358586
vt 0.1406926 0.4974747
vt 0.002164502 0.4974747
vt 0.1450216 0.3358586
vt 0.2835498 0.3358586
vt 0.2835498 0.4974747
vt 0.1450216 0.4974747
vt 0.7164502 0.8358586
vt 0.8549784 0.8358586
vt 0.8549784 0.9974747
vt 0.7164502 0.9974747
vt 0.5735931 0.1691919
vt 0.7121212 0.1691919
vt 0.7121212 0.3308081
vt 0.5735931 0.3308081
vt 0.4307359 0.1691919
vt 0.5692641 0.1691919
vt 0.5692641 0.3308081
vt 0.4307359 0.3308081
vt 0.002164502 0.1691919
vt 0.1406926 0.1691919
vt 0.1406926 0.3308081
vt 0.002164502 0.3308081
vt 0.1450216 0.00252527
vt 0.2835498 0.00252527
vt 0.2835498 0.1641414
vt 0.1450216 0.1641414
vt 0.8593073 0.3358586
vt 0.9978355 0.3358586
vt 0.9978355 0.4974747
vt 0.8593073 0.4974747
vt 0.8593073 0.5025252
vt 0.9978355 0.5025252
vt 0.9978355 0.6641414
vt 0.8593073 0.6641414
vt 0.2878788 0.5025252
vt 0.4264069 0.5025252
vt 0.4264069 0.6641414
vt 0.2878788 0.6641414
vt 0.1450216 0.5025252
vt 0.2835498 0.5025252
vt 0.2835498 0.6641414
vt 0.1450216 0.6641414
vt 0.8593073 0.00252527
vt 0.9978355 0.00252527
vt 0.9978355 0.1641414
vt 0.8593073 0.1641414
vt 0.8593073 0.1691919
vt 0.9978355 0.1691919
vt 0.9978355 0.3308081
vt 0.8593073 0.3308081
vt 0.002164502 0.5025252
vt 0.1406926 0.5025252
vt 0.1406926 0.6641414
vt 0.002164502 0.6641414

# Normal
vn 0 0 -1

# Mesh description
g AstralaProper_mesh_0062

# Faces
f 1/1/1 2/2/1 3/3/1 4/4/1
f 5/5/1 6/6/1 7/7/1 8/8/1
f 9/9/1 10/10/1 11/11/1 12/12/1
f 13/5/1 14/6/1 15/7/1 16/8/1
f 17/9/1 18/10/1 19/11/1 20/12/1
f 21/5/1 22/6/1 23/7/1 24/8/1
f 25/13/1 26/14/1 27/15/1 28/16/1
f 29/17/1 30/18/1 31/19/1 32/20/1
f 33/9/1 34/10/1 35/11/1 36/12/1
f 37/5/1 38/6/1 39/7/1 40/8/1
f 41/9/1 42/10/1 43/11/1 44/12/1
f 45/5/1 46/6/1 47/7/1 48/8/1
f 49/21/1 50/22/1 51/23/1 52/24/1
f 53/9/1 54/10/1 55/11/1 56/12/1
f 57/5/1 58/6/1 59/7/1 60/8/1
f 61/9/1 62/10/1 63/11/1 64/12/1
f 65/5/1 66/6/1 67/7/1 68/8/1
f 69/13/1 70/14/1 71/15/1 72/16/1
f 73/9/1 74/10/1 75/11/1 76/12/1
f 77/9/1 78/10/1 79/11/1 80/12/1
f 81/5/1 82/6/1 83/7/1 84/8/1
f 85/9/1 86/10/1 87/11/1 88/12/1
f 89/5/1 90/6/1 91/7/1 92/8/1
f 93/9/1 94/10/1 95/11/1 96/12/1
f 97/9/1 98/10/1 99/11/1 100/12/1
f 101/5/1 102/6/1 103/7/1 104/8/1
f 105/9/1 106/10/1 107/11/1 108/12/1
f 109/5/1 110/6/1 111/7/1 112/8/1
f 113/5/1 114/6/1 115/7/1 116/8/1
f 117/13/1 118/14/1 119/15/1 120/16/1
f 121/21/1 122/22/1 123/23/1 124/24/1
f 125/9/1 126/10/1 127/11/1 128/12/1
f 129/1/1 130/2/1 131/3/1 132/4/1
f 133/9/1 134/10/1 135/11/1 136/12/1
f 137/9/1 138/10/1 139/11/1 140/12/1
f 141/9/1 142/10/1 143/11/1 144/12/1
f 145/5/1 146/6/1 147/7/1 148/8/1
f 149/9/1 150/10/1 151/11/1 152/12/1
f 153/5/1 154/6/1 155/7/1 156/8/1
f 157/9/1 158/10/1 159/11/1 160/12/1
f 161/1/1 162/2/1 163/3/1 164/4/1
f 165/21/1 166/22/1 167/23/1 168/24/1
f 169/9/1 170/10/1 171/11/1 172/12/1
f 173/5/1 174/6/1 175/7/1 176/8/1
f 177/9/1 178/10/1 179/11/1 180/12/1
f 181/5/1 182/6/1 183/7/1 184/8/1
f 185/5/1 186/6/1 187/7/1 188/8/1
f 189/25/1 190/26/1 191/27/1 192/28/1
f 193/29/1 194/30/1 195/31/1 196/32/1
f 197/5/1 198/6/1 199/7/1 200/8/1
f 201/9/1 202/10/1 203/11/1 204/12/1
f 205/5/1 206/6/1 207/7/1 208/8/1
f 209/5/1 210/6/1 211/7/1 212/8/1
f 213/9/1 214/10/1 215/11/1 216/12/1
f 217/13/1 218/14/1 219/15/1 220/16/1
f 221/1/1 222/2/1 223/3/1 224/4/1
f 225/5/1 226/6/1 227/7/1 228/8/1
f 229/9/1 230/10/1 231/11/1 232/12/1
f 233/1/1 234/2/1 235/3/1 236/4/1
f 237/5/1 238/6/1 239/7/1 240/8/1
f 241/5/1 242/6/1 243/7/1 244/8/1
f 245/17/1 246/18/1 247/19/1 248/20/1
f 249/17/1 250/18/1 251/19/1 252/20/1
f 253/5/1 254/6/1 255/7/1 256/8/1
f 257/5/1 258/6/1 259/7/1 260/8/1
f 261/5/1 262/6/1 263/7/1 264/8/1
f 265/9/1 266/10/1 267/11/1 268/12/1
f 269/5/1 270/6/1 271/7/1 272/8/1
f 273/9/1 274/10/1 275/11/1 276/12/1
f 277/13/1 278/14/1 279/15/1 280/16/1
f 281/1/1 282/2/1 283/3/1 284/4/1
f 285/21/1 286/22/1 287/23/1 288/24/1
f 289/17/1 290/18/1 291/19/1 292/20/1
f 293/33/1 294/34/1 295/35/1 296/36/1
f 297/33/1 298/34/1 299/35/1 300/36/1
f 301/37/1 302/38/1 303/39/1 304/40/1
f 305/37/1 306/38/1 307/39/1 308/40/1
f 309/1/1 310/2/1 311/3/1 312/4/1
f 313/33/1 314/34/1 315/35/1 316/36/1
f 317/41/1 318/42/1 319/43/1 320/44/1
f 321/37/1 322/38/1 323/39/1 324/40/1
f 325/41/1 326/42/1 327/43/1 328/44/1
f 329/41/1 330/42/1 331/43/1 332/44/1
f 333/41/1 334/42/1 335/43/1 336/44/1
f 337/21/1 338/22/1 339/23/1 340/24/1
f 341/21/1 342/22/1 343/23/1 344/24/1
f 345/45/1 346/46/1 347/47/1 348/48/1
f 349/49/1 350/50/1 351/51/1 352/52/1
f 353/53/1 354/54/1 355/55/1 356/56/1
f 357/57/1 358/58/1 359/59/1 360/60/1
f 361/61/1 362/62/1 363/63/1 364/64/1
f 365/65/1 366/66/1 367/67/1 368/68/1
f 369/69/1 370/70/1 371/71/1 372/72/1
f 373/5/1 374/6/1 375/7/1 376/8/1
f 377/9/1 378/10/1 379/11/1 380/12/1
f 381/5/1 382/6/1 383/7/1 384/8/1
f 385/9/1 386/10/1 387/11/1 388/12/1
f 389/5/1 390/6/1 391/7/1 392/8/1
f 393/9/1 394/10/1 395/11/1 396/12/1
f 397/17/1 398/18/1 399/19/1 400/20/1
f 401/1/1 402/2/1 403/3/1 404/4/1
f 405/21/1 406/22/1 407/23/1 408/24/1
f 409/17/1 410/18/1 411/19/1 412/20/1
f 413/21/1 414/22/1 415/23/1 416/24/1
f 417/9/1 418/10/1 419/11/1 420/12/1
f 421/9/1 422/10/1 423/11/1 424/12/1
f 425/9/1 426/10/1 427/11/1 428/12/1

