# Tiled2Unity generated file. Do not modify by hand.
# Wavefront file for 'AstralaProper_mesh_0030.obj'

# Vertices (Count = 32)
v -113 -56 0
v -114 -56 0
v -114 -55 0
v -113 -55 0
v -111 -56 0
v -112 -56 0
v -112 -55 0
v -111 -55 0
v -113 -57 0
v -114 -57 0
v -114 -56 0
v -113 -56 0
v -112 -57 0
v -113 -57 0
v -113 -56 0
v -112 -56 0
v -125 -68 0
v -126 -68 0
v -126 -67 0
v -125 -67 0
v -123 -68 0
v -124 -68 0
v -124 -67 0
v -123 -67 0
v -125 -69 0
v -126 -69 0
v -126 -68 0
v -125 -68 0
v -123 -69 0
v -124 -69 0
v -124 -68 0
v -123 -68 0

# Texture cooridinates (Count = 20)
vt 0.1127946 0.7164502
vt 0.2205387 0.7164502
vt 0.2205387 0.8549783
vt 0.1127946 0.8549783
vt 0.6683502 0.4307359
vt 0.7760943 0.4307359
vt 0.7760943 0.5692641
vt 0.6683502 0.5692641
vt 0.446128 0.4307359
vt 0.553872 0.4307359
vt 0.553872 0.5692641
vt 0.446128 0.5692641
vt 0.7794613 0.4307359
vt 0.8872054 0.4307359
vt 0.8872054 0.5692641
vt 0.7794613 0.5692641
vt 0.7794613 0.1450216
vt 0.8872054 0.1450216
vt 0.8872054 0.2835498
vt 0.7794613 0.2835498

# Normal
vn 0 0 -1

# Mesh description
g AstralaProper_mesh_0030

# Faces
f 1/1/1 2/2/1 3/3/1 4/4/1
f 5/5/1 6/6/1 7/7/1 8/8/1
f 9/9/1 10/10/1 11/11/1 12/12/1
f 13/9/1 14/10/1 15/11/1 16/12/1
f 17/13/1 18/14/1 19/15/1 20/16/1
f 21/17/1 22/18/1 23/19/1 24/20/1
f 25/9/1 26/10/1 27/11/1 28/12/1
f 29/9/1 30/10/1 31/11/1 32/12/1

