# Tiled2Unity generated file. Do not modify by hand.
# Wavefront file for 'AstralaProper_mesh_0042.obj'

# Vertices (Count = 20)
v -173 -18 0
v -174 -18 0
v -174 -17 0
v -173 -17 0
v -59 -127 0
v -60 -127 0
v -60 -126 0
v -59 -126 0
v -58 -127 0
v -59 -127 0
v -59 -126 0
v -58 -126 0
v -57 -127 0
v -58 -127 0
v -58 -126 0
v -57 -126 0
v -57 -128 0
v -58 -128 0
v -58 -127 0
v -57 -127 0

# Texture cooridinates (Count = 16)
vt 0.8593073 0.1691919
vt 0.9978355 0.1691919
vt 0.9978355 0.3308081
vt 0.8593073 0.3308081
vt 0.1450216 0.8358586
vt 0.2835498 0.8358586
vt 0.2835498 0.9974747
vt 0.1450216 0.9974747
vt 0.002164502 0.8358586
vt 0.1406926 0.8358586
vt 0.1406926 0.9974747
vt 0.002164502 0.9974747
vt 0.002164502 0.669192
vt 0.1406926 0.669192
vt 0.1406926 0.8308081
vt 0.002164502 0.8308081

# Normal
vn 0 0 -1

# Mesh description
g AstralaProper_mesh_0042

# Faces
f 1/1/1 2/2/1 3/3/1 4/4/1
f 5/5/1 6/6/1 7/7/1 8/8/1
f 9/5/1 10/6/1 11/7/1 12/8/1
f 13/9/1 14/10/1 15/11/1 16/12/1
f 17/13/1 18/14/1 19/15/1 20/16/1

