# Tiled2Unity generated file. Do not modify by hand.
# Wavefront file for 'AstralaProper_mesh_0048.obj'

# Vertices (Count = 240)
v -127 -84 0
v -128 -84 0
v -128 -83 0
v -127 -83 0
v -125 -84 0
v -126 -84 0
v -126 -83 0
v -125 -83 0
v -123 -84 0
v -124 -84 0
v -124 -83 0
v -123 -83 0
v -122 -84 0
v -123 -84 0
v -123 -83 0
v -122 -83 0
v -119 -84 0
v -120 -84 0
v -120 -83 0
v -119 -83 0
v -116 -84 0
v -117 -84 0
v -117 -83 0
v -116 -83 0
v -113 -84 0
v -114 -84 0
v -114 -83 0
v -113 -83 0
v -112 -84 0
v -113 -84 0
v -113 -83 0
v -112 -83 0
v -110 -84 0
v -111 -84 0
v -111 -83 0
v -110 -83 0
v -108 -84 0
v -109 -84 0
v -109 -83 0
v -108 -83 0
v -127 -85 0
v -128 -85 0
v -128 -84 0
v -127 -84 0
v -125 -85 0
v -126 -85 0
v -126 -84 0
v -125 -84 0
v -123 -85 0
v -124 -85 0
v -124 -84 0
v -123 -84 0
v -122 -85 0
v -123 -85 0
v -123 -84 0
v -122 -84 0
v -119 -85 0
v -120 -85 0
v -120 -84 0
v -119 -84 0
v -116 -85 0
v -117 -85 0
v -117 -84 0
v -116 -84 0
v -113 -85 0
v -114 -85 0
v -114 -84 0
v -113 -84 0
v -112 -85 0
v -113 -85 0
v -113 -84 0
v -112 -84 0
v -110 -85 0
v -111 -85 0
v -111 -84 0
v -110 -84 0
v -108 -85 0
v -109 -85 0
v -109 -84 0
v -108 -84 0
v -127 -86 0
v -128 -86 0
v -128 -85 0
v -127 -85 0
v -125 -86 0
v -126 -86 0
v -126 -85 0
v -125 -85 0
v -123 -86 0
v -124 -86 0
v -124 -85 0
v -123 -85 0
v -122 -86 0
v -123 -86 0
v -123 -85 0
v -122 -85 0
v -121 -86 0
v -122 -86 0
v -122 -85 0
v -121 -85 0
v -120 -86 0
v -121 -86 0
v -121 -85 0
v -120 -85 0
v -119 -86 0
v -120 -86 0
v -120 -85 0
v -119 -85 0
v -116 -86 0
v -117 -86 0
v -117 -85 0
v -116 -85 0
v -115 -86 0
v -116 -86 0
v -116 -85 0
v -115 -85 0
v -114 -86 0
v -115 -86 0
v -115 -85 0
v -114 -85 0
v -113 -86 0
v -114 -86 0
v -114 -85 0
v -113 -85 0
v -112 -86 0
v -113 -86 0
v -113 -85 0
v -112 -85 0
v -110 -86 0
v -111 -86 0
v -111 -85 0
v -110 -85 0
v -108 -86 0
v -109 -86 0
v -109 -85 0
v -108 -85 0
v -127 -87 0
v -128 -87 0
v -128 -86 0
v -127 -86 0
v -125 -87 0
v -126 -87 0
v -126 -86 0
v -125 -86 0
v -123 -87 0
v -124 -87 0
v -124 -86 0
v -123 -86 0
v -122 -87 0
v -123 -87 0
v -123 -86 0
v -122 -86 0
v -121 -87 0
v -122 -87 0
v -122 -86 0
v -121 -86 0
v -120 -87 0
v -121 -87 0
v -121 -86 0
v -120 -86 0
v -119 -87 0
v -120 -87 0
v -120 -86 0
v -119 -86 0
v -116 -87 0
v -117 -87 0
v -117 -86 0
v -116 -86 0
v -115 -87 0
v -116 -87 0
v -116 -86 0
v -115 -86 0
v -114 -87 0
v -115 -87 0
v -115 -86 0
v -114 -86 0
v -113 -87 0
v -114 -87 0
v -114 -86 0
v -113 -86 0
v -112 -87 0
v -113 -87 0
v -113 -86 0
v -112 -86 0
v -110 -87 0
v -111 -87 0
v -111 -86 0
v -110 -86 0
v -108 -87 0
v -109 -87 0
v -109 -86 0
v -108 -86 0
v -127 -88 0
v -128 -88 0
v -128 -87 0
v -127 -87 0
v -122 -88 0
v -123 -88 0
v -123 -87 0
v -122 -87 0
v -119 -88 0
v -120 -88 0
v -120 -87 0
v -119 -87 0
v -116 -88 0
v -117 -88 0
v -117 -87 0
v -116 -87 0
v -113 -88 0
v -114 -88 0
v -114 -87 0
v -113 -87 0
v -108 -88 0
v -109 -88 0
v -109 -87 0
v -108 -87 0
v -127 -89 0
v -128 -89 0
v -128 -88 0
v -127 -88 0
v -122 -89 0
v -123 -89 0
v -123 -88 0
v -122 -88 0
v -119 -89 0
v -120 -89 0
v -120 -88 0
v -119 -88 0
v -116 -89 0
v -117 -89 0
v -117 -88 0
v -116 -88 0
v -113 -89 0
v -114 -89 0
v -114 -88 0
v -113 -88 0
v -108 -89 0
v -109 -89 0
v -109 -88 0
v -108 -88 0

# Texture cooridinates (Count = 36)
vt 0.002164502 0.8593073
vt 0.1406926 0.8593073
vt 0.1406926 0.9978355
vt 0.002164502 0.9978355
vt 0.8593073 0.8593073
vt 0.9978355 0.8593073
vt 0.9978355 0.9978355
vt 0.8593073 0.9978355
vt 0.002164502 0.7164502
vt 0.1406926 0.7164502
vt 0.1406926 0.8549783
vt 0.002164502 0.8549783
vt 0.8593073 0.7164502
vt 0.9978355 0.7164502
vt 0.9978355 0.8549783
vt 0.8593073 0.8549783
vt 0.8593073 0.4307359
vt 0.9978355 0.4307359
vt 0.9978355 0.5692641
vt 0.8593073 0.5692641
vt 0.8593073 0.5735931
vt 0.9978355 0.5735931
vt 0.9978355 0.7121212
vt 0.8593073 0.7121212
vt 0.8593073 0.1450216
vt 0.9978355 0.1450216
vt 0.9978355 0.2835498
vt 0.8593073 0.2835498
vt 0.8593073 0.2878788
vt 0.9978355 0.2878788
vt 0.9978355 0.4264069
vt 0.8593073 0.4264069
vt 0.002164502 0.5735931
vt 0.1406926 0.5735931
vt 0.1406926 0.7121212
vt 0.002164502 0.7121212

# Normal
vn 0 0 -1

# Mesh description
g AstralaProper_mesh_0048

# Faces
f 1/1/1 2/2/1 3/3/1 4/4/1
f 5/5/1 6/6/1 7/7/1 8/8/1
f 9/5/1 10/6/1 11/7/1 12/8/1
f 13/1/1 14/2/1 15/3/1 16/4/1
f 17/1/1 18/2/1 19/3/1 20/4/1
f 21/1/1 22/2/1 23/3/1 24/4/1
f 25/1/1 26/2/1 27/3/1 28/4/1
f 29/5/1 30/6/1 31/7/1 32/8/1
f 33/5/1 34/6/1 35/7/1 36/8/1
f 37/1/1 38/2/1 39/3/1 40/4/1
f 41/9/1 42/10/1 43/11/1 44/12/1
f 45/13/1 46/14/1 47/15/1 48/16/1
f 49/13/1 50/14/1 51/15/1 52/16/1
f 53/9/1 54/10/1 55/11/1 56/12/1
f 57/9/1 58/10/1 59/11/1 60/12/1
f 61/9/1 62/10/1 63/11/1 64/12/1
f 65/9/1 66/10/1 67/11/1 68/12/1
f 69/13/1 70/14/1 71/15/1 72/16/1
f 73/13/1 74/14/1 75/15/1 76/16/1
f 77/9/1 78/10/1 79/11/1 80/12/1
f 81/9/1 82/10/1 83/11/1 84/12/1
f 85/5/1 86/6/1 87/7/1 88/8/1
f 89/5/1 90/6/1 91/7/1 92/8/1
f 93/9/1 94/10/1 95/11/1 96/12/1
f 97/17/1 98/18/1 99/19/1 100/20/1
f 101/21/1 102/22/1 103/23/1 104/24/1
f 105/9/1 106/10/1 107/11/1 108/12/1
f 109/9/1 110/10/1 111/11/1 112/12/1
f 113/17/1 114/18/1 115/19/1 116/20/1
f 117/21/1 118/22/1 119/23/1 120/24/1
f 121/9/1 122/10/1 123/11/1 124/12/1
f 125/5/1 126/6/1 127/7/1 128/8/1
f 129/5/1 130/6/1 131/7/1 132/8/1
f 133/9/1 134/10/1 135/11/1 136/12/1
f 137/9/1 138/10/1 139/11/1 140/12/1
f 141/13/1 142/14/1 143/15/1 144/16/1
f 145/13/1 146/14/1 147/15/1 148/16/1
f 149/9/1 150/10/1 151/11/1 152/12/1
f 153/25/1 154/26/1 155/27/1 156/28/1
f 157/29/1 158/30/1 159/31/1 160/32/1
f 161/9/1 162/10/1 163/11/1 164/12/1
f 165/9/1 166/10/1 167/11/1 168/12/1
f 169/25/1 170/26/1 171/27/1 172/28/1
f 173/29/1 174/30/1 175/31/1 176/32/1
f 177/9/1 178/10/1 179/11/1 180/12/1
f 181/13/1 182/14/1 183/15/1 184/16/1
f 185/13/1 186/14/1 187/15/1 188/16/1
f 189/9/1 190/10/1 191/11/1 192/12/1
f 193/9/1 194/10/1 195/11/1 196/12/1
f 197/9/1 198/10/1 199/11/1 200/12/1
f 201/9/1 202/10/1 203/11/1 204/12/1
f 205/9/1 206/10/1 207/11/1 208/12/1
f 209/9/1 210/10/1 211/11/1 212/12/1
f 213/9/1 214/10/1 215/11/1 216/12/1
f 217/33/1 218/34/1 219/35/1 220/36/1
f 221/33/1 222/34/1 223/35/1 224/36/1
f 225/33/1 226/34/1 227/35/1 228/36/1
f 229/33/1 230/34/1 231/35/1 232/36/1
f 233/33/1 234/34/1 235/35/1 236/36/1
f 237/33/1 238/34/1 239/35/1 240/36/1

