# Tiled2Unity generated file. Do not modify by hand.
# Wavefront file for 'AstralaProper_mesh_0063.obj'

# Vertices (Count = 100)
v -39 -7 0
v -40 -7 0
v -40 -6 0
v -39 -6 0
v -39 -8 0
v -40 -8 0
v -40 -7 0
v -39 -7 0
v -39 -9 0
v -40 -9 0
v -40 -8 0
v -39 -8 0
v -39 -10 0
v -40 -10 0
v -40 -9 0
v -39 -9 0
v -39 -11 0
v -40 -11 0
v -40 -10 0
v -39 -10 0
v -39 -12 0
v -40 -12 0
v -40 -11 0
v -39 -11 0
v -39 -13 0
v -40 -13 0
v -40 -12 0
v -39 -12 0
v -39 -14 0
v -40 -14 0
v -40 -13 0
v -39 -13 0
v -39 -15 0
v -40 -15 0
v -40 -14 0
v -39 -14 0
v -39 -16 0
v -40 -16 0
v -40 -15 0
v -39 -15 0
v -39 -23 0
v -40 -23 0
v -40 -22 0
v -39 -22 0
v -39 -24 0
v -40 -24 0
v -40 -23 0
v -39 -23 0
v -39 -25 0
v -40 -25 0
v -40 -24 0
v -39 -24 0
v -39 -59 0
v -40 -59 0
v -40 -58 0
v -39 -58 0
v -39 -60 0
v -40 -60 0
v -40 -59 0
v -39 -59 0
v -39 -61 0
v -40 -61 0
v -40 -60 0
v -39 -60 0
v -39 -62 0
v -40 -62 0
v -40 -61 0
v -39 -61 0
v -39 -63 0
v -40 -63 0
v -40 -62 0
v -39 -62 0
v -39 -64 0
v -40 -64 0
v -40 -63 0
v -39 -63 0
v -35 -97 0
v -36 -97 0
v -36 -96 0
v -35 -96 0
v -35 -98 0
v -36 -98 0
v -36 -97 0
v -35 -97 0
v -35 -99 0
v -36 -99 0
v -36 -98 0
v -35 -98 0
v -35 -100 0
v -36 -100 0
v -36 -99 0
v -35 -99 0
v -35 -101 0
v -36 -101 0
v -36 -100 0
v -35 -100 0
v -35 -102 0
v -36 -102 0
v -36 -101 0
v -35 -101 0

# Texture cooridinates (Count = 8)
vt 0.7794613 0.669192
vt 0.8872054 0.669192
vt 0.8872054 0.8308081
vt 0.7794613 0.8308081
vt 0.001683502 0.1691919
vt 0.1094276 0.1691919
vt 0.1094276 0.3308081
vt 0.001683502 0.3308081

# Normal
vn 0 0 -1

# Mesh description
g AstralaProper_mesh_0063

# Faces
f 1/1/1 2/2/1 3/3/1 4/4/1
f 5/1/1 6/2/1 7/3/1 8/4/1
f 9/1/1 10/2/1 11/3/1 12/4/1
f 13/1/1 14/2/1 15/3/1 16/4/1
f 17/1/1 18/2/1 19/3/1 20/4/1
f 21/1/1 22/2/1 23/3/1 24/4/1
f 25/1/1 26/2/1 27/3/1 28/4/1
f 29/1/1 30/2/1 31/3/1 32/4/1
f 33/1/1 34/2/1 35/3/1 36/4/1
f 37/5/1 38/6/1 39/7/1 40/8/1
f 41/1/1 42/2/1 43/3/1 44/4/1
f 45/1/1 46/2/1 47/3/1 48/4/1
f 49/5/1 50/6/1 51/7/1 52/8/1
f 53/1/1 54/2/1 55/3/1 56/4/1
f 57/1/1 58/2/1 59/3/1 60/4/1
f 61/1/1 62/2/1 63/3/1 64/4/1
f 65/1/1 66/2/1 67/3/1 68/4/1
f 69/1/1 70/2/1 71/3/1 72/4/1
f 73/5/1 74/6/1 75/7/1 76/8/1
f 77/1/1 78/2/1 79/3/1 80/4/1
f 81/1/1 82/2/1 83/3/1 84/4/1
f 85/1/1 86/2/1 87/3/1 88/4/1
f 89/1/1 90/2/1 91/3/1 92/4/1
f 93/1/1 94/2/1 95/3/1 96/4/1
f 97/5/1 98/6/1 99/7/1 100/8/1

