# Tiled2Unity generated file. Do not modify by hand.
# Wavefront file for 'AstralaProper_mesh_0015.obj'

# Vertices (Count = 688)
v -151 -58 0
v -152 -58 0
v -152 -57 0
v -151 -57 0
v -142 -58 0
v -143 -58 0
v -143 -57 0
v -142 -57 0
v -152 -59 0
v -153 -59 0
v -153 -58 0
v -152 -58 0
v -151 -59 0
v -152 -59 0
v -152 -58 0
v -151 -58 0
v -150 -59 0
v -151 -59 0
v -151 -58 0
v -150 -58 0
v -143 -59 0
v -144 -59 0
v -144 -58 0
v -143 -58 0
v -142 -59 0
v -143 -59 0
v -143 -58 0
v -142 -58 0
v -141 -59 0
v -142 -59 0
v -142 -58 0
v -141 -58 0
v -153 -60 0
v -154 -60 0
v -154 -59 0
v -153 -59 0
v -152 -60 0
v -153 -60 0
v -153 -59 0
v -152 -59 0
v -151 -60 0
v -152 -60 0
v -152 -59 0
v -151 -59 0
v -150 -60 0
v -151 -60 0
v -151 -59 0
v -150 -59 0
v -149 -60 0
v -150 -60 0
v -150 -59 0
v -149 -59 0
v -144 -60 0
v -145 -60 0
v -145 -59 0
v -144 -59 0
v -143 -60 0
v -144 -60 0
v -144 -59 0
v -143 -59 0
v -142 -60 0
v -143 -60 0
v -143 -59 0
v -142 -59 0
v -141 -60 0
v -142 -60 0
v -142 -59 0
v -141 -59 0
v -140 -60 0
v -141 -60 0
v -141 -59 0
v -140 -59 0
v -153 -61 0
v -154 -61 0
v -154 -60 0
v -153 -60 0
v -152 -61 0
v -153 -61 0
v -153 -60 0
v -152 -60 0
v -151 -61 0
v -152 -61 0
v -152 -60 0
v -151 -60 0
v -150 -61 0
v -151 -61 0
v -151 -60 0
v -150 -60 0
v -149 -61 0
v -150 -61 0
v -150 -60 0
v -149 -60 0
v -145 -61 0
v -146 -61 0
v -146 -60 0
v -145 -60 0
v -144 -61 0
v -145 -61 0
v -145 -60 0
v -144 -60 0
v -143 -61 0
v -144 -61 0
v -144 -60 0
v -143 -60 0
v -142 -61 0
v -143 -61 0
v -143 -60 0
v -142 -60 0
v -141 -61 0
v -142 -61 0
v -142 -60 0
v -141 -60 0
v -140 -61 0
v -141 -61 0
v -141 -60 0
v -140 -60 0
v -139 -61 0
v -140 -61 0
v -140 -60 0
v -139 -60 0
v -153 -62 0
v -154 -62 0
v -154 -61 0
v -153 -61 0
v -152 -62 0
v -153 -62 0
v -153 -61 0
v -152 -61 0
v -151 -62 0
v -152 -62 0
v -152 -61 0
v -151 -61 0
v -150 -62 0
v -151 -62 0
v -151 -61 0
v -150 -61 0
v -149 -62 0
v -150 -62 0
v -150 -61 0
v -149 -61 0
v -146 -62 0
v -147 -62 0
v -147 -61 0
v -146 -61 0
v -145 -62 0
v -146 -62 0
v -146 -61 0
v -145 -61 0
v -144 -62 0
v -145 -62 0
v -145 -61 0
v -144 -61 0
v -143 -62 0
v -144 -62 0
v -144 -61 0
v -143 -61 0
v -142 -62 0
v -143 -62 0
v -143 -61 0
v -142 -61 0
v -141 -62 0
v -142 -62 0
v -142 -61 0
v -141 -61 0
v -140 -62 0
v -141 -62 0
v -141 -61 0
v -140 -61 0
v -139 -62 0
v -140 -62 0
v -140 -61 0
v -139 -61 0
v -138 -62 0
v -139 -62 0
v -139 -61 0
v -138 -61 0
v -153 -63 0
v -154 -63 0
v -154 -62 0
v -153 -62 0
v -152 -63 0
v -153 -63 0
v -153 -62 0
v -152 -62 0
v -151 -63 0
v -152 -63 0
v -152 -62 0
v -151 -62 0
v -150 -63 0
v -151 -63 0
v -151 -62 0
v -150 -62 0
v -149 -63 0
v -150 -63 0
v -150 -62 0
v -149 -62 0
v -148 -63 0
v -149 -63 0
v -149 -62 0
v -148 -62 0
v -147 -63 0
v -148 -63 0
v -148 -62 0
v -147 -62 0
v -146 -63 0
v -147 -63 0
v -147 -62 0
v -146 -62 0
v -145 -63 0
v -146 -63 0
v -146 -62 0
v -145 -62 0
v -144 -63 0
v -145 -63 0
v -145 -62 0
v -144 -62 0
v -143 -63 0
v -144 -63 0
v -144 -62 0
v -143 -62 0
v -142 -63 0
v -143 -63 0
v -143 -62 0
v -142 -62 0
v -141 -63 0
v -142 -63 0
v -142 -62 0
v -141 -62 0
v -140 -63 0
v -141 -63 0
v -141 -62 0
v -140 -62 0
v -139 -63 0
v -140 -63 0
v -140 -62 0
v -139 -62 0
v -138 -63 0
v -139 -63 0
v -139 -62 0
v -138 -62 0
v -137 -63 0
v -138 -63 0
v -138 -62 0
v -137 -62 0
v -136 -63 0
v -137 -63 0
v -137 -62 0
v -136 -62 0
v -154 -64 0
v -155 -64 0
v -155 -63 0
v -154 -63 0
v -153 -64 0
v -154 -64 0
v -154 -63 0
v -153 -63 0
v -152 -64 0
v -153 -64 0
v -153 -63 0
v -152 -63 0
v -151 -64 0
v -152 -64 0
v -152 -63 0
v -151 -63 0
v -150 -64 0
v -151 -64 0
v -151 -63 0
v -150 -63 0
v -149 -64 0
v -150 -64 0
v -150 -63 0
v -149 -63 0
v -148 -64 0
v -149 -64 0
v -149 -63 0
v -148 -63 0
v -147 -64 0
v -148 -64 0
v -148 -63 0
v -147 -63 0
v -146 -64 0
v -147 -64 0
v -147 -63 0
v -146 -63 0
v -145 -64 0
v -146 -64 0
v -146 -63 0
v -145 -63 0
v -144 -64 0
v -145 -64 0
v -145 -63 0
v -144 -63 0
v -143 -64 0
v -144 -64 0
v -144 -63 0
v -143 -63 0
v -142 -64 0
v -143 -64 0
v -143 -63 0
v -142 -63 0
v -141 -64 0
v -142 -64 0
v -142 -63 0
v -141 -63 0
v -140 -64 0
v -141 -64 0
v -141 -63 0
v -140 -63 0
v -139 -64 0
v -140 -64 0
v -140 -63 0
v -139 -63 0
v -138 -64 0
v -139 -64 0
v -139 -63 0
v -138 -63 0
v -137 -64 0
v -138 -64 0
v -138 -63 0
v -137 -63 0
v -136 -64 0
v -137 -64 0
v -137 -63 0
v -136 -63 0
v -135 -64 0
v -136 -64 0
v -136 -63 0
v -135 -63 0
v -149 -65 0
v -150 -65 0
v -150 -64 0
v -149 -64 0
v -148 -65 0
v -149 -65 0
v -149 -64 0
v -148 -64 0
v -147 -65 0
v -148 -65 0
v -148 -64 0
v -147 -64 0
v -146 -65 0
v -147 -65 0
v -147 -64 0
v -146 -64 0
v -145 -65 0
v -146 -65 0
v -146 -64 0
v -145 -64 0
v -144 -65 0
v -145 -65 0
v -145 -64 0
v -144 -64 0
v -143 -65 0
v -144 -65 0
v -144 -64 0
v -143 -64 0
v -142 -65 0
v -143 -65 0
v -143 -64 0
v -142 -64 0
v -141 -65 0
v -142 -65 0
v -142 -64 0
v -141 -64 0
v -140 -65 0
v -141 -65 0
v -141 -64 0
v -140 -64 0
v -139 -65 0
v -140 -65 0
v -140 -64 0
v -139 -64 0
v -138 -65 0
v -139 -65 0
v -139 -64 0
v -138 -64 0
v -137 -65 0
v -138 -65 0
v -138 -64 0
v -137 -64 0
v -136 -65 0
v -137 -65 0
v -137 -64 0
v -136 -64 0
v -135 -65 0
v -136 -65 0
v -136 -64 0
v -135 -64 0
v -149 -66 0
v -150 -66 0
v -150 -65 0
v -149 -65 0
v -148 -66 0
v -149 -66 0
v -149 -65 0
v -148 -65 0
v -147 -66 0
v -148 -66 0
v -148 -65 0
v -147 -65 0
v -146 -66 0
v -147 -66 0
v -147 -65 0
v -146 -65 0
v -145 -66 0
v -146 -66 0
v -146 -65 0
v -145 -65 0
v -144 -66 0
v -145 -66 0
v -145 -65 0
v -144 -65 0
v -143 -66 0
v -144 -66 0
v -144 -65 0
v -143 -65 0
v -142 -66 0
v -143 -66 0
v -143 -65 0
v -142 -65 0
v -141 -66 0
v -142 -66 0
v -142 -65 0
v -141 -65 0
v -140 -66 0
v -141 -66 0
v -141 -65 0
v -140 -65 0
v -139 -66 0
v -140 -66 0
v -140 -65 0
v -139 -65 0
v -138 -66 0
v -139 -66 0
v -139 -65 0
v -138 -65 0
v -137 -66 0
v -138 -66 0
v -138 -65 0
v -137 -65 0
v -136 -66 0
v -137 -66 0
v -137 -65 0
v -136 -65 0
v -135 -66 0
v -136 -66 0
v -136 -65 0
v -135 -65 0
v -149 -67 0
v -150 -67 0
v -150 -66 0
v -149 -66 0
v -148 -67 0
v -149 -67 0
v -149 -66 0
v -148 -66 0
v -147 -67 0
v -148 -67 0
v -148 -66 0
v -147 -66 0
v -146 -67 0
v -147 -67 0
v -147 -66 0
v -146 -66 0
v -145 -67 0
v -146 -67 0
v -146 -66 0
v -145 -66 0
v -144 -67 0
v -145 -67 0
v -145 -66 0
v -144 -66 0
v -143 -67 0
v -144 -67 0
v -144 -66 0
v -143 -66 0
v -142 -67 0
v -143 -67 0
v -143 -66 0
v -142 -66 0
v -141 -67 0
v -142 -67 0
v -142 -66 0
v -141 -66 0
v -140 -67 0
v -141 -67 0
v -141 -66 0
v -140 -66 0
v -139 -67 0
v -140 -67 0
v -140 -66 0
v -139 -66 0
v -138 -67 0
v -139 -67 0
v -139 -66 0
v -138 -66 0
v -137 -67 0
v -138 -67 0
v -138 -66 0
v -137 -66 0
v -136 -67 0
v -137 -67 0
v -137 -66 0
v -136 -66 0
v -135 -67 0
v -136 -67 0
v -136 -66 0
v -135 -66 0
v -149 -68 0
v -150 -68 0
v -150 -67 0
v -149 -67 0
v -148 -68 0
v -149 -68 0
v -149 -67 0
v -148 -67 0
v -147 -68 0
v -148 -68 0
v -148 -67 0
v -147 -67 0
v -146 -68 0
v -147 -68 0
v -147 -67 0
v -146 -67 0
v -145 -68 0
v -146 -68 0
v -146 -67 0
v -145 -67 0
v -144 -68 0
v -145 -68 0
v -145 -67 0
v -144 -67 0
v -143 -68 0
v -144 -68 0
v -144 -67 0
v -143 -67 0
v -142 -68 0
v -143 -68 0
v -143 -67 0
v -142 -67 0
v -141 -68 0
v -142 -68 0
v -142 -67 0
v -141 -67 0
v -140 -68 0
v -141 -68 0
v -141 -67 0
v -140 -67 0
v -139 -68 0
v -140 -68 0
v -140 -67 0
v -139 -67 0
v -138 -68 0
v -139 -68 0
v -139 -67 0
v -138 -67 0
v -137 -68 0
v -138 -68 0
v -138 -67 0
v -137 -67 0
v -136 -68 0
v -137 -68 0
v -137 -67 0
v -136 -67 0
v -135 -68 0
v -136 -68 0
v -136 -67 0
v -135 -67 0
v -149 -69 0
v -150 -69 0
v -150 -68 0
v -149 -68 0
v -148 -69 0
v -149 -69 0
v -149 -68 0
v -148 -68 0
v -147 -69 0
v -148 -69 0
v -148 -68 0
v -147 -68 0
v -146 -69 0
v -147 -69 0
v -147 -68 0
v -146 -68 0
v -145 -69 0
v -146 -69 0
v -146 -68 0
v -145 -68 0
v -144 -69 0
v -145 -69 0
v -145 -68 0
v -144 -68 0
v -143 -69 0
v -144 -69 0
v -144 -68 0
v -143 -68 0
v -142 -69 0
v -143 -69 0
v -143 -68 0
v -142 -68 0
v -141 -69 0
v -142 -69 0
v -142 -68 0
v -141 -68 0
v -140 -69 0
v -141 -69 0
v -141 -68 0
v -140 -68 0
v -139 -69 0
v -140 -69 0
v -140 -68 0
v -139 -68 0
v -138 -69 0
v -139 -69 0
v -139 -68 0
v -138 -68 0
v -137 -69 0
v -138 -69 0
v -138 -68 0
v -137 -68 0
v -136 -69 0
v -137 -69 0
v -137 -68 0
v -136 -68 0
v -135 -69 0
v -136 -69 0
v -136 -68 0
v -135 -68 0
v -149 -70 0
v -150 -70 0
v -150 -69 0
v -149 -69 0
v -148 -70 0
v -149 -70 0
v -149 -69 0
v -148 -69 0
v -147 -70 0
v -148 -70 0
v -148 -69 0
v -147 -69 0
v -146 -70 0
v -147 -70 0
v -147 -69 0
v -146 -69 0
v -145 -70 0
v -146 -70 0
v -146 -69 0
v -145 -69 0
v -144 -70 0
v -145 -70 0
v -145 -69 0
v -144 -69 0
v -143 -70 0
v -144 -70 0
v -144 -69 0
v -143 -69 0
v -142 -70 0
v -143 -70 0
v -143 -69 0
v -142 -69 0
v -141 -70 0
v -142 -70 0
v -142 -69 0
v -141 -69 0
v -140 -70 0
v -141 -70 0
v -141 -69 0
v -140 -69 0
v -139 -70 0
v -140 -70 0
v -140 -69 0
v -139 -69 0
v -138 -70 0
v -139 -70 0
v -139 -69 0
v -138 -69 0
v -137 -70 0
v -138 -70 0
v -138 -69 0
v -137 -69 0
v -136 -70 0
v -137 -70 0
v -137 -69 0
v -136 -69 0
v -135 -70 0
v -136 -70 0
v -136 -69 0
v -135 -69 0

# Texture cooridinates (Count = 124)
vt 0.6268939 0.5735931
vt 0.7481061 0.5735931
vt 0.7481061 0.7121212
vt 0.6268939 0.7121212
vt 0.2518939 0.5735931
vt 0.3731061 0.5735931
vt 0.3731061 0.7121212
vt 0.2518939 0.7121212
vt 0.1268939 0.5735931
vt 0.2481061 0.5735931
vt 0.2481061 0.7121212
vt 0.1268939 0.7121212
vt 0.3768939 0.5735931
vt 0.4981061 0.5735931
vt 0.4981061 0.7121212
vt 0.3768939 0.7121212
vt 0.001893939 0.5735931
vt 0.1231061 0.5735931
vt 0.1231061 0.7121212
vt 0.001893939 0.7121212
vt 0.2518939 0.4307359
vt 0.3731061 0.4307359
vt 0.3731061 0.5692641
vt 0.2518939 0.5692641
vt 0.1268939 0.4307359
vt 0.2481061 0.4307359
vt 0.2481061 0.5692641
vt 0.1268939 0.5692641
vt 0.3768939 0.4307359
vt 0.4981061 0.4307359
vt 0.4981061 0.5692641
vt 0.3768939 0.5692641
vt 0.001893939 0.4307359
vt 0.1231061 0.4307359
vt 0.1231061 0.5692641
vt 0.001893939 0.5692641
vt 0.2518939 0.2878788
vt 0.3731061 0.2878788
vt 0.3731061 0.4264069
vt 0.2518939 0.4264069
vt 0.1268939 0.2878788
vt 0.2481061 0.2878788
vt 0.2481061 0.4264069
vt 0.1268939 0.4264069
vt 0.3768939 0.2878788
vt 0.4981061 0.2878788
vt 0.4981061 0.4264069
vt 0.3768939 0.4264069
vt 0.001893939 0.2878788
vt 0.1231061 0.2878788
vt 0.1231061 0.4264069
vt 0.001893939 0.4264069
vt 0.2518939 0.1450216
vt 0.3731061 0.1450216
vt 0.3731061 0.2835498
vt 0.2518939 0.2835498
vt 0.1268939 0.1450216
vt 0.2481061 0.1450216
vt 0.2481061 0.2835498
vt 0.1268939 0.2835498
vt 0.3768939 0.1450216
vt 0.4981061 0.1450216
vt 0.4981061 0.2835498
vt 0.3768939 0.2835498
vt 0.001893939 0.1450216
vt 0.1231061 0.1450216
vt 0.1231061 0.2835498
vt 0.001893939 0.2835498
vt 0.6268939 0.002164483
vt 0.7481061 0.002164483
vt 0.7481061 0.1406927
vt 0.6268939 0.1406927
vt 0.2518939 0.002164483
vt 0.3731061 0.002164483
vt 0.3731061 0.1406927
vt 0.2518939 0.1406927
vt 0.1268939 0.002164483
vt 0.2481061 0.002164483
vt 0.2481061 0.1406927
vt 0.1268939 0.1406927
vt 0.3768939 0.002164483
vt 0.4981061 0.002164483
vt 0.4981061 0.1406927
vt 0.3768939 0.1406927
vt 0.001893939 0.002164483
vt 0.1231061 0.002164483
vt 0.1231061 0.1406927
vt 0.001893939 0.1406927
vt 0.7518939 0.8593073
vt 0.8731061 0.8593073
vt 0.8731061 0.9978355
vt 0.7518939 0.9978355
vt 0.6268939 0.8593073
vt 0.7481061 0.8593073
vt 0.7481061 0.9978355
vt 0.6268939 0.9978355
vt 0.5018939 0.1450216
vt 0.6231061 0.1450216
vt 0.6231061 0.2835498
vt 0.5018939 0.2835498
vt 0.6268939 0.2878788
vt 0.7481061 0.2878788
vt 0.7481061 0.4264069
vt 0.6268939 0.4264069
vt 0.7518939 0.7164502
vt 0.8731061 0.7164502
vt 0.8731061 0.8549783
vt 0.7518939 0.8549783
vt 0.6268939 0.7164502
vt 0.7481061 0.7164502
vt 0.7481061 0.8549783
vt 0.6268939 0.8549783
vt 0.5018939 0.2878788
vt 0.6231061 0.2878788
vt 0.6231061 0.4264069
vt 0.5018939 0.4264069
vt 0.6268939 0.1450216
vt 0.7481061 0.1450216
vt 0.7481061 0.2835498
vt 0.6268939 0.2835498
vt 0.5018939 0.002164483
vt 0.6231061 0.002164483
vt 0.6231061 0.1406927
vt 0.5018939 0.1406927

# Normal
vn 0 0 -1

# Mesh description
g AstralaProper_mesh_0015

# Faces
f 1/1/1 2/2/1 3/3/1 4/4/1
f 5/1/1 6/2/1 7/3/1 8/4/1
f 9/1/1 10/2/1 11/3/1 12/4/1
f 13/1/1 14/2/1 15/3/1 16/4/1
f 17/1/1 18/2/1 19/3/1 20/4/1
f 21/1/1 22/2/1 23/3/1 24/4/1
f 25/1/1 26/2/1 27/3/1 28/4/1
f 29/1/1 30/2/1 31/3/1 32/4/1
f 33/5/1 34/6/1 35/7/1 36/8/1
f 37/9/1 38/10/1 39/11/1 40/12/1
f 41/13/1 42/14/1 43/15/1 44/16/1
f 45/9/1 46/10/1 47/11/1 48/12/1
f 49/17/1 50/18/1 51/19/1 52/20/1
f 53/1/1 54/2/1 55/3/1 56/4/1
f 57/1/1 58/2/1 59/3/1 60/4/1
f 61/1/1 62/2/1 63/3/1 64/4/1
f 65/1/1 66/2/1 67/3/1 68/4/1
f 69/1/1 70/2/1 71/3/1 72/4/1
f 73/21/1 74/22/1 75/23/1 76/24/1
f 77/25/1 78/26/1 79/27/1 80/28/1
f 81/29/1 82/30/1 83/31/1 84/32/1
f 85/25/1 86/26/1 87/27/1 88/28/1
f 89/33/1 90/34/1 91/35/1 92/36/1
f 93/1/1 94/2/1 95/3/1 96/4/1
f 97/1/1 98/2/1 99/3/1 100/4/1
f 101/1/1 102/2/1 103/3/1 104/4/1
f 105/1/1 106/2/1 107/3/1 108/4/1
f 109/1/1 110/2/1 111/3/1 112/4/1
f 113/1/1 114/2/1 115/3/1 116/4/1
f 117/1/1 118/2/1 119/3/1 120/4/1
f 121/37/1 122/38/1 123/39/1 124/40/1
f 125/41/1 126/42/1 127/43/1 128/44/1
f 129/45/1 130/46/1 131/47/1 132/48/1
f 133/41/1 134/42/1 135/43/1 136/44/1
f 137/49/1 138/50/1 139/51/1 140/52/1
f 141/5/1 142/6/1 143/7/1 144/8/1
f 145/9/1 146/10/1 147/11/1 148/12/1
f 149/13/1 150/14/1 151/15/1 152/16/1
f 153/9/1 154/10/1 155/11/1 156/12/1
f 157/13/1 158/14/1 159/15/1 160/16/1
f 161/9/1 162/10/1 163/11/1 164/12/1
f 165/13/1 166/14/1 167/15/1 168/16/1
f 169/9/1 170/10/1 171/11/1 172/12/1
f 173/17/1 174/18/1 175/19/1 176/20/1
f 177/53/1 178/54/1 179/55/1 180/56/1
f 181/57/1 182/58/1 183/59/1 184/60/1
f 185/61/1 186/62/1 187/63/1 188/64/1
f 189/57/1 190/58/1 191/59/1 192/60/1
f 193/65/1 194/66/1 195/67/1 196/68/1
f 197/1/1 198/2/1 199/3/1 200/4/1
f 201/1/1 202/2/1 203/3/1 204/4/1
f 205/21/1 206/22/1 207/23/1 208/24/1
f 209/25/1 210/26/1 211/27/1 212/28/1
f 213/29/1 214/30/1 215/31/1 216/32/1
f 217/25/1 218/26/1 219/27/1 220/28/1
f 221/29/1 222/30/1 223/31/1 224/32/1
f 225/25/1 226/26/1 227/27/1 228/28/1
f 229/29/1 230/30/1 231/31/1 232/32/1
f 233/25/1 234/26/1 235/27/1 236/28/1
f 237/33/1 238/34/1 239/35/1 240/36/1
f 241/1/1 242/2/1 243/3/1 244/4/1
f 245/1/1 246/2/1 247/3/1 248/4/1
f 249/69/1 250/70/1 251/71/1 252/72/1
f 253/73/1 254/74/1 255/75/1 256/76/1
f 257/77/1 258/78/1 259/79/1 260/80/1
f 261/81/1 262/82/1 263/83/1 264/84/1
f 265/77/1 266/78/1 267/79/1 268/80/1
f 269/85/1 270/86/1 271/87/1 272/88/1
f 273/5/1 274/6/1 275/7/1 276/8/1
f 277/9/1 278/10/1 279/11/1 280/12/1
f 281/89/1 282/90/1 283/91/1 284/92/1
f 285/57/1 286/58/1 287/59/1 288/60/1
f 289/61/1 290/62/1 291/63/1 292/64/1
f 293/57/1 294/58/1 295/59/1 296/60/1
f 297/61/1 298/62/1 299/63/1 300/64/1
f 301/57/1 302/58/1 303/59/1 304/60/1
f 305/61/1 306/62/1 307/63/1 308/64/1
f 309/41/1 310/42/1 311/43/1 312/44/1
f 313/93/1 314/94/1 315/95/1 316/96/1
f 317/9/1 318/10/1 319/11/1 320/12/1
f 321/17/1 322/18/1 323/19/1 324/20/1
f 325/97/1 326/98/1 327/99/1 328/100/1
f 329/101/1 330/102/1 331/103/1 332/104/1
f 333/21/1 334/22/1 335/23/1 336/24/1
f 337/25/1 338/26/1 339/27/1 340/28/1
f 341/105/1 342/106/1 343/107/1 344/108/1
f 345/41/1 346/42/1 347/43/1 348/44/1
f 349/45/1 350/46/1 351/47/1 352/48/1
f 353/41/1 354/42/1 355/43/1 356/44/1
f 357/45/1 358/46/1 359/47/1 360/48/1
f 361/41/1 362/42/1 363/43/1 364/44/1
f 365/45/1 366/46/1 367/47/1 368/48/1
f 369/41/1 370/42/1 371/43/1 372/44/1
f 373/109/1 374/110/1 375/111/1 376/112/1
f 377/25/1 378/26/1 379/27/1 380/28/1
f 381/33/1 382/34/1 383/35/1 384/36/1
f 385/113/1 386/114/1 387/115/1 388/116/1
f 389/117/1 390/118/1 391/119/1 392/120/1
f 393/53/1 394/54/1 395/55/1 396/56/1
f 397/57/1 398/58/1 399/59/1 400/60/1
f 401/61/1 402/62/1 403/63/1 404/64/1
f 405/41/1 406/42/1 407/43/1 408/44/1
f 409/61/1 410/62/1 411/63/1 412/64/1
f 413/57/1 414/58/1 415/59/1 416/60/1
f 417/61/1 418/62/1 419/63/1 420/64/1
f 421/57/1 422/58/1 423/59/1 424/60/1
f 425/61/1 426/62/1 427/63/1 428/64/1
f 429/41/1 430/42/1 431/43/1 432/44/1
f 433/61/1 434/62/1 435/63/1 436/64/1
f 437/41/1 438/42/1 439/43/1 440/44/1
f 441/65/1 442/66/1 443/67/1 444/68/1
f 445/97/1 446/98/1 447/99/1 448/100/1
f 449/117/1 450/118/1 451/119/1 452/120/1
f 453/53/1 454/54/1 455/55/1 456/56/1
f 457/57/1 458/58/1 459/59/1 460/60/1
f 461/61/1 462/62/1 463/63/1 464/64/1
f 465/9/1 466/10/1 467/11/1 468/12/1
f 469/61/1 470/62/1 471/63/1 472/64/1
f 473/57/1 474/58/1 475/59/1 476/60/1
f 477/61/1 478/62/1 479/63/1 480/64/1
f 481/57/1 482/58/1 483/59/1 484/60/1
f 485/61/1 486/62/1 487/63/1 488/64/1
f 489/9/1 490/10/1 491/11/1 492/12/1
f 493/61/1 494/62/1 495/63/1 496/64/1
f 497/57/1 498/58/1 499/59/1 500/60/1
f 501/65/1 502/66/1 503/67/1 504/68/1
f 505/97/1 506/98/1 507/99/1 508/100/1
f 509/101/1 510/102/1 511/103/1 512/104/1
f 513/37/1 514/38/1 515/39/1 516/40/1
f 517/41/1 518/42/1 519/43/1 520/44/1
f 521/45/1 522/46/1 523/47/1 524/48/1
f 525/25/1 526/26/1 527/27/1 528/28/1
f 529/45/1 530/46/1 531/47/1 532/48/1
f 533/41/1 534/42/1 535/43/1 536/44/1
f 537/45/1 538/46/1 539/47/1 540/48/1
f 541/41/1 542/42/1 543/43/1 544/44/1
f 545/45/1 546/46/1 547/47/1 548/48/1
f 549/25/1 550/26/1 551/27/1 552/28/1
f 553/45/1 554/46/1 555/47/1 556/48/1
f 557/41/1 558/42/1 559/43/1 560/44/1
f 561/49/1 562/50/1 563/51/1 564/52/1
f 565/113/1 566/114/1 567/115/1 568/116/1
f 569/117/1 570/118/1 571/119/1 572/120/1
f 573/53/1 574/54/1 575/55/1 576/56/1
f 577/57/1 578/58/1 579/59/1 580/60/1
f 581/61/1 582/62/1 583/63/1 584/64/1
f 585/57/1 586/58/1 587/59/1 588/60/1
f 589/61/1 590/62/1 591/63/1 592/64/1
f 593/57/1 594/58/1 595/59/1 596/60/1
f 597/61/1 598/62/1 599/63/1 600/64/1
f 601/57/1 602/58/1 603/59/1 604/60/1
f 605/61/1 606/62/1 607/63/1 608/64/1
f 609/57/1 610/58/1 611/59/1 612/60/1
f 613/61/1 614/62/1 615/63/1 616/64/1
f 617/57/1 618/58/1 619/59/1 620/60/1
f 621/65/1 622/66/1 623/67/1 624/68/1
f 625/97/1 626/98/1 627/99/1 628/100/1
f 629/69/1 630/70/1 631/71/1 632/72/1
f 633/73/1 634/74/1 635/75/1 636/76/1
f 637/77/1 638/78/1 639/79/1 640/80/1
f 641/81/1 642/82/1 643/83/1 644/84/1
f 645/77/1 646/78/1 647/79/1 648/80/1
f 649/81/1 650/82/1 651/83/1 652/84/1
f 653/77/1 654/78/1 655/79/1 656/80/1
f 657/81/1 658/82/1 659/83/1 660/84/1
f 661/77/1 662/78/1 663/79/1 664/80/1
f 665/81/1 666/82/1 667/83/1 668/84/1
f 669/77/1 670/78/1 671/79/1 672/80/1
f 673/81/1 674/82/1 675/83/1 676/84/1
f 677/77/1 678/78/1 679/79/1 680/80/1
f 681/85/1 682/86/1 683/87/1 684/88/1
f 685/121/1 686/122/1 687/123/1 688/124/1

