# Tiled2Unity generated file. Do not modify by hand.
# Wavefront file for 'AstralaProper_mesh_0043.obj'

# Vertices (Count = 36)
v -143 -59 0
v -144 -59 0
v -144 -58 0
v -143 -58 0
v -142 -59 0
v -143 -59 0
v -143 -58 0
v -142 -58 0
v -141 -59 0
v -142 -59 0
v -142 -58 0
v -141 -58 0
v -143 -60 0
v -144 -60 0
v -144 -59 0
v -143 -59 0
v -142 -60 0
v -143 -60 0
v -143 -59 0
v -142 -59 0
v -141 -60 0
v -142 -60 0
v -142 -59 0
v -141 -59 0
v -143 -61 0
v -144 -61 0
v -144 -60 0
v -143 -60 0
v -142 -61 0
v -143 -61 0
v -143 -60 0
v -142 -60 0
v -141 -61 0
v -142 -61 0
v -142 -60 0
v -141 -60 0

# Texture cooridinates (Count = 36)
vt 0.6717172 0.6717172
vt 0.9949495 0.6717172
vt 0.9949495 0.9949495
vt 0.6717172 0.9949495
vt 0.3383838 0.6717172
vt 0.6616161 0.6717172
vt 0.6616161 0.9949495
vt 0.3383838 0.9949495
vt 0.005050505 0.6717172
vt 0.3282828 0.6717172
vt 0.3282828 0.9949495
vt 0.005050505 0.9949495
vt 0.6717172 0.3383839
vt 0.9949495 0.3383839
vt 0.9949495 0.6616162
vt 0.6717172 0.6616162
vt 0.3383838 0.3383839
vt 0.6616161 0.3383839
vt 0.6616161 0.6616162
vt 0.3383838 0.6616162
vt 0.005050505 0.3383839
vt 0.3282828 0.3383839
vt 0.3282828 0.6616162
vt 0.005050505 0.6616162
vt 0.6717172 0.00505048
vt 0.9949495 0.00505048
vt 0.9949495 0.3282828
vt 0.6717172 0.3282828
vt 0.3383838 0.00505048
vt 0.6616161 0.00505048
vt 0.6616161 0.3282828
vt 0.3383838 0.3282828
vt 0.005050505 0.00505048
vt 0.3282828 0.00505048
vt 0.3282828 0.3282828
vt 0.005050505 0.3282828

# Normal
vn 0 0 -1

# Mesh description
g AstralaProper_mesh_0043

# Faces
f 1/1/1 2/2/1 3/3/1 4/4/1
f 5/5/1 6/6/1 7/7/1 8/8/1
f 9/9/1 10/10/1 11/11/1 12/12/1
f 13/13/1 14/14/1 15/15/1 16/16/1
f 17/17/1 18/18/1 19/19/1 20/20/1
f 21/21/1 22/22/1 23/23/1 24/24/1
f 25/25/1 26/26/1 27/27/1 28/28/1
f 29/29/1 30/30/1 31/31/1 32/32/1
f 33/33/1 34/34/1 35/35/1 36/36/1

