# Tiled2Unity generated file. Do not modify by hand.
# Wavefront file for 'AstralaProper_mesh_0066.obj'

# Vertices (Count = 96)
v -86 -50 0
v -87 -50 0
v -87 -49 0
v -86 -49 0
v -86 -51 0
v -87 -51 0
v -87 -50 0
v -86 -50 0
v -86 -52 0
v -87 -52 0
v -87 -51 0
v -86 -51 0
v -86 -53 0
v -87 -53 0
v -87 -52 0
v -86 -52 0
v -86 -54 0
v -87 -54 0
v -87 -53 0
v -86 -53 0
v -86 -55 0
v -87 -55 0
v -87 -54 0
v -86 -54 0
v -86 -56 0
v -87 -56 0
v -87 -55 0
v -86 -55 0
v -174 -78 0
v -175 -78 0
v -175 -77 0
v -174 -77 0
v -167 -78 0
v -168 -78 0
v -168 -77 0
v -167 -77 0
v -174 -79 0
v -175 -79 0
v -175 -78 0
v -174 -78 0
v -167 -79 0
v -168 -79 0
v -168 -78 0
v -167 -78 0
v -167 -80 0
v -168 -80 0
v -168 -79 0
v -167 -79 0
v -167 -81 0
v -168 -81 0
v -168 -80 0
v -167 -80 0
v -171 -83 0
v -172 -83 0
v -172 -82 0
v -171 -82 0
v -171 -84 0
v -172 -84 0
v -172 -83 0
v -171 -83 0
v -172 -96 0
v -173 -96 0
v -173 -95 0
v -172 -95 0
v -172 -97 0
v -173 -97 0
v -173 -96 0
v -172 -96 0
v -172 -98 0
v -173 -98 0
v -173 -97 0
v -172 -97 0
v -172 -99 0
v -173 -99 0
v -173 -98 0
v -172 -98 0
v -172 -100 0
v -173 -100 0
v -173 -99 0
v -172 -99 0
v -172 -101 0
v -173 -101 0
v -173 -100 0
v -172 -100 0
v -195 -110 0
v -196 -110 0
v -196 -109 0
v -195 -109 0
v -195 -111 0
v -196 -111 0
v -196 -110 0
v -195 -110 0
v -195 -112 0
v -196 -112 0
v -196 -111 0
v -195 -111 0

# Texture cooridinates (Count = 32)
vt 0.01515152 0.6683502
vt 0.9848485 0.6683502
vt 0.9848485 0.7760943
vt 0.01515152 0.7760943
vt 0.01515152 0.5572391
vt 0.9848485 0.5572391
vt 0.9848485 0.6649832
vt 0.01515152 0.6649832
vt 0.01515152 0.446128
vt 0.9848485 0.446128
vt 0.9848485 0.553872
vt 0.01515152 0.553872
vt 0.01515152 0.2239057
vt 0.9848485 0.2239057
vt 0.9848485 0.3316498
vt 0.01515152 0.3316498
vt 0.01515152 0.1127946
vt 0.9848485 0.1127946
vt 0.9848485 0.2205387
vt 0.01515152 0.2205387
vt 0.01515152 0.3350168
vt 0.9848485 0.3350168
vt 0.9848485 0.4427609
vt 0.01515152 0.4427609
vt 0.01515152 0.001683474
vt 0.9848485 0.001683474
vt 0.9848485 0.1094276
vt 0.01515152 0.1094276
vt 0.01515152 0.8905724
vt 0.9848485 0.8905724
vt 0.9848485 0.9983165
vt 0.01515152 0.9983165

# Normal
vn 0 0 -1

# Mesh description
g AstralaProper_mesh_0066

# Faces
f 1/1/1 2/2/1 3/3/1 4/4/1
f 5/1/1 6/2/1 7/3/1 8/4/1
f 9/1/1 10/2/1 11/3/1 12/4/1
f 13/5/1 14/6/1 15/7/1 16/8/1
f 17/9/1 18/10/1 19/11/1 20/12/1
f 21/13/1 22/14/1 23/15/1 24/16/1
f 25/17/1 26/18/1 27/19/1 28/20/1
f 29/21/1 30/22/1 31/23/1 32/24/1
f 33/21/1 34/22/1 35/23/1 36/24/1
f 37/25/1 38/26/1 39/27/1 40/28/1
f 41/21/1 42/22/1 43/23/1 44/24/1
f 45/21/1 46/22/1 47/23/1 48/24/1
f 49/25/1 50/26/1 51/27/1 52/28/1
f 53/29/1 54/30/1 55/31/1 56/32/1
f 57/21/1 58/22/1 59/23/1 60/24/1
f 61/21/1 62/22/1 63/23/1 64/24/1
f 65/21/1 66/22/1 67/23/1 68/24/1
f 69/21/1 70/22/1 71/23/1 72/24/1
f 73/21/1 74/22/1 75/23/1 76/24/1
f 77/13/1 78/14/1 79/15/1 80/16/1
f 81/17/1 82/18/1 83/19/1 84/20/1
f 85/21/1 86/22/1 87/23/1 88/24/1
f 89/21/1 90/22/1 91/23/1 92/24/1
f 93/25/1 94/26/1 95/27/1 96/28/1

